%TF.GenerationSoftware,KiCad,Pcbnew,8.0.5*%
%TF.CreationDate,2025-02-06T11:14:04+08:00*%
%TF.ProjectId,arduino_solar_bikelight_1,61726475-696e-46f5-9f73-6f6c61725f62,rev?*%
%TF.SameCoordinates,Original*%
%TF.FileFunction,Drillmap*%
%TF.FilePolarity,Positive*%
%FSLAX45Y45*%
G04 Gerber Fmt 4.5, Leading zero omitted, Abs format (unit mm)*
G04 Created by KiCad (PCBNEW 8.0.5) date 2025-02-06 11:14:04*
%MOMM*%
%LPD*%
G01*
G04 APERTURE LIST*
%ADD10C,0.050000*%
%ADD11C,0.200000*%
%ADD12C,0.100000*%
%ADD13C,0.110000*%
G04 APERTURE END LIST*
D10*
X12674500Y-5839500D02*
X18774500Y-5839500D01*
X18774500Y-10739500D01*
X12674500Y-10739500D01*
X12674500Y-5839500D01*
D11*
D12*
X18069500Y-8275500D02*
X18099500Y-8305500D01*
X18099500Y-8275500D02*
X18069500Y-8305500D01*
X18099500Y-8884500D02*
X18129500Y-8914500D01*
X18129500Y-8884500D02*
X18099500Y-8914500D01*
X18099500Y-9134500D02*
X18129500Y-9164500D01*
X18129500Y-9134500D02*
X18099500Y-9164500D01*
X18119500Y-9394500D02*
X18149500Y-9424500D01*
X18149500Y-9394500D02*
X18119500Y-9424500D01*
X18579500Y-8629000D02*
X18609500Y-8659000D01*
X18609500Y-8629000D02*
X18579500Y-8659000D01*
X17693500Y-8290500D02*
G75*
G02*
X17618500Y-8290500I-37500J0D01*
G01*
X17618500Y-8290500D02*
G75*
G02*
X17693500Y-8290500I37500J0D01*
G01*
X17693500Y-10386000D02*
G75*
G02*
X17618500Y-10386000I-37500J0D01*
G01*
X17618500Y-10386000D02*
G75*
G02*
X17693500Y-10386000I37500J0D01*
G01*
X17820500Y-8290500D02*
G75*
G02*
X17745500Y-8290500I-37500J0D01*
G01*
X17745500Y-8290500D02*
G75*
G02*
X17820500Y-8290500I37500J0D01*
G01*
X17820500Y-10386000D02*
G75*
G02*
X17745500Y-10386000I-37500J0D01*
G01*
X17745500Y-10386000D02*
G75*
G02*
X17820500Y-10386000I37500J0D01*
G01*
X17947500Y-8290500D02*
G75*
G02*
X17872500Y-8290500I-37500J0D01*
G01*
X17872500Y-8290500D02*
G75*
G02*
X17947500Y-8290500I37500J0D01*
G01*
X17947500Y-10386000D02*
G75*
G02*
X17872500Y-10386000I-37500J0D01*
G01*
X17872500Y-10386000D02*
G75*
G02*
X17947500Y-10386000I37500J0D01*
G01*
X14735000Y-9488000D02*
X14735000Y-9568000D01*
X14695000Y-9528000D02*
X14775000Y-9528000D01*
X14735000Y-10504000D02*
X14735000Y-10584000D01*
X14695000Y-10544000D02*
X14775000Y-10544000D01*
X15116000Y-6122500D02*
X15116000Y-6202500D01*
X15076000Y-6162500D02*
X15156000Y-6162500D01*
X15116000Y-7138500D02*
X15116000Y-7218500D01*
X15076000Y-7178500D02*
X15156000Y-7178500D01*
X15116000Y-7456000D02*
X15116000Y-7536000D01*
X15076000Y-7496000D02*
X15156000Y-7496000D01*
X15116000Y-8472000D02*
X15116000Y-8552000D01*
X15076000Y-8512000D02*
X15156000Y-8512000D01*
X15179500Y-9488000D02*
X15179500Y-9568000D01*
X15139500Y-9528000D02*
X15219500Y-9528000D01*
X15179500Y-10504000D02*
X15179500Y-10584000D01*
X15139500Y-10544000D02*
X15219500Y-10544000D01*
X17783000Y-6699000D02*
X17783000Y-6779000D01*
X17743000Y-6739000D02*
X17823000Y-6739000D01*
X17783000Y-7715000D02*
X17783000Y-7795000D01*
X17743000Y-7755000D02*
X17823000Y-7755000D01*
X17783000Y-8794500D02*
X17783000Y-8874500D01*
X17743000Y-8834500D02*
X17823000Y-8834500D01*
X17783000Y-9810500D02*
X17783000Y-9890500D01*
X17743000Y-9850500D02*
X17823000Y-9850500D01*
X13563856Y-6520856D02*
X13563856Y-6450144D01*
X13493144Y-6450144D01*
X13493144Y-6520856D01*
X13563856Y-6520856D01*
X13563856Y-6774856D02*
X13563856Y-6704144D01*
X13493144Y-6704144D01*
X13493144Y-6774856D01*
X13563856Y-6774856D01*
X13563856Y-7727356D02*
X13563856Y-7656644D01*
X13493144Y-7656644D01*
X13493144Y-7727356D01*
X13563856Y-7727356D01*
X13563856Y-7981356D02*
X13563856Y-7910644D01*
X13493144Y-7910644D01*
X13493144Y-7981356D01*
X13563856Y-7981356D01*
X13879856Y-9314356D02*
X13879856Y-9243644D01*
X13809144Y-9243644D01*
X13809144Y-9314356D01*
X13879856Y-9314356D01*
X13714500Y-9329000D02*
X13974500Y-9329000D01*
X13974500Y-9229000D02*
G75*
G02*
X13974500Y-9329000I0J-50000D01*
G01*
X13974500Y-9229000D02*
X13714500Y-9229000D01*
X13714500Y-9229000D02*
G75*
G03*
X13714500Y-9329000I0J-50000D01*
G01*
X13879856Y-9944356D02*
X13879856Y-9873644D01*
X13809144Y-9873644D01*
X13809144Y-9944356D01*
X13879856Y-9944356D01*
X13734500Y-9959000D02*
X13954500Y-9959000D01*
X13954500Y-9859000D02*
G75*
G02*
X13954500Y-9959000I0J-50000D01*
G01*
X13954500Y-9859000D02*
X13734500Y-9859000D01*
X13734500Y-9859000D02*
G75*
G03*
X13734500Y-9959000I0J-50000D01*
G01*
X14359856Y-9604356D02*
X14359856Y-9533644D01*
X14289144Y-9533644D01*
X14289144Y-9604356D01*
X14359856Y-9604356D01*
X14274500Y-9459000D02*
X14274500Y-9679000D01*
X14374500Y-9679000D02*
G75*
G02*
X14274500Y-9679000I-50000J0D01*
G01*
X14374500Y-9679000D02*
X14374500Y-9459000D01*
X14374500Y-9459000D02*
G75*
G03*
X14274500Y-9459000I-50000J0D01*
G01*
X14389356Y-7853856D02*
X14389356Y-7783144D01*
X14318644Y-7783144D01*
X14318644Y-7853856D01*
X14389356Y-7853856D01*
X14389356Y-8103856D02*
X14389356Y-8033144D01*
X14318644Y-8033144D01*
X14318644Y-8103856D01*
X14389356Y-8103856D01*
X14400356Y-6642356D02*
X14400356Y-6571644D01*
X14329644Y-6571644D01*
X14329644Y-6642356D01*
X14400356Y-6642356D01*
X14400356Y-6892356D02*
X14400356Y-6821644D01*
X14329644Y-6821644D01*
X14329644Y-6892356D01*
X14400356Y-6892356D01*
X15722856Y-6710856D02*
X15722856Y-6640144D01*
X15652144Y-6640144D01*
X15652144Y-6710856D01*
X15722856Y-6710856D01*
X15722856Y-6964856D02*
X15722856Y-6894144D01*
X15652144Y-6894144D01*
X15652144Y-6964856D01*
X15722856Y-6964856D01*
X15722856Y-7218856D02*
X15722856Y-7148144D01*
X15652144Y-7148144D01*
X15652144Y-7218856D01*
X15722856Y-7218856D01*
X15722856Y-7472856D02*
X15722856Y-7402144D01*
X15652144Y-7402144D01*
X15652144Y-7472856D01*
X15722856Y-7472856D01*
X15722856Y-7726856D02*
X15722856Y-7656144D01*
X15652144Y-7656144D01*
X15652144Y-7726856D01*
X15722856Y-7726856D01*
X15722856Y-7980856D02*
X15722856Y-7910144D01*
X15652144Y-7910144D01*
X15652144Y-7980856D01*
X15722856Y-7980856D01*
X15722856Y-8234856D02*
X15722856Y-8164144D01*
X15652144Y-8164144D01*
X15652144Y-8234856D01*
X15722856Y-8234856D01*
X15722856Y-8488856D02*
X15722856Y-8418144D01*
X15652144Y-8418144D01*
X15652144Y-8488856D01*
X15722856Y-8488856D01*
X15722856Y-8742856D02*
X15722856Y-8672144D01*
X15652144Y-8672144D01*
X15652144Y-8742856D01*
X15722856Y-8742856D01*
X15722856Y-8996856D02*
X15722856Y-8926144D01*
X15652144Y-8926144D01*
X15652144Y-8996856D01*
X15722856Y-8996856D01*
X15722856Y-9250856D02*
X15722856Y-9180144D01*
X15652144Y-9180144D01*
X15652144Y-9250856D01*
X15722856Y-9250856D01*
X15722856Y-9504856D02*
X15722856Y-9434144D01*
X15652144Y-9434144D01*
X15652144Y-9504856D01*
X15722856Y-9504856D01*
X15722856Y-9758856D02*
X15722856Y-9688144D01*
X15652144Y-9688144D01*
X15652144Y-9758856D01*
X15722856Y-9758856D01*
X15722856Y-10012856D02*
X15722856Y-9942144D01*
X15652144Y-9942144D01*
X15652144Y-10012856D01*
X15722856Y-10012856D01*
X15722856Y-10266856D02*
X15722856Y-10196144D01*
X15652144Y-10196144D01*
X15652144Y-10266856D01*
X15722856Y-10266856D01*
X17246856Y-6710856D02*
X17246856Y-6640144D01*
X17176144Y-6640144D01*
X17176144Y-6710856D01*
X17246856Y-6710856D01*
X17246856Y-6964856D02*
X17246856Y-6894144D01*
X17176144Y-6894144D01*
X17176144Y-6964856D01*
X17246856Y-6964856D01*
X17246856Y-7218856D02*
X17246856Y-7148144D01*
X17176144Y-7148144D01*
X17176144Y-7218856D01*
X17246856Y-7218856D01*
X17246856Y-7472856D02*
X17246856Y-7402144D01*
X17176144Y-7402144D01*
X17176144Y-7472856D01*
X17246856Y-7472856D01*
X17246856Y-7726856D02*
X17246856Y-7656144D01*
X17176144Y-7656144D01*
X17176144Y-7726856D01*
X17246856Y-7726856D01*
X17246856Y-7980856D02*
X17246856Y-7910144D01*
X17176144Y-7910144D01*
X17176144Y-7980856D01*
X17246856Y-7980856D01*
X17246856Y-8234856D02*
X17246856Y-8164144D01*
X17176144Y-8164144D01*
X17176144Y-8234856D01*
X17246856Y-8234856D01*
X17246856Y-8488856D02*
X17246856Y-8418144D01*
X17176144Y-8418144D01*
X17176144Y-8488856D01*
X17246856Y-8488856D01*
X17246856Y-8742856D02*
X17246856Y-8672144D01*
X17176144Y-8672144D01*
X17176144Y-8742856D01*
X17246856Y-8742856D01*
X17246856Y-8996856D02*
X17246856Y-8926144D01*
X17176144Y-8926144D01*
X17176144Y-8996856D01*
X17246856Y-8996856D01*
X17246856Y-9250856D02*
X17246856Y-9180144D01*
X17176144Y-9180144D01*
X17176144Y-9250856D01*
X17246856Y-9250856D01*
X17246856Y-9504856D02*
X17246856Y-9434144D01*
X17176144Y-9434144D01*
X17176144Y-9504856D01*
X17246856Y-9504856D01*
X17246856Y-9758856D02*
X17246856Y-9688144D01*
X17176144Y-9688144D01*
X17176144Y-9758856D01*
X17246856Y-9758856D01*
X17246856Y-10012856D02*
X17246856Y-9942144D01*
X17176144Y-9942144D01*
X17176144Y-10012856D01*
X17246856Y-10012856D01*
X17246856Y-10266856D02*
X17246856Y-10196144D01*
X17176144Y-10196144D01*
X17176144Y-10266856D01*
X17246856Y-10266856D01*
X18389856Y-8425356D02*
X18389856Y-8354644D01*
X18319144Y-8354644D01*
X18319144Y-8425356D01*
X18389856Y-8425356D01*
X18389856Y-8679356D02*
X18389856Y-8608644D01*
X18319144Y-8608644D01*
X18319144Y-8679356D01*
X18389856Y-8679356D01*
X18389856Y-8933356D02*
X18389856Y-8862644D01*
X18319144Y-8862644D01*
X18319144Y-8933356D01*
X18389856Y-8933356D01*
X18389856Y-9187356D02*
X18389856Y-9116644D01*
X18319144Y-9116644D01*
X18319144Y-9187356D01*
X18389856Y-9187356D01*
X18389856Y-9441356D02*
X18389856Y-9370644D01*
X18319144Y-9370644D01*
X18319144Y-9441356D01*
X18389856Y-9441356D01*
D13*
X14100000Y-8884500D02*
X14155000Y-8829500D01*
X14100000Y-8774500D01*
X14045000Y-8829500D01*
X14100000Y-8884500D01*
X15116000Y-8884500D02*
X15171000Y-8829500D01*
X15116000Y-8774500D01*
X15061000Y-8829500D01*
X15116000Y-8884500D01*
D11*
X12932777Y-11053484D02*
X12932777Y-10853484D01*
X12932777Y-10853484D02*
X12980396Y-10853484D01*
X12980396Y-10853484D02*
X13008967Y-10863008D01*
X13008967Y-10863008D02*
X13028015Y-10882055D01*
X13028015Y-10882055D02*
X13037539Y-10901103D01*
X13037539Y-10901103D02*
X13047062Y-10939198D01*
X13047062Y-10939198D02*
X13047062Y-10967770D01*
X13047062Y-10967770D02*
X13037539Y-11005865D01*
X13037539Y-11005865D02*
X13028015Y-11024912D01*
X13028015Y-11024912D02*
X13008967Y-11043960D01*
X13008967Y-11043960D02*
X12980396Y-11053484D01*
X12980396Y-11053484D02*
X12932777Y-11053484D01*
X13132777Y-11053484D02*
X13132777Y-10920150D01*
X13132777Y-10958246D02*
X13142301Y-10939198D01*
X13142301Y-10939198D02*
X13151824Y-10929674D01*
X13151824Y-10929674D02*
X13170872Y-10920150D01*
X13170872Y-10920150D02*
X13189920Y-10920150D01*
X13256586Y-11053484D02*
X13256586Y-10920150D01*
X13256586Y-10853484D02*
X13247062Y-10863008D01*
X13247062Y-10863008D02*
X13256586Y-10872531D01*
X13256586Y-10872531D02*
X13266110Y-10863008D01*
X13266110Y-10863008D02*
X13256586Y-10853484D01*
X13256586Y-10853484D02*
X13256586Y-10872531D01*
X13380396Y-11053484D02*
X13361348Y-11043960D01*
X13361348Y-11043960D02*
X13351824Y-11024912D01*
X13351824Y-11024912D02*
X13351824Y-10853484D01*
X13485158Y-11053484D02*
X13466110Y-11043960D01*
X13466110Y-11043960D02*
X13456586Y-11024912D01*
X13456586Y-11024912D02*
X13456586Y-10853484D01*
X13713729Y-11053484D02*
X13713729Y-10853484D01*
X13713729Y-10853484D02*
X13780396Y-10996341D01*
X13780396Y-10996341D02*
X13847062Y-10853484D01*
X13847062Y-10853484D02*
X13847062Y-11053484D01*
X14028015Y-11053484D02*
X14028015Y-10948722D01*
X14028015Y-10948722D02*
X14018491Y-10929674D01*
X14018491Y-10929674D02*
X13999443Y-10920150D01*
X13999443Y-10920150D02*
X13961348Y-10920150D01*
X13961348Y-10920150D02*
X13942301Y-10929674D01*
X14028015Y-11043960D02*
X14008967Y-11053484D01*
X14008967Y-11053484D02*
X13961348Y-11053484D01*
X13961348Y-11053484D02*
X13942301Y-11043960D01*
X13942301Y-11043960D02*
X13932777Y-11024912D01*
X13932777Y-11024912D02*
X13932777Y-11005865D01*
X13932777Y-11005865D02*
X13942301Y-10986817D01*
X13942301Y-10986817D02*
X13961348Y-10977293D01*
X13961348Y-10977293D02*
X14008967Y-10977293D01*
X14008967Y-10977293D02*
X14028015Y-10967770D01*
X14123253Y-10920150D02*
X14123253Y-11120150D01*
X14123253Y-10929674D02*
X14142301Y-10920150D01*
X14142301Y-10920150D02*
X14180396Y-10920150D01*
X14180396Y-10920150D02*
X14199443Y-10929674D01*
X14199443Y-10929674D02*
X14208967Y-10939198D01*
X14208967Y-10939198D02*
X14218491Y-10958246D01*
X14218491Y-10958246D02*
X14218491Y-11015389D01*
X14218491Y-11015389D02*
X14208967Y-11034436D01*
X14208967Y-11034436D02*
X14199443Y-11043960D01*
X14199443Y-11043960D02*
X14180396Y-11053484D01*
X14180396Y-11053484D02*
X14142301Y-11053484D01*
X14142301Y-11053484D02*
X14123253Y-11043960D01*
X14304205Y-11034436D02*
X14313729Y-11043960D01*
X14313729Y-11043960D02*
X14304205Y-11053484D01*
X14304205Y-11053484D02*
X14294682Y-11043960D01*
X14294682Y-11043960D02*
X14304205Y-11034436D01*
X14304205Y-11034436D02*
X14304205Y-11053484D01*
X14304205Y-10929674D02*
X14313729Y-10939198D01*
X14313729Y-10939198D02*
X14304205Y-10948722D01*
X14304205Y-10948722D02*
X14294682Y-10939198D01*
X14294682Y-10939198D02*
X14304205Y-10929674D01*
X14304205Y-10929674D02*
X14304205Y-10948722D01*
D12*
X12642000Y-11367000D02*
X12672000Y-11397000D01*
X12672000Y-11367000D02*
X12642000Y-11397000D01*
D11*
X12970872Y-11273484D02*
X12989920Y-11273484D01*
X12989920Y-11273484D02*
X13008967Y-11283008D01*
X13008967Y-11283008D02*
X13018491Y-11292531D01*
X13018491Y-11292531D02*
X13028015Y-11311579D01*
X13028015Y-11311579D02*
X13037539Y-11349674D01*
X13037539Y-11349674D02*
X13037539Y-11397293D01*
X13037539Y-11397293D02*
X13028015Y-11435388D01*
X13028015Y-11435388D02*
X13018491Y-11454436D01*
X13018491Y-11454436D02*
X13008967Y-11463960D01*
X13008967Y-11463960D02*
X12989920Y-11473484D01*
X12989920Y-11473484D02*
X12970872Y-11473484D01*
X12970872Y-11473484D02*
X12951824Y-11463960D01*
X12951824Y-11463960D02*
X12942301Y-11454436D01*
X12942301Y-11454436D02*
X12932777Y-11435388D01*
X12932777Y-11435388D02*
X12923253Y-11397293D01*
X12923253Y-11397293D02*
X12923253Y-11349674D01*
X12923253Y-11349674D02*
X12932777Y-11311579D01*
X12932777Y-11311579D02*
X12942301Y-11292531D01*
X12942301Y-11292531D02*
X12951824Y-11283008D01*
X12951824Y-11283008D02*
X12970872Y-11273484D01*
X13123253Y-11454436D02*
X13132777Y-11463960D01*
X13132777Y-11463960D02*
X13123253Y-11473484D01*
X13123253Y-11473484D02*
X13113729Y-11463960D01*
X13113729Y-11463960D02*
X13123253Y-11454436D01*
X13123253Y-11454436D02*
X13123253Y-11473484D01*
X13199443Y-11273484D02*
X13323253Y-11273484D01*
X13323253Y-11273484D02*
X13256586Y-11349674D01*
X13256586Y-11349674D02*
X13285158Y-11349674D01*
X13285158Y-11349674D02*
X13304205Y-11359198D01*
X13304205Y-11359198D02*
X13313729Y-11368722D01*
X13313729Y-11368722D02*
X13323253Y-11387769D01*
X13323253Y-11387769D02*
X13323253Y-11435388D01*
X13323253Y-11435388D02*
X13313729Y-11454436D01*
X13313729Y-11454436D02*
X13304205Y-11463960D01*
X13304205Y-11463960D02*
X13285158Y-11473484D01*
X13285158Y-11473484D02*
X13228015Y-11473484D01*
X13228015Y-11473484D02*
X13208967Y-11463960D01*
X13208967Y-11463960D02*
X13199443Y-11454436D01*
X13447062Y-11273484D02*
X13466110Y-11273484D01*
X13466110Y-11273484D02*
X13485158Y-11283008D01*
X13485158Y-11283008D02*
X13494682Y-11292531D01*
X13494682Y-11292531D02*
X13504205Y-11311579D01*
X13504205Y-11311579D02*
X13513729Y-11349674D01*
X13513729Y-11349674D02*
X13513729Y-11397293D01*
X13513729Y-11397293D02*
X13504205Y-11435388D01*
X13504205Y-11435388D02*
X13494682Y-11454436D01*
X13494682Y-11454436D02*
X13485158Y-11463960D01*
X13485158Y-11463960D02*
X13466110Y-11473484D01*
X13466110Y-11473484D02*
X13447062Y-11473484D01*
X13447062Y-11473484D02*
X13428015Y-11463960D01*
X13428015Y-11463960D02*
X13418491Y-11454436D01*
X13418491Y-11454436D02*
X13408967Y-11435388D01*
X13408967Y-11435388D02*
X13399443Y-11397293D01*
X13399443Y-11397293D02*
X13399443Y-11349674D01*
X13399443Y-11349674D02*
X13408967Y-11311579D01*
X13408967Y-11311579D02*
X13418491Y-11292531D01*
X13418491Y-11292531D02*
X13428015Y-11283008D01*
X13428015Y-11283008D02*
X13447062Y-11273484D01*
X13637539Y-11273484D02*
X13656586Y-11273484D01*
X13656586Y-11273484D02*
X13675634Y-11283008D01*
X13675634Y-11283008D02*
X13685158Y-11292531D01*
X13685158Y-11292531D02*
X13694682Y-11311579D01*
X13694682Y-11311579D02*
X13704205Y-11349674D01*
X13704205Y-11349674D02*
X13704205Y-11397293D01*
X13704205Y-11397293D02*
X13694682Y-11435388D01*
X13694682Y-11435388D02*
X13685158Y-11454436D01*
X13685158Y-11454436D02*
X13675634Y-11463960D01*
X13675634Y-11463960D02*
X13656586Y-11473484D01*
X13656586Y-11473484D02*
X13637539Y-11473484D01*
X13637539Y-11473484D02*
X13618491Y-11463960D01*
X13618491Y-11463960D02*
X13608967Y-11454436D01*
X13608967Y-11454436D02*
X13599443Y-11435388D01*
X13599443Y-11435388D02*
X13589920Y-11397293D01*
X13589920Y-11397293D02*
X13589920Y-11349674D01*
X13589920Y-11349674D02*
X13599443Y-11311579D01*
X13599443Y-11311579D02*
X13608967Y-11292531D01*
X13608967Y-11292531D02*
X13618491Y-11283008D01*
X13618491Y-11283008D02*
X13637539Y-11273484D01*
X13789920Y-11473484D02*
X13789920Y-11340150D01*
X13789920Y-11359198D02*
X13799443Y-11349674D01*
X13799443Y-11349674D02*
X13818491Y-11340150D01*
X13818491Y-11340150D02*
X13847063Y-11340150D01*
X13847063Y-11340150D02*
X13866110Y-11349674D01*
X13866110Y-11349674D02*
X13875634Y-11368722D01*
X13875634Y-11368722D02*
X13875634Y-11473484D01*
X13875634Y-11368722D02*
X13885158Y-11349674D01*
X13885158Y-11349674D02*
X13904205Y-11340150D01*
X13904205Y-11340150D02*
X13932777Y-11340150D01*
X13932777Y-11340150D02*
X13951824Y-11349674D01*
X13951824Y-11349674D02*
X13961348Y-11368722D01*
X13961348Y-11368722D02*
X13961348Y-11473484D01*
X14056586Y-11473484D02*
X14056586Y-11340150D01*
X14056586Y-11359198D02*
X14066110Y-11349674D01*
X14066110Y-11349674D02*
X14085158Y-11340150D01*
X14085158Y-11340150D02*
X14113729Y-11340150D01*
X14113729Y-11340150D02*
X14132777Y-11349674D01*
X14132777Y-11349674D02*
X14142301Y-11368722D01*
X14142301Y-11368722D02*
X14142301Y-11473484D01*
X14142301Y-11368722D02*
X14151824Y-11349674D01*
X14151824Y-11349674D02*
X14170872Y-11340150D01*
X14170872Y-11340150D02*
X14199443Y-11340150D01*
X14199443Y-11340150D02*
X14218491Y-11349674D01*
X14218491Y-11349674D02*
X14228015Y-11368722D01*
X14228015Y-11368722D02*
X14228015Y-11473484D01*
X14618491Y-11263960D02*
X14447063Y-11521103D01*
X14875634Y-11273484D02*
X14894682Y-11273484D01*
X14894682Y-11273484D02*
X14913729Y-11283008D01*
X14913729Y-11283008D02*
X14923253Y-11292531D01*
X14923253Y-11292531D02*
X14932777Y-11311579D01*
X14932777Y-11311579D02*
X14942301Y-11349674D01*
X14942301Y-11349674D02*
X14942301Y-11397293D01*
X14942301Y-11397293D02*
X14932777Y-11435388D01*
X14932777Y-11435388D02*
X14923253Y-11454436D01*
X14923253Y-11454436D02*
X14913729Y-11463960D01*
X14913729Y-11463960D02*
X14894682Y-11473484D01*
X14894682Y-11473484D02*
X14875634Y-11473484D01*
X14875634Y-11473484D02*
X14856586Y-11463960D01*
X14856586Y-11463960D02*
X14847063Y-11454436D01*
X14847063Y-11454436D02*
X14837539Y-11435388D01*
X14837539Y-11435388D02*
X14828015Y-11397293D01*
X14828015Y-11397293D02*
X14828015Y-11349674D01*
X14828015Y-11349674D02*
X14837539Y-11311579D01*
X14837539Y-11311579D02*
X14847063Y-11292531D01*
X14847063Y-11292531D02*
X14856586Y-11283008D01*
X14856586Y-11283008D02*
X14875634Y-11273484D01*
X15028015Y-11454436D02*
X15037539Y-11463960D01*
X15037539Y-11463960D02*
X15028015Y-11473484D01*
X15028015Y-11473484D02*
X15018491Y-11463960D01*
X15018491Y-11463960D02*
X15028015Y-11454436D01*
X15028015Y-11454436D02*
X15028015Y-11473484D01*
X15161348Y-11273484D02*
X15180396Y-11273484D01*
X15180396Y-11273484D02*
X15199444Y-11283008D01*
X15199444Y-11283008D02*
X15208967Y-11292531D01*
X15208967Y-11292531D02*
X15218491Y-11311579D01*
X15218491Y-11311579D02*
X15228015Y-11349674D01*
X15228015Y-11349674D02*
X15228015Y-11397293D01*
X15228015Y-11397293D02*
X15218491Y-11435388D01*
X15218491Y-11435388D02*
X15208967Y-11454436D01*
X15208967Y-11454436D02*
X15199444Y-11463960D01*
X15199444Y-11463960D02*
X15180396Y-11473484D01*
X15180396Y-11473484D02*
X15161348Y-11473484D01*
X15161348Y-11473484D02*
X15142301Y-11463960D01*
X15142301Y-11463960D02*
X15132777Y-11454436D01*
X15132777Y-11454436D02*
X15123253Y-11435388D01*
X15123253Y-11435388D02*
X15113729Y-11397293D01*
X15113729Y-11397293D02*
X15113729Y-11349674D01*
X15113729Y-11349674D02*
X15123253Y-11311579D01*
X15123253Y-11311579D02*
X15132777Y-11292531D01*
X15132777Y-11292531D02*
X15142301Y-11283008D01*
X15142301Y-11283008D02*
X15161348Y-11273484D01*
X15418491Y-11473484D02*
X15304206Y-11473484D01*
X15361348Y-11473484D02*
X15361348Y-11273484D01*
X15361348Y-11273484D02*
X15342301Y-11302055D01*
X15342301Y-11302055D02*
X15323253Y-11321103D01*
X15323253Y-11321103D02*
X15304206Y-11330627D01*
X15608967Y-11473484D02*
X15494682Y-11473484D01*
X15551825Y-11473484D02*
X15551825Y-11273484D01*
X15551825Y-11273484D02*
X15532777Y-11302055D01*
X15532777Y-11302055D02*
X15513729Y-11321103D01*
X15513729Y-11321103D02*
X15494682Y-11330627D01*
X15723253Y-11359198D02*
X15704206Y-11349674D01*
X15704206Y-11349674D02*
X15694682Y-11340150D01*
X15694682Y-11340150D02*
X15685158Y-11321103D01*
X15685158Y-11321103D02*
X15685158Y-11311579D01*
X15685158Y-11311579D02*
X15694682Y-11292531D01*
X15694682Y-11292531D02*
X15704206Y-11283008D01*
X15704206Y-11283008D02*
X15723253Y-11273484D01*
X15723253Y-11273484D02*
X15761348Y-11273484D01*
X15761348Y-11273484D02*
X15780396Y-11283008D01*
X15780396Y-11283008D02*
X15789920Y-11292531D01*
X15789920Y-11292531D02*
X15799444Y-11311579D01*
X15799444Y-11311579D02*
X15799444Y-11321103D01*
X15799444Y-11321103D02*
X15789920Y-11340150D01*
X15789920Y-11340150D02*
X15780396Y-11349674D01*
X15780396Y-11349674D02*
X15761348Y-11359198D01*
X15761348Y-11359198D02*
X15723253Y-11359198D01*
X15723253Y-11359198D02*
X15704206Y-11368722D01*
X15704206Y-11368722D02*
X15694682Y-11378246D01*
X15694682Y-11378246D02*
X15685158Y-11397293D01*
X15685158Y-11397293D02*
X15685158Y-11435388D01*
X15685158Y-11435388D02*
X15694682Y-11454436D01*
X15694682Y-11454436D02*
X15704206Y-11463960D01*
X15704206Y-11463960D02*
X15723253Y-11473484D01*
X15723253Y-11473484D02*
X15761348Y-11473484D01*
X15761348Y-11473484D02*
X15780396Y-11463960D01*
X15780396Y-11463960D02*
X15789920Y-11454436D01*
X15789920Y-11454436D02*
X15799444Y-11435388D01*
X15799444Y-11435388D02*
X15799444Y-11397293D01*
X15799444Y-11397293D02*
X15789920Y-11378246D01*
X15789920Y-11378246D02*
X15780396Y-11368722D01*
X15780396Y-11368722D02*
X15761348Y-11359198D01*
X15875634Y-11273484D02*
X15875634Y-11311579D01*
X15951825Y-11273484D02*
X15951825Y-11311579D01*
X16247063Y-11549674D02*
X16237539Y-11540150D01*
X16237539Y-11540150D02*
X16218491Y-11511579D01*
X16218491Y-11511579D02*
X16208968Y-11492531D01*
X16208968Y-11492531D02*
X16199444Y-11463960D01*
X16199444Y-11463960D02*
X16189920Y-11416341D01*
X16189920Y-11416341D02*
X16189920Y-11378246D01*
X16189920Y-11378246D02*
X16199444Y-11330627D01*
X16199444Y-11330627D02*
X16208968Y-11302055D01*
X16208968Y-11302055D02*
X16218491Y-11283008D01*
X16218491Y-11283008D02*
X16237539Y-11254436D01*
X16237539Y-11254436D02*
X16247063Y-11244912D01*
X16418491Y-11273484D02*
X16323253Y-11273484D01*
X16323253Y-11273484D02*
X16313729Y-11368722D01*
X16313729Y-11368722D02*
X16323253Y-11359198D01*
X16323253Y-11359198D02*
X16342301Y-11349674D01*
X16342301Y-11349674D02*
X16389920Y-11349674D01*
X16389920Y-11349674D02*
X16408968Y-11359198D01*
X16408968Y-11359198D02*
X16418491Y-11368722D01*
X16418491Y-11368722D02*
X16428015Y-11387769D01*
X16428015Y-11387769D02*
X16428015Y-11435388D01*
X16428015Y-11435388D02*
X16418491Y-11454436D01*
X16418491Y-11454436D02*
X16408968Y-11463960D01*
X16408968Y-11463960D02*
X16389920Y-11473484D01*
X16389920Y-11473484D02*
X16342301Y-11473484D01*
X16342301Y-11473484D02*
X16323253Y-11463960D01*
X16323253Y-11463960D02*
X16313729Y-11454436D01*
X16666110Y-11473484D02*
X16666110Y-11273484D01*
X16751825Y-11473484D02*
X16751825Y-11368722D01*
X16751825Y-11368722D02*
X16742301Y-11349674D01*
X16742301Y-11349674D02*
X16723253Y-11340150D01*
X16723253Y-11340150D02*
X16694682Y-11340150D01*
X16694682Y-11340150D02*
X16675634Y-11349674D01*
X16675634Y-11349674D02*
X16666110Y-11359198D01*
X16875634Y-11473484D02*
X16856587Y-11463960D01*
X16856587Y-11463960D02*
X16847063Y-11454436D01*
X16847063Y-11454436D02*
X16837539Y-11435388D01*
X16837539Y-11435388D02*
X16837539Y-11378246D01*
X16837539Y-11378246D02*
X16847063Y-11359198D01*
X16847063Y-11359198D02*
X16856587Y-11349674D01*
X16856587Y-11349674D02*
X16875634Y-11340150D01*
X16875634Y-11340150D02*
X16904206Y-11340150D01*
X16904206Y-11340150D02*
X16923253Y-11349674D01*
X16923253Y-11349674D02*
X16932777Y-11359198D01*
X16932777Y-11359198D02*
X16942301Y-11378246D01*
X16942301Y-11378246D02*
X16942301Y-11435388D01*
X16942301Y-11435388D02*
X16932777Y-11454436D01*
X16932777Y-11454436D02*
X16923253Y-11463960D01*
X16923253Y-11463960D02*
X16904206Y-11473484D01*
X16904206Y-11473484D02*
X16875634Y-11473484D01*
X17056587Y-11473484D02*
X17037539Y-11463960D01*
X17037539Y-11463960D02*
X17028015Y-11444912D01*
X17028015Y-11444912D02*
X17028015Y-11273484D01*
X17208968Y-11463960D02*
X17189920Y-11473484D01*
X17189920Y-11473484D02*
X17151825Y-11473484D01*
X17151825Y-11473484D02*
X17132777Y-11463960D01*
X17132777Y-11463960D02*
X17123253Y-11444912D01*
X17123253Y-11444912D02*
X17123253Y-11368722D01*
X17123253Y-11368722D02*
X17132777Y-11349674D01*
X17132777Y-11349674D02*
X17151825Y-11340150D01*
X17151825Y-11340150D02*
X17189920Y-11340150D01*
X17189920Y-11340150D02*
X17208968Y-11349674D01*
X17208968Y-11349674D02*
X17218492Y-11368722D01*
X17218492Y-11368722D02*
X17218492Y-11387769D01*
X17218492Y-11387769D02*
X17123253Y-11406817D01*
X17294682Y-11463960D02*
X17313730Y-11473484D01*
X17313730Y-11473484D02*
X17351825Y-11473484D01*
X17351825Y-11473484D02*
X17370873Y-11463960D01*
X17370873Y-11463960D02*
X17380396Y-11444912D01*
X17380396Y-11444912D02*
X17380396Y-11435388D01*
X17380396Y-11435388D02*
X17370873Y-11416341D01*
X17370873Y-11416341D02*
X17351825Y-11406817D01*
X17351825Y-11406817D02*
X17323253Y-11406817D01*
X17323253Y-11406817D02*
X17304206Y-11397293D01*
X17304206Y-11397293D02*
X17294682Y-11378246D01*
X17294682Y-11378246D02*
X17294682Y-11368722D01*
X17294682Y-11368722D02*
X17304206Y-11349674D01*
X17304206Y-11349674D02*
X17323253Y-11340150D01*
X17323253Y-11340150D02*
X17351825Y-11340150D01*
X17351825Y-11340150D02*
X17370873Y-11349674D01*
X17447063Y-11549674D02*
X17456587Y-11540150D01*
X17456587Y-11540150D02*
X17475634Y-11511579D01*
X17475634Y-11511579D02*
X17485158Y-11492531D01*
X17485158Y-11492531D02*
X17494682Y-11463960D01*
X17494682Y-11463960D02*
X17504206Y-11416341D01*
X17504206Y-11416341D02*
X17504206Y-11378246D01*
X17504206Y-11378246D02*
X17494682Y-11330627D01*
X17494682Y-11330627D02*
X17485158Y-11302055D01*
X17485158Y-11302055D02*
X17475634Y-11283008D01*
X17475634Y-11283008D02*
X17456587Y-11254436D01*
X17456587Y-11254436D02*
X17447063Y-11244912D01*
D12*
X12672000Y-11646000D02*
G75*
G02*
X12597000Y-11646000I-37500J0D01*
G01*
X12597000Y-11646000D02*
G75*
G02*
X12672000Y-11646000I37500J0D01*
G01*
D11*
X12970872Y-11537484D02*
X12989920Y-11537484D01*
X12989920Y-11537484D02*
X13008967Y-11547008D01*
X13008967Y-11547008D02*
X13018491Y-11556531D01*
X13018491Y-11556531D02*
X13028015Y-11575579D01*
X13028015Y-11575579D02*
X13037539Y-11613674D01*
X13037539Y-11613674D02*
X13037539Y-11661293D01*
X13037539Y-11661293D02*
X13028015Y-11699388D01*
X13028015Y-11699388D02*
X13018491Y-11718436D01*
X13018491Y-11718436D02*
X13008967Y-11727960D01*
X13008967Y-11727960D02*
X12989920Y-11737484D01*
X12989920Y-11737484D02*
X12970872Y-11737484D01*
X12970872Y-11737484D02*
X12951824Y-11727960D01*
X12951824Y-11727960D02*
X12942301Y-11718436D01*
X12942301Y-11718436D02*
X12932777Y-11699388D01*
X12932777Y-11699388D02*
X12923253Y-11661293D01*
X12923253Y-11661293D02*
X12923253Y-11613674D01*
X12923253Y-11613674D02*
X12932777Y-11575579D01*
X12932777Y-11575579D02*
X12942301Y-11556531D01*
X12942301Y-11556531D02*
X12951824Y-11547008D01*
X12951824Y-11547008D02*
X12970872Y-11537484D01*
X13123253Y-11718436D02*
X13132777Y-11727960D01*
X13132777Y-11727960D02*
X13123253Y-11737484D01*
X13123253Y-11737484D02*
X13113729Y-11727960D01*
X13113729Y-11727960D02*
X13123253Y-11718436D01*
X13123253Y-11718436D02*
X13123253Y-11737484D01*
X13199443Y-11537484D02*
X13332777Y-11537484D01*
X13332777Y-11537484D02*
X13247062Y-11737484D01*
X13504205Y-11537484D02*
X13408967Y-11537484D01*
X13408967Y-11537484D02*
X13399443Y-11632722D01*
X13399443Y-11632722D02*
X13408967Y-11623198D01*
X13408967Y-11623198D02*
X13428015Y-11613674D01*
X13428015Y-11613674D02*
X13475634Y-11613674D01*
X13475634Y-11613674D02*
X13494682Y-11623198D01*
X13494682Y-11623198D02*
X13504205Y-11632722D01*
X13504205Y-11632722D02*
X13513729Y-11651769D01*
X13513729Y-11651769D02*
X13513729Y-11699388D01*
X13513729Y-11699388D02*
X13504205Y-11718436D01*
X13504205Y-11718436D02*
X13494682Y-11727960D01*
X13494682Y-11727960D02*
X13475634Y-11737484D01*
X13475634Y-11737484D02*
X13428015Y-11737484D01*
X13428015Y-11737484D02*
X13408967Y-11727960D01*
X13408967Y-11727960D02*
X13399443Y-11718436D01*
X13637539Y-11537484D02*
X13656586Y-11537484D01*
X13656586Y-11537484D02*
X13675634Y-11547008D01*
X13675634Y-11547008D02*
X13685158Y-11556531D01*
X13685158Y-11556531D02*
X13694682Y-11575579D01*
X13694682Y-11575579D02*
X13704205Y-11613674D01*
X13704205Y-11613674D02*
X13704205Y-11661293D01*
X13704205Y-11661293D02*
X13694682Y-11699388D01*
X13694682Y-11699388D02*
X13685158Y-11718436D01*
X13685158Y-11718436D02*
X13675634Y-11727960D01*
X13675634Y-11727960D02*
X13656586Y-11737484D01*
X13656586Y-11737484D02*
X13637539Y-11737484D01*
X13637539Y-11737484D02*
X13618491Y-11727960D01*
X13618491Y-11727960D02*
X13608967Y-11718436D01*
X13608967Y-11718436D02*
X13599443Y-11699388D01*
X13599443Y-11699388D02*
X13589920Y-11661293D01*
X13589920Y-11661293D02*
X13589920Y-11613674D01*
X13589920Y-11613674D02*
X13599443Y-11575579D01*
X13599443Y-11575579D02*
X13608967Y-11556531D01*
X13608967Y-11556531D02*
X13618491Y-11547008D01*
X13618491Y-11547008D02*
X13637539Y-11537484D01*
X13789920Y-11737484D02*
X13789920Y-11604150D01*
X13789920Y-11623198D02*
X13799443Y-11613674D01*
X13799443Y-11613674D02*
X13818491Y-11604150D01*
X13818491Y-11604150D02*
X13847063Y-11604150D01*
X13847063Y-11604150D02*
X13866110Y-11613674D01*
X13866110Y-11613674D02*
X13875634Y-11632722D01*
X13875634Y-11632722D02*
X13875634Y-11737484D01*
X13875634Y-11632722D02*
X13885158Y-11613674D01*
X13885158Y-11613674D02*
X13904205Y-11604150D01*
X13904205Y-11604150D02*
X13932777Y-11604150D01*
X13932777Y-11604150D02*
X13951824Y-11613674D01*
X13951824Y-11613674D02*
X13961348Y-11632722D01*
X13961348Y-11632722D02*
X13961348Y-11737484D01*
X14056586Y-11737484D02*
X14056586Y-11604150D01*
X14056586Y-11623198D02*
X14066110Y-11613674D01*
X14066110Y-11613674D02*
X14085158Y-11604150D01*
X14085158Y-11604150D02*
X14113729Y-11604150D01*
X14113729Y-11604150D02*
X14132777Y-11613674D01*
X14132777Y-11613674D02*
X14142301Y-11632722D01*
X14142301Y-11632722D02*
X14142301Y-11737484D01*
X14142301Y-11632722D02*
X14151824Y-11613674D01*
X14151824Y-11613674D02*
X14170872Y-11604150D01*
X14170872Y-11604150D02*
X14199443Y-11604150D01*
X14199443Y-11604150D02*
X14218491Y-11613674D01*
X14218491Y-11613674D02*
X14228015Y-11632722D01*
X14228015Y-11632722D02*
X14228015Y-11737484D01*
X14618491Y-11527960D02*
X14447063Y-11785103D01*
X14875634Y-11537484D02*
X14894682Y-11537484D01*
X14894682Y-11537484D02*
X14913729Y-11547008D01*
X14913729Y-11547008D02*
X14923253Y-11556531D01*
X14923253Y-11556531D02*
X14932777Y-11575579D01*
X14932777Y-11575579D02*
X14942301Y-11613674D01*
X14942301Y-11613674D02*
X14942301Y-11661293D01*
X14942301Y-11661293D02*
X14932777Y-11699388D01*
X14932777Y-11699388D02*
X14923253Y-11718436D01*
X14923253Y-11718436D02*
X14913729Y-11727960D01*
X14913729Y-11727960D02*
X14894682Y-11737484D01*
X14894682Y-11737484D02*
X14875634Y-11737484D01*
X14875634Y-11737484D02*
X14856586Y-11727960D01*
X14856586Y-11727960D02*
X14847063Y-11718436D01*
X14847063Y-11718436D02*
X14837539Y-11699388D01*
X14837539Y-11699388D02*
X14828015Y-11661293D01*
X14828015Y-11661293D02*
X14828015Y-11613674D01*
X14828015Y-11613674D02*
X14837539Y-11575579D01*
X14837539Y-11575579D02*
X14847063Y-11556531D01*
X14847063Y-11556531D02*
X14856586Y-11547008D01*
X14856586Y-11547008D02*
X14875634Y-11537484D01*
X15028015Y-11718436D02*
X15037539Y-11727960D01*
X15037539Y-11727960D02*
X15028015Y-11737484D01*
X15028015Y-11737484D02*
X15018491Y-11727960D01*
X15018491Y-11727960D02*
X15028015Y-11718436D01*
X15028015Y-11718436D02*
X15028015Y-11737484D01*
X15161348Y-11537484D02*
X15180396Y-11537484D01*
X15180396Y-11537484D02*
X15199444Y-11547008D01*
X15199444Y-11547008D02*
X15208967Y-11556531D01*
X15208967Y-11556531D02*
X15218491Y-11575579D01*
X15218491Y-11575579D02*
X15228015Y-11613674D01*
X15228015Y-11613674D02*
X15228015Y-11661293D01*
X15228015Y-11661293D02*
X15218491Y-11699388D01*
X15218491Y-11699388D02*
X15208967Y-11718436D01*
X15208967Y-11718436D02*
X15199444Y-11727960D01*
X15199444Y-11727960D02*
X15180396Y-11737484D01*
X15180396Y-11737484D02*
X15161348Y-11737484D01*
X15161348Y-11737484D02*
X15142301Y-11727960D01*
X15142301Y-11727960D02*
X15132777Y-11718436D01*
X15132777Y-11718436D02*
X15123253Y-11699388D01*
X15123253Y-11699388D02*
X15113729Y-11661293D01*
X15113729Y-11661293D02*
X15113729Y-11613674D01*
X15113729Y-11613674D02*
X15123253Y-11575579D01*
X15123253Y-11575579D02*
X15132777Y-11556531D01*
X15132777Y-11556531D02*
X15142301Y-11547008D01*
X15142301Y-11547008D02*
X15161348Y-11537484D01*
X15304206Y-11556531D02*
X15313729Y-11547008D01*
X15313729Y-11547008D02*
X15332777Y-11537484D01*
X15332777Y-11537484D02*
X15380396Y-11537484D01*
X15380396Y-11537484D02*
X15399444Y-11547008D01*
X15399444Y-11547008D02*
X15408967Y-11556531D01*
X15408967Y-11556531D02*
X15418491Y-11575579D01*
X15418491Y-11575579D02*
X15418491Y-11594627D01*
X15418491Y-11594627D02*
X15408967Y-11623198D01*
X15408967Y-11623198D02*
X15294682Y-11737484D01*
X15294682Y-11737484D02*
X15418491Y-11737484D01*
X15513729Y-11737484D02*
X15551825Y-11737484D01*
X15551825Y-11737484D02*
X15570872Y-11727960D01*
X15570872Y-11727960D02*
X15580396Y-11718436D01*
X15580396Y-11718436D02*
X15599444Y-11689865D01*
X15599444Y-11689865D02*
X15608967Y-11651769D01*
X15608967Y-11651769D02*
X15608967Y-11575579D01*
X15608967Y-11575579D02*
X15599444Y-11556531D01*
X15599444Y-11556531D02*
X15589920Y-11547008D01*
X15589920Y-11547008D02*
X15570872Y-11537484D01*
X15570872Y-11537484D02*
X15532777Y-11537484D01*
X15532777Y-11537484D02*
X15513729Y-11547008D01*
X15513729Y-11547008D02*
X15504206Y-11556531D01*
X15504206Y-11556531D02*
X15494682Y-11575579D01*
X15494682Y-11575579D02*
X15494682Y-11623198D01*
X15494682Y-11623198D02*
X15504206Y-11642246D01*
X15504206Y-11642246D02*
X15513729Y-11651769D01*
X15513729Y-11651769D02*
X15532777Y-11661293D01*
X15532777Y-11661293D02*
X15570872Y-11661293D01*
X15570872Y-11661293D02*
X15589920Y-11651769D01*
X15589920Y-11651769D02*
X15599444Y-11642246D01*
X15599444Y-11642246D02*
X15608967Y-11623198D01*
X15789920Y-11537484D02*
X15694682Y-11537484D01*
X15694682Y-11537484D02*
X15685158Y-11632722D01*
X15685158Y-11632722D02*
X15694682Y-11623198D01*
X15694682Y-11623198D02*
X15713729Y-11613674D01*
X15713729Y-11613674D02*
X15761348Y-11613674D01*
X15761348Y-11613674D02*
X15780396Y-11623198D01*
X15780396Y-11623198D02*
X15789920Y-11632722D01*
X15789920Y-11632722D02*
X15799444Y-11651769D01*
X15799444Y-11651769D02*
X15799444Y-11699388D01*
X15799444Y-11699388D02*
X15789920Y-11718436D01*
X15789920Y-11718436D02*
X15780396Y-11727960D01*
X15780396Y-11727960D02*
X15761348Y-11737484D01*
X15761348Y-11737484D02*
X15713729Y-11737484D01*
X15713729Y-11737484D02*
X15694682Y-11727960D01*
X15694682Y-11727960D02*
X15685158Y-11718436D01*
X15875634Y-11537484D02*
X15875634Y-11575579D01*
X15951825Y-11537484D02*
X15951825Y-11575579D01*
X16247063Y-11813674D02*
X16237539Y-11804150D01*
X16237539Y-11804150D02*
X16218491Y-11775579D01*
X16218491Y-11775579D02*
X16208968Y-11756531D01*
X16208968Y-11756531D02*
X16199444Y-11727960D01*
X16199444Y-11727960D02*
X16189920Y-11680341D01*
X16189920Y-11680341D02*
X16189920Y-11642246D01*
X16189920Y-11642246D02*
X16199444Y-11594627D01*
X16199444Y-11594627D02*
X16208968Y-11566055D01*
X16208968Y-11566055D02*
X16218491Y-11547008D01*
X16218491Y-11547008D02*
X16237539Y-11518436D01*
X16237539Y-11518436D02*
X16247063Y-11508912D01*
X16408968Y-11537484D02*
X16370872Y-11537484D01*
X16370872Y-11537484D02*
X16351825Y-11547008D01*
X16351825Y-11547008D02*
X16342301Y-11556531D01*
X16342301Y-11556531D02*
X16323253Y-11585103D01*
X16323253Y-11585103D02*
X16313729Y-11623198D01*
X16313729Y-11623198D02*
X16313729Y-11699388D01*
X16313729Y-11699388D02*
X16323253Y-11718436D01*
X16323253Y-11718436D02*
X16332777Y-11727960D01*
X16332777Y-11727960D02*
X16351825Y-11737484D01*
X16351825Y-11737484D02*
X16389920Y-11737484D01*
X16389920Y-11737484D02*
X16408968Y-11727960D01*
X16408968Y-11727960D02*
X16418491Y-11718436D01*
X16418491Y-11718436D02*
X16428015Y-11699388D01*
X16428015Y-11699388D02*
X16428015Y-11651769D01*
X16428015Y-11651769D02*
X16418491Y-11632722D01*
X16418491Y-11632722D02*
X16408968Y-11623198D01*
X16408968Y-11623198D02*
X16389920Y-11613674D01*
X16389920Y-11613674D02*
X16351825Y-11613674D01*
X16351825Y-11613674D02*
X16332777Y-11623198D01*
X16332777Y-11623198D02*
X16323253Y-11632722D01*
X16323253Y-11632722D02*
X16313729Y-11651769D01*
X16666110Y-11737484D02*
X16666110Y-11537484D01*
X16751825Y-11737484D02*
X16751825Y-11632722D01*
X16751825Y-11632722D02*
X16742301Y-11613674D01*
X16742301Y-11613674D02*
X16723253Y-11604150D01*
X16723253Y-11604150D02*
X16694682Y-11604150D01*
X16694682Y-11604150D02*
X16675634Y-11613674D01*
X16675634Y-11613674D02*
X16666110Y-11623198D01*
X16875634Y-11737484D02*
X16856587Y-11727960D01*
X16856587Y-11727960D02*
X16847063Y-11718436D01*
X16847063Y-11718436D02*
X16837539Y-11699388D01*
X16837539Y-11699388D02*
X16837539Y-11642246D01*
X16837539Y-11642246D02*
X16847063Y-11623198D01*
X16847063Y-11623198D02*
X16856587Y-11613674D01*
X16856587Y-11613674D02*
X16875634Y-11604150D01*
X16875634Y-11604150D02*
X16904206Y-11604150D01*
X16904206Y-11604150D02*
X16923253Y-11613674D01*
X16923253Y-11613674D02*
X16932777Y-11623198D01*
X16932777Y-11623198D02*
X16942301Y-11642246D01*
X16942301Y-11642246D02*
X16942301Y-11699388D01*
X16942301Y-11699388D02*
X16932777Y-11718436D01*
X16932777Y-11718436D02*
X16923253Y-11727960D01*
X16923253Y-11727960D02*
X16904206Y-11737484D01*
X16904206Y-11737484D02*
X16875634Y-11737484D01*
X17056587Y-11737484D02*
X17037539Y-11727960D01*
X17037539Y-11727960D02*
X17028015Y-11708912D01*
X17028015Y-11708912D02*
X17028015Y-11537484D01*
X17208968Y-11727960D02*
X17189920Y-11737484D01*
X17189920Y-11737484D02*
X17151825Y-11737484D01*
X17151825Y-11737484D02*
X17132777Y-11727960D01*
X17132777Y-11727960D02*
X17123253Y-11708912D01*
X17123253Y-11708912D02*
X17123253Y-11632722D01*
X17123253Y-11632722D02*
X17132777Y-11613674D01*
X17132777Y-11613674D02*
X17151825Y-11604150D01*
X17151825Y-11604150D02*
X17189920Y-11604150D01*
X17189920Y-11604150D02*
X17208968Y-11613674D01*
X17208968Y-11613674D02*
X17218492Y-11632722D01*
X17218492Y-11632722D02*
X17218492Y-11651769D01*
X17218492Y-11651769D02*
X17123253Y-11670817D01*
X17294682Y-11727960D02*
X17313730Y-11737484D01*
X17313730Y-11737484D02*
X17351825Y-11737484D01*
X17351825Y-11737484D02*
X17370873Y-11727960D01*
X17370873Y-11727960D02*
X17380396Y-11708912D01*
X17380396Y-11708912D02*
X17380396Y-11699388D01*
X17380396Y-11699388D02*
X17370873Y-11680341D01*
X17370873Y-11680341D02*
X17351825Y-11670817D01*
X17351825Y-11670817D02*
X17323253Y-11670817D01*
X17323253Y-11670817D02*
X17304206Y-11661293D01*
X17304206Y-11661293D02*
X17294682Y-11642246D01*
X17294682Y-11642246D02*
X17294682Y-11632722D01*
X17294682Y-11632722D02*
X17304206Y-11613674D01*
X17304206Y-11613674D02*
X17323253Y-11604150D01*
X17323253Y-11604150D02*
X17351825Y-11604150D01*
X17351825Y-11604150D02*
X17370873Y-11613674D01*
X17447063Y-11813674D02*
X17456587Y-11804150D01*
X17456587Y-11804150D02*
X17475634Y-11775579D01*
X17475634Y-11775579D02*
X17485158Y-11756531D01*
X17485158Y-11756531D02*
X17494682Y-11727960D01*
X17494682Y-11727960D02*
X17504206Y-11680341D01*
X17504206Y-11680341D02*
X17504206Y-11642246D01*
X17504206Y-11642246D02*
X17494682Y-11594627D01*
X17494682Y-11594627D02*
X17485158Y-11566055D01*
X17485158Y-11566055D02*
X17475634Y-11547008D01*
X17475634Y-11547008D02*
X17456587Y-11518436D01*
X17456587Y-11518436D02*
X17447063Y-11508912D01*
D12*
X12632000Y-11870000D02*
X12632000Y-11950000D01*
X12592000Y-11910000D02*
X12672000Y-11910000D01*
D11*
X12970872Y-11801484D02*
X12989920Y-11801484D01*
X12989920Y-11801484D02*
X13008967Y-11811008D01*
X13008967Y-11811008D02*
X13018491Y-11820531D01*
X13018491Y-11820531D02*
X13028015Y-11839579D01*
X13028015Y-11839579D02*
X13037539Y-11877674D01*
X13037539Y-11877674D02*
X13037539Y-11925293D01*
X13037539Y-11925293D02*
X13028015Y-11963388D01*
X13028015Y-11963388D02*
X13018491Y-11982436D01*
X13018491Y-11982436D02*
X13008967Y-11991960D01*
X13008967Y-11991960D02*
X12989920Y-12001484D01*
X12989920Y-12001484D02*
X12970872Y-12001484D01*
X12970872Y-12001484D02*
X12951824Y-11991960D01*
X12951824Y-11991960D02*
X12942301Y-11982436D01*
X12942301Y-11982436D02*
X12932777Y-11963388D01*
X12932777Y-11963388D02*
X12923253Y-11925293D01*
X12923253Y-11925293D02*
X12923253Y-11877674D01*
X12923253Y-11877674D02*
X12932777Y-11839579D01*
X12932777Y-11839579D02*
X12942301Y-11820531D01*
X12942301Y-11820531D02*
X12951824Y-11811008D01*
X12951824Y-11811008D02*
X12970872Y-11801484D01*
X13123253Y-11982436D02*
X13132777Y-11991960D01*
X13132777Y-11991960D02*
X13123253Y-12001484D01*
X13123253Y-12001484D02*
X13113729Y-11991960D01*
X13113729Y-11991960D02*
X13123253Y-11982436D01*
X13123253Y-11982436D02*
X13123253Y-12001484D01*
X13247062Y-11887198D02*
X13228015Y-11877674D01*
X13228015Y-11877674D02*
X13218491Y-11868150D01*
X13218491Y-11868150D02*
X13208967Y-11849103D01*
X13208967Y-11849103D02*
X13208967Y-11839579D01*
X13208967Y-11839579D02*
X13218491Y-11820531D01*
X13218491Y-11820531D02*
X13228015Y-11811008D01*
X13228015Y-11811008D02*
X13247062Y-11801484D01*
X13247062Y-11801484D02*
X13285158Y-11801484D01*
X13285158Y-11801484D02*
X13304205Y-11811008D01*
X13304205Y-11811008D02*
X13313729Y-11820531D01*
X13313729Y-11820531D02*
X13323253Y-11839579D01*
X13323253Y-11839579D02*
X13323253Y-11849103D01*
X13323253Y-11849103D02*
X13313729Y-11868150D01*
X13313729Y-11868150D02*
X13304205Y-11877674D01*
X13304205Y-11877674D02*
X13285158Y-11887198D01*
X13285158Y-11887198D02*
X13247062Y-11887198D01*
X13247062Y-11887198D02*
X13228015Y-11896722D01*
X13228015Y-11896722D02*
X13218491Y-11906246D01*
X13218491Y-11906246D02*
X13208967Y-11925293D01*
X13208967Y-11925293D02*
X13208967Y-11963388D01*
X13208967Y-11963388D02*
X13218491Y-11982436D01*
X13218491Y-11982436D02*
X13228015Y-11991960D01*
X13228015Y-11991960D02*
X13247062Y-12001484D01*
X13247062Y-12001484D02*
X13285158Y-12001484D01*
X13285158Y-12001484D02*
X13304205Y-11991960D01*
X13304205Y-11991960D02*
X13313729Y-11982436D01*
X13313729Y-11982436D02*
X13323253Y-11963388D01*
X13323253Y-11963388D02*
X13323253Y-11925293D01*
X13323253Y-11925293D02*
X13313729Y-11906246D01*
X13313729Y-11906246D02*
X13304205Y-11896722D01*
X13304205Y-11896722D02*
X13285158Y-11887198D01*
X13447062Y-11801484D02*
X13466110Y-11801484D01*
X13466110Y-11801484D02*
X13485158Y-11811008D01*
X13485158Y-11811008D02*
X13494682Y-11820531D01*
X13494682Y-11820531D02*
X13504205Y-11839579D01*
X13504205Y-11839579D02*
X13513729Y-11877674D01*
X13513729Y-11877674D02*
X13513729Y-11925293D01*
X13513729Y-11925293D02*
X13504205Y-11963388D01*
X13504205Y-11963388D02*
X13494682Y-11982436D01*
X13494682Y-11982436D02*
X13485158Y-11991960D01*
X13485158Y-11991960D02*
X13466110Y-12001484D01*
X13466110Y-12001484D02*
X13447062Y-12001484D01*
X13447062Y-12001484D02*
X13428015Y-11991960D01*
X13428015Y-11991960D02*
X13418491Y-11982436D01*
X13418491Y-11982436D02*
X13408967Y-11963388D01*
X13408967Y-11963388D02*
X13399443Y-11925293D01*
X13399443Y-11925293D02*
X13399443Y-11877674D01*
X13399443Y-11877674D02*
X13408967Y-11839579D01*
X13408967Y-11839579D02*
X13418491Y-11820531D01*
X13418491Y-11820531D02*
X13428015Y-11811008D01*
X13428015Y-11811008D02*
X13447062Y-11801484D01*
X13637539Y-11801484D02*
X13656586Y-11801484D01*
X13656586Y-11801484D02*
X13675634Y-11811008D01*
X13675634Y-11811008D02*
X13685158Y-11820531D01*
X13685158Y-11820531D02*
X13694682Y-11839579D01*
X13694682Y-11839579D02*
X13704205Y-11877674D01*
X13704205Y-11877674D02*
X13704205Y-11925293D01*
X13704205Y-11925293D02*
X13694682Y-11963388D01*
X13694682Y-11963388D02*
X13685158Y-11982436D01*
X13685158Y-11982436D02*
X13675634Y-11991960D01*
X13675634Y-11991960D02*
X13656586Y-12001484D01*
X13656586Y-12001484D02*
X13637539Y-12001484D01*
X13637539Y-12001484D02*
X13618491Y-11991960D01*
X13618491Y-11991960D02*
X13608967Y-11982436D01*
X13608967Y-11982436D02*
X13599443Y-11963388D01*
X13599443Y-11963388D02*
X13589920Y-11925293D01*
X13589920Y-11925293D02*
X13589920Y-11877674D01*
X13589920Y-11877674D02*
X13599443Y-11839579D01*
X13599443Y-11839579D02*
X13608967Y-11820531D01*
X13608967Y-11820531D02*
X13618491Y-11811008D01*
X13618491Y-11811008D02*
X13637539Y-11801484D01*
X13789920Y-12001484D02*
X13789920Y-11868150D01*
X13789920Y-11887198D02*
X13799443Y-11877674D01*
X13799443Y-11877674D02*
X13818491Y-11868150D01*
X13818491Y-11868150D02*
X13847063Y-11868150D01*
X13847063Y-11868150D02*
X13866110Y-11877674D01*
X13866110Y-11877674D02*
X13875634Y-11896722D01*
X13875634Y-11896722D02*
X13875634Y-12001484D01*
X13875634Y-11896722D02*
X13885158Y-11877674D01*
X13885158Y-11877674D02*
X13904205Y-11868150D01*
X13904205Y-11868150D02*
X13932777Y-11868150D01*
X13932777Y-11868150D02*
X13951824Y-11877674D01*
X13951824Y-11877674D02*
X13961348Y-11896722D01*
X13961348Y-11896722D02*
X13961348Y-12001484D01*
X14056586Y-12001484D02*
X14056586Y-11868150D01*
X14056586Y-11887198D02*
X14066110Y-11877674D01*
X14066110Y-11877674D02*
X14085158Y-11868150D01*
X14085158Y-11868150D02*
X14113729Y-11868150D01*
X14113729Y-11868150D02*
X14132777Y-11877674D01*
X14132777Y-11877674D02*
X14142301Y-11896722D01*
X14142301Y-11896722D02*
X14142301Y-12001484D01*
X14142301Y-11896722D02*
X14151824Y-11877674D01*
X14151824Y-11877674D02*
X14170872Y-11868150D01*
X14170872Y-11868150D02*
X14199443Y-11868150D01*
X14199443Y-11868150D02*
X14218491Y-11877674D01*
X14218491Y-11877674D02*
X14228015Y-11896722D01*
X14228015Y-11896722D02*
X14228015Y-12001484D01*
X14618491Y-11791960D02*
X14447063Y-12049103D01*
X14875634Y-11801484D02*
X14894682Y-11801484D01*
X14894682Y-11801484D02*
X14913729Y-11811008D01*
X14913729Y-11811008D02*
X14923253Y-11820531D01*
X14923253Y-11820531D02*
X14932777Y-11839579D01*
X14932777Y-11839579D02*
X14942301Y-11877674D01*
X14942301Y-11877674D02*
X14942301Y-11925293D01*
X14942301Y-11925293D02*
X14932777Y-11963388D01*
X14932777Y-11963388D02*
X14923253Y-11982436D01*
X14923253Y-11982436D02*
X14913729Y-11991960D01*
X14913729Y-11991960D02*
X14894682Y-12001484D01*
X14894682Y-12001484D02*
X14875634Y-12001484D01*
X14875634Y-12001484D02*
X14856586Y-11991960D01*
X14856586Y-11991960D02*
X14847063Y-11982436D01*
X14847063Y-11982436D02*
X14837539Y-11963388D01*
X14837539Y-11963388D02*
X14828015Y-11925293D01*
X14828015Y-11925293D02*
X14828015Y-11877674D01*
X14828015Y-11877674D02*
X14837539Y-11839579D01*
X14837539Y-11839579D02*
X14847063Y-11820531D01*
X14847063Y-11820531D02*
X14856586Y-11811008D01*
X14856586Y-11811008D02*
X14875634Y-11801484D01*
X15028015Y-11982436D02*
X15037539Y-11991960D01*
X15037539Y-11991960D02*
X15028015Y-12001484D01*
X15028015Y-12001484D02*
X15018491Y-11991960D01*
X15018491Y-11991960D02*
X15028015Y-11982436D01*
X15028015Y-11982436D02*
X15028015Y-12001484D01*
X15161348Y-11801484D02*
X15180396Y-11801484D01*
X15180396Y-11801484D02*
X15199444Y-11811008D01*
X15199444Y-11811008D02*
X15208967Y-11820531D01*
X15208967Y-11820531D02*
X15218491Y-11839579D01*
X15218491Y-11839579D02*
X15228015Y-11877674D01*
X15228015Y-11877674D02*
X15228015Y-11925293D01*
X15228015Y-11925293D02*
X15218491Y-11963388D01*
X15218491Y-11963388D02*
X15208967Y-11982436D01*
X15208967Y-11982436D02*
X15199444Y-11991960D01*
X15199444Y-11991960D02*
X15180396Y-12001484D01*
X15180396Y-12001484D02*
X15161348Y-12001484D01*
X15161348Y-12001484D02*
X15142301Y-11991960D01*
X15142301Y-11991960D02*
X15132777Y-11982436D01*
X15132777Y-11982436D02*
X15123253Y-11963388D01*
X15123253Y-11963388D02*
X15113729Y-11925293D01*
X15113729Y-11925293D02*
X15113729Y-11877674D01*
X15113729Y-11877674D02*
X15123253Y-11839579D01*
X15123253Y-11839579D02*
X15132777Y-11820531D01*
X15132777Y-11820531D02*
X15142301Y-11811008D01*
X15142301Y-11811008D02*
X15161348Y-11801484D01*
X15294682Y-11801484D02*
X15418491Y-11801484D01*
X15418491Y-11801484D02*
X15351825Y-11877674D01*
X15351825Y-11877674D02*
X15380396Y-11877674D01*
X15380396Y-11877674D02*
X15399444Y-11887198D01*
X15399444Y-11887198D02*
X15408967Y-11896722D01*
X15408967Y-11896722D02*
X15418491Y-11915769D01*
X15418491Y-11915769D02*
X15418491Y-11963388D01*
X15418491Y-11963388D02*
X15408967Y-11982436D01*
X15408967Y-11982436D02*
X15399444Y-11991960D01*
X15399444Y-11991960D02*
X15380396Y-12001484D01*
X15380396Y-12001484D02*
X15323253Y-12001484D01*
X15323253Y-12001484D02*
X15304206Y-11991960D01*
X15304206Y-11991960D02*
X15294682Y-11982436D01*
X15608967Y-12001484D02*
X15494682Y-12001484D01*
X15551825Y-12001484D02*
X15551825Y-11801484D01*
X15551825Y-11801484D02*
X15532777Y-11830055D01*
X15532777Y-11830055D02*
X15513729Y-11849103D01*
X15513729Y-11849103D02*
X15494682Y-11858627D01*
X15789920Y-11801484D02*
X15694682Y-11801484D01*
X15694682Y-11801484D02*
X15685158Y-11896722D01*
X15685158Y-11896722D02*
X15694682Y-11887198D01*
X15694682Y-11887198D02*
X15713729Y-11877674D01*
X15713729Y-11877674D02*
X15761348Y-11877674D01*
X15761348Y-11877674D02*
X15780396Y-11887198D01*
X15780396Y-11887198D02*
X15789920Y-11896722D01*
X15789920Y-11896722D02*
X15799444Y-11915769D01*
X15799444Y-11915769D02*
X15799444Y-11963388D01*
X15799444Y-11963388D02*
X15789920Y-11982436D01*
X15789920Y-11982436D02*
X15780396Y-11991960D01*
X15780396Y-11991960D02*
X15761348Y-12001484D01*
X15761348Y-12001484D02*
X15713729Y-12001484D01*
X15713729Y-12001484D02*
X15694682Y-11991960D01*
X15694682Y-11991960D02*
X15685158Y-11982436D01*
X15875634Y-11801484D02*
X15875634Y-11839579D01*
X15951825Y-11801484D02*
X15951825Y-11839579D01*
X16247063Y-12077674D02*
X16237539Y-12068150D01*
X16237539Y-12068150D02*
X16218491Y-12039579D01*
X16218491Y-12039579D02*
X16208968Y-12020531D01*
X16208968Y-12020531D02*
X16199444Y-11991960D01*
X16199444Y-11991960D02*
X16189920Y-11944341D01*
X16189920Y-11944341D02*
X16189920Y-11906246D01*
X16189920Y-11906246D02*
X16199444Y-11858627D01*
X16199444Y-11858627D02*
X16208968Y-11830055D01*
X16208968Y-11830055D02*
X16218491Y-11811008D01*
X16218491Y-11811008D02*
X16237539Y-11782436D01*
X16237539Y-11782436D02*
X16247063Y-11772912D01*
X16428015Y-12001484D02*
X16313729Y-12001484D01*
X16370872Y-12001484D02*
X16370872Y-11801484D01*
X16370872Y-11801484D02*
X16351825Y-11830055D01*
X16351825Y-11830055D02*
X16332777Y-11849103D01*
X16332777Y-11849103D02*
X16313729Y-11858627D01*
X16504206Y-11820531D02*
X16513729Y-11811008D01*
X16513729Y-11811008D02*
X16532777Y-11801484D01*
X16532777Y-11801484D02*
X16580396Y-11801484D01*
X16580396Y-11801484D02*
X16599444Y-11811008D01*
X16599444Y-11811008D02*
X16608968Y-11820531D01*
X16608968Y-11820531D02*
X16618491Y-11839579D01*
X16618491Y-11839579D02*
X16618491Y-11858627D01*
X16618491Y-11858627D02*
X16608968Y-11887198D01*
X16608968Y-11887198D02*
X16494682Y-12001484D01*
X16494682Y-12001484D02*
X16618491Y-12001484D01*
X16856587Y-12001484D02*
X16856587Y-11801484D01*
X16942301Y-12001484D02*
X16942301Y-11896722D01*
X16942301Y-11896722D02*
X16932777Y-11877674D01*
X16932777Y-11877674D02*
X16913730Y-11868150D01*
X16913730Y-11868150D02*
X16885158Y-11868150D01*
X16885158Y-11868150D02*
X16866111Y-11877674D01*
X16866111Y-11877674D02*
X16856587Y-11887198D01*
X17066111Y-12001484D02*
X17047063Y-11991960D01*
X17047063Y-11991960D02*
X17037539Y-11982436D01*
X17037539Y-11982436D02*
X17028015Y-11963388D01*
X17028015Y-11963388D02*
X17028015Y-11906246D01*
X17028015Y-11906246D02*
X17037539Y-11887198D01*
X17037539Y-11887198D02*
X17047063Y-11877674D01*
X17047063Y-11877674D02*
X17066111Y-11868150D01*
X17066111Y-11868150D02*
X17094682Y-11868150D01*
X17094682Y-11868150D02*
X17113730Y-11877674D01*
X17113730Y-11877674D02*
X17123253Y-11887198D01*
X17123253Y-11887198D02*
X17132777Y-11906246D01*
X17132777Y-11906246D02*
X17132777Y-11963388D01*
X17132777Y-11963388D02*
X17123253Y-11982436D01*
X17123253Y-11982436D02*
X17113730Y-11991960D01*
X17113730Y-11991960D02*
X17094682Y-12001484D01*
X17094682Y-12001484D02*
X17066111Y-12001484D01*
X17247063Y-12001484D02*
X17228015Y-11991960D01*
X17228015Y-11991960D02*
X17218492Y-11972912D01*
X17218492Y-11972912D02*
X17218492Y-11801484D01*
X17399444Y-11991960D02*
X17380396Y-12001484D01*
X17380396Y-12001484D02*
X17342301Y-12001484D01*
X17342301Y-12001484D02*
X17323253Y-11991960D01*
X17323253Y-11991960D02*
X17313730Y-11972912D01*
X17313730Y-11972912D02*
X17313730Y-11896722D01*
X17313730Y-11896722D02*
X17323253Y-11877674D01*
X17323253Y-11877674D02*
X17342301Y-11868150D01*
X17342301Y-11868150D02*
X17380396Y-11868150D01*
X17380396Y-11868150D02*
X17399444Y-11877674D01*
X17399444Y-11877674D02*
X17408968Y-11896722D01*
X17408968Y-11896722D02*
X17408968Y-11915769D01*
X17408968Y-11915769D02*
X17313730Y-11934817D01*
X17485158Y-11991960D02*
X17504206Y-12001484D01*
X17504206Y-12001484D02*
X17542301Y-12001484D01*
X17542301Y-12001484D02*
X17561349Y-11991960D01*
X17561349Y-11991960D02*
X17570873Y-11972912D01*
X17570873Y-11972912D02*
X17570873Y-11963388D01*
X17570873Y-11963388D02*
X17561349Y-11944341D01*
X17561349Y-11944341D02*
X17542301Y-11934817D01*
X17542301Y-11934817D02*
X17513730Y-11934817D01*
X17513730Y-11934817D02*
X17494682Y-11925293D01*
X17494682Y-11925293D02*
X17485158Y-11906246D01*
X17485158Y-11906246D02*
X17485158Y-11896722D01*
X17485158Y-11896722D02*
X17494682Y-11877674D01*
X17494682Y-11877674D02*
X17513730Y-11868150D01*
X17513730Y-11868150D02*
X17542301Y-11868150D01*
X17542301Y-11868150D02*
X17561349Y-11877674D01*
X17637539Y-12077674D02*
X17647063Y-12068150D01*
X17647063Y-12068150D02*
X17666111Y-12039579D01*
X17666111Y-12039579D02*
X17675634Y-12020531D01*
X17675634Y-12020531D02*
X17685158Y-11991960D01*
X17685158Y-11991960D02*
X17694682Y-11944341D01*
X17694682Y-11944341D02*
X17694682Y-11906246D01*
X17694682Y-11906246D02*
X17685158Y-11858627D01*
X17685158Y-11858627D02*
X17675634Y-11830055D01*
X17675634Y-11830055D02*
X17666111Y-11811008D01*
X17666111Y-11811008D02*
X17647063Y-11782436D01*
X17647063Y-11782436D02*
X17637539Y-11772912D01*
D12*
X12657356Y-12209356D02*
X12657356Y-12138644D01*
X12586644Y-12138644D01*
X12586644Y-12209356D01*
X12657356Y-12209356D01*
D11*
X13037539Y-12265484D02*
X12923253Y-12265484D01*
X12980396Y-12265484D02*
X12980396Y-12065484D01*
X12980396Y-12065484D02*
X12961348Y-12094055D01*
X12961348Y-12094055D02*
X12942301Y-12113103D01*
X12942301Y-12113103D02*
X12923253Y-12122627D01*
X13123253Y-12246436D02*
X13132777Y-12255960D01*
X13132777Y-12255960D02*
X13123253Y-12265484D01*
X13123253Y-12265484D02*
X13113729Y-12255960D01*
X13113729Y-12255960D02*
X13123253Y-12246436D01*
X13123253Y-12246436D02*
X13123253Y-12265484D01*
X13256586Y-12065484D02*
X13275634Y-12065484D01*
X13275634Y-12065484D02*
X13294682Y-12075008D01*
X13294682Y-12075008D02*
X13304205Y-12084531D01*
X13304205Y-12084531D02*
X13313729Y-12103579D01*
X13313729Y-12103579D02*
X13323253Y-12141674D01*
X13323253Y-12141674D02*
X13323253Y-12189293D01*
X13323253Y-12189293D02*
X13313729Y-12227388D01*
X13313729Y-12227388D02*
X13304205Y-12246436D01*
X13304205Y-12246436D02*
X13294682Y-12255960D01*
X13294682Y-12255960D02*
X13275634Y-12265484D01*
X13275634Y-12265484D02*
X13256586Y-12265484D01*
X13256586Y-12265484D02*
X13237539Y-12255960D01*
X13237539Y-12255960D02*
X13228015Y-12246436D01*
X13228015Y-12246436D02*
X13218491Y-12227388D01*
X13218491Y-12227388D02*
X13208967Y-12189293D01*
X13208967Y-12189293D02*
X13208967Y-12141674D01*
X13208967Y-12141674D02*
X13218491Y-12103579D01*
X13218491Y-12103579D02*
X13228015Y-12084531D01*
X13228015Y-12084531D02*
X13237539Y-12075008D01*
X13237539Y-12075008D02*
X13256586Y-12065484D01*
X13447062Y-12065484D02*
X13466110Y-12065484D01*
X13466110Y-12065484D02*
X13485158Y-12075008D01*
X13485158Y-12075008D02*
X13494682Y-12084531D01*
X13494682Y-12084531D02*
X13504205Y-12103579D01*
X13504205Y-12103579D02*
X13513729Y-12141674D01*
X13513729Y-12141674D02*
X13513729Y-12189293D01*
X13513729Y-12189293D02*
X13504205Y-12227388D01*
X13504205Y-12227388D02*
X13494682Y-12246436D01*
X13494682Y-12246436D02*
X13485158Y-12255960D01*
X13485158Y-12255960D02*
X13466110Y-12265484D01*
X13466110Y-12265484D02*
X13447062Y-12265484D01*
X13447062Y-12265484D02*
X13428015Y-12255960D01*
X13428015Y-12255960D02*
X13418491Y-12246436D01*
X13418491Y-12246436D02*
X13408967Y-12227388D01*
X13408967Y-12227388D02*
X13399443Y-12189293D01*
X13399443Y-12189293D02*
X13399443Y-12141674D01*
X13399443Y-12141674D02*
X13408967Y-12103579D01*
X13408967Y-12103579D02*
X13418491Y-12084531D01*
X13418491Y-12084531D02*
X13428015Y-12075008D01*
X13428015Y-12075008D02*
X13447062Y-12065484D01*
X13637539Y-12065484D02*
X13656586Y-12065484D01*
X13656586Y-12065484D02*
X13675634Y-12075008D01*
X13675634Y-12075008D02*
X13685158Y-12084531D01*
X13685158Y-12084531D02*
X13694682Y-12103579D01*
X13694682Y-12103579D02*
X13704205Y-12141674D01*
X13704205Y-12141674D02*
X13704205Y-12189293D01*
X13704205Y-12189293D02*
X13694682Y-12227388D01*
X13694682Y-12227388D02*
X13685158Y-12246436D01*
X13685158Y-12246436D02*
X13675634Y-12255960D01*
X13675634Y-12255960D02*
X13656586Y-12265484D01*
X13656586Y-12265484D02*
X13637539Y-12265484D01*
X13637539Y-12265484D02*
X13618491Y-12255960D01*
X13618491Y-12255960D02*
X13608967Y-12246436D01*
X13608967Y-12246436D02*
X13599443Y-12227388D01*
X13599443Y-12227388D02*
X13589920Y-12189293D01*
X13589920Y-12189293D02*
X13589920Y-12141674D01*
X13589920Y-12141674D02*
X13599443Y-12103579D01*
X13599443Y-12103579D02*
X13608967Y-12084531D01*
X13608967Y-12084531D02*
X13618491Y-12075008D01*
X13618491Y-12075008D02*
X13637539Y-12065484D01*
X13789920Y-12265484D02*
X13789920Y-12132150D01*
X13789920Y-12151198D02*
X13799443Y-12141674D01*
X13799443Y-12141674D02*
X13818491Y-12132150D01*
X13818491Y-12132150D02*
X13847063Y-12132150D01*
X13847063Y-12132150D02*
X13866110Y-12141674D01*
X13866110Y-12141674D02*
X13875634Y-12160722D01*
X13875634Y-12160722D02*
X13875634Y-12265484D01*
X13875634Y-12160722D02*
X13885158Y-12141674D01*
X13885158Y-12141674D02*
X13904205Y-12132150D01*
X13904205Y-12132150D02*
X13932777Y-12132150D01*
X13932777Y-12132150D02*
X13951824Y-12141674D01*
X13951824Y-12141674D02*
X13961348Y-12160722D01*
X13961348Y-12160722D02*
X13961348Y-12265484D01*
X14056586Y-12265484D02*
X14056586Y-12132150D01*
X14056586Y-12151198D02*
X14066110Y-12141674D01*
X14066110Y-12141674D02*
X14085158Y-12132150D01*
X14085158Y-12132150D02*
X14113729Y-12132150D01*
X14113729Y-12132150D02*
X14132777Y-12141674D01*
X14132777Y-12141674D02*
X14142301Y-12160722D01*
X14142301Y-12160722D02*
X14142301Y-12265484D01*
X14142301Y-12160722D02*
X14151824Y-12141674D01*
X14151824Y-12141674D02*
X14170872Y-12132150D01*
X14170872Y-12132150D02*
X14199443Y-12132150D01*
X14199443Y-12132150D02*
X14218491Y-12141674D01*
X14218491Y-12141674D02*
X14228015Y-12160722D01*
X14228015Y-12160722D02*
X14228015Y-12265484D01*
X14618491Y-12055960D02*
X14447063Y-12313103D01*
X14875634Y-12065484D02*
X14894682Y-12065484D01*
X14894682Y-12065484D02*
X14913729Y-12075008D01*
X14913729Y-12075008D02*
X14923253Y-12084531D01*
X14923253Y-12084531D02*
X14932777Y-12103579D01*
X14932777Y-12103579D02*
X14942301Y-12141674D01*
X14942301Y-12141674D02*
X14942301Y-12189293D01*
X14942301Y-12189293D02*
X14932777Y-12227388D01*
X14932777Y-12227388D02*
X14923253Y-12246436D01*
X14923253Y-12246436D02*
X14913729Y-12255960D01*
X14913729Y-12255960D02*
X14894682Y-12265484D01*
X14894682Y-12265484D02*
X14875634Y-12265484D01*
X14875634Y-12265484D02*
X14856586Y-12255960D01*
X14856586Y-12255960D02*
X14847063Y-12246436D01*
X14847063Y-12246436D02*
X14837539Y-12227388D01*
X14837539Y-12227388D02*
X14828015Y-12189293D01*
X14828015Y-12189293D02*
X14828015Y-12141674D01*
X14828015Y-12141674D02*
X14837539Y-12103579D01*
X14837539Y-12103579D02*
X14847063Y-12084531D01*
X14847063Y-12084531D02*
X14856586Y-12075008D01*
X14856586Y-12075008D02*
X14875634Y-12065484D01*
X15028015Y-12246436D02*
X15037539Y-12255960D01*
X15037539Y-12255960D02*
X15028015Y-12265484D01*
X15028015Y-12265484D02*
X15018491Y-12255960D01*
X15018491Y-12255960D02*
X15028015Y-12246436D01*
X15028015Y-12246436D02*
X15028015Y-12265484D01*
X15161348Y-12065484D02*
X15180396Y-12065484D01*
X15180396Y-12065484D02*
X15199444Y-12075008D01*
X15199444Y-12075008D02*
X15208967Y-12084531D01*
X15208967Y-12084531D02*
X15218491Y-12103579D01*
X15218491Y-12103579D02*
X15228015Y-12141674D01*
X15228015Y-12141674D02*
X15228015Y-12189293D01*
X15228015Y-12189293D02*
X15218491Y-12227388D01*
X15218491Y-12227388D02*
X15208967Y-12246436D01*
X15208967Y-12246436D02*
X15199444Y-12255960D01*
X15199444Y-12255960D02*
X15180396Y-12265484D01*
X15180396Y-12265484D02*
X15161348Y-12265484D01*
X15161348Y-12265484D02*
X15142301Y-12255960D01*
X15142301Y-12255960D02*
X15132777Y-12246436D01*
X15132777Y-12246436D02*
X15123253Y-12227388D01*
X15123253Y-12227388D02*
X15113729Y-12189293D01*
X15113729Y-12189293D02*
X15113729Y-12141674D01*
X15113729Y-12141674D02*
X15123253Y-12103579D01*
X15123253Y-12103579D02*
X15132777Y-12084531D01*
X15132777Y-12084531D02*
X15142301Y-12075008D01*
X15142301Y-12075008D02*
X15161348Y-12065484D01*
X15294682Y-12065484D02*
X15418491Y-12065484D01*
X15418491Y-12065484D02*
X15351825Y-12141674D01*
X15351825Y-12141674D02*
X15380396Y-12141674D01*
X15380396Y-12141674D02*
X15399444Y-12151198D01*
X15399444Y-12151198D02*
X15408967Y-12160722D01*
X15408967Y-12160722D02*
X15418491Y-12179769D01*
X15418491Y-12179769D02*
X15418491Y-12227388D01*
X15418491Y-12227388D02*
X15408967Y-12246436D01*
X15408967Y-12246436D02*
X15399444Y-12255960D01*
X15399444Y-12255960D02*
X15380396Y-12265484D01*
X15380396Y-12265484D02*
X15323253Y-12265484D01*
X15323253Y-12265484D02*
X15304206Y-12255960D01*
X15304206Y-12255960D02*
X15294682Y-12246436D01*
X15513729Y-12265484D02*
X15551825Y-12265484D01*
X15551825Y-12265484D02*
X15570872Y-12255960D01*
X15570872Y-12255960D02*
X15580396Y-12246436D01*
X15580396Y-12246436D02*
X15599444Y-12217865D01*
X15599444Y-12217865D02*
X15608967Y-12179769D01*
X15608967Y-12179769D02*
X15608967Y-12103579D01*
X15608967Y-12103579D02*
X15599444Y-12084531D01*
X15599444Y-12084531D02*
X15589920Y-12075008D01*
X15589920Y-12075008D02*
X15570872Y-12065484D01*
X15570872Y-12065484D02*
X15532777Y-12065484D01*
X15532777Y-12065484D02*
X15513729Y-12075008D01*
X15513729Y-12075008D02*
X15504206Y-12084531D01*
X15504206Y-12084531D02*
X15494682Y-12103579D01*
X15494682Y-12103579D02*
X15494682Y-12151198D01*
X15494682Y-12151198D02*
X15504206Y-12170246D01*
X15504206Y-12170246D02*
X15513729Y-12179769D01*
X15513729Y-12179769D02*
X15532777Y-12189293D01*
X15532777Y-12189293D02*
X15570872Y-12189293D01*
X15570872Y-12189293D02*
X15589920Y-12179769D01*
X15589920Y-12179769D02*
X15599444Y-12170246D01*
X15599444Y-12170246D02*
X15608967Y-12151198D01*
X15780396Y-12132150D02*
X15780396Y-12265484D01*
X15732777Y-12055960D02*
X15685158Y-12198817D01*
X15685158Y-12198817D02*
X15808967Y-12198817D01*
X15875634Y-12065484D02*
X15875634Y-12103579D01*
X15951825Y-12065484D02*
X15951825Y-12103579D01*
X16247063Y-12341674D02*
X16237539Y-12332150D01*
X16237539Y-12332150D02*
X16218491Y-12303579D01*
X16218491Y-12303579D02*
X16208968Y-12284531D01*
X16208968Y-12284531D02*
X16199444Y-12255960D01*
X16199444Y-12255960D02*
X16189920Y-12208341D01*
X16189920Y-12208341D02*
X16189920Y-12170246D01*
X16189920Y-12170246D02*
X16199444Y-12122627D01*
X16199444Y-12122627D02*
X16208968Y-12094055D01*
X16208968Y-12094055D02*
X16218491Y-12075008D01*
X16218491Y-12075008D02*
X16237539Y-12046436D01*
X16237539Y-12046436D02*
X16247063Y-12036912D01*
X16408968Y-12132150D02*
X16408968Y-12265484D01*
X16361348Y-12055960D02*
X16313729Y-12198817D01*
X16313729Y-12198817D02*
X16437539Y-12198817D01*
X16494682Y-12065484D02*
X16618491Y-12065484D01*
X16618491Y-12065484D02*
X16551825Y-12141674D01*
X16551825Y-12141674D02*
X16580396Y-12141674D01*
X16580396Y-12141674D02*
X16599444Y-12151198D01*
X16599444Y-12151198D02*
X16608968Y-12160722D01*
X16608968Y-12160722D02*
X16618491Y-12179769D01*
X16618491Y-12179769D02*
X16618491Y-12227388D01*
X16618491Y-12227388D02*
X16608968Y-12246436D01*
X16608968Y-12246436D02*
X16599444Y-12255960D01*
X16599444Y-12255960D02*
X16580396Y-12265484D01*
X16580396Y-12265484D02*
X16523253Y-12265484D01*
X16523253Y-12265484D02*
X16504206Y-12255960D01*
X16504206Y-12255960D02*
X16494682Y-12246436D01*
X16856587Y-12265484D02*
X16856587Y-12065484D01*
X16942301Y-12265484D02*
X16942301Y-12160722D01*
X16942301Y-12160722D02*
X16932777Y-12141674D01*
X16932777Y-12141674D02*
X16913730Y-12132150D01*
X16913730Y-12132150D02*
X16885158Y-12132150D01*
X16885158Y-12132150D02*
X16866111Y-12141674D01*
X16866111Y-12141674D02*
X16856587Y-12151198D01*
X17066111Y-12265484D02*
X17047063Y-12255960D01*
X17047063Y-12255960D02*
X17037539Y-12246436D01*
X17037539Y-12246436D02*
X17028015Y-12227388D01*
X17028015Y-12227388D02*
X17028015Y-12170246D01*
X17028015Y-12170246D02*
X17037539Y-12151198D01*
X17037539Y-12151198D02*
X17047063Y-12141674D01*
X17047063Y-12141674D02*
X17066111Y-12132150D01*
X17066111Y-12132150D02*
X17094682Y-12132150D01*
X17094682Y-12132150D02*
X17113730Y-12141674D01*
X17113730Y-12141674D02*
X17123253Y-12151198D01*
X17123253Y-12151198D02*
X17132777Y-12170246D01*
X17132777Y-12170246D02*
X17132777Y-12227388D01*
X17132777Y-12227388D02*
X17123253Y-12246436D01*
X17123253Y-12246436D02*
X17113730Y-12255960D01*
X17113730Y-12255960D02*
X17094682Y-12265484D01*
X17094682Y-12265484D02*
X17066111Y-12265484D01*
X17247063Y-12265484D02*
X17228015Y-12255960D01*
X17228015Y-12255960D02*
X17218492Y-12236912D01*
X17218492Y-12236912D02*
X17218492Y-12065484D01*
X17399444Y-12255960D02*
X17380396Y-12265484D01*
X17380396Y-12265484D02*
X17342301Y-12265484D01*
X17342301Y-12265484D02*
X17323253Y-12255960D01*
X17323253Y-12255960D02*
X17313730Y-12236912D01*
X17313730Y-12236912D02*
X17313730Y-12160722D01*
X17313730Y-12160722D02*
X17323253Y-12141674D01*
X17323253Y-12141674D02*
X17342301Y-12132150D01*
X17342301Y-12132150D02*
X17380396Y-12132150D01*
X17380396Y-12132150D02*
X17399444Y-12141674D01*
X17399444Y-12141674D02*
X17408968Y-12160722D01*
X17408968Y-12160722D02*
X17408968Y-12179769D01*
X17408968Y-12179769D02*
X17313730Y-12198817D01*
X17485158Y-12255960D02*
X17504206Y-12265484D01*
X17504206Y-12265484D02*
X17542301Y-12265484D01*
X17542301Y-12265484D02*
X17561349Y-12255960D01*
X17561349Y-12255960D02*
X17570873Y-12236912D01*
X17570873Y-12236912D02*
X17570873Y-12227388D01*
X17570873Y-12227388D02*
X17561349Y-12208341D01*
X17561349Y-12208341D02*
X17542301Y-12198817D01*
X17542301Y-12198817D02*
X17513730Y-12198817D01*
X17513730Y-12198817D02*
X17494682Y-12189293D01*
X17494682Y-12189293D02*
X17485158Y-12170246D01*
X17485158Y-12170246D02*
X17485158Y-12160722D01*
X17485158Y-12160722D02*
X17494682Y-12141674D01*
X17494682Y-12141674D02*
X17513730Y-12132150D01*
X17513730Y-12132150D02*
X17542301Y-12132150D01*
X17542301Y-12132150D02*
X17561349Y-12141674D01*
X17808968Y-12189293D02*
X17961349Y-12189293D01*
X17885158Y-12265484D02*
X17885158Y-12113103D01*
X18189920Y-12065484D02*
X18313730Y-12065484D01*
X18313730Y-12065484D02*
X18247063Y-12141674D01*
X18247063Y-12141674D02*
X18275635Y-12141674D01*
X18275635Y-12141674D02*
X18294682Y-12151198D01*
X18294682Y-12151198D02*
X18304206Y-12160722D01*
X18304206Y-12160722D02*
X18313730Y-12179769D01*
X18313730Y-12179769D02*
X18313730Y-12227388D01*
X18313730Y-12227388D02*
X18304206Y-12246436D01*
X18304206Y-12246436D02*
X18294682Y-12255960D01*
X18294682Y-12255960D02*
X18275635Y-12265484D01*
X18275635Y-12265484D02*
X18218492Y-12265484D01*
X18218492Y-12265484D02*
X18199444Y-12255960D01*
X18199444Y-12255960D02*
X18189920Y-12246436D01*
X18542301Y-12255960D02*
X18561349Y-12265484D01*
X18561349Y-12265484D02*
X18599444Y-12265484D01*
X18599444Y-12265484D02*
X18618492Y-12255960D01*
X18618492Y-12255960D02*
X18628016Y-12236912D01*
X18628016Y-12236912D02*
X18628016Y-12227388D01*
X18628016Y-12227388D02*
X18618492Y-12208341D01*
X18618492Y-12208341D02*
X18599444Y-12198817D01*
X18599444Y-12198817D02*
X18570873Y-12198817D01*
X18570873Y-12198817D02*
X18551825Y-12189293D01*
X18551825Y-12189293D02*
X18542301Y-12170246D01*
X18542301Y-12170246D02*
X18542301Y-12160722D01*
X18542301Y-12160722D02*
X18551825Y-12141674D01*
X18551825Y-12141674D02*
X18570873Y-12132150D01*
X18570873Y-12132150D02*
X18599444Y-12132150D01*
X18599444Y-12132150D02*
X18618492Y-12141674D01*
X18742301Y-12265484D02*
X18723254Y-12255960D01*
X18723254Y-12255960D02*
X18713730Y-12236912D01*
X18713730Y-12236912D02*
X18713730Y-12065484D01*
X18847063Y-12265484D02*
X18828016Y-12255960D01*
X18828016Y-12255960D02*
X18818492Y-12246436D01*
X18818492Y-12246436D02*
X18808968Y-12227388D01*
X18808968Y-12227388D02*
X18808968Y-12170246D01*
X18808968Y-12170246D02*
X18818492Y-12151198D01*
X18818492Y-12151198D02*
X18828016Y-12141674D01*
X18828016Y-12141674D02*
X18847063Y-12132150D01*
X18847063Y-12132150D02*
X18875635Y-12132150D01*
X18875635Y-12132150D02*
X18894682Y-12141674D01*
X18894682Y-12141674D02*
X18904206Y-12151198D01*
X18904206Y-12151198D02*
X18913730Y-12170246D01*
X18913730Y-12170246D02*
X18913730Y-12227388D01*
X18913730Y-12227388D02*
X18904206Y-12246436D01*
X18904206Y-12246436D02*
X18894682Y-12255960D01*
X18894682Y-12255960D02*
X18875635Y-12265484D01*
X18875635Y-12265484D02*
X18847063Y-12265484D01*
X18970873Y-12132150D02*
X19047063Y-12132150D01*
X18999444Y-12065484D02*
X18999444Y-12236912D01*
X18999444Y-12236912D02*
X19008968Y-12255960D01*
X19008968Y-12255960D02*
X19028016Y-12265484D01*
X19028016Y-12265484D02*
X19047063Y-12265484D01*
X19104206Y-12255960D02*
X19123254Y-12265484D01*
X19123254Y-12265484D02*
X19161349Y-12265484D01*
X19161349Y-12265484D02*
X19180397Y-12255960D01*
X19180397Y-12255960D02*
X19189920Y-12236912D01*
X19189920Y-12236912D02*
X19189920Y-12227388D01*
X19189920Y-12227388D02*
X19180397Y-12208341D01*
X19180397Y-12208341D02*
X19161349Y-12198817D01*
X19161349Y-12198817D02*
X19132777Y-12198817D01*
X19132777Y-12198817D02*
X19113730Y-12189293D01*
X19113730Y-12189293D02*
X19104206Y-12170246D01*
X19104206Y-12170246D02*
X19104206Y-12160722D01*
X19104206Y-12160722D02*
X19113730Y-12141674D01*
X19113730Y-12141674D02*
X19132777Y-12132150D01*
X19132777Y-12132150D02*
X19161349Y-12132150D01*
X19161349Y-12132150D02*
X19180397Y-12141674D01*
X19256587Y-12341674D02*
X19266111Y-12332150D01*
X19266111Y-12332150D02*
X19285158Y-12303579D01*
X19285158Y-12303579D02*
X19294682Y-12284531D01*
X19294682Y-12284531D02*
X19304206Y-12255960D01*
X19304206Y-12255960D02*
X19313730Y-12208341D01*
X19313730Y-12208341D02*
X19313730Y-12170246D01*
X19313730Y-12170246D02*
X19304206Y-12122627D01*
X19304206Y-12122627D02*
X19294682Y-12094055D01*
X19294682Y-12094055D02*
X19285158Y-12075008D01*
X19285158Y-12075008D02*
X19266111Y-12046436D01*
X19266111Y-12046436D02*
X19256587Y-12036912D01*
D13*
X12617000Y-12493000D02*
X12672000Y-12438000D01*
X12617000Y-12383000D01*
X12562000Y-12438000D01*
X12617000Y-12493000D01*
D11*
X13037539Y-12529484D02*
X12923253Y-12529484D01*
X12980396Y-12529484D02*
X12980396Y-12329484D01*
X12980396Y-12329484D02*
X12961348Y-12358055D01*
X12961348Y-12358055D02*
X12942301Y-12377103D01*
X12942301Y-12377103D02*
X12923253Y-12386627D01*
X13123253Y-12510436D02*
X13132777Y-12519960D01*
X13132777Y-12519960D02*
X13123253Y-12529484D01*
X13123253Y-12529484D02*
X13113729Y-12519960D01*
X13113729Y-12519960D02*
X13123253Y-12510436D01*
X13123253Y-12510436D02*
X13123253Y-12529484D01*
X13323253Y-12529484D02*
X13208967Y-12529484D01*
X13266110Y-12529484D02*
X13266110Y-12329484D01*
X13266110Y-12329484D02*
X13247062Y-12358055D01*
X13247062Y-12358055D02*
X13228015Y-12377103D01*
X13228015Y-12377103D02*
X13208967Y-12386627D01*
X13447062Y-12329484D02*
X13466110Y-12329484D01*
X13466110Y-12329484D02*
X13485158Y-12339008D01*
X13485158Y-12339008D02*
X13494682Y-12348531D01*
X13494682Y-12348531D02*
X13504205Y-12367579D01*
X13504205Y-12367579D02*
X13513729Y-12405674D01*
X13513729Y-12405674D02*
X13513729Y-12453293D01*
X13513729Y-12453293D02*
X13504205Y-12491388D01*
X13504205Y-12491388D02*
X13494682Y-12510436D01*
X13494682Y-12510436D02*
X13485158Y-12519960D01*
X13485158Y-12519960D02*
X13466110Y-12529484D01*
X13466110Y-12529484D02*
X13447062Y-12529484D01*
X13447062Y-12529484D02*
X13428015Y-12519960D01*
X13428015Y-12519960D02*
X13418491Y-12510436D01*
X13418491Y-12510436D02*
X13408967Y-12491388D01*
X13408967Y-12491388D02*
X13399443Y-12453293D01*
X13399443Y-12453293D02*
X13399443Y-12405674D01*
X13399443Y-12405674D02*
X13408967Y-12367579D01*
X13408967Y-12367579D02*
X13418491Y-12348531D01*
X13418491Y-12348531D02*
X13428015Y-12339008D01*
X13428015Y-12339008D02*
X13447062Y-12329484D01*
X13637539Y-12329484D02*
X13656586Y-12329484D01*
X13656586Y-12329484D02*
X13675634Y-12339008D01*
X13675634Y-12339008D02*
X13685158Y-12348531D01*
X13685158Y-12348531D02*
X13694682Y-12367579D01*
X13694682Y-12367579D02*
X13704205Y-12405674D01*
X13704205Y-12405674D02*
X13704205Y-12453293D01*
X13704205Y-12453293D02*
X13694682Y-12491388D01*
X13694682Y-12491388D02*
X13685158Y-12510436D01*
X13685158Y-12510436D02*
X13675634Y-12519960D01*
X13675634Y-12519960D02*
X13656586Y-12529484D01*
X13656586Y-12529484D02*
X13637539Y-12529484D01*
X13637539Y-12529484D02*
X13618491Y-12519960D01*
X13618491Y-12519960D02*
X13608967Y-12510436D01*
X13608967Y-12510436D02*
X13599443Y-12491388D01*
X13599443Y-12491388D02*
X13589920Y-12453293D01*
X13589920Y-12453293D02*
X13589920Y-12405674D01*
X13589920Y-12405674D02*
X13599443Y-12367579D01*
X13599443Y-12367579D02*
X13608967Y-12348531D01*
X13608967Y-12348531D02*
X13618491Y-12339008D01*
X13618491Y-12339008D02*
X13637539Y-12329484D01*
X13789920Y-12529484D02*
X13789920Y-12396150D01*
X13789920Y-12415198D02*
X13799443Y-12405674D01*
X13799443Y-12405674D02*
X13818491Y-12396150D01*
X13818491Y-12396150D02*
X13847063Y-12396150D01*
X13847063Y-12396150D02*
X13866110Y-12405674D01*
X13866110Y-12405674D02*
X13875634Y-12424722D01*
X13875634Y-12424722D02*
X13875634Y-12529484D01*
X13875634Y-12424722D02*
X13885158Y-12405674D01*
X13885158Y-12405674D02*
X13904205Y-12396150D01*
X13904205Y-12396150D02*
X13932777Y-12396150D01*
X13932777Y-12396150D02*
X13951824Y-12405674D01*
X13951824Y-12405674D02*
X13961348Y-12424722D01*
X13961348Y-12424722D02*
X13961348Y-12529484D01*
X14056586Y-12529484D02*
X14056586Y-12396150D01*
X14056586Y-12415198D02*
X14066110Y-12405674D01*
X14066110Y-12405674D02*
X14085158Y-12396150D01*
X14085158Y-12396150D02*
X14113729Y-12396150D01*
X14113729Y-12396150D02*
X14132777Y-12405674D01*
X14132777Y-12405674D02*
X14142301Y-12424722D01*
X14142301Y-12424722D02*
X14142301Y-12529484D01*
X14142301Y-12424722D02*
X14151824Y-12405674D01*
X14151824Y-12405674D02*
X14170872Y-12396150D01*
X14170872Y-12396150D02*
X14199443Y-12396150D01*
X14199443Y-12396150D02*
X14218491Y-12405674D01*
X14218491Y-12405674D02*
X14228015Y-12424722D01*
X14228015Y-12424722D02*
X14228015Y-12529484D01*
X14618491Y-12319960D02*
X14447063Y-12577103D01*
X14875634Y-12329484D02*
X14894682Y-12329484D01*
X14894682Y-12329484D02*
X14913729Y-12339008D01*
X14913729Y-12339008D02*
X14923253Y-12348531D01*
X14923253Y-12348531D02*
X14932777Y-12367579D01*
X14932777Y-12367579D02*
X14942301Y-12405674D01*
X14942301Y-12405674D02*
X14942301Y-12453293D01*
X14942301Y-12453293D02*
X14932777Y-12491388D01*
X14932777Y-12491388D02*
X14923253Y-12510436D01*
X14923253Y-12510436D02*
X14913729Y-12519960D01*
X14913729Y-12519960D02*
X14894682Y-12529484D01*
X14894682Y-12529484D02*
X14875634Y-12529484D01*
X14875634Y-12529484D02*
X14856586Y-12519960D01*
X14856586Y-12519960D02*
X14847063Y-12510436D01*
X14847063Y-12510436D02*
X14837539Y-12491388D01*
X14837539Y-12491388D02*
X14828015Y-12453293D01*
X14828015Y-12453293D02*
X14828015Y-12405674D01*
X14828015Y-12405674D02*
X14837539Y-12367579D01*
X14837539Y-12367579D02*
X14847063Y-12348531D01*
X14847063Y-12348531D02*
X14856586Y-12339008D01*
X14856586Y-12339008D02*
X14875634Y-12329484D01*
X15028015Y-12510436D02*
X15037539Y-12519960D01*
X15037539Y-12519960D02*
X15028015Y-12529484D01*
X15028015Y-12529484D02*
X15018491Y-12519960D01*
X15018491Y-12519960D02*
X15028015Y-12510436D01*
X15028015Y-12510436D02*
X15028015Y-12529484D01*
X15161348Y-12329484D02*
X15180396Y-12329484D01*
X15180396Y-12329484D02*
X15199444Y-12339008D01*
X15199444Y-12339008D02*
X15208967Y-12348531D01*
X15208967Y-12348531D02*
X15218491Y-12367579D01*
X15218491Y-12367579D02*
X15228015Y-12405674D01*
X15228015Y-12405674D02*
X15228015Y-12453293D01*
X15228015Y-12453293D02*
X15218491Y-12491388D01*
X15218491Y-12491388D02*
X15208967Y-12510436D01*
X15208967Y-12510436D02*
X15199444Y-12519960D01*
X15199444Y-12519960D02*
X15180396Y-12529484D01*
X15180396Y-12529484D02*
X15161348Y-12529484D01*
X15161348Y-12529484D02*
X15142301Y-12519960D01*
X15142301Y-12519960D02*
X15132777Y-12510436D01*
X15132777Y-12510436D02*
X15123253Y-12491388D01*
X15123253Y-12491388D02*
X15113729Y-12453293D01*
X15113729Y-12453293D02*
X15113729Y-12405674D01*
X15113729Y-12405674D02*
X15123253Y-12367579D01*
X15123253Y-12367579D02*
X15132777Y-12348531D01*
X15132777Y-12348531D02*
X15142301Y-12339008D01*
X15142301Y-12339008D02*
X15161348Y-12329484D01*
X15399444Y-12396150D02*
X15399444Y-12529484D01*
X15351825Y-12319960D02*
X15304206Y-12462817D01*
X15304206Y-12462817D02*
X15428015Y-12462817D01*
X15485158Y-12329484D02*
X15608967Y-12329484D01*
X15608967Y-12329484D02*
X15542301Y-12405674D01*
X15542301Y-12405674D02*
X15570872Y-12405674D01*
X15570872Y-12405674D02*
X15589920Y-12415198D01*
X15589920Y-12415198D02*
X15599444Y-12424722D01*
X15599444Y-12424722D02*
X15608967Y-12443769D01*
X15608967Y-12443769D02*
X15608967Y-12491388D01*
X15608967Y-12491388D02*
X15599444Y-12510436D01*
X15599444Y-12510436D02*
X15589920Y-12519960D01*
X15589920Y-12519960D02*
X15570872Y-12529484D01*
X15570872Y-12529484D02*
X15513729Y-12529484D01*
X15513729Y-12529484D02*
X15494682Y-12519960D01*
X15494682Y-12519960D02*
X15485158Y-12510436D01*
X15675634Y-12329484D02*
X15799444Y-12329484D01*
X15799444Y-12329484D02*
X15732777Y-12405674D01*
X15732777Y-12405674D02*
X15761348Y-12405674D01*
X15761348Y-12405674D02*
X15780396Y-12415198D01*
X15780396Y-12415198D02*
X15789920Y-12424722D01*
X15789920Y-12424722D02*
X15799444Y-12443769D01*
X15799444Y-12443769D02*
X15799444Y-12491388D01*
X15799444Y-12491388D02*
X15789920Y-12510436D01*
X15789920Y-12510436D02*
X15780396Y-12519960D01*
X15780396Y-12519960D02*
X15761348Y-12529484D01*
X15761348Y-12529484D02*
X15704206Y-12529484D01*
X15704206Y-12529484D02*
X15685158Y-12519960D01*
X15685158Y-12519960D02*
X15675634Y-12510436D01*
X15875634Y-12329484D02*
X15875634Y-12367579D01*
X15951825Y-12329484D02*
X15951825Y-12367579D01*
X16247063Y-12605674D02*
X16237539Y-12596150D01*
X16237539Y-12596150D02*
X16218491Y-12567579D01*
X16218491Y-12567579D02*
X16208968Y-12548531D01*
X16208968Y-12548531D02*
X16199444Y-12519960D01*
X16199444Y-12519960D02*
X16189920Y-12472341D01*
X16189920Y-12472341D02*
X16189920Y-12434246D01*
X16189920Y-12434246D02*
X16199444Y-12386627D01*
X16199444Y-12386627D02*
X16208968Y-12358055D01*
X16208968Y-12358055D02*
X16218491Y-12339008D01*
X16218491Y-12339008D02*
X16237539Y-12310436D01*
X16237539Y-12310436D02*
X16247063Y-12300912D01*
X16313729Y-12348531D02*
X16323253Y-12339008D01*
X16323253Y-12339008D02*
X16342301Y-12329484D01*
X16342301Y-12329484D02*
X16389920Y-12329484D01*
X16389920Y-12329484D02*
X16408968Y-12339008D01*
X16408968Y-12339008D02*
X16418491Y-12348531D01*
X16418491Y-12348531D02*
X16428015Y-12367579D01*
X16428015Y-12367579D02*
X16428015Y-12386627D01*
X16428015Y-12386627D02*
X16418491Y-12415198D01*
X16418491Y-12415198D02*
X16304206Y-12529484D01*
X16304206Y-12529484D02*
X16428015Y-12529484D01*
X16666110Y-12529484D02*
X16666110Y-12329484D01*
X16751825Y-12529484D02*
X16751825Y-12424722D01*
X16751825Y-12424722D02*
X16742301Y-12405674D01*
X16742301Y-12405674D02*
X16723253Y-12396150D01*
X16723253Y-12396150D02*
X16694682Y-12396150D01*
X16694682Y-12396150D02*
X16675634Y-12405674D01*
X16675634Y-12405674D02*
X16666110Y-12415198D01*
X16875634Y-12529484D02*
X16856587Y-12519960D01*
X16856587Y-12519960D02*
X16847063Y-12510436D01*
X16847063Y-12510436D02*
X16837539Y-12491388D01*
X16837539Y-12491388D02*
X16837539Y-12434246D01*
X16837539Y-12434246D02*
X16847063Y-12415198D01*
X16847063Y-12415198D02*
X16856587Y-12405674D01*
X16856587Y-12405674D02*
X16875634Y-12396150D01*
X16875634Y-12396150D02*
X16904206Y-12396150D01*
X16904206Y-12396150D02*
X16923253Y-12405674D01*
X16923253Y-12405674D02*
X16932777Y-12415198D01*
X16932777Y-12415198D02*
X16942301Y-12434246D01*
X16942301Y-12434246D02*
X16942301Y-12491388D01*
X16942301Y-12491388D02*
X16932777Y-12510436D01*
X16932777Y-12510436D02*
X16923253Y-12519960D01*
X16923253Y-12519960D02*
X16904206Y-12529484D01*
X16904206Y-12529484D02*
X16875634Y-12529484D01*
X17056587Y-12529484D02*
X17037539Y-12519960D01*
X17037539Y-12519960D02*
X17028015Y-12500912D01*
X17028015Y-12500912D02*
X17028015Y-12329484D01*
X17208968Y-12519960D02*
X17189920Y-12529484D01*
X17189920Y-12529484D02*
X17151825Y-12529484D01*
X17151825Y-12529484D02*
X17132777Y-12519960D01*
X17132777Y-12519960D02*
X17123253Y-12500912D01*
X17123253Y-12500912D02*
X17123253Y-12424722D01*
X17123253Y-12424722D02*
X17132777Y-12405674D01*
X17132777Y-12405674D02*
X17151825Y-12396150D01*
X17151825Y-12396150D02*
X17189920Y-12396150D01*
X17189920Y-12396150D02*
X17208968Y-12405674D01*
X17208968Y-12405674D02*
X17218492Y-12424722D01*
X17218492Y-12424722D02*
X17218492Y-12443769D01*
X17218492Y-12443769D02*
X17123253Y-12462817D01*
X17294682Y-12519960D02*
X17313730Y-12529484D01*
X17313730Y-12529484D02*
X17351825Y-12529484D01*
X17351825Y-12529484D02*
X17370873Y-12519960D01*
X17370873Y-12519960D02*
X17380396Y-12500912D01*
X17380396Y-12500912D02*
X17380396Y-12491388D01*
X17380396Y-12491388D02*
X17370873Y-12472341D01*
X17370873Y-12472341D02*
X17351825Y-12462817D01*
X17351825Y-12462817D02*
X17323253Y-12462817D01*
X17323253Y-12462817D02*
X17304206Y-12453293D01*
X17304206Y-12453293D02*
X17294682Y-12434246D01*
X17294682Y-12434246D02*
X17294682Y-12424722D01*
X17294682Y-12424722D02*
X17304206Y-12405674D01*
X17304206Y-12405674D02*
X17323253Y-12396150D01*
X17323253Y-12396150D02*
X17351825Y-12396150D01*
X17351825Y-12396150D02*
X17370873Y-12405674D01*
X17447063Y-12605674D02*
X17456587Y-12596150D01*
X17456587Y-12596150D02*
X17475634Y-12567579D01*
X17475634Y-12567579D02*
X17485158Y-12548531D01*
X17485158Y-12548531D02*
X17494682Y-12519960D01*
X17494682Y-12519960D02*
X17504206Y-12472341D01*
X17504206Y-12472341D02*
X17504206Y-12434246D01*
X17504206Y-12434246D02*
X17494682Y-12386627D01*
X17494682Y-12386627D02*
X17485158Y-12358055D01*
X17485158Y-12358055D02*
X17475634Y-12339008D01*
X17475634Y-12339008D02*
X17456587Y-12310436D01*
X17456587Y-12310436D02*
X17447063Y-12300912D01*
M02*
