%TF.GenerationSoftware,KiCad,Pcbnew,8.0.5*%
%TF.CreationDate,2025-02-06T11:15:49+08:00*%
%TF.ProjectId,arduino_solar_bikelight_1,61726475-696e-46f5-9f73-6f6c61725f62,rev?*%
%TF.SameCoordinates,Original*%
%TF.FileFunction,Legend,Top*%
%TF.FilePolarity,Positive*%
%FSLAX46Y46*%
G04 Gerber Fmt 4.6, Leading zero omitted, Abs format (unit mm)*
G04 Created by KiCad (PCBNEW 8.0.5) date 2025-02-06 11:15:49*
%MOMM*%
%LPD*%
G01*
G04 APERTURE LIST*
%ADD10C,0.100000*%
%ADD11C,0.150000*%
%ADD12C,0.120000*%
%TA.AperFunction,Profile*%
%ADD13C,0.050000*%
%TD*%
G04 APERTURE END LIST*
D10*
X146411115Y-73867580D02*
X146411115Y-74867580D01*
X146411115Y-74867580D02*
X146030163Y-74867580D01*
X146030163Y-74867580D02*
X145934925Y-74819961D01*
X145934925Y-74819961D02*
X145887306Y-74772342D01*
X145887306Y-74772342D02*
X145839687Y-74677104D01*
X145839687Y-74677104D02*
X145839687Y-74534247D01*
X145839687Y-74534247D02*
X145887306Y-74439009D01*
X145887306Y-74439009D02*
X145934925Y-74391390D01*
X145934925Y-74391390D02*
X146030163Y-74343771D01*
X146030163Y-74343771D02*
X146411115Y-74343771D01*
X144982544Y-73867580D02*
X144982544Y-74391390D01*
X144982544Y-74391390D02*
X145030163Y-74486628D01*
X145030163Y-74486628D02*
X145125401Y-74534247D01*
X145125401Y-74534247D02*
X145315877Y-74534247D01*
X145315877Y-74534247D02*
X145411115Y-74486628D01*
X144982544Y-73915200D02*
X145077782Y-73867580D01*
X145077782Y-73867580D02*
X145315877Y-73867580D01*
X145315877Y-73867580D02*
X145411115Y-73915200D01*
X145411115Y-73915200D02*
X145458734Y-74010438D01*
X145458734Y-74010438D02*
X145458734Y-74105676D01*
X145458734Y-74105676D02*
X145411115Y-74200914D01*
X145411115Y-74200914D02*
X145315877Y-74248533D01*
X145315877Y-74248533D02*
X145077782Y-74248533D01*
X145077782Y-74248533D02*
X144982544Y-74296152D01*
X144506353Y-74534247D02*
X144506353Y-73867580D01*
X144506353Y-74439009D02*
X144458734Y-74486628D01*
X144458734Y-74486628D02*
X144363496Y-74534247D01*
X144363496Y-74534247D02*
X144220639Y-74534247D01*
X144220639Y-74534247D02*
X144125401Y-74486628D01*
X144125401Y-74486628D02*
X144077782Y-74391390D01*
X144077782Y-74391390D02*
X144077782Y-73867580D01*
X143220639Y-73915200D02*
X143315877Y-73867580D01*
X143315877Y-73867580D02*
X143506353Y-73867580D01*
X143506353Y-73867580D02*
X143601591Y-73915200D01*
X143601591Y-73915200D02*
X143649210Y-74010438D01*
X143649210Y-74010438D02*
X143649210Y-74391390D01*
X143649210Y-74391390D02*
X143601591Y-74486628D01*
X143601591Y-74486628D02*
X143506353Y-74534247D01*
X143506353Y-74534247D02*
X143315877Y-74534247D01*
X143315877Y-74534247D02*
X143220639Y-74486628D01*
X143220639Y-74486628D02*
X143173020Y-74391390D01*
X143173020Y-74391390D02*
X143173020Y-74296152D01*
X143173020Y-74296152D02*
X143649210Y-74200914D01*
X142601591Y-73867580D02*
X142696829Y-73915200D01*
X142696829Y-73915200D02*
X142744448Y-74010438D01*
X142744448Y-74010438D02*
X142744448Y-74867580D01*
X146077782Y-61641390D02*
X145934925Y-61593771D01*
X145934925Y-61593771D02*
X145887306Y-61546152D01*
X145887306Y-61546152D02*
X145839687Y-61450914D01*
X145839687Y-61450914D02*
X145839687Y-61308057D01*
X145839687Y-61308057D02*
X145887306Y-61212819D01*
X145887306Y-61212819D02*
X145934925Y-61165200D01*
X145934925Y-61165200D02*
X146030163Y-61117580D01*
X146030163Y-61117580D02*
X146411115Y-61117580D01*
X146411115Y-61117580D02*
X146411115Y-62117580D01*
X146411115Y-62117580D02*
X146077782Y-62117580D01*
X146077782Y-62117580D02*
X145982544Y-62069961D01*
X145982544Y-62069961D02*
X145934925Y-62022342D01*
X145934925Y-62022342D02*
X145887306Y-61927104D01*
X145887306Y-61927104D02*
X145887306Y-61831866D01*
X145887306Y-61831866D02*
X145934925Y-61736628D01*
X145934925Y-61736628D02*
X145982544Y-61689009D01*
X145982544Y-61689009D02*
X146077782Y-61641390D01*
X146077782Y-61641390D02*
X146411115Y-61641390D01*
X144982544Y-61117580D02*
X144982544Y-61641390D01*
X144982544Y-61641390D02*
X145030163Y-61736628D01*
X145030163Y-61736628D02*
X145125401Y-61784247D01*
X145125401Y-61784247D02*
X145315877Y-61784247D01*
X145315877Y-61784247D02*
X145411115Y-61736628D01*
X144982544Y-61165200D02*
X145077782Y-61117580D01*
X145077782Y-61117580D02*
X145315877Y-61117580D01*
X145315877Y-61117580D02*
X145411115Y-61165200D01*
X145411115Y-61165200D02*
X145458734Y-61260438D01*
X145458734Y-61260438D02*
X145458734Y-61355676D01*
X145458734Y-61355676D02*
X145411115Y-61450914D01*
X145411115Y-61450914D02*
X145315877Y-61498533D01*
X145315877Y-61498533D02*
X145077782Y-61498533D01*
X145077782Y-61498533D02*
X144982544Y-61546152D01*
X144649210Y-61784247D02*
X144268258Y-61784247D01*
X144506353Y-62117580D02*
X144506353Y-61260438D01*
X144506353Y-61260438D02*
X144458734Y-61165200D01*
X144458734Y-61165200D02*
X144363496Y-61117580D01*
X144363496Y-61117580D02*
X144268258Y-61117580D01*
X144077781Y-61784247D02*
X143696829Y-61784247D01*
X143934924Y-62117580D02*
X143934924Y-61260438D01*
X143934924Y-61260438D02*
X143887305Y-61165200D01*
X143887305Y-61165200D02*
X143792067Y-61117580D01*
X143792067Y-61117580D02*
X143696829Y-61117580D01*
X142982543Y-61165200D02*
X143077781Y-61117580D01*
X143077781Y-61117580D02*
X143268257Y-61117580D01*
X143268257Y-61117580D02*
X143363495Y-61165200D01*
X143363495Y-61165200D02*
X143411114Y-61260438D01*
X143411114Y-61260438D02*
X143411114Y-61641390D01*
X143411114Y-61641390D02*
X143363495Y-61736628D01*
X143363495Y-61736628D02*
X143268257Y-61784247D01*
X143268257Y-61784247D02*
X143077781Y-61784247D01*
X143077781Y-61784247D02*
X142982543Y-61736628D01*
X142982543Y-61736628D02*
X142934924Y-61641390D01*
X142934924Y-61641390D02*
X142934924Y-61546152D01*
X142934924Y-61546152D02*
X143411114Y-61450914D01*
X142506352Y-61117580D02*
X142506352Y-61784247D01*
X142506352Y-61593771D02*
X142458733Y-61689009D01*
X142458733Y-61689009D02*
X142411114Y-61736628D01*
X142411114Y-61736628D02*
X142315876Y-61784247D01*
X142315876Y-61784247D02*
X142220638Y-61784247D01*
X141982542Y-61784247D02*
X141744447Y-61117580D01*
X141506352Y-61784247D02*
X141744447Y-61117580D01*
X141744447Y-61117580D02*
X141839685Y-60879485D01*
X141839685Y-60879485D02*
X141887304Y-60831866D01*
X141887304Y-60831866D02*
X141982542Y-60784247D01*
X137679925Y-89422580D02*
X138156115Y-89422580D01*
X138156115Y-89422580D02*
X138203734Y-88946390D01*
X138203734Y-88946390D02*
X138156115Y-88994009D01*
X138156115Y-88994009D02*
X138060877Y-89041628D01*
X138060877Y-89041628D02*
X137822782Y-89041628D01*
X137822782Y-89041628D02*
X137727544Y-88994009D01*
X137727544Y-88994009D02*
X137679925Y-88946390D01*
X137679925Y-88946390D02*
X137632306Y-88851152D01*
X137632306Y-88851152D02*
X137632306Y-88613057D01*
X137632306Y-88613057D02*
X137679925Y-88517819D01*
X137679925Y-88517819D02*
X137727544Y-88470200D01*
X137727544Y-88470200D02*
X137822782Y-88422580D01*
X137822782Y-88422580D02*
X138060877Y-88422580D01*
X138060877Y-88422580D02*
X138156115Y-88470200D01*
X138156115Y-88470200D02*
X138203734Y-88517819D01*
X137346591Y-89422580D02*
X137013258Y-88422580D01*
X137013258Y-88422580D02*
X136679925Y-89422580D01*
X136346591Y-88422580D02*
X136346591Y-89422580D01*
X136346591Y-89422580D02*
X136108496Y-89422580D01*
X136108496Y-89422580D02*
X135965639Y-89374961D01*
X135965639Y-89374961D02*
X135870401Y-89279723D01*
X135870401Y-89279723D02*
X135822782Y-89184485D01*
X135822782Y-89184485D02*
X135775163Y-88994009D01*
X135775163Y-88994009D02*
X135775163Y-88851152D01*
X135775163Y-88851152D02*
X135822782Y-88660676D01*
X135822782Y-88660676D02*
X135870401Y-88565438D01*
X135870401Y-88565438D02*
X135965639Y-88470200D01*
X135965639Y-88470200D02*
X136108496Y-88422580D01*
X136108496Y-88422580D02*
X136346591Y-88422580D01*
X134775163Y-88517819D02*
X134822782Y-88470200D01*
X134822782Y-88470200D02*
X134965639Y-88422580D01*
X134965639Y-88422580D02*
X135060877Y-88422580D01*
X135060877Y-88422580D02*
X135203734Y-88470200D01*
X135203734Y-88470200D02*
X135298972Y-88565438D01*
X135298972Y-88565438D02*
X135346591Y-88660676D01*
X135346591Y-88660676D02*
X135394210Y-88851152D01*
X135394210Y-88851152D02*
X135394210Y-88994009D01*
X135394210Y-88994009D02*
X135346591Y-89184485D01*
X135346591Y-89184485D02*
X135298972Y-89279723D01*
X135298972Y-89279723D02*
X135203734Y-89374961D01*
X135203734Y-89374961D02*
X135060877Y-89422580D01*
X135060877Y-89422580D02*
X134965639Y-89422580D01*
X134965639Y-89422580D02*
X134822782Y-89374961D01*
X134822782Y-89374961D02*
X134775163Y-89327342D01*
D11*
X132409819Y-78523333D02*
X133124104Y-78523333D01*
X133124104Y-78523333D02*
X133266961Y-78570952D01*
X133266961Y-78570952D02*
X133362200Y-78666190D01*
X133362200Y-78666190D02*
X133409819Y-78809047D01*
X133409819Y-78809047D02*
X133409819Y-78904285D01*
X132409819Y-77570952D02*
X132409819Y-78047142D01*
X132409819Y-78047142D02*
X132886009Y-78094761D01*
X132886009Y-78094761D02*
X132838390Y-78047142D01*
X132838390Y-78047142D02*
X132790771Y-77951904D01*
X132790771Y-77951904D02*
X132790771Y-77713809D01*
X132790771Y-77713809D02*
X132838390Y-77618571D01*
X132838390Y-77618571D02*
X132886009Y-77570952D01*
X132886009Y-77570952D02*
X132981247Y-77523333D01*
X132981247Y-77523333D02*
X133219342Y-77523333D01*
X133219342Y-77523333D02*
X133314580Y-77570952D01*
X133314580Y-77570952D02*
X133362200Y-77618571D01*
X133362200Y-77618571D02*
X133409819Y-77713809D01*
X133409819Y-77713809D02*
X133409819Y-77951904D01*
X133409819Y-77951904D02*
X133362200Y-78047142D01*
X133362200Y-78047142D02*
X133314580Y-78094761D01*
X132409819Y-66458333D02*
X133124104Y-66458333D01*
X133124104Y-66458333D02*
X133266961Y-66505952D01*
X133266961Y-66505952D02*
X133362200Y-66601190D01*
X133362200Y-66601190D02*
X133409819Y-66744047D01*
X133409819Y-66744047D02*
X133409819Y-66839285D01*
X132409819Y-65553571D02*
X132409819Y-65744047D01*
X132409819Y-65744047D02*
X132457438Y-65839285D01*
X132457438Y-65839285D02*
X132505057Y-65886904D01*
X132505057Y-65886904D02*
X132647914Y-65982142D01*
X132647914Y-65982142D02*
X132838390Y-66029761D01*
X132838390Y-66029761D02*
X133219342Y-66029761D01*
X133219342Y-66029761D02*
X133314580Y-65982142D01*
X133314580Y-65982142D02*
X133362200Y-65934523D01*
X133362200Y-65934523D02*
X133409819Y-65839285D01*
X133409819Y-65839285D02*
X133409819Y-65648809D01*
X133409819Y-65648809D02*
X133362200Y-65553571D01*
X133362200Y-65553571D02*
X133314580Y-65505952D01*
X133314580Y-65505952D02*
X133219342Y-65458333D01*
X133219342Y-65458333D02*
X132981247Y-65458333D01*
X132981247Y-65458333D02*
X132886009Y-65505952D01*
X132886009Y-65505952D02*
X132838390Y-65553571D01*
X132838390Y-65553571D02*
X132790771Y-65648809D01*
X132790771Y-65648809D02*
X132790771Y-65839285D01*
X132790771Y-65839285D02*
X132838390Y-65934523D01*
X132838390Y-65934523D02*
X132886009Y-65982142D01*
X132886009Y-65982142D02*
X132981247Y-66029761D01*
X168030714Y-100564104D02*
X168506904Y-100564104D01*
X167935476Y-100849819D02*
X168268809Y-99849819D01*
X168268809Y-99849819D02*
X168602142Y-100849819D01*
X169459285Y-100849819D02*
X168887857Y-100849819D01*
X169173571Y-100849819D02*
X169173571Y-99849819D01*
X169173571Y-99849819D02*
X169078333Y-99992676D01*
X169078333Y-99992676D02*
X168983095Y-100087914D01*
X168983095Y-100087914D02*
X168887857Y-100135533D01*
X165756904Y-67300180D02*
X165756904Y-66490657D01*
X165756904Y-66490657D02*
X165709285Y-66395419D01*
X165709285Y-66395419D02*
X165661666Y-66347800D01*
X165661666Y-66347800D02*
X165566428Y-66300180D01*
X165566428Y-66300180D02*
X165375952Y-66300180D01*
X165375952Y-66300180D02*
X165280714Y-66347800D01*
X165280714Y-66347800D02*
X165233095Y-66395419D01*
X165233095Y-66395419D02*
X165185476Y-66490657D01*
X165185476Y-66490657D02*
X165185476Y-67300180D01*
X164756904Y-66347800D02*
X164614047Y-66300180D01*
X164614047Y-66300180D02*
X164375952Y-66300180D01*
X164375952Y-66300180D02*
X164280714Y-66347800D01*
X164280714Y-66347800D02*
X164233095Y-66395419D01*
X164233095Y-66395419D02*
X164185476Y-66490657D01*
X164185476Y-66490657D02*
X164185476Y-66585895D01*
X164185476Y-66585895D02*
X164233095Y-66681133D01*
X164233095Y-66681133D02*
X164280714Y-66728752D01*
X164280714Y-66728752D02*
X164375952Y-66776371D01*
X164375952Y-66776371D02*
X164566428Y-66823990D01*
X164566428Y-66823990D02*
X164661666Y-66871609D01*
X164661666Y-66871609D02*
X164709285Y-66919228D01*
X164709285Y-66919228D02*
X164756904Y-67014466D01*
X164756904Y-67014466D02*
X164756904Y-67109704D01*
X164756904Y-67109704D02*
X164709285Y-67204942D01*
X164709285Y-67204942D02*
X164661666Y-67252561D01*
X164661666Y-67252561D02*
X164566428Y-67300180D01*
X164566428Y-67300180D02*
X164328333Y-67300180D01*
X164328333Y-67300180D02*
X164185476Y-67252561D01*
X163423571Y-66823990D02*
X163280714Y-66776371D01*
X163280714Y-66776371D02*
X163233095Y-66728752D01*
X163233095Y-66728752D02*
X163185476Y-66633514D01*
X163185476Y-66633514D02*
X163185476Y-66490657D01*
X163185476Y-66490657D02*
X163233095Y-66395419D01*
X163233095Y-66395419D02*
X163280714Y-66347800D01*
X163280714Y-66347800D02*
X163375952Y-66300180D01*
X163375952Y-66300180D02*
X163756904Y-66300180D01*
X163756904Y-66300180D02*
X163756904Y-67300180D01*
X163756904Y-67300180D02*
X163423571Y-67300180D01*
X163423571Y-67300180D02*
X163328333Y-67252561D01*
X163328333Y-67252561D02*
X163280714Y-67204942D01*
X163280714Y-67204942D02*
X163233095Y-67109704D01*
X163233095Y-67109704D02*
X163233095Y-67014466D01*
X163233095Y-67014466D02*
X163280714Y-66919228D01*
X163280714Y-66919228D02*
X163328333Y-66871609D01*
X163328333Y-66871609D02*
X163423571Y-66823990D01*
X163423571Y-66823990D02*
X163756904Y-66823990D01*
X180654819Y-72636666D02*
X180178628Y-72969999D01*
X180654819Y-73208094D02*
X179654819Y-73208094D01*
X179654819Y-73208094D02*
X179654819Y-72827142D01*
X179654819Y-72827142D02*
X179702438Y-72731904D01*
X179702438Y-72731904D02*
X179750057Y-72684285D01*
X179750057Y-72684285D02*
X179845295Y-72636666D01*
X179845295Y-72636666D02*
X179988152Y-72636666D01*
X179988152Y-72636666D02*
X180083390Y-72684285D01*
X180083390Y-72684285D02*
X180131009Y-72731904D01*
X180131009Y-72731904D02*
X180178628Y-72827142D01*
X180178628Y-72827142D02*
X180178628Y-73208094D01*
X179654819Y-71779523D02*
X179654819Y-71969999D01*
X179654819Y-71969999D02*
X179702438Y-72065237D01*
X179702438Y-72065237D02*
X179750057Y-72112856D01*
X179750057Y-72112856D02*
X179892914Y-72208094D01*
X179892914Y-72208094D02*
X180083390Y-72255713D01*
X180083390Y-72255713D02*
X180464342Y-72255713D01*
X180464342Y-72255713D02*
X180559580Y-72208094D01*
X180559580Y-72208094D02*
X180607200Y-72160475D01*
X180607200Y-72160475D02*
X180654819Y-72065237D01*
X180654819Y-72065237D02*
X180654819Y-71874761D01*
X180654819Y-71874761D02*
X180607200Y-71779523D01*
X180607200Y-71779523D02*
X180559580Y-71731904D01*
X180559580Y-71731904D02*
X180464342Y-71684285D01*
X180464342Y-71684285D02*
X180226247Y-71684285D01*
X180226247Y-71684285D02*
X180131009Y-71731904D01*
X180131009Y-71731904D02*
X180083390Y-71779523D01*
X180083390Y-71779523D02*
X180035771Y-71874761D01*
X180035771Y-71874761D02*
X180035771Y-72065237D01*
X180035771Y-72065237D02*
X180083390Y-72160475D01*
X180083390Y-72160475D02*
X180131009Y-72208094D01*
X180131009Y-72208094D02*
X180226247Y-72255713D01*
X138111666Y-89744819D02*
X138111666Y-90459104D01*
X138111666Y-90459104D02*
X138064047Y-90601961D01*
X138064047Y-90601961D02*
X137968809Y-90697200D01*
X137968809Y-90697200D02*
X137825952Y-90744819D01*
X137825952Y-90744819D02*
X137730714Y-90744819D01*
X139111666Y-90744819D02*
X138540238Y-90744819D01*
X138825952Y-90744819D02*
X138825952Y-89744819D01*
X138825952Y-89744819D02*
X138730714Y-89887676D01*
X138730714Y-89887676D02*
X138635476Y-89982914D01*
X138635476Y-89982914D02*
X138540238Y-90030533D01*
X139554819Y-67653333D02*
X140269104Y-67653333D01*
X140269104Y-67653333D02*
X140411961Y-67700952D01*
X140411961Y-67700952D02*
X140507200Y-67796190D01*
X140507200Y-67796190D02*
X140554819Y-67939047D01*
X140554819Y-67939047D02*
X140554819Y-68034285D01*
X139554819Y-67272380D02*
X139554819Y-66653333D01*
X139554819Y-66653333D02*
X139935771Y-66986666D01*
X139935771Y-66986666D02*
X139935771Y-66843809D01*
X139935771Y-66843809D02*
X139983390Y-66748571D01*
X139983390Y-66748571D02*
X140031009Y-66700952D01*
X140031009Y-66700952D02*
X140126247Y-66653333D01*
X140126247Y-66653333D02*
X140364342Y-66653333D01*
X140364342Y-66653333D02*
X140459580Y-66700952D01*
X140459580Y-66700952D02*
X140507200Y-66748571D01*
X140507200Y-66748571D02*
X140554819Y-66843809D01*
X140554819Y-66843809D02*
X140554819Y-67129523D01*
X140554819Y-67129523D02*
X140507200Y-67224761D01*
X140507200Y-67224761D02*
X140459580Y-67272380D01*
X139444819Y-79768333D02*
X140159104Y-79768333D01*
X140159104Y-79768333D02*
X140301961Y-79815952D01*
X140301961Y-79815952D02*
X140397200Y-79911190D01*
X140397200Y-79911190D02*
X140444819Y-80054047D01*
X140444819Y-80054047D02*
X140444819Y-80149285D01*
X139540057Y-79339761D02*
X139492438Y-79292142D01*
X139492438Y-79292142D02*
X139444819Y-79196904D01*
X139444819Y-79196904D02*
X139444819Y-78958809D01*
X139444819Y-78958809D02*
X139492438Y-78863571D01*
X139492438Y-78863571D02*
X139540057Y-78815952D01*
X139540057Y-78815952D02*
X139635295Y-78768333D01*
X139635295Y-78768333D02*
X139730533Y-78768333D01*
X139730533Y-78768333D02*
X139873390Y-78815952D01*
X139873390Y-78815952D02*
X140444819Y-79387380D01*
X140444819Y-79387380D02*
X140444819Y-78768333D01*
X145341905Y-86279819D02*
X145341905Y-85279819D01*
X145341905Y-85279819D02*
X145580000Y-85279819D01*
X145580000Y-85279819D02*
X145722857Y-85327438D01*
X145722857Y-85327438D02*
X145818095Y-85422676D01*
X145818095Y-85422676D02*
X145865714Y-85517914D01*
X145865714Y-85517914D02*
X145913333Y-85708390D01*
X145913333Y-85708390D02*
X145913333Y-85851247D01*
X145913333Y-85851247D02*
X145865714Y-86041723D01*
X145865714Y-86041723D02*
X145818095Y-86136961D01*
X145818095Y-86136961D02*
X145722857Y-86232200D01*
X145722857Y-86232200D02*
X145580000Y-86279819D01*
X145580000Y-86279819D02*
X145341905Y-86279819D01*
X146865714Y-86279819D02*
X146294286Y-86279819D01*
X146580000Y-86279819D02*
X146580000Y-85279819D01*
X146580000Y-85279819D02*
X146484762Y-85422676D01*
X146484762Y-85422676D02*
X146389524Y-85517914D01*
X146389524Y-85517914D02*
X146294286Y-85565533D01*
X140738095Y-86649819D02*
X140738095Y-85649819D01*
X141309523Y-86649819D02*
X140880952Y-86078390D01*
X141309523Y-85649819D02*
X140738095Y-86221247D01*
X180654819Y-93591666D02*
X180178628Y-93924999D01*
X180654819Y-94163094D02*
X179654819Y-94163094D01*
X179654819Y-94163094D02*
X179654819Y-93782142D01*
X179654819Y-93782142D02*
X179702438Y-93686904D01*
X179702438Y-93686904D02*
X179750057Y-93639285D01*
X179750057Y-93639285D02*
X179845295Y-93591666D01*
X179845295Y-93591666D02*
X179988152Y-93591666D01*
X179988152Y-93591666D02*
X180083390Y-93639285D01*
X180083390Y-93639285D02*
X180131009Y-93686904D01*
X180131009Y-93686904D02*
X180178628Y-93782142D01*
X180178628Y-93782142D02*
X180178628Y-94163094D01*
X179654819Y-92686904D02*
X179654819Y-93163094D01*
X179654819Y-93163094D02*
X180131009Y-93210713D01*
X180131009Y-93210713D02*
X180083390Y-93163094D01*
X180083390Y-93163094D02*
X180035771Y-93067856D01*
X180035771Y-93067856D02*
X180035771Y-92829761D01*
X180035771Y-92829761D02*
X180083390Y-92734523D01*
X180083390Y-92734523D02*
X180131009Y-92686904D01*
X180131009Y-92686904D02*
X180226247Y-92639285D01*
X180226247Y-92639285D02*
X180464342Y-92639285D01*
X180464342Y-92639285D02*
X180559580Y-92686904D01*
X180559580Y-92686904D02*
X180607200Y-92734523D01*
X180607200Y-92734523D02*
X180654819Y-92829761D01*
X180654819Y-92829761D02*
X180654819Y-93067856D01*
X180654819Y-93067856D02*
X180607200Y-93163094D01*
X180607200Y-93163094D02*
X180559580Y-93210713D01*
D12*
%TO.C,J5*%
X133955000Y-75590000D02*
X136615000Y-75590000D01*
X133955000Y-78190000D02*
X133955000Y-75590000D01*
X133955000Y-80790000D02*
X133955000Y-79460000D01*
X135285000Y-80790000D02*
X133955000Y-80790000D01*
X136555000Y-78190000D02*
X133955000Y-78190000D01*
X136555000Y-80790000D02*
X136555000Y-78190000D01*
X136555000Y-80790000D02*
X136615000Y-80790000D01*
X136615000Y-80790000D02*
X136615000Y-75590000D01*
%TO.C,J6*%
X133955000Y-63525000D02*
X136615000Y-63525000D01*
X133955000Y-66125000D02*
X133955000Y-63525000D01*
X133955000Y-68725000D02*
X133955000Y-67395000D01*
X135285000Y-68725000D02*
X133955000Y-68725000D01*
X136555000Y-66125000D02*
X133955000Y-66125000D01*
X136555000Y-68725000D02*
X136555000Y-66125000D01*
X136555000Y-68725000D02*
X136615000Y-68725000D01*
X136615000Y-68725000D02*
X136615000Y-63525000D01*
%TO.C,R1*%
X145980000Y-97090000D02*
X145980000Y-103630000D01*
X145980000Y-103630000D02*
X148720000Y-103630000D01*
X147350000Y-96320000D02*
X147350000Y-97090000D01*
X147350000Y-104400000D02*
X147350000Y-103630000D01*
X148720000Y-97090000D02*
X145980000Y-97090000D01*
X148720000Y-103630000D02*
X148720000Y-97090000D01*
%TO.C,R4*%
X149790000Y-63435000D02*
X149790000Y-69975000D01*
X149790000Y-69975000D02*
X152530000Y-69975000D01*
X151160000Y-62665000D02*
X151160000Y-63435000D01*
X151160000Y-70745000D02*
X151160000Y-69975000D01*
X152530000Y-63435000D02*
X149790000Y-63435000D01*
X152530000Y-69975000D02*
X152530000Y-63435000D01*
%TO.C,R2*%
X150425000Y-97090000D02*
X150425000Y-103630000D01*
X150425000Y-103630000D02*
X153165000Y-103630000D01*
X151795000Y-96320000D02*
X151795000Y-97090000D01*
X151795000Y-104400000D02*
X151795000Y-103630000D01*
X153165000Y-97090000D02*
X150425000Y-97090000D01*
X153165000Y-103630000D02*
X153165000Y-97090000D01*
%TO.C,A1*%
X155475000Y-62815000D02*
X155475000Y-106255000D01*
X155475000Y-62815000D02*
X160555000Y-62815000D01*
X155475000Y-106255000D02*
X173515000Y-106255000D01*
X158145000Y-65485000D02*
X155475000Y-65485000D01*
X158145000Y-103585000D02*
X155475000Y-103585000D01*
X158145000Y-103585000D02*
X158145000Y-65485000D01*
X160555000Y-60275000D02*
X168435000Y-60275000D01*
X160555000Y-70695000D02*
X160555000Y-60275000D01*
X168435000Y-60275000D02*
X168435000Y-70695000D01*
X168435000Y-70695000D02*
X160555000Y-70695000D01*
X170845000Y-65485000D02*
X173515000Y-65485000D01*
X170845000Y-101045000D02*
X170845000Y-65485000D01*
X170845000Y-101045000D02*
X170845000Y-103585000D01*
X170845000Y-101045000D02*
X173515000Y-101045000D01*
X170845000Y-103585000D02*
X173515000Y-103585000D01*
X173515000Y-62815000D02*
X168435000Y-62815000D01*
X173515000Y-101045000D02*
X173515000Y-62815000D01*
X173515000Y-106255000D02*
X173515000Y-103585000D01*
%TO.C,R6*%
X176460000Y-69200000D02*
X176460000Y-75740000D01*
X176460000Y-75740000D02*
X179200000Y-75740000D01*
X177830000Y-68430000D02*
X177830000Y-69200000D01*
X177830000Y-76510000D02*
X177830000Y-75740000D01*
X179200000Y-69200000D02*
X176460000Y-69200000D01*
X179200000Y-75740000D02*
X179200000Y-69200000D01*
%TO.C,J1*%
X133545000Y-91790000D02*
X133545000Y-93090000D01*
X133845000Y-92090000D02*
X135845000Y-92090000D01*
X133845000Y-106590000D02*
X133845000Y-92090000D01*
X135245000Y-91790000D02*
X133545000Y-91790000D01*
X141045000Y-92090000D02*
X143045000Y-92090000D01*
X143045000Y-92090000D02*
X143045000Y-93390000D01*
X143045000Y-97990000D02*
X143045000Y-106590000D01*
X143045000Y-106590000D02*
X133845000Y-106590000D01*
%TO.C,Q2*%
X179630000Y-81055000D02*
X176030000Y-81055000D01*
X177830000Y-85505000D02*
G75*
G02*
X175991522Y-81066522I0J2600000D01*
G01*
X179668478Y-81066522D02*
G75*
G02*
X177830000Y-85505001I-1838478J-1838478D01*
G01*
%TO.C,J3*%
X140900000Y-70170000D02*
X140900000Y-71420000D01*
X140900000Y-71420000D02*
X142150000Y-71420000D01*
X141190000Y-63510000D02*
X141190000Y-71130000D01*
X141190000Y-71130000D02*
X147160000Y-71130000D01*
X141200000Y-63520000D02*
X141200000Y-65320000D01*
X141200000Y-65320000D02*
X141950000Y-65320000D01*
X141200000Y-66820000D02*
X141200000Y-67820000D01*
X141200000Y-67820000D02*
X141950000Y-67820000D01*
X141200000Y-69320000D02*
X141200000Y-71120000D01*
X141200000Y-71120000D02*
X141950000Y-71120000D01*
X141950000Y-63520000D02*
X141200000Y-63520000D01*
X141950000Y-65320000D02*
X141950000Y-63520000D01*
X141950000Y-66820000D02*
X141200000Y-66820000D01*
X141950000Y-67820000D02*
X141950000Y-66820000D01*
X141950000Y-69320000D02*
X141200000Y-69320000D01*
X141950000Y-71120000D02*
X141950000Y-69320000D01*
X143450000Y-63520000D02*
X143450000Y-64270000D01*
X143450000Y-64270000D02*
X146400000Y-64270000D01*
X143450000Y-70370000D02*
X146400000Y-70370000D01*
X143450000Y-71120000D02*
X143450000Y-70370000D01*
X146400000Y-64270000D02*
X146400000Y-67320000D01*
X146400000Y-70370000D02*
X146400000Y-67320000D01*
X147160000Y-63510000D02*
X141190000Y-63510000D01*
X147160000Y-71130000D02*
X147160000Y-63510000D01*
%TO.C,J2*%
X140790000Y-82285000D02*
X140790000Y-83535000D01*
X140790000Y-83535000D02*
X142040000Y-83535000D01*
X141080000Y-75625000D02*
X141080000Y-83245000D01*
X141080000Y-83245000D02*
X147050000Y-83245000D01*
X141090000Y-75635000D02*
X141090000Y-77435000D01*
X141090000Y-77435000D02*
X141840000Y-77435000D01*
X141090000Y-78935000D02*
X141090000Y-79935000D01*
X141090000Y-79935000D02*
X141840000Y-79935000D01*
X141090000Y-81435000D02*
X141090000Y-83235000D01*
X141090000Y-83235000D02*
X141840000Y-83235000D01*
X141840000Y-75635000D02*
X141090000Y-75635000D01*
X141840000Y-77435000D02*
X141840000Y-75635000D01*
X141840000Y-78935000D02*
X141090000Y-78935000D01*
X141840000Y-79935000D02*
X141840000Y-78935000D01*
X141840000Y-81435000D02*
X141090000Y-81435000D01*
X141840000Y-83235000D02*
X141840000Y-81435000D01*
X143340000Y-75635000D02*
X143340000Y-76385000D01*
X143340000Y-76385000D02*
X146290000Y-76385000D01*
X143340000Y-82485000D02*
X146290000Y-82485000D01*
X143340000Y-83235000D02*
X143340000Y-82485000D01*
X146290000Y-76385000D02*
X146290000Y-79435000D01*
X146290000Y-82485000D02*
X146290000Y-79435000D01*
X147050000Y-75625000D02*
X141080000Y-75625000D01*
X147050000Y-83245000D02*
X147050000Y-75625000D01*
%TO.C,R3*%
X149790000Y-76770000D02*
X149790000Y-83310000D01*
X149790000Y-83310000D02*
X152530000Y-83310000D01*
X151160000Y-76000000D02*
X151160000Y-76770000D01*
X151160000Y-84080000D02*
X151160000Y-83310000D01*
X152530000Y-76770000D02*
X149790000Y-76770000D01*
X152530000Y-83310000D02*
X152530000Y-76770000D01*
%TO.C,D1*%
X142340000Y-88295000D02*
X143360000Y-88295000D01*
X143360000Y-86825000D02*
X143360000Y-89765000D01*
X143360000Y-89765000D02*
X148800000Y-89765000D01*
X144140000Y-86825000D02*
X144140000Y-89765000D01*
X144260000Y-86825000D02*
X144260000Y-89765000D01*
X144380000Y-86825000D02*
X144380000Y-89765000D01*
X148800000Y-86825000D02*
X143360000Y-86825000D01*
X148800000Y-89765000D02*
X148800000Y-86825000D01*
X149820000Y-88295000D02*
X148800000Y-88295000D01*
%TO.C,R5*%
X176460000Y-90155000D02*
X176460000Y-96695000D01*
X176460000Y-96695000D02*
X179200000Y-96695000D01*
X177830000Y-89385000D02*
X177830000Y-90155000D01*
X177830000Y-97465000D02*
X177830000Y-96695000D01*
X179200000Y-90155000D02*
X176460000Y-90155000D01*
X179200000Y-96695000D02*
X179200000Y-90155000D01*
%TO.C,Q1*%
X179630000Y-102010000D02*
X176030000Y-102010000D01*
X177830000Y-106460000D02*
G75*
G02*
X175991522Y-102021522I0J2600000D01*
G01*
X179668478Y-102021522D02*
G75*
G02*
X177830000Y-106460001I-1838478J-1838478D01*
G01*
%TD*%
D13*
X126745000Y-58395000D02*
X187745000Y-58395000D01*
X187745000Y-107395000D01*
X126745000Y-107395000D01*
X126745000Y-58395000D01*
M02*
