M48
; DRILL file {KiCad 8.0.5} date 2025-02-06T11:14:07+0800
; FORMAT={-:-/ absolute / metric / decimal}
; #@! TF.CreationDate,2025-02-06T11:14:07+08:00
; #@! TF.GenerationSoftware,Kicad,Pcbnew,8.0.5
; #@! TF.FileFunction,Plated,1,2,PTH
FMAT,2
METRIC
; #@! TA.AperFunction,Plated,PTH,ViaDrill
T1C0.300
; #@! TA.AperFunction,Plated,PTH,ComponentDrill
T2C0.750
; #@! TA.AperFunction,Plated,PTH,ComponentDrill
T3C0.800
; #@! TA.AperFunction,Plated,PTH,ComponentDrill
T4C1.000
; #@! TA.AperFunction,Plated,PTH,ComponentDrill
T5C1.100
%
G90
G05
T1
X180.845Y-82.905
X181.145Y-88.995
X181.145Y-91.495
X181.345Y-94.095
X185.945Y-86.44
T2
X176.56Y-82.905
X176.56Y-103.86
X177.83Y-82.905
X177.83Y-103.86
X179.1Y-82.905
X179.1Y-103.86
T3
X147.35Y-95.28
X147.35Y-105.44
X151.16Y-61.625
X151.16Y-71.785
X151.16Y-74.96
X151.16Y-85.12
X151.795Y-95.28
X151.795Y-105.44
X177.83Y-67.39
X177.83Y-77.55
X177.83Y-88.345
X177.83Y-98.505
T4
X135.285Y-64.855
X135.285Y-67.395
X135.285Y-76.92
X135.285Y-79.46
X143.54Y-78.185
X143.54Y-80.685
X143.65Y-66.07
X143.65Y-68.57
X156.875Y-66.755
X156.875Y-69.295
X156.875Y-71.835
X156.875Y-74.375
X156.875Y-76.915
X156.875Y-79.455
X156.875Y-81.995
X156.875Y-84.535
X156.875Y-87.075
X156.875Y-89.615
X156.875Y-92.155
X156.875Y-94.695
X156.875Y-97.235
X156.875Y-99.775
X156.875Y-102.315
X172.115Y-66.755
X172.115Y-69.295
X172.115Y-71.835
X172.115Y-74.375
X172.115Y-76.915
X172.115Y-79.455
X172.115Y-81.995
X172.115Y-84.535
X172.115Y-87.075
X172.115Y-89.615
X172.115Y-92.155
X172.115Y-94.695
X172.115Y-97.235
X172.115Y-99.775
X172.115Y-102.315
X183.545Y-83.9
X183.545Y-86.44
X183.545Y-88.98
X183.545Y-91.52
X183.545Y-94.06
T5
X141.0Y-88.295
X151.16Y-88.295
T4
G00X137.145Y-92.79
M15
G01X139.745Y-92.79
M16
G05
G00X137.345Y-99.09
M15
G01X139.545Y-99.09
M16
G05
G00X143.245Y-94.59
M15
G01X143.245Y-96.79
M16
G05
M30
