<?xml version="1.0" standalone="no"?>
 <!DOCTYPE svg PUBLIC "-//W3C//DTD SVG 1.1//EN" 
 "http://www.w3.org/Graphics/SVG/1.1/DTD/svg11.dtd"> 
<svg
  xmlns:svg="http://www.w3.org/2000/svg"
  xmlns="http://www.w3.org/2000/svg"
  xmlns:xlink="http://www.w3.org/1999/xlink"
  version="1.1"
  width="297.0022mm" height="210.0072mm" viewBox="0.0000 0.0000 297.0022 210.0072">
<title>SVG Image created as arduino_solar_bikelight_1-B_Cu.svg date 2025/02/06 11:17:32 </title>
  <desc>Image generated by PCBNEW </desc>
<g style="fill:#000000; fill-opacity:1.0000;stroke:#000000; stroke-opacity:1.0000;
stroke-linecap:round; stroke-linejoin:round;"
 transform="translate(0 0) scale(1 1)">
<path style="fill:#000000; fill-opacity:1.0000; stroke:none;fill-rule:evenodd;"
d="M 136.1350,80.3100
134.4350,80.3100
134.4350,78.6100
136.1350,78.6100
Z" /> 
</g>
<g style="fill:#000000; fill-opacity:1.0000; stroke:none;">
<circle cx="135.2850" cy="76.9200" r="0.8500" /> 
<path style="fill:#000000; fill-opacity:1.0000; stroke:none;fill-rule:evenodd;"
d="M 136.1350,68.2450
134.4350,68.2450
134.4350,66.5450
136.1350,66.5450
Z" /> 
<circle cx="135.2850" cy="64.8550" r="0.8500" /> 
<circle cx="147.3500" cy="105.4400" r="0.8000" /> 
</g>
<g style="fill:#000000; fill-opacity:1.0000; stroke:none;">
<circle cx="147.3500" cy="95.2800" r="0.8000" /> 
<circle cx="151.1600" cy="61.6250" r="0.8000" /> 
</g>
<g style="fill:#000000; fill-opacity:1.0000; stroke:none;">
<circle cx="151.1600" cy="71.7850" r="0.8000" /> 
<circle cx="151.7950" cy="105.4400" r="0.8000" /> 
</g>
<g style="fill:#000000; fill-opacity:1.0000; stroke:none;">
<circle cx="151.7950" cy="95.2800" r="0.8000" /> 
<path style="fill:#000000; fill-opacity:1.0000; stroke:none;fill-rule:evenodd;"
d="M 172.9150,101.5150
172.9150,103.1150
171.3150,103.1150
171.3150,101.5150
Z" /> 
<circle cx="172.1150" cy="99.7750" r="0.8000" /> 
<circle cx="172.1150" cy="97.2350" r="0.8000" /> 
<circle cx="172.1150" cy="94.6950" r="0.8000" /> 
<circle cx="172.1150" cy="92.1550" r="0.8000" /> 
<circle cx="172.1150" cy="89.6150" r="0.8000" /> 
<circle cx="172.1150" cy="87.0750" r="0.8000" /> 
<circle cx="172.1150" cy="84.5350" r="0.8000" /> 
<circle cx="172.1150" cy="81.9950" r="0.8000" /> 
<circle cx="172.1150" cy="79.4550" r="0.8000" /> 
<circle cx="172.1150" cy="76.9150" r="0.8000" /> 
<circle cx="172.1150" cy="74.3750" r="0.8000" /> 
<circle cx="172.1150" cy="71.8350" r="0.8000" /> 
<circle cx="172.1150" cy="69.2950" r="0.8000" /> 
<circle cx="172.1150" cy="66.7550" r="0.8000" /> 
<circle cx="156.8750" cy="66.7550" r="0.8000" /> 
<circle cx="156.8750" cy="69.2950" r="0.8000" /> 
<circle cx="156.8750" cy="71.8350" r="0.8000" /> 
<circle cx="156.8750" cy="74.3750" r="0.8000" /> 
<circle cx="156.8750" cy="76.9150" r="0.8000" /> 
<circle cx="156.8750" cy="79.4550" r="0.8000" /> 
<circle cx="156.8750" cy="81.9950" r="0.8000" /> 
<circle cx="156.8750" cy="84.5350" r="0.8000" /> 
<circle cx="156.8750" cy="87.0750" r="0.8000" /> 
<circle cx="156.8750" cy="89.6150" r="0.8000" /> 
<circle cx="156.8750" cy="92.1550" r="0.8000" /> 
<circle cx="156.8750" cy="94.6950" r="0.8000" /> 
<circle cx="156.8750" cy="97.2350" r="0.8000" /> 
<circle cx="156.8750" cy="99.7750" r="0.8000" /> 
<circle cx="156.8750" cy="102.3150" r="0.8000" /> 
<circle cx="177.8300" cy="67.3900" r="0.8000" /> 
</g>
<g style="fill:#000000; fill-opacity:1.0000; stroke:none;">
<circle cx="177.8300" cy="77.5500" r="0.8000" /> 
<path style="fill:#000000; fill-opacity:1.0000; stroke:none;fill-rule:evenodd;"
d="M 136.1450,93.7900
136.1450,91.7900
140.7450,91.7900
140.7450,93.7900
Z" /> 
</g>
<g style="fill:none; 
stroke:#000000; stroke-width:2.0000; stroke-opacity:1; 
stroke-linecap:round; stroke-linejoin:round;">
<path d="M137.3450 99.0900
L139.5450 99.0900
" />
<path d="M143.2450 94.5900
L143.2450 96.7900
" />
<path style="fill:#000000; fill-opacity:1.0000; stroke:none;fill-rule:evenodd;"
d="M 179.6250,82.1550
179.6250,83.6550
178.5750,83.6550
178.5750,82.1550
Z" /> 
</g>
<g style="fill:none; 
stroke:#000000; stroke-width:1.0500; stroke-opacity:1; 
stroke-linecap:round; stroke-linejoin:round;">
<path d="M177.8300 83.1300
L177.8300 82.6800
" />
<path d="M176.5600 83.1300
L176.5600 82.6800
" />
<path style="fill:#000000; fill-opacity:1.0000; stroke:none;fill-rule:evenodd;"
d="M 142.9000,69.4200
142.8043,69.4010
142.7232,69.3468
142.6690,69.2657
142.6500,69.1700
142.6500,67.9700
142.6690,67.8743
142.7232,67.7932
142.8043,67.7390
142.9000,67.7200
144.4000,67.7200
144.4957,67.7390
144.5768,67.7932
144.6310,67.8743
144.6500,67.9700
144.6500,69.1700
144.6310,69.2657
144.5768,69.3468
144.4957,69.4010
144.4000,69.4200
Z" /> 
</g>
<g style="fill:none; 
stroke:#000000; stroke-width:1.7000; stroke-opacity:1; 
stroke-linecap:round; stroke-linejoin:round;">
<path d="M143.5000 66.0700
L143.8000 66.0700
" />
<path style="fill:#000000; fill-opacity:1.0000; stroke:none;fill-rule:evenodd;"
d="M 142.7900,81.5350
142.6943,81.5160
142.6132,81.4618
142.5590,81.3807
142.5400,81.2850
142.5400,80.0850
142.5590,79.9893
142.6132,79.9082
142.6943,79.8540
142.7900,79.8350
144.2900,79.8350
144.3857,79.8540
144.4668,79.9082
144.5210,79.9893
144.5400,80.0850
144.5400,81.2850
144.5210,81.3807
144.4668,81.4618
144.3857,81.5160
144.2900,81.5350
Z" /> 
</g>
<g style="fill:none; 
stroke:#000000; stroke-width:1.7000; stroke-opacity:1; 
stroke-linecap:round; stroke-linejoin:round;">
<path d="M143.3900 78.1850
L143.6900 78.1850
" />
</g>
<g style="fill:#000000; fill-opacity:1.0000; stroke:none;">
<circle cx="151.1600" cy="85.1200" r="0.8000" /> 
</g>
<g style="fill:#000000; fill-opacity:1.0000; stroke:none;">
<circle cx="151.1600" cy="74.9600" r="0.8000" /> 
<path style="fill:#000000; fill-opacity:1.0000; stroke:none;fill-rule:evenodd;"
d="M 139.9000,89.3950
139.9000,87.1950
142.1000,87.1950
142.1000,89.3950
Z" /> 
<circle cx="151.1600" cy="88.2950" r="1.1000" /> 
<circle cx="177.8300" cy="88.3450" r="0.8000" /> 
</g>
<g style="fill:#000000; fill-opacity:1.0000; stroke:none;">
<circle cx="177.8300" cy="98.5050" r="0.8000" /> 
<path style="fill:#000000; fill-opacity:1.0000; stroke:none;fill-rule:evenodd;"
d="M 179.6250,103.1100
179.6250,104.6100
178.5750,104.6100
178.5750,103.1100
Z" /> 
</g>
<g style="fill:none; 
stroke:#000000; stroke-width:1.0500; stroke-opacity:1; 
stroke-linecap:round; stroke-linejoin:round;">
<path d="M177.8300 104.0850
L177.8300 103.6350
" />
<path d="M176.5600 104.0850
L176.5600 103.6350
" />
<path style="fill:#000000; fill-opacity:1.0000; stroke:none;fill-rule:evenodd;"
d="M 184.3950,83.0500
184.3950,84.7500
182.6950,84.7500
182.6950,83.0500
Z" /> 
</g>
<g style="fill:#000000; fill-opacity:1.0000; stroke:none;">
<circle cx="183.5450" cy="86.4400" r="0.8500" /> 
<circle cx="183.5450" cy="88.9800" r="0.8500" /> 
<circle cx="183.5450" cy="91.5200" r="0.8500" /> 
<circle cx="183.5450" cy="94.0600" r="0.8500" /> 
<circle cx="181.3450" cy="94.0950" r="0.3000" /> 
</g>
<g style="fill:#000000; fill-opacity:1.0000; stroke:none;">
<circle cx="181.1450" cy="88.9950" r="0.3000" /> 
</g>
<g style="fill:#000000; fill-opacity:1.0000; stroke:none;">
<circle cx="181.1450" cy="91.4950" r="0.3000" /> 
</g>
<g style="fill:#000000; fill-opacity:1.0000; stroke:none;">
<circle cx="185.9450" cy="86.4400" r="0.3000" /> 
</g>
<g style="fill:#000000; fill-opacity:1.0000; stroke:none;">
<circle cx="180.8450" cy="82.9050" r="0.3000" /> 
</g>
<g style="fill:none; 
stroke:#000000; stroke-width:0.4000; stroke-opacity:1; 
stroke-linecap:round; stroke-linejoin:round;">
<path d="M156.8750 94.6950
L165.9950 103.8150
" />
<path d="M172.1150 105.4900
L175.9250 105.4900
" />
<path d="M145.3050 59.8250
L173.4400 59.8250
" />
<path d="M135.2850 67.3950
L136.4600 68.5700
" />
<path d="M160.6850 90.8850
L156.8750 94.6950
" />
<path d="M143.6500 68.5700
L146.9650 65.2550
" />
<path d="M175.9250 105.4900
L175.9250 104.4950
" />
<path d="M145.2400 70.1600
L145.2400 75.4400
" />
<path d="M146.9650 65.2550
L157.4963 65.2550
" />
<path d="M135.2850 67.3950
L137.7350 67.3950
" />
<path d="M179.6300 73.1050
L176.3300 76.4050
" />
<path d="M137.7350 67.3950
L145.3050 59.8250
" />
<path d="M173.4400 59.8250
L179.6300 66.0150
" />
<path d="M179.6300 66.0150
L179.6300 73.1050
" />
<path d="M176.3300 82.6750
L176.5600 82.9050
" />
<path d="M165.9950 103.8150
L170.4400 103.8150
" />
<path d="M176.3300 76.4050
L176.3300 82.6750
" />
<path d="M145.2400 75.4400
L151.1600 81.3600
" />
<path d="M136.4600 68.5700
L143.6500 68.5700
" />
<path d="M143.6500 68.5700
L145.2400 70.1600
" />
<path d="M151.1600 81.3600
L151.1600 85.1200
" />
<path d="M175.9250 104.4950
L176.5600 103.8600
" />
<path d="M160.6850 68.4437
L160.6850 90.8850
" />
<path d="M170.4400 103.8150
L172.1150 105.4900
" />
<path d="M157.4963 65.2550
L160.6850 68.4437
" />
</g>
<g style="fill:none; 
stroke:#000000; stroke-width:1.0000; stroke-opacity:1; 
stroke-linecap:round; stroke-linejoin:round;">
<path d="M135.2850 76.9200
L142.2750 76.9200
" />
<path d="M134.0829 76.9200
L135.2850 76.9200
" />
<path d="M135.2850 64.8550
L134.0829 64.8550
" />
<path d="M156.3286 99.7750
L156.8750 99.7750
" />
<path d="M180.7450 94.6950
L181.3450 94.0950
" />
<path d="M148.0950 61.6250
L143.6500 66.0700
" />
<path d="M138.4450 99.0900
L133.1450 93.7900
" />
<path d="M133.1450 93.7900
L133.1450 77.8579
" />
<path d="M142.2750 76.9200
L143.5400 78.1850
" />
<path d="M151.7950 104.3086
L156.3286 99.7750
" />
<path d="M172.1150 94.6950
L180.7450 94.6950
" />
<path d="M151.7950 105.4400
L151.7950 104.3086
" />
<path d="M181.3800 94.0600
L181.3450 94.0950
" />
<path d="M172.1150 94.6950
L172.7500 94.6950
" />
<path d="M133.1450 77.8579
L134.0829 76.9200
" />
<path d="M133.1450 74.7800
L135.2850 76.9200
" />
<path d="M151.1600 61.6250
L148.0950 61.6250
" />
<path d="M133.1450 65.7929
L133.1450 74.7800
" />
<path d="M183.5450 94.0600
L181.3800 94.0600
" />
<path d="M134.0829 64.8550
L133.1450 65.7929
" />
</g>
<g style="fill:none; 
stroke:#000000; stroke-width:0.4000; stroke-opacity:1; 
stroke-linecap:round; stroke-linejoin:round;">
<path d="M154.3350 82.8379
L156.4479 80.7250
" />
<path d="M159.4150 76.9150
L156.8750 74.3750
" />
<path d="M159.4150 78.6121
L159.4150 76.9150
" />
<path d="M156.4479 80.7250
L157.3021 80.7250
" />
<path d="M147.3500 95.2800
L151.7950 95.2800
" />
<path d="M154.3350 92.7400
L154.3350 82.8379
" />
<path d="M157.3021 80.7250
L159.4150 78.6121
" />
<path d="M151.7950 95.2800
L154.3350 92.7400
" />
<path d="M179.1000 84.5350
L179.1000 86.9500
" />
<path d="M179.1000 86.9500
L181.1450 88.9950
" />
<path d="M172.1150 84.5350
L179.1000 84.5350
" />
<path d="M181.1600 88.9800
L181.1450 88.9950
" />
<path d="M183.5450 88.9800
L181.1600 88.9800
" />
<path d="M151.1600 74.9600
L151.1600 71.7850
" />
<path d="M154.9200 74.9600
L156.8750 76.9150
" />
<path d="M151.1600 74.9600
L154.9200 74.9600
" />
<path d="M173.6150 71.6050
L173.6150 80.4950
" />
<path d="M173.6150 80.4950
L172.1150 81.9950
" />
<path d="M177.8300 67.3900
L173.6150 71.6050
" />
<path d="M172.1150 92.1550
L180.4850 92.1550
" />
<path d="M183.5450 91.5200
L181.1700 91.5200
" />
<path d="M180.4850 92.1550
L181.1450 91.4950
" />
<path d="M181.1700 91.5200
L181.1450 91.4950
" />
<path d="M177.8300 88.3450
L173.3850 88.3450
" />
<path d="M173.3850 88.3450
L172.1150 87.0750
" />
</g>
<g style="fill:none; 
stroke:#000000; stroke-width:1.0000; stroke-opacity:1; 
stroke-linecap:round; stroke-linejoin:round;">
<path d="M145.5500 93.5300
L144.6100 92.5900
" />
<path d="M144.6100 92.5900
L138.6450 92.5900
" />
<path d="M145.5500 103.6400
L145.5500 93.5300
" />
<path d="M138.4450 90.8500
L141.0000 88.2950
" />
<path d="M147.3500 105.4400
L145.5500 103.6400
" />
<path d="M141.0000 88.2950
L138.4100 88.2950
" />
<path d="M135.2850 85.1700
L135.2850 79.4600
" />
<path d="M138.4100 88.2950
L135.2850 85.1700
" />
<path d="M138.6450 92.5900
L138.4450 92.7900
" />
<path d="M138.4450 92.7900
L138.4450 90.8500
" />
<path d="M143.5400 80.6850
L143.5500 80.6850
" />
<path d="M143.5500 80.6850
L151.1600 88.2950
" />
<path d="M186.0450 86.3950
L186.0450 96.4950
" />
<path d="M186.0450 96.4950
L185.0950 97.4450
" />
<path d="M183.5450 86.4400
L186.0000 86.4400
" />
<path d="M186.0000 86.4400
L186.0450 86.3950
" />
<path d="M185.0950 97.8650
L179.1000 103.8600
" />
<path d="M185.0950 97.4450
L185.0950 97.8650
" />
<path d="M182.5500 82.9050
L183.5450 83.9000
" />
<path d="M179.1000 82.9050
L182.5500 82.9050
" />
</g>
<g style="fill:none; 
stroke:#000000; stroke-width:0.5000; stroke-opacity:1; 
stroke-linecap:round; stroke-linejoin:round;">
<path d="M177.8300 98.5050
L177.8300 103.8600
" />
<path d="M177.8300 77.5500
L177.8300 82.9050
" />
<path style="fill:#000000; fill-opacity:1.0000; stroke:none;fill-rule:evenodd;"
d="M 187.1375,58.9652
187.1833,59.0180
187.1945,59.0695
187.1945,106.7205
187.1748,106.7875
187.1220,106.8333
187.0705,106.8445
152.4184,106.8445
152.3514,106.8248
152.3056,106.7720
152.2957,106.7029
152.3247,106.6393
152.3660,106.6081
152.4475,106.5701
152.5205,106.5190
151.8414,105.8400
151.8477,105.8400
151.9494,105.8127
152.0406,105.7601
152.1151,105.6856
152.1677,105.5944
152.1950,105.4927
152.1950,105.4864
152.8740,106.1655
152.9251,106.0925
153.0213,105.8863
153.0213,105.8863
153.0801,105.6666
153.0801,105.6666
153.1000,105.4400
153.1000,105.4400
153.0801,105.2134
153.0801,105.2134
153.0213,104.9937
153.0213,104.9937
152.9251,104.7875
152.9251,104.7875
152.8740,104.7145
152.1950,105.3936
152.1950,105.3873
152.1677,105.2856
152.1151,105.1944
152.0406,105.1199
151.9494,105.0673
151.8477,105.0400
151.8414,105.0400
152.5205,104.3610
152.4475,104.3099
152.2413,104.2137
152.2413,104.2137
152.0216,104.1549
152.0216,104.1549
151.7950,104.1350
151.7950,104.1350
151.5684,104.1549
151.5684,104.1549
151.3487,104.2137
151.3487,104.2137
151.1425,104.3099
151.1425,104.3099
151.0695,104.3610
151.0695,104.3610
151.7486,105.0400
151.7423,105.0400
151.6406,105.0673
151.5494,105.1199
151.4749,105.1944
151.4223,105.2856
151.3950,105.3873
151.3950,105.3936
150.7160,104.7145
150.7160,104.7145
150.6649,104.7875
150.6649,104.7875
150.5687,104.9937
150.5687,104.9937
150.5099,105.2134
150.5099,105.2134
150.4900,105.4400
150.4900,105.4400
150.5099,105.6666
150.5099,105.6666
150.5687,105.8863
150.5687,105.8863
150.6649,106.0925
150.7160,106.1655
151.3950,105.4864
151.3950,105.4927
151.4223,105.5944
151.4749,105.6856
151.5494,105.7601
151.6406,105.8127
151.7423,105.8400
151.7486,105.8400
151.0695,106.5190
151.1425,106.5701
151.1425,106.5701
151.2240,106.6081
151.2764,106.6543
151.2956,106.7215
151.2753,106.7884
151.2222,106.8337
151.1716,106.8445
127.4195,106.8445
127.3525,106.8248
127.3067,106.7720
127.2955,106.7205
127.2955,104.2737
127.8945,104.2737
127.8945,104.5163
127.9225,104.7291
127.9262,104.7568
127.9344,104.7875
127.9889,104.9911
128.0423,105.1199
128.0818,105.2152
128.2031,105.4253
128.2031,105.4253
128.2031,105.4253
128.3507,105.6177
128.3507,105.6177
128.5223,105.7893
128.5223,105.7893
128.5685,105.8247
128.7147,105.9369
128.9248,106.0582
129.1489,106.1511
129.3832,106.2138
129.5636,106.2376
129.6237,106.2455
129.6237,106.2455
129.8663,106.2455
129.9144,106.2392
130.1068,106.2138
130.3411,106.1511
130.5652,106.0582
130.7753,105.9369
130.9677,105.7893
131.1393,105.6177
131.2869,105.4253
131.4082,105.2152
131.5011,104.9911
131.5638,104.7568
131.5955,104.5163
131.5955,104.2737
131.5638,104.0332
131.5011,103.7989
131.4082,103.5748
131.2869,103.3647
131.1393,103.1723
131.1393,103.1723
130.9677,103.0007
130.9677,103.0007
130.7753,102.8531
130.7753,102.8531
130.7753,102.8531
130.5652,102.7318
130.5652,102.7318
130.3411,102.6389
130.1068,102.5762
129.8663,102.5445
129.8663,102.5445
129.6237,102.5445
129.6237,102.5445
129.3832,102.5762
129.1489,102.6389
128.9248,102.7318
128.9248,102.7318
128.7147,102.8531
128.5223,103.0007
128.5223,103.0007
128.3507,103.1723
128.3507,103.1723
128.2031,103.3647
128.0818,103.5748
128.0818,103.5748
127.9889,103.7989
127.9262,104.0332
127.8945,104.2737
127.2955,104.2737
127.2955,98.8400
135.8659,98.8400
136.9120,98.8400
136.8791,98.8970
136.8450,99.0242
136.8450,99.1558
136.8791,99.2830
136.9120,99.3400
135.8659,99.3400
135.8819,99.4412
135.9549,99.6658
136.0621,99.8762
136.2009,100.0672
136.3678,100.2341
136.5588,100.3729
136.7692,100.4801
136.9938,100.5531
136.9938,100.5531
137.2269,100.5900
138.1950,100.5900
138.1950,99.5900
138.6950,99.5900
138.6950,100.5900
139.6631,100.5900
139.8962,100.5531
140.1208,100.4801
140.3312,100.3729
140.5222,100.2341
140.6891,100.0672
140.8279,99.8762
140.9351,99.6658
141.0081,99.4412
141.0241,99.3400
139.9780,99.3400
140.0109,99.2830
140.0450,99.1558
140.0450,99.0242
140.0109,98.8970
139.9780,98.8400
141.0241,98.8400
141.0081,98.7388
140.9351,98.5142
140.8279,98.3038
140.6891,98.1128
140.5222,97.9459
140.3312,97.8071
140.1208,97.6999
139.8962,97.6269
139.8962,97.6269
139.6631,97.5900
138.6950,97.5900
138.6950,98.5900
138.1950,98.5900
138.1950,97.5900
137.2269,97.5900
136.9938,97.6269
136.7692,97.6999
136.5588,97.8071
136.3678,97.9459
136.2009,98.1128
136.0621,98.3038
135.9549,98.5142
135.8819,98.7388
135.8659,98.8400
127.2955,98.8400
127.2955,76.6700
133.9544,76.6700
133.9544,76.6700
134.8520,76.6700
134.8191,76.7270
134.7850,76.8542
134.7850,76.9858
134.8191,77.1130
134.8520,77.1700
133.9544,77.1700
134.0116,77.3835
134.0116,77.3835
134.1114,77.5976
134.2469,77.7911
134.4139,77.9581
134.6074,78.0936
134.7779,78.1731
134.8304,78.2193
134.8495,78.2865
134.8293,78.3534
134.7762,78.3987
134.7255,78.4095
134.4152,78.4095
134.3568,78.4211
134.3568,78.4211
134.2904,78.4654
134.2461,78.5318
134.2461,78.5318
134.2345,78.5902
134.2345,80.3298
134.2461,80.3882
134.2461,80.3882
134.2904,80.4546
134.3568,80.4989
134.3568,80.4989
134.4152,80.5105
134.4152,80.5105
134.4153,80.5105
134.4605,80.5105
134.5275,80.5302
134.5733,80.5830
134.5845,80.6345
134.5845,85.1010
134.5845,85.2390
134.5845,85.2390
134.5845,85.2390
134.6114,85.3743
134.6114,85.3743
134.6642,85.5018
134.7409,85.6165
134.7409,85.6165
137.8659,88.7415
137.9354,88.8110
137.9635,88.8391
138.0782,88.9158
138.0782,88.9158
138.1422,88.9423
138.1422,88.9423
138.2057,88.9686
138.2153,88.9705
138.2631,88.9800
138.3410,88.9955
138.3410,88.9955
139.0095,88.9955
139.0765,89.0152
139.1223,89.0680
139.1322,89.1371
139.1032,89.2007
139.0972,89.2072
137.9009,90.4035
137.9009,90.4035
137.8285,90.5118
137.8285,90.5118
137.8242,90.5182
137.7714,90.6457
137.7714,90.6457
137.7445,90.7810
137.7445,91.4655
137.7248,91.5325
137.6720,91.5783
137.6205,91.5895
136.1252,91.5895
136.0668,91.6011
136.0668,91.6011
136.0004,91.6454
135.9561,91.7118
135.9561,91.7118
135.9445,91.7702
135.9445,93.8098
135.9561,93.8682
135.9561,93.8682
136.0004,93.9346
136.0668,93.9789
136.0668,93.9789
136.1252,93.9905
136.1252,93.9905
136.1253,93.9905
140.7647,93.9905
140.7648,93.9905
140.7796,93.9876
140.8232,93.9789
140.8232,93.9789
140.8232,93.9789
140.8896,93.9346
140.9339,93.8682
140.9339,93.8682
140.9339,93.8682
140.9426,93.8246
140.9455,93.8097
140.9455,93.4145
140.9652,93.3475
141.0180,93.3017
141.0695,93.2905
142.6346,93.2905
142.7016,93.3102
142.7474,93.3630
142.7573,93.4321
142.7283,93.4957
142.6909,93.5250
142.6158,93.5632
142.5286,93.6266
142.4629,93.6743
142.4629,93.6743
142.4629,93.6743
142.3293,93.8079
142.3293,93.8079
142.3293,93.8079
142.2816,93.8736
142.2182,93.9608
142.1325,94.1292
142.0741,94.3089
142.0445,94.4955
142.0445,96.8845
142.0741,97.0711
142.1325,97.2508
142.2182,97.4192
142.3293,97.5721
142.4629,97.7057
142.6158,97.8168
142.6953,97.8573
142.7842,97.9025
142.7842,97.9025
142.7842,97.9025
142.8805,97.9338
142.9639,97.9609
143.1505,97.9905
143.1505,97.9905
143.3395,97.9905
143.5261,97.9609
143.7058,97.9025
143.8742,97.8168
144.0271,97.7057
144.1607,97.5721
144.2718,97.4192
144.3575,97.2508
144.4159,97.0711
144.4274,96.9985
144.4455,96.8845
144.4455,94.4955
144.4159,94.3089
144.3789,94.1950
144.3575,94.1292
144.3575,94.1292
144.3575,94.1292
144.2836,93.9841
144.2718,93.9608
144.1607,93.8079
144.0271,93.6743
143.8742,93.5632
143.7991,93.5250
143.7483,93.4770
143.7315,93.4092
143.7541,93.3431
143.8088,93.2996
143.8554,93.2905
144.2685,93.2905
144.3355,93.3102
144.3562,93.3268
144.8132,93.7838
144.8467,93.8452
144.8495,93.8715
144.8495,103.5710
144.8495,103.7090
144.8495,103.7090
144.8495,103.7090
144.8764,103.8443
144.8764,103.8443
144.9292,103.9718
145.0059,104.0865
145.0059,104.0865
146.3117,105.3923
146.3452,105.4537
146.3474,105.4679
146.3640,105.6361
146.3665,105.6446
146.4169,105.8105
146.4212,105.8247
146.5141,105.9985
146.5141,105.9985
146.6391,106.1509
146.7915,106.2759
146.7915,106.2759
146.9653,106.3688
146.9653,106.3688
146.9653,106.3688
147.1539,106.4260
147.3500,106.4453
147.5461,106.4260
147.7347,106.3688
147.9085,106.2759
148.0609,106.1509
148.1859,105.9985
148.2582,105.8632
148.2788,105.8247
148.2788,105.8247
148.2788,105.8247
148.3360,105.6361
148.3553,105.4400
148.3360,105.2439
148.2788,105.0553
148.2788,105.0553
148.2788,105.0553
148.1859,104.8815
148.1859,104.8815
148.0609,104.7291
147.9085,104.6041
147.9085,104.6041
147.7347,104.5112
147.7347,104.5112
147.5461,104.4540
147.5461,104.4540
147.3779,104.4374
147.3131,104.4112
147.3023,104.4017
146.2868,103.3862
146.2533,103.3248
146.2505,103.2985
146.2505,102.3150
155.8697,102.3150
155.8890,102.5111
155.8890,102.5111
155.9277,102.6389
155.9462,102.6997
156.0391,102.8735
156.0391,102.8735
156.1641,103.0259
156.3165,103.1509
156.3165,103.1509
156.4903,103.2438
156.4903,103.2438
156.4903,103.2438
156.6789,103.3010
156.8750,103.3203
157.0711,103.3010
157.2597,103.2438
157.4335,103.1509
157.5859,103.0259
157.7109,102.8735
157.7867,102.7318
157.8038,102.6997
157.8038,102.6997
157.8038,102.6997
157.8610,102.5111
157.8803,102.3150
157.8610,102.1189
157.8038,101.9303
157.8038,101.9303
157.8038,101.9303
157.7109,101.7565
157.7109,101.7565
157.5859,101.6041
157.4335,101.4791
157.4335,101.4791
157.2597,101.3862
157.2597,101.3862
157.0711,101.3290
157.0711,101.3290
156.8750,101.3097
156.6789,101.3290
156.4903,101.3862
156.3165,101.4791
156.3165,101.4791
156.1641,101.6041
156.0391,101.7565
156.0391,101.7565
155.9462,101.9303
155.8890,102.1189
155.8697,102.3150
146.2505,102.3150
146.2505,99.5250
155.5961,99.5250
155.5961,99.5250
156.4420,99.5250
156.4091,99.5820
156.3750,99.7092
156.3750,99.8408
156.4091,99.9680
156.4420,100.0250
155.5961,100.0250
155.6487,100.2213
155.6487,100.2213
155.7449,100.4275
155.8753,100.6138
156.0362,100.7747
156.2225,100.9051
156.4287,101.0013
156.4287,101.0013
156.6250,101.0539
156.6250,101.0539
156.6250,100.2080
156.6820,100.2409
156.8092,100.2750
156.9408,100.2750
157.0680,100.2409
157.1250,100.2080
157.1250,101.0539
157.3213,101.0013
157.3213,101.0013
157.5275,100.9051
157.7138,100.7747
157.8747,100.6138
158.0051,100.4275
158.1013,100.2213
158.1013,100.2213
158.1539,100.0250
157.3080,100.0250
157.3409,99.9680
157.3750,99.8408
157.3750,99.7092
157.3409,99.5820
157.3080,99.5250
158.1539,99.5250
158.1539,99.5250
158.1013,99.3287
158.1013,99.3287
158.0051,99.1225
157.8747,98.9362
157.7138,98.7753
157.5275,98.6449
157.3213,98.5487
157.1250,98.4961
157.1250,99.3420
157.0680,99.3091
156.9408,99.2750
156.8092,99.2750
156.6820,99.3091
156.6250,99.3420
156.6250,98.4961
156.4287,98.5487
156.2225,98.6449
156.0362,98.7753
155.8753,98.9362
155.7449,99.1225
155.6487,99.3287
155.6487,99.3287
155.5961,99.5250
146.2505,99.5250
146.2505,97.2350
155.8697,97.2350
155.8890,97.4311
155.9462,97.6197
156.0391,97.7935
156.0391,97.7935
156.1641,97.9459
156.3165,98.0709
156.3165,98.0709
156.4903,98.1638
156.4903,98.1638
156.4903,98.1638
156.6789,98.2210
156.8750,98.2403
157.0711,98.2210
157.2597,98.1638
157.4335,98.0709
157.5859,97.9459
157.7109,97.7935
157.8038,97.6197
157.8610,97.4311
157.8803,97.2350
157.8610,97.0389
157.8038,96.8503
157.8038,96.8503
157.8038,96.8503
157.7109,96.6765
157.7109,96.6765
157.5859,96.5241
157.4335,96.3991
157.4335,96.3991
157.2597,96.3062
157.2597,96.3062
157.0711,96.2490
157.0711,96.2490
156.8750,96.2297
156.6789,96.2490
156.4903,96.3062
156.3165,96.3991
156.3165,96.3991
156.1641,96.5241
156.0391,96.6765
156.0391,96.6765
155.9462,96.8503
155.8890,97.0389
155.8697,97.2350
146.2505,97.2350
146.2505,95.8404
146.2702,95.7734
146.3230,95.7276
146.3921,95.7177
146.4557,95.7467
146.4839,95.7820
146.5141,95.8385
146.5141,95.8385
146.6391,95.9909
146.7915,96.1159
146.7915,96.1159
146.9653,96.2088
146.9653,96.2088
146.9653,96.2088
147.1539,96.2660
147.3500,96.2853
147.5461,96.2660
147.7347,96.2088
147.7422,96.2048
147.8216,96.1624
147.9085,96.1159
148.0609,95.9909
148.1859,95.8385
148.1991,95.8140
148.2353,95.7460
148.2843,95.6962
148.3447,95.6805
150.8003,95.6805
150.8673,95.7002
150.9097,95.7460
150.9591,95.8385
150.9591,95.8385
151.0841,95.9909
151.2365,96.1159
151.2365,96.1159
151.4103,96.2088
151.4103,96.2088
151.4103,96.2088
151.5989,96.2660
151.7950,96.2853
151.9911,96.2660
152.1797,96.2088
152.1872,96.2048
152.2666,96.1624
152.3535,96.1159
152.5059,95.9909
152.6309,95.8385
152.7048,95.7003
152.7238,95.6647
152.7238,95.6647
152.7238,95.6647
152.7810,95.4761
152.8003,95.2800
152.7810,95.0839
152.7506,94.9835
152.7500,94.9136
152.7816,94.8598
154.6555,92.9859
154.6925,92.9218
154.7082,92.8946
154.7355,92.7927
154.7355,92.1550
155.8697,92.1550
155.8890,92.3511
155.8890,92.3511
155.9437,92.5314
155.9462,92.5397
156.0391,92.7135
156.0391,92.7135
156.1641,92.8659
156.3165,92.9909
156.3165,92.9909
156.4903,93.0838
156.4903,93.0838
156.4903,93.0838
156.6789,93.1410
156.8750,93.1603
157.0711,93.1410
157.2597,93.0838
157.4335,92.9909
157.5859,92.8659
157.7109,92.7135
157.7660,92.6104
157.8038,92.5397
157.8038,92.5397
157.8038,92.5397
157.8610,92.3511
157.8803,92.1550
157.8610,91.9589
157.8038,91.7703
157.8038,91.7703
157.8038,91.7703
157.7109,91.5965
157.7109,91.5965
157.5859,91.4441
157.4335,91.3191
157.4335,91.3191
157.2597,91.2262
157.2597,91.2262
157.0711,91.1690
157.0711,91.1690
156.8750,91.1497
156.6789,91.1690
156.4903,91.2262
156.3165,91.3191
156.3165,91.3191
156.1641,91.4441
156.0391,91.5965
156.0391,91.5965
155.9462,91.7703
155.8890,91.9589
155.8697,92.1550
154.7355,92.1550
154.7355,89.6150
155.8697,89.6150
155.8890,89.8111
155.9462,89.9997
156.0391,90.1735
156.0391,90.1735
156.1641,90.3259
156.3165,90.4509
156.3165,90.4509
156.4903,90.5438
156.4903,90.5438
156.4903,90.5438
156.6789,90.6010
156.8750,90.6203
157.0711,90.6010
157.2597,90.5438
157.4335,90.4509
157.5859,90.3259
157.7109,90.1735
157.8038,89.9997
157.8610,89.8111
157.8803,89.6150
157.8610,89.4189
157.8038,89.2303
157.8038,89.2303
157.8038,89.2303
157.7109,89.0565
157.7109,89.0565
157.5859,88.9041
157.4335,88.7791
157.4335,88.7791
157.2597,88.6862
157.2597,88.6862
157.0711,88.6290
157.0711,88.6290
156.8750,88.6097
156.6789,88.6290
156.4903,88.6862
156.3165,88.7791
156.3165,88.7791
156.1641,88.9041
156.0391,89.0565
156.0391,89.0565
155.9462,89.2303
155.8890,89.4189
155.8697,89.6150
154.7355,89.6150
154.7355,87.0750
155.8697,87.0750
155.8890,87.2711
155.8890,87.2711
155.8890,87.2711
155.9450,87.4559
155.9462,87.4597
156.0391,87.6335
156.0391,87.6335
156.1641,87.7859
156.3165,87.9109
156.3165,87.9109
156.4903,88.0038
156.4903,88.0038
156.4903,88.0038
156.6789,88.0610
156.8750,88.0803
157.0711,88.0610
157.2597,88.0038
157.4335,87.9109
157.5859,87.7859
157.7109,87.6335
157.7846,87.4956
157.8038,87.4597
157.8038,87.4597
157.8038,87.4597
157.8610,87.2711
157.8803,87.0750
157.8610,86.8789
157.8038,86.6903
157.8038,86.6903
157.8038,86.6903
157.7109,86.5165
157.7109,86.5165
157.5859,86.3641
157.4335,86.2391
157.4335,86.2391
157.2597,86.1462
157.2597,86.1462
157.0711,86.0890
157.0711,86.0890
156.8750,86.0697
156.6789,86.0890
156.4903,86.1462
156.3165,86.2391
156.3165,86.2391
156.1641,86.3641
156.0391,86.5165
156.0391,86.5165
155.9462,86.6903
155.8890,86.8789
155.8697,87.0750
154.7355,87.0750
154.7355,84.5350
155.8697,84.5350
155.8890,84.7311
155.9462,84.9197
156.0391,85.0935
156.0391,85.0935
156.1641,85.2459
156.3165,85.3709
156.3165,85.3709
156.4903,85.4638
156.4903,85.4638
156.4903,85.4638
156.6789,85.5210
156.8750,85.5403
157.0711,85.5210
157.2597,85.4638
157.4335,85.3709
157.5859,85.2459
157.7109,85.0935
157.7870,84.9512
157.8038,84.9197
157.8038,84.9197
157.8038,84.9197
157.8610,84.7311
157.8803,84.5350
157.8610,84.3389
157.8038,84.1503
157.8038,84.1503
157.8038,84.1503
157.7109,83.9765
157.7109,83.9765
157.5859,83.8241
157.4335,83.6991
157.4335,83.6991
157.2597,83.6062
157.2597,83.6062
157.0711,83.5490
157.0711,83.5490
156.8750,83.5297
156.6789,83.5490
156.4903,83.6062
156.3165,83.6991
156.3165,83.6991
156.1641,83.8241
156.0391,83.9765
156.0391,83.9765
155.9462,84.1503
155.8890,84.3389
155.8697,84.5350
154.7355,84.5350
154.7355,83.0552
154.7552,82.9882
154.7718,82.9675
155.6730,82.0663
155.7344,82.0328
155.8040,82.0378
155.8600,82.0797
155.8841,82.1418
155.8890,82.1911
155.9462,82.3797
156.0391,82.5535
156.0391,82.5535
156.1641,82.7059
156.3165,82.8309
156.3165,82.8309
156.4903,82.9238
156.4903,82.9238
156.4903,82.9238
156.6789,82.9810
156.8750,83.0003
157.0711,82.9810
157.2597,82.9238
157.2941,82.9054
157.3770,82.8611
157.4335,82.8309
157.5859,82.7059
157.7109,82.5535
157.8038,82.3797
157.8610,82.1911
157.8803,81.9950
157.8610,81.7989
157.8038,81.6103
157.8038,81.6103
157.8038,81.6103
157.7109,81.4365
157.7109,81.4365
157.5859,81.2841
157.5380,81.2448
157.4987,81.1871
157.4968,81.1173
157.5330,81.0575
157.5419,81.0510
157.5415,81.0504
157.5480,81.0455
157.5480,81.0455
159.6507,78.9427
159.6507,78.9427
159.6609,78.9325
159.6609,78.9325
159.7355,78.8580
159.7882,78.7666
159.7942,78.7441
159.8155,78.6648
159.8155,78.5593
159.8155,78.5517
159.8155,78.5517
159.8155,76.8623
159.8155,76.8623
159.7882,76.7604
159.7355,76.6691
159.6609,76.5945
157.8616,74.7952
157.8281,74.7338
157.8306,74.6715
157.8610,74.5711
157.8803,74.3750
157.8610,74.1789
157.8038,73.9903
157.8038,73.9903
157.8038,73.9903
157.7109,73.8165
157.7109,73.8165
157.5859,73.6641
157.4335,73.5391
157.4335,73.5391
157.2597,73.4462
157.2597,73.4462
157.0711,73.3890
157.0711,73.3890
156.8750,73.3697
156.6789,73.3890
156.4903,73.4462
156.3165,73.5391
156.3165,73.5391
156.1641,73.6641
156.0391,73.8165
156.0391,73.8165
155.9462,73.9903
155.8890,74.1789
155.8697,74.3750
155.8890,74.5711
155.9462,74.7597
156.0391,74.9335
156.0391,74.9335
156.1641,75.0859
156.3165,75.2109
156.3165,75.2109
156.4903,75.3038
156.4903,75.3038
156.4903,75.3038
156.6789,75.3610
156.8750,75.3803
157.0711,75.3610
157.1715,75.3306
157.2414,75.3300
157.2952,75.3616
158.9782,77.0446
159.0117,77.1059
159.0145,77.1323
159.0145,78.3948
158.9948,78.4618
158.9782,78.4825
158.0770,79.3837
158.0156,79.4172
157.9459,79.4122
157.8900,79.3703
157.8659,79.3082
157.8610,79.2589
157.8038,79.0703
157.8038,79.0703
157.8038,79.0703
157.7109,78.8965
157.7109,78.8965
157.5859,78.7441
157.4335,78.6191
157.4335,78.6191
157.2597,78.5262
157.2597,78.5262
157.0711,78.4690
157.0711,78.4690
156.8750,78.4497
156.6789,78.4690
156.4903,78.5262
156.3165,78.6191
156.3165,78.6191
156.1641,78.7441
156.0391,78.8965
156.0391,78.8965
155.9462,79.0703
155.8890,79.2589
155.8697,79.4550
155.8890,79.6511
155.8890,79.6511
155.9229,79.7629
155.9462,79.8397
156.0391,80.0135
156.0391,80.0135
156.1641,80.1659
156.2120,80.2052
156.2513,80.2629
156.2532,80.3328
156.2170,80.3925
156.2081,80.3991
156.2085,80.3996
156.2020,80.4045
154.0145,82.5920
154.0145,82.5920
153.9618,82.6834
153.9499,82.7277
153.9499,82.7277
153.9345,82.7852
153.9345,92.5227
153.9148,92.5898
153.8982,92.6104
152.2152,94.2934
152.1538,94.3269
152.0915,94.3244
151.9911,94.2940
151.7950,94.2747
151.5989,94.2940
151.4103,94.3512
151.2365,94.4441
151.2365,94.4441
151.0841,94.5691
150.9591,94.7215
150.9591,94.7215
150.9097,94.8140
150.8607,94.8638
150.8003,94.8795
148.3447,94.8795
148.2777,94.8598
148.2353,94.8140
148.1859,94.7215
148.1859,94.7215
148.0609,94.5691
147.9085,94.4441
147.9085,94.4441
147.7347,94.3512
147.7347,94.3512
147.5953,94.3089
147.5461,94.2940
147.3500,94.2747
147.1539,94.2940
146.9653,94.3512
146.7915,94.4441
146.7915,94.4441
146.6391,94.5691
146.5141,94.7215
146.5141,94.7215
146.4839,94.7780
146.4349,94.8279
146.3668,94.8433
146.3011,94.8195
146.2587,94.7639
146.2505,94.7196
146.2505,93.4610
146.2422,93.4191
146.2330,93.3730
146.2236,93.3257
146.1708,93.1982
146.0941,93.0835
146.0941,93.0835
145.0565,92.0459
144.9418,91.9692
144.8143,91.9164
144.8143,91.9164
144.6790,91.8895
144.6790,91.8895
144.6790,91.8895
141.0695,91.8895
141.0025,91.8698
140.9567,91.8170
140.9478,91.7761
140.9461,91.7763
140.9455,91.7703
140.9455,91.7703
140.9418,91.7517
140.9339,91.7118
140.9339,91.7118
140.8896,91.6454
140.8232,91.6011
140.8232,91.6011
140.7648,91.5895
140.7647,91.5895
139.2695,91.5895
139.2025,91.5698
139.1567,91.5170
139.1455,91.4655
139.1455,91.1915
139.1652,91.1245
139.1818,91.1038
140.6538,89.6318
140.7152,89.5983
140.7415,89.5955
142.1197,89.5955
142.1198,89.5955
142.1346,89.5926
142.1782,89.5839
142.1782,89.5839
142.1782,89.5839
142.2446,89.5396
142.2889,89.4732
142.2889,89.4732
142.2889,89.4732
142.3005,89.4148
142.3005,89.4147
142.3005,87.1752
142.3005,87.1752
142.2889,87.1168
142.2889,87.1168
142.2446,87.0504
142.1782,87.0061
142.1782,87.0061
142.1198,86.9945
142.1197,86.9945
139.8803,86.9945
139.8802,86.9945
139.8218,87.0061
139.8218,87.0061
139.7554,87.0504
139.7111,87.1168
139.7111,87.1168
139.6995,87.1752
139.6995,87.4705
139.6798,87.5375
139.6270,87.5833
139.5755,87.5945
138.7515,87.5945
138.6845,87.5748
138.6638,87.5582
136.0218,84.9162
135.9883,84.8548
135.9855,84.8285
135.9855,80.6345
136.0052,80.5675
136.0580,80.5217
136.1095,80.5105
136.1548,80.5105
136.1548,80.5105
136.1696,80.5076
136.2132,80.4989
136.2132,80.4989
136.2132,80.4989
136.2796,80.4546
136.3239,80.3882
136.3239,80.3882
136.3239,80.3882
136.3355,80.3298
136.3355,80.3297
136.3355,78.5902
136.3355,78.5902
136.3239,78.5318
136.3239,78.5318
136.2796,78.4654
136.2132,78.4211
136.2132,78.4211
136.1548,78.4095
136.1547,78.4095
135.8445,78.4095
135.7774,78.3898
135.7317,78.3370
135.7217,78.2679
135.7507,78.2043
135.7921,78.1731
135.9626,78.0936
136.1561,77.9581
136.1792,77.9350
142.0628,77.9350
143.1070,77.9350
143.0741,77.9920
143.0400,78.1192
143.0400,78.2508
143.0741,78.3780
143.1070,78.4350
142.0628,78.4350
142.0732,78.5011
142.0732,78.5011
142.1389,78.7032
142.2354,78.8926
142.3603,79.0645
142.3603,79.0645
142.5105,79.2147
142.5105,79.2147
142.6824,79.3396
142.8010,79.4000
142.8518,79.4480
142.8686,79.5158
142.8460,79.5819
142.7913,79.6254
142.7447,79.6345
142.7357,79.6345
142.7053,79.6374
142.7053,79.6374
142.5771,79.6822
142.5771,79.6822
142.4678,79.7629
142.3872,79.8721
142.3872,79.8721
142.3424,80.0003
142.3424,80.0003
142.3395,80.0307
142.3395,81.3393
142.3424,81.3697
142.3424,81.3697
142.3843,81.4896
142.3872,81.4979
142.4678,81.6071
142.5771,81.6878
142.6077,81.6985
142.7053,81.7326
142.7357,81.7355
142.7357,81.7355
143.5585,81.7355
143.6255,81.7552
143.6462,81.7718
149.8390,87.9646
149.8725,88.0260
149.8748,88.0631
149.8545,88.2950
149.8545,88.2950
149.8744,88.5217
149.8744,88.5217
149.9333,88.7415
149.9333,88.7415
150.0294,88.9477
150.0294,88.9477
150.1600,89.1341
150.3209,89.2950
150.3209,89.2950
150.5073,89.4256
150.7135,89.5217
150.9333,89.5806
151.0952,89.5948
151.1600,89.6005
151.1600,89.6005
151.1600,89.6005
151.2168,89.5955
151.3867,89.5806
151.6065,89.5217
151.8127,89.4256
151.9991,89.2950
152.1600,89.1341
152.2906,88.9477
152.3867,88.7415
152.4456,88.5217
152.4655,88.2950
152.4456,88.0683
152.3867,87.8485
152.2906,87.6423
152.1600,87.4559
152.1600,87.4559
151.9991,87.2950
151.8127,87.1644
151.8127,87.1644
151.6065,87.0683
151.6065,87.0683
151.3867,87.0094
151.3867,87.0094
151.3867,87.0094
151.3867,87.0094
151.3867,87.0094
151.1600,86.9895
151.1600,86.9895
150.9281,87.0098
150.8596,86.9961
150.8296,86.9740
144.7768,80.9212
144.7433,80.8598
144.7405,80.8335
144.7405,80.0307
144.7376,80.0003
144.7376,80.0003
144.6928,79.8721
144.6928,79.8721
144.6121,79.7629
144.5029,79.6822
144.5029,79.6822
144.3747,79.6374
144.3443,79.6345
144.3443,79.6345
144.3353,79.6345
144.2683,79.6148
144.2225,79.5620
144.2126,79.4929
144.2416,79.4293
144.2790,79.4000
144.3976,79.3396
144.5695,79.2147
144.5695,79.2147
144.7197,79.0645
144.7197,79.0645
144.8446,78.8926
144.9411,78.7032
145.0068,78.5011
145.0068,78.5011
145.0172,78.4350
143.9730,78.4350
144.0059,78.3780
144.0400,78.2508
144.0400,78.1192
144.0059,77.9920
143.9730,77.9350
145.0172,77.9350
145.0068,77.8689
145.0068,77.8689
144.9411,77.6668
144.8446,77.4774
144.7197,77.3055
144.7197,77.3055
144.5695,77.1553
144.5695,77.1553
144.3976,77.0304
144.2082,76.9339
144.0061,76.8682
143.7962,76.8350
143.7900,76.8350
143.7900,77.7520
143.7330,77.7191
143.6058,77.6850
143.4742,77.6850
143.3470,77.7191
143.2900,77.7520
143.2900,76.8350
143.2838,76.8350
143.0739,76.8682
143.0739,76.8682
142.8718,76.9339
142.6824,77.0304
142.5105,77.1553
142.5105,77.1553
142.3603,77.3055
142.3603,77.3055
142.2354,77.4774
142.1389,77.6668
142.0732,77.8689
142.0732,77.8689
142.0628,77.9350
136.1792,77.9350
136.3231,77.7911
136.4586,77.5976
136.5584,77.3835
136.5584,77.3835
136.6156,77.1700
135.7180,77.1700
135.7509,77.1130
135.7850,76.9858
135.7850,76.8542
135.7509,76.7270
135.7180,76.6700
136.6156,76.6700
136.6156,76.6700
136.5584,76.4565
136.5584,76.4565
136.4586,76.2424
136.4586,76.2424
136.3231,76.0489
136.3231,76.0489
136.1561,75.8819
135.9626,75.7464
135.7485,75.6466
135.7485,75.6466
135.5350,75.5894
135.5350,76.4870
135.4780,76.4541
135.3508,76.4200
135.2192,76.4200
135.0920,76.4541
135.0350,76.4870
135.0350,75.5894
135.0350,75.5894
134.8215,75.6466
134.8215,75.6466
134.6074,75.7464
134.6074,75.7464
134.4139,75.8819
134.4139,75.8819
134.2469,76.0489
134.2469,76.0489
134.1114,76.2424
134.1114,76.2424
134.0116,76.4565
134.0116,76.4565
133.9544,76.6700
127.2955,76.6700
127.2955,64.6050
133.9544,64.6050
133.9544,64.6050
134.8520,64.6050
134.8191,64.6620
134.7850,64.7892
134.7850,64.9208
134.8191,65.0480
134.8520,65.1050
133.9544,65.1050
134.0116,65.3185
134.0116,65.3185
134.1114,65.5326
134.2469,65.7261
134.4139,65.8931
134.6074,66.0286
134.7779,66.1081
134.8304,66.1543
134.8495,66.2215
134.8293,66.2884
134.7762,66.3337
134.7255,66.3445
134.4152,66.3445
134.3568,66.3561
134.3568,66.3561
134.2904,66.4004
134.2461,66.4668
134.2461,66.4668
134.2345,66.5252
134.2345,68.2648
134.2461,68.3232
134.2461,68.3232
134.2904,68.3896
134.3568,68.4339
134.3568,68.4339
134.4152,68.4455
134.4152,68.4455
134.4153,68.4455
135.7177,68.4455
135.7848,68.4652
135.8054,68.4818
136.2141,68.8905
136.3054,68.9432
136.4073,68.9705
142.3255,68.9705
142.3925,68.9902
142.4383,69.0430
142.4495,69.0945
142.4495,69.2243
142.4524,69.2547
142.4524,69.2547
142.4972,69.3829
142.4972,69.3829
142.5778,69.4921
142.6871,69.5728
142.7298,69.5877
142.8153,69.6176
142.8457,69.6205
142.8457,69.6205
144.0827,69.6205
144.1498,69.6402
144.1704,69.6568
144.8032,70.2896
144.8367,70.3509
144.8395,70.3773
144.8395,75.4927
144.8668,75.5946
144.8932,75.6402
144.9195,75.6859
144.9195,75.6859
150.7232,81.4896
150.7567,81.5509
150.7595,81.5773
150.7595,84.1253
150.7398,84.1923
150.6940,84.2347
150.6015,84.2841
150.4491,84.4091
150.3241,84.5615
150.3241,84.5615
150.2312,84.7353
150.1740,84.9239
150.1547,85.1200
150.1740,85.3161
150.1740,85.3161
150.2303,85.5018
150.2312,85.5047
150.3241,85.6785
150.3241,85.6785
150.4491,85.8309
150.6015,85.9559
150.6015,85.9559
150.7753,86.0488
150.7753,86.0488
150.7753,86.0488
150.9639,86.1060
151.1600,86.1253
151.3561,86.1060
151.5447,86.0488
151.5686,86.0360
151.7185,85.9559
151.7185,85.9559
151.8709,85.8309
151.9959,85.6785
152.0424,85.5916
152.0888,85.5047
152.0888,85.5047
152.0888,85.5047
152.1460,85.3161
152.1653,85.1200
152.1460,84.9239
152.0888,84.7353
152.0888,84.7353
152.0888,84.7353
151.9959,84.5615
151.9959,84.5615
151.8709,84.4091
151.7185,84.2841
151.6260,84.2347
151.5762,84.1857
151.5605,84.1253
151.5605,81.3073
151.5605,81.3073
151.5332,81.2054
151.5332,81.2054
151.4805,81.1141
145.6768,75.3104
145.6433,75.2491
145.6405,75.2227
145.6405,71.7850
150.1547,71.7850
150.1740,71.9811
150.2312,72.1697
150.3241,72.3435
150.3241,72.3435
150.4491,72.4959
150.6015,72.6209
150.6015,72.6209
150.6331,72.6378
150.6940,72.6703
150.7438,72.7193
150.7595,72.7797
150.7595,73.9653
150.7398,74.0323
150.6940,74.0746
150.6015,74.1241
150.4491,74.2491
150.3241,74.4015
150.3241,74.4015
150.2312,74.5753
150.1740,74.7639
150.1547,74.9600
150.1740,75.1561
150.2312,75.3447
150.3241,75.5185
150.3241,75.5185
150.4491,75.6709
150.6015,75.7959
150.6015,75.7959
150.7753,75.8888
150.7753,75.8888
150.7753,75.8888
150.9639,75.9460
151.1600,75.9653
151.3561,75.9460
151.5447,75.8888
151.5577,75.8819
151.7185,75.7959
151.7185,75.7959
151.8709,75.6709
151.9959,75.5185
152.0097,75.4927
152.0453,75.4260
152.0943,75.3762
152.1547,75.3605
154.7027,75.3605
154.7698,75.3802
154.7904,75.3968
155.3396,75.9460
155.8884,76.4948
155.9219,76.5562
155.9194,76.6185
155.8890,76.7189
155.8697,76.9150
155.8890,77.1111
155.9462,77.2997
156.0391,77.4735
156.0391,77.4735
156.1641,77.6259
156.3165,77.7509
156.3165,77.7509
156.4903,77.8438
156.4903,77.8438
156.4903,77.8438
156.6789,77.9010
156.8750,77.9203
157.0711,77.9010
157.2597,77.8438
157.4335,77.7509
157.5859,77.6259
157.7109,77.4735
157.8038,77.2997
157.8610,77.1111
157.8803,76.9150
157.8610,76.7189
157.8038,76.5303
157.8038,76.5303
157.8038,76.5303
157.7109,76.3565
157.7109,76.3565
157.5859,76.2041
157.4335,76.0791
157.4335,76.0791
157.2597,75.9862
157.2597,75.9862
157.0711,75.9290
157.0711,75.9290
156.8750,75.9097
156.6789,75.9290
156.5785,75.9594
156.5086,75.9600
156.4548,75.9284
155.8354,75.3090
155.1659,74.6395
155.1202,74.6132
155.0746,74.5868
155.0161,74.5711
154.9727,74.5595
154.9727,74.5595
152.1547,74.5595
152.0877,74.5398
152.0453,74.4940
151.9959,74.4015
151.9959,74.4015
151.8709,74.2491
151.7185,74.1241
151.6260,74.0746
151.5762,74.0257
151.5605,73.9653
151.5605,72.7797
151.5802,72.7127
151.6260,72.6703
151.7185,72.6209
151.8709,72.4959
151.9959,72.3435
152.0621,72.2197
152.0888,72.1697
152.0888,72.1697
152.0888,72.1697
152.1460,71.9811
152.1604,71.8350
155.8697,71.8350
155.8890,72.0311
155.8890,72.0311
155.9310,72.1697
155.9462,72.2197
156.0391,72.3935
156.0391,72.3935
156.1641,72.5459
156.3165,72.6709
156.3165,72.6709
156.4903,72.7638
156.4903,72.7638
156.4903,72.7638
156.6789,72.8210
156.8750,72.8403
157.0711,72.8210
157.2597,72.7638
157.4335,72.6709
157.5859,72.5459
157.7109,72.3935
157.8038,72.2197
157.8610,72.0311
157.8803,71.8350
157.8610,71.6389
157.8038,71.4503
157.8038,71.4503
157.8038,71.4503
157.7109,71.2765
157.7109,71.2765
157.5859,71.1241
157.4335,70.9991
157.4335,70.9991
157.2597,70.9062
157.2597,70.9062
157.0711,70.8490
157.0711,70.8490
156.8750,70.8297
156.6789,70.8490
156.4903,70.9062
156.3165,70.9991
156.3165,70.9991
156.1641,71.1241
156.0391,71.2765
156.0391,71.2765
155.9462,71.4503
155.8890,71.6389
155.8697,71.8350
152.1604,71.8350
152.1653,71.7850
152.1460,71.5889
152.0888,71.4003
152.0888,71.4003
152.0888,71.4003
151.9959,71.2265
151.9959,71.2265
151.8709,71.0741
151.7185,70.9491
151.7185,70.9491
151.5447,70.8562
151.5447,70.8562
151.3561,70.7990
151.3561,70.7990
151.1600,70.7797
150.9639,70.7990
150.7753,70.8562
150.6015,70.9491
150.6015,70.9491
150.4491,71.0741
150.3241,71.2265
150.3241,71.2265
150.2312,71.4003
150.1740,71.5889
150.1547,71.7850
145.6405,71.7850
145.6405,70.2227
145.6405,70.2227
145.6405,70.1073
145.6132,70.0054
145.6132,70.0054
145.5870,69.9601
145.5605,69.9141
145.5605,69.9141
145.5605,69.9141
145.4859,69.8395
145.4859,69.8395
145.4816,69.8352
145.4816,69.8352
144.9414,69.2950
155.8697,69.2950
155.8890,69.4911
155.9462,69.6797
156.0391,69.8535
156.0391,69.8535
156.1641,70.0059
156.3165,70.1309
156.3165,70.1309
156.4903,70.2238
156.4903,70.2238
156.4903,70.2238
156.6789,70.2810
156.8750,70.3003
157.0711,70.2810
157.2597,70.2238
157.2618,70.2227
157.4335,70.1309
157.4335,70.1309
157.5859,70.0059
157.7109,69.8535
157.8038,69.6797
157.8610,69.4911
157.8803,69.2950
157.8610,69.0989
157.8038,68.9103
157.8038,68.9103
157.8038,68.9103
157.7109,68.7365
157.7109,68.7365
157.5859,68.5841
157.4335,68.4591
157.4335,68.4591
157.2597,68.3662
157.2597,68.3662
157.1036,68.3188
157.0711,68.3090
156.8750,68.2897
156.6789,68.3090
156.4903,68.3662
156.3165,68.4591
156.3165,68.4591
156.1641,68.5841
156.0391,68.7365
156.0391,68.7365
155.9462,68.9103
155.8890,69.0989
155.8697,69.2950
144.9414,69.2950
144.8868,69.2404
144.8533,69.1791
144.8505,69.1527
144.8505,67.9873
144.8702,67.9202
144.8868,67.8996
147.0946,65.6918
147.1559,65.6583
147.1823,65.6555
156.3146,65.6555
156.3816,65.6752
156.4274,65.7280
156.4373,65.7971
156.4083,65.8607
156.3730,65.8889
156.3165,65.9191
156.3165,65.9191
156.1641,66.0441
156.0391,66.1965
156.0391,66.1965
155.9462,66.3703
155.8890,66.5589
155.8697,66.7550
155.8890,66.9511
155.9462,67.1397
156.0391,67.3135
156.0391,67.3135
156.1641,67.4659
156.3165,67.5909
156.3165,67.5909
156.4903,67.6838
156.4903,67.6838
156.4903,67.6838
156.6789,67.7410
156.8750,67.7603
157.0711,67.7410
157.2597,67.6838
157.4335,67.5909
157.5859,67.4659
157.7109,67.3135
157.8038,67.1397
157.8610,66.9511
157.8803,66.7550
157.8610,66.5589
157.8596,66.5541
157.8540,66.5359
157.8424,66.4975
157.8418,66.4276
157.8790,66.3685
157.9423,66.3389
158.0116,66.3483
158.0487,66.3738
160.2482,68.5733
160.2817,68.6346
160.2845,68.6609
160.2845,90.6677
160.2648,90.7348
160.2482,90.7554
157.2952,93.7084
157.2338,93.7419
157.1715,93.7394
157.0711,93.7090
156.8750,93.6897
156.6789,93.7090
156.4903,93.7662
156.3165,93.8591
156.3165,93.8591
156.1641,93.9841
156.0391,94.1365
156.0391,94.1365
155.9462,94.3103
155.8890,94.4989
155.8697,94.6950
155.8890,94.8911
155.9462,95.0797
156.0391,95.2535
156.0391,95.2535
156.1641,95.4059
156.3165,95.5309
156.3165,95.5309
156.4903,95.6238
156.4903,95.6238
156.4903,95.6238
156.6789,95.6810
156.8750,95.7003
157.0711,95.6810
157.1715,95.6506
157.2414,95.6500
157.2952,95.6816
165.6702,104.0566
165.6702,104.0566
165.6745,104.0609
165.6745,104.0609
165.7491,104.1355
165.8333,104.1841
165.8404,104.1882
165.9423,104.2155
165.9423,104.2155
166.0553,104.2155
166.0553,104.2155
170.2227,104.2155
170.2898,104.2352
170.3104,104.2518
171.7902,105.7316
171.7902,105.7316
171.7945,105.7359
171.7945,105.7359
171.8691,105.8105
171.8691,105.8105
171.8938,105.8247
171.8938,105.8247
171.9104,105.8343
171.9604,105.8632
171.9604,105.8632
171.9604,105.8632
171.9604,105.8632
172.0623,105.8905
172.0623,105.8905
172.1753,105.8905
172.1753,105.8905
175.9777,105.8905
175.9777,105.8905
176.0796,105.8632
176.1709,105.8105
176.2455,105.7359
176.2982,105.6446
176.3255,105.5427
176.3255,104.9292
176.3452,104.8621
176.3980,104.8164
176.4671,104.8064
176.4737,104.8075
176.4843,104.8097
176.4885,104.8105
176.4885,104.8105
176.6315,104.8105
176.7470,104.7875
176.7716,104.7826
176.9037,104.7279
177.0225,104.6485
177.0413,104.6297
177.1073,104.5637
177.1686,104.5302
177.2383,104.5352
177.2827,104.5637
177.3675,104.6485
177.3675,104.6485
177.4863,104.7279
177.4863,104.7279
177.4892,104.7291
177.6184,104.7826
177.6184,104.7826
177.6184,104.7826
177.7585,104.8105
177.7585,104.8105
177.9015,104.8105
178.0170,104.7875
178.0416,104.7826
178.1737,104.7279
178.1937,104.7145
178.2358,104.6864
178.3025,104.6655
178.3698,104.6840
178.4078,104.7206
178.4304,104.7546
178.4968,104.7989
178.4968,104.7989
178.5552,104.8105
178.5553,104.8105
178.5553,104.8105
179.6447,104.8105
179.6448,104.8105
179.6596,104.8075
179.7032,104.7989
179.7032,104.7989
179.7032,104.7989
179.7696,104.7546
179.8139,104.6882
179.8139,104.6882
179.8139,104.6882
179.8255,104.6298
179.8255,104.6298
179.8255,104.2737
182.8945,104.2737
182.8945,104.5163
182.9225,104.7291
182.9262,104.7568
182.9344,104.7875
182.9889,104.9911
183.0423,105.1199
183.0818,105.2152
183.2031,105.4253
183.2031,105.4253
183.2031,105.4253
183.3507,105.6177
183.3507,105.6177
183.5223,105.7893
183.5223,105.7893
183.5685,105.8247
183.7147,105.9369
183.9248,106.0582
184.1489,106.1511
184.3832,106.2138
184.5636,106.2376
184.6237,106.2455
184.6237,106.2455
184.8663,106.2455
184.9144,106.2392
185.1068,106.2138
185.3411,106.1511
185.5652,106.0582
185.7753,105.9369
185.9677,105.7893
186.1393,105.6177
186.2869,105.4253
186.4082,105.2152
186.5011,104.9911
186.5638,104.7568
186.5955,104.5163
186.5955,104.2737
186.5638,104.0332
186.5011,103.7989
186.4082,103.5748
186.2869,103.3647
186.1393,103.1723
186.1393,103.1723
185.9677,103.0007
185.9677,103.0007
185.7753,102.8531
185.7753,102.8531
185.7753,102.8531
185.5652,102.7318
185.5652,102.7318
185.3411,102.6389
185.1068,102.5762
184.8663,102.5445
184.8663,102.5445
184.6237,102.5445
184.6237,102.5445
184.3832,102.5762
184.1489,102.6389
183.9248,102.7318
183.9248,102.7318
183.7147,102.8531
183.5223,103.0007
183.5223,103.0007
183.3507,103.1723
183.3507,103.1723
183.2031,103.3647
183.0818,103.5748
183.0818,103.5748
182.9889,103.7989
182.9262,104.0332
182.8945,104.2737
179.8255,104.2737
179.8255,104.1765
179.8452,104.1095
179.8618,104.0888
185.6391,98.3115
185.6391,98.3115
185.6867,98.2403
185.7158,98.1968
185.7686,98.0693
185.7715,98.0545
185.7715,98.0545
185.7843,97.9905
185.7843,97.9905
185.7955,97.9340
185.7955,97.7865
185.8152,97.7195
185.8318,97.6988
186.5891,96.9415
186.5891,96.9415
186.6658,96.8268
186.7186,96.6993
186.7455,96.5640
186.7455,96.4260
186.7455,86.3260
186.7455,86.3260
186.7186,86.1907
186.7186,86.1907
186.7086,86.1666
186.6658,86.0632
186.6658,86.0632
186.6658,86.0632
186.5891,85.9485
186.5891,85.9485
186.4915,85.8509
186.4915,85.8509
186.3768,85.7742
186.3768,85.7742
186.2493,85.7214
186.2493,85.7214
186.1140,85.6945
186.1140,85.6945
185.9760,85.6945
185.9760,85.6945
185.8407,85.7214
185.8407,85.7214
185.8198,85.7301
185.7724,85.7395
184.3877,85.7395
184.3207,85.7198
184.2959,85.6977
184.2957,85.6979
184.2928,85.6950
184.2919,85.6942
184.2914,85.6936
184.1315,85.5623
184.1315,85.5623
184.1315,85.5623
183.9490,85.4648
183.7509,85.4047
183.7509,85.4047
183.7509,85.4047
183.5450,85.3844
183.3391,85.4047
183.1410,85.4648
183.0663,85.5047
182.9586,85.5623
182.9585,85.5623
182.9585,85.5623
182.7986,85.6936
182.6673,85.8535
182.5698,86.0360
182.5097,86.2341
182.4894,86.4400
182.5097,86.6459
182.5397,86.7449
182.5698,86.8440
182.6673,87.0264
182.6673,87.0265
182.7986,87.1864
182.8952,87.2657
182.9586,87.3177
183.1410,87.4152
183.3391,87.4753
183.3391,87.4753
183.3575,87.4771
183.5450,87.4956
183.7509,87.4753
183.9490,87.4152
184.1315,87.3177
184.2914,87.1864
184.2919,87.1858
184.2922,87.1856
184.2957,87.1821
184.2964,87.1828
184.3496,87.1465
184.3877,87.1405
185.2205,87.1405
185.2875,87.1602
185.3333,87.2130
185.3445,87.2645
185.3445,96.1535
185.3248,96.2205
185.3082,96.2412
184.5509,96.9985
184.5509,96.9985
184.5291,97.0310
184.5237,97.0391
184.5023,97.0711
184.4742,97.1132
184.4214,97.2407
184.4214,97.2407
184.3945,97.3760
184.3945,97.5235
184.3748,97.5905
184.3582,97.6112
179.0962,102.8732
179.0348,102.9067
179.0085,102.9095
178.5552,102.9095
178.4968,102.9211
178.4968,102.9211
178.4734,102.9368
178.4067,102.9576
178.3393,102.9391
178.2926,102.8872
178.2805,102.8337
178.2805,99.4730
178.3002,99.4059
178.3460,99.3636
178.3885,99.3409
178.5409,99.2159
178.6659,99.0635
178.7588,98.8897
178.8160,98.7011
178.8353,98.5050
178.8160,98.3089
178.7588,98.1203
178.7588,98.1203
178.7588,98.1203
178.6659,97.9465
178.6659,97.9465
178.5409,97.7941
178.3885,97.6691
178.3885,97.6691
178.2147,97.5762
178.2147,97.5762
178.0261,97.5190
178.0261,97.5190
177.8300,97.4997
177.6339,97.5190
177.4453,97.5762
177.2715,97.6691
177.2715,97.6691
177.1191,97.7941
176.9941,97.9465
176.9941,97.9465
176.9012,98.1203
176.8440,98.3089
176.8247,98.5050
176.8440,98.7011
176.8440,98.7011
176.8861,98.8400
176.9012,98.8897
176.9941,99.0635
176.9941,99.0635
177.1191,99.2159
177.2715,99.3409
177.2715,99.3409
177.2715,99.3409
177.3140,99.3636
177.3638,99.4126
177.3795,99.4730
177.3795,103.0081
177.3598,103.0752
177.3432,103.0958
177.2827,103.1563
177.2214,103.1898
177.1517,103.1848
177.1073,103.1563
177.0225,103.0715
177.0225,103.0715
176.9037,102.9921
176.9036,102.9921
176.7716,102.9374
176.7716,102.9374
176.6315,102.9095
176.6315,102.9095
176.4885,102.9095
176.4885,102.9095
176.3484,102.9374
176.3484,102.9374
176.2163,102.9921
176.2163,102.9921
176.0975,103.0715
176.0975,103.0715
175.9965,103.1725
175.9965,103.1725
175.9171,103.2913
175.9171,103.2913
175.8624,103.4234
175.8624,103.4234
175.8345,103.5635
175.8345,103.9677
175.8148,104.0348
175.7982,104.0554
175.6045,104.2491
175.6045,104.2491
175.5518,104.3404
175.5320,104.4143
175.5320,104.4143
175.5245,104.4423
175.5245,104.9655
175.5048,105.0325
175.4520,105.0783
175.4005,105.0895
172.3323,105.0895
172.2652,105.0698
172.2446,105.0532
170.6859,103.4945
170.6859,103.4945
170.6859,103.4945
170.6402,103.4682
170.5946,103.4418
170.5259,103.4234
170.4927,103.4145
170.4927,103.4145
166.2123,103.4145
166.1452,103.3948
166.1246,103.3782
164.2416,101.4952
171.1145,101.4952
171.1145,103.1348
171.1261,103.1932
171.1261,103.1932
171.1704,103.2596
171.2368,103.3039
171.2368,103.3039
171.2952,103.3155
171.2952,103.3155
171.2953,103.3155
172.9347,103.3155
172.9348,103.3155
172.9496,103.3126
172.9932,103.3039
172.9932,103.3039
172.9932,103.3039
173.0596,103.2596
173.1039,103.1932
173.1039,103.1932
173.1039,103.1932
173.1155,103.1348
173.1155,103.1347
173.1155,101.4952
173.1155,101.4952
173.1039,101.4368
173.1039,101.4368
173.0596,101.3704
172.9932,101.3261
172.9932,101.3261
172.9348,101.3145
172.9347,101.3145
171.2953,101.3145
171.2952,101.3145
171.2368,101.3261
171.2368,101.3261
171.1704,101.3704
171.1261,101.4368
171.1261,101.4368
171.1145,101.4952
164.2416,101.4952
162.5214,99.7750
171.1097,99.7750
171.1290,99.9711
171.1862,100.1597
171.2791,100.3335
171.2791,100.3335
171.4041,100.4859
171.5565,100.6109
171.5565,100.6109
171.7303,100.7038
171.7303,100.7038
171.7303,100.7038
171.9189,100.7610
172.1150,100.7803
172.3111,100.7610
172.4997,100.7038
172.6735,100.6109
172.8259,100.4859
172.9509,100.3335
173.0109,100.2213
173.0438,100.1597
173.0438,100.1597
173.0438,100.1597
173.1010,99.9711
173.1203,99.7750
173.1010,99.5789
173.0438,99.3903
173.0438,99.3903
173.0438,99.3903
172.9509,99.2165
172.9509,99.2165
172.8259,99.0641
172.6735,98.9391
172.6735,98.9391
172.4997,98.8462
172.4997,98.8462
172.3111,98.7890
172.3111,98.7890
172.1150,98.7697
171.9189,98.7890
171.7303,98.8462
171.5565,98.9391
171.5565,98.9391
171.4041,99.0641
171.2791,99.2165
171.2791,99.2165
171.1862,99.3903
171.1290,99.5789
171.1097,99.7750
162.5214,99.7750
159.9814,97.2350
171.1097,97.2350
171.1290,97.4311
171.1862,97.6197
171.2791,97.7935
171.2791,97.7935
171.4041,97.9459
171.5565,98.0709
171.5565,98.0709
171.7303,98.1638
171.7303,98.1638
171.7303,98.1638
171.9189,98.2210
172.1150,98.2403
172.3111,98.2210
172.4997,98.1638
172.6735,98.0709
172.8259,97.9459
172.9509,97.7935
173.0438,97.6197
173.1010,97.4311
173.1203,97.2350
173.1010,97.0389
173.0438,96.8503
173.0438,96.8503
173.0438,96.8503
172.9509,96.6765
172.9509,96.6765
172.8259,96.5241
172.6735,96.3991
172.6735,96.3991
172.4997,96.3062
172.4997,96.3062
172.3111,96.2490
172.3111,96.2490
172.1150,96.2297
171.9189,96.2490
171.7303,96.3062
171.5565,96.3991
171.5565,96.3991
171.4041,96.5241
171.2791,96.6765
171.2791,96.6765
171.1862,96.8503
171.1290,97.0389
171.1097,97.2350
159.9814,97.2350
157.8616,95.1152
157.8281,95.0538
157.8306,94.9915
157.8610,94.8911
157.8803,94.6950
157.8610,94.4989
157.8447,94.4450
170.8361,94.4450
170.8361,94.4450
171.6820,94.4450
171.6491,94.5020
171.6150,94.6292
171.6150,94.7608
171.6491,94.8880
171.6820,94.9450
170.8361,94.9450
170.8887,95.1413
170.8887,95.1413
170.9849,95.3475
171.1153,95.5338
171.2762,95.6947
171.4625,95.8251
171.6687,95.9213
171.6687,95.9213
171.8650,95.9739
171.8650,95.9739
171.8650,95.1280
171.9220,95.1609
172.0492,95.1950
172.1808,95.1950
172.3080,95.1609
172.3650,95.1280
172.3650,95.9739
172.5613,95.9213
172.5613,95.9213
172.7675,95.8251
172.9538,95.6947
173.1147,95.5338
173.2451,95.3475
173.3413,95.1413
173.3413,95.1413
173.3939,94.9450
172.5480,94.9450
172.5809,94.8880
172.6150,94.7608
172.6150,94.6292
172.5809,94.5020
172.5480,94.4450
173.3939,94.4450
173.3939,94.4450
173.3413,94.2487
173.3413,94.2487
173.2451,94.0425
173.1147,93.8562
172.9538,93.6953
172.7675,93.5649
172.5613,93.4687
172.3650,93.4161
172.3650,94.2620
172.3080,94.2291
172.1808,94.1950
172.0492,94.1950
171.9220,94.2291
171.8650,94.2620
171.8650,93.4161
171.6687,93.4687
171.4625,93.5649
171.2762,93.6953
171.1153,93.8562
170.9849,94.0425
170.8887,94.2487
170.8887,94.2487
170.8361,94.4450
157.8447,94.4450
157.8306,94.3985
157.8300,94.3286
157.8616,94.2748
159.9814,92.1550
171.1097,92.1550
171.1290,92.3511
171.1290,92.3511
171.1837,92.5314
171.1862,92.5397
171.2791,92.7135
171.2791,92.7135
171.4041,92.8659
171.5565,92.9909
171.5565,92.9909
171.7303,93.0838
171.7303,93.0838
171.7303,93.0838
171.9189,93.1410
172.1150,93.1603
172.3111,93.1410
172.4997,93.0838
172.6735,92.9909
172.8259,92.8659
172.9509,92.7135
172.9653,92.6866
173.0003,92.6210
173.0493,92.5712
173.1097,92.5555
180.5377,92.5555
180.5377,92.5555
180.6396,92.5282
180.7309,92.4755
181.1860,92.0204
181.2387,91.9891
181.3551,91.9550
181.3780,91.9402
181.4451,91.9205
182.4936,91.9205
182.5606,91.9402
182.6030,91.9860
182.6673,92.1064
182.6673,92.1065
182.7986,92.2664
182.8952,92.3457
182.9586,92.3977
183.1410,92.4952
183.2076,92.5154
183.2660,92.5537
183.2944,92.6175
183.2839,92.6866
183.2377,92.7390
183.2036,92.7538
183.0815,92.7866
183.0815,92.7866
182.8674,92.8864
182.8674,92.8864
182.6739,93.0219
182.6739,93.0219
182.5069,93.1889
182.5069,93.1889
182.3714,93.3824
182.3714,93.3824
182.2716,93.5965
182.2716,93.5965
182.2144,93.8100
182.2144,93.8100
183.1120,93.8100
183.0791,93.8670
183.0450,93.9942
183.0450,94.1258
183.0791,94.2530
183.1120,94.3100
182.2144,94.3100
182.2716,94.5235
182.2716,94.5235
182.3714,94.7376
182.5069,94.9311
182.6739,95.0981
182.8674,95.2336
183.0815,95.3334
183.0815,95.3334
183.2950,95.3906
183.2950,94.4930
183.3520,94.5259
183.4792,94.5600
183.6108,94.5600
183.7380,94.5259
183.7950,94.4930
183.7950,95.3906
184.0085,95.3334
184.0085,95.3334
184.2226,95.2336
184.4161,95.0981
184.5831,94.9311
184.7186,94.7376
184.8184,94.5235
184.8184,94.5235
184.8756,94.3100
183.9780,94.3100
184.0109,94.2530
184.0450,94.1258
184.0450,93.9942
184.0109,93.8670
183.9780,93.8100
184.8756,93.8100
184.8756,93.8100
184.8184,93.5965
184.8184,93.5965
184.7186,93.3824
184.7186,93.3824
184.5831,93.1889
184.5831,93.1889
184.4161,93.0219
184.2226,92.8864
184.0085,92.7866
184.0085,92.7866
183.8863,92.7538
183.8267,92.7175
183.7962,92.6546
183.8045,92.5853
183.8489,92.5314
183.8824,92.5154
183.9490,92.4952
184.1315,92.3977
184.2914,92.2664
184.4227,92.1064
184.5202,91.9240
184.5803,91.7259
184.6006,91.5200
184.5803,91.3141
184.5202,91.1160
184.4227,90.9335
184.3396,90.8323
184.2914,90.7736
184.1737,90.6770
184.1315,90.6423
183.9490,90.5448
183.7509,90.4847
183.7509,90.4847
183.7509,90.4847
183.5450,90.4644
183.3391,90.4847
183.1410,90.5448
183.0358,90.6010
182.9586,90.6423
182.9585,90.6423
182.9585,90.6423
182.7986,90.7736
182.6673,90.9335
182.6673,90.9335
182.6347,90.9945
182.6030,91.0540
182.5540,91.1038
182.4936,91.1195
181.5229,91.1195
181.4558,91.0998
181.4558,91.0998
181.3551,91.0350
181.3551,91.0350
181.2170,90.9945
181.2170,90.9945
181.0730,90.9945
181.0730,90.9945
180.9349,91.0350
180.8139,91.1129
180.7196,91.2216
180.7196,91.2216
180.6598,91.3525
180.6598,91.3525
180.6554,91.3832
180.6264,91.4468
180.6204,91.4532
180.3554,91.7182
180.2941,91.7517
180.2677,91.7545
173.1097,91.7545
173.0427,91.7348
173.0003,91.6890
172.9509,91.5965
172.9509,91.5965
172.8259,91.4441
172.6735,91.3191
172.6735,91.3191
172.4997,91.2262
172.4997,91.2262
172.3111,91.1690
172.3111,91.1690
172.1150,91.1497
171.9189,91.1690
171.7303,91.2262
171.5565,91.3191
171.5565,91.3191
171.4041,91.4441
171.2791,91.5965
171.2791,91.5965
171.1862,91.7703
171.1290,91.9589
171.1097,92.1550
159.9814,92.1550
160.9207,91.2157
160.9207,91.2157
160.9309,91.2055
160.9309,91.2055
161.0055,91.1309
161.0582,91.0396
161.0855,90.9377
161.0855,90.8323
161.0855,90.8247
161.0855,90.8247
161.0855,89.6150
171.1097,89.6150
171.1290,89.8111
171.1862,89.9997
171.2791,90.1735
171.2791,90.1735
171.4041,90.3259
171.5565,90.4509
171.5565,90.4509
171.7303,90.5438
171.7303,90.5438
171.7303,90.5438
171.9189,90.6010
172.1150,90.6203
172.3111,90.6010
172.4997,90.5438
172.6735,90.4509
172.8259,90.3259
172.9509,90.1735
173.0438,89.9997
173.1010,89.8111
173.1203,89.6150
173.1010,89.4189
173.0438,89.2303
173.0438,89.2303
173.0438,89.2303
172.9509,89.0565
172.9509,89.0565
172.8259,88.9041
172.6735,88.7791
172.6735,88.7791
172.4997,88.6862
172.4997,88.6862
172.3111,88.6290
172.3111,88.6290
172.1150,88.6097
171.9189,88.6290
171.7303,88.6862
171.5565,88.7791
171.5565,88.7791
171.4041,88.9041
171.2791,89.0565
171.2791,89.0565
171.1862,89.2303
171.1290,89.4189
171.1097,89.6150
161.0855,89.6150
161.0855,87.0750
171.1097,87.0750
171.1290,87.2711
171.1290,87.2711
171.1290,87.2711
171.1850,87.4559
171.1862,87.4597
171.2791,87.6335
171.2791,87.6335
171.4041,87.7859
171.5565,87.9109
171.5565,87.9109
171.7303,88.0038
171.7303,88.0038
171.7303,88.0038
171.9189,88.0610
172.1150,88.0803
172.3111,88.0610
172.4115,88.0306
172.4814,88.0300
172.5352,88.0616
173.1391,88.6655
173.2304,88.7182
173.3323,88.7455
173.4377,88.7455
176.8353,88.7455
176.9023,88.7652
176.9447,88.8110
176.9941,88.9035
176.9941,88.9035
177.1191,89.0559
177.2715,89.1809
177.2715,89.1809
177.4453,89.2738
177.4453,89.2738
177.4453,89.2738
177.6339,89.3310
177.8300,89.3503
178.0261,89.3310
178.2147,89.2738
178.2249,89.2684
178.3515,89.2007
178.3885,89.1809
178.5409,89.0559
178.6659,88.9035
178.7525,88.7415
178.7588,88.7297
178.7588,88.7297
178.7588,88.7297
178.8160,88.5411
178.8353,88.3450
178.8160,88.1489
178.7588,87.9603
178.7588,87.9603
178.7588,87.9603
178.6659,87.7865
178.6659,87.7865
178.5409,87.6341
178.3885,87.5091
178.3885,87.5091
178.2147,87.4162
178.2147,87.4162
178.0261,87.3590
178.0261,87.3590
177.8300,87.3397
177.6339,87.3590
177.4453,87.4162
177.2715,87.5091
177.2715,87.5091
177.1191,87.6341
176.9941,87.7865
176.9941,87.7865
176.9447,87.8790
176.8957,87.9288
176.8353,87.9445
173.6023,87.9445
173.5352,87.9248
173.5146,87.9082
173.1016,87.4952
173.0681,87.4338
173.0706,87.3715
173.1010,87.2711
173.1203,87.0750
173.1010,86.8789
173.0438,86.6903
173.0438,86.6903
173.0438,86.6903
172.9509,86.5165
172.9509,86.5165
172.8259,86.3641
172.6735,86.2391
172.6735,86.2391
172.4997,86.1462
172.4997,86.1462
172.3111,86.0890
172.3111,86.0890
172.1150,86.0697
171.9189,86.0890
171.7303,86.1462
171.5565,86.2391
171.5565,86.2391
171.4041,86.3641
171.2791,86.5165
171.2791,86.5165
171.1862,86.6903
171.1290,86.8789
171.1097,87.0750
161.0855,87.0750
161.0855,84.5350
171.1097,84.5350
171.1290,84.7311
171.1862,84.9197
171.2791,85.0935
171.2791,85.0935
171.4041,85.2459
171.5565,85.3709
171.5565,85.3709
171.7303,85.4638
171.7303,85.4638
171.7303,85.4638
171.9189,85.5210
172.1150,85.5403
172.3111,85.5210
172.4997,85.4638
172.6735,85.3709
172.8259,85.2459
172.9509,85.0935
172.9966,85.0080
173.0003,85.0010
173.0493,84.9512
173.1097,84.9355
178.5755,84.9355
178.6425,84.9552
178.6883,85.0080
178.6995,85.0595
178.6995,86.8973
178.6995,87.0027
178.7059,87.0265
178.7268,87.1046
178.7338,87.1168
178.7795,87.1959
178.7795,87.1959
178.7795,87.1959
180.6204,89.0368
180.6539,89.0981
180.6554,89.1068
180.6598,89.1375
180.6598,89.1375
180.6797,89.1809
180.7196,89.2684
180.8139,89.3771
180.9349,89.4550
180.9349,89.4550
180.9349,89.4550
181.0730,89.4955
181.0730,89.4955
181.0730,89.4955
181.2170,89.4955
181.2170,89.4955
181.3551,89.4550
181.3689,89.4460
181.4403,89.4002
181.5073,89.3805
182.4936,89.3805
182.5606,89.4002
182.6030,89.4460
182.6077,89.4550
182.6673,89.5664
182.6912,89.5955
182.7986,89.7264
182.8952,89.8057
182.9586,89.8577
183.1410,89.9552
183.3391,90.0153
183.3391,90.0153
183.3575,90.0171
183.5450,90.0356
183.7509,90.0153
183.9490,89.9552
184.1315,89.8577
184.2914,89.7264
184.4227,89.5664
184.5202,89.3840
184.5803,89.1859
184.6006,88.9800
184.5803,88.7741
184.5202,88.5760
184.4227,88.3935
184.3707,88.3302
184.2914,88.2336
184.1315,88.1023
184.1315,88.1023
184.1315,88.1023
183.9490,88.0048
183.7509,87.9447
183.7509,87.9447
183.7509,87.9447
183.5450,87.9244
183.3391,87.9447
183.1410,88.0048
183.0358,88.0610
182.9586,88.1023
182.9585,88.1023
182.9585,88.1023
182.7986,88.2336
182.6673,88.3935
182.6030,88.5140
182.5540,88.5638
182.4936,88.5795
181.4606,88.5795
181.3936,88.5598
181.3551,88.5350
181.3551,88.5350
181.2387,88.5009
181.1860,88.4696
179.5368,86.8204
179.5033,86.7591
179.5005,86.7327
179.5005,84.4823
179.5005,84.4823
179.4732,84.3804
179.4205,84.2891
179.3459,84.2145
179.2546,84.1618
179.1527,84.1345
179.1527,84.1345
173.1097,84.1345
173.0427,84.1148
173.0003,84.0690
172.9509,83.9765
172.9509,83.9765
172.8259,83.8241
172.6735,83.6991
172.6735,83.6991
172.4997,83.6062
172.4997,83.6062
172.3111,83.5490
172.3111,83.5490
172.1150,83.5297
171.9189,83.5490
171.7303,83.6062
171.5565,83.6991
171.5565,83.6991
171.4041,83.8241
171.2791,83.9765
171.2791,83.9765
171.1862,84.1503
171.1290,84.3389
171.1097,84.5350
161.0855,84.5350
161.0855,71.8350
171.1097,71.8350
171.1290,72.0311
171.1290,72.0311
171.1710,72.1697
171.1862,72.2197
171.2791,72.3935
171.2791,72.3935
171.4041,72.5459
171.5565,72.6709
171.5565,72.6709
171.7303,72.7638
171.7303,72.7638
171.7303,72.7638
171.9189,72.8210
172.1150,72.8403
172.3111,72.8210
172.4997,72.7638
172.6735,72.6709
172.8259,72.5459
172.9509,72.3935
172.9591,72.3782
172.9811,72.3370
173.0301,72.2871
173.0982,72.2717
173.1639,72.2955
173.2063,72.3511
173.2145,72.3954
173.2145,73.8146
173.1948,73.8816
173.1420,73.9274
173.0729,73.9373
173.0093,73.9083
172.9811,73.8730
172.9509,73.8165
172.9509,73.8165
172.8259,73.6641
172.6735,73.5391
172.6735,73.5391
172.4997,73.4462
172.4997,73.4462
172.3111,73.3890
172.3111,73.3890
172.1150,73.3697
171.9189,73.3890
171.7303,73.4462
171.5565,73.5391
171.5565,73.5391
171.4041,73.6641
171.2791,73.8165
171.2791,73.8165
171.1862,73.9903
171.1290,74.1789
171.1097,74.3750
171.1290,74.5711
171.1862,74.7597
171.2791,74.9335
171.2791,74.9335
171.4041,75.0859
171.5565,75.2109
171.5565,75.2109
171.7303,75.3038
171.7303,75.3038
171.7303,75.3038
171.9189,75.3610
172.1150,75.3803
172.3111,75.3610
172.4997,75.3038
172.6735,75.2109
172.8259,75.0859
172.9509,74.9335
172.9591,74.9182
172.9811,74.8770
173.0301,74.8271
173.0982,74.8117
173.1639,74.8355
173.2063,74.8911
173.2145,74.9354
173.2145,76.3546
173.1948,76.4216
173.1420,76.4674
173.0729,76.4773
173.0093,76.4483
172.9811,76.4130
172.9509,76.3565
172.9509,76.3565
172.8259,76.2041
172.6735,76.0791
172.6735,76.0791
172.4997,75.9862
172.4997,75.9862
172.3111,75.9290
172.3111,75.9290
172.1150,75.9097
171.9189,75.9290
171.7303,75.9862
171.5565,76.0791
171.5565,76.0791
171.4041,76.2041
171.2791,76.3565
171.2791,76.3565
171.1862,76.5303
171.1290,76.7189
171.1097,76.9150
171.1290,77.1111
171.1862,77.2997
171.2791,77.4735
171.2791,77.4735
171.4041,77.6259
171.5565,77.7509
171.5565,77.7509
171.7303,77.8438
171.7303,77.8438
171.7303,77.8438
171.9189,77.9010
172.1150,77.9203
172.3111,77.9010
172.4997,77.8438
172.6735,77.7509
172.8259,77.6259
172.9509,77.4735
172.9591,77.4582
172.9811,77.4170
173.0301,77.3671
173.0982,77.3517
173.1639,77.3755
173.2063,77.4311
173.2145,77.4754
173.2145,78.8946
173.1948,78.9616
173.1420,79.0074
173.0729,79.0173
173.0093,78.9883
172.9811,78.9530
172.9509,78.8965
172.9509,78.8965
172.8259,78.7441
172.6735,78.6191
172.6735,78.6191
172.4997,78.5262
172.4997,78.5262
172.3111,78.4690
172.3111,78.4690
172.1150,78.4497
171.9189,78.4690
171.7303,78.5262
171.5565,78.6191
171.5565,78.6191
171.4041,78.7441
171.2791,78.8965
171.2791,78.8965
171.1862,79.0703
171.1290,79.2589
171.1097,79.4550
171.1290,79.6511
171.1290,79.6511
171.1629,79.7629
171.1862,79.8397
171.2791,80.0135
171.2791,80.0135
171.4041,80.1659
171.5565,80.2909
171.5565,80.2909
171.7303,80.3838
171.7303,80.3838
171.7303,80.3838
171.9189,80.4410
172.1150,80.4603
172.3111,80.4410
172.4997,80.3838
172.5341,80.3654
172.6009,80.3298
172.6735,80.2909
172.8259,80.1659
172.9509,80.0135
172.9591,79.9982
172.9811,79.9570
173.0301,79.9071
173.0982,79.8917
173.1639,79.9155
173.2063,79.9711
173.2145,80.0154
173.2145,80.2777
173.1948,80.3448
173.1782,80.3654
172.5352,81.0084
172.4738,81.0419
172.4115,81.0394
172.3111,81.0090
172.1150,80.9897
171.9189,81.0090
171.7303,81.0662
171.5565,81.1591
171.5565,81.1591
171.4041,81.2841
171.2791,81.4365
171.2791,81.4365
171.1862,81.6103
171.1290,81.7989
171.1097,81.9950
171.1290,82.1911
171.1862,82.3797
171.2791,82.5535
171.2791,82.5535
171.4041,82.7059
171.5565,82.8309
171.5565,82.8309
171.7303,82.9238
171.7303,82.9238
171.7303,82.9238
171.9189,82.9810
172.1150,83.0003
172.3111,82.9810
172.4997,82.9238
172.5341,82.9054
172.6170,82.8611
172.6735,82.8309
172.8259,82.7059
172.9509,82.5535
173.0438,82.3797
173.1010,82.1911
173.1203,81.9950
173.1010,81.7989
173.0706,81.6985
173.0700,81.6286
173.1016,81.5748
173.9355,80.7409
173.9882,80.6496
173.9882,80.6496
174.0155,80.5477
174.0155,71.8223
174.0352,71.7552
174.0518,71.7346
177.4098,68.3766
177.4712,68.3431
177.5335,68.3456
177.6339,68.3760
177.6339,68.3760
177.6532,68.3779
177.8300,68.3953
178.0261,68.3760
178.2147,68.3188
178.2331,68.3090
178.3885,68.2259
178.3885,68.2259
178.5409,68.1009
178.6659,67.9485
178.7345,67.8202
178.7588,67.7747
178.7588,67.7747
178.7588,67.7747
178.8160,67.5861
178.8353,67.3900
178.8160,67.1939
178.7588,67.0053
178.7588,67.0053
178.7588,67.0053
178.6659,66.8315
178.6659,66.8315
178.5409,66.6791
178.3885,66.5541
178.3885,66.5541
178.2147,66.4612
178.2147,66.4612
178.0261,66.4040
178.0261,66.4040
177.8300,66.3847
177.6339,66.4040
177.4453,66.4612
177.2715,66.5541
177.2715,66.5541
177.1191,66.6791
176.9941,66.8315
176.9941,66.8315
176.9012,67.0053
176.8440,67.1939
176.8247,67.3900
176.8440,67.5861
176.8744,67.6865
176.8750,67.7564
176.8434,67.8102
173.2945,71.3591
173.2945,71.3591
173.2506,71.4352
173.2000,71.4834
173.1314,71.4966
173.0666,71.4706
173.0338,71.4316
172.9509,71.2765
172.9509,71.2765
172.8259,71.1241
172.6735,70.9991
172.6735,70.9991
172.4997,70.9062
172.4997,70.9062
172.3111,70.8490
172.3111,70.8490
172.1150,70.8297
171.9189,70.8490
171.7303,70.9062
171.5565,70.9991
171.5565,70.9991
171.4041,71.1241
171.2791,71.2765
171.2791,71.2765
171.1862,71.4503
171.1290,71.6389
171.1097,71.8350
161.0855,71.8350
161.0855,69.2950
171.1097,69.2950
171.1290,69.4911
171.1862,69.6797
171.2791,69.8535
171.2791,69.8535
171.4041,70.0059
171.5565,70.1309
171.5565,70.1309
171.7303,70.2238
171.7303,70.2238
171.7303,70.2238
171.9189,70.2810
172.1150,70.3003
172.3111,70.2810
172.4997,70.2238
172.5018,70.2227
172.6735,70.1309
172.6735,70.1309
172.8259,70.0059
172.9509,69.8535
173.0438,69.6797
173.1010,69.4911
173.1203,69.2950
173.1010,69.0989
173.0438,68.9103
173.0438,68.9103
173.0438,68.9103
172.9509,68.7365
172.9509,68.7365
172.8259,68.5841
172.6735,68.4591
172.6735,68.4591
172.4997,68.3662
172.4997,68.3662
172.3436,68.3188
172.3111,68.3090
172.1150,68.2897
171.9189,68.3090
171.7303,68.3662
171.5565,68.4591
171.5565,68.4591
171.4041,68.5841
171.2791,68.7365
171.2791,68.7365
171.1862,68.9103
171.1290,69.0989
171.1097,69.2950
161.0855,69.2950
161.0855,68.3910
161.0855,68.3910
161.0851,68.3896
161.0676,68.3241
161.0582,68.2891
161.0055,68.1978
159.5627,66.7550
171.1097,66.7550
171.1290,66.9511
171.1862,67.1397
171.2791,67.3135
171.2791,67.3135
171.4041,67.4659
171.5565,67.5909
171.5565,67.5909
171.7303,67.6838
171.7303,67.6838
171.7303,67.6838
171.9189,67.7410
172.1150,67.7603
172.3111,67.7410
172.4997,67.6838
172.6735,67.5909
172.8259,67.4659
172.9509,67.3135
173.0438,67.1397
173.1010,66.9511
173.1203,66.7550
173.1010,66.5589
173.0438,66.3703
173.0438,66.3703
173.0438,66.3703
172.9509,66.1965
172.9509,66.1965
172.8259,66.0441
172.6735,65.9191
172.6735,65.9191
172.4997,65.8262
172.4997,65.8262
172.3111,65.7690
172.3111,65.7690
172.1150,65.7497
171.9189,65.7690
171.7303,65.8262
171.5565,65.9191
171.5565,65.9191
171.4041,66.0441
171.2791,66.1965
171.2791,66.1965
171.1862,66.3703
171.1290,66.5589
171.1097,66.7550
159.5627,66.7550
157.7422,64.9345
157.6966,64.9082
157.6509,64.8818
157.6000,64.8681
157.5490,64.8545
147.0177,64.8545
146.9123,64.8545
146.8104,64.8818
146.7191,64.9345
146.7191,64.9345
145.3171,66.3365
145.2558,66.3699
145.1861,66.3650
145.1352,66.3293
145.1272,66.3200
144.0830,66.3200
144.1159,66.2630
144.1500,66.1358
144.1500,66.0042
144.1159,65.8770
144.0830,65.8200
145.1272,65.8200
145.1168,65.7539
145.1168,65.7539
145.0511,65.5518
144.9546,65.3624
144.8297,65.1905
144.8297,65.1905
144.6795,65.0403
144.6795,65.0403
144.5076,64.9154
144.3182,64.8189
144.1161,64.7532
143.9062,64.7200
143.9000,64.7200
143.9000,65.6370
143.8430,65.6041
143.7158,65.5700
143.5842,65.5700
143.4570,65.6041
143.4000,65.6370
143.4000,64.7200
143.3938,64.7200
143.1839,64.7532
143.1839,64.7532
142.9818,64.8189
142.7924,64.9154
142.6205,65.0403
142.6205,65.0403
142.4703,65.1905
142.4703,65.1905
142.3454,65.3624
142.2489,65.5518
142.1832,65.7539
142.1832,65.7539
142.1728,65.8200
143.2170,65.8200
143.1841,65.8770
143.1500,66.0042
143.1500,66.1358
143.1841,66.2630
143.2170,66.3200
142.1728,66.3200
142.1832,66.3861
142.1832,66.3861
142.2489,66.5882
142.3454,66.7776
142.4703,66.9495
142.4703,66.9495
142.6205,67.0997
142.6205,67.0997
142.7924,67.2246
142.9110,67.2850
142.9618,67.3330
142.9786,67.4008
142.9560,67.4669
142.9013,67.5104
142.8547,67.5195
142.8457,67.5195
142.8153,67.5224
142.8153,67.5224
142.6871,67.5672
142.6871,67.5672
142.5778,67.6478
142.4972,67.7571
142.4972,67.7571
142.4524,67.8853
142.4524,67.8853
142.4495,67.9157
142.4495,68.0455
142.4298,68.1125
142.3770,68.1583
142.3255,68.1695
136.6773,68.1695
136.6102,68.1498
136.5896,68.1332
136.4636,68.0072
136.4301,67.9459
136.4351,67.8762
136.4769,67.8202
136.5424,67.7958
136.5513,67.7955
137.7877,67.7955
137.7877,67.7955
137.8896,67.7682
137.9809,67.7155
145.4346,60.2618
145.4959,60.2283
145.5223,60.2255
150.5258,60.2255
150.5929,60.2452
150.6386,60.2980
150.6486,60.3671
150.6196,60.4307
150.5783,60.4619
150.5075,60.4949
150.5075,60.4949
150.4345,60.5460
150.4345,60.5460
151.1136,61.2250
151.1073,61.2250
151.0056,61.2523
150.9144,61.3049
150.8399,61.3794
150.7873,61.4706
150.7600,61.5723
150.7600,61.5786
150.0810,60.8995
150.0810,60.8995
150.0299,60.9725
150.0299,60.9725
149.9337,61.1787
149.9337,61.1787
149.8749,61.3984
149.8749,61.3984
149.8550,61.6250
149.8550,61.6250
149.8749,61.8516
149.8749,61.8516
149.9337,62.0713
149.9337,62.0713
150.0299,62.2775
150.0810,62.3505
150.7600,61.6714
150.7600,61.6777
150.7873,61.7794
150.8399,61.8706
150.9144,61.9451
151.0056,61.9977
151.1073,62.0250
151.1136,62.0250
150.4345,62.7040
150.5075,62.7551
150.5075,62.7551
150.7137,62.8513
150.7137,62.8513
150.9334,62.9101
150.9334,62.9101
151.1600,62.9300
151.1600,62.9300
151.3866,62.9101
151.3866,62.9101
151.6063,62.8513
151.6063,62.8513
151.8125,62.7551
151.8855,62.7040
151.2064,62.0250
151.2127,62.0250
151.3144,61.9977
151.4056,61.9451
151.4801,61.8706
151.5327,61.7794
151.5600,61.6777
151.5600,61.6714
152.2390,62.3505
152.2901,62.2775
152.3863,62.0713
152.3863,62.0713
152.4451,61.8516
152.4451,61.8516
152.4650,61.6250
152.4650,61.6250
152.4451,61.3984
152.4451,61.3984
152.3863,61.1787
152.3863,61.1787
152.2901,60.9725
152.2901,60.9725
152.2390,60.8995
151.5600,61.5786
151.5600,61.5723
151.5327,61.4706
151.4801,61.3794
151.4056,61.3049
151.3144,61.2523
151.2127,61.2250
151.2064,61.2250
151.8855,60.5460
151.8125,60.4949
151.7417,60.4619
151.6893,60.4157
151.6702,60.3485
151.6904,60.2816
151.7435,60.2363
151.7942,60.2255
173.2227,60.2255
173.2898,60.2452
173.3104,60.2618
179.1932,66.1446
179.2267,66.2059
179.2295,66.2323
179.2295,72.8877
179.2098,72.9548
179.1932,72.9754
176.0095,76.1591
176.0095,76.1591
175.9568,76.2504
175.9568,76.2504
175.9295,76.3523
175.9295,82.2820
175.9175,82.3299
175.9194,82.3307
175.8624,82.4684
175.8624,82.4684
175.8345,82.6085
175.8345,82.6085
175.8345,83.2015
175.8345,83.2015
175.8345,83.2015
175.8624,83.3416
175.8624,83.3416
175.9171,83.4736
175.9171,83.4737
175.9965,83.5925
175.9965,83.5925
176.0975,83.6935
176.0975,83.6935
176.2163,83.7729
176.2163,83.7729
176.2163,83.7729
176.3484,83.8276
176.3484,83.8276
176.3484,83.8276
176.4885,83.8555
176.4885,83.8555
176.6315,83.8555
176.7258,83.8367
176.7716,83.8276
176.9037,83.7729
177.0225,83.6935
177.0413,83.6747
177.1073,83.6087
177.1686,83.5752
177.2383,83.5802
177.2827,83.6087
177.3675,83.6935
177.3675,83.6935
177.4863,83.7729
177.4863,83.7729
177.4863,83.7729
177.6184,83.8276
177.6184,83.8276
177.6184,83.8276
177.7585,83.8555
177.7585,83.8555
177.9015,83.8555
177.9958,83.8367
178.0416,83.8276
178.1737,83.7729
178.1846,83.7656
178.2358,83.7314
178.3025,83.7105
178.3698,83.7290
178.4078,83.7656
178.4304,83.7996
178.4968,83.8439
178.4968,83.8439
178.5552,83.8555
178.5553,83.8555
178.5553,83.8555
179.6447,83.8555
179.6448,83.8555
179.6596,83.8526
179.7032,83.8439
179.7032,83.8439
179.7032,83.8439
179.7696,83.7996
179.8139,83.7332
179.8158,83.7237
179.8194,83.7053
179.8518,83.6434
179.9125,83.6088
179.9410,83.6055
182.2085,83.6055
182.2755,83.6252
182.2962,83.6418
182.4582,83.8038
182.4917,83.8652
182.4945,83.8915
182.4945,84.7698
182.5061,84.8282
182.5061,84.8282
182.5504,84.8946
182.6168,84.9389
182.6168,84.9389
182.6752,84.9505
182.6753,84.9505
182.6753,84.9505
184.4147,84.9505
184.4148,84.9505
184.4296,84.9476
184.4732,84.9389
184.4732,84.9389
184.4732,84.9389
184.5396,84.8946
184.5839,84.8282
184.5839,84.8282
184.5839,84.8282
184.5955,84.7698
184.5955,84.7698
184.5955,83.0302
184.5955,83.0302
184.5839,82.9718
184.5839,82.9718
184.5396,82.9054
184.4732,82.8611
184.4732,82.8611
184.4148,82.8495
184.4147,82.8495
183.5365,82.8495
183.4695,82.8298
183.4488,82.8132
182.9965,82.3609
182.9965,82.3609
182.8818,82.2842
182.7543,82.2314
182.7543,82.2314
182.6190,82.2045
182.6190,82.2045
182.6190,82.2045
179.9410,82.2045
179.8740,82.1848
179.8282,82.1320
179.8194,82.1047
179.8139,82.0768
179.8139,82.0768
179.7696,82.0104
179.7032,81.9661
179.7032,81.9661
179.6448,81.9545
179.6447,81.9545
178.5553,81.9545
178.5552,81.9545
178.4968,81.9661
178.4968,81.9661
178.4734,81.9818
178.4067,82.0026
178.3393,81.9841
178.2926,81.9322
178.2805,81.8787
178.2805,78.5180
178.3002,78.4509
178.3460,78.4086
178.3885,78.3859
178.5409,78.2609
178.6659,78.1085
178.7588,77.9347
178.8160,77.7461
178.8353,77.5500
178.8160,77.3539
178.7588,77.1653
178.7588,77.1653
178.7588,77.1653
178.6659,76.9915
178.6659,76.9915
178.5409,76.8391
178.3885,76.7141
178.3885,76.7141
178.2147,76.6212
178.2147,76.6212
178.0261,76.5640
178.0261,76.5640
177.8300,76.5447
177.6339,76.5640
177.4453,76.6212
177.2715,76.7141
177.2715,76.7141
177.1191,76.8391
176.9941,76.9915
176.9941,76.9915
176.9639,77.0480
176.9149,77.0979
176.8468,77.1133
176.7811,77.0895
176.7387,77.0339
176.7305,76.9896
176.7305,76.6223
176.7502,76.5552
176.7668,76.5346
179.8657,73.4357
179.8657,73.4357
179.8759,73.4255
179.8759,73.4255
179.9505,73.3509
179.9768,73.3053
180.0032,73.2596
180.0305,73.1577
180.0305,73.0523
180.0305,73.0447
180.0305,73.0447
180.0305,65.9623
180.0305,65.9623
180.0032,65.8604
180.0032,65.8604
179.9505,65.7691
175.4551,61.2737
182.8945,61.2737
182.8945,61.5163
182.9157,61.6777
182.9262,61.7568
182.9516,61.8516
182.9889,61.9911
183.0818,62.2152
183.0818,62.2152
183.2031,62.4253
183.2031,62.4253
183.2031,62.4253
183.3507,62.6177
183.3507,62.6177
183.5223,62.7893
183.5223,62.7893
183.7147,62.9369
183.9248,63.0582
184.1489,63.1511
184.3832,63.2138
184.5636,63.2376
184.6237,63.2455
184.6237,63.2455
184.8663,63.2455
184.9144,63.2392
185.1068,63.2138
185.3411,63.1511
185.5652,63.0582
185.7753,62.9369
185.9677,62.7893
186.1393,62.6177
186.2869,62.4253
186.4082,62.2152
186.5011,61.9911
186.5638,61.7568
186.5955,61.5163
186.5955,61.2737
186.5638,61.0332
186.5011,60.7989
186.4082,60.5748
186.2869,60.3647
186.1884,60.2363
186.1393,60.1723
186.1393,60.1723
185.9677,60.0007
185.9677,60.0007
185.7753,59.8531
185.7753,59.8531
185.7753,59.8531
185.5652,59.7318
185.5652,59.7318
185.3411,59.6389
185.2239,59.6076
185.1068,59.5762
185.1068,59.5762
185.1068,59.5762
184.8663,59.5445
184.8663,59.5445
184.6237,59.5445
184.6237,59.5445
184.3832,59.5762
184.1489,59.6389
183.9248,59.7318
183.9248,59.7318
183.7147,59.8531
183.5223,60.0007
183.5223,60.0007
183.3507,60.1723
183.3507,60.1723
183.2031,60.3647
183.0818,60.5748
183.0818,60.5748
182.9889,60.7989
182.9262,61.0332
182.8945,61.2737
175.4551,61.2737
173.6859,59.5045
173.6402,59.4782
173.5946,59.4518
173.5437,59.4381
173.4927,59.4245
173.4927,59.4245
145.3653,59.4245
145.3653,59.4245
145.3577,59.4245
145.2523,59.4245
145.1844,59.4427
145.1504,59.4518
145.0591,59.5045
137.6054,66.9582
137.5441,66.9917
137.5177,66.9945
136.4595,66.9945
136.3925,66.9748
136.3467,66.9220
136.3355,66.8705
136.3355,66.5252
136.3355,66.5252
136.3239,66.4668
136.3239,66.4668
136.2796,66.4004
136.2132,66.3561
136.2132,66.3561
136.1548,66.3445
136.1547,66.3445
135.8445,66.3445
135.7774,66.3248
135.7317,66.2720
135.7217,66.2029
135.7507,66.1393
135.7921,66.1081
135.9626,66.0286
136.1561,65.8931
136.3231,65.7261
136.4586,65.5326
136.5584,65.3185
136.5584,65.3185
136.6156,65.1050
135.7180,65.1050
135.7509,65.0480
135.7850,64.9208
135.7850,64.7892
135.7509,64.6620
135.7180,64.6050
136.6156,64.6050
136.6156,64.6050
136.5584,64.3915
136.5584,64.3915
136.4586,64.1774
136.4586,64.1774
136.3231,63.9839
136.3231,63.9839
136.1561,63.8169
135.9626,63.6814
135.7485,63.5816
135.7485,63.5816
135.5350,63.5244
135.5350,64.4220
135.4780,64.3891
135.3508,64.3550
135.2192,64.3550
135.0920,64.3891
135.0350,64.4220
135.0350,63.5244
135.0350,63.5244
134.8215,63.5816
134.8215,63.5816
134.6074,63.6814
134.6074,63.6814
134.4139,63.8169
134.4139,63.8169
134.2469,63.9839
134.2469,63.9839
134.1114,64.1774
134.1114,64.1774
134.0116,64.3915
134.0116,64.3915
133.9544,64.6050
127.2955,64.6050
127.2955,61.2737
127.8945,61.2737
127.8945,61.5163
127.9157,61.6777
127.9262,61.7568
127.9516,61.8516
127.9889,61.9911
128.0818,62.2152
128.0818,62.2152
128.2031,62.4253
128.2031,62.4253
128.2031,62.4253
128.3507,62.6177
128.3507,62.6177
128.5223,62.7893
128.5223,62.7893
128.7147,62.9369
128.9248,63.0582
129.1489,63.1511
129.3832,63.2138
129.5636,63.2376
129.6237,63.2455
129.6237,63.2455
129.8663,63.2455
129.9144,63.2392
130.1068,63.2138
130.3411,63.1511
130.5652,63.0582
130.7753,62.9369
130.9677,62.7893
131.1393,62.6177
131.2869,62.4253
131.4082,62.2152
131.5011,61.9911
131.5638,61.7568
131.5955,61.5163
131.5955,61.2737
131.5638,61.0332
131.5011,60.7989
131.4082,60.5748
131.2869,60.3647
131.1884,60.2363
131.1393,60.1723
131.1393,60.1723
130.9677,60.0007
130.9677,60.0007
130.7753,59.8531
130.7753,59.8531
130.7753,59.8531
130.5652,59.7318
130.5652,59.7318
130.3411,59.6389
130.2239,59.6076
130.1068,59.5762
130.1068,59.5762
130.1068,59.5762
129.8663,59.5445
129.8663,59.5445
129.6237,59.5445
129.6237,59.5445
129.3832,59.5762
129.1489,59.6389
128.9248,59.7318
128.9248,59.7318
128.7147,59.8531
128.5223,60.0007
128.5223,60.0007
128.3507,60.1723
128.3507,60.1723
128.2031,60.3647
128.0818,60.5748
128.0818,60.5748
127.9889,60.7989
127.9262,61.0332
127.8945,61.2737
127.2955,61.2737
127.2955,59.0695
127.3152,59.0025
127.3680,58.9567
127.4195,58.9455
187.0705,58.9455
Z" /> 
<path style="fill:none; 
stroke:#000000; stroke-width:0.0500; stroke-opacity:1; 
stroke-linecap:round; stroke-linejoin:round;fill:none"
d="M 126.7450,58.3950
187.7450,58.3950
187.7450,107.3950
126.7450,107.3950
Z" /> 
</g> 
</svg>
