G04 #@! TF.GenerationSoftware,KiCad,Pcbnew,8.0.5*
G04 #@! TF.CreationDate,2025-02-13T10:20:19+08:00*
G04 #@! TF.ProjectId,arduino_solar_bikelight_1,61726475-696e-46f5-9f73-6f6c61725f62,rev?*
G04 #@! TF.SameCoordinates,Original*
G04 #@! TF.FileFunction,Soldermask,Bot*
G04 #@! TF.FilePolarity,Negative*
%FSLAX46Y46*%
G04 Gerber Fmt 4.6, Leading zero omitted, Abs format (unit mm)*
G04 Created by KiCad (PCBNEW 8.0.5) date 2025-02-13 10:20:19*
%MOMM*%
%LPD*%
G01*
G04 APERTURE LIST*
G04 Aperture macros list*
%AMRoundRect*
0 Rectangle with rounded corners*
0 $1 Rounding radius*
0 $2 $3 $4 $5 $6 $7 $8 $9 X,Y pos of 4 corners*
0 Add a 4 corners polygon primitive as box body*
4,1,4,$2,$3,$4,$5,$6,$7,$8,$9,$2,$3,0*
0 Add four circle primitives for the rounded corners*
1,1,$1+$1,$2,$3*
1,1,$1+$1,$4,$5*
1,1,$1+$1,$6,$7*
1,1,$1+$1,$8,$9*
0 Add four rect primitives between the rounded corners*
20,1,$1+$1,$2,$3,$4,$5,0*
20,1,$1+$1,$4,$5,$6,$7,0*
20,1,$1+$1,$6,$7,$8,$9,0*
20,1,$1+$1,$8,$9,$2,$3,0*%
G04 Aperture macros list end*
%ADD10C,1.500000*%
%ADD11C,3.200000*%
%ADD12R,1.600000X1.600000*%
%ADD13O,1.600000X1.600000*%
%ADD14C,1.200000*%
%ADD15RoundRect,0.250000X-0.750000X0.600000X-0.750000X-0.600000X0.750000X-0.600000X0.750000X0.600000X0*%
%ADD16O,2.000000X1.700000*%
%ADD17C,1.800000*%
%ADD18O,1.700000X2.900000*%
%ADD19R,1.700000X1.700000*%
%ADD20O,1.700000X1.700000*%
%ADD21R,1.800000X1.800000*%
G04 APERTURE END LIST*
D10*
X180645000Y-112395000D03*
X180645000Y-115795000D03*
D11*
X188445000Y-115395000D03*
D12*
X159720000Y-107155000D03*
D13*
X159720000Y-104615000D03*
X159720000Y-102075000D03*
X159720000Y-99535000D03*
X159720000Y-96995000D03*
X159720000Y-94455000D03*
X159720000Y-91915000D03*
X159720000Y-89375000D03*
X159720000Y-86835000D03*
X159720000Y-84295000D03*
X159720000Y-81755000D03*
X159720000Y-79215000D03*
X159720000Y-76675000D03*
X159720000Y-74135000D03*
X159720000Y-71595000D03*
X144480000Y-71595000D03*
X144480000Y-74135000D03*
X144480000Y-76675000D03*
X144480000Y-79215000D03*
X144480000Y-81755000D03*
X144480000Y-84295000D03*
X144480000Y-86835000D03*
X144480000Y-89375000D03*
X144480000Y-91915000D03*
X144480000Y-94455000D03*
X144480000Y-96995000D03*
X144480000Y-99535000D03*
X144480000Y-102075000D03*
X144480000Y-104615000D03*
X144480000Y-107155000D03*
D11*
X144445000Y-61395000D03*
X188445000Y-61395000D03*
D14*
X185445000Y-101295000D03*
D15*
X187445000Y-102895000D03*
D16*
X187445000Y-105395000D03*
D17*
X180520000Y-72895000D03*
X189520000Y-72895000D03*
D18*
X182520000Y-79145000D03*
X182520000Y-66645000D03*
X187520000Y-79145000D03*
X187520000Y-66645000D03*
D19*
X188445000Y-85735000D03*
D20*
X188445000Y-88275000D03*
X188445000Y-90815000D03*
X188445000Y-93355000D03*
X188445000Y-95895000D03*
D11*
X144445000Y-115395000D03*
D21*
X150445000Y-94095000D03*
D17*
X152985000Y-94095000D03*
D21*
X171445000Y-94095000D03*
D17*
X173985000Y-94095000D03*
D21*
X171445000Y-108095000D03*
D17*
X173985000Y-108095000D03*
D21*
X150445000Y-80095000D03*
D17*
X152985000Y-80095000D03*
D21*
X150445000Y-108095000D03*
D17*
X152985000Y-108095000D03*
D21*
X171445000Y-66095000D03*
D17*
X173985000Y-66095000D03*
D21*
X171445000Y-80095000D03*
D17*
X173985000Y-80095000D03*
D21*
X150445000Y-66095000D03*
D17*
X152985000Y-66095000D03*
M02*
