G04 #@! TF.GenerationSoftware,KiCad,Pcbnew,8.0.5*
G04 #@! TF.CreationDate,2025-02-12T16:10:39+08:00*
G04 #@! TF.ProjectId,arduino_solar_bikelight_1,61726475-696e-46f5-9f73-6f6c61725f62,rev?*
G04 #@! TF.SameCoordinates,Original*
G04 #@! TF.FileFunction,Copper,L2,Bot*
G04 #@! TF.FilePolarity,Positive*
%FSLAX46Y46*%
G04 Gerber Fmt 4.6, Leading zero omitted, Abs format (unit mm)*
G04 Created by KiCad (PCBNEW 8.0.5) date 2025-02-12 16:10:39*
%MOMM*%
%LPD*%
G01*
G04 APERTURE LIST*
G04 Aperture macros list*
%AMRoundRect*
0 Rectangle with rounded corners*
0 $1 Rounding radius*
0 $2 $3 $4 $5 $6 $7 $8 $9 X,Y pos of 4 corners*
0 Add a 4 corners polygon primitive as box body*
4,1,4,$2,$3,$4,$5,$6,$7,$8,$9,$2,$3,0*
0 Add four circle primitives for the rounded corners*
1,1,$1+$1,$2,$3*
1,1,$1+$1,$4,$5*
1,1,$1+$1,$6,$7*
1,1,$1+$1,$8,$9*
0 Add four rect primitives between the rounded corners*
20,1,$1+$1,$2,$3,$4,$5,0*
20,1,$1+$1,$4,$5,$6,$7,0*
20,1,$1+$1,$6,$7,$8,$9,0*
20,1,$1+$1,$8,$9,$2,$3,0*%
G04 Aperture macros list end*
G04 #@! TA.AperFunction,ComponentPad*
%ADD10R,1.600000X1.600000*%
G04 #@! TD*
G04 #@! TA.AperFunction,ComponentPad*
%ADD11O,1.600000X1.600000*%
G04 #@! TD*
G04 #@! TA.AperFunction,ComponentPad*
%ADD12RoundRect,0.250000X-0.750000X0.600000X-0.750000X-0.600000X0.750000X-0.600000X0.750000X0.600000X0*%
G04 #@! TD*
G04 #@! TA.AperFunction,ComponentPad*
%ADD13O,2.000000X1.700000*%
G04 #@! TD*
G04 #@! TA.AperFunction,ComponentPad*
%ADD14O,1.700000X2.900000*%
G04 #@! TD*
G04 #@! TA.AperFunction,ComponentPad*
%ADD15R,1.700000X1.700000*%
G04 #@! TD*
G04 #@! TA.AperFunction,ComponentPad*
%ADD16O,1.700000X1.700000*%
G04 #@! TD*
G04 #@! TA.AperFunction,ComponentPad*
%ADD17R,1.800000X1.800000*%
G04 #@! TD*
G04 #@! TA.AperFunction,ComponentPad*
%ADD18C,1.800000*%
G04 #@! TD*
G04 #@! TA.AperFunction,SMDPad,CuDef*
%ADD19RoundRect,0.250000X-0.350000X-0.450000X0.350000X-0.450000X0.350000X0.450000X-0.350000X0.450000X0*%
G04 #@! TD*
G04 #@! TA.AperFunction,ViaPad*
%ADD20C,0.600000*%
G04 #@! TD*
G04 #@! TA.AperFunction,Conductor*
%ADD21C,0.800000*%
G04 #@! TD*
G04 #@! TA.AperFunction,Conductor*
%ADD22C,0.400000*%
G04 #@! TD*
G04 #@! TA.AperFunction,Conductor*
%ADD23C,0.500000*%
G04 #@! TD*
G04 APERTURE END LIST*
D10*
X159720000Y-107155000D03*
D11*
X159720000Y-104615000D03*
X159720000Y-102075000D03*
X159720000Y-99535000D03*
X159720000Y-96995000D03*
X159720000Y-94455000D03*
X159720000Y-91915000D03*
X159720000Y-89375000D03*
X159720000Y-86835000D03*
X159720000Y-84295000D03*
X159720000Y-81755000D03*
X159720000Y-79215000D03*
X159720000Y-76675000D03*
X159720000Y-74135000D03*
X159720000Y-71595000D03*
X144480000Y-71595000D03*
X144480000Y-74135000D03*
X144480000Y-76675000D03*
X144480000Y-79215000D03*
X144480000Y-81755000D03*
X144480000Y-84295000D03*
X144480000Y-86835000D03*
X144480000Y-89375000D03*
X144480000Y-91915000D03*
X144480000Y-94455000D03*
X144480000Y-96995000D03*
X144480000Y-99535000D03*
X144480000Y-102075000D03*
X144480000Y-104615000D03*
X144480000Y-107155000D03*
D12*
X187445000Y-102895000D03*
D13*
X187445000Y-105395000D03*
D14*
X182520000Y-79145000D03*
X182520000Y-66645000D03*
X187520000Y-79145000D03*
X187520000Y-66645000D03*
D15*
X188445000Y-85735000D03*
D16*
X188445000Y-88275000D03*
X188445000Y-90815000D03*
X188445000Y-93355000D03*
X188445000Y-95895000D03*
D17*
X150445000Y-94095000D03*
D18*
X152985000Y-94095000D03*
D17*
X171445000Y-94095000D03*
D18*
X173985000Y-94095000D03*
D19*
X152445000Y-85395000D03*
X154445000Y-85395000D03*
D17*
X171445000Y-108095000D03*
D18*
X173985000Y-108095000D03*
D17*
X150445000Y-80095000D03*
D18*
X152985000Y-80095000D03*
D17*
X150445000Y-108095000D03*
D18*
X152985000Y-108095000D03*
D19*
X171870000Y-71395000D03*
X173870000Y-71395000D03*
D17*
X171445000Y-66095000D03*
D18*
X173985000Y-66095000D03*
D19*
X171870000Y-113395000D03*
X173870000Y-113395000D03*
X150870000Y-71395000D03*
X152870000Y-71395000D03*
D17*
X171445000Y-80095000D03*
D18*
X173985000Y-80095000D03*
D19*
X150870000Y-113395000D03*
X152870000Y-113395000D03*
X150870000Y-99395000D03*
X152870000Y-99395000D03*
X171870000Y-99395000D03*
X173870000Y-99395000D03*
D17*
X150445000Y-66095000D03*
D18*
X152985000Y-66095000D03*
D19*
X171870000Y-85395000D03*
X173870000Y-85395000D03*
D20*
X149445000Y-89395000D03*
X162445000Y-83395000D03*
X147445000Y-112395000D03*
X162445000Y-99395000D03*
X162445000Y-91395000D03*
X182445000Y-87395000D03*
D21*
X156445000Y-94395000D02*
X150445000Y-88395000D01*
X156445000Y-105670000D02*
X150870000Y-100095000D01*
X156445000Y-105670000D02*
X156445000Y-94395000D01*
X150870000Y-114095000D02*
X150870000Y-113395000D01*
X171870000Y-113395000D02*
X169945000Y-111470000D01*
X144620000Y-99395000D02*
X144480000Y-99535000D01*
X156445000Y-115395000D02*
X156445000Y-105670000D01*
X169945000Y-87320000D02*
X171870000Y-85395000D01*
X156445000Y-78395000D02*
X156445000Y-94395000D01*
X172445000Y-115395000D02*
X156445000Y-115395000D01*
X150870000Y-99395000D02*
X144620000Y-99395000D01*
X150870000Y-72820000D02*
X156445000Y-78395000D01*
X150445000Y-88395000D02*
X149445000Y-89395000D01*
X187445000Y-102895000D02*
X174945000Y-115395000D01*
X152445000Y-85395000D02*
X152445000Y-86395000D01*
X150870000Y-100095000D02*
X150870000Y-99395000D01*
X169945000Y-87320000D02*
X169945000Y-73320000D01*
X171870000Y-113395000D02*
X171870000Y-114820000D01*
X169945000Y-111470000D02*
X169945000Y-101320000D01*
X174945000Y-115395000D02*
X172445000Y-115395000D01*
X169945000Y-101320000D02*
X171870000Y-99395000D01*
X169945000Y-73320000D02*
X171870000Y-71395000D01*
X150870000Y-71395000D02*
X150870000Y-72820000D01*
X169945000Y-101320000D02*
X169945000Y-87320000D01*
X152445000Y-86395000D02*
X150445000Y-88395000D01*
X156445000Y-115395000D02*
X152170000Y-115395000D01*
X152170000Y-115395000D02*
X150870000Y-114095000D01*
X171870000Y-114820000D02*
X172445000Y-115395000D01*
X162445000Y-83395000D02*
X162445000Y-91395000D01*
X147445000Y-112395000D02*
X142445000Y-107395000D01*
X181945000Y-60395000D02*
X165445000Y-60395000D01*
X147445000Y-112395000D02*
X152445000Y-117395000D01*
X165445000Y-60395000D02*
X162445000Y-63395000D01*
X189895000Y-79720000D02*
X189320000Y-79145000D01*
X142445000Y-107395000D02*
X142445000Y-106650000D01*
X188445000Y-95895000D02*
X189895000Y-94445000D01*
X152445000Y-117395000D02*
X175445000Y-117395000D01*
X187520000Y-66645000D02*
X187520000Y-65970000D01*
X162445000Y-63395000D02*
X162445000Y-83395000D01*
X142445000Y-106650000D02*
X144480000Y-104615000D01*
X189895000Y-94445000D02*
X189895000Y-79720000D01*
X187445000Y-105395000D02*
X188945000Y-105395000D01*
X175445000Y-117395000D02*
X187445000Y-105395000D01*
X187520000Y-65970000D02*
X181945000Y-60395000D01*
X162445000Y-91395000D02*
X162445000Y-99395000D01*
X189445000Y-95895000D02*
X188445000Y-95895000D01*
X189320000Y-79145000D02*
X187520000Y-79145000D01*
X190445000Y-103895000D02*
X190445000Y-96895000D01*
X190445000Y-96895000D02*
X189445000Y-95895000D01*
X188945000Y-105395000D02*
X190445000Y-103895000D01*
D22*
X180445000Y-84395000D02*
X180445000Y-87395000D01*
X181445000Y-90395000D02*
X184445000Y-93395000D01*
X188405000Y-93395000D02*
X188445000Y-93355000D01*
X182520000Y-82320000D02*
X180445000Y-84395000D01*
X181445000Y-88395000D02*
X181445000Y-90395000D01*
X180445000Y-87395000D02*
X181445000Y-88395000D01*
X182520000Y-79145000D02*
X182520000Y-82320000D01*
X184445000Y-93395000D02*
X188405000Y-93395000D01*
D23*
X173985000Y-71280000D02*
X173870000Y-71395000D01*
X173985000Y-66095000D02*
X173985000Y-71280000D01*
X173985000Y-108095000D02*
X173985000Y-113280000D01*
X173985000Y-113280000D02*
X173870000Y-113395000D01*
X173870000Y-85395000D02*
X173870000Y-80210000D01*
X173870000Y-80210000D02*
X173985000Y-80095000D01*
X173985000Y-94095000D02*
X173985000Y-99280000D01*
X173985000Y-99280000D02*
X173870000Y-99395000D01*
X152985000Y-66095000D02*
X152985000Y-71280000D01*
X152985000Y-71280000D02*
X152870000Y-71395000D01*
X152985000Y-94095000D02*
X152985000Y-99280000D01*
X152985000Y-99280000D02*
X152870000Y-99395000D01*
X152985000Y-108095000D02*
X152985000Y-113280000D01*
X152985000Y-113280000D02*
X152870000Y-113395000D01*
D21*
X185445000Y-65895000D02*
X181945000Y-62395000D01*
X175145000Y-62395000D02*
X171445000Y-66095000D01*
X188445000Y-85735000D02*
X188445000Y-83315000D01*
X186070000Y-80940000D02*
X186070000Y-77020000D01*
X185445000Y-76395000D02*
X185445000Y-65895000D01*
X188445000Y-83315000D02*
X186070000Y-80940000D01*
X181945000Y-62395000D02*
X175145000Y-62395000D01*
X186070000Y-77020000D02*
X185445000Y-76395000D01*
X188445000Y-88275000D02*
X186325000Y-88275000D01*
X186325000Y-88275000D02*
X184445000Y-86395000D01*
X184445000Y-75927969D02*
X183912031Y-75395000D01*
X176145000Y-75395000D02*
X171445000Y-80095000D01*
X183912031Y-75395000D02*
X176145000Y-75395000D01*
X184445000Y-86395000D02*
X184445000Y-75927969D01*
X182445000Y-88895000D02*
X182445000Y-87395000D01*
X188445000Y-90815000D02*
X184365000Y-90815000D01*
X184365000Y-90815000D02*
X182445000Y-88895000D01*
D23*
X154445000Y-81555000D02*
X154445000Y-85395000D01*
X152985000Y-80095000D02*
X154445000Y-81555000D01*
G04 #@! TA.AperFunction,Conductor*
G36*
X190887539Y-58915185D02*
G01*
X190933294Y-58967989D01*
X190944500Y-59019500D01*
X190944500Y-117770500D01*
X190924815Y-117837539D01*
X190872011Y-117883294D01*
X190820500Y-117894500D01*
X142069500Y-117894500D01*
X142002461Y-117874815D01*
X141956706Y-117822011D01*
X141945500Y-117770500D01*
X141945500Y-115273711D01*
X142594500Y-115273711D01*
X142594500Y-115516288D01*
X142626161Y-115756785D01*
X142688947Y-115991104D01*
X142781773Y-116215205D01*
X142781776Y-116215212D01*
X142903064Y-116425289D01*
X142903066Y-116425292D01*
X142903067Y-116425293D01*
X143050733Y-116617736D01*
X143050739Y-116617743D01*
X143222256Y-116789260D01*
X143222262Y-116789265D01*
X143414711Y-116936936D01*
X143624788Y-117058224D01*
X143848900Y-117151054D01*
X144083211Y-117213838D01*
X144263586Y-117237584D01*
X144323711Y-117245500D01*
X144323712Y-117245500D01*
X144566289Y-117245500D01*
X144614388Y-117239167D01*
X144806789Y-117213838D01*
X145041100Y-117151054D01*
X145265212Y-117058224D01*
X145475289Y-116936936D01*
X145667738Y-116789265D01*
X145839265Y-116617738D01*
X145986936Y-116425289D01*
X146108224Y-116215212D01*
X146201054Y-115991100D01*
X146263838Y-115756789D01*
X146295500Y-115516288D01*
X146295500Y-115273712D01*
X146263838Y-115033211D01*
X146201054Y-114798900D01*
X146199231Y-114794500D01*
X146177046Y-114740939D01*
X146108224Y-114574788D01*
X145986936Y-114364711D01*
X145839265Y-114172262D01*
X145839260Y-114172256D01*
X145667743Y-114000739D01*
X145667736Y-114000733D01*
X145475293Y-113853067D01*
X145475292Y-113853066D01*
X145475289Y-113853064D01*
X145265212Y-113731776D01*
X145265205Y-113731773D01*
X145041104Y-113638947D01*
X144806785Y-113576161D01*
X144566289Y-113544500D01*
X144566288Y-113544500D01*
X144323712Y-113544500D01*
X144323711Y-113544500D01*
X144083214Y-113576161D01*
X143848895Y-113638947D01*
X143624794Y-113731773D01*
X143624785Y-113731777D01*
X143414706Y-113853067D01*
X143222263Y-114000733D01*
X143222256Y-114000739D01*
X143050739Y-114172256D01*
X143050733Y-114172263D01*
X142903067Y-114364706D01*
X142903064Y-114364710D01*
X142903064Y-114364711D01*
X142886817Y-114392851D01*
X142781777Y-114574785D01*
X142781773Y-114574794D01*
X142688947Y-114798895D01*
X142626161Y-115033214D01*
X142594500Y-115273711D01*
X141945500Y-115273711D01*
X141945500Y-107155000D01*
X143474659Y-107155000D01*
X143493975Y-107351129D01*
X143493976Y-107351132D01*
X143543132Y-107513178D01*
X143551188Y-107539733D01*
X143644086Y-107713532D01*
X143644090Y-107713539D01*
X143769116Y-107865883D01*
X143921460Y-107990909D01*
X143921467Y-107990913D01*
X144095266Y-108083811D01*
X144095269Y-108083811D01*
X144095273Y-108083814D01*
X144283868Y-108141024D01*
X144480000Y-108160341D01*
X144676132Y-108141024D01*
X144864727Y-108083814D01*
X145038538Y-107990910D01*
X145190883Y-107865883D01*
X145315910Y-107713538D01*
X145408814Y-107539727D01*
X145466024Y-107351132D01*
X145483347Y-107175247D01*
X149344500Y-107175247D01*
X149344500Y-109014752D01*
X149356131Y-109073229D01*
X149356132Y-109073230D01*
X149400447Y-109139552D01*
X149466769Y-109183867D01*
X149466770Y-109183868D01*
X149525247Y-109195499D01*
X149525250Y-109195500D01*
X149525252Y-109195500D01*
X151364750Y-109195500D01*
X151364751Y-109195499D01*
X151379568Y-109192552D01*
X151423229Y-109183868D01*
X151423229Y-109183867D01*
X151423231Y-109183867D01*
X151489552Y-109139552D01*
X151533867Y-109073231D01*
X151533867Y-109073229D01*
X151533868Y-109073229D01*
X151545499Y-109014752D01*
X151545500Y-109014750D01*
X151545500Y-108094999D01*
X151879785Y-108094999D01*
X151879785Y-108095000D01*
X151898602Y-108298082D01*
X151954417Y-108494247D01*
X151954422Y-108494260D01*
X152045327Y-108676821D01*
X152168237Y-108839581D01*
X152318958Y-108976980D01*
X152318960Y-108976982D01*
X152379955Y-109014748D01*
X152475777Y-109074078D01*
X152522413Y-109126105D01*
X152534500Y-109179505D01*
X152534500Y-112375847D01*
X152514815Y-112442886D01*
X152462011Y-112488641D01*
X152436963Y-112496990D01*
X152435301Y-112497352D01*
X152307119Y-112542206D01*
X152307117Y-112542207D01*
X152197850Y-112622850D01*
X152117207Y-112732117D01*
X152117206Y-112732119D01*
X152072353Y-112860298D01*
X152072353Y-112860300D01*
X152069500Y-112890730D01*
X152069500Y-113899269D01*
X152072353Y-113929699D01*
X152072353Y-113929701D01*
X152099649Y-114007705D01*
X152117207Y-114057882D01*
X152197850Y-114167150D01*
X152307118Y-114247793D01*
X152345559Y-114261244D01*
X152435299Y-114292646D01*
X152465730Y-114295500D01*
X152465734Y-114295500D01*
X153274270Y-114295500D01*
X153304699Y-114292646D01*
X153304701Y-114292646D01*
X153368790Y-114270219D01*
X153432882Y-114247793D01*
X153542150Y-114167150D01*
X153622793Y-114057882D01*
X153663907Y-113940385D01*
X153667646Y-113929701D01*
X153667646Y-113929699D01*
X153670500Y-113899269D01*
X153670500Y-112890730D01*
X153667646Y-112860300D01*
X153667646Y-112860298D01*
X153622793Y-112732119D01*
X153622792Y-112732117D01*
X153542149Y-112622849D01*
X153485865Y-112581309D01*
X153443615Y-112525661D01*
X153435500Y-112481540D01*
X153435500Y-109179505D01*
X153455185Y-109112466D01*
X153494221Y-109074079D01*
X153651041Y-108976981D01*
X153801764Y-108839579D01*
X153924673Y-108676821D01*
X154015582Y-108494250D01*
X154071397Y-108298083D01*
X154090215Y-108095000D01*
X154089178Y-108083814D01*
X154071397Y-107891917D01*
X154020641Y-107713532D01*
X154015582Y-107695750D01*
X153924673Y-107513179D01*
X153801764Y-107350421D01*
X153801762Y-107350418D01*
X153651041Y-107213019D01*
X153651039Y-107213017D01*
X153477642Y-107105655D01*
X153477635Y-107105651D01*
X153335135Y-107050447D01*
X153287456Y-107031976D01*
X153086976Y-106994500D01*
X152883024Y-106994500D01*
X152682544Y-107031976D01*
X152682541Y-107031976D01*
X152682541Y-107031977D01*
X152492364Y-107105651D01*
X152492357Y-107105655D01*
X152318960Y-107213017D01*
X152318958Y-107213019D01*
X152168237Y-107350418D01*
X152045327Y-107513178D01*
X151954422Y-107695739D01*
X151954417Y-107695752D01*
X151898602Y-107891917D01*
X151879785Y-108094999D01*
X151545500Y-108094999D01*
X151545500Y-107175249D01*
X151545499Y-107175247D01*
X151533868Y-107116770D01*
X151533867Y-107116769D01*
X151489552Y-107050447D01*
X151423230Y-107006132D01*
X151423229Y-107006131D01*
X151364752Y-106994500D01*
X151364748Y-106994500D01*
X149525252Y-106994500D01*
X149525247Y-106994500D01*
X149466770Y-107006131D01*
X149466769Y-107006132D01*
X149400447Y-107050447D01*
X149356132Y-107116769D01*
X149356131Y-107116770D01*
X149344500Y-107175247D01*
X145483347Y-107175247D01*
X145485341Y-107155000D01*
X145466024Y-106958868D01*
X145408814Y-106770273D01*
X145408811Y-106770269D01*
X145408811Y-106770266D01*
X145315913Y-106596467D01*
X145315909Y-106596460D01*
X145190883Y-106444116D01*
X145038539Y-106319090D01*
X145038532Y-106319086D01*
X144864733Y-106226188D01*
X144864727Y-106226186D01*
X144676132Y-106168976D01*
X144676129Y-106168975D01*
X144480000Y-106149659D01*
X144283870Y-106168975D01*
X144095266Y-106226188D01*
X143921467Y-106319086D01*
X143921460Y-106319090D01*
X143769116Y-106444116D01*
X143644090Y-106596460D01*
X143644086Y-106596467D01*
X143551188Y-106770266D01*
X143493975Y-106958870D01*
X143474659Y-107155000D01*
X141945500Y-107155000D01*
X141945500Y-104364999D01*
X143201127Y-104364999D01*
X143201128Y-104365000D01*
X144046988Y-104365000D01*
X144014075Y-104422007D01*
X143980000Y-104549174D01*
X143980000Y-104680826D01*
X144014075Y-104807993D01*
X144046988Y-104865000D01*
X143201128Y-104865000D01*
X143253730Y-105061317D01*
X143253734Y-105061326D01*
X143349865Y-105267482D01*
X143480342Y-105453820D01*
X143641179Y-105614657D01*
X143827517Y-105745134D01*
X144033673Y-105841265D01*
X144033682Y-105841269D01*
X144229999Y-105893872D01*
X144230000Y-105893871D01*
X144230000Y-105048012D01*
X144287007Y-105080925D01*
X144414174Y-105115000D01*
X144545826Y-105115000D01*
X144672993Y-105080925D01*
X144730000Y-105048012D01*
X144730000Y-105893872D01*
X144926317Y-105841269D01*
X144926326Y-105841265D01*
X145132482Y-105745134D01*
X145318820Y-105614657D01*
X145479657Y-105453820D01*
X145610134Y-105267482D01*
X145706265Y-105061326D01*
X145706269Y-105061317D01*
X145758872Y-104865000D01*
X144913012Y-104865000D01*
X144945925Y-104807993D01*
X144980000Y-104680826D01*
X144980000Y-104549174D01*
X144945925Y-104422007D01*
X144913012Y-104365000D01*
X145758872Y-104365000D01*
X145758872Y-104364999D01*
X145706269Y-104168682D01*
X145706265Y-104168673D01*
X145610134Y-103962517D01*
X145479657Y-103776179D01*
X145318820Y-103615342D01*
X145132482Y-103484865D01*
X144926328Y-103388734D01*
X144730000Y-103336127D01*
X144730000Y-104181988D01*
X144672993Y-104149075D01*
X144545826Y-104115000D01*
X144414174Y-104115000D01*
X144287007Y-104149075D01*
X144230000Y-104181988D01*
X144230000Y-103336127D01*
X144033671Y-103388734D01*
X143827517Y-103484865D01*
X143641179Y-103615342D01*
X143480342Y-103776179D01*
X143349865Y-103962517D01*
X143253734Y-104168673D01*
X143253730Y-104168682D01*
X143201127Y-104364999D01*
X141945500Y-104364999D01*
X141945500Y-102075000D01*
X143474659Y-102075000D01*
X143493975Y-102271129D01*
X143551188Y-102459733D01*
X143644086Y-102633532D01*
X143644090Y-102633539D01*
X143769116Y-102785883D01*
X143921460Y-102910909D01*
X143921467Y-102910913D01*
X144095266Y-103003811D01*
X144095269Y-103003811D01*
X144095273Y-103003814D01*
X144283868Y-103061024D01*
X144480000Y-103080341D01*
X144676132Y-103061024D01*
X144864727Y-103003814D01*
X145038538Y-102910910D01*
X145190883Y-102785883D01*
X145315910Y-102633538D01*
X145408814Y-102459727D01*
X145466024Y-102271132D01*
X145485341Y-102075000D01*
X145466024Y-101878868D01*
X145408814Y-101690273D01*
X145408811Y-101690269D01*
X145408811Y-101690266D01*
X145315913Y-101516467D01*
X145315909Y-101516460D01*
X145190883Y-101364116D01*
X145038539Y-101239090D01*
X145038532Y-101239086D01*
X144864733Y-101146188D01*
X144864727Y-101146186D01*
X144676132Y-101088976D01*
X144676129Y-101088975D01*
X144480000Y-101069659D01*
X144283870Y-101088975D01*
X144095266Y-101146188D01*
X143921467Y-101239086D01*
X143921460Y-101239090D01*
X143769116Y-101364116D01*
X143644090Y-101516460D01*
X143644086Y-101516467D01*
X143551188Y-101690266D01*
X143493975Y-101878870D01*
X143474659Y-102075000D01*
X141945500Y-102075000D01*
X141945500Y-99535000D01*
X143474659Y-99535000D01*
X143493975Y-99731129D01*
X143551188Y-99919733D01*
X143644086Y-100093532D01*
X143644090Y-100093539D01*
X143769116Y-100245883D01*
X143921460Y-100370909D01*
X143921467Y-100370913D01*
X144095266Y-100463811D01*
X144095269Y-100463811D01*
X144095273Y-100463814D01*
X144283868Y-100521024D01*
X144480000Y-100540341D01*
X144676132Y-100521024D01*
X144864727Y-100463814D01*
X144864909Y-100463717D01*
X144951632Y-100417362D01*
X145038538Y-100370910D01*
X145190883Y-100245883D01*
X145315910Y-100093538D01*
X145333277Y-100061047D01*
X145382239Y-100011203D01*
X145442635Y-99995500D01*
X150009520Y-99995500D01*
X150076559Y-100015185D01*
X150110031Y-100051628D01*
X150111689Y-100050405D01*
X150117206Y-100057880D01*
X150117207Y-100057882D01*
X150197850Y-100167150D01*
X150249943Y-100205596D01*
X150292193Y-100261244D01*
X150296079Y-100273258D01*
X150310423Y-100326785D01*
X150335898Y-100370909D01*
X150335900Y-100370911D01*
X150389479Y-100463714D01*
X150389481Y-100463717D01*
X150508349Y-100582585D01*
X150508355Y-100582590D01*
X155808181Y-105882416D01*
X155841666Y-105943739D01*
X155844500Y-105970097D01*
X155844500Y-114670500D01*
X155824815Y-114737539D01*
X155772011Y-114783294D01*
X155720500Y-114794500D01*
X152470098Y-114794500D01*
X152403059Y-114774815D01*
X152382417Y-114758181D01*
X151693263Y-114069028D01*
X151659778Y-114007705D01*
X151663904Y-113940391D01*
X151667646Y-113929699D01*
X151670500Y-113899266D01*
X151670500Y-112890734D01*
X151667646Y-112860301D01*
X151667646Y-112860300D01*
X151667646Y-112860298D01*
X151622793Y-112732119D01*
X151622792Y-112732117D01*
X151542150Y-112622850D01*
X151432882Y-112542207D01*
X151432880Y-112542206D01*
X151304700Y-112497353D01*
X151274270Y-112494500D01*
X151274266Y-112494500D01*
X150465734Y-112494500D01*
X150465730Y-112494500D01*
X150435300Y-112497353D01*
X150435298Y-112497353D01*
X150307119Y-112542206D01*
X150307117Y-112542207D01*
X150197850Y-112622850D01*
X150117207Y-112732117D01*
X150117206Y-112732119D01*
X150072353Y-112860298D01*
X150072353Y-112860300D01*
X150069500Y-112890730D01*
X150069500Y-113899269D01*
X150072353Y-113929699D01*
X150072353Y-113929701D01*
X150099649Y-114007705D01*
X150117207Y-114057882D01*
X150197850Y-114167150D01*
X150249943Y-114205596D01*
X150292193Y-114261244D01*
X150296079Y-114273258D01*
X150310423Y-114326785D01*
X150332317Y-114364706D01*
X150332319Y-114364709D01*
X150332321Y-114364712D01*
X150389479Y-114463714D01*
X150389481Y-114463717D01*
X150508349Y-114582585D01*
X150508354Y-114582589D01*
X151801284Y-115875520D01*
X151801286Y-115875521D01*
X151801290Y-115875524D01*
X151938209Y-115954573D01*
X151938216Y-115954577D01*
X152090943Y-115995501D01*
X152090945Y-115995501D01*
X152256654Y-115995501D01*
X152256670Y-115995500D01*
X156365943Y-115995500D01*
X172358331Y-115995500D01*
X172358347Y-115995501D01*
X172365943Y-115995501D01*
X172531654Y-115995501D01*
X172531670Y-115995500D01*
X174858331Y-115995500D01*
X174858347Y-115995501D01*
X174865943Y-115995501D01*
X175024054Y-115995501D01*
X175024057Y-115995501D01*
X175176785Y-115954577D01*
X175226904Y-115925639D01*
X175313716Y-115875520D01*
X175425520Y-115763716D01*
X175425520Y-115763714D01*
X175435728Y-115753507D01*
X175435729Y-115753504D01*
X175915522Y-115273711D01*
X186594500Y-115273711D01*
X186594500Y-115516288D01*
X186626161Y-115756785D01*
X186688947Y-115991104D01*
X186781773Y-116215205D01*
X186781776Y-116215212D01*
X186903064Y-116425289D01*
X186903066Y-116425292D01*
X186903067Y-116425293D01*
X187050733Y-116617736D01*
X187050739Y-116617743D01*
X187222256Y-116789260D01*
X187222262Y-116789265D01*
X187414711Y-116936936D01*
X187624788Y-117058224D01*
X187848900Y-117151054D01*
X188083211Y-117213838D01*
X188263586Y-117237584D01*
X188323711Y-117245500D01*
X188323712Y-117245500D01*
X188566289Y-117245500D01*
X188614388Y-117239167D01*
X188806789Y-117213838D01*
X189041100Y-117151054D01*
X189265212Y-117058224D01*
X189475289Y-116936936D01*
X189667738Y-116789265D01*
X189839265Y-116617738D01*
X189986936Y-116425289D01*
X190108224Y-116215212D01*
X190201054Y-115991100D01*
X190263838Y-115756789D01*
X190295500Y-115516288D01*
X190295500Y-115273712D01*
X190263838Y-115033211D01*
X190201054Y-114798900D01*
X190199231Y-114794500D01*
X190177046Y-114740939D01*
X190108224Y-114574788D01*
X189986936Y-114364711D01*
X189839265Y-114172262D01*
X189839260Y-114172256D01*
X189667743Y-114000739D01*
X189667736Y-114000733D01*
X189475293Y-113853067D01*
X189475292Y-113853066D01*
X189475289Y-113853064D01*
X189265212Y-113731776D01*
X189265205Y-113731773D01*
X189041104Y-113638947D01*
X188806785Y-113576161D01*
X188566289Y-113544500D01*
X188566288Y-113544500D01*
X188323712Y-113544500D01*
X188323711Y-113544500D01*
X188083214Y-113576161D01*
X187848895Y-113638947D01*
X187624794Y-113731773D01*
X187624785Y-113731777D01*
X187414706Y-113853067D01*
X187222263Y-114000733D01*
X187222256Y-114000739D01*
X187050739Y-114172256D01*
X187050733Y-114172263D01*
X186903067Y-114364706D01*
X186903064Y-114364710D01*
X186903064Y-114364711D01*
X186886817Y-114392851D01*
X186781777Y-114574785D01*
X186781773Y-114574794D01*
X186688947Y-114798895D01*
X186626161Y-115033214D01*
X186594500Y-115273711D01*
X175915522Y-115273711D01*
X185737781Y-105451454D01*
X185799098Y-105417973D01*
X185868790Y-105422957D01*
X185924723Y-105464829D01*
X185947929Y-105519741D01*
X185978242Y-105711127D01*
X185978242Y-105711130D01*
X186043904Y-105913217D01*
X186140379Y-106102557D01*
X186265272Y-106274459D01*
X186265276Y-106274464D01*
X186415535Y-106424723D01*
X186415540Y-106424727D01*
X186587442Y-106549620D01*
X186776782Y-106646095D01*
X186978870Y-106711757D01*
X187188754Y-106745000D01*
X187195000Y-106745000D01*
X187195000Y-105828012D01*
X187252007Y-105860925D01*
X187379174Y-105895000D01*
X187510826Y-105895000D01*
X187637993Y-105860925D01*
X187695000Y-105828012D01*
X187695000Y-106745000D01*
X187701246Y-106745000D01*
X187911127Y-106711757D01*
X187911130Y-106711757D01*
X188113217Y-106646095D01*
X188302557Y-106549620D01*
X188474459Y-106424727D01*
X188474464Y-106424723D01*
X188624723Y-106274464D01*
X188624727Y-106274459D01*
X188749620Y-106102557D01*
X188846095Y-105913217D01*
X188911757Y-105711129D01*
X188911757Y-105711126D01*
X188922231Y-105645000D01*
X187878012Y-105645000D01*
X187910925Y-105587993D01*
X187945000Y-105460826D01*
X187945000Y-105329174D01*
X187910925Y-105202007D01*
X187878012Y-105145000D01*
X188922231Y-105145000D01*
X188911757Y-105078873D01*
X188911757Y-105078870D01*
X188846095Y-104876782D01*
X188749620Y-104687442D01*
X188624727Y-104515540D01*
X188624723Y-104515535D01*
X188474464Y-104365276D01*
X188474459Y-104365272D01*
X188302557Y-104240379D01*
X188184029Y-104179985D01*
X188133233Y-104132010D01*
X188116438Y-104064189D01*
X188138976Y-103998054D01*
X188193691Y-103954603D01*
X188240324Y-103945500D01*
X188249270Y-103945500D01*
X188279699Y-103942646D01*
X188279701Y-103942646D01*
X188343790Y-103920219D01*
X188407882Y-103897793D01*
X188517150Y-103817150D01*
X188597793Y-103707882D01*
X188632163Y-103609659D01*
X188642646Y-103579701D01*
X188642646Y-103579699D01*
X188645500Y-103549269D01*
X188645500Y-102240730D01*
X188642646Y-102210300D01*
X188642646Y-102210298D01*
X188597793Y-102082119D01*
X188597792Y-102082117D01*
X188517150Y-101972850D01*
X188407882Y-101892207D01*
X188407880Y-101892206D01*
X188279700Y-101847353D01*
X188249270Y-101844500D01*
X188249266Y-101844500D01*
X186640734Y-101844500D01*
X186640730Y-101844500D01*
X186610300Y-101847353D01*
X186610298Y-101847353D01*
X186482119Y-101892206D01*
X186482117Y-101892207D01*
X186372850Y-101972850D01*
X186292207Y-102082117D01*
X186292206Y-102082119D01*
X186247353Y-102210298D01*
X186247353Y-102210300D01*
X186244500Y-102240730D01*
X186244500Y-103194902D01*
X186224815Y-103261941D01*
X186208181Y-103282583D01*
X174732584Y-114758181D01*
X174671261Y-114791666D01*
X174644903Y-114794500D01*
X172745098Y-114794500D01*
X172678059Y-114774815D01*
X172657417Y-114758181D01*
X172506819Y-114607583D01*
X172473334Y-114546260D01*
X172470500Y-114519902D01*
X172470500Y-114282628D01*
X172490185Y-114215589D01*
X172520866Y-114182857D01*
X172542150Y-114167150D01*
X172622793Y-114057882D01*
X172663907Y-113940385D01*
X172667646Y-113929701D01*
X172667646Y-113929699D01*
X172670500Y-113899269D01*
X172670500Y-112890730D01*
X172667646Y-112860300D01*
X172667646Y-112860298D01*
X172622793Y-112732119D01*
X172622792Y-112732117D01*
X172542150Y-112622850D01*
X172432882Y-112542207D01*
X172432880Y-112542206D01*
X172304700Y-112497353D01*
X172274270Y-112494500D01*
X172274266Y-112494500D01*
X171870097Y-112494500D01*
X171803058Y-112474815D01*
X171782416Y-112458181D01*
X170581819Y-111257584D01*
X170548334Y-111196261D01*
X170545500Y-111169903D01*
X170545500Y-109319500D01*
X170565185Y-109252461D01*
X170617989Y-109206706D01*
X170669500Y-109195500D01*
X172364750Y-109195500D01*
X172364751Y-109195499D01*
X172379568Y-109192552D01*
X172423229Y-109183868D01*
X172423229Y-109183867D01*
X172423231Y-109183867D01*
X172489552Y-109139552D01*
X172533867Y-109073231D01*
X172533867Y-109073229D01*
X172533868Y-109073229D01*
X172545499Y-109014752D01*
X172545500Y-109014750D01*
X172545500Y-108094999D01*
X172879785Y-108094999D01*
X172879785Y-108095000D01*
X172898602Y-108298082D01*
X172954417Y-108494247D01*
X172954422Y-108494260D01*
X173045327Y-108676821D01*
X173168237Y-108839581D01*
X173318958Y-108976980D01*
X173318960Y-108976982D01*
X173379955Y-109014748D01*
X173475777Y-109074078D01*
X173522413Y-109126105D01*
X173534500Y-109179505D01*
X173534500Y-112375847D01*
X173514815Y-112442886D01*
X173462011Y-112488641D01*
X173436963Y-112496990D01*
X173435301Y-112497352D01*
X173307119Y-112542206D01*
X173307117Y-112542207D01*
X173197850Y-112622850D01*
X173117207Y-112732117D01*
X173117206Y-112732119D01*
X173072353Y-112860298D01*
X173072353Y-112860300D01*
X173069500Y-112890730D01*
X173069500Y-113899269D01*
X173072353Y-113929699D01*
X173072353Y-113929701D01*
X173099649Y-114007705D01*
X173117207Y-114057882D01*
X173197850Y-114167150D01*
X173307118Y-114247793D01*
X173345559Y-114261244D01*
X173435299Y-114292646D01*
X173465730Y-114295500D01*
X173465734Y-114295500D01*
X174274270Y-114295500D01*
X174304699Y-114292646D01*
X174304701Y-114292646D01*
X174368790Y-114270219D01*
X174432882Y-114247793D01*
X174542150Y-114167150D01*
X174622793Y-114057882D01*
X174663907Y-113940385D01*
X174667646Y-113929701D01*
X174667646Y-113929699D01*
X174670500Y-113899269D01*
X174670500Y-112890730D01*
X174667646Y-112860300D01*
X174667646Y-112860298D01*
X174622793Y-112732119D01*
X174622792Y-112732117D01*
X174542149Y-112622849D01*
X174485865Y-112581309D01*
X174443615Y-112525661D01*
X174435500Y-112481540D01*
X174435500Y-109179505D01*
X174455185Y-109112466D01*
X174494221Y-109074079D01*
X174651041Y-108976981D01*
X174801764Y-108839579D01*
X174924673Y-108676821D01*
X175015582Y-108494250D01*
X175071397Y-108298083D01*
X175090215Y-108095000D01*
X175089178Y-108083814D01*
X175071397Y-107891917D01*
X175020641Y-107713532D01*
X175015582Y-107695750D01*
X174924673Y-107513179D01*
X174801764Y-107350421D01*
X174801762Y-107350418D01*
X174651041Y-107213019D01*
X174651039Y-107213017D01*
X174477642Y-107105655D01*
X174477635Y-107105651D01*
X174335135Y-107050447D01*
X174287456Y-107031976D01*
X174086976Y-106994500D01*
X173883024Y-106994500D01*
X173682544Y-107031976D01*
X173682541Y-107031976D01*
X173682541Y-107031977D01*
X173492364Y-107105651D01*
X173492357Y-107105655D01*
X173318960Y-107213017D01*
X173318958Y-107213019D01*
X173168237Y-107350418D01*
X173045327Y-107513178D01*
X172954422Y-107695739D01*
X172954417Y-107695752D01*
X172898602Y-107891917D01*
X172879785Y-108094999D01*
X172545500Y-108094999D01*
X172545500Y-107175249D01*
X172545499Y-107175247D01*
X172533868Y-107116770D01*
X172533867Y-107116769D01*
X172489552Y-107050447D01*
X172423230Y-107006132D01*
X172423229Y-107006131D01*
X172364752Y-106994500D01*
X172364748Y-106994500D01*
X170669500Y-106994500D01*
X170602461Y-106974815D01*
X170556706Y-106922011D01*
X170545500Y-106870500D01*
X170545500Y-101620097D01*
X170565185Y-101553058D01*
X170581819Y-101532416D01*
X170903007Y-101211228D01*
X184594500Y-101211228D01*
X184594500Y-101378771D01*
X184627182Y-101543074D01*
X184627184Y-101543082D01*
X184691295Y-101697860D01*
X184784373Y-101837162D01*
X184902837Y-101955626D01*
X184928615Y-101972850D01*
X185042137Y-102048703D01*
X185196918Y-102112816D01*
X185361228Y-102145499D01*
X185361232Y-102145500D01*
X185361233Y-102145500D01*
X185528768Y-102145500D01*
X185528769Y-102145499D01*
X185693082Y-102112816D01*
X185847863Y-102048703D01*
X185987162Y-101955626D01*
X186105626Y-101837162D01*
X186198703Y-101697863D01*
X186262816Y-101543082D01*
X186295500Y-101378767D01*
X186295500Y-101211233D01*
X186262816Y-101046918D01*
X186198703Y-100892137D01*
X186146407Y-100813871D01*
X186105626Y-100752837D01*
X185987162Y-100634373D01*
X185847860Y-100541295D01*
X185693082Y-100477184D01*
X185693074Y-100477182D01*
X185528771Y-100444500D01*
X185528767Y-100444500D01*
X185361233Y-100444500D01*
X185361228Y-100444500D01*
X185196925Y-100477182D01*
X185196917Y-100477184D01*
X185042139Y-100541295D01*
X184902837Y-100634373D01*
X184784373Y-100752837D01*
X184691295Y-100892139D01*
X184627184Y-101046917D01*
X184627182Y-101046925D01*
X184594500Y-101211228D01*
X170903007Y-101211228D01*
X171782416Y-100331819D01*
X171843739Y-100298334D01*
X171870097Y-100295500D01*
X172274270Y-100295500D01*
X172304699Y-100292646D01*
X172304701Y-100292646D01*
X172368790Y-100270219D01*
X172432882Y-100247793D01*
X172542150Y-100167150D01*
X172622793Y-100057882D01*
X172663907Y-99940385D01*
X172667646Y-99929701D01*
X172667646Y-99929699D01*
X172670500Y-99899269D01*
X172670500Y-98890730D01*
X172667646Y-98860300D01*
X172667646Y-98860298D01*
X172622793Y-98732119D01*
X172622792Y-98732117D01*
X172598414Y-98699086D01*
X172542150Y-98622850D01*
X172432882Y-98542207D01*
X172432880Y-98542206D01*
X172304700Y-98497353D01*
X172274270Y-98494500D01*
X172274266Y-98494500D01*
X171465734Y-98494500D01*
X171465730Y-98494500D01*
X171435300Y-98497353D01*
X171435298Y-98497353D01*
X171307119Y-98542206D01*
X171307117Y-98542207D01*
X171197850Y-98622850D01*
X171117207Y-98732117D01*
X171117206Y-98732119D01*
X171072353Y-98860298D01*
X171072353Y-98860300D01*
X171069500Y-98890730D01*
X171069500Y-99294903D01*
X171049815Y-99361942D01*
X171033181Y-99382584D01*
X170757181Y-99658584D01*
X170695858Y-99692069D01*
X170626166Y-99687085D01*
X170570233Y-99645213D01*
X170545816Y-99579749D01*
X170545500Y-99570903D01*
X170545500Y-95319500D01*
X170565185Y-95252461D01*
X170617989Y-95206706D01*
X170669500Y-95195500D01*
X172364750Y-95195500D01*
X172364751Y-95195499D01*
X172379568Y-95192552D01*
X172423229Y-95183868D01*
X172423229Y-95183867D01*
X172423231Y-95183867D01*
X172489552Y-95139552D01*
X172533867Y-95073231D01*
X172533867Y-95073229D01*
X172533868Y-95073229D01*
X172543674Y-95023926D01*
X172545500Y-95014748D01*
X172545500Y-94094999D01*
X172879785Y-94094999D01*
X172879785Y-94095000D01*
X172898602Y-94298082D01*
X172954417Y-94494247D01*
X172954422Y-94494260D01*
X173045327Y-94676821D01*
X173168237Y-94839581D01*
X173318958Y-94976980D01*
X173318960Y-94976982D01*
X173377991Y-95013532D01*
X173475777Y-95074078D01*
X173522413Y-95126105D01*
X173534500Y-95179505D01*
X173534500Y-98375847D01*
X173514815Y-98442886D01*
X173462011Y-98488641D01*
X173436963Y-98496990D01*
X173435301Y-98497352D01*
X173307119Y-98542206D01*
X173307117Y-98542207D01*
X173197850Y-98622850D01*
X173117207Y-98732117D01*
X173117206Y-98732119D01*
X173072353Y-98860298D01*
X173072353Y-98860300D01*
X173069500Y-98890730D01*
X173069500Y-99899269D01*
X173072353Y-99929699D01*
X173072353Y-99929701D01*
X173117206Y-100057880D01*
X173117207Y-100057882D01*
X173197850Y-100167150D01*
X173307118Y-100247793D01*
X173345559Y-100261244D01*
X173435299Y-100292646D01*
X173465730Y-100295500D01*
X173465734Y-100295500D01*
X174274270Y-100295500D01*
X174304699Y-100292646D01*
X174304701Y-100292646D01*
X174368790Y-100270219D01*
X174432882Y-100247793D01*
X174542150Y-100167150D01*
X174622793Y-100057882D01*
X174663907Y-99940385D01*
X174667646Y-99929701D01*
X174667646Y-99929699D01*
X174670500Y-99899269D01*
X174670500Y-98890730D01*
X174667646Y-98860300D01*
X174667646Y-98860298D01*
X174622793Y-98732119D01*
X174622792Y-98732117D01*
X174542149Y-98622849D01*
X174485865Y-98581309D01*
X174443615Y-98525661D01*
X174435500Y-98481540D01*
X174435500Y-95179505D01*
X174455185Y-95112466D01*
X174494221Y-95074079D01*
X174651041Y-94976981D01*
X174801764Y-94839579D01*
X174924673Y-94676821D01*
X175015582Y-94494250D01*
X175071397Y-94298083D01*
X175090215Y-94095000D01*
X175071397Y-93891917D01*
X175015582Y-93695750D01*
X174924673Y-93513179D01*
X174801764Y-93350421D01*
X174801762Y-93350418D01*
X174651041Y-93213019D01*
X174651039Y-93213017D01*
X174477642Y-93105655D01*
X174477635Y-93105651D01*
X174335135Y-93050447D01*
X174287456Y-93031976D01*
X174086976Y-92994500D01*
X173883024Y-92994500D01*
X173682544Y-93031976D01*
X173682541Y-93031976D01*
X173682541Y-93031977D01*
X173492364Y-93105651D01*
X173492357Y-93105655D01*
X173318960Y-93213017D01*
X173318958Y-93213019D01*
X173168237Y-93350418D01*
X173045327Y-93513178D01*
X172954422Y-93695739D01*
X172954417Y-93695752D01*
X172898602Y-93891917D01*
X172879785Y-94094999D01*
X172545500Y-94094999D01*
X172545500Y-93175252D01*
X172545500Y-93175249D01*
X172545499Y-93175247D01*
X172533868Y-93116770D01*
X172533867Y-93116769D01*
X172489552Y-93050447D01*
X172423230Y-93006132D01*
X172423229Y-93006131D01*
X172364752Y-92994500D01*
X172364748Y-92994500D01*
X170669500Y-92994500D01*
X170602461Y-92974815D01*
X170556706Y-92922011D01*
X170545500Y-92870500D01*
X170545500Y-87620097D01*
X170565185Y-87553058D01*
X170581819Y-87532416D01*
X171782416Y-86331819D01*
X171843739Y-86298334D01*
X171870097Y-86295500D01*
X172274270Y-86295500D01*
X172304699Y-86292646D01*
X172304701Y-86292646D01*
X172368790Y-86270219D01*
X172432882Y-86247793D01*
X172542150Y-86167150D01*
X172622793Y-86057882D01*
X172645219Y-85993790D01*
X172667646Y-85929701D01*
X172667646Y-85929699D01*
X172670500Y-85899269D01*
X172670500Y-84890730D01*
X172667646Y-84860300D01*
X172667646Y-84860298D01*
X172622793Y-84732119D01*
X172622792Y-84732117D01*
X172596234Y-84696132D01*
X172542150Y-84622850D01*
X172432882Y-84542207D01*
X172432880Y-84542206D01*
X172304700Y-84497353D01*
X172274270Y-84494500D01*
X172274266Y-84494500D01*
X171465734Y-84494500D01*
X171465730Y-84494500D01*
X171435300Y-84497353D01*
X171435298Y-84497353D01*
X171307119Y-84542206D01*
X171307117Y-84542207D01*
X171197850Y-84622850D01*
X171117207Y-84732117D01*
X171117206Y-84732119D01*
X171072353Y-84860298D01*
X171072353Y-84860300D01*
X171069500Y-84890730D01*
X171069500Y-85294903D01*
X171049815Y-85361942D01*
X171033181Y-85382584D01*
X170757181Y-85658584D01*
X170695858Y-85692069D01*
X170626166Y-85687085D01*
X170570233Y-85645213D01*
X170545816Y-85579749D01*
X170545500Y-85570903D01*
X170545500Y-81319500D01*
X170565185Y-81252461D01*
X170617989Y-81206706D01*
X170669500Y-81195500D01*
X172364750Y-81195500D01*
X172364751Y-81195499D01*
X172379568Y-81192552D01*
X172423229Y-81183868D01*
X172423229Y-81183867D01*
X172423231Y-81183867D01*
X172489552Y-81139552D01*
X172533867Y-81073231D01*
X172533867Y-81073229D01*
X172533868Y-81073229D01*
X172545499Y-81014752D01*
X172545500Y-81014750D01*
X172545500Y-79895097D01*
X172565185Y-79828058D01*
X172581813Y-79807421D01*
X172720579Y-79668655D01*
X172781898Y-79635173D01*
X172851590Y-79640157D01*
X172907524Y-79682028D01*
X172931941Y-79747492D01*
X172927523Y-79790273D01*
X172898603Y-79891914D01*
X172898602Y-79891917D01*
X172879785Y-80094999D01*
X172879785Y-80095000D01*
X172898602Y-80298082D01*
X172954417Y-80494247D01*
X172954422Y-80494260D01*
X173045327Y-80676821D01*
X173168237Y-80839581D01*
X173318957Y-80976980D01*
X173328166Y-80982681D01*
X173360777Y-81002873D01*
X173407412Y-81054899D01*
X173419500Y-81108300D01*
X173419500Y-84414900D01*
X173399815Y-84481939D01*
X173347011Y-84527694D01*
X173336456Y-84531941D01*
X173307118Y-84542207D01*
X173197850Y-84622850D01*
X173117207Y-84732117D01*
X173117206Y-84732119D01*
X173072353Y-84860298D01*
X173072353Y-84860300D01*
X173069500Y-84890730D01*
X173069500Y-85899269D01*
X173072353Y-85929699D01*
X173072353Y-85929701D01*
X173117206Y-86057880D01*
X173117207Y-86057882D01*
X173197850Y-86167150D01*
X173307118Y-86247793D01*
X173349845Y-86262744D01*
X173435299Y-86292646D01*
X173465730Y-86295500D01*
X173465734Y-86295500D01*
X174274270Y-86295500D01*
X174304699Y-86292646D01*
X174304701Y-86292646D01*
X174368790Y-86270219D01*
X174432882Y-86247793D01*
X174542150Y-86167150D01*
X174622793Y-86057882D01*
X174645219Y-85993790D01*
X174667646Y-85929701D01*
X174667646Y-85929699D01*
X174670500Y-85899269D01*
X174670500Y-84890730D01*
X174667646Y-84860300D01*
X174667646Y-84860298D01*
X174622793Y-84732119D01*
X174622792Y-84732117D01*
X174596234Y-84696132D01*
X174542150Y-84622850D01*
X174432882Y-84542207D01*
X174403543Y-84531940D01*
X174346769Y-84491219D01*
X174321022Y-84426266D01*
X174320500Y-84414900D01*
X174320500Y-84342273D01*
X180044500Y-84342273D01*
X180044500Y-87447726D01*
X180071793Y-87549589D01*
X180098156Y-87595250D01*
X180124520Y-87640913D01*
X180124521Y-87640914D01*
X180124522Y-87640915D01*
X181008181Y-88524573D01*
X181041666Y-88585896D01*
X181044500Y-88612254D01*
X181044500Y-90447726D01*
X181071793Y-90549589D01*
X181098156Y-90595250D01*
X181124520Y-90640913D01*
X181124521Y-90640914D01*
X181124522Y-90640915D01*
X184120179Y-93636571D01*
X184120189Y-93636582D01*
X184124519Y-93640912D01*
X184124520Y-93640913D01*
X184199087Y-93715480D01*
X184232050Y-93734511D01*
X184290413Y-93768207D01*
X184392273Y-93795501D01*
X184392275Y-93795501D01*
X184505323Y-93795501D01*
X184505339Y-93795500D01*
X187414980Y-93795500D01*
X187482019Y-93815185D01*
X187524336Y-93861044D01*
X187567315Y-93941450D01*
X187567317Y-93941452D01*
X187698589Y-94101410D01*
X187795209Y-94180702D01*
X187858550Y-94232685D01*
X188041046Y-94330232D01*
X188107551Y-94350405D01*
X188165989Y-94388702D01*
X188194446Y-94452514D01*
X188183887Y-94521581D01*
X188137663Y-94573975D01*
X188103650Y-94588841D01*
X187981514Y-94621567D01*
X187981507Y-94621570D01*
X187767422Y-94721399D01*
X187767420Y-94721400D01*
X187573926Y-94856886D01*
X187573920Y-94856891D01*
X187406891Y-95023920D01*
X187406886Y-95023926D01*
X187271400Y-95217420D01*
X187271399Y-95217422D01*
X187171570Y-95431507D01*
X187171567Y-95431513D01*
X187114364Y-95644999D01*
X187114364Y-95645000D01*
X188011988Y-95645000D01*
X187979075Y-95702007D01*
X187945000Y-95829174D01*
X187945000Y-95960826D01*
X187979075Y-96087993D01*
X188011988Y-96145000D01*
X187114364Y-96145000D01*
X187171567Y-96358486D01*
X187171570Y-96358492D01*
X187271399Y-96572578D01*
X187406894Y-96766082D01*
X187573917Y-96933105D01*
X187767421Y-97068600D01*
X187981507Y-97168429D01*
X187981516Y-97168433D01*
X188195000Y-97225634D01*
X188195000Y-96328012D01*
X188252007Y-96360925D01*
X188379174Y-96395000D01*
X188510826Y-96395000D01*
X188637993Y-96360925D01*
X188695000Y-96328012D01*
X188695000Y-97225633D01*
X188908483Y-97168433D01*
X188908492Y-97168429D01*
X189122578Y-97068600D01*
X189316082Y-96933105D01*
X189483105Y-96766082D01*
X189618600Y-96572578D01*
X189718429Y-96358492D01*
X189718432Y-96358486D01*
X189775636Y-96145000D01*
X188878012Y-96145000D01*
X188910925Y-96087993D01*
X188945000Y-95960826D01*
X188945000Y-95829174D01*
X188910925Y-95702007D01*
X188878012Y-95645000D01*
X189775636Y-95645000D01*
X189775635Y-95644999D01*
X189718432Y-95431513D01*
X189718429Y-95431507D01*
X189618600Y-95217422D01*
X189618599Y-95217420D01*
X189483113Y-95023926D01*
X189483108Y-95023920D01*
X189316082Y-94856894D01*
X189122578Y-94721399D01*
X188908492Y-94621570D01*
X188908486Y-94621567D01*
X188786349Y-94588841D01*
X188726689Y-94552476D01*
X188696160Y-94489629D01*
X188704455Y-94420253D01*
X188748940Y-94366375D01*
X188782444Y-94350407D01*
X188848954Y-94330232D01*
X189031450Y-94232685D01*
X189191410Y-94101410D01*
X189322685Y-93941450D01*
X189420232Y-93758954D01*
X189480300Y-93560934D01*
X189500583Y-93355000D01*
X189480300Y-93149066D01*
X189420232Y-92951046D01*
X189322685Y-92768550D01*
X189222032Y-92645903D01*
X189191410Y-92608589D01*
X189031452Y-92477317D01*
X189031453Y-92477317D01*
X189031450Y-92477315D01*
X188848954Y-92379768D01*
X188650934Y-92319700D01*
X188650932Y-92319699D01*
X188650934Y-92319699D01*
X188445000Y-92299417D01*
X188239067Y-92319699D01*
X188041043Y-92379769D01*
X187930898Y-92438643D01*
X187858550Y-92477315D01*
X187858548Y-92477316D01*
X187858547Y-92477317D01*
X187698589Y-92608589D01*
X187581789Y-92750913D01*
X187567315Y-92768550D01*
X187486181Y-92920341D01*
X187481577Y-92928954D01*
X187432614Y-92978798D01*
X187372219Y-92994500D01*
X184662254Y-92994500D01*
X184595215Y-92974815D01*
X184574573Y-92958181D01*
X181881819Y-90265426D01*
X181848334Y-90204103D01*
X181845500Y-90177745D01*
X181845500Y-89444098D01*
X181865185Y-89377059D01*
X181917989Y-89331304D01*
X181987147Y-89321360D01*
X182050703Y-89350385D01*
X182057181Y-89356417D01*
X182083349Y-89382585D01*
X182083355Y-89382590D01*
X183880139Y-91179374D01*
X183880149Y-91179385D01*
X183884479Y-91183715D01*
X183884480Y-91183716D01*
X183996284Y-91295520D01*
X183996286Y-91295521D01*
X183996290Y-91295524D01*
X184059550Y-91332047D01*
X184059554Y-91332048D01*
X184059555Y-91332049D01*
X184133215Y-91374577D01*
X184285943Y-91415501D01*
X184285946Y-91415501D01*
X184451653Y-91415501D01*
X184451669Y-91415500D01*
X187520197Y-91415500D01*
X187587236Y-91435185D01*
X187616050Y-91460835D01*
X187698589Y-91561409D01*
X187698590Y-91561410D01*
X187858550Y-91692685D01*
X188041046Y-91790232D01*
X188239066Y-91850300D01*
X188239065Y-91850300D01*
X188257529Y-91852118D01*
X188445000Y-91870583D01*
X188650934Y-91850300D01*
X188848954Y-91790232D01*
X189031450Y-91692685D01*
X189191410Y-91561410D01*
X189322685Y-91401450D01*
X189420232Y-91218954D01*
X189480300Y-91020934D01*
X189500583Y-90815000D01*
X189480300Y-90609066D01*
X189420232Y-90411046D01*
X189322685Y-90228550D01*
X189270702Y-90165209D01*
X189191410Y-90068589D01*
X189052484Y-89954577D01*
X189031450Y-89937315D01*
X188848954Y-89839768D01*
X188650934Y-89779700D01*
X188650932Y-89779699D01*
X188650934Y-89779699D01*
X188445000Y-89759417D01*
X188239067Y-89779699D01*
X188041043Y-89839769D01*
X187974163Y-89875518D01*
X187858550Y-89937315D01*
X187858548Y-89937316D01*
X187858547Y-89937317D01*
X187698589Y-90068590D01*
X187616050Y-90169165D01*
X187558305Y-90208499D01*
X187520197Y-90214500D01*
X184665097Y-90214500D01*
X184598058Y-90194815D01*
X184577416Y-90178181D01*
X183081819Y-88682584D01*
X183048334Y-88621261D01*
X183045500Y-88594903D01*
X183045500Y-87315945D01*
X183045500Y-87315943D01*
X183004577Y-87163216D01*
X182928319Y-87031132D01*
X182925524Y-87026290D01*
X182925518Y-87026282D01*
X182813717Y-86914481D01*
X182813709Y-86914475D01*
X182676790Y-86835426D01*
X182676786Y-86835424D01*
X182676784Y-86835423D01*
X182524057Y-86794500D01*
X182365943Y-86794500D01*
X182213216Y-86835423D01*
X182213209Y-86835426D01*
X182076290Y-86914475D01*
X182076282Y-86914481D01*
X181964481Y-87026282D01*
X181964475Y-87026290D01*
X181885426Y-87163209D01*
X181885423Y-87163216D01*
X181844500Y-87315943D01*
X181844500Y-87928745D01*
X181824815Y-87995784D01*
X181772011Y-88041539D01*
X181702853Y-88051483D01*
X181639297Y-88022458D01*
X181632819Y-88016426D01*
X180881819Y-87265426D01*
X180848334Y-87204103D01*
X180845500Y-87177745D01*
X180845500Y-84612255D01*
X180865185Y-84545216D01*
X180881819Y-84524574D01*
X181842658Y-83563735D01*
X182840480Y-82565913D01*
X182893207Y-82474588D01*
X182920500Y-82372727D01*
X182920500Y-82267273D01*
X182920500Y-80799014D01*
X182940185Y-80731975D01*
X182992989Y-80686220D01*
X182997048Y-80684453D01*
X183017598Y-80675941D01*
X183189655Y-80560977D01*
X183335977Y-80414655D01*
X183450941Y-80242598D01*
X183530130Y-80051420D01*
X183570500Y-79848465D01*
X183570500Y-78441535D01*
X183530130Y-78238580D01*
X183450941Y-78047402D01*
X183335977Y-77875345D01*
X183335975Y-77875342D01*
X183189657Y-77729024D01*
X183094638Y-77665535D01*
X183017598Y-77614059D01*
X182992857Y-77603811D01*
X182826420Y-77534870D01*
X182826412Y-77534868D01*
X182623469Y-77494500D01*
X182623465Y-77494500D01*
X182416535Y-77494500D01*
X182416530Y-77494500D01*
X182213587Y-77534868D01*
X182213579Y-77534870D01*
X182022403Y-77614058D01*
X181850342Y-77729024D01*
X181704024Y-77875342D01*
X181589058Y-78047403D01*
X181509870Y-78238579D01*
X181509868Y-78238587D01*
X181469500Y-78441530D01*
X181469500Y-79848469D01*
X181509868Y-80051412D01*
X181509870Y-80051420D01*
X181589058Y-80242596D01*
X181704024Y-80414657D01*
X181850342Y-80560975D01*
X181850345Y-80560977D01*
X182022402Y-80675941D01*
X182042952Y-80684453D01*
X182097356Y-80728293D01*
X182119421Y-80794587D01*
X182119500Y-80799014D01*
X182119500Y-82102745D01*
X182099815Y-82169784D01*
X182083181Y-82190426D01*
X180124522Y-84149084D01*
X180124520Y-84149087D01*
X180071793Y-84240410D01*
X180044500Y-84342273D01*
X174320500Y-84342273D01*
X174320500Y-81230164D01*
X174340185Y-81163125D01*
X174392989Y-81117370D01*
X174399700Y-81114540D01*
X174477637Y-81084348D01*
X174651041Y-80976981D01*
X174801764Y-80839579D01*
X174924673Y-80676821D01*
X175015582Y-80494250D01*
X175071397Y-80298083D01*
X175090215Y-80095000D01*
X175086129Y-80050909D01*
X175071397Y-79891917D01*
X175029595Y-79745000D01*
X175015582Y-79695750D01*
X175008749Y-79682028D01*
X174971272Y-79606764D01*
X174924673Y-79513179D01*
X174847609Y-79411129D01*
X174801762Y-79350418D01*
X174651041Y-79213019D01*
X174651039Y-79213017D01*
X174477642Y-79105655D01*
X174477635Y-79105651D01*
X174335135Y-79050447D01*
X174287456Y-79031976D01*
X174086976Y-78994500D01*
X173883024Y-78994500D01*
X173682544Y-79031976D01*
X173682540Y-79031977D01*
X173676909Y-79033030D01*
X173676454Y-79030600D01*
X173617169Y-79030059D01*
X173558739Y-78991749D01*
X173530296Y-78927931D01*
X173540871Y-78858866D01*
X173565506Y-78823729D01*
X176357417Y-76031819D01*
X176418740Y-75998334D01*
X176445098Y-75995500D01*
X183611934Y-75995500D01*
X183678973Y-76015185D01*
X183699615Y-76031819D01*
X183808181Y-76140385D01*
X183841666Y-76201708D01*
X183844500Y-76228066D01*
X183844500Y-86308330D01*
X183844499Y-86308348D01*
X183844499Y-86474054D01*
X183844498Y-86474054D01*
X183885423Y-86626786D01*
X183885424Y-86626787D01*
X183906465Y-86663231D01*
X183964480Y-86763716D01*
X183964482Y-86763718D01*
X184083349Y-86882585D01*
X184083355Y-86882590D01*
X185840139Y-88639374D01*
X185840149Y-88639385D01*
X185844479Y-88643715D01*
X185844480Y-88643716D01*
X185956284Y-88755520D01*
X185956286Y-88755521D01*
X185956290Y-88755524D01*
X186061848Y-88816467D01*
X186093216Y-88834577D01*
X186193508Y-88861450D01*
X186245942Y-88875500D01*
X186245943Y-88875500D01*
X187520197Y-88875500D01*
X187587236Y-88895185D01*
X187616050Y-88920835D01*
X187698589Y-89021409D01*
X187698590Y-89021410D01*
X187858550Y-89152685D01*
X188041046Y-89250232D01*
X188239066Y-89310300D01*
X188239065Y-89310300D01*
X188257529Y-89312118D01*
X188445000Y-89330583D01*
X188650934Y-89310300D01*
X188848954Y-89250232D01*
X189031450Y-89152685D01*
X189191410Y-89021410D01*
X189322685Y-88861450D01*
X189420232Y-88678954D01*
X189480300Y-88480934D01*
X189500583Y-88275000D01*
X189480300Y-88069066D01*
X189420232Y-87871046D01*
X189322685Y-87688550D01*
X189224356Y-87568735D01*
X189191410Y-87528589D01*
X189033576Y-87399060D01*
X189031450Y-87397315D01*
X188848954Y-87299768D01*
X188650934Y-87239700D01*
X188650932Y-87239699D01*
X188650934Y-87239699D01*
X188445000Y-87219417D01*
X188239067Y-87239699D01*
X188041043Y-87299769D01*
X187961525Y-87342273D01*
X187858550Y-87397315D01*
X187858548Y-87397316D01*
X187858547Y-87397317D01*
X187698589Y-87528590D01*
X187616050Y-87629165D01*
X187558305Y-87668499D01*
X187520197Y-87674500D01*
X186625097Y-87674500D01*
X186558058Y-87654815D01*
X186537416Y-87638181D01*
X185081819Y-86182584D01*
X185048334Y-86121261D01*
X185045500Y-86094903D01*
X185045500Y-77144097D01*
X185065185Y-77077058D01*
X185117989Y-77031303D01*
X185187147Y-77021359D01*
X185250703Y-77050384D01*
X185257181Y-77056416D01*
X185433181Y-77232416D01*
X185466666Y-77293739D01*
X185469500Y-77320097D01*
X185469500Y-80853330D01*
X185469499Y-80853348D01*
X185469499Y-81019054D01*
X185469498Y-81019054D01*
X185510423Y-81171785D01*
X185539358Y-81221900D01*
X185539359Y-81221904D01*
X185539360Y-81221904D01*
X185589479Y-81308714D01*
X185589481Y-81308717D01*
X185708349Y-81427585D01*
X185708355Y-81427590D01*
X187808181Y-83527416D01*
X187841666Y-83588739D01*
X187844500Y-83615097D01*
X187844500Y-84560500D01*
X187824815Y-84627539D01*
X187772011Y-84673294D01*
X187720500Y-84684500D01*
X187575247Y-84684500D01*
X187516770Y-84696131D01*
X187516769Y-84696132D01*
X187450447Y-84740447D01*
X187406132Y-84806769D01*
X187406131Y-84806770D01*
X187394500Y-84865247D01*
X187394500Y-86604752D01*
X187406131Y-86663229D01*
X187406132Y-86663230D01*
X187450447Y-86729552D01*
X187516769Y-86773867D01*
X187516770Y-86773868D01*
X187575247Y-86785499D01*
X187575250Y-86785500D01*
X187575252Y-86785500D01*
X189314750Y-86785500D01*
X189314751Y-86785499D01*
X189329568Y-86782552D01*
X189373229Y-86773868D01*
X189373229Y-86773867D01*
X189373231Y-86773867D01*
X189439552Y-86729552D01*
X189483867Y-86663231D01*
X189483867Y-86663229D01*
X189483868Y-86663229D01*
X189495499Y-86604752D01*
X189495500Y-86604750D01*
X189495500Y-84865249D01*
X189495499Y-84865247D01*
X189483868Y-84806770D01*
X189483867Y-84806769D01*
X189439552Y-84740447D01*
X189373230Y-84696132D01*
X189373229Y-84696131D01*
X189314752Y-84684500D01*
X189314748Y-84684500D01*
X189169500Y-84684500D01*
X189102461Y-84664815D01*
X189056706Y-84612011D01*
X189045500Y-84560500D01*
X189045500Y-83235945D01*
X189045500Y-83235943D01*
X189004577Y-83083216D01*
X189004577Y-83083215D01*
X189004577Y-83083214D01*
X188975639Y-83033095D01*
X188975637Y-83033092D01*
X188925520Y-82946284D01*
X188813716Y-82834480D01*
X188813715Y-82834479D01*
X188809385Y-82830149D01*
X188809374Y-82830139D01*
X187246986Y-81267751D01*
X187213501Y-81206428D01*
X187218485Y-81136736D01*
X187254137Y-81085779D01*
X187270000Y-81072231D01*
X187270000Y-79693482D01*
X187288409Y-79704111D01*
X187441009Y-79745000D01*
X187598991Y-79745000D01*
X187751591Y-79704111D01*
X187770000Y-79693482D01*
X187770000Y-81072230D01*
X187836126Y-81061757D01*
X187836129Y-81061757D01*
X188038217Y-80996095D01*
X188227557Y-80899620D01*
X188399459Y-80774727D01*
X188399464Y-80774723D01*
X188549723Y-80624464D01*
X188549727Y-80624459D01*
X188674620Y-80452557D01*
X188771095Y-80263217D01*
X188836757Y-80061130D01*
X188836757Y-80061127D01*
X188870000Y-79851246D01*
X188870000Y-79395000D01*
X188068482Y-79395000D01*
X188079111Y-79376591D01*
X188120000Y-79223991D01*
X188120000Y-79066009D01*
X188079111Y-78913409D01*
X188068482Y-78895000D01*
X188870000Y-78895000D01*
X188870000Y-78438753D01*
X188836757Y-78228872D01*
X188836757Y-78228869D01*
X188771095Y-78026782D01*
X188674620Y-77837442D01*
X188549727Y-77665540D01*
X188549723Y-77665535D01*
X188399464Y-77515276D01*
X188399459Y-77515272D01*
X188227557Y-77390379D01*
X188038215Y-77293903D01*
X187836124Y-77228241D01*
X187770000Y-77217768D01*
X187770000Y-78596517D01*
X187751591Y-78585889D01*
X187598991Y-78545000D01*
X187441009Y-78545000D01*
X187288409Y-78585889D01*
X187270000Y-78596517D01*
X187270000Y-77217768D01*
X187269999Y-77217768D01*
X187203875Y-77228241D01*
X187001784Y-77293903D01*
X186850795Y-77370837D01*
X186782126Y-77383733D01*
X186717385Y-77357457D01*
X186677128Y-77300350D01*
X186670500Y-77260352D01*
X186670500Y-76940945D01*
X186670500Y-76940943D01*
X186629577Y-76788216D01*
X186629573Y-76788209D01*
X186550524Y-76651290D01*
X186550521Y-76651286D01*
X186550520Y-76651284D01*
X186438716Y-76539480D01*
X186438715Y-76539479D01*
X186434385Y-76535149D01*
X186434374Y-76535139D01*
X186081819Y-76182584D01*
X186048334Y-76121261D01*
X186045500Y-76094903D01*
X186045500Y-72804448D01*
X188369500Y-72804448D01*
X188369500Y-72985551D01*
X188397829Y-73164410D01*
X188453787Y-73336636D01*
X188453788Y-73336639D01*
X188536006Y-73497997D01*
X188642441Y-73644494D01*
X188642445Y-73644499D01*
X188770500Y-73772554D01*
X188770505Y-73772558D01*
X188898287Y-73865396D01*
X188917006Y-73878996D01*
X189022484Y-73932740D01*
X189078360Y-73961211D01*
X189078363Y-73961212D01*
X189164476Y-73989191D01*
X189250591Y-74017171D01*
X189333429Y-74030291D01*
X189429449Y-74045500D01*
X189429454Y-74045500D01*
X189610551Y-74045500D01*
X189697259Y-74031765D01*
X189789409Y-74017171D01*
X189961639Y-73961211D01*
X190122994Y-73878996D01*
X190269501Y-73772553D01*
X190397553Y-73644501D01*
X190503996Y-73497994D01*
X190586211Y-73336639D01*
X190642171Y-73164409D01*
X190662177Y-73038095D01*
X190670500Y-72985551D01*
X190670500Y-72804448D01*
X190654019Y-72700397D01*
X190642171Y-72625591D01*
X190586211Y-72453361D01*
X190586211Y-72453360D01*
X190557740Y-72397484D01*
X190503996Y-72292006D01*
X190448476Y-72215589D01*
X190397558Y-72145505D01*
X190397554Y-72145500D01*
X190269499Y-72017445D01*
X190269494Y-72017441D01*
X190122997Y-71911006D01*
X190122996Y-71911005D01*
X190122994Y-71911004D01*
X190071300Y-71884664D01*
X189961639Y-71828788D01*
X189961636Y-71828787D01*
X189789410Y-71772829D01*
X189610551Y-71744500D01*
X189610546Y-71744500D01*
X189429454Y-71744500D01*
X189429449Y-71744500D01*
X189250589Y-71772829D01*
X189078363Y-71828787D01*
X189078360Y-71828788D01*
X188917002Y-71911006D01*
X188770505Y-72017441D01*
X188770500Y-72017445D01*
X188642445Y-72145500D01*
X188642441Y-72145505D01*
X188536006Y-72292002D01*
X188453788Y-72453360D01*
X188453787Y-72453363D01*
X188397829Y-72625589D01*
X188369500Y-72804448D01*
X186045500Y-72804448D01*
X186045500Y-67841258D01*
X186065185Y-67774219D01*
X186117989Y-67728464D01*
X186187147Y-67718520D01*
X186250703Y-67747545D01*
X186279985Y-67784963D01*
X186365379Y-67952557D01*
X186490272Y-68124459D01*
X186490276Y-68124464D01*
X186640535Y-68274723D01*
X186640540Y-68274727D01*
X186812442Y-68399620D01*
X187001782Y-68496095D01*
X187203871Y-68561757D01*
X187270000Y-68572231D01*
X187270000Y-67193482D01*
X187288409Y-67204111D01*
X187441009Y-67245000D01*
X187598991Y-67245000D01*
X187751591Y-67204111D01*
X187770000Y-67193482D01*
X187770000Y-68572230D01*
X187836126Y-68561757D01*
X187836129Y-68561757D01*
X188038217Y-68496095D01*
X188227557Y-68399620D01*
X188399459Y-68274727D01*
X188399464Y-68274723D01*
X188549723Y-68124464D01*
X188549727Y-68124459D01*
X188674620Y-67952557D01*
X188771095Y-67763217D01*
X188836757Y-67561130D01*
X188836757Y-67561127D01*
X188870000Y-67351246D01*
X188870000Y-66895000D01*
X188068482Y-66895000D01*
X188079111Y-66876591D01*
X188120000Y-66723991D01*
X188120000Y-66566009D01*
X188079111Y-66413409D01*
X188068482Y-66395000D01*
X188870000Y-66395000D01*
X188870000Y-65938753D01*
X188836757Y-65728872D01*
X188836757Y-65728869D01*
X188771095Y-65526782D01*
X188674620Y-65337442D01*
X188549727Y-65165540D01*
X188549723Y-65165535D01*
X188399464Y-65015276D01*
X188399459Y-65015272D01*
X188227557Y-64890379D01*
X188038215Y-64793903D01*
X187836124Y-64728241D01*
X187770000Y-64717768D01*
X187770000Y-66096517D01*
X187751591Y-66085889D01*
X187598991Y-66045000D01*
X187441009Y-66045000D01*
X187288409Y-66085889D01*
X187270000Y-66096517D01*
X187270000Y-64717768D01*
X187269999Y-64717768D01*
X187203875Y-64728241D01*
X187001784Y-64793903D01*
X186812442Y-64890379D01*
X186640540Y-65015272D01*
X186640535Y-65015276D01*
X186490276Y-65165535D01*
X186490272Y-65165540D01*
X186365379Y-65337442D01*
X186268905Y-65526781D01*
X186231414Y-65642166D01*
X186191976Y-65699841D01*
X186127618Y-65727039D01*
X186058771Y-65715124D01*
X186007295Y-65667880D01*
X186006095Y-65665846D01*
X185988386Y-65635173D01*
X185925520Y-65526284D01*
X185813716Y-65414480D01*
X185813715Y-65414479D01*
X185809385Y-65410149D01*
X185809374Y-65410139D01*
X182432590Y-62033355D01*
X182432588Y-62033352D01*
X182313717Y-61914481D01*
X182313716Y-61914480D01*
X182226904Y-61864360D01*
X182226904Y-61864359D01*
X182226900Y-61864358D01*
X182176785Y-61835423D01*
X182024057Y-61794499D01*
X181865943Y-61794499D01*
X181858347Y-61794499D01*
X181858331Y-61794500D01*
X175224057Y-61794500D01*
X175065943Y-61794500D01*
X174913215Y-61835423D01*
X174913214Y-61835423D01*
X174913212Y-61835424D01*
X174913209Y-61835425D01*
X174863096Y-61864359D01*
X174863095Y-61864360D01*
X174819689Y-61889420D01*
X174776285Y-61914479D01*
X174776282Y-61914481D01*
X174664478Y-62026286D01*
X171732584Y-64958181D01*
X171671261Y-64991666D01*
X171644903Y-64994500D01*
X170525247Y-64994500D01*
X170466770Y-65006131D01*
X170466769Y-65006132D01*
X170400447Y-65050447D01*
X170356132Y-65116769D01*
X170356131Y-65116770D01*
X170344500Y-65175247D01*
X170344500Y-67014752D01*
X170356131Y-67073229D01*
X170356132Y-67073230D01*
X170400447Y-67139552D01*
X170466769Y-67183867D01*
X170466770Y-67183868D01*
X170525247Y-67195499D01*
X170525250Y-67195500D01*
X170525252Y-67195500D01*
X172364750Y-67195500D01*
X172364751Y-67195499D01*
X172379568Y-67192552D01*
X172423229Y-67183868D01*
X172423229Y-67183867D01*
X172423231Y-67183867D01*
X172489552Y-67139552D01*
X172533867Y-67073231D01*
X172533867Y-67073229D01*
X172533868Y-67073229D01*
X172545499Y-67014752D01*
X172545500Y-67014750D01*
X172545500Y-65895097D01*
X172565185Y-65828058D01*
X172581813Y-65807421D01*
X172720579Y-65668655D01*
X172781898Y-65635173D01*
X172851590Y-65640157D01*
X172907524Y-65682028D01*
X172931941Y-65747492D01*
X172927523Y-65790273D01*
X172898603Y-65891914D01*
X172898602Y-65891917D01*
X172879785Y-66094999D01*
X172879785Y-66095000D01*
X172898602Y-66298082D01*
X172954417Y-66494247D01*
X172954422Y-66494260D01*
X173045327Y-66676821D01*
X173168237Y-66839581D01*
X173318958Y-66976980D01*
X173318960Y-66976982D01*
X173377791Y-67013408D01*
X173475777Y-67074078D01*
X173522413Y-67126105D01*
X173534500Y-67179505D01*
X173534500Y-70375847D01*
X173514815Y-70442886D01*
X173462011Y-70488641D01*
X173436963Y-70496990D01*
X173435301Y-70497352D01*
X173307119Y-70542206D01*
X173307117Y-70542207D01*
X173197850Y-70622850D01*
X173117207Y-70732117D01*
X173117206Y-70732119D01*
X173072353Y-70860298D01*
X173072353Y-70860300D01*
X173069500Y-70890730D01*
X173069500Y-71899269D01*
X173072353Y-71929699D01*
X173072353Y-71929701D01*
X173117206Y-72057880D01*
X173117207Y-72057882D01*
X173197850Y-72167150D01*
X173307118Y-72247793D01*
X173349845Y-72262744D01*
X173435299Y-72292646D01*
X173465730Y-72295500D01*
X173465734Y-72295500D01*
X174274270Y-72295500D01*
X174304699Y-72292646D01*
X174304701Y-72292646D01*
X174368790Y-72270219D01*
X174432882Y-72247793D01*
X174542150Y-72167150D01*
X174622793Y-72057882D01*
X174645219Y-71993790D01*
X174667646Y-71929701D01*
X174667646Y-71929699D01*
X174670500Y-71899269D01*
X174670500Y-70890730D01*
X174667646Y-70860300D01*
X174667646Y-70860298D01*
X174622793Y-70732119D01*
X174622792Y-70732117D01*
X174574135Y-70666188D01*
X174542150Y-70622850D01*
X174542149Y-70622849D01*
X174485865Y-70581309D01*
X174443615Y-70525661D01*
X174435500Y-70481540D01*
X174435500Y-67179505D01*
X174455185Y-67112466D01*
X174494221Y-67074079D01*
X174651041Y-66976981D01*
X174801764Y-66839579D01*
X174924673Y-66676821D01*
X175015582Y-66494250D01*
X175071397Y-66298083D01*
X175090215Y-66095000D01*
X175075994Y-65941530D01*
X181469500Y-65941530D01*
X181469500Y-67348469D01*
X181509868Y-67551412D01*
X181509870Y-67551420D01*
X181579085Y-67718520D01*
X181589059Y-67742598D01*
X181617366Y-67784963D01*
X181704024Y-67914657D01*
X181850342Y-68060975D01*
X181850345Y-68060977D01*
X182022402Y-68175941D01*
X182213580Y-68255130D01*
X182416530Y-68295499D01*
X182416534Y-68295500D01*
X182416535Y-68295500D01*
X182623466Y-68295500D01*
X182623467Y-68295499D01*
X182826420Y-68255130D01*
X183017598Y-68175941D01*
X183189655Y-68060977D01*
X183335977Y-67914655D01*
X183450941Y-67742598D01*
X183530130Y-67551420D01*
X183570500Y-67348465D01*
X183570500Y-65941535D01*
X183530130Y-65738580D01*
X183450941Y-65547402D01*
X183335977Y-65375345D01*
X183335975Y-65375342D01*
X183189657Y-65229024D01*
X183021655Y-65116770D01*
X183017598Y-65114059D01*
X182997299Y-65105651D01*
X182826420Y-65034870D01*
X182826412Y-65034868D01*
X182623469Y-64994500D01*
X182623465Y-64994500D01*
X182416535Y-64994500D01*
X182416530Y-64994500D01*
X182213587Y-65034868D01*
X182213579Y-65034870D01*
X182022403Y-65114058D01*
X181850342Y-65229024D01*
X181704024Y-65375342D01*
X181589058Y-65547403D01*
X181509870Y-65738579D01*
X181509868Y-65738587D01*
X181469500Y-65941530D01*
X175075994Y-65941530D01*
X175071397Y-65891917D01*
X175015582Y-65695750D01*
X175008749Y-65682028D01*
X174931198Y-65526284D01*
X174924673Y-65513179D01*
X174850138Y-65414478D01*
X174801762Y-65350418D01*
X174651041Y-65213019D01*
X174651039Y-65213017D01*
X174477642Y-65105655D01*
X174477635Y-65105651D01*
X174294921Y-65034868D01*
X174287456Y-65031976D01*
X174086976Y-64994500D01*
X173883024Y-64994500D01*
X173682544Y-65031976D01*
X173682540Y-65031977D01*
X173676909Y-65033030D01*
X173676454Y-65030600D01*
X173617169Y-65030059D01*
X173558739Y-64991749D01*
X173530296Y-64927931D01*
X173540871Y-64858866D01*
X173565506Y-64823728D01*
X175357416Y-63031819D01*
X175418739Y-62998334D01*
X175445097Y-62995500D01*
X181644903Y-62995500D01*
X181711942Y-63015185D01*
X181732584Y-63031819D01*
X184808181Y-66107416D01*
X184841666Y-66168739D01*
X184844500Y-66195097D01*
X184844500Y-75178872D01*
X184824815Y-75245911D01*
X184772011Y-75291666D01*
X184702853Y-75301610D01*
X184639297Y-75272585D01*
X184632819Y-75266553D01*
X184399621Y-75033355D01*
X184399619Y-75033352D01*
X184280748Y-74914481D01*
X184280747Y-74914480D01*
X184193935Y-74864360D01*
X184193935Y-74864359D01*
X184193931Y-74864358D01*
X184143816Y-74835423D01*
X183991088Y-74794499D01*
X183832974Y-74794499D01*
X183825378Y-74794499D01*
X183825362Y-74794500D01*
X176231670Y-74794500D01*
X176231654Y-74794499D01*
X176224058Y-74794499D01*
X176065943Y-74794499D01*
X175989579Y-74814961D01*
X175913214Y-74835423D01*
X175913209Y-74835426D01*
X175776290Y-74914475D01*
X175776282Y-74914481D01*
X171732584Y-78958181D01*
X171671261Y-78991666D01*
X171644903Y-78994500D01*
X170669500Y-78994500D01*
X170602461Y-78974815D01*
X170556706Y-78922011D01*
X170545500Y-78870500D01*
X170545500Y-73620097D01*
X170565185Y-73553058D01*
X170581819Y-73532416D01*
X171309787Y-72804448D01*
X179369500Y-72804448D01*
X179369500Y-72985551D01*
X179397829Y-73164410D01*
X179453787Y-73336636D01*
X179453788Y-73336639D01*
X179536006Y-73497997D01*
X179642441Y-73644494D01*
X179642445Y-73644499D01*
X179770500Y-73772554D01*
X179770505Y-73772558D01*
X179898287Y-73865396D01*
X179917006Y-73878996D01*
X180022484Y-73932740D01*
X180078360Y-73961211D01*
X180078363Y-73961212D01*
X180164476Y-73989191D01*
X180250591Y-74017171D01*
X180333429Y-74030291D01*
X180429449Y-74045500D01*
X180429454Y-74045500D01*
X180610551Y-74045500D01*
X180697259Y-74031765D01*
X180789409Y-74017171D01*
X180961639Y-73961211D01*
X181122994Y-73878996D01*
X181269501Y-73772553D01*
X181397553Y-73644501D01*
X181503996Y-73497994D01*
X181586211Y-73336639D01*
X181642171Y-73164409D01*
X181662177Y-73038095D01*
X181670500Y-72985551D01*
X181670500Y-72804448D01*
X181654019Y-72700397D01*
X181642171Y-72625591D01*
X181586211Y-72453361D01*
X181586211Y-72453360D01*
X181557740Y-72397484D01*
X181503996Y-72292006D01*
X181448476Y-72215589D01*
X181397558Y-72145505D01*
X181397554Y-72145500D01*
X181269499Y-72017445D01*
X181269494Y-72017441D01*
X181122997Y-71911006D01*
X181122996Y-71911005D01*
X181122994Y-71911004D01*
X181071300Y-71884664D01*
X180961639Y-71828788D01*
X180961636Y-71828787D01*
X180789410Y-71772829D01*
X180610551Y-71744500D01*
X180610546Y-71744500D01*
X180429454Y-71744500D01*
X180429449Y-71744500D01*
X180250589Y-71772829D01*
X180078363Y-71828787D01*
X180078360Y-71828788D01*
X179917002Y-71911006D01*
X179770505Y-72017441D01*
X179770500Y-72017445D01*
X179642445Y-72145500D01*
X179642441Y-72145505D01*
X179536006Y-72292002D01*
X179453788Y-72453360D01*
X179453787Y-72453363D01*
X179397829Y-72625589D01*
X179369500Y-72804448D01*
X171309787Y-72804448D01*
X171782416Y-72331819D01*
X171843739Y-72298334D01*
X171870097Y-72295500D01*
X172274270Y-72295500D01*
X172304699Y-72292646D01*
X172304701Y-72292646D01*
X172368790Y-72270219D01*
X172432882Y-72247793D01*
X172542150Y-72167150D01*
X172622793Y-72057882D01*
X172645219Y-71993790D01*
X172667646Y-71929701D01*
X172667646Y-71929699D01*
X172670500Y-71899269D01*
X172670500Y-70890730D01*
X172667646Y-70860300D01*
X172667646Y-70860298D01*
X172622793Y-70732119D01*
X172622792Y-70732117D01*
X172542150Y-70622850D01*
X172432882Y-70542207D01*
X172432880Y-70542206D01*
X172304700Y-70497353D01*
X172274270Y-70494500D01*
X172274266Y-70494500D01*
X171465734Y-70494500D01*
X171465730Y-70494500D01*
X171435300Y-70497353D01*
X171435298Y-70497353D01*
X171307119Y-70542206D01*
X171307117Y-70542207D01*
X171197850Y-70622850D01*
X171117207Y-70732117D01*
X171117206Y-70732119D01*
X171072353Y-70860298D01*
X171072353Y-70860300D01*
X171069500Y-70890730D01*
X171069500Y-71294902D01*
X171049815Y-71361941D01*
X171033181Y-71382583D01*
X169464481Y-72951282D01*
X169464479Y-72951285D01*
X169414361Y-73038094D01*
X169414359Y-73038096D01*
X169385425Y-73088209D01*
X169385424Y-73088210D01*
X169374318Y-73129659D01*
X169344499Y-73240943D01*
X169344499Y-73240945D01*
X169344499Y-73409046D01*
X169344500Y-73409059D01*
X169344500Y-87233330D01*
X169344499Y-87233348D01*
X169344499Y-87409046D01*
X169344500Y-87409059D01*
X169344500Y-101233330D01*
X169344499Y-101233348D01*
X169344499Y-101409046D01*
X169344500Y-101409059D01*
X169344500Y-111383330D01*
X169344499Y-111383348D01*
X169344499Y-111549054D01*
X169344498Y-111549054D01*
X169385423Y-111701785D01*
X169414358Y-111751900D01*
X169414359Y-111751904D01*
X169414360Y-111751904D01*
X169464479Y-111838714D01*
X169464481Y-111838717D01*
X169583349Y-111957585D01*
X169583355Y-111957590D01*
X171033181Y-113407416D01*
X171066666Y-113468739D01*
X171069500Y-113495097D01*
X171069500Y-113899269D01*
X171072353Y-113929699D01*
X171072353Y-113929701D01*
X171099649Y-114007705D01*
X171117207Y-114057882D01*
X171197850Y-114167150D01*
X171219132Y-114182857D01*
X171261384Y-114238503D01*
X171269500Y-114282628D01*
X171269500Y-114670500D01*
X171249815Y-114737539D01*
X171197011Y-114783294D01*
X171145500Y-114794500D01*
X157169500Y-114794500D01*
X157102461Y-114774815D01*
X157056706Y-114722011D01*
X157045500Y-114670500D01*
X157045500Y-106335247D01*
X158719500Y-106335247D01*
X158719500Y-107974752D01*
X158731131Y-108033229D01*
X158731132Y-108033230D01*
X158775447Y-108099552D01*
X158841769Y-108143867D01*
X158841770Y-108143868D01*
X158900247Y-108155499D01*
X158900250Y-108155500D01*
X158900252Y-108155500D01*
X160539750Y-108155500D01*
X160539751Y-108155499D01*
X160554568Y-108152552D01*
X160598229Y-108143868D01*
X160598229Y-108143867D01*
X160598231Y-108143867D01*
X160664552Y-108099552D01*
X160708867Y-108033231D01*
X160708867Y-108033229D01*
X160708868Y-108033229D01*
X160720499Y-107974752D01*
X160720500Y-107974750D01*
X160720500Y-106335249D01*
X160720499Y-106335247D01*
X160708868Y-106276770D01*
X160708867Y-106276769D01*
X160664552Y-106210447D01*
X160598230Y-106166132D01*
X160598229Y-106166131D01*
X160539752Y-106154500D01*
X160539748Y-106154500D01*
X158900252Y-106154500D01*
X158900247Y-106154500D01*
X158841770Y-106166131D01*
X158841769Y-106166132D01*
X158775447Y-106210447D01*
X158731132Y-106276769D01*
X158731131Y-106276770D01*
X158719500Y-106335247D01*
X157045500Y-106335247D01*
X157045500Y-105759060D01*
X157045501Y-105759047D01*
X157045501Y-105583348D01*
X157045500Y-105583330D01*
X157045500Y-104615000D01*
X158714659Y-104615000D01*
X158733975Y-104811129D01*
X158791188Y-104999733D01*
X158884086Y-105173532D01*
X158884090Y-105173539D01*
X159009116Y-105325883D01*
X159161460Y-105450909D01*
X159161467Y-105450913D01*
X159335266Y-105543811D01*
X159335269Y-105543811D01*
X159335273Y-105543814D01*
X159523868Y-105601024D01*
X159720000Y-105620341D01*
X159916132Y-105601024D01*
X160104727Y-105543814D01*
X160149765Y-105519741D01*
X160259986Y-105460826D01*
X160278538Y-105450910D01*
X160430883Y-105325883D01*
X160555910Y-105173538D01*
X160615893Y-105061317D01*
X160648811Y-104999733D01*
X160648811Y-104999732D01*
X160648814Y-104999727D01*
X160706024Y-104811132D01*
X160725341Y-104615000D01*
X160706024Y-104418868D01*
X160648814Y-104230273D01*
X160648811Y-104230269D01*
X160648811Y-104230266D01*
X160555913Y-104056467D01*
X160555909Y-104056460D01*
X160430883Y-103904116D01*
X160278539Y-103779090D01*
X160278532Y-103779086D01*
X160104733Y-103686188D01*
X160104727Y-103686186D01*
X159916132Y-103628976D01*
X159916129Y-103628975D01*
X159720000Y-103609659D01*
X159523870Y-103628975D01*
X159335266Y-103686188D01*
X159161467Y-103779086D01*
X159161460Y-103779090D01*
X159009116Y-103904116D01*
X158884090Y-104056460D01*
X158884086Y-104056467D01*
X158791188Y-104230266D01*
X158733975Y-104418870D01*
X158714659Y-104615000D01*
X157045500Y-104615000D01*
X157045500Y-102075000D01*
X158714659Y-102075000D01*
X158733975Y-102271129D01*
X158791188Y-102459733D01*
X158884086Y-102633532D01*
X158884090Y-102633539D01*
X159009116Y-102785883D01*
X159161460Y-102910909D01*
X159161467Y-102910913D01*
X159335266Y-103003811D01*
X159335269Y-103003811D01*
X159335273Y-103003814D01*
X159523868Y-103061024D01*
X159720000Y-103080341D01*
X159916132Y-103061024D01*
X160104727Y-103003814D01*
X160278538Y-102910910D01*
X160430883Y-102785883D01*
X160555910Y-102633538D01*
X160648814Y-102459727D01*
X160706024Y-102271132D01*
X160725341Y-102075000D01*
X160706024Y-101878868D01*
X160648814Y-101690273D01*
X160648811Y-101690269D01*
X160648811Y-101690266D01*
X160555913Y-101516467D01*
X160555909Y-101516460D01*
X160430883Y-101364116D01*
X160278539Y-101239090D01*
X160278532Y-101239086D01*
X160104733Y-101146188D01*
X160104727Y-101146186D01*
X159916132Y-101088976D01*
X159916129Y-101088975D01*
X159720000Y-101069659D01*
X159523870Y-101088975D01*
X159335266Y-101146188D01*
X159161467Y-101239086D01*
X159161460Y-101239090D01*
X159009116Y-101364116D01*
X158884090Y-101516460D01*
X158884086Y-101516467D01*
X158791188Y-101690266D01*
X158733975Y-101878870D01*
X158714659Y-102075000D01*
X157045500Y-102075000D01*
X157045500Y-99284999D01*
X158441127Y-99284999D01*
X158441128Y-99285000D01*
X159286988Y-99285000D01*
X159254075Y-99342007D01*
X159220000Y-99469174D01*
X159220000Y-99600826D01*
X159254075Y-99727993D01*
X159286988Y-99785000D01*
X158441128Y-99785000D01*
X158493730Y-99981317D01*
X158493734Y-99981326D01*
X158589865Y-100187482D01*
X158720342Y-100373820D01*
X158881179Y-100534657D01*
X159067517Y-100665134D01*
X159273673Y-100761265D01*
X159273682Y-100761269D01*
X159469999Y-100813872D01*
X159470000Y-100813871D01*
X159470000Y-99968012D01*
X159527007Y-100000925D01*
X159654174Y-100035000D01*
X159785826Y-100035000D01*
X159912993Y-100000925D01*
X159970000Y-99968012D01*
X159970000Y-100813872D01*
X160166317Y-100761269D01*
X160166326Y-100761265D01*
X160372482Y-100665134D01*
X160558820Y-100534657D01*
X160719657Y-100373820D01*
X160850134Y-100187482D01*
X160946265Y-99981326D01*
X160946269Y-99981317D01*
X160998872Y-99785000D01*
X160153012Y-99785000D01*
X160185925Y-99727993D01*
X160220000Y-99600826D01*
X160220000Y-99469174D01*
X160185925Y-99342007D01*
X160153012Y-99285000D01*
X160998872Y-99285000D01*
X160998872Y-99284999D01*
X160946269Y-99088682D01*
X160946265Y-99088673D01*
X160850134Y-98882517D01*
X160719657Y-98696179D01*
X160558820Y-98535342D01*
X160372482Y-98404865D01*
X160166328Y-98308734D01*
X159970000Y-98256127D01*
X159970000Y-99101988D01*
X159912993Y-99069075D01*
X159785826Y-99035000D01*
X159654174Y-99035000D01*
X159527007Y-99069075D01*
X159470000Y-99101988D01*
X159470000Y-98256127D01*
X159273671Y-98308734D01*
X159067517Y-98404865D01*
X158881179Y-98535342D01*
X158720342Y-98696179D01*
X158589865Y-98882517D01*
X158493734Y-99088673D01*
X158493730Y-99088682D01*
X158441127Y-99284999D01*
X157045500Y-99284999D01*
X157045500Y-96995000D01*
X158714659Y-96995000D01*
X158733975Y-97191129D01*
X158791188Y-97379733D01*
X158884086Y-97553532D01*
X158884090Y-97553539D01*
X159009116Y-97705883D01*
X159161460Y-97830909D01*
X159161467Y-97830913D01*
X159335266Y-97923811D01*
X159335269Y-97923811D01*
X159335273Y-97923814D01*
X159523868Y-97981024D01*
X159720000Y-98000341D01*
X159916132Y-97981024D01*
X160104727Y-97923814D01*
X160278538Y-97830910D01*
X160430883Y-97705883D01*
X160555910Y-97553538D01*
X160648814Y-97379727D01*
X160706024Y-97191132D01*
X160725341Y-96995000D01*
X160706024Y-96798868D01*
X160648814Y-96610273D01*
X160648811Y-96610269D01*
X160648811Y-96610266D01*
X160555913Y-96436467D01*
X160555909Y-96436460D01*
X160430883Y-96284116D01*
X160278539Y-96159090D01*
X160278532Y-96159086D01*
X160104733Y-96066188D01*
X160104727Y-96066186D01*
X159916132Y-96008976D01*
X159916129Y-96008975D01*
X159720000Y-95989659D01*
X159523870Y-96008975D01*
X159335266Y-96066188D01*
X159161467Y-96159086D01*
X159161460Y-96159090D01*
X159009116Y-96284116D01*
X158884090Y-96436460D01*
X158884086Y-96436467D01*
X158791188Y-96610266D01*
X158733975Y-96798870D01*
X158714659Y-96995000D01*
X157045500Y-96995000D01*
X157045500Y-94455000D01*
X158714659Y-94455000D01*
X158733975Y-94651129D01*
X158791188Y-94839733D01*
X158884086Y-95013532D01*
X158884090Y-95013539D01*
X159009116Y-95165883D01*
X159161460Y-95290909D01*
X159161467Y-95290913D01*
X159335266Y-95383811D01*
X159335269Y-95383811D01*
X159335273Y-95383814D01*
X159523868Y-95441024D01*
X159720000Y-95460341D01*
X159916132Y-95441024D01*
X160104727Y-95383814D01*
X160278538Y-95290910D01*
X160430883Y-95165883D01*
X160555910Y-95013538D01*
X160648814Y-94839727D01*
X160706024Y-94651132D01*
X160725341Y-94455000D01*
X160706024Y-94258868D01*
X160648814Y-94070273D01*
X160648811Y-94070269D01*
X160648811Y-94070266D01*
X160555913Y-93896467D01*
X160555909Y-93896460D01*
X160430883Y-93744116D01*
X160278539Y-93619090D01*
X160278532Y-93619086D01*
X160104733Y-93526188D01*
X160104727Y-93526186D01*
X159916132Y-93468976D01*
X159916129Y-93468975D01*
X159720000Y-93449659D01*
X159523870Y-93468975D01*
X159335266Y-93526188D01*
X159161467Y-93619086D01*
X159161460Y-93619090D01*
X159009116Y-93744116D01*
X158884090Y-93896460D01*
X158884086Y-93896467D01*
X158791188Y-94070266D01*
X158733975Y-94258870D01*
X158714659Y-94455000D01*
X157045500Y-94455000D01*
X157045500Y-91915000D01*
X158714659Y-91915000D01*
X158733975Y-92111129D01*
X158791188Y-92299733D01*
X158884086Y-92473532D01*
X158884090Y-92473539D01*
X159009116Y-92625883D01*
X159161460Y-92750909D01*
X159161467Y-92750913D01*
X159335266Y-92843811D01*
X159335269Y-92843811D01*
X159335273Y-92843814D01*
X159523868Y-92901024D01*
X159720000Y-92920341D01*
X159916132Y-92901024D01*
X160104727Y-92843814D01*
X160278538Y-92750910D01*
X160430883Y-92625883D01*
X160555910Y-92473538D01*
X160648814Y-92299727D01*
X160706024Y-92111132D01*
X160725341Y-91915000D01*
X160706024Y-91718868D01*
X160648814Y-91530273D01*
X160648811Y-91530269D01*
X160648811Y-91530266D01*
X160555913Y-91356467D01*
X160555909Y-91356460D01*
X160430883Y-91204116D01*
X160278539Y-91079090D01*
X160278532Y-91079086D01*
X160104733Y-90986188D01*
X160104727Y-90986186D01*
X159916132Y-90928976D01*
X159916129Y-90928975D01*
X159720000Y-90909659D01*
X159523870Y-90928975D01*
X159335266Y-90986188D01*
X159161467Y-91079086D01*
X159161460Y-91079090D01*
X159009116Y-91204116D01*
X158884090Y-91356460D01*
X158884086Y-91356467D01*
X158791188Y-91530266D01*
X158733975Y-91718870D01*
X158714659Y-91915000D01*
X157045500Y-91915000D01*
X157045500Y-89375000D01*
X158714659Y-89375000D01*
X158733975Y-89571129D01*
X158791188Y-89759733D01*
X158884086Y-89933532D01*
X158884090Y-89933539D01*
X159009116Y-90085883D01*
X159161460Y-90210909D01*
X159161467Y-90210913D01*
X159335266Y-90303811D01*
X159335269Y-90303811D01*
X159335273Y-90303814D01*
X159523868Y-90361024D01*
X159720000Y-90380341D01*
X159916132Y-90361024D01*
X160104727Y-90303814D01*
X160278538Y-90210910D01*
X160430883Y-90085883D01*
X160555910Y-89933538D01*
X160646682Y-89763716D01*
X160648811Y-89759733D01*
X160648811Y-89759732D01*
X160648814Y-89759727D01*
X160706024Y-89571132D01*
X160725341Y-89375000D01*
X160706024Y-89178868D01*
X160648814Y-88990273D01*
X160648811Y-88990269D01*
X160648811Y-88990266D01*
X160555913Y-88816467D01*
X160555909Y-88816460D01*
X160430883Y-88664116D01*
X160278539Y-88539090D01*
X160278532Y-88539086D01*
X160104733Y-88446188D01*
X160104727Y-88446186D01*
X159978997Y-88408046D01*
X159916129Y-88388975D01*
X159720000Y-88369659D01*
X159523870Y-88388975D01*
X159335266Y-88446188D01*
X159161467Y-88539086D01*
X159161460Y-88539090D01*
X159009116Y-88664116D01*
X158884090Y-88816460D01*
X158884086Y-88816467D01*
X158791188Y-88990266D01*
X158733975Y-89178870D01*
X158714659Y-89375000D01*
X157045500Y-89375000D01*
X157045500Y-86835000D01*
X158714659Y-86835000D01*
X158733975Y-87031129D01*
X158733976Y-87031132D01*
X158786446Y-87204103D01*
X158791188Y-87219733D01*
X158884086Y-87393532D01*
X158884090Y-87393539D01*
X159009116Y-87545883D01*
X159161460Y-87670909D01*
X159161467Y-87670913D01*
X159335266Y-87763811D01*
X159335269Y-87763811D01*
X159335273Y-87763814D01*
X159523868Y-87821024D01*
X159720000Y-87840341D01*
X159916132Y-87821024D01*
X160104727Y-87763814D01*
X160278538Y-87670910D01*
X160430883Y-87545883D01*
X160555910Y-87393538D01*
X160638139Y-87239699D01*
X160648811Y-87219733D01*
X160648811Y-87219732D01*
X160648814Y-87219727D01*
X160706024Y-87031132D01*
X160725341Y-86835000D01*
X160706024Y-86638868D01*
X160648814Y-86450273D01*
X160648811Y-86450269D01*
X160648811Y-86450266D01*
X160555913Y-86276467D01*
X160555909Y-86276460D01*
X160430883Y-86124116D01*
X160278539Y-85999090D01*
X160278532Y-85999086D01*
X160104733Y-85906188D01*
X160104727Y-85906186D01*
X159916132Y-85848976D01*
X159916129Y-85848975D01*
X159720000Y-85829659D01*
X159523870Y-85848975D01*
X159335266Y-85906188D01*
X159161467Y-85999086D01*
X159161460Y-85999090D01*
X159009116Y-86124116D01*
X158884090Y-86276460D01*
X158884086Y-86276467D01*
X158791188Y-86450266D01*
X158733975Y-86638870D01*
X158714659Y-86835000D01*
X157045500Y-86835000D01*
X157045500Y-84295000D01*
X158714659Y-84295000D01*
X158733975Y-84491129D01*
X158733976Y-84491132D01*
X158786662Y-84664815D01*
X158791188Y-84679733D01*
X158884086Y-84853532D01*
X158884090Y-84853539D01*
X159009116Y-85005883D01*
X159161460Y-85130909D01*
X159161467Y-85130913D01*
X159335266Y-85223811D01*
X159335269Y-85223811D01*
X159335273Y-85223814D01*
X159523868Y-85281024D01*
X159720000Y-85300341D01*
X159916132Y-85281024D01*
X160104727Y-85223814D01*
X160278538Y-85130910D01*
X160430883Y-85005883D01*
X160555910Y-84853538D01*
X160616358Y-84740448D01*
X160648811Y-84679733D01*
X160648811Y-84679732D01*
X160648814Y-84679727D01*
X160706024Y-84491132D01*
X160725341Y-84295000D01*
X160706024Y-84098868D01*
X160648814Y-83910273D01*
X160648811Y-83910269D01*
X160648811Y-83910266D01*
X160555913Y-83736467D01*
X160555909Y-83736460D01*
X160430883Y-83584116D01*
X160278539Y-83459090D01*
X160278532Y-83459086D01*
X160104733Y-83366188D01*
X160104727Y-83366186D01*
X159916132Y-83308976D01*
X159916129Y-83308975D01*
X159720000Y-83289659D01*
X159523870Y-83308975D01*
X159335266Y-83366188D01*
X159161467Y-83459086D01*
X159161460Y-83459090D01*
X159009116Y-83584116D01*
X158884090Y-83736460D01*
X158884086Y-83736467D01*
X158791188Y-83910266D01*
X158733975Y-84098870D01*
X158714659Y-84295000D01*
X157045500Y-84295000D01*
X157045500Y-81755000D01*
X158714659Y-81755000D01*
X158733975Y-81951129D01*
X158791188Y-82139733D01*
X158884086Y-82313532D01*
X158884090Y-82313539D01*
X159009116Y-82465883D01*
X159161460Y-82590909D01*
X159161467Y-82590913D01*
X159335266Y-82683811D01*
X159335269Y-82683811D01*
X159335273Y-82683814D01*
X159523868Y-82741024D01*
X159720000Y-82760341D01*
X159916132Y-82741024D01*
X160104727Y-82683814D01*
X160278538Y-82590910D01*
X160430883Y-82465883D01*
X160555910Y-82313538D01*
X160648814Y-82139727D01*
X160706024Y-81951132D01*
X160725341Y-81755000D01*
X160706024Y-81558868D01*
X160648814Y-81370273D01*
X160648811Y-81370269D01*
X160648811Y-81370266D01*
X160555913Y-81196467D01*
X160555909Y-81196460D01*
X160430883Y-81044116D01*
X160278539Y-80919090D01*
X160278532Y-80919086D01*
X160104733Y-80826188D01*
X160104727Y-80826186D01*
X159978997Y-80788046D01*
X159916129Y-80768975D01*
X159720000Y-80749659D01*
X159523870Y-80768975D01*
X159335266Y-80826188D01*
X159161467Y-80919086D01*
X159161460Y-80919090D01*
X159009116Y-81044116D01*
X158884090Y-81196460D01*
X158884086Y-81196467D01*
X158791188Y-81370266D01*
X158733975Y-81558870D01*
X158714659Y-81755000D01*
X157045500Y-81755000D01*
X157045500Y-79215000D01*
X158714659Y-79215000D01*
X158733975Y-79411129D01*
X158733976Y-79411132D01*
X158764931Y-79513178D01*
X158791188Y-79599733D01*
X158884086Y-79773532D01*
X158884090Y-79773539D01*
X159009116Y-79925883D01*
X159161460Y-80050909D01*
X159161467Y-80050913D01*
X159335266Y-80143811D01*
X159335269Y-80143811D01*
X159335273Y-80143814D01*
X159523868Y-80201024D01*
X159720000Y-80220341D01*
X159916132Y-80201024D01*
X160104727Y-80143814D01*
X160278538Y-80050910D01*
X160430883Y-79925883D01*
X160555910Y-79773538D01*
X160648814Y-79599727D01*
X160706024Y-79411132D01*
X160725341Y-79215000D01*
X160706024Y-79018868D01*
X160648814Y-78830273D01*
X160648811Y-78830269D01*
X160648811Y-78830266D01*
X160555913Y-78656467D01*
X160555909Y-78656460D01*
X160430883Y-78504116D01*
X160278539Y-78379090D01*
X160278532Y-78379086D01*
X160104733Y-78286188D01*
X160104727Y-78286186D01*
X159916132Y-78228976D01*
X159916129Y-78228975D01*
X159720000Y-78209659D01*
X159523870Y-78228975D01*
X159335266Y-78286188D01*
X159161467Y-78379086D01*
X159161460Y-78379090D01*
X159009116Y-78504116D01*
X158884090Y-78656460D01*
X158884086Y-78656467D01*
X158791188Y-78830266D01*
X158733975Y-79018870D01*
X158714659Y-79215000D01*
X157045500Y-79215000D01*
X157045500Y-78484060D01*
X157045501Y-78484047D01*
X157045501Y-78315944D01*
X157024771Y-78238579D01*
X157004577Y-78163216D01*
X156937713Y-78047403D01*
X156925524Y-78026290D01*
X156925518Y-78026282D01*
X155574236Y-76675000D01*
X158714659Y-76675000D01*
X158733975Y-76871129D01*
X158791188Y-77059733D01*
X158884086Y-77233532D01*
X158884090Y-77233539D01*
X159009116Y-77385883D01*
X159161460Y-77510909D01*
X159161467Y-77510913D01*
X159335266Y-77603811D01*
X159335269Y-77603811D01*
X159335273Y-77603814D01*
X159523868Y-77661024D01*
X159720000Y-77680341D01*
X159916132Y-77661024D01*
X160104727Y-77603814D01*
X160278538Y-77510910D01*
X160430883Y-77385883D01*
X160555910Y-77233538D01*
X160603717Y-77144097D01*
X160648811Y-77059733D01*
X160648811Y-77059732D01*
X160648814Y-77059727D01*
X160706024Y-76871132D01*
X160725341Y-76675000D01*
X160706024Y-76478868D01*
X160648814Y-76290273D01*
X160648811Y-76290269D01*
X160648811Y-76290266D01*
X160555913Y-76116467D01*
X160555909Y-76116460D01*
X160430883Y-75964116D01*
X160278539Y-75839090D01*
X160278532Y-75839086D01*
X160104733Y-75746188D01*
X160104727Y-75746186D01*
X159916132Y-75688976D01*
X159916129Y-75688975D01*
X159720000Y-75669659D01*
X159523870Y-75688975D01*
X159335266Y-75746188D01*
X159161467Y-75839086D01*
X159161460Y-75839090D01*
X159009116Y-75964116D01*
X158884090Y-76116460D01*
X158884086Y-76116467D01*
X158791188Y-76290266D01*
X158733975Y-76478870D01*
X158714659Y-76675000D01*
X155574236Y-76675000D01*
X153034236Y-74135000D01*
X158714659Y-74135000D01*
X158733975Y-74331129D01*
X158791188Y-74519733D01*
X158884086Y-74693532D01*
X158884090Y-74693539D01*
X159009116Y-74845883D01*
X159161460Y-74970909D01*
X159161467Y-74970913D01*
X159335266Y-75063811D01*
X159335269Y-75063811D01*
X159335273Y-75063814D01*
X159523868Y-75121024D01*
X159720000Y-75140341D01*
X159916132Y-75121024D01*
X160104727Y-75063814D01*
X160278538Y-74970910D01*
X160430883Y-74845883D01*
X160555910Y-74693538D01*
X160648814Y-74519727D01*
X160706024Y-74331132D01*
X160725341Y-74135000D01*
X160706024Y-73938868D01*
X160648814Y-73750273D01*
X160648811Y-73750269D01*
X160648811Y-73750266D01*
X160555913Y-73576467D01*
X160555909Y-73576460D01*
X160430883Y-73424116D01*
X160278539Y-73299090D01*
X160278532Y-73299086D01*
X160104733Y-73206188D01*
X160104727Y-73206186D01*
X159967011Y-73164410D01*
X159916129Y-73148975D01*
X159720000Y-73129659D01*
X159523870Y-73148975D01*
X159335266Y-73206188D01*
X159161467Y-73299086D01*
X159161460Y-73299090D01*
X159009116Y-73424116D01*
X158884090Y-73576460D01*
X158884086Y-73576467D01*
X158791188Y-73750266D01*
X158733975Y-73938870D01*
X158714659Y-74135000D01*
X153034236Y-74135000D01*
X151506819Y-72607583D01*
X151473334Y-72546260D01*
X151470500Y-72519902D01*
X151470500Y-72282628D01*
X151490185Y-72215589D01*
X151520866Y-72182857D01*
X151542150Y-72167150D01*
X151622793Y-72057882D01*
X151645219Y-71993790D01*
X151667646Y-71929701D01*
X151667646Y-71929699D01*
X151670500Y-71899269D01*
X151670500Y-70890730D01*
X151667646Y-70860300D01*
X151667646Y-70860298D01*
X151622793Y-70732119D01*
X151622792Y-70732117D01*
X151542150Y-70622850D01*
X151432882Y-70542207D01*
X151432880Y-70542206D01*
X151304700Y-70497353D01*
X151274270Y-70494500D01*
X151274266Y-70494500D01*
X150465734Y-70494500D01*
X150465730Y-70494500D01*
X150435300Y-70497353D01*
X150435298Y-70497353D01*
X150307119Y-70542206D01*
X150307117Y-70542207D01*
X150197850Y-70622850D01*
X150117207Y-70732117D01*
X150117206Y-70732119D01*
X150072353Y-70860298D01*
X150072353Y-70860300D01*
X150069500Y-70890730D01*
X150069500Y-71899269D01*
X150072353Y-71929699D01*
X150072353Y-71929701D01*
X150117206Y-72057880D01*
X150117207Y-72057882D01*
X150176723Y-72138524D01*
X150187799Y-72153532D01*
X150197850Y-72167150D01*
X150219132Y-72182857D01*
X150261384Y-72238503D01*
X150269500Y-72282628D01*
X150269500Y-72733330D01*
X150269499Y-72733348D01*
X150269499Y-72899054D01*
X150269498Y-72899054D01*
X150310424Y-73051789D01*
X150310425Y-73051790D01*
X150331455Y-73088214D01*
X150331456Y-73088216D01*
X150389475Y-73188709D01*
X150389481Y-73188717D01*
X150508349Y-73307585D01*
X150508355Y-73307590D01*
X155808181Y-78607416D01*
X155841666Y-78668739D01*
X155844500Y-78695097D01*
X155844500Y-92645903D01*
X155824815Y-92712942D01*
X155772011Y-92758697D01*
X155702853Y-92768641D01*
X155639297Y-92739616D01*
X155632819Y-92733584D01*
X151381915Y-88482680D01*
X151348430Y-88421357D01*
X151353414Y-88351665D01*
X151381911Y-88307323D01*
X152803506Y-86885727D01*
X152803511Y-86885724D01*
X152813714Y-86875520D01*
X152813716Y-86875520D01*
X152925520Y-86763716D01*
X152983535Y-86663231D01*
X153004577Y-86626785D01*
X153045500Y-86474057D01*
X153045500Y-86315943D01*
X153045500Y-86282628D01*
X153065185Y-86215589D01*
X153095866Y-86182857D01*
X153117150Y-86167150D01*
X153197793Y-86057882D01*
X153220219Y-85993790D01*
X153242646Y-85929701D01*
X153242646Y-85929699D01*
X153245500Y-85899269D01*
X153245500Y-84890730D01*
X153242646Y-84860300D01*
X153242646Y-84860298D01*
X153197793Y-84732119D01*
X153197792Y-84732117D01*
X153171234Y-84696132D01*
X153117150Y-84622850D01*
X153007882Y-84542207D01*
X153007880Y-84542206D01*
X152879700Y-84497353D01*
X152849270Y-84494500D01*
X152849266Y-84494500D01*
X152040734Y-84494500D01*
X152040730Y-84494500D01*
X152010300Y-84497353D01*
X152010298Y-84497353D01*
X151882119Y-84542206D01*
X151882117Y-84542207D01*
X151772850Y-84622850D01*
X151692207Y-84732117D01*
X151692206Y-84732119D01*
X151647353Y-84860298D01*
X151647353Y-84860300D01*
X151644500Y-84890730D01*
X151644500Y-85899269D01*
X151647353Y-85929699D01*
X151647353Y-85929701D01*
X151692206Y-86057880D01*
X151692207Y-86057882D01*
X151719530Y-86094903D01*
X151731040Y-86110499D01*
X151755010Y-86176128D01*
X151739694Y-86244298D01*
X151718950Y-86271813D01*
X150076286Y-87914478D01*
X148964483Y-89026281D01*
X148964481Y-89026284D01*
X148885423Y-89163214D01*
X148885423Y-89163215D01*
X148844499Y-89315943D01*
X148844499Y-89315945D01*
X148844499Y-89474054D01*
X148844498Y-89474054D01*
X148844499Y-89474057D01*
X148885423Y-89626785D01*
X148964481Y-89763716D01*
X149076284Y-89875519D01*
X149213215Y-89954577D01*
X149365943Y-89995501D01*
X149365946Y-89995501D01*
X149524054Y-89995501D01*
X149524057Y-89995501D01*
X149676785Y-89954577D01*
X149813716Y-89875519D01*
X150357319Y-89331916D01*
X150418642Y-89298431D01*
X150488334Y-89303415D01*
X150532681Y-89331916D01*
X155808181Y-94607416D01*
X155841666Y-94668739D01*
X155844500Y-94695097D01*
X155844500Y-103920902D01*
X155824815Y-103987941D01*
X155772011Y-104033696D01*
X155702853Y-104043640D01*
X155639297Y-104014615D01*
X155632819Y-104008583D01*
X151693263Y-100069028D01*
X151659778Y-100007705D01*
X151663904Y-99940391D01*
X151667646Y-99929699D01*
X151670500Y-99899266D01*
X151670500Y-98890734D01*
X151669729Y-98882517D01*
X151667646Y-98860300D01*
X151667646Y-98860298D01*
X151622793Y-98732119D01*
X151622792Y-98732117D01*
X151598414Y-98699086D01*
X151542150Y-98622850D01*
X151432882Y-98542207D01*
X151432880Y-98542206D01*
X151304700Y-98497353D01*
X151274270Y-98494500D01*
X151274266Y-98494500D01*
X150465734Y-98494500D01*
X150465730Y-98494500D01*
X150435300Y-98497353D01*
X150435298Y-98497353D01*
X150307119Y-98542206D01*
X150307117Y-98542207D01*
X150197850Y-98622850D01*
X150111689Y-98739595D01*
X150109714Y-98738137D01*
X150070420Y-98778515D01*
X150009520Y-98794500D01*
X145199163Y-98794500D01*
X145132124Y-98774815D01*
X145120498Y-98766353D01*
X145038539Y-98699090D01*
X145038532Y-98699086D01*
X144864733Y-98606188D01*
X144864727Y-98606186D01*
X144676132Y-98548976D01*
X144676129Y-98548975D01*
X144480000Y-98529659D01*
X144283870Y-98548975D01*
X144095266Y-98606188D01*
X143921467Y-98699086D01*
X143921460Y-98699090D01*
X143769116Y-98824116D01*
X143644090Y-98976460D01*
X143644086Y-98976467D01*
X143551188Y-99150266D01*
X143493975Y-99338870D01*
X143474659Y-99535000D01*
X141945500Y-99535000D01*
X141945500Y-96995000D01*
X143474659Y-96995000D01*
X143493975Y-97191129D01*
X143551188Y-97379733D01*
X143644086Y-97553532D01*
X143644090Y-97553539D01*
X143769116Y-97705883D01*
X143921460Y-97830909D01*
X143921467Y-97830913D01*
X144095266Y-97923811D01*
X144095269Y-97923811D01*
X144095273Y-97923814D01*
X144283868Y-97981024D01*
X144480000Y-98000341D01*
X144676132Y-97981024D01*
X144864727Y-97923814D01*
X145038538Y-97830910D01*
X145190883Y-97705883D01*
X145315910Y-97553538D01*
X145408814Y-97379727D01*
X145466024Y-97191132D01*
X145485341Y-96995000D01*
X145466024Y-96798868D01*
X145408814Y-96610273D01*
X145408811Y-96610269D01*
X145408811Y-96610266D01*
X145315913Y-96436467D01*
X145315909Y-96436460D01*
X145190883Y-96284116D01*
X145038539Y-96159090D01*
X145038532Y-96159086D01*
X144864733Y-96066188D01*
X144864727Y-96066186D01*
X144676132Y-96008976D01*
X144676129Y-96008975D01*
X144480000Y-95989659D01*
X144283870Y-96008975D01*
X144095266Y-96066188D01*
X143921467Y-96159086D01*
X143921460Y-96159090D01*
X143769116Y-96284116D01*
X143644090Y-96436460D01*
X143644086Y-96436467D01*
X143551188Y-96610266D01*
X143493975Y-96798870D01*
X143474659Y-96995000D01*
X141945500Y-96995000D01*
X141945500Y-94455000D01*
X143474659Y-94455000D01*
X143493975Y-94651129D01*
X143551188Y-94839733D01*
X143644086Y-95013532D01*
X143644090Y-95013539D01*
X143769116Y-95165883D01*
X143921460Y-95290909D01*
X143921467Y-95290913D01*
X144095266Y-95383811D01*
X144095269Y-95383811D01*
X144095273Y-95383814D01*
X144283868Y-95441024D01*
X144480000Y-95460341D01*
X144676132Y-95441024D01*
X144864727Y-95383814D01*
X145038538Y-95290910D01*
X145190883Y-95165883D01*
X145315910Y-95013538D01*
X145408814Y-94839727D01*
X145466024Y-94651132D01*
X145485341Y-94455000D01*
X145466024Y-94258868D01*
X145408814Y-94070273D01*
X145408811Y-94070269D01*
X145408811Y-94070266D01*
X145315913Y-93896467D01*
X145315909Y-93896460D01*
X145190883Y-93744116D01*
X145038539Y-93619090D01*
X145038532Y-93619086D01*
X144864733Y-93526188D01*
X144864727Y-93526186D01*
X144676132Y-93468976D01*
X144676129Y-93468975D01*
X144480000Y-93449659D01*
X144283870Y-93468975D01*
X144095266Y-93526188D01*
X143921467Y-93619086D01*
X143921460Y-93619090D01*
X143769116Y-93744116D01*
X143644090Y-93896460D01*
X143644086Y-93896467D01*
X143551188Y-94070266D01*
X143493975Y-94258870D01*
X143474659Y-94455000D01*
X141945500Y-94455000D01*
X141945500Y-93175247D01*
X149344500Y-93175247D01*
X149344500Y-95014752D01*
X149356131Y-95073229D01*
X149356132Y-95073230D01*
X149400447Y-95139552D01*
X149466769Y-95183867D01*
X149466770Y-95183868D01*
X149525247Y-95195499D01*
X149525250Y-95195500D01*
X149525252Y-95195500D01*
X151364750Y-95195500D01*
X151364751Y-95195499D01*
X151379568Y-95192552D01*
X151423229Y-95183868D01*
X151423229Y-95183867D01*
X151423231Y-95183867D01*
X151489552Y-95139552D01*
X151533867Y-95073231D01*
X151533867Y-95073229D01*
X151533868Y-95073229D01*
X151543674Y-95023926D01*
X151545500Y-95014748D01*
X151545500Y-94094999D01*
X151879785Y-94094999D01*
X151879785Y-94095000D01*
X151898602Y-94298082D01*
X151954417Y-94494247D01*
X151954422Y-94494260D01*
X152045327Y-94676821D01*
X152168237Y-94839581D01*
X152318958Y-94976980D01*
X152318960Y-94976982D01*
X152377991Y-95013532D01*
X152475777Y-95074078D01*
X152522413Y-95126105D01*
X152534500Y-95179505D01*
X152534500Y-98375847D01*
X152514815Y-98442886D01*
X152462011Y-98488641D01*
X152436963Y-98496990D01*
X152435301Y-98497352D01*
X152307119Y-98542206D01*
X152307117Y-98542207D01*
X152197850Y-98622850D01*
X152117207Y-98732117D01*
X152117206Y-98732119D01*
X152072353Y-98860298D01*
X152072353Y-98860300D01*
X152069500Y-98890730D01*
X152069500Y-99899269D01*
X152072353Y-99929699D01*
X152072353Y-99929701D01*
X152117206Y-100057880D01*
X152117207Y-100057882D01*
X152197850Y-100167150D01*
X152307118Y-100247793D01*
X152345559Y-100261244D01*
X152435299Y-100292646D01*
X152465730Y-100295500D01*
X152465734Y-100295500D01*
X153274270Y-100295500D01*
X153304699Y-100292646D01*
X153304701Y-100292646D01*
X153368790Y-100270219D01*
X153432882Y-100247793D01*
X153542150Y-100167150D01*
X153622793Y-100057882D01*
X153663907Y-99940385D01*
X153667646Y-99929701D01*
X153667646Y-99929699D01*
X153670500Y-99899269D01*
X153670500Y-98890730D01*
X153667646Y-98860300D01*
X153667646Y-98860298D01*
X153622793Y-98732119D01*
X153622792Y-98732117D01*
X153542149Y-98622849D01*
X153485865Y-98581309D01*
X153443615Y-98525661D01*
X153435500Y-98481540D01*
X153435500Y-95179505D01*
X153455185Y-95112466D01*
X153494221Y-95074079D01*
X153651041Y-94976981D01*
X153801764Y-94839579D01*
X153924673Y-94676821D01*
X154015582Y-94494250D01*
X154071397Y-94298083D01*
X154090215Y-94095000D01*
X154071397Y-93891917D01*
X154015582Y-93695750D01*
X153924673Y-93513179D01*
X153801764Y-93350421D01*
X153801762Y-93350418D01*
X153651041Y-93213019D01*
X153651039Y-93213017D01*
X153477642Y-93105655D01*
X153477635Y-93105651D01*
X153335135Y-93050447D01*
X153287456Y-93031976D01*
X153086976Y-92994500D01*
X152883024Y-92994500D01*
X152682544Y-93031976D01*
X152682541Y-93031976D01*
X152682541Y-93031977D01*
X152492364Y-93105651D01*
X152492357Y-93105655D01*
X152318960Y-93213017D01*
X152318958Y-93213019D01*
X152168237Y-93350418D01*
X152045327Y-93513178D01*
X151954422Y-93695739D01*
X151954417Y-93695752D01*
X151898602Y-93891917D01*
X151879785Y-94094999D01*
X151545500Y-94094999D01*
X151545500Y-93175252D01*
X151545500Y-93175249D01*
X151545499Y-93175247D01*
X151533868Y-93116770D01*
X151533867Y-93116769D01*
X151489552Y-93050447D01*
X151423230Y-93006132D01*
X151423229Y-93006131D01*
X151364752Y-92994500D01*
X151364748Y-92994500D01*
X149525252Y-92994500D01*
X149525247Y-92994500D01*
X149466770Y-93006131D01*
X149466769Y-93006132D01*
X149400447Y-93050447D01*
X149356132Y-93116769D01*
X149356131Y-93116770D01*
X149344500Y-93175247D01*
X141945500Y-93175247D01*
X141945500Y-91915000D01*
X143474659Y-91915000D01*
X143493975Y-92111129D01*
X143551188Y-92299733D01*
X143644086Y-92473532D01*
X143644090Y-92473539D01*
X143769116Y-92625883D01*
X143921460Y-92750909D01*
X143921467Y-92750913D01*
X144095266Y-92843811D01*
X144095269Y-92843811D01*
X144095273Y-92843814D01*
X144283868Y-92901024D01*
X144480000Y-92920341D01*
X144676132Y-92901024D01*
X144864727Y-92843814D01*
X145038538Y-92750910D01*
X145190883Y-92625883D01*
X145315910Y-92473538D01*
X145408814Y-92299727D01*
X145466024Y-92111132D01*
X145485341Y-91915000D01*
X145466024Y-91718868D01*
X145408814Y-91530273D01*
X145408811Y-91530269D01*
X145408811Y-91530266D01*
X145315913Y-91356467D01*
X145315909Y-91356460D01*
X145190883Y-91204116D01*
X145038539Y-91079090D01*
X145038532Y-91079086D01*
X144864733Y-90986188D01*
X144864727Y-90986186D01*
X144676132Y-90928976D01*
X144676129Y-90928975D01*
X144480000Y-90909659D01*
X144283870Y-90928975D01*
X144095266Y-90986188D01*
X143921467Y-91079086D01*
X143921460Y-91079090D01*
X143769116Y-91204116D01*
X143644090Y-91356460D01*
X143644086Y-91356467D01*
X143551188Y-91530266D01*
X143493975Y-91718870D01*
X143474659Y-91915000D01*
X141945500Y-91915000D01*
X141945500Y-89375000D01*
X143474659Y-89375000D01*
X143493975Y-89571129D01*
X143551188Y-89759733D01*
X143644086Y-89933532D01*
X143644090Y-89933539D01*
X143769116Y-90085883D01*
X143921460Y-90210909D01*
X143921467Y-90210913D01*
X144095266Y-90303811D01*
X144095269Y-90303811D01*
X144095273Y-90303814D01*
X144283868Y-90361024D01*
X144480000Y-90380341D01*
X144676132Y-90361024D01*
X144864727Y-90303814D01*
X145038538Y-90210910D01*
X145190883Y-90085883D01*
X145315910Y-89933538D01*
X145406682Y-89763716D01*
X145408811Y-89759733D01*
X145408811Y-89759732D01*
X145408814Y-89759727D01*
X145466024Y-89571132D01*
X145485341Y-89375000D01*
X145466024Y-89178868D01*
X145408814Y-88990273D01*
X145408811Y-88990269D01*
X145408811Y-88990266D01*
X145315913Y-88816467D01*
X145315909Y-88816460D01*
X145190883Y-88664116D01*
X145038539Y-88539090D01*
X145038532Y-88539086D01*
X144864733Y-88446188D01*
X144864727Y-88446186D01*
X144738997Y-88408046D01*
X144676129Y-88388975D01*
X144480000Y-88369659D01*
X144283870Y-88388975D01*
X144095266Y-88446188D01*
X143921467Y-88539086D01*
X143921460Y-88539090D01*
X143769116Y-88664116D01*
X143644090Y-88816460D01*
X143644086Y-88816467D01*
X143551188Y-88990266D01*
X143493975Y-89178870D01*
X143474659Y-89375000D01*
X141945500Y-89375000D01*
X141945500Y-86835000D01*
X143474659Y-86835000D01*
X143493975Y-87031129D01*
X143493976Y-87031132D01*
X143546446Y-87204103D01*
X143551188Y-87219733D01*
X143644086Y-87393532D01*
X143644090Y-87393539D01*
X143769116Y-87545883D01*
X143921460Y-87670909D01*
X143921467Y-87670913D01*
X144095266Y-87763811D01*
X144095269Y-87763811D01*
X144095273Y-87763814D01*
X144283868Y-87821024D01*
X144480000Y-87840341D01*
X144676132Y-87821024D01*
X144864727Y-87763814D01*
X145038538Y-87670910D01*
X145190883Y-87545883D01*
X145315910Y-87393538D01*
X145398139Y-87239699D01*
X145408811Y-87219733D01*
X145408811Y-87219732D01*
X145408814Y-87219727D01*
X145466024Y-87031132D01*
X145485341Y-86835000D01*
X145466024Y-86638868D01*
X145408814Y-86450273D01*
X145408811Y-86450269D01*
X145408811Y-86450266D01*
X145315913Y-86276467D01*
X145315909Y-86276460D01*
X145190883Y-86124116D01*
X145038539Y-85999090D01*
X145038532Y-85999086D01*
X144864733Y-85906188D01*
X144864727Y-85906186D01*
X144676132Y-85848976D01*
X144676129Y-85848975D01*
X144480000Y-85829659D01*
X144283870Y-85848975D01*
X144095266Y-85906188D01*
X143921467Y-85999086D01*
X143921460Y-85999090D01*
X143769116Y-86124116D01*
X143644090Y-86276460D01*
X143644086Y-86276467D01*
X143551188Y-86450266D01*
X143493975Y-86638870D01*
X143474659Y-86835000D01*
X141945500Y-86835000D01*
X141945500Y-84295000D01*
X143474659Y-84295000D01*
X143493975Y-84491129D01*
X143493976Y-84491132D01*
X143546662Y-84664815D01*
X143551188Y-84679733D01*
X143644086Y-84853532D01*
X143644090Y-84853539D01*
X143769116Y-85005883D01*
X143921460Y-85130909D01*
X143921467Y-85130913D01*
X144095266Y-85223811D01*
X144095269Y-85223811D01*
X144095273Y-85223814D01*
X144283868Y-85281024D01*
X144480000Y-85300341D01*
X144676132Y-85281024D01*
X144864727Y-85223814D01*
X145038538Y-85130910D01*
X145190883Y-85005883D01*
X145315910Y-84853538D01*
X145376358Y-84740448D01*
X145408811Y-84679733D01*
X145408811Y-84679732D01*
X145408814Y-84679727D01*
X145466024Y-84491132D01*
X145485341Y-84295000D01*
X145466024Y-84098868D01*
X145408814Y-83910273D01*
X145408811Y-83910269D01*
X145408811Y-83910266D01*
X145315913Y-83736467D01*
X145315909Y-83736460D01*
X145190883Y-83584116D01*
X145038539Y-83459090D01*
X145038532Y-83459086D01*
X144864733Y-83366188D01*
X144864727Y-83366186D01*
X144676132Y-83308976D01*
X144676129Y-83308975D01*
X144480000Y-83289659D01*
X144283870Y-83308975D01*
X144095266Y-83366188D01*
X143921467Y-83459086D01*
X143921460Y-83459090D01*
X143769116Y-83584116D01*
X143644090Y-83736460D01*
X143644086Y-83736467D01*
X143551188Y-83910266D01*
X143493975Y-84098870D01*
X143474659Y-84295000D01*
X141945500Y-84295000D01*
X141945500Y-81755000D01*
X143474659Y-81755000D01*
X143493975Y-81951129D01*
X143551188Y-82139733D01*
X143644086Y-82313532D01*
X143644090Y-82313539D01*
X143769116Y-82465883D01*
X143921460Y-82590909D01*
X143921467Y-82590913D01*
X144095266Y-82683811D01*
X144095269Y-82683811D01*
X144095273Y-82683814D01*
X144283868Y-82741024D01*
X144480000Y-82760341D01*
X144676132Y-82741024D01*
X144864727Y-82683814D01*
X145038538Y-82590910D01*
X145190883Y-82465883D01*
X145315910Y-82313538D01*
X145408814Y-82139727D01*
X145466024Y-81951132D01*
X145485341Y-81755000D01*
X145466024Y-81558868D01*
X145408814Y-81370273D01*
X145408811Y-81370269D01*
X145408811Y-81370266D01*
X145315913Y-81196467D01*
X145315909Y-81196460D01*
X145190883Y-81044116D01*
X145038539Y-80919090D01*
X145038532Y-80919086D01*
X144864733Y-80826188D01*
X144864727Y-80826186D01*
X144738997Y-80788046D01*
X144676129Y-80768975D01*
X144480000Y-80749659D01*
X144283870Y-80768975D01*
X144095266Y-80826188D01*
X143921467Y-80919086D01*
X143921460Y-80919090D01*
X143769116Y-81044116D01*
X143644090Y-81196460D01*
X143644086Y-81196467D01*
X143551188Y-81370266D01*
X143493975Y-81558870D01*
X143474659Y-81755000D01*
X141945500Y-81755000D01*
X141945500Y-79215000D01*
X143474659Y-79215000D01*
X143493975Y-79411129D01*
X143493976Y-79411132D01*
X143524931Y-79513178D01*
X143551188Y-79599733D01*
X143644086Y-79773532D01*
X143644090Y-79773539D01*
X143769116Y-79925883D01*
X143921460Y-80050909D01*
X143921467Y-80050913D01*
X144095266Y-80143811D01*
X144095269Y-80143811D01*
X144095273Y-80143814D01*
X144283868Y-80201024D01*
X144480000Y-80220341D01*
X144676132Y-80201024D01*
X144864727Y-80143814D01*
X145038538Y-80050910D01*
X145190883Y-79925883D01*
X145315910Y-79773538D01*
X145408814Y-79599727D01*
X145466024Y-79411132D01*
X145485341Y-79215000D01*
X145481426Y-79175247D01*
X149344500Y-79175247D01*
X149344500Y-81014752D01*
X149356131Y-81073229D01*
X149356132Y-81073230D01*
X149400447Y-81139552D01*
X149466769Y-81183867D01*
X149466770Y-81183868D01*
X149525247Y-81195499D01*
X149525250Y-81195500D01*
X149525252Y-81195500D01*
X151364750Y-81195500D01*
X151364751Y-81195499D01*
X151379568Y-81192552D01*
X151423229Y-81183868D01*
X151423229Y-81183867D01*
X151423231Y-81183867D01*
X151489552Y-81139552D01*
X151533867Y-81073231D01*
X151533867Y-81073229D01*
X151533868Y-81073229D01*
X151545499Y-81014752D01*
X151545500Y-81014750D01*
X151545500Y-80094999D01*
X151879785Y-80094999D01*
X151879785Y-80095000D01*
X151898602Y-80298082D01*
X151954417Y-80494247D01*
X151954422Y-80494260D01*
X152045327Y-80676821D01*
X152168237Y-80839581D01*
X152318958Y-80976980D01*
X152318960Y-80976982D01*
X152349829Y-80996095D01*
X152492363Y-81084348D01*
X152682544Y-81158024D01*
X152883024Y-81195500D01*
X152883026Y-81195500D01*
X153086974Y-81195500D01*
X153086976Y-81195500D01*
X153287456Y-81158024D01*
X153301103Y-81152736D01*
X153370724Y-81146874D01*
X153432465Y-81179582D01*
X153433578Y-81180682D01*
X153958181Y-81705284D01*
X153991666Y-81766607D01*
X153994500Y-81792965D01*
X153994500Y-84414900D01*
X153974815Y-84481939D01*
X153922011Y-84527694D01*
X153911456Y-84531941D01*
X153882118Y-84542207D01*
X153772850Y-84622850D01*
X153692207Y-84732117D01*
X153692206Y-84732119D01*
X153647353Y-84860298D01*
X153647353Y-84860300D01*
X153644500Y-84890730D01*
X153644500Y-85899269D01*
X153647353Y-85929699D01*
X153647353Y-85929701D01*
X153692206Y-86057880D01*
X153692207Y-86057882D01*
X153772850Y-86167150D01*
X153882118Y-86247793D01*
X153924845Y-86262744D01*
X154010299Y-86292646D01*
X154040730Y-86295500D01*
X154040734Y-86295500D01*
X154849270Y-86295500D01*
X154879699Y-86292646D01*
X154879701Y-86292646D01*
X154943790Y-86270219D01*
X155007882Y-86247793D01*
X155117150Y-86167150D01*
X155197793Y-86057882D01*
X155220219Y-85993790D01*
X155242646Y-85929701D01*
X155242646Y-85929699D01*
X155245500Y-85899269D01*
X155245500Y-84890730D01*
X155242646Y-84860300D01*
X155242646Y-84860298D01*
X155197793Y-84732119D01*
X155197792Y-84732117D01*
X155171234Y-84696132D01*
X155117150Y-84622850D01*
X155007882Y-84542207D01*
X154978543Y-84531940D01*
X154921769Y-84491219D01*
X154896022Y-84426266D01*
X154895500Y-84414900D01*
X154895500Y-81495693D01*
X154895500Y-81495691D01*
X154864799Y-81381114D01*
X154864799Y-81381113D01*
X154864799Y-81381112D01*
X154805492Y-81278389D01*
X154805488Y-81278384D01*
X154068387Y-80541283D01*
X154034902Y-80479960D01*
X154036801Y-80419669D01*
X154071397Y-80298083D01*
X154090215Y-80095000D01*
X154086129Y-80050909D01*
X154071397Y-79891917D01*
X154029595Y-79745000D01*
X154015582Y-79695750D01*
X154008749Y-79682028D01*
X153971272Y-79606764D01*
X153924673Y-79513179D01*
X153847609Y-79411129D01*
X153801762Y-79350418D01*
X153651041Y-79213019D01*
X153651039Y-79213017D01*
X153477642Y-79105655D01*
X153477635Y-79105651D01*
X153335135Y-79050447D01*
X153287456Y-79031976D01*
X153086976Y-78994500D01*
X152883024Y-78994500D01*
X152682544Y-79031976D01*
X152682541Y-79031976D01*
X152682541Y-79031977D01*
X152492364Y-79105651D01*
X152492357Y-79105655D01*
X152318960Y-79213017D01*
X152318958Y-79213019D01*
X152168237Y-79350418D01*
X152045327Y-79513178D01*
X151954422Y-79695739D01*
X151954417Y-79695752D01*
X151898602Y-79891917D01*
X151879785Y-80094999D01*
X151545500Y-80094999D01*
X151545500Y-79175249D01*
X151545499Y-79175247D01*
X151533868Y-79116770D01*
X151533867Y-79116769D01*
X151489552Y-79050447D01*
X151423230Y-79006132D01*
X151423229Y-79006131D01*
X151364752Y-78994500D01*
X151364748Y-78994500D01*
X149525252Y-78994500D01*
X149525247Y-78994500D01*
X149466770Y-79006131D01*
X149466769Y-79006132D01*
X149400447Y-79050447D01*
X149356132Y-79116769D01*
X149356131Y-79116770D01*
X149344500Y-79175247D01*
X145481426Y-79175247D01*
X145466024Y-79018868D01*
X145408814Y-78830273D01*
X145408811Y-78830269D01*
X145408811Y-78830266D01*
X145315913Y-78656467D01*
X145315909Y-78656460D01*
X145190883Y-78504116D01*
X145038539Y-78379090D01*
X145038532Y-78379086D01*
X144864733Y-78286188D01*
X144864727Y-78286186D01*
X144676132Y-78228976D01*
X144676129Y-78228975D01*
X144480000Y-78209659D01*
X144283870Y-78228975D01*
X144095266Y-78286188D01*
X143921467Y-78379086D01*
X143921460Y-78379090D01*
X143769116Y-78504116D01*
X143644090Y-78656460D01*
X143644086Y-78656467D01*
X143551188Y-78830266D01*
X143493975Y-79018870D01*
X143474659Y-79215000D01*
X141945500Y-79215000D01*
X141945500Y-76675000D01*
X143474659Y-76675000D01*
X143493975Y-76871129D01*
X143551188Y-77059733D01*
X143644086Y-77233532D01*
X143644090Y-77233539D01*
X143769116Y-77385883D01*
X143921460Y-77510909D01*
X143921467Y-77510913D01*
X144095266Y-77603811D01*
X144095269Y-77603811D01*
X144095273Y-77603814D01*
X144283868Y-77661024D01*
X144480000Y-77680341D01*
X144676132Y-77661024D01*
X144864727Y-77603814D01*
X145038538Y-77510910D01*
X145190883Y-77385883D01*
X145315910Y-77233538D01*
X145363717Y-77144097D01*
X145408811Y-77059733D01*
X145408811Y-77059732D01*
X145408814Y-77059727D01*
X145466024Y-76871132D01*
X145485341Y-76675000D01*
X145466024Y-76478868D01*
X145408814Y-76290273D01*
X145408811Y-76290269D01*
X145408811Y-76290266D01*
X145315913Y-76116467D01*
X145315909Y-76116460D01*
X145190883Y-75964116D01*
X145038539Y-75839090D01*
X145038532Y-75839086D01*
X144864733Y-75746188D01*
X144864727Y-75746186D01*
X144676132Y-75688976D01*
X144676129Y-75688975D01*
X144480000Y-75669659D01*
X144283870Y-75688975D01*
X144095266Y-75746188D01*
X143921467Y-75839086D01*
X143921460Y-75839090D01*
X143769116Y-75964116D01*
X143644090Y-76116460D01*
X143644086Y-76116467D01*
X143551188Y-76290266D01*
X143493975Y-76478870D01*
X143474659Y-76675000D01*
X141945500Y-76675000D01*
X141945500Y-74135000D01*
X143474659Y-74135000D01*
X143493975Y-74331129D01*
X143551188Y-74519733D01*
X143644086Y-74693532D01*
X143644090Y-74693539D01*
X143769116Y-74845883D01*
X143921460Y-74970909D01*
X143921467Y-74970913D01*
X144095266Y-75063811D01*
X144095269Y-75063811D01*
X144095273Y-75063814D01*
X144283868Y-75121024D01*
X144480000Y-75140341D01*
X144676132Y-75121024D01*
X144864727Y-75063814D01*
X145038538Y-74970910D01*
X145190883Y-74845883D01*
X145315910Y-74693538D01*
X145408814Y-74519727D01*
X145466024Y-74331132D01*
X145485341Y-74135000D01*
X145466024Y-73938868D01*
X145408814Y-73750273D01*
X145408811Y-73750269D01*
X145408811Y-73750266D01*
X145315913Y-73576467D01*
X145315909Y-73576460D01*
X145190883Y-73424116D01*
X145038539Y-73299090D01*
X145038532Y-73299086D01*
X144864733Y-73206188D01*
X144864727Y-73206186D01*
X144727011Y-73164410D01*
X144676129Y-73148975D01*
X144480000Y-73129659D01*
X144283870Y-73148975D01*
X144095266Y-73206188D01*
X143921467Y-73299086D01*
X143921460Y-73299090D01*
X143769116Y-73424116D01*
X143644090Y-73576460D01*
X143644086Y-73576467D01*
X143551188Y-73750266D01*
X143493975Y-73938870D01*
X143474659Y-74135000D01*
X141945500Y-74135000D01*
X141945500Y-71595000D01*
X143474659Y-71595000D01*
X143493975Y-71791129D01*
X143551188Y-71979733D01*
X143644086Y-72153532D01*
X143644090Y-72153539D01*
X143769116Y-72305883D01*
X143921460Y-72430909D01*
X143921467Y-72430913D01*
X144095266Y-72523811D01*
X144095269Y-72523811D01*
X144095273Y-72523814D01*
X144283868Y-72581024D01*
X144480000Y-72600341D01*
X144676132Y-72581024D01*
X144864727Y-72523814D01*
X145038538Y-72430910D01*
X145190883Y-72305883D01*
X145315910Y-72153538D01*
X145388653Y-72017445D01*
X145408811Y-71979733D01*
X145408811Y-71979732D01*
X145408814Y-71979727D01*
X145466024Y-71791132D01*
X145485341Y-71595000D01*
X145466024Y-71398868D01*
X145408814Y-71210273D01*
X145408811Y-71210269D01*
X145408811Y-71210266D01*
X145315913Y-71036467D01*
X145315909Y-71036460D01*
X145190883Y-70884116D01*
X145038539Y-70759090D01*
X145038532Y-70759086D01*
X144864733Y-70666188D01*
X144864727Y-70666186D01*
X144676132Y-70608976D01*
X144676129Y-70608975D01*
X144480000Y-70589659D01*
X144283870Y-70608975D01*
X144095266Y-70666188D01*
X143921467Y-70759086D01*
X143921460Y-70759090D01*
X143769116Y-70884116D01*
X143644090Y-71036460D01*
X143644086Y-71036467D01*
X143551188Y-71210266D01*
X143493975Y-71398870D01*
X143474659Y-71595000D01*
X141945500Y-71595000D01*
X141945500Y-65175247D01*
X149344500Y-65175247D01*
X149344500Y-67014752D01*
X149356131Y-67073229D01*
X149356132Y-67073230D01*
X149400447Y-67139552D01*
X149466769Y-67183867D01*
X149466770Y-67183868D01*
X149525247Y-67195499D01*
X149525250Y-67195500D01*
X149525252Y-67195500D01*
X151364750Y-67195500D01*
X151364751Y-67195499D01*
X151379568Y-67192552D01*
X151423229Y-67183868D01*
X151423229Y-67183867D01*
X151423231Y-67183867D01*
X151489552Y-67139552D01*
X151533867Y-67073231D01*
X151533867Y-67073229D01*
X151533868Y-67073229D01*
X151545499Y-67014752D01*
X151545500Y-67014750D01*
X151545500Y-66094999D01*
X151879785Y-66094999D01*
X151879785Y-66095000D01*
X151898602Y-66298082D01*
X151954417Y-66494247D01*
X151954422Y-66494260D01*
X152045327Y-66676821D01*
X152168237Y-66839581D01*
X152318958Y-66976980D01*
X152318960Y-66976982D01*
X152377791Y-67013408D01*
X152475777Y-67074078D01*
X152522413Y-67126105D01*
X152534500Y-67179505D01*
X152534500Y-70375847D01*
X152514815Y-70442886D01*
X152462011Y-70488641D01*
X152436963Y-70496990D01*
X152435301Y-70497352D01*
X152307119Y-70542206D01*
X152307117Y-70542207D01*
X152197850Y-70622850D01*
X152117207Y-70732117D01*
X152117206Y-70732119D01*
X152072353Y-70860298D01*
X152072353Y-70860300D01*
X152069500Y-70890730D01*
X152069500Y-71899269D01*
X152072353Y-71929699D01*
X152072353Y-71929701D01*
X152117206Y-72057880D01*
X152117207Y-72057882D01*
X152197850Y-72167150D01*
X152307118Y-72247793D01*
X152349845Y-72262744D01*
X152435299Y-72292646D01*
X152465730Y-72295500D01*
X152465734Y-72295500D01*
X153274270Y-72295500D01*
X153304699Y-72292646D01*
X153304701Y-72292646D01*
X153368790Y-72270219D01*
X153432882Y-72247793D01*
X153542150Y-72167150D01*
X153622793Y-72057882D01*
X153645219Y-71993790D01*
X153667646Y-71929701D01*
X153667646Y-71929699D01*
X153670500Y-71899269D01*
X153670500Y-71595000D01*
X158714659Y-71595000D01*
X158733975Y-71791129D01*
X158791188Y-71979733D01*
X158884086Y-72153532D01*
X158884090Y-72153539D01*
X159009116Y-72305883D01*
X159161460Y-72430909D01*
X159161467Y-72430913D01*
X159335266Y-72523811D01*
X159335269Y-72523811D01*
X159335273Y-72523814D01*
X159523868Y-72581024D01*
X159720000Y-72600341D01*
X159916132Y-72581024D01*
X160104727Y-72523814D01*
X160278538Y-72430910D01*
X160430883Y-72305883D01*
X160555910Y-72153538D01*
X160628653Y-72017445D01*
X160648811Y-71979733D01*
X160648811Y-71979732D01*
X160648814Y-71979727D01*
X160706024Y-71791132D01*
X160725341Y-71595000D01*
X160706024Y-71398868D01*
X160648814Y-71210273D01*
X160648811Y-71210269D01*
X160648811Y-71210266D01*
X160555913Y-71036467D01*
X160555909Y-71036460D01*
X160430883Y-70884116D01*
X160278539Y-70759090D01*
X160278532Y-70759086D01*
X160104733Y-70666188D01*
X160104727Y-70666186D01*
X159916132Y-70608976D01*
X159916129Y-70608975D01*
X159720000Y-70589659D01*
X159523870Y-70608975D01*
X159335266Y-70666188D01*
X159161467Y-70759086D01*
X159161460Y-70759090D01*
X159009116Y-70884116D01*
X158884090Y-71036460D01*
X158884086Y-71036467D01*
X158791188Y-71210266D01*
X158733975Y-71398870D01*
X158714659Y-71595000D01*
X153670500Y-71595000D01*
X153670500Y-70890730D01*
X153667646Y-70860300D01*
X153667646Y-70860298D01*
X153622793Y-70732119D01*
X153622792Y-70732117D01*
X153574135Y-70666188D01*
X153542150Y-70622850D01*
X153542149Y-70622849D01*
X153485865Y-70581309D01*
X153443615Y-70525661D01*
X153435500Y-70481540D01*
X153435500Y-67179505D01*
X153455185Y-67112466D01*
X153494221Y-67074079D01*
X153651041Y-66976981D01*
X153801764Y-66839579D01*
X153924673Y-66676821D01*
X154015582Y-66494250D01*
X154071397Y-66298083D01*
X154090215Y-66095000D01*
X154071397Y-65891917D01*
X154015582Y-65695750D01*
X154008749Y-65682028D01*
X153931198Y-65526284D01*
X153924673Y-65513179D01*
X153850138Y-65414478D01*
X153801762Y-65350418D01*
X153651041Y-65213019D01*
X153651039Y-65213017D01*
X153477642Y-65105655D01*
X153477635Y-65105651D01*
X153294921Y-65034868D01*
X153287456Y-65031976D01*
X153086976Y-64994500D01*
X152883024Y-64994500D01*
X152682544Y-65031976D01*
X152682541Y-65031976D01*
X152682541Y-65031977D01*
X152492364Y-65105651D01*
X152492357Y-65105655D01*
X152318960Y-65213017D01*
X152318958Y-65213019D01*
X152168237Y-65350418D01*
X152045327Y-65513178D01*
X151954422Y-65695739D01*
X151954417Y-65695752D01*
X151898602Y-65891917D01*
X151879785Y-66094999D01*
X151545500Y-66094999D01*
X151545500Y-65175249D01*
X151545499Y-65175247D01*
X151533868Y-65116770D01*
X151533867Y-65116769D01*
X151489552Y-65050447D01*
X151423230Y-65006132D01*
X151423229Y-65006131D01*
X151364752Y-64994500D01*
X151364748Y-64994500D01*
X149525252Y-64994500D01*
X149525247Y-64994500D01*
X149466770Y-65006131D01*
X149466769Y-65006132D01*
X149400447Y-65050447D01*
X149356132Y-65116769D01*
X149356131Y-65116770D01*
X149344500Y-65175247D01*
X141945500Y-65175247D01*
X141945500Y-61273711D01*
X142594500Y-61273711D01*
X142594500Y-61273712D01*
X142594500Y-61516288D01*
X142626162Y-61756789D01*
X142636267Y-61794500D01*
X142688947Y-61991104D01*
X142781773Y-62215205D01*
X142781776Y-62215212D01*
X142903064Y-62425289D01*
X142903066Y-62425292D01*
X142903067Y-62425293D01*
X143050733Y-62617736D01*
X143050739Y-62617743D01*
X143222256Y-62789260D01*
X143222262Y-62789265D01*
X143414711Y-62936936D01*
X143624788Y-63058224D01*
X143848900Y-63151054D01*
X144083211Y-63213838D01*
X144263586Y-63237584D01*
X144323711Y-63245500D01*
X144323712Y-63245500D01*
X144566289Y-63245500D01*
X144614388Y-63239167D01*
X144806789Y-63213838D01*
X145041100Y-63151054D01*
X145265212Y-63058224D01*
X145475289Y-62936936D01*
X145667738Y-62789265D01*
X145839265Y-62617738D01*
X145986936Y-62425289D01*
X146108224Y-62215212D01*
X146201054Y-61991100D01*
X146263838Y-61756789D01*
X146295500Y-61516288D01*
X146295500Y-61273712D01*
X146295500Y-61273711D01*
X186594500Y-61273711D01*
X186594500Y-61273712D01*
X186594500Y-61516288D01*
X186626162Y-61756789D01*
X186636267Y-61794500D01*
X186688947Y-61991104D01*
X186781773Y-62215205D01*
X186781776Y-62215212D01*
X186903064Y-62425289D01*
X186903066Y-62425292D01*
X186903067Y-62425293D01*
X187050733Y-62617736D01*
X187050739Y-62617743D01*
X187222256Y-62789260D01*
X187222262Y-62789265D01*
X187414711Y-62936936D01*
X187624788Y-63058224D01*
X187848900Y-63151054D01*
X188083211Y-63213838D01*
X188263586Y-63237584D01*
X188323711Y-63245500D01*
X188323712Y-63245500D01*
X188566289Y-63245500D01*
X188614388Y-63239167D01*
X188806789Y-63213838D01*
X189041100Y-63151054D01*
X189265212Y-63058224D01*
X189475289Y-62936936D01*
X189667738Y-62789265D01*
X189839265Y-62617738D01*
X189986936Y-62425289D01*
X190108224Y-62215212D01*
X190201054Y-61991100D01*
X190263838Y-61756789D01*
X190295500Y-61516288D01*
X190295500Y-61273712D01*
X190263838Y-61033211D01*
X190201054Y-60798900D01*
X190108224Y-60574788D01*
X189986936Y-60364711D01*
X189839265Y-60172262D01*
X189839260Y-60172256D01*
X189667743Y-60000739D01*
X189667736Y-60000733D01*
X189475293Y-59853067D01*
X189475292Y-59853066D01*
X189475289Y-59853064D01*
X189265212Y-59731776D01*
X189265205Y-59731773D01*
X189041104Y-59638947D01*
X188806785Y-59576161D01*
X188566289Y-59544500D01*
X188566288Y-59544500D01*
X188323712Y-59544500D01*
X188323711Y-59544500D01*
X188083214Y-59576161D01*
X187848895Y-59638947D01*
X187624794Y-59731773D01*
X187624785Y-59731777D01*
X187414706Y-59853067D01*
X187222263Y-60000733D01*
X187222256Y-60000739D01*
X187050739Y-60172256D01*
X187050733Y-60172263D01*
X186903067Y-60364706D01*
X186781777Y-60574785D01*
X186781773Y-60574794D01*
X186688947Y-60798895D01*
X186626161Y-61033214D01*
X186594500Y-61273711D01*
X146295500Y-61273711D01*
X146263838Y-61033211D01*
X146201054Y-60798900D01*
X146108224Y-60574788D01*
X145986936Y-60364711D01*
X145839265Y-60172262D01*
X145839260Y-60172256D01*
X145667743Y-60000739D01*
X145667736Y-60000733D01*
X145475293Y-59853067D01*
X145475292Y-59853066D01*
X145475289Y-59853064D01*
X145265212Y-59731776D01*
X145265205Y-59731773D01*
X145041104Y-59638947D01*
X144806785Y-59576161D01*
X144566289Y-59544500D01*
X144566288Y-59544500D01*
X144323712Y-59544500D01*
X144323711Y-59544500D01*
X144083214Y-59576161D01*
X143848895Y-59638947D01*
X143624794Y-59731773D01*
X143624785Y-59731777D01*
X143414706Y-59853067D01*
X143222263Y-60000733D01*
X143222256Y-60000739D01*
X143050739Y-60172256D01*
X143050733Y-60172263D01*
X142903067Y-60364706D01*
X142781777Y-60574785D01*
X142781773Y-60574794D01*
X142688947Y-60798895D01*
X142626161Y-61033214D01*
X142594500Y-61273711D01*
X141945500Y-61273711D01*
X141945500Y-59019500D01*
X141965185Y-58952461D01*
X142017989Y-58906706D01*
X142069500Y-58895500D01*
X190820500Y-58895500D01*
X190887539Y-58915185D01*
G37*
G04 #@! TD.AperFunction*
M02*
