%TF.GenerationSoftware,KiCad,Pcbnew,8.0.5*%
%TF.CreationDate,2025-02-12T16:20:41+08:00*%
%TF.ProjectId,arduino_solar_bikelight_1,61726475-696e-46f5-9f73-6f6c61725f62,rev?*%
%TF.SameCoordinates,Original*%
%TF.FileFunction,Drillmap*%
%TF.FilePolarity,Positive*%
%FSLAX45Y45*%
G04 Gerber Fmt 4.5, Leading zero omitted, Abs format (unit mm)*
G04 Created by KiCad (PCBNEW 8.0.5) date 2025-02-12 16:20:41*
%MOMM*%
%LPD*%
G01*
G04 APERTURE LIST*
%ADD10C,0.050000*%
%ADD11C,0.200000*%
%ADD12C,0.100000*%
%ADD13C,0.120000*%
G04 APERTURE END LIST*
D10*
X14144500Y-5839500D02*
X19144500Y-5839500D01*
X19144500Y-11839500D01*
X14144500Y-11839500D01*
X14144500Y-5839500D01*
D11*
D12*
X14729500Y-11224500D02*
X14759500Y-11254500D01*
X14759500Y-11224500D02*
X14729500Y-11254500D01*
X14929500Y-8924500D02*
X14959500Y-8954500D01*
X14959500Y-8924500D02*
X14929500Y-8954500D01*
X16229500Y-8324500D02*
X16259500Y-8354500D01*
X16259500Y-8324500D02*
X16229500Y-8354500D01*
X16229500Y-9124500D02*
X16259500Y-9154500D01*
X16259500Y-9124500D02*
X16229500Y-9154500D01*
X16229500Y-9924500D02*
X16259500Y-9954500D01*
X16259500Y-9924500D02*
X16229500Y-9954500D01*
X18229500Y-8724500D02*
X18259500Y-8754500D01*
X18259500Y-8724500D02*
X18229500Y-8754500D01*
X15089500Y-6609500D02*
G75*
G02*
X14999500Y-6609500I-45000J0D01*
G01*
X14999500Y-6609500D02*
G75*
G02*
X15089500Y-6609500I45000J0D01*
G01*
X15089500Y-8009500D02*
G75*
G02*
X14999500Y-8009500I-45000J0D01*
G01*
X14999500Y-8009500D02*
G75*
G02*
X15089500Y-8009500I45000J0D01*
G01*
X15089500Y-9409500D02*
G75*
G02*
X14999500Y-9409500I-45000J0D01*
G01*
X14999500Y-9409500D02*
G75*
G02*
X15089500Y-9409500I45000J0D01*
G01*
X15089500Y-10809500D02*
G75*
G02*
X14999500Y-10809500I-45000J0D01*
G01*
X14999500Y-10809500D02*
G75*
G02*
X15089500Y-10809500I45000J0D01*
G01*
X15343500Y-6609500D02*
G75*
G02*
X15253500Y-6609500I-45000J0D01*
G01*
X15253500Y-6609500D02*
G75*
G02*
X15343500Y-6609500I45000J0D01*
G01*
X15343500Y-8009500D02*
G75*
G02*
X15253500Y-8009500I-45000J0D01*
G01*
X15253500Y-8009500D02*
G75*
G02*
X15343500Y-8009500I45000J0D01*
G01*
X15343500Y-9409500D02*
G75*
G02*
X15253500Y-9409500I-45000J0D01*
G01*
X15253500Y-9409500D02*
G75*
G02*
X15343500Y-9409500I45000J0D01*
G01*
X15343500Y-10809500D02*
G75*
G02*
X15253500Y-10809500I-45000J0D01*
G01*
X15253500Y-10809500D02*
G75*
G02*
X15343500Y-10809500I45000J0D01*
G01*
X17189500Y-6609500D02*
G75*
G02*
X17099500Y-6609500I-45000J0D01*
G01*
X17099500Y-6609500D02*
G75*
G02*
X17189500Y-6609500I45000J0D01*
G01*
X17189500Y-8009500D02*
G75*
G02*
X17099500Y-8009500I-45000J0D01*
G01*
X17099500Y-8009500D02*
G75*
G02*
X17189500Y-8009500I45000J0D01*
G01*
X17189500Y-9409500D02*
G75*
G02*
X17099500Y-9409500I-45000J0D01*
G01*
X17099500Y-9409500D02*
G75*
G02*
X17189500Y-9409500I45000J0D01*
G01*
X17189500Y-10809500D02*
G75*
G02*
X17099500Y-10809500I-45000J0D01*
G01*
X17099500Y-10809500D02*
G75*
G02*
X17189500Y-10809500I45000J0D01*
G01*
X17443500Y-6609500D02*
G75*
G02*
X17353500Y-6609500I-45000J0D01*
G01*
X17353500Y-6609500D02*
G75*
G02*
X17443500Y-6609500I45000J0D01*
G01*
X17443500Y-8009500D02*
G75*
G02*
X17353500Y-8009500I-45000J0D01*
G01*
X17353500Y-8009500D02*
G75*
G02*
X17443500Y-8009500I45000J0D01*
G01*
X17443500Y-9409500D02*
G75*
G02*
X17353500Y-9409500I-45000J0D01*
G01*
X17353500Y-9409500D02*
G75*
G02*
X17443500Y-9409500I45000J0D01*
G01*
X17443500Y-10809500D02*
G75*
G02*
X17353500Y-10809500I-45000J0D01*
G01*
X17353500Y-10809500D02*
G75*
G02*
X17443500Y-10809500I45000J0D01*
G01*
X14448000Y-7109500D02*
X14448000Y-7209500D01*
X14398000Y-7159500D02*
X14498000Y-7159500D01*
X14448000Y-7363500D02*
X14448000Y-7463500D01*
X14398000Y-7413500D02*
X14498000Y-7413500D01*
X14448000Y-7617500D02*
X14448000Y-7717500D01*
X14398000Y-7667500D02*
X14498000Y-7667500D01*
X14448000Y-7871500D02*
X14448000Y-7971500D01*
X14398000Y-7921500D02*
X14498000Y-7921500D01*
X14448000Y-8125500D02*
X14448000Y-8225500D01*
X14398000Y-8175500D02*
X14498000Y-8175500D01*
X14448000Y-8379500D02*
X14448000Y-8479500D01*
X14398000Y-8429500D02*
X14498000Y-8429500D01*
X14448000Y-8633500D02*
X14448000Y-8733500D01*
X14398000Y-8683500D02*
X14498000Y-8683500D01*
X14448000Y-8887500D02*
X14448000Y-8987500D01*
X14398000Y-8937500D02*
X14498000Y-8937500D01*
X14448000Y-9141500D02*
X14448000Y-9241500D01*
X14398000Y-9191500D02*
X14498000Y-9191500D01*
X14448000Y-9395500D02*
X14448000Y-9495500D01*
X14398000Y-9445500D02*
X14498000Y-9445500D01*
X14448000Y-9649500D02*
X14448000Y-9749500D01*
X14398000Y-9699500D02*
X14498000Y-9699500D01*
X14448000Y-9903500D02*
X14448000Y-10003500D01*
X14398000Y-9953500D02*
X14498000Y-9953500D01*
X14448000Y-10157500D02*
X14448000Y-10257500D01*
X14398000Y-10207500D02*
X14498000Y-10207500D01*
X14448000Y-10411500D02*
X14448000Y-10511500D01*
X14398000Y-10461500D02*
X14498000Y-10461500D01*
X14448000Y-10665500D02*
X14448000Y-10765500D01*
X14398000Y-10715500D02*
X14498000Y-10715500D01*
X15972000Y-7109500D02*
X15972000Y-7209500D01*
X15922000Y-7159500D02*
X16022000Y-7159500D01*
X15972000Y-7363500D02*
X15972000Y-7463500D01*
X15922000Y-7413500D02*
X16022000Y-7413500D01*
X15972000Y-7617500D02*
X15972000Y-7717500D01*
X15922000Y-7667500D02*
X16022000Y-7667500D01*
X15972000Y-7871500D02*
X15972000Y-7971500D01*
X15922000Y-7921500D02*
X16022000Y-7921500D01*
X15972000Y-8125500D02*
X15972000Y-8225500D01*
X15922000Y-8175500D02*
X16022000Y-8175500D01*
X15972000Y-8379500D02*
X15972000Y-8479500D01*
X15922000Y-8429500D02*
X16022000Y-8429500D01*
X15972000Y-8633500D02*
X15972000Y-8733500D01*
X15922000Y-8683500D02*
X16022000Y-8683500D01*
X15972000Y-8887500D02*
X15972000Y-8987500D01*
X15922000Y-8937500D02*
X16022000Y-8937500D01*
X15972000Y-9141500D02*
X15972000Y-9241500D01*
X15922000Y-9191500D02*
X16022000Y-9191500D01*
X15972000Y-9395500D02*
X15972000Y-9495500D01*
X15922000Y-9445500D02*
X16022000Y-9445500D01*
X15972000Y-9649500D02*
X15972000Y-9749500D01*
X15922000Y-9699500D02*
X16022000Y-9699500D01*
X15972000Y-9903500D02*
X15972000Y-10003500D01*
X15922000Y-9953500D02*
X16022000Y-9953500D01*
X15972000Y-10157500D02*
X15972000Y-10257500D01*
X15922000Y-10207500D02*
X16022000Y-10207500D01*
X15972000Y-10411500D02*
X15972000Y-10511500D01*
X15922000Y-10461500D02*
X16022000Y-10461500D01*
X15972000Y-10665500D02*
X15972000Y-10765500D01*
X15922000Y-10715500D02*
X16022000Y-10715500D01*
X18744500Y-10239500D02*
X18744500Y-10339500D01*
X18694500Y-10289500D02*
X18794500Y-10289500D01*
X18744500Y-10489500D02*
X18744500Y-10589500D01*
X18694500Y-10539500D02*
X18794500Y-10539500D01*
X18844500Y-8523500D02*
X18844500Y-8623500D01*
X18794500Y-8573500D02*
X18894500Y-8573500D01*
X18844500Y-8777500D02*
X18844500Y-8877500D01*
X18794500Y-8827500D02*
X18894500Y-8827500D01*
X18844500Y-9031500D02*
X18844500Y-9131500D01*
X18794500Y-9081500D02*
X18894500Y-9081500D01*
X18844500Y-9285500D02*
X18844500Y-9385500D01*
X18794500Y-9335500D02*
X18894500Y-9335500D01*
X18844500Y-9539500D02*
X18844500Y-9639500D01*
X18794500Y-9589500D02*
X18894500Y-9589500D01*
D13*
X18294427Y-6706927D02*
X18294427Y-6622073D01*
X18209573Y-6622073D01*
X18209573Y-6706927D01*
X18294427Y-6706927D01*
X18294427Y-7956927D02*
X18294427Y-7872073D01*
X18209573Y-7872073D01*
X18209573Y-7956927D01*
X18294427Y-7956927D01*
X18794427Y-6706927D02*
X18794427Y-6622073D01*
X18709573Y-6622073D01*
X18709573Y-6706927D01*
X18794427Y-6706927D01*
X18794427Y-7956927D02*
X18794427Y-7872073D01*
X18709573Y-7872073D01*
X18709573Y-7956927D01*
X18794427Y-7956927D01*
D11*
X14402777Y-12153484D02*
X14402777Y-11953484D01*
X14402777Y-11953484D02*
X14450396Y-11953484D01*
X14450396Y-11953484D02*
X14478967Y-11963008D01*
X14478967Y-11963008D02*
X14498015Y-11982055D01*
X14498015Y-11982055D02*
X14507539Y-12001103D01*
X14507539Y-12001103D02*
X14517062Y-12039198D01*
X14517062Y-12039198D02*
X14517062Y-12067769D01*
X14517062Y-12067769D02*
X14507539Y-12105865D01*
X14507539Y-12105865D02*
X14498015Y-12124912D01*
X14498015Y-12124912D02*
X14478967Y-12143960D01*
X14478967Y-12143960D02*
X14450396Y-12153484D01*
X14450396Y-12153484D02*
X14402777Y-12153484D01*
X14602777Y-12153484D02*
X14602777Y-12020150D01*
X14602777Y-12058246D02*
X14612301Y-12039198D01*
X14612301Y-12039198D02*
X14621824Y-12029674D01*
X14621824Y-12029674D02*
X14640872Y-12020150D01*
X14640872Y-12020150D02*
X14659920Y-12020150D01*
X14726586Y-12153484D02*
X14726586Y-12020150D01*
X14726586Y-11953484D02*
X14717062Y-11963008D01*
X14717062Y-11963008D02*
X14726586Y-11972531D01*
X14726586Y-11972531D02*
X14736110Y-11963008D01*
X14736110Y-11963008D02*
X14726586Y-11953484D01*
X14726586Y-11953484D02*
X14726586Y-11972531D01*
X14850396Y-12153484D02*
X14831348Y-12143960D01*
X14831348Y-12143960D02*
X14821824Y-12124912D01*
X14821824Y-12124912D02*
X14821824Y-11953484D01*
X14955158Y-12153484D02*
X14936110Y-12143960D01*
X14936110Y-12143960D02*
X14926586Y-12124912D01*
X14926586Y-12124912D02*
X14926586Y-11953484D01*
X15183729Y-12153484D02*
X15183729Y-11953484D01*
X15183729Y-11953484D02*
X15250396Y-12096341D01*
X15250396Y-12096341D02*
X15317062Y-11953484D01*
X15317062Y-11953484D02*
X15317062Y-12153484D01*
X15498015Y-12153484D02*
X15498015Y-12048722D01*
X15498015Y-12048722D02*
X15488491Y-12029674D01*
X15488491Y-12029674D02*
X15469443Y-12020150D01*
X15469443Y-12020150D02*
X15431348Y-12020150D01*
X15431348Y-12020150D02*
X15412301Y-12029674D01*
X15498015Y-12143960D02*
X15478967Y-12153484D01*
X15478967Y-12153484D02*
X15431348Y-12153484D01*
X15431348Y-12153484D02*
X15412301Y-12143960D01*
X15412301Y-12143960D02*
X15402777Y-12124912D01*
X15402777Y-12124912D02*
X15402777Y-12105865D01*
X15402777Y-12105865D02*
X15412301Y-12086817D01*
X15412301Y-12086817D02*
X15431348Y-12077293D01*
X15431348Y-12077293D02*
X15478967Y-12077293D01*
X15478967Y-12077293D02*
X15498015Y-12067769D01*
X15593253Y-12020150D02*
X15593253Y-12220150D01*
X15593253Y-12029674D02*
X15612301Y-12020150D01*
X15612301Y-12020150D02*
X15650396Y-12020150D01*
X15650396Y-12020150D02*
X15669443Y-12029674D01*
X15669443Y-12029674D02*
X15678967Y-12039198D01*
X15678967Y-12039198D02*
X15688491Y-12058246D01*
X15688491Y-12058246D02*
X15688491Y-12115388D01*
X15688491Y-12115388D02*
X15678967Y-12134436D01*
X15678967Y-12134436D02*
X15669443Y-12143960D01*
X15669443Y-12143960D02*
X15650396Y-12153484D01*
X15650396Y-12153484D02*
X15612301Y-12153484D01*
X15612301Y-12153484D02*
X15593253Y-12143960D01*
X15774205Y-12134436D02*
X15783729Y-12143960D01*
X15783729Y-12143960D02*
X15774205Y-12153484D01*
X15774205Y-12153484D02*
X15764682Y-12143960D01*
X15764682Y-12143960D02*
X15774205Y-12134436D01*
X15774205Y-12134436D02*
X15774205Y-12153484D01*
X15774205Y-12029674D02*
X15783729Y-12039198D01*
X15783729Y-12039198D02*
X15774205Y-12048722D01*
X15774205Y-12048722D02*
X15764682Y-12039198D01*
X15764682Y-12039198D02*
X15774205Y-12029674D01*
X15774205Y-12029674D02*
X15774205Y-12048722D01*
D12*
X14112000Y-12467000D02*
X14142000Y-12497000D01*
X14142000Y-12467000D02*
X14112000Y-12497000D01*
D11*
X14440872Y-12373484D02*
X14459920Y-12373484D01*
X14459920Y-12373484D02*
X14478967Y-12383008D01*
X14478967Y-12383008D02*
X14488491Y-12392531D01*
X14488491Y-12392531D02*
X14498015Y-12411579D01*
X14498015Y-12411579D02*
X14507539Y-12449674D01*
X14507539Y-12449674D02*
X14507539Y-12497293D01*
X14507539Y-12497293D02*
X14498015Y-12535388D01*
X14498015Y-12535388D02*
X14488491Y-12554436D01*
X14488491Y-12554436D02*
X14478967Y-12563960D01*
X14478967Y-12563960D02*
X14459920Y-12573484D01*
X14459920Y-12573484D02*
X14440872Y-12573484D01*
X14440872Y-12573484D02*
X14421824Y-12563960D01*
X14421824Y-12563960D02*
X14412301Y-12554436D01*
X14412301Y-12554436D02*
X14402777Y-12535388D01*
X14402777Y-12535388D02*
X14393253Y-12497293D01*
X14393253Y-12497293D02*
X14393253Y-12449674D01*
X14393253Y-12449674D02*
X14402777Y-12411579D01*
X14402777Y-12411579D02*
X14412301Y-12392531D01*
X14412301Y-12392531D02*
X14421824Y-12383008D01*
X14421824Y-12383008D02*
X14440872Y-12373484D01*
X14593253Y-12554436D02*
X14602777Y-12563960D01*
X14602777Y-12563960D02*
X14593253Y-12573484D01*
X14593253Y-12573484D02*
X14583729Y-12563960D01*
X14583729Y-12563960D02*
X14593253Y-12554436D01*
X14593253Y-12554436D02*
X14593253Y-12573484D01*
X14669443Y-12373484D02*
X14793253Y-12373484D01*
X14793253Y-12373484D02*
X14726586Y-12449674D01*
X14726586Y-12449674D02*
X14755158Y-12449674D01*
X14755158Y-12449674D02*
X14774205Y-12459198D01*
X14774205Y-12459198D02*
X14783729Y-12468722D01*
X14783729Y-12468722D02*
X14793253Y-12487769D01*
X14793253Y-12487769D02*
X14793253Y-12535388D01*
X14793253Y-12535388D02*
X14783729Y-12554436D01*
X14783729Y-12554436D02*
X14774205Y-12563960D01*
X14774205Y-12563960D02*
X14755158Y-12573484D01*
X14755158Y-12573484D02*
X14698015Y-12573484D01*
X14698015Y-12573484D02*
X14678967Y-12563960D01*
X14678967Y-12563960D02*
X14669443Y-12554436D01*
X14917062Y-12373484D02*
X14936110Y-12373484D01*
X14936110Y-12373484D02*
X14955158Y-12383008D01*
X14955158Y-12383008D02*
X14964682Y-12392531D01*
X14964682Y-12392531D02*
X14974205Y-12411579D01*
X14974205Y-12411579D02*
X14983729Y-12449674D01*
X14983729Y-12449674D02*
X14983729Y-12497293D01*
X14983729Y-12497293D02*
X14974205Y-12535388D01*
X14974205Y-12535388D02*
X14964682Y-12554436D01*
X14964682Y-12554436D02*
X14955158Y-12563960D01*
X14955158Y-12563960D02*
X14936110Y-12573484D01*
X14936110Y-12573484D02*
X14917062Y-12573484D01*
X14917062Y-12573484D02*
X14898015Y-12563960D01*
X14898015Y-12563960D02*
X14888491Y-12554436D01*
X14888491Y-12554436D02*
X14878967Y-12535388D01*
X14878967Y-12535388D02*
X14869443Y-12497293D01*
X14869443Y-12497293D02*
X14869443Y-12449674D01*
X14869443Y-12449674D02*
X14878967Y-12411579D01*
X14878967Y-12411579D02*
X14888491Y-12392531D01*
X14888491Y-12392531D02*
X14898015Y-12383008D01*
X14898015Y-12383008D02*
X14917062Y-12373484D01*
X15107539Y-12373484D02*
X15126586Y-12373484D01*
X15126586Y-12373484D02*
X15145634Y-12383008D01*
X15145634Y-12383008D02*
X15155158Y-12392531D01*
X15155158Y-12392531D02*
X15164682Y-12411579D01*
X15164682Y-12411579D02*
X15174205Y-12449674D01*
X15174205Y-12449674D02*
X15174205Y-12497293D01*
X15174205Y-12497293D02*
X15164682Y-12535388D01*
X15164682Y-12535388D02*
X15155158Y-12554436D01*
X15155158Y-12554436D02*
X15145634Y-12563960D01*
X15145634Y-12563960D02*
X15126586Y-12573484D01*
X15126586Y-12573484D02*
X15107539Y-12573484D01*
X15107539Y-12573484D02*
X15088491Y-12563960D01*
X15088491Y-12563960D02*
X15078967Y-12554436D01*
X15078967Y-12554436D02*
X15069443Y-12535388D01*
X15069443Y-12535388D02*
X15059920Y-12497293D01*
X15059920Y-12497293D02*
X15059920Y-12449674D01*
X15059920Y-12449674D02*
X15069443Y-12411579D01*
X15069443Y-12411579D02*
X15078967Y-12392531D01*
X15078967Y-12392531D02*
X15088491Y-12383008D01*
X15088491Y-12383008D02*
X15107539Y-12373484D01*
X15259920Y-12573484D02*
X15259920Y-12440150D01*
X15259920Y-12459198D02*
X15269443Y-12449674D01*
X15269443Y-12449674D02*
X15288491Y-12440150D01*
X15288491Y-12440150D02*
X15317063Y-12440150D01*
X15317063Y-12440150D02*
X15336110Y-12449674D01*
X15336110Y-12449674D02*
X15345634Y-12468722D01*
X15345634Y-12468722D02*
X15345634Y-12573484D01*
X15345634Y-12468722D02*
X15355158Y-12449674D01*
X15355158Y-12449674D02*
X15374205Y-12440150D01*
X15374205Y-12440150D02*
X15402777Y-12440150D01*
X15402777Y-12440150D02*
X15421824Y-12449674D01*
X15421824Y-12449674D02*
X15431348Y-12468722D01*
X15431348Y-12468722D02*
X15431348Y-12573484D01*
X15526586Y-12573484D02*
X15526586Y-12440150D01*
X15526586Y-12459198D02*
X15536110Y-12449674D01*
X15536110Y-12449674D02*
X15555158Y-12440150D01*
X15555158Y-12440150D02*
X15583729Y-12440150D01*
X15583729Y-12440150D02*
X15602777Y-12449674D01*
X15602777Y-12449674D02*
X15612301Y-12468722D01*
X15612301Y-12468722D02*
X15612301Y-12573484D01*
X15612301Y-12468722D02*
X15621824Y-12449674D01*
X15621824Y-12449674D02*
X15640872Y-12440150D01*
X15640872Y-12440150D02*
X15669443Y-12440150D01*
X15669443Y-12440150D02*
X15688491Y-12449674D01*
X15688491Y-12449674D02*
X15698015Y-12468722D01*
X15698015Y-12468722D02*
X15698015Y-12573484D01*
X16088491Y-12363960D02*
X15917063Y-12621103D01*
X16345634Y-12373484D02*
X16364682Y-12373484D01*
X16364682Y-12373484D02*
X16383729Y-12383008D01*
X16383729Y-12383008D02*
X16393253Y-12392531D01*
X16393253Y-12392531D02*
X16402777Y-12411579D01*
X16402777Y-12411579D02*
X16412301Y-12449674D01*
X16412301Y-12449674D02*
X16412301Y-12497293D01*
X16412301Y-12497293D02*
X16402777Y-12535388D01*
X16402777Y-12535388D02*
X16393253Y-12554436D01*
X16393253Y-12554436D02*
X16383729Y-12563960D01*
X16383729Y-12563960D02*
X16364682Y-12573484D01*
X16364682Y-12573484D02*
X16345634Y-12573484D01*
X16345634Y-12573484D02*
X16326586Y-12563960D01*
X16326586Y-12563960D02*
X16317063Y-12554436D01*
X16317063Y-12554436D02*
X16307539Y-12535388D01*
X16307539Y-12535388D02*
X16298015Y-12497293D01*
X16298015Y-12497293D02*
X16298015Y-12449674D01*
X16298015Y-12449674D02*
X16307539Y-12411579D01*
X16307539Y-12411579D02*
X16317063Y-12392531D01*
X16317063Y-12392531D02*
X16326586Y-12383008D01*
X16326586Y-12383008D02*
X16345634Y-12373484D01*
X16498015Y-12554436D02*
X16507539Y-12563960D01*
X16507539Y-12563960D02*
X16498015Y-12573484D01*
X16498015Y-12573484D02*
X16488491Y-12563960D01*
X16488491Y-12563960D02*
X16498015Y-12554436D01*
X16498015Y-12554436D02*
X16498015Y-12573484D01*
X16631348Y-12373484D02*
X16650396Y-12373484D01*
X16650396Y-12373484D02*
X16669444Y-12383008D01*
X16669444Y-12383008D02*
X16678967Y-12392531D01*
X16678967Y-12392531D02*
X16688491Y-12411579D01*
X16688491Y-12411579D02*
X16698015Y-12449674D01*
X16698015Y-12449674D02*
X16698015Y-12497293D01*
X16698015Y-12497293D02*
X16688491Y-12535388D01*
X16688491Y-12535388D02*
X16678967Y-12554436D01*
X16678967Y-12554436D02*
X16669444Y-12563960D01*
X16669444Y-12563960D02*
X16650396Y-12573484D01*
X16650396Y-12573484D02*
X16631348Y-12573484D01*
X16631348Y-12573484D02*
X16612301Y-12563960D01*
X16612301Y-12563960D02*
X16602777Y-12554436D01*
X16602777Y-12554436D02*
X16593253Y-12535388D01*
X16593253Y-12535388D02*
X16583729Y-12497293D01*
X16583729Y-12497293D02*
X16583729Y-12449674D01*
X16583729Y-12449674D02*
X16593253Y-12411579D01*
X16593253Y-12411579D02*
X16602777Y-12392531D01*
X16602777Y-12392531D02*
X16612301Y-12383008D01*
X16612301Y-12383008D02*
X16631348Y-12373484D01*
X16888491Y-12573484D02*
X16774206Y-12573484D01*
X16831348Y-12573484D02*
X16831348Y-12373484D01*
X16831348Y-12373484D02*
X16812301Y-12402055D01*
X16812301Y-12402055D02*
X16793253Y-12421103D01*
X16793253Y-12421103D02*
X16774206Y-12430627D01*
X17078968Y-12573484D02*
X16964682Y-12573484D01*
X17021825Y-12573484D02*
X17021825Y-12373484D01*
X17021825Y-12373484D02*
X17002777Y-12402055D01*
X17002777Y-12402055D02*
X16983729Y-12421103D01*
X16983729Y-12421103D02*
X16964682Y-12430627D01*
X17193253Y-12459198D02*
X17174206Y-12449674D01*
X17174206Y-12449674D02*
X17164682Y-12440150D01*
X17164682Y-12440150D02*
X17155158Y-12421103D01*
X17155158Y-12421103D02*
X17155158Y-12411579D01*
X17155158Y-12411579D02*
X17164682Y-12392531D01*
X17164682Y-12392531D02*
X17174206Y-12383008D01*
X17174206Y-12383008D02*
X17193253Y-12373484D01*
X17193253Y-12373484D02*
X17231349Y-12373484D01*
X17231349Y-12373484D02*
X17250396Y-12383008D01*
X17250396Y-12383008D02*
X17259920Y-12392531D01*
X17259920Y-12392531D02*
X17269444Y-12411579D01*
X17269444Y-12411579D02*
X17269444Y-12421103D01*
X17269444Y-12421103D02*
X17259920Y-12440150D01*
X17259920Y-12440150D02*
X17250396Y-12449674D01*
X17250396Y-12449674D02*
X17231349Y-12459198D01*
X17231349Y-12459198D02*
X17193253Y-12459198D01*
X17193253Y-12459198D02*
X17174206Y-12468722D01*
X17174206Y-12468722D02*
X17164682Y-12478246D01*
X17164682Y-12478246D02*
X17155158Y-12497293D01*
X17155158Y-12497293D02*
X17155158Y-12535388D01*
X17155158Y-12535388D02*
X17164682Y-12554436D01*
X17164682Y-12554436D02*
X17174206Y-12563960D01*
X17174206Y-12563960D02*
X17193253Y-12573484D01*
X17193253Y-12573484D02*
X17231349Y-12573484D01*
X17231349Y-12573484D02*
X17250396Y-12563960D01*
X17250396Y-12563960D02*
X17259920Y-12554436D01*
X17259920Y-12554436D02*
X17269444Y-12535388D01*
X17269444Y-12535388D02*
X17269444Y-12497293D01*
X17269444Y-12497293D02*
X17259920Y-12478246D01*
X17259920Y-12478246D02*
X17250396Y-12468722D01*
X17250396Y-12468722D02*
X17231349Y-12459198D01*
X17345634Y-12373484D02*
X17345634Y-12411579D01*
X17421825Y-12373484D02*
X17421825Y-12411579D01*
X17717063Y-12649674D02*
X17707539Y-12640150D01*
X17707539Y-12640150D02*
X17688491Y-12611579D01*
X17688491Y-12611579D02*
X17678968Y-12592531D01*
X17678968Y-12592531D02*
X17669444Y-12563960D01*
X17669444Y-12563960D02*
X17659920Y-12516341D01*
X17659920Y-12516341D02*
X17659920Y-12478246D01*
X17659920Y-12478246D02*
X17669444Y-12430627D01*
X17669444Y-12430627D02*
X17678968Y-12402055D01*
X17678968Y-12402055D02*
X17688491Y-12383008D01*
X17688491Y-12383008D02*
X17707539Y-12354436D01*
X17707539Y-12354436D02*
X17717063Y-12344912D01*
X17878968Y-12373484D02*
X17840872Y-12373484D01*
X17840872Y-12373484D02*
X17821825Y-12383008D01*
X17821825Y-12383008D02*
X17812301Y-12392531D01*
X17812301Y-12392531D02*
X17793253Y-12421103D01*
X17793253Y-12421103D02*
X17783730Y-12459198D01*
X17783730Y-12459198D02*
X17783730Y-12535388D01*
X17783730Y-12535388D02*
X17793253Y-12554436D01*
X17793253Y-12554436D02*
X17802777Y-12563960D01*
X17802777Y-12563960D02*
X17821825Y-12573484D01*
X17821825Y-12573484D02*
X17859920Y-12573484D01*
X17859920Y-12573484D02*
X17878968Y-12563960D01*
X17878968Y-12563960D02*
X17888491Y-12554436D01*
X17888491Y-12554436D02*
X17898015Y-12535388D01*
X17898015Y-12535388D02*
X17898015Y-12487769D01*
X17898015Y-12487769D02*
X17888491Y-12468722D01*
X17888491Y-12468722D02*
X17878968Y-12459198D01*
X17878968Y-12459198D02*
X17859920Y-12449674D01*
X17859920Y-12449674D02*
X17821825Y-12449674D01*
X17821825Y-12449674D02*
X17802777Y-12459198D01*
X17802777Y-12459198D02*
X17793253Y-12468722D01*
X17793253Y-12468722D02*
X17783730Y-12487769D01*
X18136111Y-12573484D02*
X18136111Y-12373484D01*
X18221825Y-12573484D02*
X18221825Y-12468722D01*
X18221825Y-12468722D02*
X18212301Y-12449674D01*
X18212301Y-12449674D02*
X18193253Y-12440150D01*
X18193253Y-12440150D02*
X18164682Y-12440150D01*
X18164682Y-12440150D02*
X18145634Y-12449674D01*
X18145634Y-12449674D02*
X18136111Y-12459198D01*
X18345634Y-12573484D02*
X18326587Y-12563960D01*
X18326587Y-12563960D02*
X18317063Y-12554436D01*
X18317063Y-12554436D02*
X18307539Y-12535388D01*
X18307539Y-12535388D02*
X18307539Y-12478246D01*
X18307539Y-12478246D02*
X18317063Y-12459198D01*
X18317063Y-12459198D02*
X18326587Y-12449674D01*
X18326587Y-12449674D02*
X18345634Y-12440150D01*
X18345634Y-12440150D02*
X18374206Y-12440150D01*
X18374206Y-12440150D02*
X18393253Y-12449674D01*
X18393253Y-12449674D02*
X18402777Y-12459198D01*
X18402777Y-12459198D02*
X18412301Y-12478246D01*
X18412301Y-12478246D02*
X18412301Y-12535388D01*
X18412301Y-12535388D02*
X18402777Y-12554436D01*
X18402777Y-12554436D02*
X18393253Y-12563960D01*
X18393253Y-12563960D02*
X18374206Y-12573484D01*
X18374206Y-12573484D02*
X18345634Y-12573484D01*
X18526587Y-12573484D02*
X18507539Y-12563960D01*
X18507539Y-12563960D02*
X18498015Y-12544912D01*
X18498015Y-12544912D02*
X18498015Y-12373484D01*
X18678968Y-12563960D02*
X18659920Y-12573484D01*
X18659920Y-12573484D02*
X18621825Y-12573484D01*
X18621825Y-12573484D02*
X18602777Y-12563960D01*
X18602777Y-12563960D02*
X18593253Y-12544912D01*
X18593253Y-12544912D02*
X18593253Y-12468722D01*
X18593253Y-12468722D02*
X18602777Y-12449674D01*
X18602777Y-12449674D02*
X18621825Y-12440150D01*
X18621825Y-12440150D02*
X18659920Y-12440150D01*
X18659920Y-12440150D02*
X18678968Y-12449674D01*
X18678968Y-12449674D02*
X18688492Y-12468722D01*
X18688492Y-12468722D02*
X18688492Y-12487769D01*
X18688492Y-12487769D02*
X18593253Y-12506817D01*
X18764682Y-12563960D02*
X18783730Y-12573484D01*
X18783730Y-12573484D02*
X18821825Y-12573484D01*
X18821825Y-12573484D02*
X18840873Y-12563960D01*
X18840873Y-12563960D02*
X18850396Y-12544912D01*
X18850396Y-12544912D02*
X18850396Y-12535388D01*
X18850396Y-12535388D02*
X18840873Y-12516341D01*
X18840873Y-12516341D02*
X18821825Y-12506817D01*
X18821825Y-12506817D02*
X18793253Y-12506817D01*
X18793253Y-12506817D02*
X18774206Y-12497293D01*
X18774206Y-12497293D02*
X18764682Y-12478246D01*
X18764682Y-12478246D02*
X18764682Y-12468722D01*
X18764682Y-12468722D02*
X18774206Y-12449674D01*
X18774206Y-12449674D02*
X18793253Y-12440150D01*
X18793253Y-12440150D02*
X18821825Y-12440150D01*
X18821825Y-12440150D02*
X18840873Y-12449674D01*
X18917063Y-12649674D02*
X18926587Y-12640150D01*
X18926587Y-12640150D02*
X18945634Y-12611579D01*
X18945634Y-12611579D02*
X18955158Y-12592531D01*
X18955158Y-12592531D02*
X18964682Y-12563960D01*
X18964682Y-12563960D02*
X18974206Y-12516341D01*
X18974206Y-12516341D02*
X18974206Y-12478246D01*
X18974206Y-12478246D02*
X18964682Y-12430627D01*
X18964682Y-12430627D02*
X18955158Y-12402055D01*
X18955158Y-12402055D02*
X18945634Y-12383008D01*
X18945634Y-12383008D02*
X18926587Y-12354436D01*
X18926587Y-12354436D02*
X18917063Y-12344912D01*
D12*
X14142000Y-12746000D02*
G75*
G02*
X14052000Y-12746000I-45000J0D01*
G01*
X14052000Y-12746000D02*
G75*
G02*
X14142000Y-12746000I45000J0D01*
G01*
D11*
X14440872Y-12637484D02*
X14459920Y-12637484D01*
X14459920Y-12637484D02*
X14478967Y-12647008D01*
X14478967Y-12647008D02*
X14488491Y-12656531D01*
X14488491Y-12656531D02*
X14498015Y-12675579D01*
X14498015Y-12675579D02*
X14507539Y-12713674D01*
X14507539Y-12713674D02*
X14507539Y-12761293D01*
X14507539Y-12761293D02*
X14498015Y-12799388D01*
X14498015Y-12799388D02*
X14488491Y-12818436D01*
X14488491Y-12818436D02*
X14478967Y-12827960D01*
X14478967Y-12827960D02*
X14459920Y-12837484D01*
X14459920Y-12837484D02*
X14440872Y-12837484D01*
X14440872Y-12837484D02*
X14421824Y-12827960D01*
X14421824Y-12827960D02*
X14412301Y-12818436D01*
X14412301Y-12818436D02*
X14402777Y-12799388D01*
X14402777Y-12799388D02*
X14393253Y-12761293D01*
X14393253Y-12761293D02*
X14393253Y-12713674D01*
X14393253Y-12713674D02*
X14402777Y-12675579D01*
X14402777Y-12675579D02*
X14412301Y-12656531D01*
X14412301Y-12656531D02*
X14421824Y-12647008D01*
X14421824Y-12647008D02*
X14440872Y-12637484D01*
X14593253Y-12818436D02*
X14602777Y-12827960D01*
X14602777Y-12827960D02*
X14593253Y-12837484D01*
X14593253Y-12837484D02*
X14583729Y-12827960D01*
X14583729Y-12827960D02*
X14593253Y-12818436D01*
X14593253Y-12818436D02*
X14593253Y-12837484D01*
X14698015Y-12837484D02*
X14736110Y-12837484D01*
X14736110Y-12837484D02*
X14755158Y-12827960D01*
X14755158Y-12827960D02*
X14764682Y-12818436D01*
X14764682Y-12818436D02*
X14783729Y-12789865D01*
X14783729Y-12789865D02*
X14793253Y-12751769D01*
X14793253Y-12751769D02*
X14793253Y-12675579D01*
X14793253Y-12675579D02*
X14783729Y-12656531D01*
X14783729Y-12656531D02*
X14774205Y-12647008D01*
X14774205Y-12647008D02*
X14755158Y-12637484D01*
X14755158Y-12637484D02*
X14717062Y-12637484D01*
X14717062Y-12637484D02*
X14698015Y-12647008D01*
X14698015Y-12647008D02*
X14688491Y-12656531D01*
X14688491Y-12656531D02*
X14678967Y-12675579D01*
X14678967Y-12675579D02*
X14678967Y-12723198D01*
X14678967Y-12723198D02*
X14688491Y-12742246D01*
X14688491Y-12742246D02*
X14698015Y-12751769D01*
X14698015Y-12751769D02*
X14717062Y-12761293D01*
X14717062Y-12761293D02*
X14755158Y-12761293D01*
X14755158Y-12761293D02*
X14774205Y-12751769D01*
X14774205Y-12751769D02*
X14783729Y-12742246D01*
X14783729Y-12742246D02*
X14793253Y-12723198D01*
X14917062Y-12637484D02*
X14936110Y-12637484D01*
X14936110Y-12637484D02*
X14955158Y-12647008D01*
X14955158Y-12647008D02*
X14964682Y-12656531D01*
X14964682Y-12656531D02*
X14974205Y-12675579D01*
X14974205Y-12675579D02*
X14983729Y-12713674D01*
X14983729Y-12713674D02*
X14983729Y-12761293D01*
X14983729Y-12761293D02*
X14974205Y-12799388D01*
X14974205Y-12799388D02*
X14964682Y-12818436D01*
X14964682Y-12818436D02*
X14955158Y-12827960D01*
X14955158Y-12827960D02*
X14936110Y-12837484D01*
X14936110Y-12837484D02*
X14917062Y-12837484D01*
X14917062Y-12837484D02*
X14898015Y-12827960D01*
X14898015Y-12827960D02*
X14888491Y-12818436D01*
X14888491Y-12818436D02*
X14878967Y-12799388D01*
X14878967Y-12799388D02*
X14869443Y-12761293D01*
X14869443Y-12761293D02*
X14869443Y-12713674D01*
X14869443Y-12713674D02*
X14878967Y-12675579D01*
X14878967Y-12675579D02*
X14888491Y-12656531D01*
X14888491Y-12656531D02*
X14898015Y-12647008D01*
X14898015Y-12647008D02*
X14917062Y-12637484D01*
X15107539Y-12637484D02*
X15126586Y-12637484D01*
X15126586Y-12637484D02*
X15145634Y-12647008D01*
X15145634Y-12647008D02*
X15155158Y-12656531D01*
X15155158Y-12656531D02*
X15164682Y-12675579D01*
X15164682Y-12675579D02*
X15174205Y-12713674D01*
X15174205Y-12713674D02*
X15174205Y-12761293D01*
X15174205Y-12761293D02*
X15164682Y-12799388D01*
X15164682Y-12799388D02*
X15155158Y-12818436D01*
X15155158Y-12818436D02*
X15145634Y-12827960D01*
X15145634Y-12827960D02*
X15126586Y-12837484D01*
X15126586Y-12837484D02*
X15107539Y-12837484D01*
X15107539Y-12837484D02*
X15088491Y-12827960D01*
X15088491Y-12827960D02*
X15078967Y-12818436D01*
X15078967Y-12818436D02*
X15069443Y-12799388D01*
X15069443Y-12799388D02*
X15059920Y-12761293D01*
X15059920Y-12761293D02*
X15059920Y-12713674D01*
X15059920Y-12713674D02*
X15069443Y-12675579D01*
X15069443Y-12675579D02*
X15078967Y-12656531D01*
X15078967Y-12656531D02*
X15088491Y-12647008D01*
X15088491Y-12647008D02*
X15107539Y-12637484D01*
X15259920Y-12837484D02*
X15259920Y-12704150D01*
X15259920Y-12723198D02*
X15269443Y-12713674D01*
X15269443Y-12713674D02*
X15288491Y-12704150D01*
X15288491Y-12704150D02*
X15317063Y-12704150D01*
X15317063Y-12704150D02*
X15336110Y-12713674D01*
X15336110Y-12713674D02*
X15345634Y-12732722D01*
X15345634Y-12732722D02*
X15345634Y-12837484D01*
X15345634Y-12732722D02*
X15355158Y-12713674D01*
X15355158Y-12713674D02*
X15374205Y-12704150D01*
X15374205Y-12704150D02*
X15402777Y-12704150D01*
X15402777Y-12704150D02*
X15421824Y-12713674D01*
X15421824Y-12713674D02*
X15431348Y-12732722D01*
X15431348Y-12732722D02*
X15431348Y-12837484D01*
X15526586Y-12837484D02*
X15526586Y-12704150D01*
X15526586Y-12723198D02*
X15536110Y-12713674D01*
X15536110Y-12713674D02*
X15555158Y-12704150D01*
X15555158Y-12704150D02*
X15583729Y-12704150D01*
X15583729Y-12704150D02*
X15602777Y-12713674D01*
X15602777Y-12713674D02*
X15612301Y-12732722D01*
X15612301Y-12732722D02*
X15612301Y-12837484D01*
X15612301Y-12732722D02*
X15621824Y-12713674D01*
X15621824Y-12713674D02*
X15640872Y-12704150D01*
X15640872Y-12704150D02*
X15669443Y-12704150D01*
X15669443Y-12704150D02*
X15688491Y-12713674D01*
X15688491Y-12713674D02*
X15698015Y-12732722D01*
X15698015Y-12732722D02*
X15698015Y-12837484D01*
X16088491Y-12627960D02*
X15917063Y-12885103D01*
X16345634Y-12637484D02*
X16364682Y-12637484D01*
X16364682Y-12637484D02*
X16383729Y-12647008D01*
X16383729Y-12647008D02*
X16393253Y-12656531D01*
X16393253Y-12656531D02*
X16402777Y-12675579D01*
X16402777Y-12675579D02*
X16412301Y-12713674D01*
X16412301Y-12713674D02*
X16412301Y-12761293D01*
X16412301Y-12761293D02*
X16402777Y-12799388D01*
X16402777Y-12799388D02*
X16393253Y-12818436D01*
X16393253Y-12818436D02*
X16383729Y-12827960D01*
X16383729Y-12827960D02*
X16364682Y-12837484D01*
X16364682Y-12837484D02*
X16345634Y-12837484D01*
X16345634Y-12837484D02*
X16326586Y-12827960D01*
X16326586Y-12827960D02*
X16317063Y-12818436D01*
X16317063Y-12818436D02*
X16307539Y-12799388D01*
X16307539Y-12799388D02*
X16298015Y-12761293D01*
X16298015Y-12761293D02*
X16298015Y-12713674D01*
X16298015Y-12713674D02*
X16307539Y-12675579D01*
X16307539Y-12675579D02*
X16317063Y-12656531D01*
X16317063Y-12656531D02*
X16326586Y-12647008D01*
X16326586Y-12647008D02*
X16345634Y-12637484D01*
X16498015Y-12818436D02*
X16507539Y-12827960D01*
X16507539Y-12827960D02*
X16498015Y-12837484D01*
X16498015Y-12837484D02*
X16488491Y-12827960D01*
X16488491Y-12827960D02*
X16498015Y-12818436D01*
X16498015Y-12818436D02*
X16498015Y-12837484D01*
X16631348Y-12637484D02*
X16650396Y-12637484D01*
X16650396Y-12637484D02*
X16669444Y-12647008D01*
X16669444Y-12647008D02*
X16678967Y-12656531D01*
X16678967Y-12656531D02*
X16688491Y-12675579D01*
X16688491Y-12675579D02*
X16698015Y-12713674D01*
X16698015Y-12713674D02*
X16698015Y-12761293D01*
X16698015Y-12761293D02*
X16688491Y-12799388D01*
X16688491Y-12799388D02*
X16678967Y-12818436D01*
X16678967Y-12818436D02*
X16669444Y-12827960D01*
X16669444Y-12827960D02*
X16650396Y-12837484D01*
X16650396Y-12837484D02*
X16631348Y-12837484D01*
X16631348Y-12837484D02*
X16612301Y-12827960D01*
X16612301Y-12827960D02*
X16602777Y-12818436D01*
X16602777Y-12818436D02*
X16593253Y-12799388D01*
X16593253Y-12799388D02*
X16583729Y-12761293D01*
X16583729Y-12761293D02*
X16583729Y-12713674D01*
X16583729Y-12713674D02*
X16593253Y-12675579D01*
X16593253Y-12675579D02*
X16602777Y-12656531D01*
X16602777Y-12656531D02*
X16612301Y-12647008D01*
X16612301Y-12647008D02*
X16631348Y-12637484D01*
X16764682Y-12637484D02*
X16888491Y-12637484D01*
X16888491Y-12637484D02*
X16821825Y-12713674D01*
X16821825Y-12713674D02*
X16850396Y-12713674D01*
X16850396Y-12713674D02*
X16869444Y-12723198D01*
X16869444Y-12723198D02*
X16878968Y-12732722D01*
X16878968Y-12732722D02*
X16888491Y-12751769D01*
X16888491Y-12751769D02*
X16888491Y-12799388D01*
X16888491Y-12799388D02*
X16878968Y-12818436D01*
X16878968Y-12818436D02*
X16869444Y-12827960D01*
X16869444Y-12827960D02*
X16850396Y-12837484D01*
X16850396Y-12837484D02*
X16793253Y-12837484D01*
X16793253Y-12837484D02*
X16774206Y-12827960D01*
X16774206Y-12827960D02*
X16764682Y-12818436D01*
X17069444Y-12637484D02*
X16974206Y-12637484D01*
X16974206Y-12637484D02*
X16964682Y-12732722D01*
X16964682Y-12732722D02*
X16974206Y-12723198D01*
X16974206Y-12723198D02*
X16993253Y-12713674D01*
X16993253Y-12713674D02*
X17040872Y-12713674D01*
X17040872Y-12713674D02*
X17059920Y-12723198D01*
X17059920Y-12723198D02*
X17069444Y-12732722D01*
X17069444Y-12732722D02*
X17078968Y-12751769D01*
X17078968Y-12751769D02*
X17078968Y-12799388D01*
X17078968Y-12799388D02*
X17069444Y-12818436D01*
X17069444Y-12818436D02*
X17059920Y-12827960D01*
X17059920Y-12827960D02*
X17040872Y-12837484D01*
X17040872Y-12837484D02*
X16993253Y-12837484D01*
X16993253Y-12837484D02*
X16974206Y-12827960D01*
X16974206Y-12827960D02*
X16964682Y-12818436D01*
X17250396Y-12704150D02*
X17250396Y-12837484D01*
X17202777Y-12627960D02*
X17155158Y-12770817D01*
X17155158Y-12770817D02*
X17278968Y-12770817D01*
X17345634Y-12637484D02*
X17345634Y-12675579D01*
X17421825Y-12637484D02*
X17421825Y-12675579D01*
X17717063Y-12913674D02*
X17707539Y-12904150D01*
X17707539Y-12904150D02*
X17688491Y-12875579D01*
X17688491Y-12875579D02*
X17678968Y-12856531D01*
X17678968Y-12856531D02*
X17669444Y-12827960D01*
X17669444Y-12827960D02*
X17659920Y-12780341D01*
X17659920Y-12780341D02*
X17659920Y-12742246D01*
X17659920Y-12742246D02*
X17669444Y-12694627D01*
X17669444Y-12694627D02*
X17678968Y-12666055D01*
X17678968Y-12666055D02*
X17688491Y-12647008D01*
X17688491Y-12647008D02*
X17707539Y-12618436D01*
X17707539Y-12618436D02*
X17717063Y-12608912D01*
X17898015Y-12837484D02*
X17783730Y-12837484D01*
X17840872Y-12837484D02*
X17840872Y-12637484D01*
X17840872Y-12637484D02*
X17821825Y-12666055D01*
X17821825Y-12666055D02*
X17802777Y-12685103D01*
X17802777Y-12685103D02*
X17783730Y-12694627D01*
X18069444Y-12637484D02*
X18031349Y-12637484D01*
X18031349Y-12637484D02*
X18012301Y-12647008D01*
X18012301Y-12647008D02*
X18002777Y-12656531D01*
X18002777Y-12656531D02*
X17983730Y-12685103D01*
X17983730Y-12685103D02*
X17974206Y-12723198D01*
X17974206Y-12723198D02*
X17974206Y-12799388D01*
X17974206Y-12799388D02*
X17983730Y-12818436D01*
X17983730Y-12818436D02*
X17993253Y-12827960D01*
X17993253Y-12827960D02*
X18012301Y-12837484D01*
X18012301Y-12837484D02*
X18050396Y-12837484D01*
X18050396Y-12837484D02*
X18069444Y-12827960D01*
X18069444Y-12827960D02*
X18078968Y-12818436D01*
X18078968Y-12818436D02*
X18088491Y-12799388D01*
X18088491Y-12799388D02*
X18088491Y-12751769D01*
X18088491Y-12751769D02*
X18078968Y-12732722D01*
X18078968Y-12732722D02*
X18069444Y-12723198D01*
X18069444Y-12723198D02*
X18050396Y-12713674D01*
X18050396Y-12713674D02*
X18012301Y-12713674D01*
X18012301Y-12713674D02*
X17993253Y-12723198D01*
X17993253Y-12723198D02*
X17983730Y-12732722D01*
X17983730Y-12732722D02*
X17974206Y-12751769D01*
X18326587Y-12837484D02*
X18326587Y-12637484D01*
X18412301Y-12837484D02*
X18412301Y-12732722D01*
X18412301Y-12732722D02*
X18402777Y-12713674D01*
X18402777Y-12713674D02*
X18383730Y-12704150D01*
X18383730Y-12704150D02*
X18355158Y-12704150D01*
X18355158Y-12704150D02*
X18336111Y-12713674D01*
X18336111Y-12713674D02*
X18326587Y-12723198D01*
X18536111Y-12837484D02*
X18517063Y-12827960D01*
X18517063Y-12827960D02*
X18507539Y-12818436D01*
X18507539Y-12818436D02*
X18498015Y-12799388D01*
X18498015Y-12799388D02*
X18498015Y-12742246D01*
X18498015Y-12742246D02*
X18507539Y-12723198D01*
X18507539Y-12723198D02*
X18517063Y-12713674D01*
X18517063Y-12713674D02*
X18536111Y-12704150D01*
X18536111Y-12704150D02*
X18564682Y-12704150D01*
X18564682Y-12704150D02*
X18583730Y-12713674D01*
X18583730Y-12713674D02*
X18593253Y-12723198D01*
X18593253Y-12723198D02*
X18602777Y-12742246D01*
X18602777Y-12742246D02*
X18602777Y-12799388D01*
X18602777Y-12799388D02*
X18593253Y-12818436D01*
X18593253Y-12818436D02*
X18583730Y-12827960D01*
X18583730Y-12827960D02*
X18564682Y-12837484D01*
X18564682Y-12837484D02*
X18536111Y-12837484D01*
X18717063Y-12837484D02*
X18698015Y-12827960D01*
X18698015Y-12827960D02*
X18688492Y-12808912D01*
X18688492Y-12808912D02*
X18688492Y-12637484D01*
X18869444Y-12827960D02*
X18850396Y-12837484D01*
X18850396Y-12837484D02*
X18812301Y-12837484D01*
X18812301Y-12837484D02*
X18793253Y-12827960D01*
X18793253Y-12827960D02*
X18783730Y-12808912D01*
X18783730Y-12808912D02*
X18783730Y-12732722D01*
X18783730Y-12732722D02*
X18793253Y-12713674D01*
X18793253Y-12713674D02*
X18812301Y-12704150D01*
X18812301Y-12704150D02*
X18850396Y-12704150D01*
X18850396Y-12704150D02*
X18869444Y-12713674D01*
X18869444Y-12713674D02*
X18878968Y-12732722D01*
X18878968Y-12732722D02*
X18878968Y-12751769D01*
X18878968Y-12751769D02*
X18783730Y-12770817D01*
X18955158Y-12827960D02*
X18974206Y-12837484D01*
X18974206Y-12837484D02*
X19012301Y-12837484D01*
X19012301Y-12837484D02*
X19031349Y-12827960D01*
X19031349Y-12827960D02*
X19040873Y-12808912D01*
X19040873Y-12808912D02*
X19040873Y-12799388D01*
X19040873Y-12799388D02*
X19031349Y-12780341D01*
X19031349Y-12780341D02*
X19012301Y-12770817D01*
X19012301Y-12770817D02*
X18983730Y-12770817D01*
X18983730Y-12770817D02*
X18964682Y-12761293D01*
X18964682Y-12761293D02*
X18955158Y-12742246D01*
X18955158Y-12742246D02*
X18955158Y-12732722D01*
X18955158Y-12732722D02*
X18964682Y-12713674D01*
X18964682Y-12713674D02*
X18983730Y-12704150D01*
X18983730Y-12704150D02*
X19012301Y-12704150D01*
X19012301Y-12704150D02*
X19031349Y-12713674D01*
X19107539Y-12913674D02*
X19117063Y-12904150D01*
X19117063Y-12904150D02*
X19136111Y-12875579D01*
X19136111Y-12875579D02*
X19145634Y-12856531D01*
X19145634Y-12856531D02*
X19155158Y-12827960D01*
X19155158Y-12827960D02*
X19164682Y-12780341D01*
X19164682Y-12780341D02*
X19164682Y-12742246D01*
X19164682Y-12742246D02*
X19155158Y-12694627D01*
X19155158Y-12694627D02*
X19145634Y-12666055D01*
X19145634Y-12666055D02*
X19136111Y-12647008D01*
X19136111Y-12647008D02*
X19117063Y-12618436D01*
X19117063Y-12618436D02*
X19107539Y-12608912D01*
D12*
X14092000Y-12960000D02*
X14092000Y-13060000D01*
X14042000Y-13010000D02*
X14142000Y-13010000D01*
D11*
X14507539Y-13101484D02*
X14393253Y-13101484D01*
X14450396Y-13101484D02*
X14450396Y-12901484D01*
X14450396Y-12901484D02*
X14431348Y-12930055D01*
X14431348Y-12930055D02*
X14412301Y-12949103D01*
X14412301Y-12949103D02*
X14393253Y-12958627D01*
X14593253Y-13082436D02*
X14602777Y-13091960D01*
X14602777Y-13091960D02*
X14593253Y-13101484D01*
X14593253Y-13101484D02*
X14583729Y-13091960D01*
X14583729Y-13091960D02*
X14593253Y-13082436D01*
X14593253Y-13082436D02*
X14593253Y-13101484D01*
X14726586Y-12901484D02*
X14745634Y-12901484D01*
X14745634Y-12901484D02*
X14764682Y-12911008D01*
X14764682Y-12911008D02*
X14774205Y-12920531D01*
X14774205Y-12920531D02*
X14783729Y-12939579D01*
X14783729Y-12939579D02*
X14793253Y-12977674D01*
X14793253Y-12977674D02*
X14793253Y-13025293D01*
X14793253Y-13025293D02*
X14783729Y-13063388D01*
X14783729Y-13063388D02*
X14774205Y-13082436D01*
X14774205Y-13082436D02*
X14764682Y-13091960D01*
X14764682Y-13091960D02*
X14745634Y-13101484D01*
X14745634Y-13101484D02*
X14726586Y-13101484D01*
X14726586Y-13101484D02*
X14707539Y-13091960D01*
X14707539Y-13091960D02*
X14698015Y-13082436D01*
X14698015Y-13082436D02*
X14688491Y-13063388D01*
X14688491Y-13063388D02*
X14678967Y-13025293D01*
X14678967Y-13025293D02*
X14678967Y-12977674D01*
X14678967Y-12977674D02*
X14688491Y-12939579D01*
X14688491Y-12939579D02*
X14698015Y-12920531D01*
X14698015Y-12920531D02*
X14707539Y-12911008D01*
X14707539Y-12911008D02*
X14726586Y-12901484D01*
X14917062Y-12901484D02*
X14936110Y-12901484D01*
X14936110Y-12901484D02*
X14955158Y-12911008D01*
X14955158Y-12911008D02*
X14964682Y-12920531D01*
X14964682Y-12920531D02*
X14974205Y-12939579D01*
X14974205Y-12939579D02*
X14983729Y-12977674D01*
X14983729Y-12977674D02*
X14983729Y-13025293D01*
X14983729Y-13025293D02*
X14974205Y-13063388D01*
X14974205Y-13063388D02*
X14964682Y-13082436D01*
X14964682Y-13082436D02*
X14955158Y-13091960D01*
X14955158Y-13091960D02*
X14936110Y-13101484D01*
X14936110Y-13101484D02*
X14917062Y-13101484D01*
X14917062Y-13101484D02*
X14898015Y-13091960D01*
X14898015Y-13091960D02*
X14888491Y-13082436D01*
X14888491Y-13082436D02*
X14878967Y-13063388D01*
X14878967Y-13063388D02*
X14869443Y-13025293D01*
X14869443Y-13025293D02*
X14869443Y-12977674D01*
X14869443Y-12977674D02*
X14878967Y-12939579D01*
X14878967Y-12939579D02*
X14888491Y-12920531D01*
X14888491Y-12920531D02*
X14898015Y-12911008D01*
X14898015Y-12911008D02*
X14917062Y-12901484D01*
X15107539Y-12901484D02*
X15126586Y-12901484D01*
X15126586Y-12901484D02*
X15145634Y-12911008D01*
X15145634Y-12911008D02*
X15155158Y-12920531D01*
X15155158Y-12920531D02*
X15164682Y-12939579D01*
X15164682Y-12939579D02*
X15174205Y-12977674D01*
X15174205Y-12977674D02*
X15174205Y-13025293D01*
X15174205Y-13025293D02*
X15164682Y-13063388D01*
X15164682Y-13063388D02*
X15155158Y-13082436D01*
X15155158Y-13082436D02*
X15145634Y-13091960D01*
X15145634Y-13091960D02*
X15126586Y-13101484D01*
X15126586Y-13101484D02*
X15107539Y-13101484D01*
X15107539Y-13101484D02*
X15088491Y-13091960D01*
X15088491Y-13091960D02*
X15078967Y-13082436D01*
X15078967Y-13082436D02*
X15069443Y-13063388D01*
X15069443Y-13063388D02*
X15059920Y-13025293D01*
X15059920Y-13025293D02*
X15059920Y-12977674D01*
X15059920Y-12977674D02*
X15069443Y-12939579D01*
X15069443Y-12939579D02*
X15078967Y-12920531D01*
X15078967Y-12920531D02*
X15088491Y-12911008D01*
X15088491Y-12911008D02*
X15107539Y-12901484D01*
X15259920Y-13101484D02*
X15259920Y-12968150D01*
X15259920Y-12987198D02*
X15269443Y-12977674D01*
X15269443Y-12977674D02*
X15288491Y-12968150D01*
X15288491Y-12968150D02*
X15317063Y-12968150D01*
X15317063Y-12968150D02*
X15336110Y-12977674D01*
X15336110Y-12977674D02*
X15345634Y-12996722D01*
X15345634Y-12996722D02*
X15345634Y-13101484D01*
X15345634Y-12996722D02*
X15355158Y-12977674D01*
X15355158Y-12977674D02*
X15374205Y-12968150D01*
X15374205Y-12968150D02*
X15402777Y-12968150D01*
X15402777Y-12968150D02*
X15421824Y-12977674D01*
X15421824Y-12977674D02*
X15431348Y-12996722D01*
X15431348Y-12996722D02*
X15431348Y-13101484D01*
X15526586Y-13101484D02*
X15526586Y-12968150D01*
X15526586Y-12987198D02*
X15536110Y-12977674D01*
X15536110Y-12977674D02*
X15555158Y-12968150D01*
X15555158Y-12968150D02*
X15583729Y-12968150D01*
X15583729Y-12968150D02*
X15602777Y-12977674D01*
X15602777Y-12977674D02*
X15612301Y-12996722D01*
X15612301Y-12996722D02*
X15612301Y-13101484D01*
X15612301Y-12996722D02*
X15621824Y-12977674D01*
X15621824Y-12977674D02*
X15640872Y-12968150D01*
X15640872Y-12968150D02*
X15669443Y-12968150D01*
X15669443Y-12968150D02*
X15688491Y-12977674D01*
X15688491Y-12977674D02*
X15698015Y-12996722D01*
X15698015Y-12996722D02*
X15698015Y-13101484D01*
X16088491Y-12891960D02*
X15917063Y-13149103D01*
X16345634Y-12901484D02*
X16364682Y-12901484D01*
X16364682Y-12901484D02*
X16383729Y-12911008D01*
X16383729Y-12911008D02*
X16393253Y-12920531D01*
X16393253Y-12920531D02*
X16402777Y-12939579D01*
X16402777Y-12939579D02*
X16412301Y-12977674D01*
X16412301Y-12977674D02*
X16412301Y-13025293D01*
X16412301Y-13025293D02*
X16402777Y-13063388D01*
X16402777Y-13063388D02*
X16393253Y-13082436D01*
X16393253Y-13082436D02*
X16383729Y-13091960D01*
X16383729Y-13091960D02*
X16364682Y-13101484D01*
X16364682Y-13101484D02*
X16345634Y-13101484D01*
X16345634Y-13101484D02*
X16326586Y-13091960D01*
X16326586Y-13091960D02*
X16317063Y-13082436D01*
X16317063Y-13082436D02*
X16307539Y-13063388D01*
X16307539Y-13063388D02*
X16298015Y-13025293D01*
X16298015Y-13025293D02*
X16298015Y-12977674D01*
X16298015Y-12977674D02*
X16307539Y-12939579D01*
X16307539Y-12939579D02*
X16317063Y-12920531D01*
X16317063Y-12920531D02*
X16326586Y-12911008D01*
X16326586Y-12911008D02*
X16345634Y-12901484D01*
X16498015Y-13082436D02*
X16507539Y-13091960D01*
X16507539Y-13091960D02*
X16498015Y-13101484D01*
X16498015Y-13101484D02*
X16488491Y-13091960D01*
X16488491Y-13091960D02*
X16498015Y-13082436D01*
X16498015Y-13082436D02*
X16498015Y-13101484D01*
X16631348Y-12901484D02*
X16650396Y-12901484D01*
X16650396Y-12901484D02*
X16669444Y-12911008D01*
X16669444Y-12911008D02*
X16678967Y-12920531D01*
X16678967Y-12920531D02*
X16688491Y-12939579D01*
X16688491Y-12939579D02*
X16698015Y-12977674D01*
X16698015Y-12977674D02*
X16698015Y-13025293D01*
X16698015Y-13025293D02*
X16688491Y-13063388D01*
X16688491Y-13063388D02*
X16678967Y-13082436D01*
X16678967Y-13082436D02*
X16669444Y-13091960D01*
X16669444Y-13091960D02*
X16650396Y-13101484D01*
X16650396Y-13101484D02*
X16631348Y-13101484D01*
X16631348Y-13101484D02*
X16612301Y-13091960D01*
X16612301Y-13091960D02*
X16602777Y-13082436D01*
X16602777Y-13082436D02*
X16593253Y-13063388D01*
X16593253Y-13063388D02*
X16583729Y-13025293D01*
X16583729Y-13025293D02*
X16583729Y-12977674D01*
X16583729Y-12977674D02*
X16593253Y-12939579D01*
X16593253Y-12939579D02*
X16602777Y-12920531D01*
X16602777Y-12920531D02*
X16612301Y-12911008D01*
X16612301Y-12911008D02*
X16631348Y-12901484D01*
X16764682Y-12901484D02*
X16888491Y-12901484D01*
X16888491Y-12901484D02*
X16821825Y-12977674D01*
X16821825Y-12977674D02*
X16850396Y-12977674D01*
X16850396Y-12977674D02*
X16869444Y-12987198D01*
X16869444Y-12987198D02*
X16878968Y-12996722D01*
X16878968Y-12996722D02*
X16888491Y-13015769D01*
X16888491Y-13015769D02*
X16888491Y-13063388D01*
X16888491Y-13063388D02*
X16878968Y-13082436D01*
X16878968Y-13082436D02*
X16869444Y-13091960D01*
X16869444Y-13091960D02*
X16850396Y-13101484D01*
X16850396Y-13101484D02*
X16793253Y-13101484D01*
X16793253Y-13101484D02*
X16774206Y-13091960D01*
X16774206Y-13091960D02*
X16764682Y-13082436D01*
X16983729Y-13101484D02*
X17021825Y-13101484D01*
X17021825Y-13101484D02*
X17040872Y-13091960D01*
X17040872Y-13091960D02*
X17050396Y-13082436D01*
X17050396Y-13082436D02*
X17069444Y-13053865D01*
X17069444Y-13053865D02*
X17078968Y-13015769D01*
X17078968Y-13015769D02*
X17078968Y-12939579D01*
X17078968Y-12939579D02*
X17069444Y-12920531D01*
X17069444Y-12920531D02*
X17059920Y-12911008D01*
X17059920Y-12911008D02*
X17040872Y-12901484D01*
X17040872Y-12901484D02*
X17002777Y-12901484D01*
X17002777Y-12901484D02*
X16983729Y-12911008D01*
X16983729Y-12911008D02*
X16974206Y-12920531D01*
X16974206Y-12920531D02*
X16964682Y-12939579D01*
X16964682Y-12939579D02*
X16964682Y-12987198D01*
X16964682Y-12987198D02*
X16974206Y-13006246D01*
X16974206Y-13006246D02*
X16983729Y-13015769D01*
X16983729Y-13015769D02*
X17002777Y-13025293D01*
X17002777Y-13025293D02*
X17040872Y-13025293D01*
X17040872Y-13025293D02*
X17059920Y-13015769D01*
X17059920Y-13015769D02*
X17069444Y-13006246D01*
X17069444Y-13006246D02*
X17078968Y-12987198D01*
X17250396Y-12968150D02*
X17250396Y-13101484D01*
X17202777Y-12891960D02*
X17155158Y-13034817D01*
X17155158Y-13034817D02*
X17278968Y-13034817D01*
X17345634Y-12901484D02*
X17345634Y-12939579D01*
X17421825Y-12901484D02*
X17421825Y-12939579D01*
X17717063Y-13177674D02*
X17707539Y-13168150D01*
X17707539Y-13168150D02*
X17688491Y-13139579D01*
X17688491Y-13139579D02*
X17678968Y-13120531D01*
X17678968Y-13120531D02*
X17669444Y-13091960D01*
X17669444Y-13091960D02*
X17659920Y-13044341D01*
X17659920Y-13044341D02*
X17659920Y-13006246D01*
X17659920Y-13006246D02*
X17669444Y-12958627D01*
X17669444Y-12958627D02*
X17678968Y-12930055D01*
X17678968Y-12930055D02*
X17688491Y-12911008D01*
X17688491Y-12911008D02*
X17707539Y-12882436D01*
X17707539Y-12882436D02*
X17717063Y-12872912D01*
X17774206Y-12901484D02*
X17898015Y-12901484D01*
X17898015Y-12901484D02*
X17831349Y-12977674D01*
X17831349Y-12977674D02*
X17859920Y-12977674D01*
X17859920Y-12977674D02*
X17878968Y-12987198D01*
X17878968Y-12987198D02*
X17888491Y-12996722D01*
X17888491Y-12996722D02*
X17898015Y-13015769D01*
X17898015Y-13015769D02*
X17898015Y-13063388D01*
X17898015Y-13063388D02*
X17888491Y-13082436D01*
X17888491Y-13082436D02*
X17878968Y-13091960D01*
X17878968Y-13091960D02*
X17859920Y-13101484D01*
X17859920Y-13101484D02*
X17802777Y-13101484D01*
X17802777Y-13101484D02*
X17783730Y-13091960D01*
X17783730Y-13091960D02*
X17774206Y-13082436D01*
X17964682Y-12901484D02*
X18098015Y-12901484D01*
X18098015Y-12901484D02*
X18012301Y-13101484D01*
X18326587Y-13101484D02*
X18326587Y-12901484D01*
X18412301Y-13101484D02*
X18412301Y-12996722D01*
X18412301Y-12996722D02*
X18402777Y-12977674D01*
X18402777Y-12977674D02*
X18383730Y-12968150D01*
X18383730Y-12968150D02*
X18355158Y-12968150D01*
X18355158Y-12968150D02*
X18336111Y-12977674D01*
X18336111Y-12977674D02*
X18326587Y-12987198D01*
X18536111Y-13101484D02*
X18517063Y-13091960D01*
X18517063Y-13091960D02*
X18507539Y-13082436D01*
X18507539Y-13082436D02*
X18498015Y-13063388D01*
X18498015Y-13063388D02*
X18498015Y-13006246D01*
X18498015Y-13006246D02*
X18507539Y-12987198D01*
X18507539Y-12987198D02*
X18517063Y-12977674D01*
X18517063Y-12977674D02*
X18536111Y-12968150D01*
X18536111Y-12968150D02*
X18564682Y-12968150D01*
X18564682Y-12968150D02*
X18583730Y-12977674D01*
X18583730Y-12977674D02*
X18593253Y-12987198D01*
X18593253Y-12987198D02*
X18602777Y-13006246D01*
X18602777Y-13006246D02*
X18602777Y-13063388D01*
X18602777Y-13063388D02*
X18593253Y-13082436D01*
X18593253Y-13082436D02*
X18583730Y-13091960D01*
X18583730Y-13091960D02*
X18564682Y-13101484D01*
X18564682Y-13101484D02*
X18536111Y-13101484D01*
X18717063Y-13101484D02*
X18698015Y-13091960D01*
X18698015Y-13091960D02*
X18688492Y-13072912D01*
X18688492Y-13072912D02*
X18688492Y-12901484D01*
X18869444Y-13091960D02*
X18850396Y-13101484D01*
X18850396Y-13101484D02*
X18812301Y-13101484D01*
X18812301Y-13101484D02*
X18793253Y-13091960D01*
X18793253Y-13091960D02*
X18783730Y-13072912D01*
X18783730Y-13072912D02*
X18783730Y-12996722D01*
X18783730Y-12996722D02*
X18793253Y-12977674D01*
X18793253Y-12977674D02*
X18812301Y-12968150D01*
X18812301Y-12968150D02*
X18850396Y-12968150D01*
X18850396Y-12968150D02*
X18869444Y-12977674D01*
X18869444Y-12977674D02*
X18878968Y-12996722D01*
X18878968Y-12996722D02*
X18878968Y-13015769D01*
X18878968Y-13015769D02*
X18783730Y-13034817D01*
X18955158Y-13091960D02*
X18974206Y-13101484D01*
X18974206Y-13101484D02*
X19012301Y-13101484D01*
X19012301Y-13101484D02*
X19031349Y-13091960D01*
X19031349Y-13091960D02*
X19040873Y-13072912D01*
X19040873Y-13072912D02*
X19040873Y-13063388D01*
X19040873Y-13063388D02*
X19031349Y-13044341D01*
X19031349Y-13044341D02*
X19012301Y-13034817D01*
X19012301Y-13034817D02*
X18983730Y-13034817D01*
X18983730Y-13034817D02*
X18964682Y-13025293D01*
X18964682Y-13025293D02*
X18955158Y-13006246D01*
X18955158Y-13006246D02*
X18955158Y-12996722D01*
X18955158Y-12996722D02*
X18964682Y-12977674D01*
X18964682Y-12977674D02*
X18983730Y-12968150D01*
X18983730Y-12968150D02*
X19012301Y-12968150D01*
X19012301Y-12968150D02*
X19031349Y-12977674D01*
X19107539Y-13177674D02*
X19117063Y-13168150D01*
X19117063Y-13168150D02*
X19136111Y-13139579D01*
X19136111Y-13139579D02*
X19145634Y-13120531D01*
X19145634Y-13120531D02*
X19155158Y-13091960D01*
X19155158Y-13091960D02*
X19164682Y-13044341D01*
X19164682Y-13044341D02*
X19164682Y-13006246D01*
X19164682Y-13006246D02*
X19155158Y-12958627D01*
X19155158Y-12958627D02*
X19145634Y-12930055D01*
X19145634Y-12930055D02*
X19136111Y-12911008D01*
X19136111Y-12911008D02*
X19117063Y-12882436D01*
X19117063Y-12882436D02*
X19107539Y-12872912D01*
D13*
X14124427Y-13316427D02*
X14124427Y-13231573D01*
X14039573Y-13231573D01*
X14039573Y-13316427D01*
X14124427Y-13316427D01*
D11*
X14507539Y-13365484D02*
X14393253Y-13365484D01*
X14450396Y-13365484D02*
X14450396Y-13165484D01*
X14450396Y-13165484D02*
X14431348Y-13194055D01*
X14431348Y-13194055D02*
X14412301Y-13213103D01*
X14412301Y-13213103D02*
X14393253Y-13222627D01*
X14593253Y-13346436D02*
X14602777Y-13355960D01*
X14602777Y-13355960D02*
X14593253Y-13365484D01*
X14593253Y-13365484D02*
X14583729Y-13355960D01*
X14583729Y-13355960D02*
X14593253Y-13346436D01*
X14593253Y-13346436D02*
X14593253Y-13365484D01*
X14678967Y-13184531D02*
X14688491Y-13175008D01*
X14688491Y-13175008D02*
X14707539Y-13165484D01*
X14707539Y-13165484D02*
X14755158Y-13165484D01*
X14755158Y-13165484D02*
X14774205Y-13175008D01*
X14774205Y-13175008D02*
X14783729Y-13184531D01*
X14783729Y-13184531D02*
X14793253Y-13203579D01*
X14793253Y-13203579D02*
X14793253Y-13222627D01*
X14793253Y-13222627D02*
X14783729Y-13251198D01*
X14783729Y-13251198D02*
X14669443Y-13365484D01*
X14669443Y-13365484D02*
X14793253Y-13365484D01*
X14917062Y-13165484D02*
X14936110Y-13165484D01*
X14936110Y-13165484D02*
X14955158Y-13175008D01*
X14955158Y-13175008D02*
X14964682Y-13184531D01*
X14964682Y-13184531D02*
X14974205Y-13203579D01*
X14974205Y-13203579D02*
X14983729Y-13241674D01*
X14983729Y-13241674D02*
X14983729Y-13289293D01*
X14983729Y-13289293D02*
X14974205Y-13327388D01*
X14974205Y-13327388D02*
X14964682Y-13346436D01*
X14964682Y-13346436D02*
X14955158Y-13355960D01*
X14955158Y-13355960D02*
X14936110Y-13365484D01*
X14936110Y-13365484D02*
X14917062Y-13365484D01*
X14917062Y-13365484D02*
X14898015Y-13355960D01*
X14898015Y-13355960D02*
X14888491Y-13346436D01*
X14888491Y-13346436D02*
X14878967Y-13327388D01*
X14878967Y-13327388D02*
X14869443Y-13289293D01*
X14869443Y-13289293D02*
X14869443Y-13241674D01*
X14869443Y-13241674D02*
X14878967Y-13203579D01*
X14878967Y-13203579D02*
X14888491Y-13184531D01*
X14888491Y-13184531D02*
X14898015Y-13175008D01*
X14898015Y-13175008D02*
X14917062Y-13165484D01*
X15107539Y-13165484D02*
X15126586Y-13165484D01*
X15126586Y-13165484D02*
X15145634Y-13175008D01*
X15145634Y-13175008D02*
X15155158Y-13184531D01*
X15155158Y-13184531D02*
X15164682Y-13203579D01*
X15164682Y-13203579D02*
X15174205Y-13241674D01*
X15174205Y-13241674D02*
X15174205Y-13289293D01*
X15174205Y-13289293D02*
X15164682Y-13327388D01*
X15164682Y-13327388D02*
X15155158Y-13346436D01*
X15155158Y-13346436D02*
X15145634Y-13355960D01*
X15145634Y-13355960D02*
X15126586Y-13365484D01*
X15126586Y-13365484D02*
X15107539Y-13365484D01*
X15107539Y-13365484D02*
X15088491Y-13355960D01*
X15088491Y-13355960D02*
X15078967Y-13346436D01*
X15078967Y-13346436D02*
X15069443Y-13327388D01*
X15069443Y-13327388D02*
X15059920Y-13289293D01*
X15059920Y-13289293D02*
X15059920Y-13241674D01*
X15059920Y-13241674D02*
X15069443Y-13203579D01*
X15069443Y-13203579D02*
X15078967Y-13184531D01*
X15078967Y-13184531D02*
X15088491Y-13175008D01*
X15088491Y-13175008D02*
X15107539Y-13165484D01*
X15259920Y-13365484D02*
X15259920Y-13232150D01*
X15259920Y-13251198D02*
X15269443Y-13241674D01*
X15269443Y-13241674D02*
X15288491Y-13232150D01*
X15288491Y-13232150D02*
X15317063Y-13232150D01*
X15317063Y-13232150D02*
X15336110Y-13241674D01*
X15336110Y-13241674D02*
X15345634Y-13260722D01*
X15345634Y-13260722D02*
X15345634Y-13365484D01*
X15345634Y-13260722D02*
X15355158Y-13241674D01*
X15355158Y-13241674D02*
X15374205Y-13232150D01*
X15374205Y-13232150D02*
X15402777Y-13232150D01*
X15402777Y-13232150D02*
X15421824Y-13241674D01*
X15421824Y-13241674D02*
X15431348Y-13260722D01*
X15431348Y-13260722D02*
X15431348Y-13365484D01*
X15526586Y-13365484D02*
X15526586Y-13232150D01*
X15526586Y-13251198D02*
X15536110Y-13241674D01*
X15536110Y-13241674D02*
X15555158Y-13232150D01*
X15555158Y-13232150D02*
X15583729Y-13232150D01*
X15583729Y-13232150D02*
X15602777Y-13241674D01*
X15602777Y-13241674D02*
X15612301Y-13260722D01*
X15612301Y-13260722D02*
X15612301Y-13365484D01*
X15612301Y-13260722D02*
X15621824Y-13241674D01*
X15621824Y-13241674D02*
X15640872Y-13232150D01*
X15640872Y-13232150D02*
X15669443Y-13232150D01*
X15669443Y-13232150D02*
X15688491Y-13241674D01*
X15688491Y-13241674D02*
X15698015Y-13260722D01*
X15698015Y-13260722D02*
X15698015Y-13365484D01*
X16088491Y-13155960D02*
X15917063Y-13413103D01*
X16345634Y-13165484D02*
X16364682Y-13165484D01*
X16364682Y-13165484D02*
X16383729Y-13175008D01*
X16383729Y-13175008D02*
X16393253Y-13184531D01*
X16393253Y-13184531D02*
X16402777Y-13203579D01*
X16402777Y-13203579D02*
X16412301Y-13241674D01*
X16412301Y-13241674D02*
X16412301Y-13289293D01*
X16412301Y-13289293D02*
X16402777Y-13327388D01*
X16402777Y-13327388D02*
X16393253Y-13346436D01*
X16393253Y-13346436D02*
X16383729Y-13355960D01*
X16383729Y-13355960D02*
X16364682Y-13365484D01*
X16364682Y-13365484D02*
X16345634Y-13365484D01*
X16345634Y-13365484D02*
X16326586Y-13355960D01*
X16326586Y-13355960D02*
X16317063Y-13346436D01*
X16317063Y-13346436D02*
X16307539Y-13327388D01*
X16307539Y-13327388D02*
X16298015Y-13289293D01*
X16298015Y-13289293D02*
X16298015Y-13241674D01*
X16298015Y-13241674D02*
X16307539Y-13203579D01*
X16307539Y-13203579D02*
X16317063Y-13184531D01*
X16317063Y-13184531D02*
X16326586Y-13175008D01*
X16326586Y-13175008D02*
X16345634Y-13165484D01*
X16498015Y-13346436D02*
X16507539Y-13355960D01*
X16507539Y-13355960D02*
X16498015Y-13365484D01*
X16498015Y-13365484D02*
X16488491Y-13355960D01*
X16488491Y-13355960D02*
X16498015Y-13346436D01*
X16498015Y-13346436D02*
X16498015Y-13365484D01*
X16631348Y-13165484D02*
X16650396Y-13165484D01*
X16650396Y-13165484D02*
X16669444Y-13175008D01*
X16669444Y-13175008D02*
X16678967Y-13184531D01*
X16678967Y-13184531D02*
X16688491Y-13203579D01*
X16688491Y-13203579D02*
X16698015Y-13241674D01*
X16698015Y-13241674D02*
X16698015Y-13289293D01*
X16698015Y-13289293D02*
X16688491Y-13327388D01*
X16688491Y-13327388D02*
X16678967Y-13346436D01*
X16678967Y-13346436D02*
X16669444Y-13355960D01*
X16669444Y-13355960D02*
X16650396Y-13365484D01*
X16650396Y-13365484D02*
X16631348Y-13365484D01*
X16631348Y-13365484D02*
X16612301Y-13355960D01*
X16612301Y-13355960D02*
X16602777Y-13346436D01*
X16602777Y-13346436D02*
X16593253Y-13327388D01*
X16593253Y-13327388D02*
X16583729Y-13289293D01*
X16583729Y-13289293D02*
X16583729Y-13241674D01*
X16583729Y-13241674D02*
X16593253Y-13203579D01*
X16593253Y-13203579D02*
X16602777Y-13184531D01*
X16602777Y-13184531D02*
X16612301Y-13175008D01*
X16612301Y-13175008D02*
X16631348Y-13165484D01*
X16869444Y-13232150D02*
X16869444Y-13365484D01*
X16821825Y-13155960D02*
X16774206Y-13298817D01*
X16774206Y-13298817D02*
X16898015Y-13298817D01*
X16955158Y-13165484D02*
X17088491Y-13165484D01*
X17088491Y-13165484D02*
X17002777Y-13365484D01*
X17155158Y-13184531D02*
X17164682Y-13175008D01*
X17164682Y-13175008D02*
X17183729Y-13165484D01*
X17183729Y-13165484D02*
X17231349Y-13165484D01*
X17231349Y-13165484D02*
X17250396Y-13175008D01*
X17250396Y-13175008D02*
X17259920Y-13184531D01*
X17259920Y-13184531D02*
X17269444Y-13203579D01*
X17269444Y-13203579D02*
X17269444Y-13222627D01*
X17269444Y-13222627D02*
X17259920Y-13251198D01*
X17259920Y-13251198D02*
X17145634Y-13365484D01*
X17145634Y-13365484D02*
X17269444Y-13365484D01*
X17345634Y-13165484D02*
X17345634Y-13203579D01*
X17421825Y-13165484D02*
X17421825Y-13203579D01*
X17717063Y-13441674D02*
X17707539Y-13432150D01*
X17707539Y-13432150D02*
X17688491Y-13403579D01*
X17688491Y-13403579D02*
X17678968Y-13384531D01*
X17678968Y-13384531D02*
X17669444Y-13355960D01*
X17669444Y-13355960D02*
X17659920Y-13308341D01*
X17659920Y-13308341D02*
X17659920Y-13270246D01*
X17659920Y-13270246D02*
X17669444Y-13222627D01*
X17669444Y-13222627D02*
X17678968Y-13194055D01*
X17678968Y-13194055D02*
X17688491Y-13175008D01*
X17688491Y-13175008D02*
X17707539Y-13146436D01*
X17707539Y-13146436D02*
X17717063Y-13136912D01*
X17878968Y-13232150D02*
X17878968Y-13365484D01*
X17831349Y-13155960D02*
X17783730Y-13298817D01*
X17783730Y-13298817D02*
X17907539Y-13298817D01*
X18136111Y-13365484D02*
X18136111Y-13165484D01*
X18221825Y-13365484D02*
X18221825Y-13260722D01*
X18221825Y-13260722D02*
X18212301Y-13241674D01*
X18212301Y-13241674D02*
X18193253Y-13232150D01*
X18193253Y-13232150D02*
X18164682Y-13232150D01*
X18164682Y-13232150D02*
X18145634Y-13241674D01*
X18145634Y-13241674D02*
X18136111Y-13251198D01*
X18345634Y-13365484D02*
X18326587Y-13355960D01*
X18326587Y-13355960D02*
X18317063Y-13346436D01*
X18317063Y-13346436D02*
X18307539Y-13327388D01*
X18307539Y-13327388D02*
X18307539Y-13270246D01*
X18307539Y-13270246D02*
X18317063Y-13251198D01*
X18317063Y-13251198D02*
X18326587Y-13241674D01*
X18326587Y-13241674D02*
X18345634Y-13232150D01*
X18345634Y-13232150D02*
X18374206Y-13232150D01*
X18374206Y-13232150D02*
X18393253Y-13241674D01*
X18393253Y-13241674D02*
X18402777Y-13251198D01*
X18402777Y-13251198D02*
X18412301Y-13270246D01*
X18412301Y-13270246D02*
X18412301Y-13327388D01*
X18412301Y-13327388D02*
X18402777Y-13346436D01*
X18402777Y-13346436D02*
X18393253Y-13355960D01*
X18393253Y-13355960D02*
X18374206Y-13365484D01*
X18374206Y-13365484D02*
X18345634Y-13365484D01*
X18526587Y-13365484D02*
X18507539Y-13355960D01*
X18507539Y-13355960D02*
X18498015Y-13336912D01*
X18498015Y-13336912D02*
X18498015Y-13165484D01*
X18678968Y-13355960D02*
X18659920Y-13365484D01*
X18659920Y-13365484D02*
X18621825Y-13365484D01*
X18621825Y-13365484D02*
X18602777Y-13355960D01*
X18602777Y-13355960D02*
X18593253Y-13336912D01*
X18593253Y-13336912D02*
X18593253Y-13260722D01*
X18593253Y-13260722D02*
X18602777Y-13241674D01*
X18602777Y-13241674D02*
X18621825Y-13232150D01*
X18621825Y-13232150D02*
X18659920Y-13232150D01*
X18659920Y-13232150D02*
X18678968Y-13241674D01*
X18678968Y-13241674D02*
X18688492Y-13260722D01*
X18688492Y-13260722D02*
X18688492Y-13279769D01*
X18688492Y-13279769D02*
X18593253Y-13298817D01*
X18764682Y-13355960D02*
X18783730Y-13365484D01*
X18783730Y-13365484D02*
X18821825Y-13365484D01*
X18821825Y-13365484D02*
X18840873Y-13355960D01*
X18840873Y-13355960D02*
X18850396Y-13336912D01*
X18850396Y-13336912D02*
X18850396Y-13327388D01*
X18850396Y-13327388D02*
X18840873Y-13308341D01*
X18840873Y-13308341D02*
X18821825Y-13298817D01*
X18821825Y-13298817D02*
X18793253Y-13298817D01*
X18793253Y-13298817D02*
X18774206Y-13289293D01*
X18774206Y-13289293D02*
X18764682Y-13270246D01*
X18764682Y-13270246D02*
X18764682Y-13260722D01*
X18764682Y-13260722D02*
X18774206Y-13241674D01*
X18774206Y-13241674D02*
X18793253Y-13232150D01*
X18793253Y-13232150D02*
X18821825Y-13232150D01*
X18821825Y-13232150D02*
X18840873Y-13241674D01*
X18917063Y-13441674D02*
X18926587Y-13432150D01*
X18926587Y-13432150D02*
X18945634Y-13403579D01*
X18945634Y-13403579D02*
X18955158Y-13384531D01*
X18955158Y-13384531D02*
X18964682Y-13355960D01*
X18964682Y-13355960D02*
X18974206Y-13308341D01*
X18974206Y-13308341D02*
X18974206Y-13270246D01*
X18974206Y-13270246D02*
X18964682Y-13222627D01*
X18964682Y-13222627D02*
X18955158Y-13194055D01*
X18955158Y-13194055D02*
X18945634Y-13175008D01*
X18945634Y-13175008D02*
X18926587Y-13146436D01*
X18926587Y-13146436D02*
X18917063Y-13136912D01*
M02*
