G04 #@! TF.GenerationSoftware,KiCad,Pcbnew,8.0.5*
G04 #@! TF.CreationDate,2025-02-12T16:10:39+08:00*
G04 #@! TF.ProjectId,arduino_solar_bikelight_1,61726475-696e-46f5-9f73-6f6c61725f62,rev?*
G04 #@! TF.SameCoordinates,Original*
G04 #@! TF.FileFunction,Copper,L1,Top*
G04 #@! TF.FilePolarity,Positive*
%FSLAX46Y46*%
G04 Gerber Fmt 4.6, Leading zero omitted, Abs format (unit mm)*
G04 Created by KiCad (PCBNEW 8.0.5) date 2025-02-12 16:10:39*
%MOMM*%
%LPD*%
G01*
G04 APERTURE LIST*
G04 Aperture macros list*
%AMRoundRect*
0 Rectangle with rounded corners*
0 $1 Rounding radius*
0 $2 $3 $4 $5 $6 $7 $8 $9 X,Y pos of 4 corners*
0 Add a 4 corners polygon primitive as box body*
4,1,4,$2,$3,$4,$5,$6,$7,$8,$9,$2,$3,0*
0 Add four circle primitives for the rounded corners*
1,1,$1+$1,$2,$3*
1,1,$1+$1,$4,$5*
1,1,$1+$1,$6,$7*
1,1,$1+$1,$8,$9*
0 Add four rect primitives between the rounded corners*
20,1,$1+$1,$2,$3,$4,$5,0*
20,1,$1+$1,$4,$5,$6,$7,0*
20,1,$1+$1,$6,$7,$8,$9,0*
20,1,$1+$1,$8,$9,$2,$3,0*%
G04 Aperture macros list end*
G04 #@! TA.AperFunction,SMDPad,CuDef*
%ADD10RoundRect,0.250000X-0.350000X-0.450000X0.350000X-0.450000X0.350000X0.450000X-0.350000X0.450000X0*%
G04 #@! TD*
G04 #@! TA.AperFunction,SMDPad,CuDef*
%ADD11RoundRect,0.250000X0.450000X-0.350000X0.450000X0.350000X-0.450000X0.350000X-0.450000X-0.350000X0*%
G04 #@! TD*
G04 #@! TA.AperFunction,ComponentPad*
%ADD12R,1.600000X1.600000*%
G04 #@! TD*
G04 #@! TA.AperFunction,ComponentPad*
%ADD13O,1.600000X1.600000*%
G04 #@! TD*
G04 #@! TA.AperFunction,ComponentPad*
%ADD14RoundRect,0.250000X-0.750000X0.600000X-0.750000X-0.600000X0.750000X-0.600000X0.750000X0.600000X0*%
G04 #@! TD*
G04 #@! TA.AperFunction,ComponentPad*
%ADD15O,2.000000X1.700000*%
G04 #@! TD*
G04 #@! TA.AperFunction,ComponentPad*
%ADD16O,1.700000X2.900000*%
G04 #@! TD*
G04 #@! TA.AperFunction,SMDPad,CuDef*
%ADD17RoundRect,0.150000X-0.587500X-0.150000X0.587500X-0.150000X0.587500X0.150000X-0.587500X0.150000X0*%
G04 #@! TD*
G04 #@! TA.AperFunction,ComponentPad*
%ADD18R,1.700000X1.700000*%
G04 #@! TD*
G04 #@! TA.AperFunction,ComponentPad*
%ADD19O,1.700000X1.700000*%
G04 #@! TD*
G04 #@! TA.AperFunction,ComponentPad*
%ADD20R,1.800000X1.800000*%
G04 #@! TD*
G04 #@! TA.AperFunction,ComponentPad*
%ADD21C,1.800000*%
G04 #@! TD*
G04 #@! TA.AperFunction,ViaPad*
%ADD22C,0.600000*%
G04 #@! TD*
G04 #@! TA.AperFunction,Conductor*
%ADD23C,0.800000*%
G04 #@! TD*
G04 #@! TA.AperFunction,Conductor*
%ADD24C,0.400000*%
G04 #@! TD*
G04 #@! TA.AperFunction,Conductor*
%ADD25C,0.500000*%
G04 #@! TD*
G04 APERTURE END LIST*
D10*
X163995000Y-78595000D03*
X165995000Y-78595000D03*
D11*
X149945000Y-87395000D03*
X149945000Y-85395000D03*
X147445000Y-87395000D03*
X147445000Y-85395000D03*
D12*
X159720000Y-107155000D03*
D13*
X159720000Y-104615000D03*
X159720000Y-102075000D03*
X159720000Y-99535000D03*
X159720000Y-96995000D03*
X159720000Y-94455000D03*
X159720000Y-91915000D03*
X159720000Y-89375000D03*
X159720000Y-86835000D03*
X159720000Y-84295000D03*
X159720000Y-81755000D03*
X159720000Y-79215000D03*
X159720000Y-76675000D03*
X159720000Y-74135000D03*
X159720000Y-71595000D03*
X144480000Y-71595000D03*
X144480000Y-74135000D03*
X144480000Y-76675000D03*
X144480000Y-79215000D03*
X144480000Y-81755000D03*
X144480000Y-84295000D03*
X144480000Y-86835000D03*
X144480000Y-89375000D03*
X144480000Y-91915000D03*
X144480000Y-94455000D03*
X144480000Y-96995000D03*
X144480000Y-99535000D03*
X144480000Y-102075000D03*
X144480000Y-104615000D03*
X144480000Y-107155000D03*
D10*
X163995000Y-86845000D03*
X165995000Y-86845000D03*
D14*
X187445000Y-102895000D03*
D15*
X187445000Y-105395000D03*
D16*
X182520000Y-79145000D03*
X182520000Y-66645000D03*
X187520000Y-79145000D03*
X187520000Y-66645000D03*
D17*
X164507500Y-89695000D03*
X164507500Y-91595000D03*
X166382500Y-90645000D03*
D18*
X188445000Y-85735000D03*
D19*
X188445000Y-88275000D03*
X188445000Y-90815000D03*
X188445000Y-93355000D03*
X188445000Y-95895000D03*
D17*
X164507500Y-81595000D03*
X164507500Y-83495000D03*
X166382500Y-82545000D03*
D10*
X163995000Y-94595000D03*
X165995000Y-94595000D03*
D17*
X164507500Y-97445000D03*
X164507500Y-99345000D03*
X166382500Y-98395000D03*
D20*
X150445000Y-94095000D03*
D21*
X152985000Y-94095000D03*
D20*
X171445000Y-94095000D03*
D21*
X173985000Y-94095000D03*
D20*
X171445000Y-108095000D03*
D21*
X173985000Y-108095000D03*
D20*
X150445000Y-80095000D03*
D21*
X152985000Y-80095000D03*
D20*
X150445000Y-108095000D03*
D21*
X152985000Y-108095000D03*
D20*
X171445000Y-66095000D03*
D21*
X173985000Y-66095000D03*
D20*
X171445000Y-80095000D03*
D21*
X173985000Y-80095000D03*
D20*
X150445000Y-66095000D03*
D21*
X152985000Y-66095000D03*
D22*
X149445000Y-89395000D03*
X162445000Y-83395000D03*
X147445000Y-112395000D03*
X162445000Y-99395000D03*
X162445000Y-91395000D03*
X182445000Y-87395000D03*
D23*
X149445000Y-87395000D02*
X149445000Y-89395000D01*
X164507500Y-99345000D02*
X162495000Y-99345000D01*
X147445000Y-112395000D02*
X147445000Y-87395000D01*
X162645000Y-91595000D02*
X162445000Y-91395000D01*
X164507500Y-91595000D02*
X162645000Y-91595000D01*
X162495000Y-99345000D02*
X162445000Y-99395000D01*
X162545000Y-83495000D02*
X162445000Y-83395000D01*
X164507500Y-83495000D02*
X162545000Y-83495000D01*
X187520000Y-66645000D02*
X187520000Y-79145000D01*
D24*
X149445000Y-85395000D02*
X147445000Y-85395000D01*
X147445000Y-84720000D02*
X144480000Y-81755000D01*
X147445000Y-85395000D02*
X147445000Y-84720000D01*
X161445000Y-81395000D02*
X163995000Y-78845000D01*
X163995000Y-78845000D02*
X163995000Y-78595000D01*
X161445000Y-85110000D02*
X161445000Y-81395000D01*
X159720000Y-86835000D02*
X161445000Y-85110000D01*
X175776370Y-112195000D02*
X184395000Y-103576370D01*
X159720000Y-96995000D02*
X160920000Y-98195000D01*
X186025000Y-93355000D02*
X188445000Y-93355000D01*
X182520000Y-66645000D02*
X182520000Y-79145000D01*
X171113630Y-112195000D02*
X175776370Y-112195000D01*
X160920000Y-98195000D02*
X160920000Y-102001370D01*
X184395000Y-94985000D02*
X186025000Y-93355000D01*
X160920000Y-102001370D02*
X171113630Y-112195000D01*
X184395000Y-103576370D02*
X184395000Y-94985000D01*
X163995000Y-86845000D02*
X162250000Y-86845000D01*
X162250000Y-86845000D02*
X159720000Y-89375000D01*
D25*
X164507500Y-96082500D02*
X165995000Y-94595000D01*
X164507500Y-97445000D02*
X164507500Y-96082500D01*
X164507500Y-89695000D02*
X164507500Y-88332500D01*
X164507500Y-88332500D02*
X165995000Y-86845000D01*
D24*
X162400000Y-94595000D02*
X159720000Y-91915000D01*
X163995000Y-94595000D02*
X162400000Y-94595000D01*
D25*
X164507500Y-81595000D02*
X164507500Y-80082500D01*
X164507500Y-80082500D02*
X165995000Y-78595000D01*
D23*
X183445000Y-88315000D02*
X186025000Y-85735000D01*
X178445000Y-105395000D02*
X183445000Y-100395000D01*
X174145000Y-105395000D02*
X178445000Y-105395000D01*
X168145000Y-108095000D02*
X171445000Y-108095000D01*
X166382500Y-98395000D02*
X166382500Y-106332500D01*
X183445000Y-100395000D02*
X183445000Y-88315000D01*
X171445000Y-108095000D02*
X174145000Y-105395000D01*
X186025000Y-85735000D02*
X188445000Y-85735000D01*
X166382500Y-106332500D02*
X168145000Y-108095000D01*
X168445000Y-88582500D02*
X166382500Y-90645000D01*
X168445000Y-83095000D02*
X168445000Y-88582500D01*
X171445000Y-80095000D02*
X168445000Y-83095000D01*
X171445000Y-94095000D02*
X169832500Y-94095000D01*
X169832500Y-94095000D02*
X166382500Y-90645000D01*
X162445000Y-69395000D02*
X156445000Y-69395000D01*
X180445000Y-78395000D02*
X177445000Y-75395000D01*
X150445000Y-79395000D02*
X150445000Y-81795000D01*
X162445000Y-69395000D02*
X168445000Y-75395000D01*
X150445000Y-81795000D02*
X151445000Y-82795000D01*
X150445000Y-79395000D02*
X150445000Y-80095000D01*
X168445000Y-81395000D02*
X167532500Y-81395000D01*
X168445000Y-75395000D02*
X168445000Y-81395000D01*
X167532500Y-81395000D02*
X166382500Y-82545000D01*
X151445000Y-93095000D02*
X150445000Y-94095000D01*
X151445000Y-82795000D02*
X151445000Y-93095000D01*
X182445000Y-87395000D02*
X182445000Y-85395000D01*
X150445000Y-108095000D02*
X150445000Y-94095000D01*
X177445000Y-75395000D02*
X168445000Y-75395000D01*
X180445000Y-83395000D02*
X180445000Y-78395000D01*
X156445000Y-69395000D02*
X150445000Y-75395000D01*
X182445000Y-85395000D02*
X180445000Y-83395000D01*
X150445000Y-75395000D02*
X150445000Y-79395000D01*
X150445000Y-66095000D02*
X150445000Y-75395000D01*
G04 #@! TA.AperFunction,Conductor*
G36*
X190887539Y-58915185D02*
G01*
X190933294Y-58967989D01*
X190944500Y-59019500D01*
X190944500Y-117770500D01*
X190924815Y-117837539D01*
X190872011Y-117883294D01*
X190820500Y-117894500D01*
X142069500Y-117894500D01*
X142002461Y-117874815D01*
X141956706Y-117822011D01*
X141945500Y-117770500D01*
X141945500Y-115273711D01*
X142594500Y-115273711D01*
X142594500Y-115516288D01*
X142626161Y-115756785D01*
X142688947Y-115991104D01*
X142781773Y-116215205D01*
X142781776Y-116215212D01*
X142903064Y-116425289D01*
X142903066Y-116425292D01*
X142903067Y-116425293D01*
X143050733Y-116617736D01*
X143050739Y-116617743D01*
X143222256Y-116789260D01*
X143222262Y-116789265D01*
X143414711Y-116936936D01*
X143624788Y-117058224D01*
X143848900Y-117151054D01*
X144083211Y-117213838D01*
X144263586Y-117237584D01*
X144323711Y-117245500D01*
X144323712Y-117245500D01*
X144566289Y-117245500D01*
X144614388Y-117239167D01*
X144806789Y-117213838D01*
X145041100Y-117151054D01*
X145265212Y-117058224D01*
X145475289Y-116936936D01*
X145667738Y-116789265D01*
X145839265Y-116617738D01*
X145986936Y-116425289D01*
X146108224Y-116215212D01*
X146201054Y-115991100D01*
X146263838Y-115756789D01*
X146295500Y-115516288D01*
X146295500Y-115273712D01*
X146295500Y-115273711D01*
X186594500Y-115273711D01*
X186594500Y-115516288D01*
X186626161Y-115756785D01*
X186688947Y-115991104D01*
X186781773Y-116215205D01*
X186781776Y-116215212D01*
X186903064Y-116425289D01*
X186903066Y-116425292D01*
X186903067Y-116425293D01*
X187050733Y-116617736D01*
X187050739Y-116617743D01*
X187222256Y-116789260D01*
X187222262Y-116789265D01*
X187414711Y-116936936D01*
X187624788Y-117058224D01*
X187848900Y-117151054D01*
X188083211Y-117213838D01*
X188263586Y-117237584D01*
X188323711Y-117245500D01*
X188323712Y-117245500D01*
X188566289Y-117245500D01*
X188614388Y-117239167D01*
X188806789Y-117213838D01*
X189041100Y-117151054D01*
X189265212Y-117058224D01*
X189475289Y-116936936D01*
X189667738Y-116789265D01*
X189839265Y-116617738D01*
X189986936Y-116425289D01*
X190108224Y-116215212D01*
X190201054Y-115991100D01*
X190263838Y-115756789D01*
X190295500Y-115516288D01*
X190295500Y-115273712D01*
X190263838Y-115033211D01*
X190201054Y-114798900D01*
X190108224Y-114574788D01*
X189986936Y-114364711D01*
X189839265Y-114172262D01*
X189839260Y-114172256D01*
X189667743Y-114000739D01*
X189667736Y-114000733D01*
X189475293Y-113853067D01*
X189475292Y-113853066D01*
X189475289Y-113853064D01*
X189265212Y-113731776D01*
X189265205Y-113731773D01*
X189041104Y-113638947D01*
X188806785Y-113576161D01*
X188566289Y-113544500D01*
X188566288Y-113544500D01*
X188323712Y-113544500D01*
X188323711Y-113544500D01*
X188083214Y-113576161D01*
X187848895Y-113638947D01*
X187624794Y-113731773D01*
X187624785Y-113731777D01*
X187414706Y-113853067D01*
X187222263Y-114000733D01*
X187222256Y-114000739D01*
X187050739Y-114172256D01*
X187050733Y-114172263D01*
X186903067Y-114364706D01*
X186781777Y-114574785D01*
X186781773Y-114574794D01*
X186688947Y-114798895D01*
X186626161Y-115033214D01*
X186594500Y-115273711D01*
X146295500Y-115273711D01*
X146263838Y-115033211D01*
X146201054Y-114798900D01*
X146108224Y-114574788D01*
X145986936Y-114364711D01*
X145839265Y-114172262D01*
X145839260Y-114172256D01*
X145667743Y-114000739D01*
X145667736Y-114000733D01*
X145475293Y-113853067D01*
X145475292Y-113853066D01*
X145475289Y-113853064D01*
X145265212Y-113731776D01*
X145265205Y-113731773D01*
X145041104Y-113638947D01*
X144806785Y-113576161D01*
X144566289Y-113544500D01*
X144566288Y-113544500D01*
X144323712Y-113544500D01*
X144323711Y-113544500D01*
X144083214Y-113576161D01*
X143848895Y-113638947D01*
X143624794Y-113731773D01*
X143624785Y-113731777D01*
X143414706Y-113853067D01*
X143222263Y-114000733D01*
X143222256Y-114000739D01*
X143050739Y-114172256D01*
X143050733Y-114172263D01*
X142903067Y-114364706D01*
X142781777Y-114574785D01*
X142781773Y-114574794D01*
X142688947Y-114798895D01*
X142626161Y-115033214D01*
X142594500Y-115273711D01*
X141945500Y-115273711D01*
X141945500Y-107155000D01*
X143474659Y-107155000D01*
X143493975Y-107351129D01*
X143493976Y-107351132D01*
X143543132Y-107513178D01*
X143551188Y-107539733D01*
X143644086Y-107713532D01*
X143644090Y-107713539D01*
X143769116Y-107865883D01*
X143921460Y-107990909D01*
X143921467Y-107990913D01*
X144095266Y-108083811D01*
X144095269Y-108083811D01*
X144095273Y-108083814D01*
X144283868Y-108141024D01*
X144480000Y-108160341D01*
X144676132Y-108141024D01*
X144864727Y-108083814D01*
X145038538Y-107990910D01*
X145190883Y-107865883D01*
X145315910Y-107713538D01*
X145408814Y-107539727D01*
X145466024Y-107351132D01*
X145485341Y-107155000D01*
X145466024Y-106958868D01*
X145408814Y-106770273D01*
X145408811Y-106770269D01*
X145408811Y-106770266D01*
X145315913Y-106596467D01*
X145315909Y-106596460D01*
X145190883Y-106444116D01*
X145038539Y-106319090D01*
X145038532Y-106319086D01*
X144864733Y-106226188D01*
X144864727Y-106226186D01*
X144676132Y-106168976D01*
X144676129Y-106168975D01*
X144480000Y-106149659D01*
X144283870Y-106168975D01*
X144095266Y-106226188D01*
X143921467Y-106319086D01*
X143921460Y-106319090D01*
X143769116Y-106444116D01*
X143644090Y-106596460D01*
X143644086Y-106596467D01*
X143551188Y-106770266D01*
X143493975Y-106958870D01*
X143474659Y-107155000D01*
X141945500Y-107155000D01*
X141945500Y-104364999D01*
X143201127Y-104364999D01*
X143201128Y-104365000D01*
X144046988Y-104365000D01*
X144014075Y-104422007D01*
X143980000Y-104549174D01*
X143980000Y-104680826D01*
X144014075Y-104807993D01*
X144046988Y-104865000D01*
X143201128Y-104865000D01*
X143253730Y-105061317D01*
X143253734Y-105061326D01*
X143349865Y-105267482D01*
X143480342Y-105453820D01*
X143641179Y-105614657D01*
X143827517Y-105745134D01*
X144033673Y-105841265D01*
X144033682Y-105841269D01*
X144229999Y-105893872D01*
X144230000Y-105893871D01*
X144230000Y-105048012D01*
X144287007Y-105080925D01*
X144414174Y-105115000D01*
X144545826Y-105115000D01*
X144672993Y-105080925D01*
X144730000Y-105048012D01*
X144730000Y-105893872D01*
X144926317Y-105841269D01*
X144926326Y-105841265D01*
X145132482Y-105745134D01*
X145318820Y-105614657D01*
X145479657Y-105453820D01*
X145610134Y-105267482D01*
X145706265Y-105061326D01*
X145706269Y-105061317D01*
X145758872Y-104865000D01*
X144913012Y-104865000D01*
X144945925Y-104807993D01*
X144980000Y-104680826D01*
X144980000Y-104549174D01*
X144945925Y-104422007D01*
X144913012Y-104365000D01*
X145758872Y-104365000D01*
X145758872Y-104364999D01*
X145706269Y-104168682D01*
X145706265Y-104168673D01*
X145610134Y-103962517D01*
X145479657Y-103776179D01*
X145318820Y-103615342D01*
X145132482Y-103484865D01*
X144926328Y-103388734D01*
X144730000Y-103336127D01*
X144730000Y-104181988D01*
X144672993Y-104149075D01*
X144545826Y-104115000D01*
X144414174Y-104115000D01*
X144287007Y-104149075D01*
X144230000Y-104181988D01*
X144230000Y-103336127D01*
X144033671Y-103388734D01*
X143827517Y-103484865D01*
X143641179Y-103615342D01*
X143480342Y-103776179D01*
X143349865Y-103962517D01*
X143253734Y-104168673D01*
X143253730Y-104168682D01*
X143201127Y-104364999D01*
X141945500Y-104364999D01*
X141945500Y-102075000D01*
X143474659Y-102075000D01*
X143493975Y-102271129D01*
X143551188Y-102459733D01*
X143644086Y-102633532D01*
X143644090Y-102633539D01*
X143769116Y-102785883D01*
X143921460Y-102910909D01*
X143921467Y-102910913D01*
X144095266Y-103003811D01*
X144095269Y-103003811D01*
X144095273Y-103003814D01*
X144283868Y-103061024D01*
X144480000Y-103080341D01*
X144676132Y-103061024D01*
X144864727Y-103003814D01*
X145038538Y-102910910D01*
X145190883Y-102785883D01*
X145315910Y-102633538D01*
X145362362Y-102546632D01*
X145408811Y-102459733D01*
X145408811Y-102459732D01*
X145408814Y-102459727D01*
X145466024Y-102271132D01*
X145485341Y-102075000D01*
X145466024Y-101878868D01*
X145408814Y-101690273D01*
X145408811Y-101690269D01*
X145408811Y-101690266D01*
X145315913Y-101516467D01*
X145315909Y-101516460D01*
X145190883Y-101364116D01*
X145038539Y-101239090D01*
X145038532Y-101239086D01*
X144864733Y-101146188D01*
X144864727Y-101146186D01*
X144676132Y-101088976D01*
X144676129Y-101088975D01*
X144480000Y-101069659D01*
X144283870Y-101088975D01*
X144095266Y-101146188D01*
X143921467Y-101239086D01*
X143921460Y-101239090D01*
X143769116Y-101364116D01*
X143644090Y-101516460D01*
X143644086Y-101516467D01*
X143551188Y-101690266D01*
X143493975Y-101878870D01*
X143474659Y-102075000D01*
X141945500Y-102075000D01*
X141945500Y-99535000D01*
X143474659Y-99535000D01*
X143493975Y-99731129D01*
X143551188Y-99919733D01*
X143644086Y-100093532D01*
X143644090Y-100093539D01*
X143769116Y-100245883D01*
X143921460Y-100370909D01*
X143921467Y-100370913D01*
X144095266Y-100463811D01*
X144095269Y-100463811D01*
X144095273Y-100463814D01*
X144283868Y-100521024D01*
X144480000Y-100540341D01*
X144676132Y-100521024D01*
X144864727Y-100463814D01*
X145038538Y-100370910D01*
X145190883Y-100245883D01*
X145315910Y-100093538D01*
X145398555Y-99938921D01*
X145408811Y-99919733D01*
X145408811Y-99919732D01*
X145408814Y-99919727D01*
X145466024Y-99731132D01*
X145485341Y-99535000D01*
X145466024Y-99338868D01*
X145408814Y-99150273D01*
X145408811Y-99150269D01*
X145408811Y-99150266D01*
X145315913Y-98976467D01*
X145315909Y-98976460D01*
X145190883Y-98824116D01*
X145038539Y-98699090D01*
X145038532Y-98699086D01*
X144864733Y-98606188D01*
X144864727Y-98606186D01*
X144676132Y-98548976D01*
X144676129Y-98548975D01*
X144480000Y-98529659D01*
X144283870Y-98548975D01*
X144095266Y-98606188D01*
X143921467Y-98699086D01*
X143921460Y-98699090D01*
X143769116Y-98824116D01*
X143644090Y-98976460D01*
X143644086Y-98976467D01*
X143551188Y-99150266D01*
X143493975Y-99338870D01*
X143474659Y-99535000D01*
X141945500Y-99535000D01*
X141945500Y-96995000D01*
X143474659Y-96995000D01*
X143493975Y-97191129D01*
X143551188Y-97379733D01*
X143644086Y-97553532D01*
X143644090Y-97553539D01*
X143769116Y-97705883D01*
X143921460Y-97830909D01*
X143921467Y-97830913D01*
X144095266Y-97923811D01*
X144095269Y-97923811D01*
X144095273Y-97923814D01*
X144283868Y-97981024D01*
X144480000Y-98000341D01*
X144676132Y-97981024D01*
X144864727Y-97923814D01*
X144900998Y-97904427D01*
X145030093Y-97835424D01*
X145038538Y-97830910D01*
X145190883Y-97705883D01*
X145315910Y-97553538D01*
X145362362Y-97466632D01*
X145408811Y-97379733D01*
X145408811Y-97379732D01*
X145408814Y-97379727D01*
X145466024Y-97191132D01*
X145485341Y-96995000D01*
X145466024Y-96798868D01*
X145408814Y-96610273D01*
X145408811Y-96610269D01*
X145408811Y-96610266D01*
X145315913Y-96436467D01*
X145315909Y-96436460D01*
X145190883Y-96284116D01*
X145038539Y-96159090D01*
X145038532Y-96159086D01*
X144864733Y-96066188D01*
X144864727Y-96066186D01*
X144676132Y-96008976D01*
X144676129Y-96008975D01*
X144480000Y-95989659D01*
X144283870Y-96008975D01*
X144095266Y-96066188D01*
X143921467Y-96159086D01*
X143921460Y-96159090D01*
X143769116Y-96284116D01*
X143644090Y-96436460D01*
X143644086Y-96436467D01*
X143551188Y-96610266D01*
X143493975Y-96798870D01*
X143474659Y-96995000D01*
X141945500Y-96995000D01*
X141945500Y-94455000D01*
X143474659Y-94455000D01*
X143493975Y-94651129D01*
X143551188Y-94839733D01*
X143644086Y-95013532D01*
X143644090Y-95013539D01*
X143769116Y-95165883D01*
X143921460Y-95290909D01*
X143921467Y-95290913D01*
X144095266Y-95383811D01*
X144095269Y-95383811D01*
X144095273Y-95383814D01*
X144283868Y-95441024D01*
X144480000Y-95460341D01*
X144676132Y-95441024D01*
X144864727Y-95383814D01*
X145038538Y-95290910D01*
X145190883Y-95165883D01*
X145315910Y-95013538D01*
X145368324Y-94915478D01*
X145408811Y-94839733D01*
X145408811Y-94839732D01*
X145408814Y-94839727D01*
X145466024Y-94651132D01*
X145485341Y-94455000D01*
X145466024Y-94258868D01*
X145408814Y-94070273D01*
X145408811Y-94070269D01*
X145408811Y-94070266D01*
X145315913Y-93896467D01*
X145315909Y-93896460D01*
X145190883Y-93744116D01*
X145038539Y-93619090D01*
X145038532Y-93619086D01*
X144864733Y-93526188D01*
X144864727Y-93526186D01*
X144723332Y-93483294D01*
X144676129Y-93468975D01*
X144480000Y-93449659D01*
X144283870Y-93468975D01*
X144095266Y-93526188D01*
X143921467Y-93619086D01*
X143921460Y-93619090D01*
X143769116Y-93744116D01*
X143644090Y-93896460D01*
X143644086Y-93896467D01*
X143551188Y-94070266D01*
X143493975Y-94258870D01*
X143474659Y-94455000D01*
X141945500Y-94455000D01*
X141945500Y-91915000D01*
X143474659Y-91915000D01*
X143493975Y-92111129D01*
X143551188Y-92299733D01*
X143644086Y-92473532D01*
X143644090Y-92473539D01*
X143769116Y-92625883D01*
X143921460Y-92750909D01*
X143921467Y-92750913D01*
X144095266Y-92843811D01*
X144095269Y-92843811D01*
X144095273Y-92843814D01*
X144283868Y-92901024D01*
X144480000Y-92920341D01*
X144676132Y-92901024D01*
X144864727Y-92843814D01*
X145038538Y-92750910D01*
X145190883Y-92625883D01*
X145315910Y-92473538D01*
X145383930Y-92346282D01*
X145408811Y-92299733D01*
X145408811Y-92299732D01*
X145408814Y-92299727D01*
X145466024Y-92111132D01*
X145485341Y-91915000D01*
X145466024Y-91718868D01*
X145408814Y-91530273D01*
X145408811Y-91530269D01*
X145408811Y-91530266D01*
X145315913Y-91356467D01*
X145315909Y-91356460D01*
X145190883Y-91204116D01*
X145038539Y-91079090D01*
X145038532Y-91079086D01*
X144864733Y-90986188D01*
X144864727Y-90986186D01*
X144676132Y-90928976D01*
X144676129Y-90928975D01*
X144480000Y-90909659D01*
X144283870Y-90928975D01*
X144095266Y-90986188D01*
X143921467Y-91079086D01*
X143921460Y-91079090D01*
X143769116Y-91204116D01*
X143644090Y-91356460D01*
X143644086Y-91356467D01*
X143551188Y-91530266D01*
X143493975Y-91718870D01*
X143474659Y-91915000D01*
X141945500Y-91915000D01*
X141945500Y-89375000D01*
X143474659Y-89375000D01*
X143493975Y-89571129D01*
X143551188Y-89759733D01*
X143644086Y-89933532D01*
X143644090Y-89933539D01*
X143769116Y-90085883D01*
X143921460Y-90210909D01*
X143921467Y-90210913D01*
X144095266Y-90303811D01*
X144095269Y-90303811D01*
X144095273Y-90303814D01*
X144283868Y-90361024D01*
X144480000Y-90380341D01*
X144676132Y-90361024D01*
X144864727Y-90303814D01*
X144893352Y-90288514D01*
X145005536Y-90228550D01*
X145038538Y-90210910D01*
X145190883Y-90085883D01*
X145315910Y-89933538D01*
X145408814Y-89759727D01*
X145466024Y-89571132D01*
X145485341Y-89375000D01*
X145466024Y-89178868D01*
X145408814Y-88990273D01*
X145408811Y-88990269D01*
X145408811Y-88990266D01*
X145315913Y-88816467D01*
X145315909Y-88816460D01*
X145190883Y-88664116D01*
X145038539Y-88539090D01*
X145038532Y-88539086D01*
X144864733Y-88446188D01*
X144864727Y-88446186D01*
X144676132Y-88388976D01*
X144676129Y-88388975D01*
X144480000Y-88369659D01*
X144283870Y-88388975D01*
X144095266Y-88446188D01*
X143921467Y-88539086D01*
X143921460Y-88539090D01*
X143769116Y-88664116D01*
X143644090Y-88816460D01*
X143644086Y-88816467D01*
X143551188Y-88990266D01*
X143493975Y-89178870D01*
X143474659Y-89375000D01*
X141945500Y-89375000D01*
X141945500Y-86835000D01*
X143474659Y-86835000D01*
X143493975Y-87031129D01*
X143493976Y-87031132D01*
X143534043Y-87163216D01*
X143551188Y-87219733D01*
X143644086Y-87393532D01*
X143644090Y-87393539D01*
X143769116Y-87545883D01*
X143921460Y-87670909D01*
X143921467Y-87670913D01*
X144095266Y-87763811D01*
X144095269Y-87763811D01*
X144095273Y-87763814D01*
X144283868Y-87821024D01*
X144480000Y-87840341D01*
X144676132Y-87821024D01*
X144761967Y-87794986D01*
X146245001Y-87794986D01*
X146255494Y-87897697D01*
X146310641Y-88064119D01*
X146310643Y-88064124D01*
X146402684Y-88213345D01*
X146526654Y-88337315D01*
X146675875Y-88429356D01*
X146675880Y-88429358D01*
X146842302Y-88484505D01*
X146842309Y-88484506D01*
X146945019Y-88494999D01*
X147194999Y-88494999D01*
X147195000Y-88494998D01*
X147195000Y-87645000D01*
X146245001Y-87645000D01*
X146245001Y-87794986D01*
X144761967Y-87794986D01*
X144864727Y-87763814D01*
X144864909Y-87763717D01*
X145005536Y-87688550D01*
X145038538Y-87670910D01*
X145190883Y-87545883D01*
X145315910Y-87393538D01*
X145408814Y-87219727D01*
X145466024Y-87031132D01*
X145485341Y-86835000D01*
X145466024Y-86638868D01*
X145408814Y-86450273D01*
X145408811Y-86450269D01*
X145408811Y-86450266D01*
X145315913Y-86276467D01*
X145315909Y-86276460D01*
X145190883Y-86124116D01*
X145038539Y-85999090D01*
X145038532Y-85999086D01*
X144864733Y-85906188D01*
X144864727Y-85906186D01*
X144676132Y-85848976D01*
X144676129Y-85848975D01*
X144480000Y-85829659D01*
X144283870Y-85848975D01*
X144095266Y-85906188D01*
X143921467Y-85999086D01*
X143921460Y-85999090D01*
X143769116Y-86124116D01*
X143644090Y-86276460D01*
X143644086Y-86276467D01*
X143551188Y-86450266D01*
X143493975Y-86638870D01*
X143474659Y-86835000D01*
X141945500Y-86835000D01*
X141945500Y-84295000D01*
X143474659Y-84295000D01*
X143493975Y-84491129D01*
X143551188Y-84679733D01*
X143644086Y-84853532D01*
X143644090Y-84853539D01*
X143769116Y-85005883D01*
X143921460Y-85130909D01*
X143921467Y-85130913D01*
X144095266Y-85223811D01*
X144095269Y-85223811D01*
X144095273Y-85223814D01*
X144283868Y-85281024D01*
X144480000Y-85300341D01*
X144676132Y-85281024D01*
X144864727Y-85223814D01*
X145038538Y-85130910D01*
X145190883Y-85005883D01*
X145315910Y-84853538D01*
X145376358Y-84740448D01*
X145408811Y-84679733D01*
X145408811Y-84679732D01*
X145408814Y-84679727D01*
X145466024Y-84491132D01*
X145485341Y-84295000D01*
X145466024Y-84098868D01*
X145408814Y-83910273D01*
X145408811Y-83910269D01*
X145408811Y-83910266D01*
X145315913Y-83736467D01*
X145315909Y-83736460D01*
X145190883Y-83584116D01*
X145038539Y-83459090D01*
X145038532Y-83459086D01*
X144864733Y-83366188D01*
X144864727Y-83366186D01*
X144676132Y-83308976D01*
X144676129Y-83308975D01*
X144480000Y-83289659D01*
X144283870Y-83308975D01*
X144095266Y-83366188D01*
X143921467Y-83459086D01*
X143921460Y-83459090D01*
X143769116Y-83584116D01*
X143644090Y-83736460D01*
X143644086Y-83736467D01*
X143551188Y-83910266D01*
X143493975Y-84098870D01*
X143474659Y-84295000D01*
X141945500Y-84295000D01*
X141945500Y-81755000D01*
X143474659Y-81755000D01*
X143493975Y-81951129D01*
X143493976Y-81951131D01*
X143493976Y-81951132D01*
X143550403Y-82137147D01*
X143551188Y-82139733D01*
X143644086Y-82313532D01*
X143644090Y-82313539D01*
X143769116Y-82465883D01*
X143921460Y-82590909D01*
X143921467Y-82590913D01*
X144095266Y-82683811D01*
X144095269Y-82683811D01*
X144095273Y-82683814D01*
X144283868Y-82741024D01*
X144480000Y-82760341D01*
X144676132Y-82741024D01*
X144776490Y-82710579D01*
X144846355Y-82709955D01*
X144900166Y-82741559D01*
X146690987Y-84532380D01*
X146724472Y-84593703D01*
X146719488Y-84663395D01*
X146677616Y-84719328D01*
X146676945Y-84719827D01*
X146672851Y-84722848D01*
X146592207Y-84832117D01*
X146592206Y-84832119D01*
X146547353Y-84960298D01*
X146547353Y-84960300D01*
X146544500Y-84990730D01*
X146544500Y-85799269D01*
X146547353Y-85829699D01*
X146547353Y-85829701D01*
X146588523Y-85947354D01*
X146592207Y-85957882D01*
X146672849Y-86067149D01*
X146672851Y-86067151D01*
X146755601Y-86128223D01*
X146797852Y-86183870D01*
X146803311Y-86253526D01*
X146770244Y-86315076D01*
X146720974Y-86345698D01*
X146675883Y-86360640D01*
X146675875Y-86360643D01*
X146526654Y-86452684D01*
X146402684Y-86576654D01*
X146310643Y-86725875D01*
X146310641Y-86725880D01*
X146255494Y-86892302D01*
X146255493Y-86892309D01*
X146245000Y-86995013D01*
X146245000Y-87145000D01*
X147571000Y-87145000D01*
X147638039Y-87164685D01*
X147683794Y-87217489D01*
X147695000Y-87269000D01*
X147695000Y-88494999D01*
X147944972Y-88494999D01*
X147944986Y-88494998D01*
X148047697Y-88484505D01*
X148214119Y-88429358D01*
X148214124Y-88429356D01*
X148363345Y-88337315D01*
X148487315Y-88213345D01*
X148579356Y-88064124D01*
X148579358Y-88064119D01*
X148602794Y-87993395D01*
X148642566Y-87935950D01*
X148707082Y-87909127D01*
X148775858Y-87921442D01*
X148827058Y-87968985D01*
X148844500Y-88032399D01*
X148844500Y-89474057D01*
X148870511Y-89571129D01*
X148885423Y-89626783D01*
X148885426Y-89626790D01*
X148964475Y-89763709D01*
X148964479Y-89763714D01*
X148964480Y-89763716D01*
X149076284Y-89875520D01*
X149076286Y-89875521D01*
X149076290Y-89875524D01*
X149199037Y-89946391D01*
X149213216Y-89954577D01*
X149365943Y-89995500D01*
X149365945Y-89995500D01*
X149524055Y-89995500D01*
X149524057Y-89995500D01*
X149676784Y-89954577D01*
X149813716Y-89875520D01*
X149925520Y-89763716D01*
X150004577Y-89626784D01*
X150045500Y-89474057D01*
X150045500Y-88319500D01*
X150065185Y-88252461D01*
X150117989Y-88206706D01*
X150169500Y-88195500D01*
X150449270Y-88195500D01*
X150479699Y-88192646D01*
X150479701Y-88192646D01*
X150543790Y-88170219D01*
X150607882Y-88147793D01*
X150646867Y-88119020D01*
X150712495Y-88095050D01*
X150780665Y-88110365D01*
X150829734Y-88160105D01*
X150844500Y-88218791D01*
X150844500Y-92794902D01*
X150824815Y-92861941D01*
X150808181Y-92882583D01*
X150732583Y-92958181D01*
X150671260Y-92991666D01*
X150644902Y-92994500D01*
X149525247Y-92994500D01*
X149466770Y-93006131D01*
X149466769Y-93006132D01*
X149400447Y-93050447D01*
X149356132Y-93116769D01*
X149356131Y-93116770D01*
X149344500Y-93175247D01*
X149344500Y-95014752D01*
X149356131Y-95073229D01*
X149356132Y-95073230D01*
X149400447Y-95139552D01*
X149466769Y-95183867D01*
X149466770Y-95183868D01*
X149525247Y-95195499D01*
X149525250Y-95195500D01*
X149525252Y-95195500D01*
X149720500Y-95195500D01*
X149787539Y-95215185D01*
X149833294Y-95267989D01*
X149844500Y-95319500D01*
X149844500Y-106870500D01*
X149824815Y-106937539D01*
X149772011Y-106983294D01*
X149720500Y-106994500D01*
X149525247Y-106994500D01*
X149466770Y-107006131D01*
X149466769Y-107006132D01*
X149400447Y-107050447D01*
X149356132Y-107116769D01*
X149356131Y-107116770D01*
X149344500Y-107175247D01*
X149344500Y-109014752D01*
X149356131Y-109073229D01*
X149356132Y-109073230D01*
X149400447Y-109139552D01*
X149466769Y-109183867D01*
X149466770Y-109183868D01*
X149525247Y-109195499D01*
X149525250Y-109195500D01*
X149525252Y-109195500D01*
X151364750Y-109195500D01*
X151364751Y-109195499D01*
X151379568Y-109192552D01*
X151423229Y-109183868D01*
X151423229Y-109183867D01*
X151423231Y-109183867D01*
X151489552Y-109139552D01*
X151533867Y-109073231D01*
X151533867Y-109073229D01*
X151533868Y-109073229D01*
X151545499Y-109014752D01*
X151545500Y-109014750D01*
X151545500Y-108094999D01*
X151879785Y-108094999D01*
X151879785Y-108095000D01*
X151898602Y-108298082D01*
X151954417Y-108494247D01*
X151954422Y-108494260D01*
X152045327Y-108676821D01*
X152168237Y-108839581D01*
X152318958Y-108976980D01*
X152318960Y-108976982D01*
X152379955Y-109014748D01*
X152492363Y-109084348D01*
X152682544Y-109158024D01*
X152883024Y-109195500D01*
X152883026Y-109195500D01*
X153086974Y-109195500D01*
X153086976Y-109195500D01*
X153287456Y-109158024D01*
X153477637Y-109084348D01*
X153651041Y-108976981D01*
X153801764Y-108839579D01*
X153924673Y-108676821D01*
X154015582Y-108494250D01*
X154071397Y-108298083D01*
X154090215Y-108095000D01*
X154089178Y-108083814D01*
X154071397Y-107891917D01*
X154020641Y-107713532D01*
X154015582Y-107695750D01*
X154008749Y-107682028D01*
X153937892Y-107539727D01*
X153924673Y-107513179D01*
X153801764Y-107350421D01*
X153801762Y-107350418D01*
X153651041Y-107213019D01*
X153651039Y-107213017D01*
X153477642Y-107105655D01*
X153477635Y-107105651D01*
X153335135Y-107050447D01*
X153287456Y-107031976D01*
X153086976Y-106994500D01*
X152883024Y-106994500D01*
X152682544Y-107031976D01*
X152682541Y-107031976D01*
X152682541Y-107031977D01*
X152492364Y-107105651D01*
X152492357Y-107105655D01*
X152318960Y-107213017D01*
X152318958Y-107213019D01*
X152168237Y-107350418D01*
X152045327Y-107513178D01*
X151954422Y-107695739D01*
X151954417Y-107695752D01*
X151898602Y-107891917D01*
X151879785Y-108094999D01*
X151545500Y-108094999D01*
X151545500Y-107175249D01*
X151545499Y-107175247D01*
X151533868Y-107116770D01*
X151533867Y-107116769D01*
X151489552Y-107050447D01*
X151423230Y-107006132D01*
X151423229Y-107006131D01*
X151364752Y-106994500D01*
X151364748Y-106994500D01*
X151169500Y-106994500D01*
X151102461Y-106974815D01*
X151056706Y-106922011D01*
X151045500Y-106870500D01*
X151045500Y-106335247D01*
X158719500Y-106335247D01*
X158719500Y-107974752D01*
X158731131Y-108033229D01*
X158731132Y-108033230D01*
X158775447Y-108099552D01*
X158841769Y-108143867D01*
X158841770Y-108143868D01*
X158900247Y-108155499D01*
X158900250Y-108155500D01*
X158900252Y-108155500D01*
X160539750Y-108155500D01*
X160539751Y-108155499D01*
X160554568Y-108152552D01*
X160598229Y-108143868D01*
X160598229Y-108143867D01*
X160598231Y-108143867D01*
X160664552Y-108099552D01*
X160708867Y-108033231D01*
X160708867Y-108033229D01*
X160708868Y-108033229D01*
X160720499Y-107974752D01*
X160720500Y-107974750D01*
X160720500Y-106335249D01*
X160720499Y-106335247D01*
X160708868Y-106276770D01*
X160708867Y-106276769D01*
X160664552Y-106210447D01*
X160598230Y-106166132D01*
X160598229Y-106166131D01*
X160539752Y-106154500D01*
X160539748Y-106154500D01*
X158900252Y-106154500D01*
X158900247Y-106154500D01*
X158841770Y-106166131D01*
X158841769Y-106166132D01*
X158775447Y-106210447D01*
X158731132Y-106276769D01*
X158731131Y-106276770D01*
X158719500Y-106335247D01*
X151045500Y-106335247D01*
X151045500Y-104615000D01*
X158714659Y-104615000D01*
X158733975Y-104811129D01*
X158750317Y-104865000D01*
X158765326Y-104914480D01*
X158791188Y-104999733D01*
X158884086Y-105173532D01*
X158884090Y-105173539D01*
X159009116Y-105325883D01*
X159161460Y-105450909D01*
X159161467Y-105450913D01*
X159335266Y-105543811D01*
X159335269Y-105543811D01*
X159335273Y-105543814D01*
X159523868Y-105601024D01*
X159720000Y-105620341D01*
X159916132Y-105601024D01*
X160104727Y-105543814D01*
X160278538Y-105450910D01*
X160430883Y-105325883D01*
X160555910Y-105173538D01*
X160615893Y-105061317D01*
X160648811Y-104999733D01*
X160648811Y-104999732D01*
X160648814Y-104999727D01*
X160706024Y-104811132D01*
X160725341Y-104615000D01*
X160706024Y-104418868D01*
X160648814Y-104230273D01*
X160648811Y-104230269D01*
X160648811Y-104230266D01*
X160555913Y-104056467D01*
X160555909Y-104056460D01*
X160430883Y-103904116D01*
X160278539Y-103779090D01*
X160278532Y-103779086D01*
X160104733Y-103686188D01*
X160104727Y-103686186D01*
X159916528Y-103629096D01*
X159916129Y-103628975D01*
X159720000Y-103609659D01*
X159523870Y-103628975D01*
X159335266Y-103686188D01*
X159161467Y-103779086D01*
X159161460Y-103779090D01*
X159009116Y-103904116D01*
X158884090Y-104056460D01*
X158884086Y-104056467D01*
X158791188Y-104230266D01*
X158733975Y-104418870D01*
X158714659Y-104615000D01*
X151045500Y-104615000D01*
X151045500Y-95319500D01*
X151065185Y-95252461D01*
X151117989Y-95206706D01*
X151169500Y-95195500D01*
X151364750Y-95195500D01*
X151364751Y-95195499D01*
X151379568Y-95192552D01*
X151423229Y-95183868D01*
X151423229Y-95183867D01*
X151423231Y-95183867D01*
X151489552Y-95139552D01*
X151533867Y-95073231D01*
X151533867Y-95073229D01*
X151533868Y-95073229D01*
X151543674Y-95023926D01*
X151545500Y-95014748D01*
X151545500Y-93895097D01*
X151565185Y-93828058D01*
X151581819Y-93807416D01*
X151720576Y-93668659D01*
X151781899Y-93635174D01*
X151851591Y-93640158D01*
X151907524Y-93682030D01*
X151931941Y-93747494D01*
X151927523Y-93790274D01*
X151898603Y-93891915D01*
X151898602Y-93891917D01*
X151879785Y-94094999D01*
X151879785Y-94095000D01*
X151898602Y-94298082D01*
X151954417Y-94494247D01*
X151954422Y-94494260D01*
X152045327Y-94676821D01*
X152168237Y-94839581D01*
X152318958Y-94976980D01*
X152318960Y-94976982D01*
X152394768Y-95023920D01*
X152492363Y-95084348D01*
X152682544Y-95158024D01*
X152883024Y-95195500D01*
X152883026Y-95195500D01*
X153086974Y-95195500D01*
X153086976Y-95195500D01*
X153287456Y-95158024D01*
X153477637Y-95084348D01*
X153651041Y-94976981D01*
X153801764Y-94839579D01*
X153924673Y-94676821D01*
X154015582Y-94494250D01*
X154026750Y-94455000D01*
X158714659Y-94455000D01*
X158733975Y-94651129D01*
X158791188Y-94839733D01*
X158884086Y-95013532D01*
X158884090Y-95013539D01*
X159009116Y-95165883D01*
X159161460Y-95290909D01*
X159161467Y-95290913D01*
X159335266Y-95383811D01*
X159335269Y-95383811D01*
X159335273Y-95383814D01*
X159523868Y-95441024D01*
X159720000Y-95460341D01*
X159916132Y-95441024D01*
X160104727Y-95383814D01*
X160278538Y-95290910D01*
X160430883Y-95165883D01*
X160555910Y-95013538D01*
X160608324Y-94915478D01*
X160648811Y-94839733D01*
X160648811Y-94839732D01*
X160648814Y-94839727D01*
X160706024Y-94651132D01*
X160725341Y-94455000D01*
X160706024Y-94258868D01*
X160648814Y-94070273D01*
X160648811Y-94070269D01*
X160648811Y-94070266D01*
X160555913Y-93896467D01*
X160555909Y-93896460D01*
X160430883Y-93744116D01*
X160278539Y-93619090D01*
X160278532Y-93619086D01*
X160104733Y-93526188D01*
X160104727Y-93526186D01*
X159963332Y-93483294D01*
X159916129Y-93468975D01*
X159720000Y-93449659D01*
X159523870Y-93468975D01*
X159335266Y-93526188D01*
X159161467Y-93619086D01*
X159161460Y-93619090D01*
X159009116Y-93744116D01*
X158884090Y-93896460D01*
X158884086Y-93896467D01*
X158791188Y-94070266D01*
X158733975Y-94258870D01*
X158714659Y-94455000D01*
X154026750Y-94455000D01*
X154071397Y-94298083D01*
X154090215Y-94095000D01*
X154086999Y-94060298D01*
X154071397Y-93891917D01*
X154053227Y-93828058D01*
X154015582Y-93695750D01*
X154008750Y-93682030D01*
X153948451Y-93560932D01*
X153924673Y-93513179D01*
X153801764Y-93350421D01*
X153801762Y-93350418D01*
X153651041Y-93213019D01*
X153651039Y-93213017D01*
X153477642Y-93105655D01*
X153477635Y-93105651D01*
X153335135Y-93050447D01*
X153287456Y-93031976D01*
X153086976Y-92994500D01*
X152883024Y-92994500D01*
X152682544Y-93031976D01*
X152682541Y-93031976D01*
X152682541Y-93031977D01*
X152492364Y-93105651D01*
X152492357Y-93105655D01*
X152318962Y-93213016D01*
X152253039Y-93273113D01*
X152190234Y-93303729D01*
X152120847Y-93295531D01*
X152066908Y-93251121D01*
X152045540Y-93184599D01*
X152045501Y-93181475D01*
X152045501Y-93008347D01*
X152045500Y-93008329D01*
X152045500Y-91915000D01*
X158714659Y-91915000D01*
X158733975Y-92111129D01*
X158791188Y-92299733D01*
X158884086Y-92473532D01*
X158884090Y-92473539D01*
X159009116Y-92625883D01*
X159161460Y-92750909D01*
X159161467Y-92750913D01*
X159335266Y-92843811D01*
X159335269Y-92843811D01*
X159335273Y-92843814D01*
X159523868Y-92901024D01*
X159720000Y-92920341D01*
X159916132Y-92901024D01*
X160016490Y-92870579D01*
X160086355Y-92869955D01*
X160140166Y-92901559D01*
X162079519Y-94840912D01*
X162079520Y-94840913D01*
X162154087Y-94915480D01*
X162245413Y-94968207D01*
X162347273Y-94995500D01*
X163071853Y-94995500D01*
X163138892Y-95015185D01*
X163184647Y-95067989D01*
X163195311Y-95107921D01*
X163197353Y-95129699D01*
X163197353Y-95129701D01*
X163228049Y-95217422D01*
X163242207Y-95257882D01*
X163322850Y-95367150D01*
X163432118Y-95447793D01*
X163467978Y-95460341D01*
X163560299Y-95492646D01*
X163590730Y-95495500D01*
X164158035Y-95495500D01*
X164225074Y-95515185D01*
X164270829Y-95567989D01*
X164280773Y-95637147D01*
X164251748Y-95700703D01*
X164245716Y-95707181D01*
X164147013Y-95805883D01*
X164147009Y-95805889D01*
X164087701Y-95908612D01*
X164087700Y-95908617D01*
X164057000Y-96023191D01*
X164057000Y-96820500D01*
X164037315Y-96887539D01*
X163984511Y-96933294D01*
X163933000Y-96944500D01*
X163886739Y-96944500D01*
X163818608Y-96954426D01*
X163713514Y-97005803D01*
X163630803Y-97088514D01*
X163579426Y-97193608D01*
X163569500Y-97261739D01*
X163569500Y-97628260D01*
X163579426Y-97696391D01*
X163630803Y-97801485D01*
X163713514Y-97884196D01*
X163713515Y-97884196D01*
X163713517Y-97884198D01*
X163818607Y-97935573D01*
X163852673Y-97940536D01*
X163886739Y-97945500D01*
X163886740Y-97945500D01*
X165128261Y-97945500D01*
X165150971Y-97942191D01*
X165196393Y-97935573D01*
X165301483Y-97884198D01*
X165384198Y-97801483D01*
X165435573Y-97696393D01*
X165445500Y-97628260D01*
X165445500Y-97261740D01*
X165435573Y-97193607D01*
X165384198Y-97088517D01*
X165384196Y-97088515D01*
X165384196Y-97088514D01*
X165301485Y-97005803D01*
X165196391Y-96954426D01*
X165128261Y-96944500D01*
X165128260Y-96944500D01*
X165082000Y-96944500D01*
X165014961Y-96924815D01*
X164969206Y-96872011D01*
X164958000Y-96820500D01*
X164958000Y-96320465D01*
X164977685Y-96253426D01*
X164994319Y-96232784D01*
X165695285Y-95531819D01*
X165756608Y-95498334D01*
X165782966Y-95495500D01*
X166399270Y-95495500D01*
X166429699Y-95492646D01*
X166429701Y-95492646D01*
X166493790Y-95470219D01*
X166557882Y-95447793D01*
X166667150Y-95367150D01*
X166747793Y-95257882D01*
X166773692Y-95183867D01*
X166792646Y-95129701D01*
X166792646Y-95129699D01*
X166795500Y-95099269D01*
X166795500Y-94090730D01*
X166792646Y-94060300D01*
X166792646Y-94060298D01*
X166747793Y-93932119D01*
X166747792Y-93932117D01*
X166667150Y-93822850D01*
X166557882Y-93742207D01*
X166557880Y-93742206D01*
X166429700Y-93697353D01*
X166399270Y-93694500D01*
X166399266Y-93694500D01*
X165590734Y-93694500D01*
X165590730Y-93694500D01*
X165560300Y-93697353D01*
X165560298Y-93697353D01*
X165432119Y-93742206D01*
X165432117Y-93742207D01*
X165322850Y-93822850D01*
X165242207Y-93932117D01*
X165242206Y-93932119D01*
X165197353Y-94060298D01*
X165197353Y-94060300D01*
X165194500Y-94090730D01*
X165194500Y-94707034D01*
X165174815Y-94774073D01*
X165158181Y-94794715D01*
X165007181Y-94945715D01*
X164945858Y-94979200D01*
X164876166Y-94974216D01*
X164820233Y-94932344D01*
X164795816Y-94866880D01*
X164795500Y-94858034D01*
X164795500Y-94090730D01*
X164792646Y-94060300D01*
X164792646Y-94060298D01*
X164747793Y-93932119D01*
X164747792Y-93932117D01*
X164667150Y-93822850D01*
X164557882Y-93742207D01*
X164557880Y-93742206D01*
X164429700Y-93697353D01*
X164399270Y-93694500D01*
X164399266Y-93694500D01*
X163590734Y-93694500D01*
X163590730Y-93694500D01*
X163560300Y-93697353D01*
X163560298Y-93697353D01*
X163432119Y-93742206D01*
X163432117Y-93742207D01*
X163322850Y-93822850D01*
X163242207Y-93932117D01*
X163242206Y-93932119D01*
X163197353Y-94060298D01*
X163197353Y-94060300D01*
X163195311Y-94082079D01*
X163169453Y-94146987D01*
X163112607Y-94187612D01*
X163071853Y-94194500D01*
X162617255Y-94194500D01*
X162550216Y-94174815D01*
X162529574Y-94158181D01*
X160706559Y-92335166D01*
X160673074Y-92273843D01*
X160675579Y-92211490D01*
X160706024Y-92111132D01*
X160725341Y-91915000D01*
X160718447Y-91845001D01*
X163272704Y-91845001D01*
X163272899Y-91847486D01*
X163318718Y-92005198D01*
X163402314Y-92146552D01*
X163402321Y-92146561D01*
X163518438Y-92262678D01*
X163518447Y-92262685D01*
X163659803Y-92346282D01*
X163659806Y-92346283D01*
X163817504Y-92392099D01*
X163817510Y-92392100D01*
X163854350Y-92394999D01*
X163854366Y-92395000D01*
X164257500Y-92395000D01*
X164757500Y-92395000D01*
X165160634Y-92395000D01*
X165160649Y-92394999D01*
X165197489Y-92392100D01*
X165197495Y-92392099D01*
X165355193Y-92346283D01*
X165355196Y-92346282D01*
X165496552Y-92262685D01*
X165496561Y-92262678D01*
X165612678Y-92146561D01*
X165612685Y-92146552D01*
X165696281Y-92005198D01*
X165742100Y-91847486D01*
X165742295Y-91845001D01*
X165742295Y-91845000D01*
X164757500Y-91845000D01*
X164757500Y-92395000D01*
X164257500Y-92395000D01*
X164257500Y-91845000D01*
X163272705Y-91845000D01*
X163272704Y-91845001D01*
X160718447Y-91845001D01*
X160706024Y-91718868D01*
X160648814Y-91530273D01*
X160648811Y-91530269D01*
X160648811Y-91530266D01*
X160555913Y-91356467D01*
X160555909Y-91356460D01*
X160546502Y-91344998D01*
X163272704Y-91344998D01*
X163272705Y-91345000D01*
X164257500Y-91345000D01*
X164257500Y-90795000D01*
X163854350Y-90795000D01*
X163817510Y-90797899D01*
X163817504Y-90797900D01*
X163659806Y-90843716D01*
X163659803Y-90843717D01*
X163518447Y-90927314D01*
X163518438Y-90927321D01*
X163402321Y-91043438D01*
X163402314Y-91043447D01*
X163318718Y-91184801D01*
X163272899Y-91342513D01*
X163272704Y-91344998D01*
X160546502Y-91344998D01*
X160430883Y-91204116D01*
X160278539Y-91079090D01*
X160278532Y-91079086D01*
X160104733Y-90986188D01*
X160104727Y-90986186D01*
X159916132Y-90928976D01*
X159916129Y-90928975D01*
X159720000Y-90909659D01*
X159523870Y-90928975D01*
X159335266Y-90986188D01*
X159161467Y-91079086D01*
X159161460Y-91079090D01*
X159009116Y-91204116D01*
X158884090Y-91356460D01*
X158884086Y-91356467D01*
X158791188Y-91530266D01*
X158733975Y-91718870D01*
X158714659Y-91915000D01*
X152045500Y-91915000D01*
X152045500Y-89375000D01*
X158714659Y-89375000D01*
X158733975Y-89571129D01*
X158791188Y-89759733D01*
X158884086Y-89933532D01*
X158884090Y-89933539D01*
X159009116Y-90085883D01*
X159161460Y-90210909D01*
X159161467Y-90210913D01*
X159335266Y-90303811D01*
X159335269Y-90303811D01*
X159335273Y-90303814D01*
X159523868Y-90361024D01*
X159720000Y-90380341D01*
X159916132Y-90361024D01*
X160104727Y-90303814D01*
X160133352Y-90288514D01*
X160245536Y-90228550D01*
X160278538Y-90210910D01*
X160430883Y-90085883D01*
X160555910Y-89933538D01*
X160648814Y-89759727D01*
X160706024Y-89571132D01*
X160725341Y-89375000D01*
X160706024Y-89178868D01*
X160675580Y-89078509D01*
X160674956Y-89008642D01*
X160706557Y-88954834D01*
X162379574Y-87281819D01*
X162440897Y-87248334D01*
X162467255Y-87245500D01*
X163071853Y-87245500D01*
X163138892Y-87265185D01*
X163184647Y-87317989D01*
X163195311Y-87357921D01*
X163197353Y-87379699D01*
X163197353Y-87379701D01*
X163242206Y-87507880D01*
X163242207Y-87507882D01*
X163322850Y-87617150D01*
X163432118Y-87697793D01*
X163466221Y-87709726D01*
X163560299Y-87742646D01*
X163590730Y-87745500D01*
X164158035Y-87745500D01*
X164225074Y-87765185D01*
X164270829Y-87817989D01*
X164280773Y-87887147D01*
X164251748Y-87950703D01*
X164245716Y-87957181D01*
X164147013Y-88055883D01*
X164147009Y-88055889D01*
X164087701Y-88158612D01*
X164087700Y-88158617D01*
X164057000Y-88273191D01*
X164057000Y-89070500D01*
X164037315Y-89137539D01*
X163984511Y-89183294D01*
X163933000Y-89194500D01*
X163886739Y-89194500D01*
X163818608Y-89204426D01*
X163713514Y-89255803D01*
X163630803Y-89338514D01*
X163579426Y-89443608D01*
X163569500Y-89511739D01*
X163569500Y-89878260D01*
X163579426Y-89946391D01*
X163630803Y-90051485D01*
X163713514Y-90134196D01*
X163713515Y-90134196D01*
X163713517Y-90134198D01*
X163818607Y-90185573D01*
X163852673Y-90190536D01*
X163886739Y-90195500D01*
X163886740Y-90195500D01*
X165128261Y-90195500D01*
X165150971Y-90192191D01*
X165196393Y-90185573D01*
X165301483Y-90134198D01*
X165384198Y-90051483D01*
X165435573Y-89946393D01*
X165445500Y-89878260D01*
X165445500Y-89511740D01*
X165435573Y-89443607D01*
X165384198Y-89338517D01*
X165384196Y-89338515D01*
X165384196Y-89338514D01*
X165301485Y-89255803D01*
X165196391Y-89204426D01*
X165128261Y-89194500D01*
X165128260Y-89194500D01*
X165082000Y-89194500D01*
X165014961Y-89174815D01*
X164969206Y-89122011D01*
X164958000Y-89070500D01*
X164958000Y-88570465D01*
X164977685Y-88503426D01*
X164994319Y-88482784D01*
X165695285Y-87781819D01*
X165756608Y-87748334D01*
X165782966Y-87745500D01*
X166399270Y-87745500D01*
X166429699Y-87742646D01*
X166429701Y-87742646D01*
X166493790Y-87720219D01*
X166557882Y-87697793D01*
X166667150Y-87617150D01*
X166747793Y-87507882D01*
X166770219Y-87443790D01*
X166792646Y-87379701D01*
X166792646Y-87379699D01*
X166795500Y-87349269D01*
X166795500Y-86340730D01*
X166792646Y-86310300D01*
X166792646Y-86310298D01*
X166759006Y-86214163D01*
X166747793Y-86182118D01*
X166667150Y-86072850D01*
X166557882Y-85992207D01*
X166557880Y-85992206D01*
X166429700Y-85947353D01*
X166399270Y-85944500D01*
X166399266Y-85944500D01*
X165590734Y-85944500D01*
X165590730Y-85944500D01*
X165560300Y-85947353D01*
X165560298Y-85947353D01*
X165432119Y-85992206D01*
X165432117Y-85992207D01*
X165322850Y-86072850D01*
X165242207Y-86182117D01*
X165242206Y-86182119D01*
X165197353Y-86310298D01*
X165197353Y-86310300D01*
X165194500Y-86340730D01*
X165194500Y-86957034D01*
X165174815Y-87024073D01*
X165158181Y-87044715D01*
X165007181Y-87195715D01*
X164945858Y-87229200D01*
X164876166Y-87224216D01*
X164820233Y-87182344D01*
X164795816Y-87116880D01*
X164795500Y-87108034D01*
X164795500Y-86340730D01*
X164792646Y-86310300D01*
X164792646Y-86310298D01*
X164759006Y-86214163D01*
X164747793Y-86182118D01*
X164667150Y-86072850D01*
X164557882Y-85992207D01*
X164557880Y-85992206D01*
X164429700Y-85947353D01*
X164399270Y-85944500D01*
X164399266Y-85944500D01*
X163590734Y-85944500D01*
X163590730Y-85944500D01*
X163560300Y-85947353D01*
X163560298Y-85947353D01*
X163432119Y-85992206D01*
X163432117Y-85992207D01*
X163322850Y-86072850D01*
X163242207Y-86182117D01*
X163242206Y-86182119D01*
X163197353Y-86310298D01*
X163197353Y-86310300D01*
X163195311Y-86332079D01*
X163169453Y-86396987D01*
X163112607Y-86437612D01*
X163071853Y-86444500D01*
X162197273Y-86444500D01*
X162095410Y-86471793D01*
X162073620Y-86484375D01*
X162071672Y-86485500D01*
X162037879Y-86505010D01*
X162004088Y-86524519D01*
X162004085Y-86524521D01*
X160140166Y-88388439D01*
X160078843Y-88421924D01*
X160016490Y-88419419D01*
X159916130Y-88388975D01*
X159720000Y-88369659D01*
X159523870Y-88388975D01*
X159335266Y-88446188D01*
X159161467Y-88539086D01*
X159161460Y-88539090D01*
X159009116Y-88664116D01*
X158884090Y-88816460D01*
X158884086Y-88816467D01*
X158791188Y-88990266D01*
X158733975Y-89178870D01*
X158714659Y-89375000D01*
X152045500Y-89375000D01*
X152045500Y-86835000D01*
X158714659Y-86835000D01*
X158733975Y-87031129D01*
X158733976Y-87031132D01*
X158774043Y-87163216D01*
X158791188Y-87219733D01*
X158884086Y-87393532D01*
X158884090Y-87393539D01*
X159009116Y-87545883D01*
X159161460Y-87670909D01*
X159161467Y-87670913D01*
X159335266Y-87763811D01*
X159335269Y-87763811D01*
X159335273Y-87763814D01*
X159523868Y-87821024D01*
X159720000Y-87840341D01*
X159916132Y-87821024D01*
X160104727Y-87763814D01*
X160104909Y-87763717D01*
X160245536Y-87688550D01*
X160278538Y-87670910D01*
X160430883Y-87545883D01*
X160555910Y-87393538D01*
X160648814Y-87219727D01*
X160706024Y-87031132D01*
X160725341Y-86835000D01*
X160706024Y-86638868D01*
X160675580Y-86538509D01*
X160674956Y-86468642D01*
X160706557Y-86414834D01*
X161765480Y-85355913D01*
X161773355Y-85342273D01*
X161818207Y-85264587D01*
X161845500Y-85162727D01*
X161845500Y-83745001D01*
X163272704Y-83745001D01*
X163272899Y-83747486D01*
X163318718Y-83905198D01*
X163402314Y-84046552D01*
X163402321Y-84046561D01*
X163518438Y-84162678D01*
X163518447Y-84162685D01*
X163659803Y-84246282D01*
X163659806Y-84246283D01*
X163817504Y-84292099D01*
X163817510Y-84292100D01*
X163854350Y-84294999D01*
X163854366Y-84295000D01*
X164257500Y-84295000D01*
X164757500Y-84295000D01*
X165160634Y-84295000D01*
X165160649Y-84294999D01*
X165197489Y-84292100D01*
X165197495Y-84292099D01*
X165355193Y-84246283D01*
X165355196Y-84246282D01*
X165496552Y-84162685D01*
X165496561Y-84162678D01*
X165612678Y-84046561D01*
X165612685Y-84046552D01*
X165696281Y-83905198D01*
X165742100Y-83747486D01*
X165742295Y-83745001D01*
X165742295Y-83745000D01*
X164757500Y-83745000D01*
X164757500Y-84295000D01*
X164257500Y-84295000D01*
X164257500Y-83745000D01*
X163272705Y-83745000D01*
X163272704Y-83745001D01*
X161845500Y-83745001D01*
X161845500Y-83244998D01*
X163272704Y-83244998D01*
X163272705Y-83245000D01*
X164257500Y-83245000D01*
X164257500Y-82695000D01*
X163854350Y-82695000D01*
X163817510Y-82697899D01*
X163817504Y-82697900D01*
X163659806Y-82743716D01*
X163659803Y-82743717D01*
X163518447Y-82827314D01*
X163518438Y-82827321D01*
X163402321Y-82943438D01*
X163402314Y-82943447D01*
X163318718Y-83084801D01*
X163272899Y-83242513D01*
X163272704Y-83244998D01*
X161845500Y-83244998D01*
X161845500Y-81612254D01*
X161865185Y-81545215D01*
X161881819Y-81524573D01*
X163874573Y-79531819D01*
X163935896Y-79498334D01*
X163962254Y-79495500D01*
X164158035Y-79495500D01*
X164225074Y-79515185D01*
X164270829Y-79567989D01*
X164280773Y-79637147D01*
X164251748Y-79700703D01*
X164245716Y-79707181D01*
X164147013Y-79805883D01*
X164147009Y-79805889D01*
X164087701Y-79908612D01*
X164087700Y-79908617D01*
X164057000Y-80023191D01*
X164057000Y-80970500D01*
X164037315Y-81037539D01*
X163984511Y-81083294D01*
X163933000Y-81094500D01*
X163886739Y-81094500D01*
X163818608Y-81104426D01*
X163713514Y-81155803D01*
X163630803Y-81238514D01*
X163579426Y-81343608D01*
X163569500Y-81411739D01*
X163569500Y-81778260D01*
X163579426Y-81846391D01*
X163630803Y-81951485D01*
X163713514Y-82034196D01*
X163713515Y-82034196D01*
X163713517Y-82034198D01*
X163818607Y-82085573D01*
X163852673Y-82090536D01*
X163886739Y-82095500D01*
X163886740Y-82095500D01*
X165128261Y-82095500D01*
X165150971Y-82092191D01*
X165196393Y-82085573D01*
X165301483Y-82034198D01*
X165384198Y-81951483D01*
X165435573Y-81846393D01*
X165445500Y-81778260D01*
X165445500Y-81411740D01*
X165435573Y-81343607D01*
X165384198Y-81238517D01*
X165384196Y-81238515D01*
X165384196Y-81238514D01*
X165301485Y-81155803D01*
X165196391Y-81104426D01*
X165128261Y-81094500D01*
X165128260Y-81094500D01*
X165082000Y-81094500D01*
X165014961Y-81074815D01*
X164969206Y-81022011D01*
X164958000Y-80970500D01*
X164958000Y-80320465D01*
X164977685Y-80253426D01*
X164994319Y-80232784D01*
X165695285Y-79531819D01*
X165756608Y-79498334D01*
X165782966Y-79495500D01*
X166399270Y-79495500D01*
X166429699Y-79492646D01*
X166429701Y-79492646D01*
X166493790Y-79470219D01*
X166557882Y-79447793D01*
X166667150Y-79367150D01*
X166747793Y-79257882D01*
X166770219Y-79193790D01*
X166792646Y-79129701D01*
X166792646Y-79129699D01*
X166795500Y-79099269D01*
X166795500Y-78090730D01*
X166792646Y-78060300D01*
X166792646Y-78060298D01*
X166747793Y-77932119D01*
X166747792Y-77932117D01*
X166667150Y-77822850D01*
X166557882Y-77742207D01*
X166557880Y-77742206D01*
X166429700Y-77697353D01*
X166399270Y-77694500D01*
X166399266Y-77694500D01*
X165590734Y-77694500D01*
X165590730Y-77694500D01*
X165560300Y-77697353D01*
X165560298Y-77697353D01*
X165432119Y-77742206D01*
X165432117Y-77742207D01*
X165322850Y-77822850D01*
X165242207Y-77932117D01*
X165242206Y-77932119D01*
X165197353Y-78060298D01*
X165197353Y-78060300D01*
X165194500Y-78090730D01*
X165194500Y-78707034D01*
X165174815Y-78774073D01*
X165158181Y-78794715D01*
X165007181Y-78945715D01*
X164945858Y-78979200D01*
X164876166Y-78974216D01*
X164820233Y-78932344D01*
X164795816Y-78866880D01*
X164795500Y-78858034D01*
X164795500Y-78090730D01*
X164792646Y-78060300D01*
X164792646Y-78060298D01*
X164747793Y-77932119D01*
X164747792Y-77932117D01*
X164667150Y-77822850D01*
X164557882Y-77742207D01*
X164557880Y-77742206D01*
X164429700Y-77697353D01*
X164399270Y-77694500D01*
X164399266Y-77694500D01*
X163590734Y-77694500D01*
X163590730Y-77694500D01*
X163560300Y-77697353D01*
X163560298Y-77697353D01*
X163432119Y-77742206D01*
X163432117Y-77742207D01*
X163322850Y-77822850D01*
X163242207Y-77932117D01*
X163242206Y-77932119D01*
X163197353Y-78060298D01*
X163197353Y-78060300D01*
X163194500Y-78090730D01*
X163194500Y-79027745D01*
X163174815Y-79094784D01*
X163158181Y-79115426D01*
X161124522Y-81149084D01*
X161124518Y-81149090D01*
X161071792Y-81240412D01*
X161071793Y-81240413D01*
X161044500Y-81342273D01*
X161044500Y-84892744D01*
X161024815Y-84959783D01*
X161008181Y-84980425D01*
X160140166Y-85848439D01*
X160078843Y-85881924D01*
X160016490Y-85879419D01*
X159916130Y-85848975D01*
X159720000Y-85829659D01*
X159523870Y-85848975D01*
X159335266Y-85906188D01*
X159161467Y-85999086D01*
X159161460Y-85999090D01*
X159009116Y-86124116D01*
X158884090Y-86276460D01*
X158884086Y-86276467D01*
X158791188Y-86450266D01*
X158733975Y-86638870D01*
X158714659Y-86835000D01*
X152045500Y-86835000D01*
X152045500Y-84295000D01*
X158714659Y-84295000D01*
X158733975Y-84491129D01*
X158791188Y-84679733D01*
X158884086Y-84853532D01*
X158884090Y-84853539D01*
X159009116Y-85005883D01*
X159161460Y-85130909D01*
X159161467Y-85130913D01*
X159335266Y-85223811D01*
X159335269Y-85223811D01*
X159335273Y-85223814D01*
X159523868Y-85281024D01*
X159720000Y-85300341D01*
X159916132Y-85281024D01*
X160104727Y-85223814D01*
X160278538Y-85130910D01*
X160430883Y-85005883D01*
X160555910Y-84853538D01*
X160616358Y-84740448D01*
X160648811Y-84679733D01*
X160648811Y-84679732D01*
X160648814Y-84679727D01*
X160706024Y-84491132D01*
X160725341Y-84295000D01*
X160706024Y-84098868D01*
X160648814Y-83910273D01*
X160648811Y-83910269D01*
X160648811Y-83910266D01*
X160555913Y-83736467D01*
X160555909Y-83736460D01*
X160430883Y-83584116D01*
X160278539Y-83459090D01*
X160278532Y-83459086D01*
X160104733Y-83366188D01*
X160104727Y-83366186D01*
X159916132Y-83308976D01*
X159916129Y-83308975D01*
X159720000Y-83289659D01*
X159523870Y-83308975D01*
X159335266Y-83366188D01*
X159161467Y-83459086D01*
X159161460Y-83459090D01*
X159009116Y-83584116D01*
X158884090Y-83736460D01*
X158884086Y-83736467D01*
X158791188Y-83910266D01*
X158733975Y-84098870D01*
X158714659Y-84295000D01*
X152045500Y-84295000D01*
X152045500Y-82884060D01*
X152045501Y-82884047D01*
X152045501Y-82715944D01*
X152015642Y-82604510D01*
X152004577Y-82563216D01*
X151972466Y-82507597D01*
X151925524Y-82426290D01*
X151925518Y-82426282D01*
X151254236Y-81755000D01*
X158714659Y-81755000D01*
X158733975Y-81951129D01*
X158733976Y-81951131D01*
X158733976Y-81951132D01*
X158790403Y-82137147D01*
X158791188Y-82139733D01*
X158884086Y-82313532D01*
X158884090Y-82313539D01*
X159009116Y-82465883D01*
X159161460Y-82590909D01*
X159161467Y-82590913D01*
X159335266Y-82683811D01*
X159335269Y-82683811D01*
X159335273Y-82683814D01*
X159523868Y-82741024D01*
X159720000Y-82760341D01*
X159916132Y-82741024D01*
X160104727Y-82683814D01*
X160278538Y-82590910D01*
X160430883Y-82465883D01*
X160555910Y-82313538D01*
X160622737Y-82188514D01*
X160648811Y-82139733D01*
X160648811Y-82139732D01*
X160648814Y-82139727D01*
X160706024Y-81951132D01*
X160725341Y-81755000D01*
X160706024Y-81558868D01*
X160648814Y-81370273D01*
X160648811Y-81370269D01*
X160648811Y-81370266D01*
X160555913Y-81196467D01*
X160555909Y-81196460D01*
X160430883Y-81044116D01*
X160278539Y-80919090D01*
X160278532Y-80919086D01*
X160104733Y-80826188D01*
X160104727Y-80826186D01*
X159963332Y-80783294D01*
X159916129Y-80768975D01*
X159720000Y-80749659D01*
X159523870Y-80768975D01*
X159335266Y-80826188D01*
X159161467Y-80919086D01*
X159161460Y-80919090D01*
X159009116Y-81044116D01*
X158884090Y-81196460D01*
X158884086Y-81196467D01*
X158791188Y-81370266D01*
X158733975Y-81558870D01*
X158714659Y-81755000D01*
X151254236Y-81755000D01*
X151081819Y-81582583D01*
X151048334Y-81521260D01*
X151045500Y-81494902D01*
X151045500Y-81319500D01*
X151065185Y-81252461D01*
X151117989Y-81206706D01*
X151169500Y-81195500D01*
X151364750Y-81195500D01*
X151364751Y-81195499D01*
X151379568Y-81192552D01*
X151423229Y-81183868D01*
X151423229Y-81183867D01*
X151423231Y-81183867D01*
X151489552Y-81139552D01*
X151533867Y-81073231D01*
X151533867Y-81073229D01*
X151533868Y-81073229D01*
X151545499Y-81014752D01*
X151545500Y-81014750D01*
X151545500Y-80094999D01*
X151879785Y-80094999D01*
X151879785Y-80095000D01*
X151898602Y-80298082D01*
X151954417Y-80494247D01*
X151954422Y-80494260D01*
X152045327Y-80676821D01*
X152168237Y-80839581D01*
X152318958Y-80976980D01*
X152318960Y-80976982D01*
X152349829Y-80996095D01*
X152492363Y-81084348D01*
X152682544Y-81158024D01*
X152883024Y-81195500D01*
X152883026Y-81195500D01*
X153086974Y-81195500D01*
X153086976Y-81195500D01*
X153287456Y-81158024D01*
X153477637Y-81084348D01*
X153651041Y-80976981D01*
X153801764Y-80839579D01*
X153924673Y-80676821D01*
X154015582Y-80494250D01*
X154071397Y-80298083D01*
X154090215Y-80095000D01*
X154086129Y-80050909D01*
X154071397Y-79891917D01*
X154059034Y-79848465D01*
X154015582Y-79695750D01*
X153986401Y-79637147D01*
X153971272Y-79606764D01*
X153924673Y-79513179D01*
X153847609Y-79411129D01*
X153801762Y-79350418D01*
X153653214Y-79215000D01*
X158714659Y-79215000D01*
X158733975Y-79411129D01*
X158733976Y-79411132D01*
X158764931Y-79513178D01*
X158791188Y-79599733D01*
X158884086Y-79773532D01*
X158884090Y-79773539D01*
X159009116Y-79925883D01*
X159161460Y-80050909D01*
X159161467Y-80050913D01*
X159335266Y-80143811D01*
X159335269Y-80143811D01*
X159335273Y-80143814D01*
X159523868Y-80201024D01*
X159720000Y-80220341D01*
X159916132Y-80201024D01*
X160104727Y-80143814D01*
X160278538Y-80050910D01*
X160430883Y-79925883D01*
X160555910Y-79773538D01*
X160648814Y-79599727D01*
X160706024Y-79411132D01*
X160725341Y-79215000D01*
X160706024Y-79018868D01*
X160648814Y-78830273D01*
X160648811Y-78830269D01*
X160648811Y-78830266D01*
X160555913Y-78656467D01*
X160555909Y-78656460D01*
X160430883Y-78504116D01*
X160278539Y-78379090D01*
X160278532Y-78379086D01*
X160104733Y-78286188D01*
X160104727Y-78286186D01*
X159916132Y-78228976D01*
X159916129Y-78228975D01*
X159720000Y-78209659D01*
X159523870Y-78228975D01*
X159335266Y-78286188D01*
X159161467Y-78379086D01*
X159161460Y-78379090D01*
X159009116Y-78504116D01*
X158884090Y-78656460D01*
X158884086Y-78656467D01*
X158791188Y-78830266D01*
X158733975Y-79018870D01*
X158714659Y-79215000D01*
X153653214Y-79215000D01*
X153651041Y-79213019D01*
X153651039Y-79213017D01*
X153477642Y-79105655D01*
X153477635Y-79105651D01*
X153335135Y-79050447D01*
X153287456Y-79031976D01*
X153086976Y-78994500D01*
X152883024Y-78994500D01*
X152682544Y-79031976D01*
X152682541Y-79031976D01*
X152682541Y-79031977D01*
X152492364Y-79105651D01*
X152492357Y-79105655D01*
X152318960Y-79213017D01*
X152318958Y-79213019D01*
X152168237Y-79350418D01*
X152045327Y-79513178D01*
X151954422Y-79695739D01*
X151954417Y-79695752D01*
X151898602Y-79891917D01*
X151879785Y-80094999D01*
X151545500Y-80094999D01*
X151545500Y-79175249D01*
X151545499Y-79175247D01*
X151533868Y-79116770D01*
X151533867Y-79116769D01*
X151489552Y-79050447D01*
X151423230Y-79006132D01*
X151423229Y-79006131D01*
X151364752Y-78994500D01*
X151364748Y-78994500D01*
X151169500Y-78994500D01*
X151102461Y-78974815D01*
X151056706Y-78922011D01*
X151045500Y-78870500D01*
X151045500Y-76675000D01*
X158714659Y-76675000D01*
X158733975Y-76871129D01*
X158791188Y-77059733D01*
X158884086Y-77233532D01*
X158884090Y-77233539D01*
X159009116Y-77385883D01*
X159161460Y-77510909D01*
X159161467Y-77510913D01*
X159335266Y-77603811D01*
X159335269Y-77603811D01*
X159335273Y-77603814D01*
X159523868Y-77661024D01*
X159720000Y-77680341D01*
X159916132Y-77661024D01*
X160104727Y-77603814D01*
X160104793Y-77603779D01*
X160191632Y-77557362D01*
X160278538Y-77510910D01*
X160430883Y-77385883D01*
X160555910Y-77233538D01*
X160648814Y-77059727D01*
X160706024Y-76871132D01*
X160725341Y-76675000D01*
X160706024Y-76478868D01*
X160648814Y-76290273D01*
X160648811Y-76290269D01*
X160648811Y-76290266D01*
X160555913Y-76116467D01*
X160555909Y-76116460D01*
X160430883Y-75964116D01*
X160278539Y-75839090D01*
X160278532Y-75839086D01*
X160104733Y-75746188D01*
X160104727Y-75746186D01*
X159916132Y-75688976D01*
X159916129Y-75688975D01*
X159720000Y-75669659D01*
X159523870Y-75688975D01*
X159335266Y-75746188D01*
X159161467Y-75839086D01*
X159161460Y-75839090D01*
X159009116Y-75964116D01*
X158884090Y-76116460D01*
X158884086Y-76116467D01*
X158791188Y-76290266D01*
X158733975Y-76478870D01*
X158714659Y-76675000D01*
X151045500Y-76675000D01*
X151045500Y-75695097D01*
X151065185Y-75628058D01*
X151081819Y-75607416D01*
X152554235Y-74135000D01*
X158714659Y-74135000D01*
X158733975Y-74331129D01*
X158791188Y-74519733D01*
X158884086Y-74693532D01*
X158884090Y-74693539D01*
X159009116Y-74845883D01*
X159161460Y-74970909D01*
X159161467Y-74970913D01*
X159335266Y-75063811D01*
X159335269Y-75063811D01*
X159335273Y-75063814D01*
X159523868Y-75121024D01*
X159720000Y-75140341D01*
X159916132Y-75121024D01*
X160104727Y-75063814D01*
X160278538Y-74970910D01*
X160430883Y-74845883D01*
X160555910Y-74693538D01*
X160648814Y-74519727D01*
X160706024Y-74331132D01*
X160725341Y-74135000D01*
X160706024Y-73938868D01*
X160648814Y-73750273D01*
X160648811Y-73750269D01*
X160648811Y-73750266D01*
X160555913Y-73576467D01*
X160555909Y-73576460D01*
X160430883Y-73424116D01*
X160278539Y-73299090D01*
X160278532Y-73299086D01*
X160104733Y-73206188D01*
X160104727Y-73206186D01*
X159967011Y-73164410D01*
X159916129Y-73148975D01*
X159720000Y-73129659D01*
X159523870Y-73148975D01*
X159335266Y-73206188D01*
X159161467Y-73299086D01*
X159161460Y-73299090D01*
X159009116Y-73424116D01*
X158884090Y-73576460D01*
X158884086Y-73576467D01*
X158791188Y-73750266D01*
X158733975Y-73938870D01*
X158714659Y-74135000D01*
X152554235Y-74135000D01*
X155094235Y-71595000D01*
X158714659Y-71595000D01*
X158733975Y-71791129D01*
X158791188Y-71979733D01*
X158884086Y-72153532D01*
X158884090Y-72153539D01*
X159009116Y-72305883D01*
X159161460Y-72430909D01*
X159161467Y-72430913D01*
X159335266Y-72523811D01*
X159335269Y-72523811D01*
X159335273Y-72523814D01*
X159523868Y-72581024D01*
X159720000Y-72600341D01*
X159916132Y-72581024D01*
X160104727Y-72523814D01*
X160278538Y-72430910D01*
X160430883Y-72305883D01*
X160555910Y-72153538D01*
X160628653Y-72017445D01*
X160648811Y-71979733D01*
X160648811Y-71979732D01*
X160648814Y-71979727D01*
X160706024Y-71791132D01*
X160725341Y-71595000D01*
X160706024Y-71398868D01*
X160648814Y-71210273D01*
X160648811Y-71210269D01*
X160648811Y-71210266D01*
X160555913Y-71036467D01*
X160555909Y-71036460D01*
X160430883Y-70884116D01*
X160278539Y-70759090D01*
X160278532Y-70759086D01*
X160104733Y-70666188D01*
X160104727Y-70666186D01*
X159916132Y-70608976D01*
X159916129Y-70608975D01*
X159720000Y-70589659D01*
X159523870Y-70608975D01*
X159335266Y-70666188D01*
X159161467Y-70759086D01*
X159161460Y-70759090D01*
X159009116Y-70884116D01*
X158884090Y-71036460D01*
X158884086Y-71036467D01*
X158791188Y-71210266D01*
X158733975Y-71398870D01*
X158714659Y-71595000D01*
X155094235Y-71595000D01*
X156657416Y-70031819D01*
X156718739Y-69998334D01*
X156745097Y-69995500D01*
X162144903Y-69995500D01*
X162211942Y-70015185D01*
X162232584Y-70031819D01*
X167808181Y-75607416D01*
X167841666Y-75668739D01*
X167844500Y-75695097D01*
X167844500Y-80670500D01*
X167824815Y-80737539D01*
X167772011Y-80783294D01*
X167720500Y-80794500D01*
X167619170Y-80794500D01*
X167619154Y-80794499D01*
X167611558Y-80794499D01*
X167453443Y-80794499D01*
X167377079Y-80814961D01*
X167300714Y-80835423D01*
X167300709Y-80835426D01*
X167163790Y-80914475D01*
X167163782Y-80914481D01*
X166070084Y-82008181D01*
X166008761Y-82041666D01*
X165982403Y-82044500D01*
X165761739Y-82044500D01*
X165693608Y-82054426D01*
X165588514Y-82105803D01*
X165505803Y-82188514D01*
X165454426Y-82293608D01*
X165444500Y-82361739D01*
X165444500Y-82604510D01*
X165424815Y-82671549D01*
X165372011Y-82717304D01*
X165302853Y-82727248D01*
X165285905Y-82723586D01*
X165197495Y-82697900D01*
X165197489Y-82697899D01*
X165160649Y-82695000D01*
X164757500Y-82695000D01*
X164757500Y-83245000D01*
X165742295Y-83245000D01*
X165742295Y-83244998D01*
X165742100Y-83242513D01*
X165730939Y-83204095D01*
X165731139Y-83134225D01*
X165769082Y-83075555D01*
X165832720Y-83046712D01*
X165850016Y-83045500D01*
X166015165Y-83045500D01*
X166077165Y-83062113D01*
X166150711Y-83104575D01*
X166150712Y-83104576D01*
X166150714Y-83104576D01*
X166150715Y-83104577D01*
X166303443Y-83145501D01*
X166303446Y-83145501D01*
X166461554Y-83145501D01*
X166461557Y-83145501D01*
X166614285Y-83104577D01*
X166648538Y-83084801D01*
X166687835Y-83062113D01*
X166749835Y-83045500D01*
X167003261Y-83045500D01*
X167025971Y-83042191D01*
X167071393Y-83035573D01*
X167176483Y-82984198D01*
X167259198Y-82901483D01*
X167310573Y-82796393D01*
X167320500Y-82728260D01*
X167320500Y-82507597D01*
X167340185Y-82440558D01*
X167356819Y-82419916D01*
X167744917Y-82031819D01*
X167806240Y-81998334D01*
X167832598Y-81995500D01*
X168395902Y-81995500D01*
X168462941Y-82015185D01*
X168508696Y-82067989D01*
X168518640Y-82137147D01*
X168489615Y-82200703D01*
X168483583Y-82207181D01*
X167964481Y-82726282D01*
X167964480Y-82726284D01*
X167924003Y-82796393D01*
X167885423Y-82863215D01*
X167844499Y-83015943D01*
X167844499Y-83015945D01*
X167844499Y-83184046D01*
X167844500Y-83184059D01*
X167844500Y-88282403D01*
X167824815Y-88349442D01*
X167808181Y-88370084D01*
X166070084Y-90108181D01*
X166008761Y-90141666D01*
X165982403Y-90144500D01*
X165761739Y-90144500D01*
X165693608Y-90154426D01*
X165588514Y-90205803D01*
X165505803Y-90288514D01*
X165454426Y-90393608D01*
X165444500Y-90461739D01*
X165444500Y-90704510D01*
X165424815Y-90771549D01*
X165372011Y-90817304D01*
X165302853Y-90827248D01*
X165285905Y-90823586D01*
X165197495Y-90797900D01*
X165197489Y-90797899D01*
X165160649Y-90795000D01*
X164757500Y-90795000D01*
X164757500Y-91345000D01*
X165742295Y-91345000D01*
X165742295Y-91344998D01*
X165742100Y-91342513D01*
X165730939Y-91304095D01*
X165731139Y-91234225D01*
X165769082Y-91175555D01*
X165832720Y-91146712D01*
X165850016Y-91145500D01*
X165982403Y-91145500D01*
X166049442Y-91165185D01*
X166070083Y-91181818D01*
X169463784Y-94575520D01*
X169600715Y-94654577D01*
X169753443Y-94695501D01*
X169753446Y-94695501D01*
X169919154Y-94695501D01*
X169919170Y-94695500D01*
X170220500Y-94695500D01*
X170287539Y-94715185D01*
X170333294Y-94767989D01*
X170344500Y-94819500D01*
X170344500Y-95014752D01*
X170356131Y-95073229D01*
X170356132Y-95073230D01*
X170400447Y-95139552D01*
X170466769Y-95183867D01*
X170466770Y-95183868D01*
X170525247Y-95195499D01*
X170525250Y-95195500D01*
X170525252Y-95195500D01*
X172364750Y-95195500D01*
X172364751Y-95195499D01*
X172379568Y-95192552D01*
X172423229Y-95183868D01*
X172423229Y-95183867D01*
X172423231Y-95183867D01*
X172489552Y-95139552D01*
X172533867Y-95073231D01*
X172533867Y-95073229D01*
X172533868Y-95073229D01*
X172543674Y-95023926D01*
X172545500Y-95014748D01*
X172545500Y-94094999D01*
X172879785Y-94094999D01*
X172879785Y-94095000D01*
X172898602Y-94298082D01*
X172954417Y-94494247D01*
X172954422Y-94494260D01*
X173045327Y-94676821D01*
X173168237Y-94839581D01*
X173318958Y-94976980D01*
X173318960Y-94976982D01*
X173394768Y-95023920D01*
X173492363Y-95084348D01*
X173682544Y-95158024D01*
X173883024Y-95195500D01*
X173883026Y-95195500D01*
X174086974Y-95195500D01*
X174086976Y-95195500D01*
X174287456Y-95158024D01*
X174477637Y-95084348D01*
X174651041Y-94976981D01*
X174801764Y-94839579D01*
X174924673Y-94676821D01*
X175015582Y-94494250D01*
X175071397Y-94298083D01*
X175090215Y-94095000D01*
X175086999Y-94060298D01*
X175071397Y-93891917D01*
X175053227Y-93828058D01*
X175015582Y-93695750D01*
X175008750Y-93682030D01*
X174948451Y-93560932D01*
X174924673Y-93513179D01*
X174801764Y-93350421D01*
X174801762Y-93350418D01*
X174651041Y-93213019D01*
X174651039Y-93213017D01*
X174477642Y-93105655D01*
X174477635Y-93105651D01*
X174335135Y-93050447D01*
X174287456Y-93031976D01*
X174086976Y-92994500D01*
X173883024Y-92994500D01*
X173682544Y-93031976D01*
X173682541Y-93031976D01*
X173682541Y-93031977D01*
X173492364Y-93105651D01*
X173492357Y-93105655D01*
X173318960Y-93213017D01*
X173318958Y-93213019D01*
X173168237Y-93350418D01*
X173045327Y-93513178D01*
X172954422Y-93695739D01*
X172954417Y-93695752D01*
X172898602Y-93891917D01*
X172879785Y-94094999D01*
X172545500Y-94094999D01*
X172545500Y-93175252D01*
X172545500Y-93175249D01*
X172545499Y-93175247D01*
X172533868Y-93116770D01*
X172533867Y-93116769D01*
X172489552Y-93050447D01*
X172423230Y-93006132D01*
X172423229Y-93006131D01*
X172364752Y-92994500D01*
X172364748Y-92994500D01*
X170525252Y-92994500D01*
X170525247Y-92994500D01*
X170466770Y-93006131D01*
X170466769Y-93006132D01*
X170400447Y-93050447D01*
X170356132Y-93116769D01*
X170356131Y-93116770D01*
X170344500Y-93175247D01*
X170344500Y-93370500D01*
X170324815Y-93437539D01*
X170272011Y-93483294D01*
X170220500Y-93494500D01*
X170132598Y-93494500D01*
X170065559Y-93474815D01*
X170044917Y-93458181D01*
X167356819Y-90770083D01*
X167323334Y-90708760D01*
X167320500Y-90682402D01*
X167320500Y-90607596D01*
X167340185Y-90540557D01*
X167356814Y-90519920D01*
X168803506Y-89073227D01*
X168803511Y-89073224D01*
X168813714Y-89063020D01*
X168813716Y-89063020D01*
X168925520Y-88951216D01*
X169004577Y-88814284D01*
X169039563Y-88683716D01*
X169045500Y-88661558D01*
X169045500Y-88503443D01*
X169045500Y-83395097D01*
X169065185Y-83328058D01*
X169081819Y-83307416D01*
X171157417Y-81231819D01*
X171218740Y-81198334D01*
X171245098Y-81195500D01*
X172364750Y-81195500D01*
X172364751Y-81195499D01*
X172379568Y-81192552D01*
X172423229Y-81183868D01*
X172423229Y-81183867D01*
X172423231Y-81183867D01*
X172489552Y-81139552D01*
X172533867Y-81073231D01*
X172533867Y-81073229D01*
X172533868Y-81073229D01*
X172545499Y-81014752D01*
X172545500Y-81014750D01*
X172545500Y-80094999D01*
X172879785Y-80094999D01*
X172879785Y-80095000D01*
X172898602Y-80298082D01*
X172954417Y-80494247D01*
X172954422Y-80494260D01*
X173045327Y-80676821D01*
X173168237Y-80839581D01*
X173318958Y-80976980D01*
X173318960Y-80976982D01*
X173349829Y-80996095D01*
X173492363Y-81084348D01*
X173682544Y-81158024D01*
X173883024Y-81195500D01*
X173883026Y-81195500D01*
X174086974Y-81195500D01*
X174086976Y-81195500D01*
X174287456Y-81158024D01*
X174477637Y-81084348D01*
X174651041Y-80976981D01*
X174801764Y-80839579D01*
X174924673Y-80676821D01*
X175015582Y-80494250D01*
X175071397Y-80298083D01*
X175090215Y-80095000D01*
X175086129Y-80050909D01*
X175071397Y-79891917D01*
X175059034Y-79848465D01*
X175015582Y-79695750D01*
X174986401Y-79637147D01*
X174971272Y-79606764D01*
X174924673Y-79513179D01*
X174847609Y-79411129D01*
X174801762Y-79350418D01*
X174651041Y-79213019D01*
X174651039Y-79213017D01*
X174477642Y-79105655D01*
X174477635Y-79105651D01*
X174335135Y-79050447D01*
X174287456Y-79031976D01*
X174086976Y-78994500D01*
X173883024Y-78994500D01*
X173682544Y-79031976D01*
X173682541Y-79031976D01*
X173682541Y-79031977D01*
X173492364Y-79105651D01*
X173492357Y-79105655D01*
X173318960Y-79213017D01*
X173318958Y-79213019D01*
X173168237Y-79350418D01*
X173045327Y-79513178D01*
X172954422Y-79695739D01*
X172954417Y-79695752D01*
X172898602Y-79891917D01*
X172879785Y-80094999D01*
X172545500Y-80094999D01*
X172545500Y-79175249D01*
X172545499Y-79175247D01*
X172533868Y-79116770D01*
X172533867Y-79116769D01*
X172489552Y-79050447D01*
X172423230Y-79006132D01*
X172423229Y-79006131D01*
X172364752Y-78994500D01*
X172364748Y-78994500D01*
X170525252Y-78994500D01*
X170525247Y-78994500D01*
X170466770Y-79006131D01*
X170466769Y-79006132D01*
X170400447Y-79050447D01*
X170356132Y-79116769D01*
X170356131Y-79116770D01*
X170344500Y-79175247D01*
X170344500Y-80294902D01*
X170324815Y-80361941D01*
X170308181Y-80382583D01*
X169257181Y-81433583D01*
X169195858Y-81467068D01*
X169126166Y-81462084D01*
X169070233Y-81420212D01*
X169045816Y-81354748D01*
X169045500Y-81345902D01*
X169045500Y-76119500D01*
X169065185Y-76052461D01*
X169117989Y-76006706D01*
X169169500Y-75995500D01*
X177144903Y-75995500D01*
X177211942Y-76015185D01*
X177232584Y-76031819D01*
X179808181Y-78607416D01*
X179841666Y-78668739D01*
X179844500Y-78695097D01*
X179844500Y-83308330D01*
X179844499Y-83308348D01*
X179844499Y-83474056D01*
X179885421Y-83626781D01*
X179885422Y-83626783D01*
X179885423Y-83626785D01*
X179887222Y-83629901D01*
X179887227Y-83629918D01*
X179887231Y-83629916D01*
X179964477Y-83763712D01*
X179964481Y-83763717D01*
X180083349Y-83882585D01*
X180083355Y-83882590D01*
X181808181Y-85607416D01*
X181841666Y-85668739D01*
X181844500Y-85695097D01*
X181844500Y-87474057D01*
X181882842Y-87617149D01*
X181885423Y-87626783D01*
X181885426Y-87626790D01*
X181964475Y-87763709D01*
X181964479Y-87763714D01*
X181964480Y-87763716D01*
X182076284Y-87875520D01*
X182076286Y-87875521D01*
X182076290Y-87875524D01*
X182155824Y-87921442D01*
X182213216Y-87954577D01*
X182365943Y-87995500D01*
X182365945Y-87995500D01*
X182524055Y-87995500D01*
X182524057Y-87995500D01*
X182676784Y-87954577D01*
X182705130Y-87938211D01*
X182773024Y-87921739D01*
X182839052Y-87944590D01*
X182882243Y-87999510D01*
X182888887Y-88069063D01*
X182886902Y-88077692D01*
X182844499Y-88235943D01*
X182844499Y-88404046D01*
X182844500Y-88404059D01*
X182844500Y-100094903D01*
X182824815Y-100161942D01*
X182808181Y-100182584D01*
X178232584Y-104758181D01*
X178171261Y-104791666D01*
X178144903Y-104794500D01*
X174231670Y-104794500D01*
X174231654Y-104794499D01*
X174224058Y-104794499D01*
X174065943Y-104794499D01*
X173989579Y-104814961D01*
X173913214Y-104835423D01*
X173913209Y-104835426D01*
X173776290Y-104914475D01*
X173776282Y-104914481D01*
X171732584Y-106958181D01*
X171671261Y-106991666D01*
X171644903Y-106994500D01*
X170525247Y-106994500D01*
X170466770Y-107006131D01*
X170466769Y-107006132D01*
X170400447Y-107050447D01*
X170356132Y-107116769D01*
X170356131Y-107116770D01*
X170344500Y-107175247D01*
X170344500Y-107370500D01*
X170324815Y-107437539D01*
X170272011Y-107483294D01*
X170220500Y-107494500D01*
X168445097Y-107494500D01*
X168378058Y-107474815D01*
X168357416Y-107458181D01*
X167019319Y-106120084D01*
X166985834Y-106058761D01*
X166983000Y-106032403D01*
X166983000Y-99004355D01*
X167002685Y-98937316D01*
X167055489Y-98891561D01*
X167070396Y-98885881D01*
X167071391Y-98885573D01*
X167071393Y-98885573D01*
X167176483Y-98834198D01*
X167259198Y-98751483D01*
X167310573Y-98646393D01*
X167320500Y-98578260D01*
X167320500Y-98211740D01*
X167310573Y-98143607D01*
X167259198Y-98038517D01*
X167259196Y-98038515D01*
X167259196Y-98038514D01*
X167176485Y-97955803D01*
X167071391Y-97904426D01*
X167003261Y-97894500D01*
X167003260Y-97894500D01*
X166749834Y-97894500D01*
X166687834Y-97877887D01*
X166614286Y-97835424D01*
X166614285Y-97835423D01*
X166614284Y-97835423D01*
X166461557Y-97794500D01*
X166303443Y-97794500D01*
X166150716Y-97835423D01*
X166150713Y-97835424D01*
X166077166Y-97877887D01*
X166015166Y-97894500D01*
X165761739Y-97894500D01*
X165693608Y-97904426D01*
X165588514Y-97955803D01*
X165505803Y-98038514D01*
X165454426Y-98143608D01*
X165444500Y-98211739D01*
X165444500Y-98454510D01*
X165424815Y-98521549D01*
X165372011Y-98567304D01*
X165302853Y-98577248D01*
X165285905Y-98573586D01*
X165197495Y-98547900D01*
X165197489Y-98547899D01*
X165160649Y-98545000D01*
X164757500Y-98545000D01*
X164757500Y-100145000D01*
X165160634Y-100145000D01*
X165160649Y-100144999D01*
X165197489Y-100142100D01*
X165197495Y-100142099D01*
X165355193Y-100096283D01*
X165355196Y-100096282D01*
X165496552Y-100012685D01*
X165496561Y-100012678D01*
X165570319Y-99938921D01*
X165631642Y-99905436D01*
X165701334Y-99910420D01*
X165757267Y-99952292D01*
X165781684Y-100017756D01*
X165782000Y-100026602D01*
X165782000Y-105997615D01*
X165762315Y-106064654D01*
X165709511Y-106110409D01*
X165640353Y-106120353D01*
X165576797Y-106091328D01*
X165570319Y-106085296D01*
X161356819Y-101871796D01*
X161323334Y-101810473D01*
X161320500Y-101784115D01*
X161320500Y-99595001D01*
X163272704Y-99595001D01*
X163272899Y-99597486D01*
X163318718Y-99755198D01*
X163402314Y-99896552D01*
X163402321Y-99896561D01*
X163518438Y-100012678D01*
X163518447Y-100012685D01*
X163659803Y-100096282D01*
X163659806Y-100096283D01*
X163817504Y-100142099D01*
X163817510Y-100142100D01*
X163854350Y-100144999D01*
X163854366Y-100145000D01*
X164257500Y-100145000D01*
X164257500Y-99595000D01*
X163272705Y-99595000D01*
X163272704Y-99595001D01*
X161320500Y-99595001D01*
X161320500Y-99094998D01*
X163272704Y-99094998D01*
X163272705Y-99095000D01*
X164257500Y-99095000D01*
X164257500Y-98545000D01*
X163854350Y-98545000D01*
X163817510Y-98547899D01*
X163817504Y-98547900D01*
X163659806Y-98593716D01*
X163659803Y-98593717D01*
X163518447Y-98677314D01*
X163518438Y-98677321D01*
X163402321Y-98793438D01*
X163402314Y-98793447D01*
X163318718Y-98934801D01*
X163272899Y-99092513D01*
X163272704Y-99094998D01*
X161320500Y-99094998D01*
X161320500Y-98142275D01*
X161320500Y-98142273D01*
X161293207Y-98040413D01*
X161293207Y-98040412D01*
X161240480Y-97949087D01*
X160706559Y-97415166D01*
X160673074Y-97353843D01*
X160675579Y-97291490D01*
X160706024Y-97191132D01*
X160725341Y-96995000D01*
X160706024Y-96798868D01*
X160648814Y-96610273D01*
X160648811Y-96610269D01*
X160648811Y-96610266D01*
X160555913Y-96436467D01*
X160555909Y-96436460D01*
X160430883Y-96284116D01*
X160278539Y-96159090D01*
X160278532Y-96159086D01*
X160104733Y-96066188D01*
X160104727Y-96066186D01*
X159916132Y-96008976D01*
X159916129Y-96008975D01*
X159720000Y-95989659D01*
X159523870Y-96008975D01*
X159335266Y-96066188D01*
X159161467Y-96159086D01*
X159161460Y-96159090D01*
X159009116Y-96284116D01*
X158884090Y-96436460D01*
X158884086Y-96436467D01*
X158791188Y-96610266D01*
X158733975Y-96798870D01*
X158714659Y-96995000D01*
X158733975Y-97191129D01*
X158791188Y-97379733D01*
X158884086Y-97553532D01*
X158884090Y-97553539D01*
X159009116Y-97705883D01*
X159161460Y-97830909D01*
X159161467Y-97830913D01*
X159335266Y-97923811D01*
X159335269Y-97923811D01*
X159335273Y-97923814D01*
X159523868Y-97981024D01*
X159720000Y-98000341D01*
X159916132Y-97981024D01*
X160016490Y-97950579D01*
X160086355Y-97949955D01*
X160140166Y-97981559D01*
X160250289Y-98091682D01*
X160283774Y-98153005D01*
X160278790Y-98222697D01*
X160236918Y-98278630D01*
X160171454Y-98303047D01*
X160130514Y-98299138D01*
X159970000Y-98256127D01*
X159970000Y-99101988D01*
X159912993Y-99069075D01*
X159785826Y-99035000D01*
X159654174Y-99035000D01*
X159527007Y-99069075D01*
X159470000Y-99101988D01*
X159470000Y-98256127D01*
X159273671Y-98308734D01*
X159067517Y-98404865D01*
X158881179Y-98535342D01*
X158720342Y-98696179D01*
X158589865Y-98882517D01*
X158493734Y-99088673D01*
X158493730Y-99088682D01*
X158441127Y-99284999D01*
X158441128Y-99285000D01*
X159286988Y-99285000D01*
X159254075Y-99342007D01*
X159220000Y-99469174D01*
X159220000Y-99600826D01*
X159254075Y-99727993D01*
X159286988Y-99785000D01*
X158441128Y-99785000D01*
X158493730Y-99981317D01*
X158493734Y-99981326D01*
X158589865Y-100187482D01*
X158720342Y-100373820D01*
X158881179Y-100534657D01*
X159067517Y-100665134D01*
X159273673Y-100761265D01*
X159273682Y-100761269D01*
X159469999Y-100813872D01*
X159470000Y-100813871D01*
X159470000Y-99968012D01*
X159527007Y-100000925D01*
X159654174Y-100035000D01*
X159785826Y-100035000D01*
X159912993Y-100000925D01*
X159970000Y-99968012D01*
X159970000Y-100813872D01*
X160166317Y-100761269D01*
X160166326Y-100761266D01*
X160343095Y-100678837D01*
X160412172Y-100668345D01*
X160475956Y-100696865D01*
X160514196Y-100755341D01*
X160519500Y-100791219D01*
X160519500Y-101174666D01*
X160499815Y-101241705D01*
X160447011Y-101287460D01*
X160377853Y-101297404D01*
X160316835Y-101270519D01*
X160278539Y-101239091D01*
X160278532Y-101239086D01*
X160104733Y-101146188D01*
X160104727Y-101146186D01*
X159916132Y-101088976D01*
X159916129Y-101088975D01*
X159720000Y-101069659D01*
X159523870Y-101088975D01*
X159335266Y-101146188D01*
X159161467Y-101239086D01*
X159161460Y-101239090D01*
X159009116Y-101364116D01*
X158884090Y-101516460D01*
X158884086Y-101516467D01*
X158791188Y-101690266D01*
X158733975Y-101878870D01*
X158714659Y-102075000D01*
X158733975Y-102271129D01*
X158791188Y-102459733D01*
X158884086Y-102633532D01*
X158884090Y-102633539D01*
X159009116Y-102785883D01*
X159161460Y-102910909D01*
X159161467Y-102910913D01*
X159335266Y-103003811D01*
X159335269Y-103003811D01*
X159335273Y-103003814D01*
X159523868Y-103061024D01*
X159720000Y-103080341D01*
X159916132Y-103061024D01*
X160104727Y-103003814D01*
X160278538Y-102910910D01*
X160430883Y-102785883D01*
X160555910Y-102633538D01*
X160575778Y-102596367D01*
X160626829Y-102500859D01*
X160675791Y-102451015D01*
X160743929Y-102435554D01*
X160809608Y-102459385D01*
X160823868Y-102471631D01*
X170867717Y-112515480D01*
X170959042Y-112568207D01*
X171060903Y-112595500D01*
X171060905Y-112595500D01*
X175829095Y-112595500D01*
X175829097Y-112595500D01*
X175930958Y-112568207D01*
X176022283Y-112515480D01*
X183392763Y-105145000D01*
X185967769Y-105145000D01*
X187011988Y-105145000D01*
X186979075Y-105202007D01*
X186945000Y-105329174D01*
X186945000Y-105460826D01*
X186979075Y-105587993D01*
X187011988Y-105645000D01*
X185967769Y-105645000D01*
X185978242Y-105711126D01*
X185978242Y-105711129D01*
X186043904Y-105913217D01*
X186140379Y-106102557D01*
X186265272Y-106274459D01*
X186265276Y-106274464D01*
X186415535Y-106424723D01*
X186415540Y-106424727D01*
X186587442Y-106549620D01*
X186776782Y-106646095D01*
X186978870Y-106711757D01*
X187188754Y-106745000D01*
X187195000Y-106745000D01*
X187195000Y-105828012D01*
X187252007Y-105860925D01*
X187379174Y-105895000D01*
X187510826Y-105895000D01*
X187637993Y-105860925D01*
X187695000Y-105828012D01*
X187695000Y-106745000D01*
X187701246Y-106745000D01*
X187911127Y-106711757D01*
X187911130Y-106711757D01*
X188113217Y-106646095D01*
X188302557Y-106549620D01*
X188474459Y-106424727D01*
X188474464Y-106424723D01*
X188624723Y-106274464D01*
X188624727Y-106274459D01*
X188749620Y-106102557D01*
X188846095Y-105913217D01*
X188911757Y-105711129D01*
X188911757Y-105711126D01*
X188922231Y-105645000D01*
X187878012Y-105645000D01*
X187910925Y-105587993D01*
X187945000Y-105460826D01*
X187945000Y-105329174D01*
X187910925Y-105202007D01*
X187878012Y-105145000D01*
X188922231Y-105145000D01*
X188911757Y-105078873D01*
X188911757Y-105078870D01*
X188846095Y-104876782D01*
X188749620Y-104687442D01*
X188624727Y-104515540D01*
X188624723Y-104515535D01*
X188474464Y-104365276D01*
X188474459Y-104365272D01*
X188302557Y-104240379D01*
X188184029Y-104179985D01*
X188133233Y-104132010D01*
X188116438Y-104064189D01*
X188138976Y-103998054D01*
X188193691Y-103954603D01*
X188240324Y-103945500D01*
X188249270Y-103945500D01*
X188279699Y-103942646D01*
X188279701Y-103942646D01*
X188343790Y-103920219D01*
X188407882Y-103897793D01*
X188517150Y-103817150D01*
X188597793Y-103707882D01*
X188632163Y-103609659D01*
X188642646Y-103579701D01*
X188642646Y-103579699D01*
X188645500Y-103549269D01*
X188645500Y-102240730D01*
X188642646Y-102210300D01*
X188642646Y-102210298D01*
X188597793Y-102082119D01*
X188597792Y-102082117D01*
X188517150Y-101972850D01*
X188407882Y-101892207D01*
X188407880Y-101892206D01*
X188279700Y-101847353D01*
X188249270Y-101844500D01*
X188249266Y-101844500D01*
X186640734Y-101844500D01*
X186640730Y-101844500D01*
X186610300Y-101847353D01*
X186610298Y-101847353D01*
X186482119Y-101892206D01*
X186482117Y-101892207D01*
X186372850Y-101972850D01*
X186292207Y-102082117D01*
X186292206Y-102082119D01*
X186247353Y-102210298D01*
X186247353Y-102210300D01*
X186244500Y-102240730D01*
X186244500Y-103549269D01*
X186247353Y-103579699D01*
X186247353Y-103579701D01*
X186292206Y-103707880D01*
X186292207Y-103707882D01*
X186372850Y-103817150D01*
X186482118Y-103897793D01*
X186524845Y-103912744D01*
X186610299Y-103942646D01*
X186640730Y-103945500D01*
X186649676Y-103945500D01*
X186716715Y-103965185D01*
X186762470Y-104017989D01*
X186772414Y-104087147D01*
X186743389Y-104150703D01*
X186705971Y-104179985D01*
X186587442Y-104240379D01*
X186415540Y-104365272D01*
X186415535Y-104365276D01*
X186265276Y-104515535D01*
X186265272Y-104515540D01*
X186140379Y-104687442D01*
X186043904Y-104876782D01*
X185978242Y-105078870D01*
X185978242Y-105078873D01*
X185967769Y-105145000D01*
X183392763Y-105145000D01*
X184715480Y-103822283D01*
X184768206Y-103730958D01*
X184768207Y-103730957D01*
X184795500Y-103629097D01*
X184795500Y-102115892D01*
X184815185Y-102048853D01*
X184867989Y-102003098D01*
X184937147Y-101993154D01*
X184988386Y-102012787D01*
X185042137Y-102048703D01*
X185042139Y-102048704D01*
X185042141Y-102048705D01*
X185099313Y-102072386D01*
X185196918Y-102112816D01*
X185361228Y-102145499D01*
X185361232Y-102145500D01*
X185361233Y-102145500D01*
X185528768Y-102145500D01*
X185528769Y-102145499D01*
X185693082Y-102112816D01*
X185847863Y-102048703D01*
X185987162Y-101955626D01*
X186105626Y-101837162D01*
X186198703Y-101697863D01*
X186262816Y-101543082D01*
X186295500Y-101378767D01*
X186295500Y-101211233D01*
X186262816Y-101046918D01*
X186198703Y-100892137D01*
X186146407Y-100813871D01*
X186105626Y-100752837D01*
X185987162Y-100634373D01*
X185847860Y-100541295D01*
X185693082Y-100477184D01*
X185693074Y-100477182D01*
X185528771Y-100444500D01*
X185528767Y-100444500D01*
X185361233Y-100444500D01*
X185361228Y-100444500D01*
X185196925Y-100477182D01*
X185196917Y-100477184D01*
X185042138Y-100541296D01*
X185042134Y-100541298D01*
X184988390Y-100577209D01*
X184921713Y-100598087D01*
X184854333Y-100579602D01*
X184807643Y-100527623D01*
X184795500Y-100474107D01*
X184795500Y-95202255D01*
X184815185Y-95135216D01*
X184831819Y-95114574D01*
X186154574Y-93791819D01*
X186215897Y-93758334D01*
X186242255Y-93755500D01*
X187393599Y-93755500D01*
X187460638Y-93775185D01*
X187502957Y-93821046D01*
X187567315Y-93941450D01*
X187567317Y-93941452D01*
X187698589Y-94101410D01*
X187754126Y-94146987D01*
X187858550Y-94232685D01*
X188041046Y-94330232D01*
X188107551Y-94350405D01*
X188165989Y-94388702D01*
X188194446Y-94452514D01*
X188183887Y-94521581D01*
X188137663Y-94573975D01*
X188103650Y-94588841D01*
X187981514Y-94621567D01*
X187981507Y-94621570D01*
X187767422Y-94721399D01*
X187767420Y-94721400D01*
X187573926Y-94856886D01*
X187573920Y-94856891D01*
X187406891Y-95023920D01*
X187406886Y-95023926D01*
X187271400Y-95217420D01*
X187271399Y-95217422D01*
X187171570Y-95431507D01*
X187171567Y-95431513D01*
X187114364Y-95644999D01*
X187114364Y-95645000D01*
X188011988Y-95645000D01*
X187979075Y-95702007D01*
X187945000Y-95829174D01*
X187945000Y-95960826D01*
X187979075Y-96087993D01*
X188011988Y-96145000D01*
X187114364Y-96145000D01*
X187171567Y-96358486D01*
X187171570Y-96358492D01*
X187271399Y-96572578D01*
X187406894Y-96766082D01*
X187573917Y-96933105D01*
X187767421Y-97068600D01*
X187981507Y-97168429D01*
X187981516Y-97168433D01*
X188195000Y-97225634D01*
X188195000Y-96328012D01*
X188252007Y-96360925D01*
X188379174Y-96395000D01*
X188510826Y-96395000D01*
X188637993Y-96360925D01*
X188695000Y-96328012D01*
X188695000Y-97225633D01*
X188908483Y-97168433D01*
X188908492Y-97168429D01*
X189122578Y-97068600D01*
X189316082Y-96933105D01*
X189483105Y-96766082D01*
X189618600Y-96572578D01*
X189718429Y-96358492D01*
X189718432Y-96358486D01*
X189775636Y-96145000D01*
X188878012Y-96145000D01*
X188910925Y-96087993D01*
X188945000Y-95960826D01*
X188945000Y-95829174D01*
X188910925Y-95702007D01*
X188878012Y-95645000D01*
X189775636Y-95645000D01*
X189775635Y-95644999D01*
X189718432Y-95431513D01*
X189718429Y-95431507D01*
X189618600Y-95217422D01*
X189618599Y-95217420D01*
X189483113Y-95023926D01*
X189483108Y-95023920D01*
X189316082Y-94856894D01*
X189122578Y-94721399D01*
X188908492Y-94621570D01*
X188908486Y-94621567D01*
X188786349Y-94588841D01*
X188726689Y-94552476D01*
X188696160Y-94489629D01*
X188704455Y-94420253D01*
X188748940Y-94366375D01*
X188782444Y-94350407D01*
X188848954Y-94330232D01*
X189031450Y-94232685D01*
X189191410Y-94101410D01*
X189322685Y-93941450D01*
X189420232Y-93758954D01*
X189480300Y-93560934D01*
X189500583Y-93355000D01*
X189480300Y-93149066D01*
X189420232Y-92951046D01*
X189322685Y-92768550D01*
X189270702Y-92705209D01*
X189191410Y-92608589D01*
X189031452Y-92477317D01*
X189031453Y-92477317D01*
X189031450Y-92477315D01*
X188848954Y-92379768D01*
X188650934Y-92319700D01*
X188650932Y-92319699D01*
X188650934Y-92319699D01*
X188445000Y-92299417D01*
X188239067Y-92319699D01*
X188041043Y-92379769D01*
X187930898Y-92438643D01*
X187858550Y-92477315D01*
X187858548Y-92477316D01*
X187858547Y-92477317D01*
X187698589Y-92608589D01*
X187581789Y-92750913D01*
X187567315Y-92768550D01*
X187527087Y-92843811D01*
X187502957Y-92888954D01*
X187453994Y-92938798D01*
X187393599Y-92954500D01*
X185972273Y-92954500D01*
X185870410Y-92981793D01*
X185779087Y-93034520D01*
X185779084Y-93034522D01*
X184257181Y-94556425D01*
X184195858Y-94589910D01*
X184126166Y-94584926D01*
X184070233Y-94543054D01*
X184045816Y-94477590D01*
X184045500Y-94468744D01*
X184045500Y-90815000D01*
X187389417Y-90815000D01*
X187409699Y-91020932D01*
X187409700Y-91020934D01*
X187469768Y-91218954D01*
X187567315Y-91401450D01*
X187567317Y-91401452D01*
X187698589Y-91561410D01*
X187795209Y-91640702D01*
X187858550Y-91692685D01*
X188041046Y-91790232D01*
X188239066Y-91850300D01*
X188239065Y-91850300D01*
X188257529Y-91852118D01*
X188445000Y-91870583D01*
X188650934Y-91850300D01*
X188848954Y-91790232D01*
X189031450Y-91692685D01*
X189191410Y-91561410D01*
X189322685Y-91401450D01*
X189420232Y-91218954D01*
X189480300Y-91020934D01*
X189500583Y-90815000D01*
X189480300Y-90609066D01*
X189420232Y-90411046D01*
X189322685Y-90228550D01*
X189261853Y-90154426D01*
X189191410Y-90068589D01*
X189052484Y-89954577D01*
X189031450Y-89937315D01*
X188848954Y-89839768D01*
X188650934Y-89779700D01*
X188650932Y-89779699D01*
X188650934Y-89779699D01*
X188445000Y-89759417D01*
X188239067Y-89779699D01*
X188041043Y-89839769D01*
X187969033Y-89878260D01*
X187858550Y-89937315D01*
X187858548Y-89937316D01*
X187858547Y-89937317D01*
X187698589Y-90068589D01*
X187567317Y-90228547D01*
X187469769Y-90411043D01*
X187409699Y-90609067D01*
X187389417Y-90815000D01*
X184045500Y-90815000D01*
X184045500Y-88615097D01*
X184065185Y-88548058D01*
X184081819Y-88527416D01*
X184334235Y-88275000D01*
X187389417Y-88275000D01*
X187409699Y-88480932D01*
X187434817Y-88563735D01*
X187469768Y-88678954D01*
X187567315Y-88861450D01*
X187567317Y-88861452D01*
X187698589Y-89021410D01*
X187795209Y-89100702D01*
X187858550Y-89152685D01*
X188041046Y-89250232D01*
X188239066Y-89310300D01*
X188239065Y-89310300D01*
X188257529Y-89312118D01*
X188445000Y-89330583D01*
X188650934Y-89310300D01*
X188848954Y-89250232D01*
X189031450Y-89152685D01*
X189191410Y-89021410D01*
X189322685Y-88861450D01*
X189420232Y-88678954D01*
X189480300Y-88480934D01*
X189500583Y-88275000D01*
X189480300Y-88069066D01*
X189420232Y-87871046D01*
X189322685Y-87688550D01*
X189251976Y-87602390D01*
X189191410Y-87528589D01*
X189031452Y-87397317D01*
X189031453Y-87397317D01*
X189031450Y-87397315D01*
X188848954Y-87299768D01*
X188650934Y-87239700D01*
X188650932Y-87239699D01*
X188650934Y-87239699D01*
X188445000Y-87219417D01*
X188239067Y-87239699D01*
X188041043Y-87299769D01*
X187948437Y-87349269D01*
X187858550Y-87397315D01*
X187858548Y-87397316D01*
X187858547Y-87397317D01*
X187698589Y-87528589D01*
X187581789Y-87670913D01*
X187567315Y-87688550D01*
X187555996Y-87709726D01*
X187469769Y-87871043D01*
X187469768Y-87871045D01*
X187469768Y-87871046D01*
X187468411Y-87875520D01*
X187409699Y-88069067D01*
X187389417Y-88275000D01*
X184334235Y-88275000D01*
X186237416Y-86371819D01*
X186298739Y-86338334D01*
X186325097Y-86335500D01*
X187270500Y-86335500D01*
X187337539Y-86355185D01*
X187383294Y-86407989D01*
X187394500Y-86459500D01*
X187394500Y-86604752D01*
X187406131Y-86663229D01*
X187406132Y-86663230D01*
X187450447Y-86729552D01*
X187516769Y-86773867D01*
X187516770Y-86773868D01*
X187575247Y-86785499D01*
X187575250Y-86785500D01*
X187575252Y-86785500D01*
X189314750Y-86785500D01*
X189314751Y-86785499D01*
X189329568Y-86782552D01*
X189373229Y-86773868D01*
X189373229Y-86773867D01*
X189373231Y-86773867D01*
X189439552Y-86729552D01*
X189483867Y-86663231D01*
X189483867Y-86663229D01*
X189483868Y-86663229D01*
X189495499Y-86604752D01*
X189495500Y-86604750D01*
X189495500Y-84865249D01*
X189495499Y-84865247D01*
X189483868Y-84806770D01*
X189483867Y-84806769D01*
X189439552Y-84740447D01*
X189373230Y-84696132D01*
X189373229Y-84696131D01*
X189314752Y-84684500D01*
X189314748Y-84684500D01*
X187575252Y-84684500D01*
X187575247Y-84684500D01*
X187516770Y-84696131D01*
X187516769Y-84696132D01*
X187450447Y-84740447D01*
X187406132Y-84806769D01*
X187406131Y-84806770D01*
X187394500Y-84865247D01*
X187394500Y-85010500D01*
X187374815Y-85077539D01*
X187322011Y-85123294D01*
X187270500Y-85134500D01*
X186111669Y-85134500D01*
X186111653Y-85134499D01*
X186104057Y-85134499D01*
X185945943Y-85134499D01*
X185840604Y-85162725D01*
X185793210Y-85175424D01*
X185793209Y-85175425D01*
X185743096Y-85204359D01*
X185743095Y-85204360D01*
X185699689Y-85229420D01*
X185656285Y-85254479D01*
X185656282Y-85254481D01*
X185544478Y-85366286D01*
X183229538Y-87681225D01*
X183168215Y-87714710D01*
X183098523Y-87709726D01*
X183042590Y-87667854D01*
X183018173Y-87602390D01*
X183022081Y-87561456D01*
X183045500Y-87474057D01*
X183045500Y-85315943D01*
X183041319Y-85300341D01*
X183004577Y-85163215D01*
X182975639Y-85113095D01*
X182925520Y-85026284D01*
X182813716Y-84914480D01*
X182813715Y-84914479D01*
X182809385Y-84910149D01*
X182809374Y-84910139D01*
X181081819Y-83182584D01*
X181048334Y-83121261D01*
X181045500Y-83094903D01*
X181045500Y-78484060D01*
X181045501Y-78484047D01*
X181045501Y-78315944D01*
X181024771Y-78238579D01*
X181004577Y-78163216D01*
X180937713Y-78047403D01*
X180925524Y-78026290D01*
X180925518Y-78026282D01*
X177932590Y-75033355D01*
X177932588Y-75033352D01*
X177813717Y-74914481D01*
X177813716Y-74914480D01*
X177726904Y-74864360D01*
X177726904Y-74864359D01*
X177726900Y-74864358D01*
X177676785Y-74835423D01*
X177524057Y-74794499D01*
X177365943Y-74794499D01*
X177358347Y-74794499D01*
X177358331Y-74794500D01*
X168745097Y-74794500D01*
X168678058Y-74774815D01*
X168657416Y-74758181D01*
X166703683Y-72804448D01*
X179369500Y-72804448D01*
X179369500Y-72985551D01*
X179397829Y-73164410D01*
X179453787Y-73336636D01*
X179453788Y-73336639D01*
X179536006Y-73497997D01*
X179642441Y-73644494D01*
X179642445Y-73644499D01*
X179770500Y-73772554D01*
X179770505Y-73772558D01*
X179898287Y-73865396D01*
X179917006Y-73878996D01*
X180022484Y-73932740D01*
X180078360Y-73961211D01*
X180078363Y-73961212D01*
X180164476Y-73989191D01*
X180250591Y-74017171D01*
X180333429Y-74030291D01*
X180429449Y-74045500D01*
X180429454Y-74045500D01*
X180610551Y-74045500D01*
X180697259Y-74031765D01*
X180789409Y-74017171D01*
X180961639Y-73961211D01*
X181122994Y-73878996D01*
X181269501Y-73772553D01*
X181397553Y-73644501D01*
X181503996Y-73497994D01*
X181586211Y-73336639D01*
X181642171Y-73164409D01*
X181656765Y-73072259D01*
X181670500Y-72985551D01*
X181670500Y-72804448D01*
X181654019Y-72700397D01*
X181642171Y-72625591D01*
X181586211Y-72453361D01*
X181586211Y-72453360D01*
X181557740Y-72397484D01*
X181503996Y-72292006D01*
X181490396Y-72273287D01*
X181397558Y-72145505D01*
X181397554Y-72145500D01*
X181269499Y-72017445D01*
X181269494Y-72017441D01*
X181122997Y-71911006D01*
X181122996Y-71911005D01*
X181122994Y-71911004D01*
X181071300Y-71884664D01*
X180961639Y-71828788D01*
X180961636Y-71828787D01*
X180789410Y-71772829D01*
X180610551Y-71744500D01*
X180610546Y-71744500D01*
X180429454Y-71744500D01*
X180429449Y-71744500D01*
X180250589Y-71772829D01*
X180078363Y-71828787D01*
X180078360Y-71828788D01*
X179917002Y-71911006D01*
X179770505Y-72017441D01*
X179770500Y-72017445D01*
X179642445Y-72145500D01*
X179642441Y-72145505D01*
X179536006Y-72292002D01*
X179453788Y-72453360D01*
X179453787Y-72453363D01*
X179397829Y-72625589D01*
X179369500Y-72804448D01*
X166703683Y-72804448D01*
X162932590Y-69033355D01*
X162932588Y-69033352D01*
X162813717Y-68914481D01*
X162813716Y-68914480D01*
X162726904Y-68864360D01*
X162726904Y-68864359D01*
X162726900Y-68864358D01*
X162676785Y-68835423D01*
X162524057Y-68794499D01*
X162365943Y-68794499D01*
X162358347Y-68794499D01*
X162358331Y-68794500D01*
X156365940Y-68794500D01*
X156325019Y-68805464D01*
X156325019Y-68805465D01*
X156287751Y-68815451D01*
X156213214Y-68835423D01*
X156213209Y-68835426D01*
X156076290Y-68914475D01*
X156076282Y-68914481D01*
X151257181Y-73733583D01*
X151195858Y-73767068D01*
X151126166Y-73762084D01*
X151070233Y-73720212D01*
X151045816Y-73654748D01*
X151045500Y-73645902D01*
X151045500Y-67319500D01*
X151065185Y-67252461D01*
X151117989Y-67206706D01*
X151169500Y-67195500D01*
X151364750Y-67195500D01*
X151364751Y-67195499D01*
X151379568Y-67192552D01*
X151423229Y-67183868D01*
X151423229Y-67183867D01*
X151423231Y-67183867D01*
X151489552Y-67139552D01*
X151533867Y-67073231D01*
X151533867Y-67073229D01*
X151533868Y-67073229D01*
X151545499Y-67014752D01*
X151545500Y-67014750D01*
X151545500Y-66094999D01*
X151879785Y-66094999D01*
X151879785Y-66095000D01*
X151898602Y-66298082D01*
X151954417Y-66494247D01*
X151954422Y-66494260D01*
X152045327Y-66676821D01*
X152168237Y-66839581D01*
X152318958Y-66976980D01*
X152318960Y-66976982D01*
X152379955Y-67014748D01*
X152492363Y-67084348D01*
X152682544Y-67158024D01*
X152883024Y-67195500D01*
X152883026Y-67195500D01*
X153086974Y-67195500D01*
X153086976Y-67195500D01*
X153287456Y-67158024D01*
X153477637Y-67084348D01*
X153651041Y-66976981D01*
X153801764Y-66839579D01*
X153924673Y-66676821D01*
X154015582Y-66494250D01*
X154071397Y-66298083D01*
X154090215Y-66095000D01*
X154071397Y-65891917D01*
X154015582Y-65695750D01*
X153924673Y-65513179D01*
X153820586Y-65375345D01*
X153801762Y-65350418D01*
X153651041Y-65213019D01*
X153651039Y-65213017D01*
X153590038Y-65175247D01*
X170344500Y-65175247D01*
X170344500Y-67014752D01*
X170356131Y-67073229D01*
X170356132Y-67073230D01*
X170400447Y-67139552D01*
X170466769Y-67183867D01*
X170466770Y-67183868D01*
X170525247Y-67195499D01*
X170525250Y-67195500D01*
X170525252Y-67195500D01*
X172364750Y-67195500D01*
X172364751Y-67195499D01*
X172379568Y-67192552D01*
X172423229Y-67183868D01*
X172423229Y-67183867D01*
X172423231Y-67183867D01*
X172489552Y-67139552D01*
X172533867Y-67073231D01*
X172533867Y-67073229D01*
X172533868Y-67073229D01*
X172545499Y-67014752D01*
X172545500Y-67014750D01*
X172545500Y-66094999D01*
X172879785Y-66094999D01*
X172879785Y-66095000D01*
X172898602Y-66298082D01*
X172954417Y-66494247D01*
X172954422Y-66494260D01*
X173045327Y-66676821D01*
X173168237Y-66839581D01*
X173318958Y-66976980D01*
X173318960Y-66976982D01*
X173379955Y-67014748D01*
X173492363Y-67084348D01*
X173682544Y-67158024D01*
X173883024Y-67195500D01*
X173883026Y-67195500D01*
X174086974Y-67195500D01*
X174086976Y-67195500D01*
X174287456Y-67158024D01*
X174477637Y-67084348D01*
X174651041Y-66976981D01*
X174801764Y-66839579D01*
X174924673Y-66676821D01*
X175015582Y-66494250D01*
X175071397Y-66298083D01*
X175090215Y-66095000D01*
X175075994Y-65941530D01*
X181469500Y-65941530D01*
X181469500Y-67348469D01*
X181509868Y-67551412D01*
X181509870Y-67551420D01*
X181589058Y-67742596D01*
X181704024Y-67914657D01*
X181850342Y-68060975D01*
X181850345Y-68060977D01*
X182022402Y-68175941D01*
X182042952Y-68184453D01*
X182097356Y-68228293D01*
X182119421Y-68294587D01*
X182119500Y-68299014D01*
X182119500Y-77490985D01*
X182099815Y-77558024D01*
X182047011Y-77603779D01*
X182042954Y-77605546D01*
X182022402Y-77614059D01*
X182022395Y-77614062D01*
X181850344Y-77729022D01*
X181704024Y-77875342D01*
X181589058Y-78047403D01*
X181509870Y-78238579D01*
X181509868Y-78238587D01*
X181469500Y-78441530D01*
X181469500Y-79848469D01*
X181509868Y-80051412D01*
X181509870Y-80051420D01*
X181589058Y-80242596D01*
X181704024Y-80414657D01*
X181850342Y-80560975D01*
X181850345Y-80560977D01*
X182022402Y-80675941D01*
X182213580Y-80755130D01*
X182411503Y-80794499D01*
X182416530Y-80795499D01*
X182416534Y-80795500D01*
X182416535Y-80795500D01*
X182623466Y-80795500D01*
X182623467Y-80795499D01*
X182826420Y-80755130D01*
X183017598Y-80675941D01*
X183189655Y-80560977D01*
X183335977Y-80414655D01*
X183450941Y-80242598D01*
X183530130Y-80051420D01*
X183570500Y-79848465D01*
X183570500Y-78441535D01*
X183569947Y-78438753D01*
X186170000Y-78438753D01*
X186170000Y-78895000D01*
X186971518Y-78895000D01*
X186960889Y-78913409D01*
X186920000Y-79066009D01*
X186920000Y-79223991D01*
X186960889Y-79376591D01*
X186971518Y-79395000D01*
X186170000Y-79395000D01*
X186170000Y-79851246D01*
X186203242Y-80061127D01*
X186203242Y-80061130D01*
X186268904Y-80263217D01*
X186365379Y-80452557D01*
X186490272Y-80624459D01*
X186490276Y-80624464D01*
X186640535Y-80774723D01*
X186640540Y-80774727D01*
X186812442Y-80899620D01*
X187001782Y-80996095D01*
X187203871Y-81061757D01*
X187270000Y-81072231D01*
X187270000Y-79693482D01*
X187288409Y-79704111D01*
X187441009Y-79745000D01*
X187598991Y-79745000D01*
X187751591Y-79704111D01*
X187770000Y-79693482D01*
X187770000Y-81072230D01*
X187836126Y-81061757D01*
X187836129Y-81061757D01*
X188038217Y-80996095D01*
X188227557Y-80899620D01*
X188399459Y-80774727D01*
X188399464Y-80774723D01*
X188549723Y-80624464D01*
X188549727Y-80624459D01*
X188674620Y-80452557D01*
X188771095Y-80263217D01*
X188836757Y-80061130D01*
X188836757Y-80061127D01*
X188870000Y-79851246D01*
X188870000Y-79395000D01*
X188068482Y-79395000D01*
X188079111Y-79376591D01*
X188120000Y-79223991D01*
X188120000Y-79066009D01*
X188079111Y-78913409D01*
X188068482Y-78895000D01*
X188870000Y-78895000D01*
X188870000Y-78438753D01*
X188836757Y-78228872D01*
X188836757Y-78228869D01*
X188771095Y-78026782D01*
X188674620Y-77837442D01*
X188549727Y-77665540D01*
X188549723Y-77665535D01*
X188399464Y-77515276D01*
X188399459Y-77515272D01*
X188227557Y-77390379D01*
X188038215Y-77293903D01*
X187836124Y-77228241D01*
X187770000Y-77217768D01*
X187770000Y-78596517D01*
X187751591Y-78585889D01*
X187598991Y-78545000D01*
X187441009Y-78545000D01*
X187288409Y-78585889D01*
X187270000Y-78596517D01*
X187270000Y-77217768D01*
X187269999Y-77217768D01*
X187203875Y-77228241D01*
X187001784Y-77293903D01*
X186812442Y-77390379D01*
X186640540Y-77515272D01*
X186640535Y-77515276D01*
X186490276Y-77665535D01*
X186490272Y-77665540D01*
X186365379Y-77837442D01*
X186268904Y-78026782D01*
X186203242Y-78228869D01*
X186203242Y-78228872D01*
X186170000Y-78438753D01*
X183569947Y-78438753D01*
X183530130Y-78238580D01*
X183450941Y-78047402D01*
X183335977Y-77875345D01*
X183335975Y-77875342D01*
X183189655Y-77729022D01*
X183017604Y-77614062D01*
X183017599Y-77614060D01*
X183017598Y-77614059D01*
X182997045Y-77605545D01*
X182942643Y-77561704D01*
X182920579Y-77495410D01*
X182920500Y-77490985D01*
X182920500Y-72804448D01*
X188369500Y-72804448D01*
X188369500Y-72985551D01*
X188397829Y-73164410D01*
X188453787Y-73336636D01*
X188453788Y-73336639D01*
X188536006Y-73497997D01*
X188642441Y-73644494D01*
X188642445Y-73644499D01*
X188770500Y-73772554D01*
X188770505Y-73772558D01*
X188898287Y-73865396D01*
X188917006Y-73878996D01*
X189022484Y-73932740D01*
X189078360Y-73961211D01*
X189078363Y-73961212D01*
X189164476Y-73989191D01*
X189250591Y-74017171D01*
X189333429Y-74030291D01*
X189429449Y-74045500D01*
X189429454Y-74045500D01*
X189610551Y-74045500D01*
X189697259Y-74031765D01*
X189789409Y-74017171D01*
X189961639Y-73961211D01*
X190122994Y-73878996D01*
X190269501Y-73772553D01*
X190397553Y-73644501D01*
X190503996Y-73497994D01*
X190586211Y-73336639D01*
X190642171Y-73164409D01*
X190656765Y-73072259D01*
X190670500Y-72985551D01*
X190670500Y-72804448D01*
X190654019Y-72700397D01*
X190642171Y-72625591D01*
X190586211Y-72453361D01*
X190586211Y-72453360D01*
X190557740Y-72397484D01*
X190503996Y-72292006D01*
X190490396Y-72273287D01*
X190397558Y-72145505D01*
X190397554Y-72145500D01*
X190269499Y-72017445D01*
X190269494Y-72017441D01*
X190122997Y-71911006D01*
X190122996Y-71911005D01*
X190122994Y-71911004D01*
X190071300Y-71884664D01*
X189961639Y-71828788D01*
X189961636Y-71828787D01*
X189789410Y-71772829D01*
X189610551Y-71744500D01*
X189610546Y-71744500D01*
X189429454Y-71744500D01*
X189429449Y-71744500D01*
X189250589Y-71772829D01*
X189078363Y-71828787D01*
X189078360Y-71828788D01*
X188917002Y-71911006D01*
X188770505Y-72017441D01*
X188770500Y-72017445D01*
X188642445Y-72145500D01*
X188642441Y-72145505D01*
X188536006Y-72292002D01*
X188453788Y-72453360D01*
X188453787Y-72453363D01*
X188397829Y-72625589D01*
X188369500Y-72804448D01*
X182920500Y-72804448D01*
X182920500Y-68299014D01*
X182940185Y-68231975D01*
X182992989Y-68186220D01*
X182997048Y-68184453D01*
X183017598Y-68175941D01*
X183189655Y-68060977D01*
X183335977Y-67914655D01*
X183450941Y-67742598D01*
X183530130Y-67551420D01*
X183570500Y-67348465D01*
X183570500Y-65941535D01*
X183569947Y-65938753D01*
X186170000Y-65938753D01*
X186170000Y-66395000D01*
X186971518Y-66395000D01*
X186960889Y-66413409D01*
X186920000Y-66566009D01*
X186920000Y-66723991D01*
X186960889Y-66876591D01*
X186971518Y-66895000D01*
X186170000Y-66895000D01*
X186170000Y-67351246D01*
X186203242Y-67561127D01*
X186203242Y-67561130D01*
X186268904Y-67763217D01*
X186365379Y-67952557D01*
X186490272Y-68124459D01*
X186490276Y-68124464D01*
X186640535Y-68274723D01*
X186640540Y-68274727D01*
X186812442Y-68399620D01*
X187001782Y-68496095D01*
X187203871Y-68561757D01*
X187270000Y-68572231D01*
X187270000Y-67193482D01*
X187288409Y-67204111D01*
X187441009Y-67245000D01*
X187598991Y-67245000D01*
X187751591Y-67204111D01*
X187770000Y-67193482D01*
X187770000Y-68572230D01*
X187836126Y-68561757D01*
X187836129Y-68561757D01*
X188038217Y-68496095D01*
X188227557Y-68399620D01*
X188399459Y-68274727D01*
X188399464Y-68274723D01*
X188549723Y-68124464D01*
X188549727Y-68124459D01*
X188674620Y-67952557D01*
X188771095Y-67763217D01*
X188836757Y-67561130D01*
X188836757Y-67561127D01*
X188870000Y-67351246D01*
X188870000Y-66895000D01*
X188068482Y-66895000D01*
X188079111Y-66876591D01*
X188120000Y-66723991D01*
X188120000Y-66566009D01*
X188079111Y-66413409D01*
X188068482Y-66395000D01*
X188870000Y-66395000D01*
X188870000Y-65938753D01*
X188836757Y-65728872D01*
X188836757Y-65728869D01*
X188771095Y-65526782D01*
X188674620Y-65337442D01*
X188549727Y-65165540D01*
X188549723Y-65165535D01*
X188399464Y-65015276D01*
X188399459Y-65015272D01*
X188227557Y-64890379D01*
X188038215Y-64793903D01*
X187836124Y-64728241D01*
X187770000Y-64717768D01*
X187770000Y-66096517D01*
X187751591Y-66085889D01*
X187598991Y-66045000D01*
X187441009Y-66045000D01*
X187288409Y-66085889D01*
X187270000Y-66096517D01*
X187270000Y-64717768D01*
X187269999Y-64717768D01*
X187203875Y-64728241D01*
X187001784Y-64793903D01*
X186812442Y-64890379D01*
X186640540Y-65015272D01*
X186640535Y-65015276D01*
X186490276Y-65165535D01*
X186490272Y-65165540D01*
X186365379Y-65337442D01*
X186268904Y-65526782D01*
X186203242Y-65728869D01*
X186203242Y-65728872D01*
X186170000Y-65938753D01*
X183569947Y-65938753D01*
X183530130Y-65738580D01*
X183450941Y-65547402D01*
X183335977Y-65375345D01*
X183335975Y-65375342D01*
X183189657Y-65229024D01*
X183021655Y-65116770D01*
X183017598Y-65114059D01*
X182997299Y-65105651D01*
X182826420Y-65034870D01*
X182826412Y-65034868D01*
X182623469Y-64994500D01*
X182623465Y-64994500D01*
X182416535Y-64994500D01*
X182416530Y-64994500D01*
X182213587Y-65034868D01*
X182213579Y-65034870D01*
X182022403Y-65114058D01*
X181850342Y-65229024D01*
X181704024Y-65375342D01*
X181589058Y-65547403D01*
X181509870Y-65738579D01*
X181509868Y-65738587D01*
X181469500Y-65941530D01*
X175075994Y-65941530D01*
X175071397Y-65891917D01*
X175015582Y-65695750D01*
X174924673Y-65513179D01*
X174820586Y-65375345D01*
X174801762Y-65350418D01*
X174651041Y-65213019D01*
X174651039Y-65213017D01*
X174477642Y-65105655D01*
X174477635Y-65105651D01*
X174294921Y-65034868D01*
X174287456Y-65031976D01*
X174086976Y-64994500D01*
X173883024Y-64994500D01*
X173682544Y-65031976D01*
X173682541Y-65031976D01*
X173682541Y-65031977D01*
X173492364Y-65105651D01*
X173492357Y-65105655D01*
X173318960Y-65213017D01*
X173318958Y-65213019D01*
X173168237Y-65350418D01*
X173045327Y-65513178D01*
X172954422Y-65695739D01*
X172954417Y-65695752D01*
X172898602Y-65891917D01*
X172879785Y-66094999D01*
X172545500Y-66094999D01*
X172545500Y-65175249D01*
X172545499Y-65175247D01*
X172533868Y-65116770D01*
X172533867Y-65116769D01*
X172489552Y-65050447D01*
X172423230Y-65006132D01*
X172423229Y-65006131D01*
X172364752Y-64994500D01*
X172364748Y-64994500D01*
X170525252Y-64994500D01*
X170525247Y-64994500D01*
X170466770Y-65006131D01*
X170466769Y-65006132D01*
X170400447Y-65050447D01*
X170356132Y-65116769D01*
X170356131Y-65116770D01*
X170344500Y-65175247D01*
X153590038Y-65175247D01*
X153477642Y-65105655D01*
X153477635Y-65105651D01*
X153294921Y-65034868D01*
X153287456Y-65031976D01*
X153086976Y-64994500D01*
X152883024Y-64994500D01*
X152682544Y-65031976D01*
X152682541Y-65031976D01*
X152682541Y-65031977D01*
X152492364Y-65105651D01*
X152492357Y-65105655D01*
X152318960Y-65213017D01*
X152318958Y-65213019D01*
X152168237Y-65350418D01*
X152045327Y-65513178D01*
X151954422Y-65695739D01*
X151954417Y-65695752D01*
X151898602Y-65891917D01*
X151879785Y-66094999D01*
X151545500Y-66094999D01*
X151545500Y-65175249D01*
X151545499Y-65175247D01*
X151533868Y-65116770D01*
X151533867Y-65116769D01*
X151489552Y-65050447D01*
X151423230Y-65006132D01*
X151423229Y-65006131D01*
X151364752Y-64994500D01*
X151364748Y-64994500D01*
X149525252Y-64994500D01*
X149525247Y-64994500D01*
X149466770Y-65006131D01*
X149466769Y-65006132D01*
X149400447Y-65050447D01*
X149356132Y-65116769D01*
X149356131Y-65116770D01*
X149344500Y-65175247D01*
X149344500Y-67014752D01*
X149356131Y-67073229D01*
X149356132Y-67073230D01*
X149400447Y-67139552D01*
X149466769Y-67183867D01*
X149466770Y-67183868D01*
X149525247Y-67195499D01*
X149525250Y-67195500D01*
X149525252Y-67195500D01*
X149720500Y-67195500D01*
X149787539Y-67215185D01*
X149833294Y-67267989D01*
X149844500Y-67319500D01*
X149844500Y-75308330D01*
X149844499Y-75308348D01*
X149844499Y-75484046D01*
X149844500Y-75484059D01*
X149844500Y-78870500D01*
X149824815Y-78937539D01*
X149772011Y-78983294D01*
X149720500Y-78994500D01*
X149525247Y-78994500D01*
X149466770Y-79006131D01*
X149466769Y-79006132D01*
X149400447Y-79050447D01*
X149356132Y-79116769D01*
X149356131Y-79116770D01*
X149344500Y-79175247D01*
X149344500Y-81014752D01*
X149356131Y-81073229D01*
X149356132Y-81073230D01*
X149400447Y-81139552D01*
X149466769Y-81183867D01*
X149466770Y-81183868D01*
X149525247Y-81195499D01*
X149525250Y-81195500D01*
X149525252Y-81195500D01*
X149720500Y-81195500D01*
X149787539Y-81215185D01*
X149833294Y-81267989D01*
X149844500Y-81319500D01*
X149844500Y-81708330D01*
X149844499Y-81708348D01*
X149844499Y-81874054D01*
X149844498Y-81874054D01*
X149885423Y-82026785D01*
X149914358Y-82076900D01*
X149914359Y-82076904D01*
X149914360Y-82076904D01*
X149964479Y-82163714D01*
X149964481Y-82163717D01*
X150083349Y-82282585D01*
X150083355Y-82282590D01*
X150808181Y-83007416D01*
X150841666Y-83068739D01*
X150844500Y-83095097D01*
X150844500Y-84571208D01*
X150824815Y-84638247D01*
X150772011Y-84684002D01*
X150702853Y-84693946D01*
X150646867Y-84670979D01*
X150607882Y-84642207D01*
X150607880Y-84642206D01*
X150479700Y-84597353D01*
X150449270Y-84594500D01*
X150449266Y-84594500D01*
X149440734Y-84594500D01*
X149440730Y-84594500D01*
X149410300Y-84597353D01*
X149410298Y-84597353D01*
X149282119Y-84642206D01*
X149282117Y-84642207D01*
X149172850Y-84722850D01*
X149092207Y-84832117D01*
X149064445Y-84911456D01*
X149023723Y-84968231D01*
X148958770Y-84993978D01*
X148947404Y-84994500D01*
X148442596Y-84994500D01*
X148375557Y-84974815D01*
X148329802Y-84922011D01*
X148325555Y-84911456D01*
X148309385Y-84865247D01*
X148297793Y-84832118D01*
X148217150Y-84722850D01*
X148107882Y-84642207D01*
X148107880Y-84642206D01*
X147979700Y-84597353D01*
X147949270Y-84594500D01*
X147949266Y-84594500D01*
X147906592Y-84594500D01*
X147839553Y-84574815D01*
X147799205Y-84532500D01*
X147799136Y-84532380D01*
X147765480Y-84474087D01*
X145466559Y-82175166D01*
X145433074Y-82113843D01*
X145435579Y-82051490D01*
X145466024Y-81951132D01*
X145485341Y-81755000D01*
X145466024Y-81558868D01*
X145408814Y-81370273D01*
X145408811Y-81370269D01*
X145408811Y-81370266D01*
X145315913Y-81196467D01*
X145315909Y-81196460D01*
X145190883Y-81044116D01*
X145038539Y-80919090D01*
X145038532Y-80919086D01*
X144864733Y-80826188D01*
X144864727Y-80826186D01*
X144723332Y-80783294D01*
X144676129Y-80768975D01*
X144480000Y-80749659D01*
X144283870Y-80768975D01*
X144095266Y-80826188D01*
X143921467Y-80919086D01*
X143921460Y-80919090D01*
X143769116Y-81044116D01*
X143644090Y-81196460D01*
X143644086Y-81196467D01*
X143551188Y-81370266D01*
X143493975Y-81558870D01*
X143474659Y-81755000D01*
X141945500Y-81755000D01*
X141945500Y-79215000D01*
X143474659Y-79215000D01*
X143493975Y-79411129D01*
X143493976Y-79411132D01*
X143524931Y-79513178D01*
X143551188Y-79599733D01*
X143644086Y-79773532D01*
X143644090Y-79773539D01*
X143769116Y-79925883D01*
X143921460Y-80050909D01*
X143921467Y-80050913D01*
X144095266Y-80143811D01*
X144095269Y-80143811D01*
X144095273Y-80143814D01*
X144283868Y-80201024D01*
X144480000Y-80220341D01*
X144676132Y-80201024D01*
X144864727Y-80143814D01*
X145038538Y-80050910D01*
X145190883Y-79925883D01*
X145315910Y-79773538D01*
X145408814Y-79599727D01*
X145466024Y-79411132D01*
X145485341Y-79215000D01*
X145466024Y-79018868D01*
X145408814Y-78830273D01*
X145408811Y-78830269D01*
X145408811Y-78830266D01*
X145315913Y-78656467D01*
X145315909Y-78656460D01*
X145190883Y-78504116D01*
X145038539Y-78379090D01*
X145038532Y-78379086D01*
X144864733Y-78286188D01*
X144864727Y-78286186D01*
X144676132Y-78228976D01*
X144676129Y-78228975D01*
X144480000Y-78209659D01*
X144283870Y-78228975D01*
X144095266Y-78286188D01*
X143921467Y-78379086D01*
X143921460Y-78379090D01*
X143769116Y-78504116D01*
X143644090Y-78656460D01*
X143644086Y-78656467D01*
X143551188Y-78830266D01*
X143493975Y-79018870D01*
X143474659Y-79215000D01*
X141945500Y-79215000D01*
X141945500Y-76675000D01*
X143474659Y-76675000D01*
X143493975Y-76871129D01*
X143551188Y-77059733D01*
X143644086Y-77233532D01*
X143644090Y-77233539D01*
X143769116Y-77385883D01*
X143921460Y-77510909D01*
X143921467Y-77510913D01*
X144095266Y-77603811D01*
X144095269Y-77603811D01*
X144095273Y-77603814D01*
X144283868Y-77661024D01*
X144480000Y-77680341D01*
X144676132Y-77661024D01*
X144864727Y-77603814D01*
X144864793Y-77603779D01*
X144951632Y-77557362D01*
X145038538Y-77510910D01*
X145190883Y-77385883D01*
X145315910Y-77233538D01*
X145408814Y-77059727D01*
X145466024Y-76871132D01*
X145485341Y-76675000D01*
X145466024Y-76478868D01*
X145408814Y-76290273D01*
X145408811Y-76290269D01*
X145408811Y-76290266D01*
X145315913Y-76116467D01*
X145315909Y-76116460D01*
X145190883Y-75964116D01*
X145038539Y-75839090D01*
X145038532Y-75839086D01*
X144864733Y-75746188D01*
X144864727Y-75746186D01*
X144676132Y-75688976D01*
X144676129Y-75688975D01*
X144480000Y-75669659D01*
X144283870Y-75688975D01*
X144095266Y-75746188D01*
X143921467Y-75839086D01*
X143921460Y-75839090D01*
X143769116Y-75964116D01*
X143644090Y-76116460D01*
X143644086Y-76116467D01*
X143551188Y-76290266D01*
X143493975Y-76478870D01*
X143474659Y-76675000D01*
X141945500Y-76675000D01*
X141945500Y-74135000D01*
X143474659Y-74135000D01*
X143493975Y-74331129D01*
X143551188Y-74519733D01*
X143644086Y-74693532D01*
X143644090Y-74693539D01*
X143769116Y-74845883D01*
X143921460Y-74970909D01*
X143921467Y-74970913D01*
X144095266Y-75063811D01*
X144095269Y-75063811D01*
X144095273Y-75063814D01*
X144283868Y-75121024D01*
X144480000Y-75140341D01*
X144676132Y-75121024D01*
X144864727Y-75063814D01*
X145038538Y-74970910D01*
X145190883Y-74845883D01*
X145315910Y-74693538D01*
X145408814Y-74519727D01*
X145466024Y-74331132D01*
X145485341Y-74135000D01*
X145466024Y-73938868D01*
X145408814Y-73750273D01*
X145408811Y-73750269D01*
X145408811Y-73750266D01*
X145315913Y-73576467D01*
X145315909Y-73576460D01*
X145190883Y-73424116D01*
X145038539Y-73299090D01*
X145038532Y-73299086D01*
X144864733Y-73206188D01*
X144864727Y-73206186D01*
X144727011Y-73164410D01*
X144676129Y-73148975D01*
X144480000Y-73129659D01*
X144283870Y-73148975D01*
X144095266Y-73206188D01*
X143921467Y-73299086D01*
X143921460Y-73299090D01*
X143769116Y-73424116D01*
X143644090Y-73576460D01*
X143644086Y-73576467D01*
X143551188Y-73750266D01*
X143493975Y-73938870D01*
X143474659Y-74135000D01*
X141945500Y-74135000D01*
X141945500Y-71595000D01*
X143474659Y-71595000D01*
X143493975Y-71791129D01*
X143551188Y-71979733D01*
X143644086Y-72153532D01*
X143644090Y-72153539D01*
X143769116Y-72305883D01*
X143921460Y-72430909D01*
X143921467Y-72430913D01*
X144095266Y-72523811D01*
X144095269Y-72523811D01*
X144095273Y-72523814D01*
X144283868Y-72581024D01*
X144480000Y-72600341D01*
X144676132Y-72581024D01*
X144864727Y-72523814D01*
X145038538Y-72430910D01*
X145190883Y-72305883D01*
X145315910Y-72153538D01*
X145388653Y-72017445D01*
X145408811Y-71979733D01*
X145408811Y-71979732D01*
X145408814Y-71979727D01*
X145466024Y-71791132D01*
X145485341Y-71595000D01*
X145466024Y-71398868D01*
X145408814Y-71210273D01*
X145408811Y-71210269D01*
X145408811Y-71210266D01*
X145315913Y-71036467D01*
X145315909Y-71036460D01*
X145190883Y-70884116D01*
X145038539Y-70759090D01*
X145038532Y-70759086D01*
X144864733Y-70666188D01*
X144864727Y-70666186D01*
X144676132Y-70608976D01*
X144676129Y-70608975D01*
X144480000Y-70589659D01*
X144283870Y-70608975D01*
X144095266Y-70666188D01*
X143921467Y-70759086D01*
X143921460Y-70759090D01*
X143769116Y-70884116D01*
X143644090Y-71036460D01*
X143644086Y-71036467D01*
X143551188Y-71210266D01*
X143493975Y-71398870D01*
X143474659Y-71595000D01*
X141945500Y-71595000D01*
X141945500Y-61273711D01*
X142594500Y-61273711D01*
X142594500Y-61516288D01*
X142626161Y-61756785D01*
X142688947Y-61991104D01*
X142781773Y-62215205D01*
X142781776Y-62215212D01*
X142903064Y-62425289D01*
X142903066Y-62425292D01*
X142903067Y-62425293D01*
X143050733Y-62617736D01*
X143050739Y-62617743D01*
X143222256Y-62789260D01*
X143222262Y-62789265D01*
X143414711Y-62936936D01*
X143624788Y-63058224D01*
X143848900Y-63151054D01*
X144083211Y-63213838D01*
X144263586Y-63237584D01*
X144323711Y-63245500D01*
X144323712Y-63245500D01*
X144566289Y-63245500D01*
X144614388Y-63239167D01*
X144806789Y-63213838D01*
X145041100Y-63151054D01*
X145265212Y-63058224D01*
X145475289Y-62936936D01*
X145667738Y-62789265D01*
X145839265Y-62617738D01*
X145986936Y-62425289D01*
X146108224Y-62215212D01*
X146201054Y-61991100D01*
X146263838Y-61756789D01*
X146295500Y-61516288D01*
X146295500Y-61273712D01*
X146295500Y-61273711D01*
X186594500Y-61273711D01*
X186594500Y-61516288D01*
X186626161Y-61756785D01*
X186688947Y-61991104D01*
X186781773Y-62215205D01*
X186781776Y-62215212D01*
X186903064Y-62425289D01*
X186903066Y-62425292D01*
X186903067Y-62425293D01*
X187050733Y-62617736D01*
X187050739Y-62617743D01*
X187222256Y-62789260D01*
X187222262Y-62789265D01*
X187414711Y-62936936D01*
X187624788Y-63058224D01*
X187848900Y-63151054D01*
X188083211Y-63213838D01*
X188263586Y-63237584D01*
X188323711Y-63245500D01*
X188323712Y-63245500D01*
X188566289Y-63245500D01*
X188614388Y-63239167D01*
X188806789Y-63213838D01*
X189041100Y-63151054D01*
X189265212Y-63058224D01*
X189475289Y-62936936D01*
X189667738Y-62789265D01*
X189839265Y-62617738D01*
X189986936Y-62425289D01*
X190108224Y-62215212D01*
X190201054Y-61991100D01*
X190263838Y-61756789D01*
X190295500Y-61516288D01*
X190295500Y-61273712D01*
X190263838Y-61033211D01*
X190201054Y-60798900D01*
X190108224Y-60574788D01*
X189986936Y-60364711D01*
X189839265Y-60172262D01*
X189839260Y-60172256D01*
X189667743Y-60000739D01*
X189667736Y-60000733D01*
X189475293Y-59853067D01*
X189475292Y-59853066D01*
X189475289Y-59853064D01*
X189265212Y-59731776D01*
X189265205Y-59731773D01*
X189041104Y-59638947D01*
X188806785Y-59576161D01*
X188566289Y-59544500D01*
X188566288Y-59544500D01*
X188323712Y-59544500D01*
X188323711Y-59544500D01*
X188083214Y-59576161D01*
X187848895Y-59638947D01*
X187624794Y-59731773D01*
X187624785Y-59731777D01*
X187414706Y-59853067D01*
X187222263Y-60000733D01*
X187222256Y-60000739D01*
X187050739Y-60172256D01*
X187050733Y-60172263D01*
X186903067Y-60364706D01*
X186781777Y-60574785D01*
X186781773Y-60574794D01*
X186688947Y-60798895D01*
X186626161Y-61033214D01*
X186594500Y-61273711D01*
X146295500Y-61273711D01*
X146263838Y-61033211D01*
X146201054Y-60798900D01*
X146108224Y-60574788D01*
X145986936Y-60364711D01*
X145839265Y-60172262D01*
X145839260Y-60172256D01*
X145667743Y-60000739D01*
X145667736Y-60000733D01*
X145475293Y-59853067D01*
X145475292Y-59853066D01*
X145475289Y-59853064D01*
X145265212Y-59731776D01*
X145265205Y-59731773D01*
X145041104Y-59638947D01*
X144806785Y-59576161D01*
X144566289Y-59544500D01*
X144566288Y-59544500D01*
X144323712Y-59544500D01*
X144323711Y-59544500D01*
X144083214Y-59576161D01*
X143848895Y-59638947D01*
X143624794Y-59731773D01*
X143624785Y-59731777D01*
X143414706Y-59853067D01*
X143222263Y-60000733D01*
X143222256Y-60000739D01*
X143050739Y-60172256D01*
X143050733Y-60172263D01*
X142903067Y-60364706D01*
X142781777Y-60574785D01*
X142781773Y-60574794D01*
X142688947Y-60798895D01*
X142626161Y-61033214D01*
X142594500Y-61273711D01*
X141945500Y-61273711D01*
X141945500Y-59019500D01*
X141965185Y-58952461D01*
X142017989Y-58906706D01*
X142069500Y-58895500D01*
X190820500Y-58895500D01*
X190887539Y-58915185D01*
G37*
G04 #@! TD.AperFunction*
G04 #@! TA.AperFunction,NonConductor*
G36*
X183913834Y-100877914D02*
G01*
X183969767Y-100919786D01*
X183994184Y-100985250D01*
X183994500Y-100994096D01*
X183994500Y-103359115D01*
X183974815Y-103426154D01*
X183958181Y-103446796D01*
X175646796Y-111758181D01*
X175585473Y-111791666D01*
X175559115Y-111794500D01*
X171330885Y-111794500D01*
X171263846Y-111774815D01*
X171243204Y-111758181D01*
X168392204Y-108907181D01*
X168358719Y-108845858D01*
X168363703Y-108776166D01*
X168405575Y-108720233D01*
X168471039Y-108695816D01*
X168479885Y-108695500D01*
X170220500Y-108695500D01*
X170287539Y-108715185D01*
X170333294Y-108767989D01*
X170344500Y-108819500D01*
X170344500Y-109014752D01*
X170356131Y-109073229D01*
X170356132Y-109073230D01*
X170400447Y-109139552D01*
X170466769Y-109183867D01*
X170466770Y-109183868D01*
X170525247Y-109195499D01*
X170525250Y-109195500D01*
X170525252Y-109195500D01*
X172364750Y-109195500D01*
X172364751Y-109195499D01*
X172379568Y-109192552D01*
X172423229Y-109183868D01*
X172423229Y-109183867D01*
X172423231Y-109183867D01*
X172489552Y-109139552D01*
X172533867Y-109073231D01*
X172533867Y-109073229D01*
X172533868Y-109073229D01*
X172545499Y-109014752D01*
X172545500Y-109014750D01*
X172545500Y-107895097D01*
X172565185Y-107828058D01*
X172581813Y-107807421D01*
X172720579Y-107668655D01*
X172781898Y-107635173D01*
X172851590Y-107640157D01*
X172907524Y-107682028D01*
X172931941Y-107747492D01*
X172927523Y-107790273D01*
X172898603Y-107891914D01*
X172898602Y-107891917D01*
X172879785Y-108094999D01*
X172879785Y-108095000D01*
X172898602Y-108298082D01*
X172954417Y-108494247D01*
X172954422Y-108494260D01*
X173045327Y-108676821D01*
X173168237Y-108839581D01*
X173318958Y-108976980D01*
X173318960Y-108976982D01*
X173379955Y-109014748D01*
X173492363Y-109084348D01*
X173682544Y-109158024D01*
X173883024Y-109195500D01*
X173883026Y-109195500D01*
X174086974Y-109195500D01*
X174086976Y-109195500D01*
X174287456Y-109158024D01*
X174477637Y-109084348D01*
X174651041Y-108976981D01*
X174801764Y-108839579D01*
X174924673Y-108676821D01*
X175015582Y-108494250D01*
X175071397Y-108298083D01*
X175090215Y-108095000D01*
X175089178Y-108083814D01*
X175071397Y-107891917D01*
X175020641Y-107713532D01*
X175015582Y-107695750D01*
X175008749Y-107682028D01*
X174937892Y-107539727D01*
X174924673Y-107513179D01*
X174801764Y-107350421D01*
X174801762Y-107350418D01*
X174651041Y-107213019D01*
X174651039Y-107213017D01*
X174477642Y-107105655D01*
X174477635Y-107105651D01*
X174335135Y-107050447D01*
X174287456Y-107031976D01*
X174086976Y-106994500D01*
X173883024Y-106994500D01*
X173682544Y-107031976D01*
X173682540Y-107031977D01*
X173676909Y-107033030D01*
X173676453Y-107030593D01*
X173617204Y-107030069D01*
X173558762Y-106991775D01*
X173530302Y-106927965D01*
X173540857Y-106858897D01*
X173565508Y-106823726D01*
X174357417Y-106031819D01*
X174418740Y-105998334D01*
X174445098Y-105995500D01*
X178358331Y-105995500D01*
X178358347Y-105995501D01*
X178365943Y-105995501D01*
X178524054Y-105995501D01*
X178524057Y-105995501D01*
X178676785Y-105954577D01*
X178726904Y-105925639D01*
X178813716Y-105875520D01*
X178925520Y-105763716D01*
X178925520Y-105763714D01*
X178935728Y-105753507D01*
X178935730Y-105753504D01*
X183782819Y-100906415D01*
X183844142Y-100872930D01*
X183913834Y-100877914D01*
G37*
G04 #@! TD.AperFunction*
M02*
