G04 #@! TF.GenerationSoftware,KiCad,Pcbnew,8.0.5*
G04 #@! TF.CreationDate,2025-02-12T16:10:39+08:00*
G04 #@! TF.ProjectId,arduino_solar_bikelight_1,61726475-696e-46f5-9f73-6f6c61725f62,rev?*
G04 #@! TF.SameCoordinates,Original*
G04 #@! TF.FileFunction,Soldermask,Top*
G04 #@! TF.FilePolarity,Negative*
%FSLAX46Y46*%
G04 Gerber Fmt 4.6, Leading zero omitted, Abs format (unit mm)*
G04 Created by KiCad (PCBNEW 8.0.5) date 2025-02-12 16:10:39*
%MOMM*%
%LPD*%
G01*
G04 APERTURE LIST*
G04 Aperture macros list*
%AMRoundRect*
0 Rectangle with rounded corners*
0 $1 Rounding radius*
0 $2 $3 $4 $5 $6 $7 $8 $9 X,Y pos of 4 corners*
0 Add a 4 corners polygon primitive as box body*
4,1,4,$2,$3,$4,$5,$6,$7,$8,$9,$2,$3,0*
0 Add four circle primitives for the rounded corners*
1,1,$1+$1,$2,$3*
1,1,$1+$1,$4,$5*
1,1,$1+$1,$6,$7*
1,1,$1+$1,$8,$9*
0 Add four rect primitives between the rounded corners*
20,1,$1+$1,$2,$3,$4,$5,0*
20,1,$1+$1,$4,$5,$6,$7,0*
20,1,$1+$1,$6,$7,$8,$9,0*
20,1,$1+$1,$8,$9,$2,$3,0*%
G04 Aperture macros list end*
%ADD10RoundRect,0.250000X-0.350000X-0.450000X0.350000X-0.450000X0.350000X0.450000X-0.350000X0.450000X0*%
%ADD11C,3.200000*%
%ADD12RoundRect,0.250000X0.450000X-0.350000X0.450000X0.350000X-0.450000X0.350000X-0.450000X-0.350000X0*%
%ADD13R,1.600000X1.600000*%
%ADD14O,1.600000X1.600000*%
%ADD15C,1.200000*%
%ADD16RoundRect,0.250000X-0.750000X0.600000X-0.750000X-0.600000X0.750000X-0.600000X0.750000X0.600000X0*%
%ADD17O,2.000000X1.700000*%
%ADD18C,1.800000*%
%ADD19O,1.700000X2.900000*%
%ADD20RoundRect,0.150000X-0.587500X-0.150000X0.587500X-0.150000X0.587500X0.150000X-0.587500X0.150000X0*%
%ADD21R,1.700000X1.700000*%
%ADD22O,1.700000X1.700000*%
%ADD23R,1.800000X1.800000*%
G04 APERTURE END LIST*
D10*
X163995000Y-78595000D03*
X165995000Y-78595000D03*
D11*
X188445000Y-115395000D03*
D12*
X149945000Y-87395000D03*
X149945000Y-85395000D03*
X147445000Y-87395000D03*
X147445000Y-85395000D03*
D13*
X159720000Y-107155000D03*
D14*
X159720000Y-104615000D03*
X159720000Y-102075000D03*
X159720000Y-99535000D03*
X159720000Y-96995000D03*
X159720000Y-94455000D03*
X159720000Y-91915000D03*
X159720000Y-89375000D03*
X159720000Y-86835000D03*
X159720000Y-84295000D03*
X159720000Y-81755000D03*
X159720000Y-79215000D03*
X159720000Y-76675000D03*
X159720000Y-74135000D03*
X159720000Y-71595000D03*
X144480000Y-71595000D03*
X144480000Y-74135000D03*
X144480000Y-76675000D03*
X144480000Y-79215000D03*
X144480000Y-81755000D03*
X144480000Y-84295000D03*
X144480000Y-86835000D03*
X144480000Y-89375000D03*
X144480000Y-91915000D03*
X144480000Y-94455000D03*
X144480000Y-96995000D03*
X144480000Y-99535000D03*
X144480000Y-102075000D03*
X144480000Y-104615000D03*
X144480000Y-107155000D03*
D11*
X144445000Y-61395000D03*
X188445000Y-61395000D03*
D10*
X163995000Y-86845000D03*
X165995000Y-86845000D03*
D15*
X185445000Y-101295000D03*
D16*
X187445000Y-102895000D03*
D17*
X187445000Y-105395000D03*
D18*
X180520000Y-72895000D03*
X189520000Y-72895000D03*
D19*
X182520000Y-79145000D03*
X182520000Y-66645000D03*
X187520000Y-79145000D03*
X187520000Y-66645000D03*
D20*
X164507500Y-89695000D03*
X164507500Y-91595000D03*
X166382500Y-90645000D03*
D21*
X188445000Y-85735000D03*
D22*
X188445000Y-88275000D03*
X188445000Y-90815000D03*
X188445000Y-93355000D03*
X188445000Y-95895000D03*
D20*
X164507500Y-81595000D03*
X164507500Y-83495000D03*
X166382500Y-82545000D03*
D10*
X163995000Y-94595000D03*
X165995000Y-94595000D03*
D11*
X144445000Y-115395000D03*
D20*
X164507500Y-97445000D03*
X164507500Y-99345000D03*
X166382500Y-98395000D03*
D23*
X150445000Y-94095000D03*
D18*
X152985000Y-94095000D03*
D23*
X171445000Y-94095000D03*
D18*
X173985000Y-94095000D03*
D23*
X171445000Y-108095000D03*
D18*
X173985000Y-108095000D03*
D23*
X150445000Y-80095000D03*
D18*
X152985000Y-80095000D03*
D23*
X150445000Y-108095000D03*
D18*
X152985000Y-108095000D03*
D23*
X171445000Y-66095000D03*
D18*
X173985000Y-66095000D03*
D23*
X171445000Y-80095000D03*
D18*
X173985000Y-80095000D03*
D23*
X150445000Y-66095000D03*
D18*
X152985000Y-66095000D03*
M02*
