%TF.GenerationSoftware,KiCad,Pcbnew,8.0.5*%
%TF.CreationDate,2025-02-13T10:20:45+08:00*%
%TF.ProjectId,arduino_solar_bikelight_1,61726475-696e-46f5-9f73-6f6c61725f62,rev?*%
%TF.SameCoordinates,Original*%
%TF.FileFunction,Drillmap*%
%TF.FilePolarity,Positive*%
%FSLAX45Y45*%
G04 Gerber Fmt 4.5, Leading zero omitted, Abs format (unit mm)*
G04 Created by KiCad (PCBNEW 8.0.5) date 2025-02-13 10:20:45*
%MOMM*%
%LPD*%
G01*
G04 APERTURE LIST*
%ADD10C,0.050000*%
%ADD11C,0.200000*%
%ADD12C,0.120000*%
%ADD13C,0.180000*%
%ADD14C,0.320000*%
G04 APERTURE END LIST*
D10*
X14144500Y-5839500D02*
X19144500Y-5839500D01*
X19144500Y-11839500D01*
X14144500Y-11839500D01*
X14144500Y-5839500D01*
D11*
D12*
X18484500Y-10069500D02*
X18604500Y-10189500D01*
X18604500Y-10069500D02*
X18484500Y-10189500D01*
D13*
X18142000Y-7289500D02*
G75*
G02*
X17962000Y-7289500I-90000J0D01*
G01*
X17962000Y-7289500D02*
G75*
G02*
X18142000Y-7289500I90000J0D01*
G01*
X19042000Y-7289500D02*
G75*
G02*
X18862000Y-7289500I-90000J0D01*
G01*
X18862000Y-7289500D02*
G75*
G02*
X19042000Y-7289500I90000J0D01*
G01*
D14*
X14444500Y-5979500D02*
X14444500Y-6299500D01*
X14284500Y-6139500D02*
X14604500Y-6139500D01*
X14444500Y-11379500D02*
X14444500Y-11699500D01*
X14284500Y-11539500D02*
X14604500Y-11539500D01*
X18844500Y-5979500D02*
X18844500Y-6299500D01*
X18684500Y-6139500D02*
X19004500Y-6139500D01*
X18844500Y-11379500D02*
X18844500Y-11699500D01*
X18684500Y-11539500D02*
X19004500Y-11539500D01*
D11*
X14402777Y-12153484D02*
X14402777Y-11953484D01*
X14402777Y-11953484D02*
X14450396Y-11953484D01*
X14450396Y-11953484D02*
X14478967Y-11963008D01*
X14478967Y-11963008D02*
X14498015Y-11982055D01*
X14498015Y-11982055D02*
X14507539Y-12001103D01*
X14507539Y-12001103D02*
X14517062Y-12039198D01*
X14517062Y-12039198D02*
X14517062Y-12067769D01*
X14517062Y-12067769D02*
X14507539Y-12105865D01*
X14507539Y-12105865D02*
X14498015Y-12124912D01*
X14498015Y-12124912D02*
X14478967Y-12143960D01*
X14478967Y-12143960D02*
X14450396Y-12153484D01*
X14450396Y-12153484D02*
X14402777Y-12153484D01*
X14602777Y-12153484D02*
X14602777Y-12020150D01*
X14602777Y-12058246D02*
X14612301Y-12039198D01*
X14612301Y-12039198D02*
X14621824Y-12029674D01*
X14621824Y-12029674D02*
X14640872Y-12020150D01*
X14640872Y-12020150D02*
X14659920Y-12020150D01*
X14726586Y-12153484D02*
X14726586Y-12020150D01*
X14726586Y-11953484D02*
X14717062Y-11963008D01*
X14717062Y-11963008D02*
X14726586Y-11972531D01*
X14726586Y-11972531D02*
X14736110Y-11963008D01*
X14736110Y-11963008D02*
X14726586Y-11953484D01*
X14726586Y-11953484D02*
X14726586Y-11972531D01*
X14850396Y-12153484D02*
X14831348Y-12143960D01*
X14831348Y-12143960D02*
X14821824Y-12124912D01*
X14821824Y-12124912D02*
X14821824Y-11953484D01*
X14955158Y-12153484D02*
X14936110Y-12143960D01*
X14936110Y-12143960D02*
X14926586Y-12124912D01*
X14926586Y-12124912D02*
X14926586Y-11953484D01*
X15183729Y-12153484D02*
X15183729Y-11953484D01*
X15183729Y-11953484D02*
X15250396Y-12096341D01*
X15250396Y-12096341D02*
X15317062Y-11953484D01*
X15317062Y-11953484D02*
X15317062Y-12153484D01*
X15498015Y-12153484D02*
X15498015Y-12048722D01*
X15498015Y-12048722D02*
X15488491Y-12029674D01*
X15488491Y-12029674D02*
X15469443Y-12020150D01*
X15469443Y-12020150D02*
X15431348Y-12020150D01*
X15431348Y-12020150D02*
X15412301Y-12029674D01*
X15498015Y-12143960D02*
X15478967Y-12153484D01*
X15478967Y-12153484D02*
X15431348Y-12153484D01*
X15431348Y-12153484D02*
X15412301Y-12143960D01*
X15412301Y-12143960D02*
X15402777Y-12124912D01*
X15402777Y-12124912D02*
X15402777Y-12105865D01*
X15402777Y-12105865D02*
X15412301Y-12086817D01*
X15412301Y-12086817D02*
X15431348Y-12077293D01*
X15431348Y-12077293D02*
X15478967Y-12077293D01*
X15478967Y-12077293D02*
X15498015Y-12067769D01*
X15593253Y-12020150D02*
X15593253Y-12220150D01*
X15593253Y-12029674D02*
X15612301Y-12020150D01*
X15612301Y-12020150D02*
X15650396Y-12020150D01*
X15650396Y-12020150D02*
X15669443Y-12029674D01*
X15669443Y-12029674D02*
X15678967Y-12039198D01*
X15678967Y-12039198D02*
X15688491Y-12058246D01*
X15688491Y-12058246D02*
X15688491Y-12115388D01*
X15688491Y-12115388D02*
X15678967Y-12134436D01*
X15678967Y-12134436D02*
X15669443Y-12143960D01*
X15669443Y-12143960D02*
X15650396Y-12153484D01*
X15650396Y-12153484D02*
X15612301Y-12153484D01*
X15612301Y-12153484D02*
X15593253Y-12143960D01*
X15774205Y-12134436D02*
X15783729Y-12143960D01*
X15783729Y-12143960D02*
X15774205Y-12153484D01*
X15774205Y-12153484D02*
X15764682Y-12143960D01*
X15764682Y-12143960D02*
X15774205Y-12134436D01*
X15774205Y-12134436D02*
X15774205Y-12153484D01*
X15774205Y-12029674D02*
X15783729Y-12039198D01*
X15783729Y-12039198D02*
X15774205Y-12048722D01*
X15774205Y-12048722D02*
X15764682Y-12039198D01*
X15764682Y-12039198D02*
X15774205Y-12029674D01*
X15774205Y-12029674D02*
X15774205Y-12048722D01*
D12*
X14022000Y-12422000D02*
X14142000Y-12542000D01*
X14142000Y-12422000D02*
X14022000Y-12542000D01*
D11*
X14507539Y-12573484D02*
X14393253Y-12573484D01*
X14450396Y-12573484D02*
X14450396Y-12373484D01*
X14450396Y-12373484D02*
X14431348Y-12402055D01*
X14431348Y-12402055D02*
X14412301Y-12421103D01*
X14412301Y-12421103D02*
X14393253Y-12430627D01*
X14593253Y-12554436D02*
X14602777Y-12563960D01*
X14602777Y-12563960D02*
X14593253Y-12573484D01*
X14593253Y-12573484D02*
X14583729Y-12563960D01*
X14583729Y-12563960D02*
X14593253Y-12554436D01*
X14593253Y-12554436D02*
X14593253Y-12573484D01*
X14678967Y-12392531D02*
X14688491Y-12383008D01*
X14688491Y-12383008D02*
X14707539Y-12373484D01*
X14707539Y-12373484D02*
X14755158Y-12373484D01*
X14755158Y-12373484D02*
X14774205Y-12383008D01*
X14774205Y-12383008D02*
X14783729Y-12392531D01*
X14783729Y-12392531D02*
X14793253Y-12411579D01*
X14793253Y-12411579D02*
X14793253Y-12430627D01*
X14793253Y-12430627D02*
X14783729Y-12459198D01*
X14783729Y-12459198D02*
X14669443Y-12573484D01*
X14669443Y-12573484D02*
X14793253Y-12573484D01*
X14917062Y-12373484D02*
X14936110Y-12373484D01*
X14936110Y-12373484D02*
X14955158Y-12383008D01*
X14955158Y-12383008D02*
X14964682Y-12392531D01*
X14964682Y-12392531D02*
X14974205Y-12411579D01*
X14974205Y-12411579D02*
X14983729Y-12449674D01*
X14983729Y-12449674D02*
X14983729Y-12497293D01*
X14983729Y-12497293D02*
X14974205Y-12535388D01*
X14974205Y-12535388D02*
X14964682Y-12554436D01*
X14964682Y-12554436D02*
X14955158Y-12563960D01*
X14955158Y-12563960D02*
X14936110Y-12573484D01*
X14936110Y-12573484D02*
X14917062Y-12573484D01*
X14917062Y-12573484D02*
X14898015Y-12563960D01*
X14898015Y-12563960D02*
X14888491Y-12554436D01*
X14888491Y-12554436D02*
X14878967Y-12535388D01*
X14878967Y-12535388D02*
X14869443Y-12497293D01*
X14869443Y-12497293D02*
X14869443Y-12449674D01*
X14869443Y-12449674D02*
X14878967Y-12411579D01*
X14878967Y-12411579D02*
X14888491Y-12392531D01*
X14888491Y-12392531D02*
X14898015Y-12383008D01*
X14898015Y-12383008D02*
X14917062Y-12373484D01*
X15107539Y-12373484D02*
X15126586Y-12373484D01*
X15126586Y-12373484D02*
X15145634Y-12383008D01*
X15145634Y-12383008D02*
X15155158Y-12392531D01*
X15155158Y-12392531D02*
X15164682Y-12411579D01*
X15164682Y-12411579D02*
X15174205Y-12449674D01*
X15174205Y-12449674D02*
X15174205Y-12497293D01*
X15174205Y-12497293D02*
X15164682Y-12535388D01*
X15164682Y-12535388D02*
X15155158Y-12554436D01*
X15155158Y-12554436D02*
X15145634Y-12563960D01*
X15145634Y-12563960D02*
X15126586Y-12573484D01*
X15126586Y-12573484D02*
X15107539Y-12573484D01*
X15107539Y-12573484D02*
X15088491Y-12563960D01*
X15088491Y-12563960D02*
X15078967Y-12554436D01*
X15078967Y-12554436D02*
X15069443Y-12535388D01*
X15069443Y-12535388D02*
X15059920Y-12497293D01*
X15059920Y-12497293D02*
X15059920Y-12449674D01*
X15059920Y-12449674D02*
X15069443Y-12411579D01*
X15069443Y-12411579D02*
X15078967Y-12392531D01*
X15078967Y-12392531D02*
X15088491Y-12383008D01*
X15088491Y-12383008D02*
X15107539Y-12373484D01*
X15259920Y-12573484D02*
X15259920Y-12440150D01*
X15259920Y-12459198D02*
X15269443Y-12449674D01*
X15269443Y-12449674D02*
X15288491Y-12440150D01*
X15288491Y-12440150D02*
X15317063Y-12440150D01*
X15317063Y-12440150D02*
X15336110Y-12449674D01*
X15336110Y-12449674D02*
X15345634Y-12468722D01*
X15345634Y-12468722D02*
X15345634Y-12573484D01*
X15345634Y-12468722D02*
X15355158Y-12449674D01*
X15355158Y-12449674D02*
X15374205Y-12440150D01*
X15374205Y-12440150D02*
X15402777Y-12440150D01*
X15402777Y-12440150D02*
X15421824Y-12449674D01*
X15421824Y-12449674D02*
X15431348Y-12468722D01*
X15431348Y-12468722D02*
X15431348Y-12573484D01*
X15526586Y-12573484D02*
X15526586Y-12440150D01*
X15526586Y-12459198D02*
X15536110Y-12449674D01*
X15536110Y-12449674D02*
X15555158Y-12440150D01*
X15555158Y-12440150D02*
X15583729Y-12440150D01*
X15583729Y-12440150D02*
X15602777Y-12449674D01*
X15602777Y-12449674D02*
X15612301Y-12468722D01*
X15612301Y-12468722D02*
X15612301Y-12573484D01*
X15612301Y-12468722D02*
X15621824Y-12449674D01*
X15621824Y-12449674D02*
X15640872Y-12440150D01*
X15640872Y-12440150D02*
X15669443Y-12440150D01*
X15669443Y-12440150D02*
X15688491Y-12449674D01*
X15688491Y-12449674D02*
X15698015Y-12468722D01*
X15698015Y-12468722D02*
X15698015Y-12573484D01*
X16088491Y-12363960D02*
X15917063Y-12621103D01*
X16345634Y-12373484D02*
X16364682Y-12373484D01*
X16364682Y-12373484D02*
X16383729Y-12383008D01*
X16383729Y-12383008D02*
X16393253Y-12392531D01*
X16393253Y-12392531D02*
X16402777Y-12411579D01*
X16402777Y-12411579D02*
X16412301Y-12449674D01*
X16412301Y-12449674D02*
X16412301Y-12497293D01*
X16412301Y-12497293D02*
X16402777Y-12535388D01*
X16402777Y-12535388D02*
X16393253Y-12554436D01*
X16393253Y-12554436D02*
X16383729Y-12563960D01*
X16383729Y-12563960D02*
X16364682Y-12573484D01*
X16364682Y-12573484D02*
X16345634Y-12573484D01*
X16345634Y-12573484D02*
X16326586Y-12563960D01*
X16326586Y-12563960D02*
X16317063Y-12554436D01*
X16317063Y-12554436D02*
X16307539Y-12535388D01*
X16307539Y-12535388D02*
X16298015Y-12497293D01*
X16298015Y-12497293D02*
X16298015Y-12449674D01*
X16298015Y-12449674D02*
X16307539Y-12411579D01*
X16307539Y-12411579D02*
X16317063Y-12392531D01*
X16317063Y-12392531D02*
X16326586Y-12383008D01*
X16326586Y-12383008D02*
X16345634Y-12373484D01*
X16498015Y-12554436D02*
X16507539Y-12563960D01*
X16507539Y-12563960D02*
X16498015Y-12573484D01*
X16498015Y-12573484D02*
X16488491Y-12563960D01*
X16488491Y-12563960D02*
X16498015Y-12554436D01*
X16498015Y-12554436D02*
X16498015Y-12573484D01*
X16631348Y-12373484D02*
X16650396Y-12373484D01*
X16650396Y-12373484D02*
X16669444Y-12383008D01*
X16669444Y-12383008D02*
X16678967Y-12392531D01*
X16678967Y-12392531D02*
X16688491Y-12411579D01*
X16688491Y-12411579D02*
X16698015Y-12449674D01*
X16698015Y-12449674D02*
X16698015Y-12497293D01*
X16698015Y-12497293D02*
X16688491Y-12535388D01*
X16688491Y-12535388D02*
X16678967Y-12554436D01*
X16678967Y-12554436D02*
X16669444Y-12563960D01*
X16669444Y-12563960D02*
X16650396Y-12573484D01*
X16650396Y-12573484D02*
X16631348Y-12573484D01*
X16631348Y-12573484D02*
X16612301Y-12563960D01*
X16612301Y-12563960D02*
X16602777Y-12554436D01*
X16602777Y-12554436D02*
X16593253Y-12535388D01*
X16593253Y-12535388D02*
X16583729Y-12497293D01*
X16583729Y-12497293D02*
X16583729Y-12449674D01*
X16583729Y-12449674D02*
X16593253Y-12411579D01*
X16593253Y-12411579D02*
X16602777Y-12392531D01*
X16602777Y-12392531D02*
X16612301Y-12383008D01*
X16612301Y-12383008D02*
X16631348Y-12373484D01*
X16869444Y-12440150D02*
X16869444Y-12573484D01*
X16821825Y-12363960D02*
X16774206Y-12506817D01*
X16774206Y-12506817D02*
X16898015Y-12506817D01*
X16955158Y-12373484D02*
X17088491Y-12373484D01*
X17088491Y-12373484D02*
X17002777Y-12573484D01*
X17155158Y-12392531D02*
X17164682Y-12383008D01*
X17164682Y-12383008D02*
X17183729Y-12373484D01*
X17183729Y-12373484D02*
X17231349Y-12373484D01*
X17231349Y-12373484D02*
X17250396Y-12383008D01*
X17250396Y-12383008D02*
X17259920Y-12392531D01*
X17259920Y-12392531D02*
X17269444Y-12411579D01*
X17269444Y-12411579D02*
X17269444Y-12430627D01*
X17269444Y-12430627D02*
X17259920Y-12459198D01*
X17259920Y-12459198D02*
X17145634Y-12573484D01*
X17145634Y-12573484D02*
X17269444Y-12573484D01*
X17345634Y-12373484D02*
X17345634Y-12411579D01*
X17421825Y-12373484D02*
X17421825Y-12411579D01*
X17717063Y-12649674D02*
X17707539Y-12640150D01*
X17707539Y-12640150D02*
X17688491Y-12611579D01*
X17688491Y-12611579D02*
X17678968Y-12592531D01*
X17678968Y-12592531D02*
X17669444Y-12563960D01*
X17669444Y-12563960D02*
X17659920Y-12516341D01*
X17659920Y-12516341D02*
X17659920Y-12478246D01*
X17659920Y-12478246D02*
X17669444Y-12430627D01*
X17669444Y-12430627D02*
X17678968Y-12402055D01*
X17678968Y-12402055D02*
X17688491Y-12383008D01*
X17688491Y-12383008D02*
X17707539Y-12354436D01*
X17707539Y-12354436D02*
X17717063Y-12344912D01*
X17898015Y-12573484D02*
X17783730Y-12573484D01*
X17840872Y-12573484D02*
X17840872Y-12373484D01*
X17840872Y-12373484D02*
X17821825Y-12402055D01*
X17821825Y-12402055D02*
X17802777Y-12421103D01*
X17802777Y-12421103D02*
X17783730Y-12430627D01*
X18136111Y-12573484D02*
X18136111Y-12373484D01*
X18221825Y-12573484D02*
X18221825Y-12468722D01*
X18221825Y-12468722D02*
X18212301Y-12449674D01*
X18212301Y-12449674D02*
X18193253Y-12440150D01*
X18193253Y-12440150D02*
X18164682Y-12440150D01*
X18164682Y-12440150D02*
X18145634Y-12449674D01*
X18145634Y-12449674D02*
X18136111Y-12459198D01*
X18345634Y-12573484D02*
X18326587Y-12563960D01*
X18326587Y-12563960D02*
X18317063Y-12554436D01*
X18317063Y-12554436D02*
X18307539Y-12535388D01*
X18307539Y-12535388D02*
X18307539Y-12478246D01*
X18307539Y-12478246D02*
X18317063Y-12459198D01*
X18317063Y-12459198D02*
X18326587Y-12449674D01*
X18326587Y-12449674D02*
X18345634Y-12440150D01*
X18345634Y-12440150D02*
X18374206Y-12440150D01*
X18374206Y-12440150D02*
X18393253Y-12449674D01*
X18393253Y-12449674D02*
X18402777Y-12459198D01*
X18402777Y-12459198D02*
X18412301Y-12478246D01*
X18412301Y-12478246D02*
X18412301Y-12535388D01*
X18412301Y-12535388D02*
X18402777Y-12554436D01*
X18402777Y-12554436D02*
X18393253Y-12563960D01*
X18393253Y-12563960D02*
X18374206Y-12573484D01*
X18374206Y-12573484D02*
X18345634Y-12573484D01*
X18526587Y-12573484D02*
X18507539Y-12563960D01*
X18507539Y-12563960D02*
X18498015Y-12544912D01*
X18498015Y-12544912D02*
X18498015Y-12373484D01*
X18678968Y-12563960D02*
X18659920Y-12573484D01*
X18659920Y-12573484D02*
X18621825Y-12573484D01*
X18621825Y-12573484D02*
X18602777Y-12563960D01*
X18602777Y-12563960D02*
X18593253Y-12544912D01*
X18593253Y-12544912D02*
X18593253Y-12468722D01*
X18593253Y-12468722D02*
X18602777Y-12449674D01*
X18602777Y-12449674D02*
X18621825Y-12440150D01*
X18621825Y-12440150D02*
X18659920Y-12440150D01*
X18659920Y-12440150D02*
X18678968Y-12449674D01*
X18678968Y-12449674D02*
X18688492Y-12468722D01*
X18688492Y-12468722D02*
X18688492Y-12487769D01*
X18688492Y-12487769D02*
X18593253Y-12506817D01*
X18755158Y-12649674D02*
X18764682Y-12640150D01*
X18764682Y-12640150D02*
X18783730Y-12611579D01*
X18783730Y-12611579D02*
X18793253Y-12592531D01*
X18793253Y-12592531D02*
X18802777Y-12563960D01*
X18802777Y-12563960D02*
X18812301Y-12516341D01*
X18812301Y-12516341D02*
X18812301Y-12478246D01*
X18812301Y-12478246D02*
X18802777Y-12430627D01*
X18802777Y-12430627D02*
X18793253Y-12402055D01*
X18793253Y-12402055D02*
X18783730Y-12383008D01*
X18783730Y-12383008D02*
X18764682Y-12354436D01*
X18764682Y-12354436D02*
X18755158Y-12344912D01*
X19117063Y-12649674D02*
X19107539Y-12640150D01*
X19107539Y-12640150D02*
X19088492Y-12611579D01*
X19088492Y-12611579D02*
X19078968Y-12592531D01*
X19078968Y-12592531D02*
X19069444Y-12563960D01*
X19069444Y-12563960D02*
X19059920Y-12516341D01*
X19059920Y-12516341D02*
X19059920Y-12478246D01*
X19059920Y-12478246D02*
X19069444Y-12430627D01*
X19069444Y-12430627D02*
X19078968Y-12402055D01*
X19078968Y-12402055D02*
X19088492Y-12383008D01*
X19088492Y-12383008D02*
X19107539Y-12354436D01*
X19107539Y-12354436D02*
X19117063Y-12344912D01*
X19193253Y-12440150D02*
X19193253Y-12573484D01*
X19193253Y-12459198D02*
X19202777Y-12449674D01*
X19202777Y-12449674D02*
X19221825Y-12440150D01*
X19221825Y-12440150D02*
X19250396Y-12440150D01*
X19250396Y-12440150D02*
X19269444Y-12449674D01*
X19269444Y-12449674D02*
X19278968Y-12468722D01*
X19278968Y-12468722D02*
X19278968Y-12573484D01*
X19402777Y-12573484D02*
X19383730Y-12563960D01*
X19383730Y-12563960D02*
X19374206Y-12554436D01*
X19374206Y-12554436D02*
X19364682Y-12535388D01*
X19364682Y-12535388D02*
X19364682Y-12478246D01*
X19364682Y-12478246D02*
X19374206Y-12459198D01*
X19374206Y-12459198D02*
X19383730Y-12449674D01*
X19383730Y-12449674D02*
X19402777Y-12440150D01*
X19402777Y-12440150D02*
X19431349Y-12440150D01*
X19431349Y-12440150D02*
X19450396Y-12449674D01*
X19450396Y-12449674D02*
X19459920Y-12459198D01*
X19459920Y-12459198D02*
X19469444Y-12478246D01*
X19469444Y-12478246D02*
X19469444Y-12535388D01*
X19469444Y-12535388D02*
X19459920Y-12554436D01*
X19459920Y-12554436D02*
X19450396Y-12563960D01*
X19450396Y-12563960D02*
X19431349Y-12573484D01*
X19431349Y-12573484D02*
X19402777Y-12573484D01*
X19526587Y-12440150D02*
X19602777Y-12440150D01*
X19555158Y-12373484D02*
X19555158Y-12544912D01*
X19555158Y-12544912D02*
X19564682Y-12563960D01*
X19564682Y-12563960D02*
X19583730Y-12573484D01*
X19583730Y-12573484D02*
X19602777Y-12573484D01*
X19821825Y-12440150D02*
X19821825Y-12640150D01*
X19821825Y-12449674D02*
X19840873Y-12440150D01*
X19840873Y-12440150D02*
X19878968Y-12440150D01*
X19878968Y-12440150D02*
X19898015Y-12449674D01*
X19898015Y-12449674D02*
X19907539Y-12459198D01*
X19907539Y-12459198D02*
X19917063Y-12478246D01*
X19917063Y-12478246D02*
X19917063Y-12535388D01*
X19917063Y-12535388D02*
X19907539Y-12554436D01*
X19907539Y-12554436D02*
X19898015Y-12563960D01*
X19898015Y-12563960D02*
X19878968Y-12573484D01*
X19878968Y-12573484D02*
X19840873Y-12573484D01*
X19840873Y-12573484D02*
X19821825Y-12563960D01*
X20031349Y-12573484D02*
X20012301Y-12563960D01*
X20012301Y-12563960D02*
X20002777Y-12544912D01*
X20002777Y-12544912D02*
X20002777Y-12373484D01*
X20193254Y-12573484D02*
X20193254Y-12468722D01*
X20193254Y-12468722D02*
X20183730Y-12449674D01*
X20183730Y-12449674D02*
X20164682Y-12440150D01*
X20164682Y-12440150D02*
X20126587Y-12440150D01*
X20126587Y-12440150D02*
X20107539Y-12449674D01*
X20193254Y-12563960D02*
X20174206Y-12573484D01*
X20174206Y-12573484D02*
X20126587Y-12573484D01*
X20126587Y-12573484D02*
X20107539Y-12563960D01*
X20107539Y-12563960D02*
X20098015Y-12544912D01*
X20098015Y-12544912D02*
X20098015Y-12525865D01*
X20098015Y-12525865D02*
X20107539Y-12506817D01*
X20107539Y-12506817D02*
X20126587Y-12497293D01*
X20126587Y-12497293D02*
X20174206Y-12497293D01*
X20174206Y-12497293D02*
X20193254Y-12487769D01*
X20259920Y-12440150D02*
X20336111Y-12440150D01*
X20288492Y-12373484D02*
X20288492Y-12544912D01*
X20288492Y-12544912D02*
X20298015Y-12563960D01*
X20298015Y-12563960D02*
X20317063Y-12573484D01*
X20317063Y-12573484D02*
X20336111Y-12573484D01*
X20478968Y-12563960D02*
X20459920Y-12573484D01*
X20459920Y-12573484D02*
X20421825Y-12573484D01*
X20421825Y-12573484D02*
X20402777Y-12563960D01*
X20402777Y-12563960D02*
X20393254Y-12544912D01*
X20393254Y-12544912D02*
X20393254Y-12468722D01*
X20393254Y-12468722D02*
X20402777Y-12449674D01*
X20402777Y-12449674D02*
X20421825Y-12440150D01*
X20421825Y-12440150D02*
X20459920Y-12440150D01*
X20459920Y-12440150D02*
X20478968Y-12449674D01*
X20478968Y-12449674D02*
X20488492Y-12468722D01*
X20488492Y-12468722D02*
X20488492Y-12487769D01*
X20488492Y-12487769D02*
X20393254Y-12506817D01*
X20659920Y-12573484D02*
X20659920Y-12373484D01*
X20659920Y-12563960D02*
X20640873Y-12573484D01*
X20640873Y-12573484D02*
X20602777Y-12573484D01*
X20602777Y-12573484D02*
X20583730Y-12563960D01*
X20583730Y-12563960D02*
X20574206Y-12554436D01*
X20574206Y-12554436D02*
X20564682Y-12535388D01*
X20564682Y-12535388D02*
X20564682Y-12478246D01*
X20564682Y-12478246D02*
X20574206Y-12459198D01*
X20574206Y-12459198D02*
X20583730Y-12449674D01*
X20583730Y-12449674D02*
X20602777Y-12440150D01*
X20602777Y-12440150D02*
X20640873Y-12440150D01*
X20640873Y-12440150D02*
X20659920Y-12449674D01*
X20736111Y-12649674D02*
X20745635Y-12640150D01*
X20745635Y-12640150D02*
X20764682Y-12611579D01*
X20764682Y-12611579D02*
X20774206Y-12592531D01*
X20774206Y-12592531D02*
X20783730Y-12563960D01*
X20783730Y-12563960D02*
X20793254Y-12516341D01*
X20793254Y-12516341D02*
X20793254Y-12478246D01*
X20793254Y-12478246D02*
X20783730Y-12430627D01*
X20783730Y-12430627D02*
X20774206Y-12402055D01*
X20774206Y-12402055D02*
X20764682Y-12383008D01*
X20764682Y-12383008D02*
X20745635Y-12354436D01*
X20745635Y-12354436D02*
X20736111Y-12344912D01*
D13*
X14142000Y-12746000D02*
G75*
G02*
X13962000Y-12746000I-90000J0D01*
G01*
X13962000Y-12746000D02*
G75*
G02*
X14142000Y-12746000I90000J0D01*
G01*
D11*
X14507539Y-12837484D02*
X14393253Y-12837484D01*
X14450396Y-12837484D02*
X14450396Y-12637484D01*
X14450396Y-12637484D02*
X14431348Y-12666055D01*
X14431348Y-12666055D02*
X14412301Y-12685103D01*
X14412301Y-12685103D02*
X14393253Y-12694627D01*
X14593253Y-12818436D02*
X14602777Y-12827960D01*
X14602777Y-12827960D02*
X14593253Y-12837484D01*
X14593253Y-12837484D02*
X14583729Y-12827960D01*
X14583729Y-12827960D02*
X14593253Y-12818436D01*
X14593253Y-12818436D02*
X14593253Y-12837484D01*
X14717062Y-12723198D02*
X14698015Y-12713674D01*
X14698015Y-12713674D02*
X14688491Y-12704150D01*
X14688491Y-12704150D02*
X14678967Y-12685103D01*
X14678967Y-12685103D02*
X14678967Y-12675579D01*
X14678967Y-12675579D02*
X14688491Y-12656531D01*
X14688491Y-12656531D02*
X14698015Y-12647008D01*
X14698015Y-12647008D02*
X14717062Y-12637484D01*
X14717062Y-12637484D02*
X14755158Y-12637484D01*
X14755158Y-12637484D02*
X14774205Y-12647008D01*
X14774205Y-12647008D02*
X14783729Y-12656531D01*
X14783729Y-12656531D02*
X14793253Y-12675579D01*
X14793253Y-12675579D02*
X14793253Y-12685103D01*
X14793253Y-12685103D02*
X14783729Y-12704150D01*
X14783729Y-12704150D02*
X14774205Y-12713674D01*
X14774205Y-12713674D02*
X14755158Y-12723198D01*
X14755158Y-12723198D02*
X14717062Y-12723198D01*
X14717062Y-12723198D02*
X14698015Y-12732722D01*
X14698015Y-12732722D02*
X14688491Y-12742246D01*
X14688491Y-12742246D02*
X14678967Y-12761293D01*
X14678967Y-12761293D02*
X14678967Y-12799388D01*
X14678967Y-12799388D02*
X14688491Y-12818436D01*
X14688491Y-12818436D02*
X14698015Y-12827960D01*
X14698015Y-12827960D02*
X14717062Y-12837484D01*
X14717062Y-12837484D02*
X14755158Y-12837484D01*
X14755158Y-12837484D02*
X14774205Y-12827960D01*
X14774205Y-12827960D02*
X14783729Y-12818436D01*
X14783729Y-12818436D02*
X14793253Y-12799388D01*
X14793253Y-12799388D02*
X14793253Y-12761293D01*
X14793253Y-12761293D02*
X14783729Y-12742246D01*
X14783729Y-12742246D02*
X14774205Y-12732722D01*
X14774205Y-12732722D02*
X14755158Y-12723198D01*
X14917062Y-12637484D02*
X14936110Y-12637484D01*
X14936110Y-12637484D02*
X14955158Y-12647008D01*
X14955158Y-12647008D02*
X14964682Y-12656531D01*
X14964682Y-12656531D02*
X14974205Y-12675579D01*
X14974205Y-12675579D02*
X14983729Y-12713674D01*
X14983729Y-12713674D02*
X14983729Y-12761293D01*
X14983729Y-12761293D02*
X14974205Y-12799388D01*
X14974205Y-12799388D02*
X14964682Y-12818436D01*
X14964682Y-12818436D02*
X14955158Y-12827960D01*
X14955158Y-12827960D02*
X14936110Y-12837484D01*
X14936110Y-12837484D02*
X14917062Y-12837484D01*
X14917062Y-12837484D02*
X14898015Y-12827960D01*
X14898015Y-12827960D02*
X14888491Y-12818436D01*
X14888491Y-12818436D02*
X14878967Y-12799388D01*
X14878967Y-12799388D02*
X14869443Y-12761293D01*
X14869443Y-12761293D02*
X14869443Y-12713674D01*
X14869443Y-12713674D02*
X14878967Y-12675579D01*
X14878967Y-12675579D02*
X14888491Y-12656531D01*
X14888491Y-12656531D02*
X14898015Y-12647008D01*
X14898015Y-12647008D02*
X14917062Y-12637484D01*
X15107539Y-12637484D02*
X15126586Y-12637484D01*
X15126586Y-12637484D02*
X15145634Y-12647008D01*
X15145634Y-12647008D02*
X15155158Y-12656531D01*
X15155158Y-12656531D02*
X15164682Y-12675579D01*
X15164682Y-12675579D02*
X15174205Y-12713674D01*
X15174205Y-12713674D02*
X15174205Y-12761293D01*
X15174205Y-12761293D02*
X15164682Y-12799388D01*
X15164682Y-12799388D02*
X15155158Y-12818436D01*
X15155158Y-12818436D02*
X15145634Y-12827960D01*
X15145634Y-12827960D02*
X15126586Y-12837484D01*
X15126586Y-12837484D02*
X15107539Y-12837484D01*
X15107539Y-12837484D02*
X15088491Y-12827960D01*
X15088491Y-12827960D02*
X15078967Y-12818436D01*
X15078967Y-12818436D02*
X15069443Y-12799388D01*
X15069443Y-12799388D02*
X15059920Y-12761293D01*
X15059920Y-12761293D02*
X15059920Y-12713674D01*
X15059920Y-12713674D02*
X15069443Y-12675579D01*
X15069443Y-12675579D02*
X15078967Y-12656531D01*
X15078967Y-12656531D02*
X15088491Y-12647008D01*
X15088491Y-12647008D02*
X15107539Y-12637484D01*
X15259920Y-12837484D02*
X15259920Y-12704150D01*
X15259920Y-12723198D02*
X15269443Y-12713674D01*
X15269443Y-12713674D02*
X15288491Y-12704150D01*
X15288491Y-12704150D02*
X15317063Y-12704150D01*
X15317063Y-12704150D02*
X15336110Y-12713674D01*
X15336110Y-12713674D02*
X15345634Y-12732722D01*
X15345634Y-12732722D02*
X15345634Y-12837484D01*
X15345634Y-12732722D02*
X15355158Y-12713674D01*
X15355158Y-12713674D02*
X15374205Y-12704150D01*
X15374205Y-12704150D02*
X15402777Y-12704150D01*
X15402777Y-12704150D02*
X15421824Y-12713674D01*
X15421824Y-12713674D02*
X15431348Y-12732722D01*
X15431348Y-12732722D02*
X15431348Y-12837484D01*
X15526586Y-12837484D02*
X15526586Y-12704150D01*
X15526586Y-12723198D02*
X15536110Y-12713674D01*
X15536110Y-12713674D02*
X15555158Y-12704150D01*
X15555158Y-12704150D02*
X15583729Y-12704150D01*
X15583729Y-12704150D02*
X15602777Y-12713674D01*
X15602777Y-12713674D02*
X15612301Y-12732722D01*
X15612301Y-12732722D02*
X15612301Y-12837484D01*
X15612301Y-12732722D02*
X15621824Y-12713674D01*
X15621824Y-12713674D02*
X15640872Y-12704150D01*
X15640872Y-12704150D02*
X15669443Y-12704150D01*
X15669443Y-12704150D02*
X15688491Y-12713674D01*
X15688491Y-12713674D02*
X15698015Y-12732722D01*
X15698015Y-12732722D02*
X15698015Y-12837484D01*
X16088491Y-12627960D02*
X15917063Y-12885103D01*
X16345634Y-12637484D02*
X16364682Y-12637484D01*
X16364682Y-12637484D02*
X16383729Y-12647008D01*
X16383729Y-12647008D02*
X16393253Y-12656531D01*
X16393253Y-12656531D02*
X16402777Y-12675579D01*
X16402777Y-12675579D02*
X16412301Y-12713674D01*
X16412301Y-12713674D02*
X16412301Y-12761293D01*
X16412301Y-12761293D02*
X16402777Y-12799388D01*
X16402777Y-12799388D02*
X16393253Y-12818436D01*
X16393253Y-12818436D02*
X16383729Y-12827960D01*
X16383729Y-12827960D02*
X16364682Y-12837484D01*
X16364682Y-12837484D02*
X16345634Y-12837484D01*
X16345634Y-12837484D02*
X16326586Y-12827960D01*
X16326586Y-12827960D02*
X16317063Y-12818436D01*
X16317063Y-12818436D02*
X16307539Y-12799388D01*
X16307539Y-12799388D02*
X16298015Y-12761293D01*
X16298015Y-12761293D02*
X16298015Y-12713674D01*
X16298015Y-12713674D02*
X16307539Y-12675579D01*
X16307539Y-12675579D02*
X16317063Y-12656531D01*
X16317063Y-12656531D02*
X16326586Y-12647008D01*
X16326586Y-12647008D02*
X16345634Y-12637484D01*
X16498015Y-12818436D02*
X16507539Y-12827960D01*
X16507539Y-12827960D02*
X16498015Y-12837484D01*
X16498015Y-12837484D02*
X16488491Y-12827960D01*
X16488491Y-12827960D02*
X16498015Y-12818436D01*
X16498015Y-12818436D02*
X16498015Y-12837484D01*
X16631348Y-12637484D02*
X16650396Y-12637484D01*
X16650396Y-12637484D02*
X16669444Y-12647008D01*
X16669444Y-12647008D02*
X16678967Y-12656531D01*
X16678967Y-12656531D02*
X16688491Y-12675579D01*
X16688491Y-12675579D02*
X16698015Y-12713674D01*
X16698015Y-12713674D02*
X16698015Y-12761293D01*
X16698015Y-12761293D02*
X16688491Y-12799388D01*
X16688491Y-12799388D02*
X16678967Y-12818436D01*
X16678967Y-12818436D02*
X16669444Y-12827960D01*
X16669444Y-12827960D02*
X16650396Y-12837484D01*
X16650396Y-12837484D02*
X16631348Y-12837484D01*
X16631348Y-12837484D02*
X16612301Y-12827960D01*
X16612301Y-12827960D02*
X16602777Y-12818436D01*
X16602777Y-12818436D02*
X16593253Y-12799388D01*
X16593253Y-12799388D02*
X16583729Y-12761293D01*
X16583729Y-12761293D02*
X16583729Y-12713674D01*
X16583729Y-12713674D02*
X16593253Y-12675579D01*
X16593253Y-12675579D02*
X16602777Y-12656531D01*
X16602777Y-12656531D02*
X16612301Y-12647008D01*
X16612301Y-12647008D02*
X16631348Y-12637484D01*
X16764682Y-12637484D02*
X16898015Y-12637484D01*
X16898015Y-12637484D02*
X16812301Y-12837484D01*
X17012301Y-12637484D02*
X17031349Y-12637484D01*
X17031349Y-12637484D02*
X17050396Y-12647008D01*
X17050396Y-12647008D02*
X17059920Y-12656531D01*
X17059920Y-12656531D02*
X17069444Y-12675579D01*
X17069444Y-12675579D02*
X17078968Y-12713674D01*
X17078968Y-12713674D02*
X17078968Y-12761293D01*
X17078968Y-12761293D02*
X17069444Y-12799388D01*
X17069444Y-12799388D02*
X17059920Y-12818436D01*
X17059920Y-12818436D02*
X17050396Y-12827960D01*
X17050396Y-12827960D02*
X17031349Y-12837484D01*
X17031349Y-12837484D02*
X17012301Y-12837484D01*
X17012301Y-12837484D02*
X16993253Y-12827960D01*
X16993253Y-12827960D02*
X16983729Y-12818436D01*
X16983729Y-12818436D02*
X16974206Y-12799388D01*
X16974206Y-12799388D02*
X16964682Y-12761293D01*
X16964682Y-12761293D02*
X16964682Y-12713674D01*
X16964682Y-12713674D02*
X16974206Y-12675579D01*
X16974206Y-12675579D02*
X16983729Y-12656531D01*
X16983729Y-12656531D02*
X16993253Y-12647008D01*
X16993253Y-12647008D02*
X17012301Y-12637484D01*
X17174206Y-12837484D02*
X17212301Y-12837484D01*
X17212301Y-12837484D02*
X17231349Y-12827960D01*
X17231349Y-12827960D02*
X17240872Y-12818436D01*
X17240872Y-12818436D02*
X17259920Y-12789865D01*
X17259920Y-12789865D02*
X17269444Y-12751769D01*
X17269444Y-12751769D02*
X17269444Y-12675579D01*
X17269444Y-12675579D02*
X17259920Y-12656531D01*
X17259920Y-12656531D02*
X17250396Y-12647008D01*
X17250396Y-12647008D02*
X17231349Y-12637484D01*
X17231349Y-12637484D02*
X17193253Y-12637484D01*
X17193253Y-12637484D02*
X17174206Y-12647008D01*
X17174206Y-12647008D02*
X17164682Y-12656531D01*
X17164682Y-12656531D02*
X17155158Y-12675579D01*
X17155158Y-12675579D02*
X17155158Y-12723198D01*
X17155158Y-12723198D02*
X17164682Y-12742246D01*
X17164682Y-12742246D02*
X17174206Y-12751769D01*
X17174206Y-12751769D02*
X17193253Y-12761293D01*
X17193253Y-12761293D02*
X17231349Y-12761293D01*
X17231349Y-12761293D02*
X17250396Y-12751769D01*
X17250396Y-12751769D02*
X17259920Y-12742246D01*
X17259920Y-12742246D02*
X17269444Y-12723198D01*
X17345634Y-12637484D02*
X17345634Y-12675579D01*
X17421825Y-12637484D02*
X17421825Y-12675579D01*
X17717063Y-12913674D02*
X17707539Y-12904150D01*
X17707539Y-12904150D02*
X17688491Y-12875579D01*
X17688491Y-12875579D02*
X17678968Y-12856531D01*
X17678968Y-12856531D02*
X17669444Y-12827960D01*
X17669444Y-12827960D02*
X17659920Y-12780341D01*
X17659920Y-12780341D02*
X17659920Y-12742246D01*
X17659920Y-12742246D02*
X17669444Y-12694627D01*
X17669444Y-12694627D02*
X17678968Y-12666055D01*
X17678968Y-12666055D02*
X17688491Y-12647008D01*
X17688491Y-12647008D02*
X17707539Y-12618436D01*
X17707539Y-12618436D02*
X17717063Y-12608912D01*
X17783730Y-12656531D02*
X17793253Y-12647008D01*
X17793253Y-12647008D02*
X17812301Y-12637484D01*
X17812301Y-12637484D02*
X17859920Y-12637484D01*
X17859920Y-12637484D02*
X17878968Y-12647008D01*
X17878968Y-12647008D02*
X17888491Y-12656531D01*
X17888491Y-12656531D02*
X17898015Y-12675579D01*
X17898015Y-12675579D02*
X17898015Y-12694627D01*
X17898015Y-12694627D02*
X17888491Y-12723198D01*
X17888491Y-12723198D02*
X17774206Y-12837484D01*
X17774206Y-12837484D02*
X17898015Y-12837484D01*
X18136111Y-12837484D02*
X18136111Y-12637484D01*
X18221825Y-12837484D02*
X18221825Y-12732722D01*
X18221825Y-12732722D02*
X18212301Y-12713674D01*
X18212301Y-12713674D02*
X18193253Y-12704150D01*
X18193253Y-12704150D02*
X18164682Y-12704150D01*
X18164682Y-12704150D02*
X18145634Y-12713674D01*
X18145634Y-12713674D02*
X18136111Y-12723198D01*
X18345634Y-12837484D02*
X18326587Y-12827960D01*
X18326587Y-12827960D02*
X18317063Y-12818436D01*
X18317063Y-12818436D02*
X18307539Y-12799388D01*
X18307539Y-12799388D02*
X18307539Y-12742246D01*
X18307539Y-12742246D02*
X18317063Y-12723198D01*
X18317063Y-12723198D02*
X18326587Y-12713674D01*
X18326587Y-12713674D02*
X18345634Y-12704150D01*
X18345634Y-12704150D02*
X18374206Y-12704150D01*
X18374206Y-12704150D02*
X18393253Y-12713674D01*
X18393253Y-12713674D02*
X18402777Y-12723198D01*
X18402777Y-12723198D02*
X18412301Y-12742246D01*
X18412301Y-12742246D02*
X18412301Y-12799388D01*
X18412301Y-12799388D02*
X18402777Y-12818436D01*
X18402777Y-12818436D02*
X18393253Y-12827960D01*
X18393253Y-12827960D02*
X18374206Y-12837484D01*
X18374206Y-12837484D02*
X18345634Y-12837484D01*
X18526587Y-12837484D02*
X18507539Y-12827960D01*
X18507539Y-12827960D02*
X18498015Y-12808912D01*
X18498015Y-12808912D02*
X18498015Y-12637484D01*
X18678968Y-12827960D02*
X18659920Y-12837484D01*
X18659920Y-12837484D02*
X18621825Y-12837484D01*
X18621825Y-12837484D02*
X18602777Y-12827960D01*
X18602777Y-12827960D02*
X18593253Y-12808912D01*
X18593253Y-12808912D02*
X18593253Y-12732722D01*
X18593253Y-12732722D02*
X18602777Y-12713674D01*
X18602777Y-12713674D02*
X18621825Y-12704150D01*
X18621825Y-12704150D02*
X18659920Y-12704150D01*
X18659920Y-12704150D02*
X18678968Y-12713674D01*
X18678968Y-12713674D02*
X18688492Y-12732722D01*
X18688492Y-12732722D02*
X18688492Y-12751769D01*
X18688492Y-12751769D02*
X18593253Y-12770817D01*
X18764682Y-12827960D02*
X18783730Y-12837484D01*
X18783730Y-12837484D02*
X18821825Y-12837484D01*
X18821825Y-12837484D02*
X18840873Y-12827960D01*
X18840873Y-12827960D02*
X18850396Y-12808912D01*
X18850396Y-12808912D02*
X18850396Y-12799388D01*
X18850396Y-12799388D02*
X18840873Y-12780341D01*
X18840873Y-12780341D02*
X18821825Y-12770817D01*
X18821825Y-12770817D02*
X18793253Y-12770817D01*
X18793253Y-12770817D02*
X18774206Y-12761293D01*
X18774206Y-12761293D02*
X18764682Y-12742246D01*
X18764682Y-12742246D02*
X18764682Y-12732722D01*
X18764682Y-12732722D02*
X18774206Y-12713674D01*
X18774206Y-12713674D02*
X18793253Y-12704150D01*
X18793253Y-12704150D02*
X18821825Y-12704150D01*
X18821825Y-12704150D02*
X18840873Y-12713674D01*
X18917063Y-12913674D02*
X18926587Y-12904150D01*
X18926587Y-12904150D02*
X18945634Y-12875579D01*
X18945634Y-12875579D02*
X18955158Y-12856531D01*
X18955158Y-12856531D02*
X18964682Y-12827960D01*
X18964682Y-12827960D02*
X18974206Y-12780341D01*
X18974206Y-12780341D02*
X18974206Y-12742246D01*
X18974206Y-12742246D02*
X18964682Y-12694627D01*
X18964682Y-12694627D02*
X18955158Y-12666055D01*
X18955158Y-12666055D02*
X18945634Y-12647008D01*
X18945634Y-12647008D02*
X18926587Y-12618436D01*
X18926587Y-12618436D02*
X18917063Y-12608912D01*
X19278968Y-12913674D02*
X19269444Y-12904150D01*
X19269444Y-12904150D02*
X19250396Y-12875579D01*
X19250396Y-12875579D02*
X19240873Y-12856531D01*
X19240873Y-12856531D02*
X19231349Y-12827960D01*
X19231349Y-12827960D02*
X19221825Y-12780341D01*
X19221825Y-12780341D02*
X19221825Y-12742246D01*
X19221825Y-12742246D02*
X19231349Y-12694627D01*
X19231349Y-12694627D02*
X19240873Y-12666055D01*
X19240873Y-12666055D02*
X19250396Y-12647008D01*
X19250396Y-12647008D02*
X19269444Y-12618436D01*
X19269444Y-12618436D02*
X19278968Y-12608912D01*
X19355158Y-12704150D02*
X19355158Y-12837484D01*
X19355158Y-12723198D02*
X19364682Y-12713674D01*
X19364682Y-12713674D02*
X19383730Y-12704150D01*
X19383730Y-12704150D02*
X19412301Y-12704150D01*
X19412301Y-12704150D02*
X19431349Y-12713674D01*
X19431349Y-12713674D02*
X19440873Y-12732722D01*
X19440873Y-12732722D02*
X19440873Y-12837484D01*
X19564682Y-12837484D02*
X19545634Y-12827960D01*
X19545634Y-12827960D02*
X19536111Y-12818436D01*
X19536111Y-12818436D02*
X19526587Y-12799388D01*
X19526587Y-12799388D02*
X19526587Y-12742246D01*
X19526587Y-12742246D02*
X19536111Y-12723198D01*
X19536111Y-12723198D02*
X19545634Y-12713674D01*
X19545634Y-12713674D02*
X19564682Y-12704150D01*
X19564682Y-12704150D02*
X19593254Y-12704150D01*
X19593254Y-12704150D02*
X19612301Y-12713674D01*
X19612301Y-12713674D02*
X19621825Y-12723198D01*
X19621825Y-12723198D02*
X19631349Y-12742246D01*
X19631349Y-12742246D02*
X19631349Y-12799388D01*
X19631349Y-12799388D02*
X19621825Y-12818436D01*
X19621825Y-12818436D02*
X19612301Y-12827960D01*
X19612301Y-12827960D02*
X19593254Y-12837484D01*
X19593254Y-12837484D02*
X19564682Y-12837484D01*
X19688492Y-12704150D02*
X19764682Y-12704150D01*
X19717063Y-12637484D02*
X19717063Y-12808912D01*
X19717063Y-12808912D02*
X19726587Y-12827960D01*
X19726587Y-12827960D02*
X19745634Y-12837484D01*
X19745634Y-12837484D02*
X19764682Y-12837484D01*
X19983730Y-12704150D02*
X19983730Y-12904150D01*
X19983730Y-12713674D02*
X20002777Y-12704150D01*
X20002777Y-12704150D02*
X20040873Y-12704150D01*
X20040873Y-12704150D02*
X20059920Y-12713674D01*
X20059920Y-12713674D02*
X20069444Y-12723198D01*
X20069444Y-12723198D02*
X20078968Y-12742246D01*
X20078968Y-12742246D02*
X20078968Y-12799388D01*
X20078968Y-12799388D02*
X20069444Y-12818436D01*
X20069444Y-12818436D02*
X20059920Y-12827960D01*
X20059920Y-12827960D02*
X20040873Y-12837484D01*
X20040873Y-12837484D02*
X20002777Y-12837484D01*
X20002777Y-12837484D02*
X19983730Y-12827960D01*
X20193254Y-12837484D02*
X20174206Y-12827960D01*
X20174206Y-12827960D02*
X20164682Y-12808912D01*
X20164682Y-12808912D02*
X20164682Y-12637484D01*
X20355158Y-12837484D02*
X20355158Y-12732722D01*
X20355158Y-12732722D02*
X20345635Y-12713674D01*
X20345635Y-12713674D02*
X20326587Y-12704150D01*
X20326587Y-12704150D02*
X20288492Y-12704150D01*
X20288492Y-12704150D02*
X20269444Y-12713674D01*
X20355158Y-12827960D02*
X20336111Y-12837484D01*
X20336111Y-12837484D02*
X20288492Y-12837484D01*
X20288492Y-12837484D02*
X20269444Y-12827960D01*
X20269444Y-12827960D02*
X20259920Y-12808912D01*
X20259920Y-12808912D02*
X20259920Y-12789865D01*
X20259920Y-12789865D02*
X20269444Y-12770817D01*
X20269444Y-12770817D02*
X20288492Y-12761293D01*
X20288492Y-12761293D02*
X20336111Y-12761293D01*
X20336111Y-12761293D02*
X20355158Y-12751769D01*
X20421825Y-12704150D02*
X20498015Y-12704150D01*
X20450396Y-12637484D02*
X20450396Y-12808912D01*
X20450396Y-12808912D02*
X20459920Y-12827960D01*
X20459920Y-12827960D02*
X20478968Y-12837484D01*
X20478968Y-12837484D02*
X20498015Y-12837484D01*
X20640873Y-12827960D02*
X20621825Y-12837484D01*
X20621825Y-12837484D02*
X20583730Y-12837484D01*
X20583730Y-12837484D02*
X20564682Y-12827960D01*
X20564682Y-12827960D02*
X20555158Y-12808912D01*
X20555158Y-12808912D02*
X20555158Y-12732722D01*
X20555158Y-12732722D02*
X20564682Y-12713674D01*
X20564682Y-12713674D02*
X20583730Y-12704150D01*
X20583730Y-12704150D02*
X20621825Y-12704150D01*
X20621825Y-12704150D02*
X20640873Y-12713674D01*
X20640873Y-12713674D02*
X20650396Y-12732722D01*
X20650396Y-12732722D02*
X20650396Y-12751769D01*
X20650396Y-12751769D02*
X20555158Y-12770817D01*
X20821825Y-12837484D02*
X20821825Y-12637484D01*
X20821825Y-12827960D02*
X20802777Y-12837484D01*
X20802777Y-12837484D02*
X20764682Y-12837484D01*
X20764682Y-12837484D02*
X20745635Y-12827960D01*
X20745635Y-12827960D02*
X20736111Y-12818436D01*
X20736111Y-12818436D02*
X20726587Y-12799388D01*
X20726587Y-12799388D02*
X20726587Y-12742246D01*
X20726587Y-12742246D02*
X20736111Y-12723198D01*
X20736111Y-12723198D02*
X20745635Y-12713674D01*
X20745635Y-12713674D02*
X20764682Y-12704150D01*
X20764682Y-12704150D02*
X20802777Y-12704150D01*
X20802777Y-12704150D02*
X20821825Y-12713674D01*
X20898016Y-12913674D02*
X20907539Y-12904150D01*
X20907539Y-12904150D02*
X20926587Y-12875579D01*
X20926587Y-12875579D02*
X20936111Y-12856531D01*
X20936111Y-12856531D02*
X20945635Y-12827960D01*
X20945635Y-12827960D02*
X20955158Y-12780341D01*
X20955158Y-12780341D02*
X20955158Y-12742246D01*
X20955158Y-12742246D02*
X20945635Y-12694627D01*
X20945635Y-12694627D02*
X20936111Y-12666055D01*
X20936111Y-12666055D02*
X20926587Y-12647008D01*
X20926587Y-12647008D02*
X20907539Y-12618436D01*
X20907539Y-12618436D02*
X20898016Y-12608912D01*
X14042000Y-12946000D02*
X14042000Y-13146000D01*
X13942000Y-13046000D02*
X14142000Y-13046000D01*
X14383729Y-12937484D02*
X14507539Y-12937484D01*
X14507539Y-12937484D02*
X14440872Y-13013674D01*
X14440872Y-13013674D02*
X14469443Y-13013674D01*
X14469443Y-13013674D02*
X14488491Y-13023198D01*
X14488491Y-13023198D02*
X14498015Y-13032722D01*
X14498015Y-13032722D02*
X14507539Y-13051769D01*
X14507539Y-13051769D02*
X14507539Y-13099388D01*
X14507539Y-13099388D02*
X14498015Y-13118436D01*
X14498015Y-13118436D02*
X14488491Y-13127960D01*
X14488491Y-13127960D02*
X14469443Y-13137484D01*
X14469443Y-13137484D02*
X14412301Y-13137484D01*
X14412301Y-13137484D02*
X14393253Y-13127960D01*
X14393253Y-13127960D02*
X14383729Y-13118436D01*
X14593253Y-13118436D02*
X14602777Y-13127960D01*
X14602777Y-13127960D02*
X14593253Y-13137484D01*
X14593253Y-13137484D02*
X14583729Y-13127960D01*
X14583729Y-13127960D02*
X14593253Y-13118436D01*
X14593253Y-13118436D02*
X14593253Y-13137484D01*
X14678967Y-12956531D02*
X14688491Y-12947008D01*
X14688491Y-12947008D02*
X14707539Y-12937484D01*
X14707539Y-12937484D02*
X14755158Y-12937484D01*
X14755158Y-12937484D02*
X14774205Y-12947008D01*
X14774205Y-12947008D02*
X14783729Y-12956531D01*
X14783729Y-12956531D02*
X14793253Y-12975579D01*
X14793253Y-12975579D02*
X14793253Y-12994627D01*
X14793253Y-12994627D02*
X14783729Y-13023198D01*
X14783729Y-13023198D02*
X14669443Y-13137484D01*
X14669443Y-13137484D02*
X14793253Y-13137484D01*
X14917062Y-12937484D02*
X14936110Y-12937484D01*
X14936110Y-12937484D02*
X14955158Y-12947008D01*
X14955158Y-12947008D02*
X14964682Y-12956531D01*
X14964682Y-12956531D02*
X14974205Y-12975579D01*
X14974205Y-12975579D02*
X14983729Y-13013674D01*
X14983729Y-13013674D02*
X14983729Y-13061293D01*
X14983729Y-13061293D02*
X14974205Y-13099388D01*
X14974205Y-13099388D02*
X14964682Y-13118436D01*
X14964682Y-13118436D02*
X14955158Y-13127960D01*
X14955158Y-13127960D02*
X14936110Y-13137484D01*
X14936110Y-13137484D02*
X14917062Y-13137484D01*
X14917062Y-13137484D02*
X14898015Y-13127960D01*
X14898015Y-13127960D02*
X14888491Y-13118436D01*
X14888491Y-13118436D02*
X14878967Y-13099388D01*
X14878967Y-13099388D02*
X14869443Y-13061293D01*
X14869443Y-13061293D02*
X14869443Y-13013674D01*
X14869443Y-13013674D02*
X14878967Y-12975579D01*
X14878967Y-12975579D02*
X14888491Y-12956531D01*
X14888491Y-12956531D02*
X14898015Y-12947008D01*
X14898015Y-12947008D02*
X14917062Y-12937484D01*
X15107539Y-12937484D02*
X15126586Y-12937484D01*
X15126586Y-12937484D02*
X15145634Y-12947008D01*
X15145634Y-12947008D02*
X15155158Y-12956531D01*
X15155158Y-12956531D02*
X15164682Y-12975579D01*
X15164682Y-12975579D02*
X15174205Y-13013674D01*
X15174205Y-13013674D02*
X15174205Y-13061293D01*
X15174205Y-13061293D02*
X15164682Y-13099388D01*
X15164682Y-13099388D02*
X15155158Y-13118436D01*
X15155158Y-13118436D02*
X15145634Y-13127960D01*
X15145634Y-13127960D02*
X15126586Y-13137484D01*
X15126586Y-13137484D02*
X15107539Y-13137484D01*
X15107539Y-13137484D02*
X15088491Y-13127960D01*
X15088491Y-13127960D02*
X15078967Y-13118436D01*
X15078967Y-13118436D02*
X15069443Y-13099388D01*
X15069443Y-13099388D02*
X15059920Y-13061293D01*
X15059920Y-13061293D02*
X15059920Y-13013674D01*
X15059920Y-13013674D02*
X15069443Y-12975579D01*
X15069443Y-12975579D02*
X15078967Y-12956531D01*
X15078967Y-12956531D02*
X15088491Y-12947008D01*
X15088491Y-12947008D02*
X15107539Y-12937484D01*
X15259920Y-13137484D02*
X15259920Y-13004150D01*
X15259920Y-13023198D02*
X15269443Y-13013674D01*
X15269443Y-13013674D02*
X15288491Y-13004150D01*
X15288491Y-13004150D02*
X15317063Y-13004150D01*
X15317063Y-13004150D02*
X15336110Y-13013674D01*
X15336110Y-13013674D02*
X15345634Y-13032722D01*
X15345634Y-13032722D02*
X15345634Y-13137484D01*
X15345634Y-13032722D02*
X15355158Y-13013674D01*
X15355158Y-13013674D02*
X15374205Y-13004150D01*
X15374205Y-13004150D02*
X15402777Y-13004150D01*
X15402777Y-13004150D02*
X15421824Y-13013674D01*
X15421824Y-13013674D02*
X15431348Y-13032722D01*
X15431348Y-13032722D02*
X15431348Y-13137484D01*
X15526586Y-13137484D02*
X15526586Y-13004150D01*
X15526586Y-13023198D02*
X15536110Y-13013674D01*
X15536110Y-13013674D02*
X15555158Y-13004150D01*
X15555158Y-13004150D02*
X15583729Y-13004150D01*
X15583729Y-13004150D02*
X15602777Y-13013674D01*
X15602777Y-13013674D02*
X15612301Y-13032722D01*
X15612301Y-13032722D02*
X15612301Y-13137484D01*
X15612301Y-13032722D02*
X15621824Y-13013674D01*
X15621824Y-13013674D02*
X15640872Y-13004150D01*
X15640872Y-13004150D02*
X15669443Y-13004150D01*
X15669443Y-13004150D02*
X15688491Y-13013674D01*
X15688491Y-13013674D02*
X15698015Y-13032722D01*
X15698015Y-13032722D02*
X15698015Y-13137484D01*
X16088491Y-12927960D02*
X15917063Y-13185103D01*
X16345634Y-12937484D02*
X16364682Y-12937484D01*
X16364682Y-12937484D02*
X16383729Y-12947008D01*
X16383729Y-12947008D02*
X16393253Y-12956531D01*
X16393253Y-12956531D02*
X16402777Y-12975579D01*
X16402777Y-12975579D02*
X16412301Y-13013674D01*
X16412301Y-13013674D02*
X16412301Y-13061293D01*
X16412301Y-13061293D02*
X16402777Y-13099388D01*
X16402777Y-13099388D02*
X16393253Y-13118436D01*
X16393253Y-13118436D02*
X16383729Y-13127960D01*
X16383729Y-13127960D02*
X16364682Y-13137484D01*
X16364682Y-13137484D02*
X16345634Y-13137484D01*
X16345634Y-13137484D02*
X16326586Y-13127960D01*
X16326586Y-13127960D02*
X16317063Y-13118436D01*
X16317063Y-13118436D02*
X16307539Y-13099388D01*
X16307539Y-13099388D02*
X16298015Y-13061293D01*
X16298015Y-13061293D02*
X16298015Y-13013674D01*
X16298015Y-13013674D02*
X16307539Y-12975579D01*
X16307539Y-12975579D02*
X16317063Y-12956531D01*
X16317063Y-12956531D02*
X16326586Y-12947008D01*
X16326586Y-12947008D02*
X16345634Y-12937484D01*
X16498015Y-13118436D02*
X16507539Y-13127960D01*
X16507539Y-13127960D02*
X16498015Y-13137484D01*
X16498015Y-13137484D02*
X16488491Y-13127960D01*
X16488491Y-13127960D02*
X16498015Y-13118436D01*
X16498015Y-13118436D02*
X16498015Y-13137484D01*
X16698015Y-13137484D02*
X16583729Y-13137484D01*
X16640872Y-13137484D02*
X16640872Y-12937484D01*
X16640872Y-12937484D02*
X16621825Y-12966055D01*
X16621825Y-12966055D02*
X16602777Y-12985103D01*
X16602777Y-12985103D02*
X16583729Y-12994627D01*
X16774206Y-12956531D02*
X16783729Y-12947008D01*
X16783729Y-12947008D02*
X16802777Y-12937484D01*
X16802777Y-12937484D02*
X16850396Y-12937484D01*
X16850396Y-12937484D02*
X16869444Y-12947008D01*
X16869444Y-12947008D02*
X16878968Y-12956531D01*
X16878968Y-12956531D02*
X16888491Y-12975579D01*
X16888491Y-12975579D02*
X16888491Y-12994627D01*
X16888491Y-12994627D02*
X16878968Y-13023198D01*
X16878968Y-13023198D02*
X16764682Y-13137484D01*
X16764682Y-13137484D02*
X16888491Y-13137484D01*
X17059920Y-12937484D02*
X17021825Y-12937484D01*
X17021825Y-12937484D02*
X17002777Y-12947008D01*
X17002777Y-12947008D02*
X16993253Y-12956531D01*
X16993253Y-12956531D02*
X16974206Y-12985103D01*
X16974206Y-12985103D02*
X16964682Y-13023198D01*
X16964682Y-13023198D02*
X16964682Y-13099388D01*
X16964682Y-13099388D02*
X16974206Y-13118436D01*
X16974206Y-13118436D02*
X16983729Y-13127960D01*
X16983729Y-13127960D02*
X17002777Y-13137484D01*
X17002777Y-13137484D02*
X17040872Y-13137484D01*
X17040872Y-13137484D02*
X17059920Y-13127960D01*
X17059920Y-13127960D02*
X17069444Y-13118436D01*
X17069444Y-13118436D02*
X17078968Y-13099388D01*
X17078968Y-13099388D02*
X17078968Y-13051769D01*
X17078968Y-13051769D02*
X17069444Y-13032722D01*
X17069444Y-13032722D02*
X17059920Y-13023198D01*
X17059920Y-13023198D02*
X17040872Y-13013674D01*
X17040872Y-13013674D02*
X17002777Y-13013674D01*
X17002777Y-13013674D02*
X16983729Y-13023198D01*
X16983729Y-13023198D02*
X16974206Y-13032722D01*
X16974206Y-13032722D02*
X16964682Y-13051769D01*
X17202777Y-12937484D02*
X17221825Y-12937484D01*
X17221825Y-12937484D02*
X17240872Y-12947008D01*
X17240872Y-12947008D02*
X17250396Y-12956531D01*
X17250396Y-12956531D02*
X17259920Y-12975579D01*
X17259920Y-12975579D02*
X17269444Y-13013674D01*
X17269444Y-13013674D02*
X17269444Y-13061293D01*
X17269444Y-13061293D02*
X17259920Y-13099388D01*
X17259920Y-13099388D02*
X17250396Y-13118436D01*
X17250396Y-13118436D02*
X17240872Y-13127960D01*
X17240872Y-13127960D02*
X17221825Y-13137484D01*
X17221825Y-13137484D02*
X17202777Y-13137484D01*
X17202777Y-13137484D02*
X17183729Y-13127960D01*
X17183729Y-13127960D02*
X17174206Y-13118436D01*
X17174206Y-13118436D02*
X17164682Y-13099388D01*
X17164682Y-13099388D02*
X17155158Y-13061293D01*
X17155158Y-13061293D02*
X17155158Y-13013674D01*
X17155158Y-13013674D02*
X17164682Y-12975579D01*
X17164682Y-12975579D02*
X17174206Y-12956531D01*
X17174206Y-12956531D02*
X17183729Y-12947008D01*
X17183729Y-12947008D02*
X17202777Y-12937484D01*
X17345634Y-12937484D02*
X17345634Y-12975579D01*
X17421825Y-12937484D02*
X17421825Y-12975579D01*
X17717063Y-13213674D02*
X17707539Y-13204150D01*
X17707539Y-13204150D02*
X17688491Y-13175579D01*
X17688491Y-13175579D02*
X17678968Y-13156531D01*
X17678968Y-13156531D02*
X17669444Y-13127960D01*
X17669444Y-13127960D02*
X17659920Y-13080341D01*
X17659920Y-13080341D02*
X17659920Y-13042246D01*
X17659920Y-13042246D02*
X17669444Y-12994627D01*
X17669444Y-12994627D02*
X17678968Y-12966055D01*
X17678968Y-12966055D02*
X17688491Y-12947008D01*
X17688491Y-12947008D02*
X17707539Y-12918436D01*
X17707539Y-12918436D02*
X17717063Y-12908912D01*
X17878968Y-13004150D02*
X17878968Y-13137484D01*
X17831349Y-12927960D02*
X17783730Y-13070817D01*
X17783730Y-13070817D02*
X17907539Y-13070817D01*
X18136111Y-13137484D02*
X18136111Y-12937484D01*
X18221825Y-13137484D02*
X18221825Y-13032722D01*
X18221825Y-13032722D02*
X18212301Y-13013674D01*
X18212301Y-13013674D02*
X18193253Y-13004150D01*
X18193253Y-13004150D02*
X18164682Y-13004150D01*
X18164682Y-13004150D02*
X18145634Y-13013674D01*
X18145634Y-13013674D02*
X18136111Y-13023198D01*
X18345634Y-13137484D02*
X18326587Y-13127960D01*
X18326587Y-13127960D02*
X18317063Y-13118436D01*
X18317063Y-13118436D02*
X18307539Y-13099388D01*
X18307539Y-13099388D02*
X18307539Y-13042246D01*
X18307539Y-13042246D02*
X18317063Y-13023198D01*
X18317063Y-13023198D02*
X18326587Y-13013674D01*
X18326587Y-13013674D02*
X18345634Y-13004150D01*
X18345634Y-13004150D02*
X18374206Y-13004150D01*
X18374206Y-13004150D02*
X18393253Y-13013674D01*
X18393253Y-13013674D02*
X18402777Y-13023198D01*
X18402777Y-13023198D02*
X18412301Y-13042246D01*
X18412301Y-13042246D02*
X18412301Y-13099388D01*
X18412301Y-13099388D02*
X18402777Y-13118436D01*
X18402777Y-13118436D02*
X18393253Y-13127960D01*
X18393253Y-13127960D02*
X18374206Y-13137484D01*
X18374206Y-13137484D02*
X18345634Y-13137484D01*
X18526587Y-13137484D02*
X18507539Y-13127960D01*
X18507539Y-13127960D02*
X18498015Y-13108912D01*
X18498015Y-13108912D02*
X18498015Y-12937484D01*
X18678968Y-13127960D02*
X18659920Y-13137484D01*
X18659920Y-13137484D02*
X18621825Y-13137484D01*
X18621825Y-13137484D02*
X18602777Y-13127960D01*
X18602777Y-13127960D02*
X18593253Y-13108912D01*
X18593253Y-13108912D02*
X18593253Y-13032722D01*
X18593253Y-13032722D02*
X18602777Y-13013674D01*
X18602777Y-13013674D02*
X18621825Y-13004150D01*
X18621825Y-13004150D02*
X18659920Y-13004150D01*
X18659920Y-13004150D02*
X18678968Y-13013674D01*
X18678968Y-13013674D02*
X18688492Y-13032722D01*
X18688492Y-13032722D02*
X18688492Y-13051769D01*
X18688492Y-13051769D02*
X18593253Y-13070817D01*
X18764682Y-13127960D02*
X18783730Y-13137484D01*
X18783730Y-13137484D02*
X18821825Y-13137484D01*
X18821825Y-13137484D02*
X18840873Y-13127960D01*
X18840873Y-13127960D02*
X18850396Y-13108912D01*
X18850396Y-13108912D02*
X18850396Y-13099388D01*
X18850396Y-13099388D02*
X18840873Y-13080341D01*
X18840873Y-13080341D02*
X18821825Y-13070817D01*
X18821825Y-13070817D02*
X18793253Y-13070817D01*
X18793253Y-13070817D02*
X18774206Y-13061293D01*
X18774206Y-13061293D02*
X18764682Y-13042246D01*
X18764682Y-13042246D02*
X18764682Y-13032722D01*
X18764682Y-13032722D02*
X18774206Y-13013674D01*
X18774206Y-13013674D02*
X18793253Y-13004150D01*
X18793253Y-13004150D02*
X18821825Y-13004150D01*
X18821825Y-13004150D02*
X18840873Y-13013674D01*
X18917063Y-13213674D02*
X18926587Y-13204150D01*
X18926587Y-13204150D02*
X18945634Y-13175579D01*
X18945634Y-13175579D02*
X18955158Y-13156531D01*
X18955158Y-13156531D02*
X18964682Y-13127960D01*
X18964682Y-13127960D02*
X18974206Y-13080341D01*
X18974206Y-13080341D02*
X18974206Y-13042246D01*
X18974206Y-13042246D02*
X18964682Y-12994627D01*
X18964682Y-12994627D02*
X18955158Y-12966055D01*
X18955158Y-12966055D02*
X18945634Y-12947008D01*
X18945634Y-12947008D02*
X18926587Y-12918436D01*
X18926587Y-12918436D02*
X18917063Y-12908912D01*
X19278968Y-13213674D02*
X19269444Y-13204150D01*
X19269444Y-13204150D02*
X19250396Y-13175579D01*
X19250396Y-13175579D02*
X19240873Y-13156531D01*
X19240873Y-13156531D02*
X19231349Y-13127960D01*
X19231349Y-13127960D02*
X19221825Y-13080341D01*
X19221825Y-13080341D02*
X19221825Y-13042246D01*
X19221825Y-13042246D02*
X19231349Y-12994627D01*
X19231349Y-12994627D02*
X19240873Y-12966055D01*
X19240873Y-12966055D02*
X19250396Y-12947008D01*
X19250396Y-12947008D02*
X19269444Y-12918436D01*
X19269444Y-12918436D02*
X19278968Y-12908912D01*
X19355158Y-13004150D02*
X19355158Y-13137484D01*
X19355158Y-13023198D02*
X19364682Y-13013674D01*
X19364682Y-13013674D02*
X19383730Y-13004150D01*
X19383730Y-13004150D02*
X19412301Y-13004150D01*
X19412301Y-13004150D02*
X19431349Y-13013674D01*
X19431349Y-13013674D02*
X19440873Y-13032722D01*
X19440873Y-13032722D02*
X19440873Y-13137484D01*
X19564682Y-13137484D02*
X19545634Y-13127960D01*
X19545634Y-13127960D02*
X19536111Y-13118436D01*
X19536111Y-13118436D02*
X19526587Y-13099388D01*
X19526587Y-13099388D02*
X19526587Y-13042246D01*
X19526587Y-13042246D02*
X19536111Y-13023198D01*
X19536111Y-13023198D02*
X19545634Y-13013674D01*
X19545634Y-13013674D02*
X19564682Y-13004150D01*
X19564682Y-13004150D02*
X19593254Y-13004150D01*
X19593254Y-13004150D02*
X19612301Y-13013674D01*
X19612301Y-13013674D02*
X19621825Y-13023198D01*
X19621825Y-13023198D02*
X19631349Y-13042246D01*
X19631349Y-13042246D02*
X19631349Y-13099388D01*
X19631349Y-13099388D02*
X19621825Y-13118436D01*
X19621825Y-13118436D02*
X19612301Y-13127960D01*
X19612301Y-13127960D02*
X19593254Y-13137484D01*
X19593254Y-13137484D02*
X19564682Y-13137484D01*
X19688492Y-13004150D02*
X19764682Y-13004150D01*
X19717063Y-12937484D02*
X19717063Y-13108912D01*
X19717063Y-13108912D02*
X19726587Y-13127960D01*
X19726587Y-13127960D02*
X19745634Y-13137484D01*
X19745634Y-13137484D02*
X19764682Y-13137484D01*
X19983730Y-13004150D02*
X19983730Y-13204150D01*
X19983730Y-13013674D02*
X20002777Y-13004150D01*
X20002777Y-13004150D02*
X20040873Y-13004150D01*
X20040873Y-13004150D02*
X20059920Y-13013674D01*
X20059920Y-13013674D02*
X20069444Y-13023198D01*
X20069444Y-13023198D02*
X20078968Y-13042246D01*
X20078968Y-13042246D02*
X20078968Y-13099388D01*
X20078968Y-13099388D02*
X20069444Y-13118436D01*
X20069444Y-13118436D02*
X20059920Y-13127960D01*
X20059920Y-13127960D02*
X20040873Y-13137484D01*
X20040873Y-13137484D02*
X20002777Y-13137484D01*
X20002777Y-13137484D02*
X19983730Y-13127960D01*
X20193254Y-13137484D02*
X20174206Y-13127960D01*
X20174206Y-13127960D02*
X20164682Y-13108912D01*
X20164682Y-13108912D02*
X20164682Y-12937484D01*
X20355158Y-13137484D02*
X20355158Y-13032722D01*
X20355158Y-13032722D02*
X20345635Y-13013674D01*
X20345635Y-13013674D02*
X20326587Y-13004150D01*
X20326587Y-13004150D02*
X20288492Y-13004150D01*
X20288492Y-13004150D02*
X20269444Y-13013674D01*
X20355158Y-13127960D02*
X20336111Y-13137484D01*
X20336111Y-13137484D02*
X20288492Y-13137484D01*
X20288492Y-13137484D02*
X20269444Y-13127960D01*
X20269444Y-13127960D02*
X20259920Y-13108912D01*
X20259920Y-13108912D02*
X20259920Y-13089865D01*
X20259920Y-13089865D02*
X20269444Y-13070817D01*
X20269444Y-13070817D02*
X20288492Y-13061293D01*
X20288492Y-13061293D02*
X20336111Y-13061293D01*
X20336111Y-13061293D02*
X20355158Y-13051769D01*
X20421825Y-13004150D02*
X20498015Y-13004150D01*
X20450396Y-12937484D02*
X20450396Y-13108912D01*
X20450396Y-13108912D02*
X20459920Y-13127960D01*
X20459920Y-13127960D02*
X20478968Y-13137484D01*
X20478968Y-13137484D02*
X20498015Y-13137484D01*
X20640873Y-13127960D02*
X20621825Y-13137484D01*
X20621825Y-13137484D02*
X20583730Y-13137484D01*
X20583730Y-13137484D02*
X20564682Y-13127960D01*
X20564682Y-13127960D02*
X20555158Y-13108912D01*
X20555158Y-13108912D02*
X20555158Y-13032722D01*
X20555158Y-13032722D02*
X20564682Y-13013674D01*
X20564682Y-13013674D02*
X20583730Y-13004150D01*
X20583730Y-13004150D02*
X20621825Y-13004150D01*
X20621825Y-13004150D02*
X20640873Y-13013674D01*
X20640873Y-13013674D02*
X20650396Y-13032722D01*
X20650396Y-13032722D02*
X20650396Y-13051769D01*
X20650396Y-13051769D02*
X20555158Y-13070817D01*
X20821825Y-13137484D02*
X20821825Y-12937484D01*
X20821825Y-13127960D02*
X20802777Y-13137484D01*
X20802777Y-13137484D02*
X20764682Y-13137484D01*
X20764682Y-13137484D02*
X20745635Y-13127960D01*
X20745635Y-13127960D02*
X20736111Y-13118436D01*
X20736111Y-13118436D02*
X20726587Y-13099388D01*
X20726587Y-13099388D02*
X20726587Y-13042246D01*
X20726587Y-13042246D02*
X20736111Y-13023198D01*
X20736111Y-13023198D02*
X20745635Y-13013674D01*
X20745635Y-13013674D02*
X20764682Y-13004150D01*
X20764682Y-13004150D02*
X20802777Y-13004150D01*
X20802777Y-13004150D02*
X20821825Y-13013674D01*
X20898016Y-13213674D02*
X20907539Y-13204150D01*
X20907539Y-13204150D02*
X20926587Y-13175579D01*
X20926587Y-13175579D02*
X20936111Y-13156531D01*
X20936111Y-13156531D02*
X20945635Y-13127960D01*
X20945635Y-13127960D02*
X20955158Y-13080341D01*
X20955158Y-13080341D02*
X20955158Y-13042246D01*
X20955158Y-13042246D02*
X20945635Y-12994627D01*
X20945635Y-12994627D02*
X20936111Y-12966055D01*
X20936111Y-12966055D02*
X20926587Y-12947008D01*
X20926587Y-12947008D02*
X20907539Y-12918436D01*
X20907539Y-12918436D02*
X20898016Y-12908912D01*
M02*
