M48
; DRILL file {KiCad 8.0.5} date 2025-02-12T16:20:45+0800
; FORMAT={-:-/ absolute / metric / decimal}
; #@! TF.CreationDate,2025-02-12T16:20:45+08:00
; #@! TF.GenerationSoftware,Kicad,Pcbnew,8.0.5
; #@! TF.FileFunction,Plated,1,2,PTH
FMAT,2
METRIC
; #@! TA.AperFunction,Plated,PTH,ViaDrill
T1C0.300
; #@! TA.AperFunction,Plated,PTH,ComponentDrill
T2C0.900
; #@! TA.AperFunction,Plated,PTH,ComponentDrill
T3C1.000
; #@! TA.AperFunction,Plated,PTH,ComponentDrill
T4C1.200
%
G90
G05
T1
X147.445Y-112.395
X149.445Y-89.395
X162.445Y-83.395
X162.445Y-91.395
X162.445Y-99.395
X182.445Y-87.395
T2
X150.445Y-66.095
X150.445Y-80.095
X150.445Y-94.095
X150.445Y-108.095
X152.985Y-66.095
X152.985Y-80.095
X152.985Y-94.095
X152.985Y-108.095
X171.445Y-66.095
X171.445Y-80.095
X171.445Y-94.095
X171.445Y-108.095
X173.985Y-66.095
X173.985Y-80.095
X173.985Y-94.095
X173.985Y-108.095
T3
X144.48Y-71.595
X144.48Y-74.135
X144.48Y-76.675
X144.48Y-79.215
X144.48Y-81.755
X144.48Y-84.295
X144.48Y-86.835
X144.48Y-89.375
X144.48Y-91.915
X144.48Y-94.455
X144.48Y-96.995
X144.48Y-99.535
X144.48Y-102.075
X144.48Y-104.615
X144.48Y-107.155
X159.72Y-71.595
X159.72Y-74.135
X159.72Y-76.675
X159.72Y-79.215
X159.72Y-81.755
X159.72Y-84.295
X159.72Y-86.835
X159.72Y-89.375
X159.72Y-91.915
X159.72Y-94.455
X159.72Y-96.995
X159.72Y-99.535
X159.72Y-102.075
X159.72Y-104.615
X159.72Y-107.155
X187.445Y-102.895
X187.445Y-105.395
X188.445Y-85.735
X188.445Y-88.275
X188.445Y-90.815
X188.445Y-93.355
X188.445Y-95.895
T4
X182.52Y-66.645
X182.52Y-79.145
X187.52Y-66.645
X187.52Y-79.145
M30
