G04 #@! TF.GenerationSoftware,KiCad,Pcbnew,8.0.5*
G04 #@! TF.CreationDate,2025-02-13T10:20:18+08:00*
G04 #@! TF.ProjectId,arduino_solar_bikelight_1,61726475-696e-46f5-9f73-6f6c61725f62,rev?*
G04 #@! TF.SameCoordinates,Original*
G04 #@! TF.FileFunction,Copper,L2,Bot*
G04 #@! TF.FilePolarity,Positive*
%FSLAX46Y46*%
G04 Gerber Fmt 4.6, Leading zero omitted, Abs format (unit mm)*
G04 Created by KiCad (PCBNEW 8.0.5) date 2025-02-13 10:20:18*
%MOMM*%
%LPD*%
G01*
G04 APERTURE LIST*
G04 Aperture macros list*
%AMRoundRect*
0 Rectangle with rounded corners*
0 $1 Rounding radius*
0 $2 $3 $4 $5 $6 $7 $8 $9 X,Y pos of 4 corners*
0 Add a 4 corners polygon primitive as box body*
4,1,4,$2,$3,$4,$5,$6,$7,$8,$9,$2,$3,0*
0 Add four circle primitives for the rounded corners*
1,1,$1+$1,$2,$3*
1,1,$1+$1,$4,$5*
1,1,$1+$1,$6,$7*
1,1,$1+$1,$8,$9*
0 Add four rect primitives between the rounded corners*
20,1,$1+$1,$2,$3,$4,$5,0*
20,1,$1+$1,$4,$5,$6,$7,0*
20,1,$1+$1,$6,$7,$8,$9,0*
20,1,$1+$1,$8,$9,$2,$3,0*%
G04 Aperture macros list end*
G04 #@! TA.AperFunction,ComponentPad*
%ADD10C,1.500000*%
G04 #@! TD*
G04 #@! TA.AperFunction,ComponentPad*
%ADD11R,1.600000X1.600000*%
G04 #@! TD*
G04 #@! TA.AperFunction,ComponentPad*
%ADD12O,1.600000X1.600000*%
G04 #@! TD*
G04 #@! TA.AperFunction,ComponentPad*
%ADD13RoundRect,0.250000X-0.750000X0.600000X-0.750000X-0.600000X0.750000X-0.600000X0.750000X0.600000X0*%
G04 #@! TD*
G04 #@! TA.AperFunction,ComponentPad*
%ADD14O,2.000000X1.700000*%
G04 #@! TD*
G04 #@! TA.AperFunction,ComponentPad*
%ADD15O,1.700000X2.900000*%
G04 #@! TD*
G04 #@! TA.AperFunction,ComponentPad*
%ADD16R,1.700000X1.700000*%
G04 #@! TD*
G04 #@! TA.AperFunction,ComponentPad*
%ADD17O,1.700000X1.700000*%
G04 #@! TD*
G04 #@! TA.AperFunction,ComponentPad*
%ADD18R,1.800000X1.800000*%
G04 #@! TD*
G04 #@! TA.AperFunction,ComponentPad*
%ADD19C,1.800000*%
G04 #@! TD*
G04 #@! TA.AperFunction,ViaPad*
%ADD20C,0.600000*%
G04 #@! TD*
G04 #@! TA.AperFunction,Conductor*
%ADD21C,0.800000*%
G04 #@! TD*
G04 #@! TA.AperFunction,Conductor*
%ADD22C,0.400000*%
G04 #@! TD*
G04 APERTURE END LIST*
D10*
X180645000Y-112395000D03*
X180645000Y-115795000D03*
D11*
X159720000Y-107155000D03*
D12*
X159720000Y-104615000D03*
X159720000Y-102075000D03*
X159720000Y-99535000D03*
X159720000Y-96995000D03*
X159720000Y-94455000D03*
X159720000Y-91915000D03*
X159720000Y-89375000D03*
X159720000Y-86835000D03*
X159720000Y-84295000D03*
X159720000Y-81755000D03*
X159720000Y-79215000D03*
X159720000Y-76675000D03*
X159720000Y-74135000D03*
X159720000Y-71595000D03*
X144480000Y-71595000D03*
X144480000Y-74135000D03*
X144480000Y-76675000D03*
X144480000Y-79215000D03*
X144480000Y-81755000D03*
X144480000Y-84295000D03*
X144480000Y-86835000D03*
X144480000Y-89375000D03*
X144480000Y-91915000D03*
X144480000Y-94455000D03*
X144480000Y-96995000D03*
X144480000Y-99535000D03*
X144480000Y-102075000D03*
X144480000Y-104615000D03*
X144480000Y-107155000D03*
D13*
X187445000Y-102895000D03*
D14*
X187445000Y-105395000D03*
D15*
X182520000Y-79145000D03*
X182520000Y-66645000D03*
X187520000Y-79145000D03*
X187520000Y-66645000D03*
D16*
X188445000Y-85735000D03*
D17*
X188445000Y-88275000D03*
X188445000Y-90815000D03*
X188445000Y-93355000D03*
X188445000Y-95895000D03*
D18*
X150445000Y-94095000D03*
D19*
X152985000Y-94095000D03*
D18*
X171445000Y-94095000D03*
D19*
X173985000Y-94095000D03*
D18*
X171445000Y-108095000D03*
D19*
X173985000Y-108095000D03*
D18*
X150445000Y-80095000D03*
D19*
X152985000Y-80095000D03*
D18*
X150445000Y-108095000D03*
D19*
X152985000Y-108095000D03*
D18*
X171445000Y-66095000D03*
D19*
X173985000Y-66095000D03*
D18*
X171445000Y-80095000D03*
D19*
X173985000Y-80095000D03*
D18*
X150445000Y-66095000D03*
D19*
X152985000Y-66095000D03*
D20*
X180645000Y-108195000D03*
X154245000Y-89595000D03*
X146442500Y-101497500D03*
X152145000Y-114995000D03*
X172545000Y-72995000D03*
X171545000Y-115195000D03*
X151545000Y-73395000D03*
X149545000Y-89295000D03*
X172395000Y-101145000D03*
X152245000Y-101595000D03*
X172295000Y-86945000D03*
X162445000Y-83395000D03*
X162445000Y-99395000D03*
X162445000Y-91395000D03*
X179945000Y-99195000D03*
X182145000Y-91095000D03*
X167545000Y-102995000D03*
X182445000Y-87395000D03*
X174845000Y-117395000D03*
X148395000Y-113345000D03*
D21*
X152445000Y-101795000D02*
X152245000Y-101595000D01*
X168945000Y-115195000D02*
X168945000Y-101695000D01*
X156645000Y-89495000D02*
X154345000Y-89495000D01*
X172145000Y-87095000D02*
X168945000Y-87095000D01*
X156645000Y-101795000D02*
X152445000Y-101795000D01*
X149545000Y-89295000D02*
X153945000Y-89295000D01*
X168945000Y-87095000D02*
X168945000Y-76495000D01*
X156645000Y-101795000D02*
X156645000Y-89495000D01*
X172395000Y-101145000D02*
X171845000Y-101695000D01*
X156645000Y-89495000D02*
X156645000Y-78495000D01*
X168945000Y-115195000D02*
X156645000Y-115195000D01*
X156645000Y-115195000D02*
X152345000Y-115195000D01*
X168945000Y-101695000D02*
X168945000Y-87095000D01*
X172295000Y-86945000D02*
X172145000Y-87095000D01*
X171845000Y-101695000D02*
X168945000Y-101695000D01*
X168945000Y-76495000D02*
X172445000Y-72995000D01*
X156645000Y-78495000D02*
X151545000Y-73395000D01*
X156645000Y-115195000D02*
X156645000Y-101795000D01*
X154345000Y-89495000D02*
X154245000Y-89595000D01*
X152345000Y-115195000D02*
X152145000Y-114995000D01*
X153945000Y-89295000D02*
X154245000Y-89595000D01*
X152245000Y-101595000D02*
X146540000Y-101595000D01*
X146540000Y-101595000D02*
X146442500Y-101497500D01*
X162445000Y-83395000D02*
X162445000Y-91395000D01*
X181945000Y-60395000D02*
X165445000Y-60395000D01*
X165445000Y-60395000D02*
X162445000Y-63395000D01*
X189895000Y-79720000D02*
X189320000Y-79145000D01*
X188445000Y-95895000D02*
X189895000Y-94445000D01*
X187520000Y-66645000D02*
X187520000Y-65970000D01*
X162445000Y-63395000D02*
X162445000Y-83395000D01*
X189895000Y-94445000D02*
X189895000Y-79720000D01*
X187445000Y-105395000D02*
X188945000Y-105395000D01*
X187520000Y-65970000D02*
X181945000Y-60395000D01*
X162445000Y-91395000D02*
X162445000Y-99395000D01*
X189445000Y-95895000D02*
X188445000Y-95895000D01*
X189320000Y-79145000D02*
X187520000Y-79145000D01*
X190445000Y-103895000D02*
X190445000Y-96895000D01*
X190445000Y-96895000D02*
X189445000Y-95895000D01*
X188945000Y-105395000D02*
X190445000Y-103895000D01*
D22*
X159720000Y-97801371D02*
X164913629Y-102995000D01*
X181545000Y-83295000D02*
X181445000Y-83295000D01*
X181445000Y-83295000D02*
X181445000Y-90395000D01*
X182520000Y-82320000D02*
X181545000Y-83295000D01*
X181445000Y-90395000D02*
X184445000Y-93395000D01*
X159720000Y-96995000D02*
X159720000Y-97801371D01*
X167545000Y-102995000D02*
X167645000Y-102995000D01*
X164913629Y-102995000D02*
X167545000Y-102995000D01*
X182520000Y-79145000D02*
X182520000Y-82320000D01*
X184445000Y-93395000D02*
X188405000Y-93395000D01*
X188405000Y-93395000D02*
X188445000Y-93355000D01*
D21*
X185445000Y-65895000D02*
X181945000Y-62395000D01*
X175145000Y-62395000D02*
X171445000Y-66095000D01*
X188445000Y-85735000D02*
X188445000Y-83315000D01*
X186070000Y-80940000D02*
X186070000Y-77020000D01*
X185445000Y-76395000D02*
X185445000Y-65895000D01*
X188445000Y-83315000D02*
X186070000Y-80940000D01*
X181945000Y-62395000D02*
X175145000Y-62395000D01*
X186070000Y-77020000D02*
X185445000Y-76395000D01*
X188445000Y-88275000D02*
X186325000Y-88275000D01*
X186325000Y-88275000D02*
X184445000Y-86395000D01*
X184445000Y-75927969D02*
X183912031Y-75395000D01*
X176145000Y-75395000D02*
X171445000Y-80095000D01*
X183912031Y-75395000D02*
X176145000Y-75395000D01*
X184445000Y-86395000D02*
X184445000Y-75927969D01*
X182445000Y-88895000D02*
X182445000Y-87395000D01*
X188445000Y-90815000D02*
X184365000Y-90815000D01*
X184365000Y-90815000D02*
X182445000Y-88895000D01*
X148395000Y-113345000D02*
X151445000Y-116395000D01*
X151445000Y-116395000D02*
X173845000Y-116395000D01*
X174845000Y-117395000D02*
X181745000Y-117395000D01*
X187445000Y-109595000D02*
X187445000Y-105395000D01*
X173845000Y-116395000D02*
X174845000Y-117395000D01*
X182495000Y-114645000D02*
X182445000Y-114595000D01*
X182445000Y-114595000D02*
X187445000Y-109595000D01*
X182495000Y-116645000D02*
X182495000Y-114645000D01*
X181745000Y-117395000D02*
X182495000Y-116645000D01*
X171545000Y-115195000D02*
X175045000Y-115195000D01*
X175045000Y-115195000D02*
X175045000Y-113895000D01*
X175045000Y-113895000D02*
X186045000Y-102895000D01*
X171545000Y-115195000D02*
X168945000Y-115195000D01*
X186045000Y-102895000D02*
X187445000Y-102895000D01*
G04 #@! TA.AperFunction,Conductor*
G36*
X190887539Y-58915185D02*
G01*
X190933294Y-58967989D01*
X190944500Y-59019500D01*
X190944500Y-117770500D01*
X190924815Y-117837539D01*
X190872011Y-117883294D01*
X190820500Y-117894500D01*
X142069500Y-117894500D01*
X142002461Y-117874815D01*
X141956706Y-117822011D01*
X141945500Y-117770500D01*
X141945500Y-115273711D01*
X142594500Y-115273711D01*
X142594500Y-115516288D01*
X142626161Y-115756785D01*
X142688947Y-115991104D01*
X142759114Y-116160501D01*
X142781776Y-116215212D01*
X142903064Y-116425289D01*
X142903066Y-116425292D01*
X142903067Y-116425293D01*
X143050733Y-116617736D01*
X143050739Y-116617743D01*
X143222256Y-116789260D01*
X143222262Y-116789265D01*
X143414711Y-116936936D01*
X143624788Y-117058224D01*
X143848900Y-117151054D01*
X144083211Y-117213838D01*
X144263586Y-117237584D01*
X144323711Y-117245500D01*
X144323712Y-117245500D01*
X144566289Y-117245500D01*
X144614388Y-117239167D01*
X144806789Y-117213838D01*
X145041100Y-117151054D01*
X145265212Y-117058224D01*
X145475289Y-116936936D01*
X145667738Y-116789265D01*
X145839265Y-116617738D01*
X145986936Y-116425289D01*
X146108224Y-116215212D01*
X146201054Y-115991100D01*
X146263838Y-115756789D01*
X146295500Y-115516288D01*
X146295500Y-115273712D01*
X146263838Y-115033211D01*
X146201054Y-114798900D01*
X146108224Y-114574788D01*
X145986936Y-114364711D01*
X145839265Y-114172262D01*
X145839260Y-114172256D01*
X145667743Y-114000739D01*
X145667736Y-114000733D01*
X145475293Y-113853067D01*
X145475292Y-113853066D01*
X145475289Y-113853064D01*
X145265212Y-113731776D01*
X145265205Y-113731773D01*
X145041104Y-113638947D01*
X144806785Y-113576161D01*
X144566289Y-113544500D01*
X144566288Y-113544500D01*
X144323712Y-113544500D01*
X144323711Y-113544500D01*
X144083214Y-113576161D01*
X143848895Y-113638947D01*
X143624794Y-113731773D01*
X143624785Y-113731777D01*
X143414706Y-113853067D01*
X143222263Y-114000733D01*
X143222256Y-114000739D01*
X143050739Y-114172256D01*
X143050733Y-114172263D01*
X142903067Y-114364706D01*
X142781777Y-114574785D01*
X142781773Y-114574794D01*
X142688947Y-114798895D01*
X142626161Y-115033214D01*
X142594500Y-115273711D01*
X141945500Y-115273711D01*
X141945500Y-107155000D01*
X143474659Y-107155000D01*
X143493975Y-107351129D01*
X143493976Y-107351132D01*
X143543132Y-107513178D01*
X143551188Y-107539733D01*
X143644086Y-107713532D01*
X143644090Y-107713539D01*
X143769116Y-107865883D01*
X143921460Y-107990909D01*
X143921467Y-107990913D01*
X144095266Y-108083811D01*
X144095269Y-108083811D01*
X144095273Y-108083814D01*
X144283868Y-108141024D01*
X144480000Y-108160341D01*
X144676132Y-108141024D01*
X144864727Y-108083814D01*
X145038538Y-107990910D01*
X145190883Y-107865883D01*
X145315910Y-107713538D01*
X145408814Y-107539727D01*
X145466024Y-107351132D01*
X145483347Y-107175247D01*
X149344500Y-107175247D01*
X149344500Y-109014752D01*
X149356131Y-109073229D01*
X149356132Y-109073230D01*
X149400447Y-109139552D01*
X149466769Y-109183867D01*
X149466770Y-109183868D01*
X149525247Y-109195499D01*
X149525250Y-109195500D01*
X149525252Y-109195500D01*
X151364750Y-109195500D01*
X151364751Y-109195499D01*
X151379568Y-109192552D01*
X151423229Y-109183868D01*
X151423229Y-109183867D01*
X151423231Y-109183867D01*
X151489552Y-109139552D01*
X151533867Y-109073231D01*
X151533867Y-109073229D01*
X151533868Y-109073229D01*
X151545499Y-109014752D01*
X151545500Y-109014750D01*
X151545500Y-108094999D01*
X151879785Y-108094999D01*
X151879785Y-108095000D01*
X151898602Y-108298082D01*
X151954417Y-108494247D01*
X151954422Y-108494260D01*
X152045327Y-108676821D01*
X152168237Y-108839581D01*
X152318958Y-108976980D01*
X152318960Y-108976982D01*
X152379955Y-109014748D01*
X152492363Y-109084348D01*
X152682544Y-109158024D01*
X152883024Y-109195500D01*
X152883026Y-109195500D01*
X153086974Y-109195500D01*
X153086976Y-109195500D01*
X153287456Y-109158024D01*
X153477637Y-109084348D01*
X153651041Y-108976981D01*
X153801764Y-108839579D01*
X153924673Y-108676821D01*
X154015582Y-108494250D01*
X154071397Y-108298083D01*
X154090215Y-108095000D01*
X154089178Y-108083814D01*
X154071397Y-107891917D01*
X154020641Y-107713532D01*
X154015582Y-107695750D01*
X153924673Y-107513179D01*
X153801764Y-107350421D01*
X153801762Y-107350418D01*
X153651041Y-107213019D01*
X153651039Y-107213017D01*
X153477642Y-107105655D01*
X153477635Y-107105651D01*
X153335135Y-107050447D01*
X153287456Y-107031976D01*
X153086976Y-106994500D01*
X152883024Y-106994500D01*
X152682544Y-107031976D01*
X152682541Y-107031976D01*
X152682541Y-107031977D01*
X152492364Y-107105651D01*
X152492357Y-107105655D01*
X152318960Y-107213017D01*
X152318958Y-107213019D01*
X152168237Y-107350418D01*
X152045327Y-107513178D01*
X151954422Y-107695739D01*
X151954417Y-107695752D01*
X151898602Y-107891917D01*
X151879785Y-108094999D01*
X151545500Y-108094999D01*
X151545500Y-107175249D01*
X151545499Y-107175247D01*
X151533868Y-107116770D01*
X151533867Y-107116769D01*
X151489552Y-107050447D01*
X151423230Y-107006132D01*
X151423229Y-107006131D01*
X151364752Y-106994500D01*
X151364748Y-106994500D01*
X149525252Y-106994500D01*
X149525247Y-106994500D01*
X149466770Y-107006131D01*
X149466769Y-107006132D01*
X149400447Y-107050447D01*
X149356132Y-107116769D01*
X149356131Y-107116770D01*
X149344500Y-107175247D01*
X145483347Y-107175247D01*
X145485341Y-107155000D01*
X145466024Y-106958868D01*
X145408814Y-106770273D01*
X145408811Y-106770269D01*
X145408811Y-106770266D01*
X145315913Y-106596467D01*
X145315909Y-106596460D01*
X145190883Y-106444116D01*
X145038539Y-106319090D01*
X145038532Y-106319086D01*
X144864733Y-106226188D01*
X144864727Y-106226186D01*
X144676132Y-106168976D01*
X144676129Y-106168975D01*
X144480000Y-106149659D01*
X144283870Y-106168975D01*
X144095266Y-106226188D01*
X143921467Y-106319086D01*
X143921460Y-106319090D01*
X143769116Y-106444116D01*
X143644090Y-106596460D01*
X143644086Y-106596467D01*
X143551188Y-106770266D01*
X143493975Y-106958870D01*
X143474659Y-107155000D01*
X141945500Y-107155000D01*
X141945500Y-104364999D01*
X143201127Y-104364999D01*
X143201128Y-104365000D01*
X144046988Y-104365000D01*
X144014075Y-104422007D01*
X143980000Y-104549174D01*
X143980000Y-104680826D01*
X144014075Y-104807993D01*
X144046988Y-104865000D01*
X143201128Y-104865000D01*
X143253730Y-105061317D01*
X143253734Y-105061326D01*
X143349865Y-105267482D01*
X143480342Y-105453820D01*
X143641179Y-105614657D01*
X143827517Y-105745134D01*
X144033673Y-105841265D01*
X144033682Y-105841269D01*
X144229999Y-105893872D01*
X144230000Y-105893871D01*
X144230000Y-105048012D01*
X144287007Y-105080925D01*
X144414174Y-105115000D01*
X144545826Y-105115000D01*
X144672993Y-105080925D01*
X144730000Y-105048012D01*
X144730000Y-105893872D01*
X144926317Y-105841269D01*
X144926326Y-105841265D01*
X145132482Y-105745134D01*
X145318820Y-105614657D01*
X145479657Y-105453820D01*
X145610134Y-105267482D01*
X145706265Y-105061326D01*
X145706269Y-105061317D01*
X145758872Y-104865000D01*
X144913012Y-104865000D01*
X144945925Y-104807993D01*
X144980000Y-104680826D01*
X144980000Y-104549174D01*
X144945925Y-104422007D01*
X144913012Y-104365000D01*
X145758872Y-104365000D01*
X145758872Y-104364999D01*
X145706269Y-104168682D01*
X145706265Y-104168673D01*
X145610134Y-103962517D01*
X145479657Y-103776179D01*
X145318820Y-103615342D01*
X145132482Y-103484865D01*
X144926328Y-103388734D01*
X144730000Y-103336127D01*
X144730000Y-104181988D01*
X144672993Y-104149075D01*
X144545826Y-104115000D01*
X144414174Y-104115000D01*
X144287007Y-104149075D01*
X144230000Y-104181988D01*
X144230000Y-103336127D01*
X144033671Y-103388734D01*
X143827517Y-103484865D01*
X143641179Y-103615342D01*
X143480342Y-103776179D01*
X143349865Y-103962517D01*
X143253734Y-104168673D01*
X143253730Y-104168682D01*
X143201127Y-104364999D01*
X141945500Y-104364999D01*
X141945500Y-102075000D01*
X143474659Y-102075000D01*
X143493975Y-102271129D01*
X143493976Y-102271132D01*
X143537460Y-102414480D01*
X143551188Y-102459733D01*
X143644086Y-102633532D01*
X143644090Y-102633539D01*
X143769116Y-102785883D01*
X143921460Y-102910909D01*
X143921467Y-102910913D01*
X144095266Y-103003811D01*
X144095269Y-103003811D01*
X144095273Y-103003814D01*
X144283868Y-103061024D01*
X144480000Y-103080341D01*
X144676132Y-103061024D01*
X144864727Y-103003814D01*
X145038538Y-102910910D01*
X145190883Y-102785883D01*
X145315910Y-102633538D01*
X145376865Y-102519500D01*
X145408811Y-102459733D01*
X145408811Y-102459732D01*
X145408814Y-102459727D01*
X145466024Y-102271132D01*
X145485341Y-102075000D01*
X145466024Y-101878868D01*
X145408814Y-101690273D01*
X145408811Y-101690269D01*
X145408811Y-101690266D01*
X145348030Y-101576554D01*
X145841998Y-101576554D01*
X145872468Y-101690266D01*
X145882923Y-101729285D01*
X145961981Y-101866216D01*
X145961983Y-101866218D01*
X146055139Y-101959374D01*
X146055149Y-101959385D01*
X146059479Y-101963715D01*
X146059480Y-101963716D01*
X146171284Y-102075520D01*
X146235886Y-102112817D01*
X146258095Y-102125639D01*
X146258097Y-102125641D01*
X146292492Y-102145499D01*
X146308215Y-102154577D01*
X146460943Y-102195501D01*
X146460946Y-102195501D01*
X146626653Y-102195501D01*
X146626669Y-102195500D01*
X151944902Y-102195500D01*
X152011941Y-102215185D01*
X152032583Y-102231819D01*
X152076284Y-102275520D01*
X152076286Y-102275521D01*
X152076290Y-102275524D01*
X152110892Y-102295501D01*
X152213216Y-102354577D01*
X152365943Y-102395501D01*
X152365945Y-102395501D01*
X152531654Y-102395501D01*
X152531670Y-102395500D01*
X155920500Y-102395500D01*
X155987539Y-102415185D01*
X156033294Y-102467989D01*
X156044500Y-102519500D01*
X156044500Y-114470500D01*
X156024815Y-114537539D01*
X155972011Y-114583294D01*
X155920500Y-114594500D01*
X152645097Y-114594500D01*
X152578058Y-114574815D01*
X152557416Y-114558181D01*
X152513718Y-114514483D01*
X152513716Y-114514481D01*
X152376785Y-114435423D01*
X152224057Y-114394499D01*
X152065943Y-114394499D01*
X151951397Y-114425192D01*
X151913214Y-114435423D01*
X151776284Y-114514481D01*
X151776281Y-114514483D01*
X151664483Y-114626281D01*
X151664481Y-114626284D01*
X151585423Y-114763214D01*
X151585423Y-114763215D01*
X151544499Y-114915943D01*
X151544499Y-114915945D01*
X151544499Y-115074054D01*
X151544498Y-115074054D01*
X151544499Y-115074057D01*
X151585423Y-115226785D01*
X151664481Y-115363716D01*
X151976284Y-115675520D01*
X151976286Y-115675521D01*
X151976290Y-115675524D01*
X152113209Y-115754573D01*
X152113216Y-115754577D01*
X152265943Y-115795501D01*
X152265945Y-115795501D01*
X152431654Y-115795501D01*
X152431670Y-115795500D01*
X175124055Y-115795500D01*
X175124057Y-115795500D01*
X175125923Y-115795000D01*
X179689901Y-115795000D01*
X179708252Y-115981331D01*
X179708253Y-115981333D01*
X179762604Y-116160502D01*
X179850862Y-116325623D01*
X179850864Y-116325626D01*
X179969642Y-116470357D01*
X180114373Y-116589135D01*
X180114376Y-116589137D01*
X180167895Y-116617743D01*
X180279499Y-116677396D01*
X180458666Y-116731746D01*
X180458668Y-116731747D01*
X180475374Y-116733392D01*
X180645000Y-116750099D01*
X180831331Y-116731747D01*
X181010501Y-116677396D01*
X181175625Y-116589136D01*
X181320357Y-116470357D01*
X181439136Y-116325625D01*
X181527396Y-116160501D01*
X181581747Y-115981331D01*
X181600099Y-115795000D01*
X181581747Y-115608669D01*
X181527396Y-115429499D01*
X181492236Y-115363718D01*
X181444127Y-115273711D01*
X186594500Y-115273711D01*
X186594500Y-115516288D01*
X186626161Y-115756785D01*
X186688947Y-115991104D01*
X186759114Y-116160501D01*
X186781776Y-116215212D01*
X186903064Y-116425289D01*
X186903066Y-116425292D01*
X186903067Y-116425293D01*
X187050733Y-116617736D01*
X187050739Y-116617743D01*
X187222256Y-116789260D01*
X187222262Y-116789265D01*
X187414711Y-116936936D01*
X187624788Y-117058224D01*
X187848900Y-117151054D01*
X188083211Y-117213838D01*
X188263586Y-117237584D01*
X188323711Y-117245500D01*
X188323712Y-117245500D01*
X188566289Y-117245500D01*
X188614388Y-117239167D01*
X188806789Y-117213838D01*
X189041100Y-117151054D01*
X189265212Y-117058224D01*
X189475289Y-116936936D01*
X189667738Y-116789265D01*
X189839265Y-116617738D01*
X189986936Y-116425289D01*
X190108224Y-116215212D01*
X190201054Y-115991100D01*
X190263838Y-115756789D01*
X190295500Y-115516288D01*
X190295500Y-115273712D01*
X190263838Y-115033211D01*
X190201054Y-114798900D01*
X190108224Y-114574788D01*
X189986936Y-114364711D01*
X189839265Y-114172262D01*
X189839260Y-114172256D01*
X189667743Y-114000739D01*
X189667736Y-114000733D01*
X189475293Y-113853067D01*
X189475292Y-113853066D01*
X189475289Y-113853064D01*
X189265212Y-113731776D01*
X189265205Y-113731773D01*
X189041104Y-113638947D01*
X188806785Y-113576161D01*
X188566289Y-113544500D01*
X188566288Y-113544500D01*
X188323712Y-113544500D01*
X188323711Y-113544500D01*
X188083214Y-113576161D01*
X187848895Y-113638947D01*
X187624794Y-113731773D01*
X187624785Y-113731777D01*
X187414706Y-113853067D01*
X187222263Y-114000733D01*
X187222256Y-114000739D01*
X187050739Y-114172256D01*
X187050733Y-114172263D01*
X186903067Y-114364706D01*
X186781777Y-114574785D01*
X186781773Y-114574794D01*
X186688947Y-114798895D01*
X186626161Y-115033214D01*
X186594500Y-115273711D01*
X181444127Y-115273711D01*
X181439137Y-115264376D01*
X181439135Y-115264373D01*
X181320357Y-115119642D01*
X181175626Y-115000864D01*
X181175623Y-115000862D01*
X181010502Y-114912604D01*
X180831333Y-114858253D01*
X180831331Y-114858252D01*
X180645000Y-114839901D01*
X180458668Y-114858252D01*
X180458666Y-114858253D01*
X180279497Y-114912604D01*
X180114376Y-115000862D01*
X180114373Y-115000864D01*
X179969642Y-115119642D01*
X179850864Y-115264373D01*
X179850862Y-115264376D01*
X179762604Y-115429497D01*
X179708253Y-115608666D01*
X179708252Y-115608668D01*
X179689901Y-115795000D01*
X175125923Y-115795000D01*
X175276784Y-115754577D01*
X175413716Y-115675520D01*
X175525520Y-115563716D01*
X175604577Y-115426784D01*
X175645500Y-115274057D01*
X175645500Y-114195097D01*
X175665185Y-114128058D01*
X175681819Y-114107416D01*
X177394235Y-112395000D01*
X179689901Y-112395000D01*
X179708252Y-112581331D01*
X179708253Y-112581333D01*
X179762604Y-112760502D01*
X179850862Y-112925623D01*
X179850864Y-112925626D01*
X179969642Y-113070357D01*
X180114373Y-113189135D01*
X180114376Y-113189137D01*
X180279497Y-113277395D01*
X180279499Y-113277396D01*
X180458666Y-113331746D01*
X180458668Y-113331747D01*
X180475374Y-113333392D01*
X180645000Y-113350099D01*
X180831331Y-113331747D01*
X181010501Y-113277396D01*
X181175625Y-113189136D01*
X181320357Y-113070357D01*
X181439136Y-112925625D01*
X181527396Y-112760501D01*
X181581747Y-112581331D01*
X181600099Y-112395000D01*
X181581747Y-112208669D01*
X181527396Y-112029499D01*
X181439136Y-111864375D01*
X181439135Y-111864373D01*
X181320357Y-111719642D01*
X181175626Y-111600864D01*
X181175623Y-111600862D01*
X181010502Y-111512604D01*
X180831333Y-111458253D01*
X180831331Y-111458252D01*
X180645000Y-111439901D01*
X180458668Y-111458252D01*
X180458666Y-111458253D01*
X180279497Y-111512604D01*
X180114376Y-111600862D01*
X180114373Y-111600864D01*
X179969642Y-111719642D01*
X179850864Y-111864373D01*
X179850862Y-111864376D01*
X179762604Y-112029497D01*
X179708253Y-112208666D01*
X179708252Y-112208668D01*
X179689901Y-112395000D01*
X177394235Y-112395000D01*
X180812255Y-108976980D01*
X186100785Y-103688449D01*
X186162106Y-103654966D01*
X186231798Y-103659950D01*
X186287731Y-103701822D01*
X186288234Y-103702499D01*
X186372848Y-103817148D01*
X186372849Y-103817148D01*
X186372850Y-103817150D01*
X186482118Y-103897793D01*
X186524845Y-103912744D01*
X186610299Y-103942646D01*
X186640730Y-103945500D01*
X186649676Y-103945500D01*
X186716715Y-103965185D01*
X186762470Y-104017989D01*
X186772414Y-104087147D01*
X186743389Y-104150703D01*
X186705971Y-104179985D01*
X186587442Y-104240379D01*
X186415540Y-104365272D01*
X186415535Y-104365276D01*
X186265276Y-104515535D01*
X186265272Y-104515540D01*
X186140379Y-104687442D01*
X186043904Y-104876782D01*
X185978242Y-105078870D01*
X185978242Y-105078873D01*
X185967769Y-105145000D01*
X187011988Y-105145000D01*
X186979075Y-105202007D01*
X186945000Y-105329174D01*
X186945000Y-105460826D01*
X186979075Y-105587993D01*
X187011988Y-105645000D01*
X185967769Y-105645000D01*
X185978242Y-105711126D01*
X185978242Y-105711129D01*
X186043904Y-105913217D01*
X186140379Y-106102557D01*
X186265272Y-106274459D01*
X186265276Y-106274464D01*
X186415535Y-106424723D01*
X186415540Y-106424727D01*
X186587442Y-106549620D01*
X186776782Y-106646095D01*
X186978870Y-106711757D01*
X187188754Y-106745000D01*
X187195000Y-106745000D01*
X187195000Y-105828012D01*
X187252007Y-105860925D01*
X187379174Y-105895000D01*
X187510826Y-105895000D01*
X187637993Y-105860925D01*
X187695000Y-105828012D01*
X187695000Y-106745000D01*
X187701246Y-106745000D01*
X187911127Y-106711757D01*
X187911130Y-106711757D01*
X188113217Y-106646095D01*
X188302557Y-106549620D01*
X188474459Y-106424727D01*
X188474464Y-106424723D01*
X188624723Y-106274464D01*
X188624727Y-106274459D01*
X188749620Y-106102557D01*
X188846095Y-105913217D01*
X188911757Y-105711129D01*
X188911757Y-105711126D01*
X188922231Y-105645000D01*
X187878012Y-105645000D01*
X187910925Y-105587993D01*
X187945000Y-105460826D01*
X187945000Y-105329174D01*
X187910925Y-105202007D01*
X187878012Y-105145000D01*
X188922231Y-105145000D01*
X188911757Y-105078873D01*
X188911757Y-105078870D01*
X188846095Y-104876782D01*
X188749620Y-104687442D01*
X188624727Y-104515540D01*
X188624723Y-104515535D01*
X188474464Y-104365276D01*
X188474459Y-104365272D01*
X188302557Y-104240379D01*
X188184029Y-104179985D01*
X188133233Y-104132010D01*
X188116438Y-104064189D01*
X188138976Y-103998054D01*
X188193691Y-103954603D01*
X188240324Y-103945500D01*
X188249270Y-103945500D01*
X188279699Y-103942646D01*
X188279701Y-103942646D01*
X188343790Y-103920219D01*
X188407882Y-103897793D01*
X188517150Y-103817150D01*
X188597793Y-103707882D01*
X188632163Y-103609659D01*
X188642646Y-103579701D01*
X188642646Y-103579699D01*
X188645500Y-103549269D01*
X188645500Y-102240730D01*
X188642646Y-102210300D01*
X188642646Y-102210298D01*
X188597793Y-102082119D01*
X188597792Y-102082117D01*
X188592923Y-102075520D01*
X188517150Y-101972850D01*
X188407882Y-101892207D01*
X188407880Y-101892206D01*
X188279700Y-101847353D01*
X188249270Y-101844500D01*
X188249266Y-101844500D01*
X186640734Y-101844500D01*
X186640730Y-101844500D01*
X186610300Y-101847353D01*
X186610298Y-101847353D01*
X186482119Y-101892206D01*
X186482117Y-101892207D01*
X186372850Y-101972850D01*
X186292207Y-102082117D01*
X186246949Y-102211456D01*
X186206227Y-102268231D01*
X186141274Y-102293978D01*
X186129908Y-102294500D01*
X185965943Y-102294500D01*
X185813214Y-102335423D01*
X185780040Y-102354577D01*
X185780039Y-102354577D01*
X185676287Y-102414477D01*
X185676282Y-102414481D01*
X174564481Y-113526282D01*
X174564479Y-113526285D01*
X174514361Y-113613094D01*
X174514359Y-113613096D01*
X174485425Y-113663209D01*
X174485424Y-113663210D01*
X174485423Y-113663215D01*
X174444499Y-113815943D01*
X174444499Y-113815945D01*
X174444499Y-113984046D01*
X174444500Y-113984059D01*
X174444500Y-114470500D01*
X174424815Y-114537539D01*
X174372011Y-114583294D01*
X174320500Y-114594500D01*
X169669500Y-114594500D01*
X169602461Y-114574815D01*
X169556706Y-114522011D01*
X169545500Y-114470500D01*
X169545500Y-107175247D01*
X170344500Y-107175247D01*
X170344500Y-109014752D01*
X170356131Y-109073229D01*
X170356132Y-109073230D01*
X170400447Y-109139552D01*
X170466769Y-109183867D01*
X170466770Y-109183868D01*
X170525247Y-109195499D01*
X170525250Y-109195500D01*
X170525252Y-109195500D01*
X172364750Y-109195500D01*
X172364751Y-109195499D01*
X172379568Y-109192552D01*
X172423229Y-109183868D01*
X172423229Y-109183867D01*
X172423231Y-109183867D01*
X172489552Y-109139552D01*
X172533867Y-109073231D01*
X172533867Y-109073229D01*
X172533868Y-109073229D01*
X172545499Y-109014752D01*
X172545500Y-109014750D01*
X172545500Y-108094999D01*
X172879785Y-108094999D01*
X172879785Y-108095000D01*
X172898602Y-108298082D01*
X172954417Y-108494247D01*
X172954422Y-108494260D01*
X173045327Y-108676821D01*
X173168237Y-108839581D01*
X173318958Y-108976980D01*
X173318960Y-108976982D01*
X173379955Y-109014748D01*
X173492363Y-109084348D01*
X173682544Y-109158024D01*
X173883024Y-109195500D01*
X173883026Y-109195500D01*
X174086974Y-109195500D01*
X174086976Y-109195500D01*
X174287456Y-109158024D01*
X174477637Y-109084348D01*
X174651041Y-108976981D01*
X174801764Y-108839579D01*
X174924673Y-108676821D01*
X175015582Y-108494250D01*
X175071397Y-108298083D01*
X175090215Y-108095000D01*
X175089178Y-108083814D01*
X175071397Y-107891917D01*
X175020641Y-107713532D01*
X175015582Y-107695750D01*
X174924673Y-107513179D01*
X174801764Y-107350421D01*
X174801762Y-107350418D01*
X174651041Y-107213019D01*
X174651039Y-107213017D01*
X174477642Y-107105655D01*
X174477635Y-107105651D01*
X174335135Y-107050447D01*
X174287456Y-107031976D01*
X174086976Y-106994500D01*
X173883024Y-106994500D01*
X173682544Y-107031976D01*
X173682541Y-107031976D01*
X173682541Y-107031977D01*
X173492364Y-107105651D01*
X173492357Y-107105655D01*
X173318960Y-107213017D01*
X173318958Y-107213019D01*
X173168237Y-107350418D01*
X173045327Y-107513178D01*
X172954422Y-107695739D01*
X172954417Y-107695752D01*
X172898602Y-107891917D01*
X172879785Y-108094999D01*
X172545500Y-108094999D01*
X172545500Y-107175249D01*
X172545499Y-107175247D01*
X172533868Y-107116770D01*
X172533867Y-107116769D01*
X172489552Y-107050447D01*
X172423230Y-107006132D01*
X172423229Y-107006131D01*
X172364752Y-106994500D01*
X172364748Y-106994500D01*
X170525252Y-106994500D01*
X170525247Y-106994500D01*
X170466770Y-107006131D01*
X170466769Y-107006132D01*
X170400447Y-107050447D01*
X170356132Y-107116769D01*
X170356131Y-107116770D01*
X170344500Y-107175247D01*
X169545500Y-107175247D01*
X169545500Y-102419500D01*
X169565185Y-102352461D01*
X169617989Y-102306706D01*
X169669500Y-102295500D01*
X171758331Y-102295500D01*
X171758347Y-102295501D01*
X171765943Y-102295501D01*
X171924054Y-102295501D01*
X171924057Y-102295501D01*
X172076785Y-102254577D01*
X172126904Y-102225639D01*
X172213716Y-102175520D01*
X172325520Y-102063716D01*
X172325520Y-102063714D01*
X172335728Y-102053507D01*
X172335729Y-102053504D01*
X172875519Y-101513716D01*
X172954576Y-101376785D01*
X172995500Y-101224058D01*
X172995500Y-101211228D01*
X184594500Y-101211228D01*
X184594500Y-101378771D01*
X184627182Y-101543074D01*
X184627184Y-101543082D01*
X184691295Y-101697860D01*
X184784373Y-101837162D01*
X184902837Y-101955626D01*
X184914945Y-101963716D01*
X185042137Y-102048703D01*
X185042138Y-102048703D01*
X185042139Y-102048704D01*
X185077201Y-102063227D01*
X185196918Y-102112816D01*
X185361228Y-102145499D01*
X185361232Y-102145500D01*
X185361233Y-102145500D01*
X185528768Y-102145500D01*
X185528769Y-102145499D01*
X185693082Y-102112816D01*
X185847863Y-102048703D01*
X185987162Y-101955626D01*
X186105626Y-101837162D01*
X186198703Y-101697863D01*
X186262816Y-101543082D01*
X186295500Y-101378767D01*
X186295500Y-101211233D01*
X186262816Y-101046918D01*
X186207434Y-100913216D01*
X186198704Y-100892139D01*
X186105626Y-100752837D01*
X185987162Y-100634373D01*
X185847860Y-100541295D01*
X185693082Y-100477184D01*
X185693074Y-100477182D01*
X185528771Y-100444500D01*
X185528767Y-100444500D01*
X185361233Y-100444500D01*
X185361228Y-100444500D01*
X185196925Y-100477182D01*
X185196917Y-100477184D01*
X185042139Y-100541295D01*
X184902837Y-100634373D01*
X184784373Y-100752837D01*
X184691295Y-100892139D01*
X184627184Y-101046917D01*
X184627182Y-101046925D01*
X184594500Y-101211228D01*
X172995500Y-101211228D01*
X172995500Y-101065943D01*
X172954576Y-100913216D01*
X172942406Y-100892137D01*
X172875523Y-100776290D01*
X172875517Y-100776282D01*
X172763717Y-100664482D01*
X172763709Y-100664476D01*
X172626790Y-100585427D01*
X172626785Y-100585424D01*
X172575875Y-100571782D01*
X172474057Y-100544500D01*
X172315942Y-100544500D01*
X172163215Y-100585424D01*
X172163213Y-100585424D01*
X172163213Y-100585425D01*
X172026281Y-100664483D01*
X171632584Y-101058181D01*
X171571261Y-101091666D01*
X171544903Y-101094500D01*
X169669500Y-101094500D01*
X169602461Y-101074815D01*
X169556706Y-101022011D01*
X169545500Y-100970500D01*
X169545500Y-93175247D01*
X170344500Y-93175247D01*
X170344500Y-95014752D01*
X170356131Y-95073229D01*
X170356132Y-95073230D01*
X170400447Y-95139552D01*
X170466769Y-95183867D01*
X170466770Y-95183868D01*
X170525247Y-95195499D01*
X170525250Y-95195500D01*
X170525252Y-95195500D01*
X172364750Y-95195500D01*
X172364751Y-95195499D01*
X172379568Y-95192552D01*
X172423229Y-95183868D01*
X172423229Y-95183867D01*
X172423231Y-95183867D01*
X172489552Y-95139552D01*
X172533867Y-95073231D01*
X172533867Y-95073229D01*
X172533868Y-95073229D01*
X172543674Y-95023926D01*
X172545500Y-95014748D01*
X172545500Y-94094999D01*
X172879785Y-94094999D01*
X172879785Y-94095000D01*
X172898602Y-94298082D01*
X172954417Y-94494247D01*
X172954422Y-94494260D01*
X173045327Y-94676821D01*
X173168237Y-94839581D01*
X173318958Y-94976980D01*
X173318960Y-94976982D01*
X173378002Y-95013539D01*
X173492363Y-95084348D01*
X173682544Y-95158024D01*
X173883024Y-95195500D01*
X173883026Y-95195500D01*
X174086974Y-95195500D01*
X174086976Y-95195500D01*
X174287456Y-95158024D01*
X174477637Y-95084348D01*
X174651041Y-94976981D01*
X174801764Y-94839579D01*
X174924673Y-94676821D01*
X175015582Y-94494250D01*
X175071397Y-94298083D01*
X175090215Y-94095000D01*
X175071397Y-93891917D01*
X175015582Y-93695750D01*
X174924673Y-93513179D01*
X174801764Y-93350421D01*
X174801762Y-93350418D01*
X174651041Y-93213019D01*
X174651039Y-93213017D01*
X174477642Y-93105655D01*
X174477635Y-93105651D01*
X174335135Y-93050447D01*
X174287456Y-93031976D01*
X174086976Y-92994500D01*
X173883024Y-92994500D01*
X173682544Y-93031976D01*
X173682541Y-93031976D01*
X173682541Y-93031977D01*
X173492364Y-93105651D01*
X173492357Y-93105655D01*
X173318960Y-93213017D01*
X173318958Y-93213019D01*
X173168237Y-93350418D01*
X173045327Y-93513178D01*
X172954422Y-93695739D01*
X172954417Y-93695752D01*
X172898602Y-93891917D01*
X172879785Y-94094999D01*
X172545500Y-94094999D01*
X172545500Y-93175252D01*
X172545500Y-93175249D01*
X172545499Y-93175247D01*
X172533868Y-93116770D01*
X172533867Y-93116769D01*
X172489552Y-93050447D01*
X172423230Y-93006132D01*
X172423229Y-93006131D01*
X172364752Y-92994500D01*
X172364748Y-92994500D01*
X170525252Y-92994500D01*
X170525247Y-92994500D01*
X170466770Y-93006131D01*
X170466769Y-93006132D01*
X170400447Y-93050447D01*
X170356132Y-93116769D01*
X170356131Y-93116770D01*
X170344500Y-93175247D01*
X169545500Y-93175247D01*
X169545500Y-87819500D01*
X169565185Y-87752461D01*
X169617989Y-87706706D01*
X169669500Y-87695500D01*
X172058331Y-87695500D01*
X172058347Y-87695501D01*
X172065943Y-87695501D01*
X172224054Y-87695501D01*
X172224057Y-87695501D01*
X172376785Y-87654577D01*
X172426904Y-87625639D01*
X172513716Y-87575520D01*
X172625520Y-87463716D01*
X172625520Y-87463714D01*
X172635728Y-87453507D01*
X172635728Y-87453505D01*
X172775519Y-87313716D01*
X172854577Y-87176785D01*
X172895501Y-87024057D01*
X172895501Y-86865943D01*
X172854577Y-86713215D01*
X172775519Y-86576284D01*
X172663716Y-86464481D01*
X172526785Y-86385423D01*
X172374057Y-86344499D01*
X172215943Y-86344499D01*
X172118908Y-86370500D01*
X172063214Y-86385423D01*
X171926284Y-86464481D01*
X171920560Y-86468874D01*
X171855392Y-86494070D01*
X171845071Y-86494500D01*
X169669500Y-86494500D01*
X169602461Y-86474815D01*
X169556706Y-86422011D01*
X169545500Y-86370500D01*
X169545500Y-83242273D01*
X181044500Y-83242273D01*
X181044500Y-90447726D01*
X181071793Y-90549589D01*
X181083345Y-90569597D01*
X181124520Y-90640913D01*
X181124522Y-90640915D01*
X181620369Y-91136762D01*
X181653854Y-91198085D01*
X181655426Y-91206795D01*
X181659834Y-91237453D01*
X181659835Y-91237458D01*
X181714182Y-91356460D01*
X181719623Y-91368373D01*
X181813872Y-91477143D01*
X181934947Y-91554953D01*
X181934950Y-91554954D01*
X181934949Y-91554954D01*
X182051262Y-91589106D01*
X182104009Y-91620402D01*
X184120179Y-93636571D01*
X184120189Y-93636582D01*
X184199088Y-93715481D01*
X184223887Y-93729798D01*
X184248688Y-93744117D01*
X184290413Y-93768207D01*
X184392273Y-93795501D01*
X184392275Y-93795501D01*
X184505323Y-93795501D01*
X184505339Y-93795500D01*
X187414980Y-93795500D01*
X187482019Y-93815185D01*
X187524336Y-93861044D01*
X187567315Y-93941450D01*
X187567317Y-93941452D01*
X187698589Y-94101410D01*
X187795209Y-94180702D01*
X187858550Y-94232685D01*
X188041046Y-94330232D01*
X188107551Y-94350405D01*
X188165989Y-94388702D01*
X188194446Y-94452514D01*
X188183887Y-94521581D01*
X188137663Y-94573975D01*
X188103650Y-94588841D01*
X187981514Y-94621567D01*
X187981507Y-94621570D01*
X187767422Y-94721399D01*
X187767420Y-94721400D01*
X187573926Y-94856886D01*
X187573920Y-94856891D01*
X187406891Y-95023920D01*
X187406886Y-95023926D01*
X187271400Y-95217420D01*
X187271399Y-95217422D01*
X187171570Y-95431507D01*
X187171567Y-95431513D01*
X187114364Y-95644999D01*
X187114364Y-95645000D01*
X188011988Y-95645000D01*
X187979075Y-95702007D01*
X187945000Y-95829174D01*
X187945000Y-95960826D01*
X187979075Y-96087993D01*
X188011988Y-96145000D01*
X187114364Y-96145000D01*
X187171567Y-96358486D01*
X187171570Y-96358492D01*
X187271399Y-96572578D01*
X187406894Y-96766082D01*
X187573917Y-96933105D01*
X187767421Y-97068600D01*
X187981507Y-97168429D01*
X187981516Y-97168433D01*
X188195000Y-97225634D01*
X188195000Y-96328012D01*
X188252007Y-96360925D01*
X188379174Y-96395000D01*
X188510826Y-96395000D01*
X188637993Y-96360925D01*
X188695000Y-96328012D01*
X188695000Y-97225633D01*
X188908483Y-97168433D01*
X188908492Y-97168429D01*
X189122578Y-97068600D01*
X189316082Y-96933105D01*
X189483105Y-96766082D01*
X189618600Y-96572578D01*
X189718429Y-96358492D01*
X189718432Y-96358486D01*
X189775636Y-96145000D01*
X188878012Y-96145000D01*
X188910925Y-96087993D01*
X188945000Y-95960826D01*
X188945000Y-95829174D01*
X188910925Y-95702007D01*
X188878012Y-95645000D01*
X189775636Y-95645000D01*
X189775635Y-95644999D01*
X189718432Y-95431513D01*
X189718429Y-95431507D01*
X189618600Y-95217422D01*
X189618599Y-95217420D01*
X189483113Y-95023926D01*
X189483108Y-95023920D01*
X189316082Y-94856894D01*
X189122578Y-94721399D01*
X188908492Y-94621570D01*
X188908486Y-94621567D01*
X188786349Y-94588841D01*
X188726689Y-94552476D01*
X188696160Y-94489629D01*
X188704455Y-94420253D01*
X188748940Y-94366375D01*
X188782444Y-94350407D01*
X188848954Y-94330232D01*
X189031450Y-94232685D01*
X189191410Y-94101410D01*
X189322685Y-93941450D01*
X189420232Y-93758954D01*
X189480300Y-93560934D01*
X189500583Y-93355000D01*
X189480300Y-93149066D01*
X189420232Y-92951046D01*
X189322685Y-92768550D01*
X189270702Y-92705209D01*
X189191410Y-92608589D01*
X189031452Y-92477317D01*
X189031453Y-92477317D01*
X189031450Y-92477315D01*
X188848954Y-92379768D01*
X188650934Y-92319700D01*
X188650932Y-92319699D01*
X188650934Y-92319699D01*
X188445000Y-92299417D01*
X188239067Y-92319699D01*
X188041043Y-92379769D01*
X187930898Y-92438643D01*
X187858550Y-92477315D01*
X187858548Y-92477316D01*
X187858547Y-92477317D01*
X187698589Y-92608589D01*
X187581789Y-92750913D01*
X187567315Y-92768550D01*
X187486181Y-92920341D01*
X187481577Y-92928954D01*
X187432614Y-92978798D01*
X187372219Y-92994500D01*
X184662254Y-92994500D01*
X184595215Y-92974815D01*
X184574573Y-92958181D01*
X182669629Y-91053236D01*
X182636144Y-90991913D01*
X182634572Y-90983198D01*
X182630165Y-90952546D01*
X182630164Y-90952540D01*
X182570377Y-90821628D01*
X182570376Y-90821626D01*
X182564635Y-90815000D01*
X182476128Y-90712857D01*
X182441581Y-90690655D01*
X182355051Y-90635045D01*
X182238736Y-90600893D01*
X182185990Y-90569597D01*
X181881819Y-90265426D01*
X181848334Y-90204103D01*
X181845500Y-90177745D01*
X181845500Y-89444098D01*
X181865185Y-89377059D01*
X181917989Y-89331304D01*
X181987147Y-89321360D01*
X182050703Y-89350385D01*
X182057181Y-89356417D01*
X182083349Y-89382585D01*
X182083355Y-89382590D01*
X183880139Y-91179374D01*
X183880149Y-91179385D01*
X183884479Y-91183715D01*
X183884480Y-91183716D01*
X183996284Y-91295520D01*
X184083095Y-91345639D01*
X184083097Y-91345641D01*
X184121151Y-91367611D01*
X184133215Y-91374577D01*
X184285943Y-91415501D01*
X184285946Y-91415501D01*
X184451653Y-91415501D01*
X184451669Y-91415500D01*
X187520197Y-91415500D01*
X187587236Y-91435185D01*
X187616050Y-91460835D01*
X187693291Y-91554953D01*
X187698590Y-91561410D01*
X187858550Y-91692685D01*
X188041046Y-91790232D01*
X188239066Y-91850300D01*
X188239065Y-91850300D01*
X188257529Y-91852118D01*
X188445000Y-91870583D01*
X188650934Y-91850300D01*
X188848954Y-91790232D01*
X189031450Y-91692685D01*
X189191410Y-91561410D01*
X189322685Y-91401450D01*
X189420232Y-91218954D01*
X189480300Y-91020934D01*
X189500583Y-90815000D01*
X189480300Y-90609066D01*
X189420232Y-90411046D01*
X189322685Y-90228550D01*
X189261977Y-90154577D01*
X189191410Y-90068589D01*
X189031452Y-89937317D01*
X189031453Y-89937317D01*
X189031450Y-89937315D01*
X188848954Y-89839768D01*
X188650934Y-89779700D01*
X188650932Y-89779699D01*
X188650934Y-89779699D01*
X188445000Y-89759417D01*
X188239067Y-89779699D01*
X188041043Y-89839769D01*
X187936780Y-89895500D01*
X187858550Y-89937315D01*
X187858548Y-89937316D01*
X187858547Y-89937317D01*
X187698589Y-90068590D01*
X187616050Y-90169165D01*
X187558305Y-90208499D01*
X187520197Y-90214500D01*
X184665097Y-90214500D01*
X184598058Y-90194815D01*
X184577416Y-90178181D01*
X183081819Y-88682584D01*
X183048334Y-88621261D01*
X183045500Y-88594903D01*
X183045500Y-87315945D01*
X183045500Y-87315943D01*
X183004577Y-87163216D01*
X182928319Y-87031132D01*
X182925524Y-87026290D01*
X182925518Y-87026282D01*
X182813717Y-86914481D01*
X182813709Y-86914475D01*
X182676790Y-86835426D01*
X182676786Y-86835424D01*
X182676784Y-86835423D01*
X182524057Y-86794500D01*
X182365943Y-86794500D01*
X182213216Y-86835423D01*
X182213209Y-86835426D01*
X182076290Y-86914475D01*
X182076282Y-86914481D01*
X182057181Y-86933583D01*
X181995858Y-86967068D01*
X181926166Y-86962084D01*
X181870233Y-86920212D01*
X181845816Y-86854748D01*
X181845500Y-86845902D01*
X181845500Y-83612255D01*
X181865185Y-83545216D01*
X181881819Y-83524574D01*
X182357308Y-83049085D01*
X182840480Y-82565913D01*
X182893207Y-82474588D01*
X182920500Y-82372727D01*
X182920500Y-82267273D01*
X182920500Y-80799014D01*
X182940185Y-80731975D01*
X182992989Y-80686220D01*
X182997048Y-80684453D01*
X183017598Y-80675941D01*
X183189655Y-80560977D01*
X183335977Y-80414655D01*
X183450941Y-80242598D01*
X183530130Y-80051420D01*
X183570500Y-79848465D01*
X183570500Y-78441535D01*
X183530130Y-78238580D01*
X183450941Y-78047402D01*
X183335977Y-77875345D01*
X183335975Y-77875342D01*
X183189657Y-77729024D01*
X183094638Y-77665535D01*
X183017598Y-77614059D01*
X182992857Y-77603811D01*
X182826420Y-77534870D01*
X182826412Y-77534868D01*
X182623469Y-77494500D01*
X182623465Y-77494500D01*
X182416535Y-77494500D01*
X182416530Y-77494500D01*
X182213587Y-77534868D01*
X182213579Y-77534870D01*
X182022403Y-77614058D01*
X181850342Y-77729024D01*
X181704024Y-77875342D01*
X181589058Y-78047403D01*
X181509870Y-78238579D01*
X181509868Y-78238587D01*
X181469500Y-78441530D01*
X181469500Y-79848469D01*
X181509868Y-80051412D01*
X181509870Y-80051420D01*
X181589058Y-80242596D01*
X181704024Y-80414657D01*
X181850342Y-80560975D01*
X181850345Y-80560977D01*
X182022402Y-80675941D01*
X182042952Y-80684453D01*
X182097356Y-80728293D01*
X182119421Y-80794587D01*
X182119500Y-80799014D01*
X182119500Y-82102744D01*
X182099815Y-82169783D01*
X182083181Y-82190425D01*
X181397781Y-82875824D01*
X181342195Y-82907917D01*
X181290417Y-82921791D01*
X181290410Y-82921794D01*
X181199085Y-82974521D01*
X181124521Y-83049085D01*
X181071794Y-83140410D01*
X181071793Y-83140413D01*
X181044500Y-83242273D01*
X169545500Y-83242273D01*
X169545500Y-76795097D01*
X169565185Y-76728058D01*
X169581819Y-76707416D01*
X171225424Y-75063811D01*
X172925519Y-73363716D01*
X173004576Y-73226785D01*
X173023482Y-73156225D01*
X173029875Y-73138441D01*
X173030164Y-73137459D01*
X173030163Y-73137459D01*
X173030165Y-73137457D01*
X173031026Y-73131458D01*
X173033988Y-73117013D01*
X173045500Y-73074058D01*
X173045500Y-73039667D01*
X173046762Y-73022020D01*
X173050647Y-72994999D01*
X173046762Y-72967977D01*
X173045500Y-72950331D01*
X173045500Y-72915944D01*
X173045499Y-72915940D01*
X173033990Y-72872989D01*
X173031027Y-72858541D01*
X173030165Y-72852543D01*
X173030164Y-72852542D01*
X173030164Y-72852538D01*
X173029881Y-72851576D01*
X173023486Y-72833790D01*
X173015624Y-72804448D01*
X179369500Y-72804448D01*
X179369500Y-72985551D01*
X179397829Y-73164410D01*
X179453787Y-73336636D01*
X179453788Y-73336639D01*
X179509664Y-73446300D01*
X179523807Y-73474057D01*
X179536006Y-73497997D01*
X179642441Y-73644494D01*
X179642445Y-73644499D01*
X179770500Y-73772554D01*
X179770505Y-73772558D01*
X179898287Y-73865396D01*
X179917006Y-73878996D01*
X180022484Y-73932740D01*
X180078360Y-73961211D01*
X180078363Y-73961212D01*
X180164476Y-73989191D01*
X180250591Y-74017171D01*
X180333429Y-74030291D01*
X180429449Y-74045500D01*
X180429454Y-74045500D01*
X180610551Y-74045500D01*
X180697259Y-74031765D01*
X180789409Y-74017171D01*
X180961639Y-73961211D01*
X181122994Y-73878996D01*
X181269501Y-73772553D01*
X181397553Y-73644501D01*
X181503996Y-73497994D01*
X181586211Y-73336639D01*
X181642171Y-73164409D01*
X181664048Y-73026284D01*
X181670500Y-72985551D01*
X181670500Y-72804448D01*
X181654019Y-72700397D01*
X181642171Y-72625591D01*
X181586211Y-72453361D01*
X181586211Y-72453360D01*
X181556220Y-72394500D01*
X181503996Y-72292006D01*
X181490396Y-72273287D01*
X181397558Y-72145505D01*
X181397554Y-72145500D01*
X181269499Y-72017445D01*
X181269494Y-72017441D01*
X181122997Y-71911006D01*
X181122996Y-71911005D01*
X181122994Y-71911004D01*
X181071300Y-71884664D01*
X180961639Y-71828788D01*
X180961636Y-71828787D01*
X180789410Y-71772829D01*
X180610551Y-71744500D01*
X180610546Y-71744500D01*
X180429454Y-71744500D01*
X180429449Y-71744500D01*
X180250589Y-71772829D01*
X180078363Y-71828787D01*
X180078360Y-71828788D01*
X179917002Y-71911006D01*
X179770505Y-72017441D01*
X179770500Y-72017445D01*
X179642445Y-72145500D01*
X179642441Y-72145505D01*
X179536006Y-72292002D01*
X179453788Y-72453360D01*
X179453787Y-72453363D01*
X179397829Y-72625589D01*
X179369500Y-72804448D01*
X173015624Y-72804448D01*
X173004576Y-72763216D01*
X173004572Y-72763209D01*
X172925523Y-72626290D01*
X172925517Y-72626282D01*
X172813717Y-72514482D01*
X172813709Y-72514476D01*
X172676790Y-72435427D01*
X172676785Y-72435424D01*
X172625875Y-72421782D01*
X172524057Y-72394500D01*
X172365942Y-72394500D01*
X172231260Y-72430588D01*
X172213211Y-72435425D01*
X172076287Y-72514478D01*
X172076282Y-72514482D01*
X168576286Y-76014478D01*
X168464481Y-76126282D01*
X168464475Y-76126290D01*
X168423893Y-76196582D01*
X168423893Y-76196584D01*
X168385423Y-76263214D01*
X168378173Y-76290273D01*
X168344499Y-76415943D01*
X168344499Y-76415945D01*
X168344499Y-76584046D01*
X168344500Y-76584059D01*
X168344500Y-114470500D01*
X168324815Y-114537539D01*
X168272011Y-114583294D01*
X168220500Y-114594500D01*
X157369500Y-114594500D01*
X157302461Y-114574815D01*
X157256706Y-114522011D01*
X157245500Y-114470500D01*
X157245500Y-106335247D01*
X158719500Y-106335247D01*
X158719500Y-107974752D01*
X158731131Y-108033229D01*
X158731132Y-108033230D01*
X158775447Y-108099552D01*
X158841769Y-108143867D01*
X158841770Y-108143868D01*
X158900247Y-108155499D01*
X158900250Y-108155500D01*
X158900252Y-108155500D01*
X160539750Y-108155500D01*
X160539751Y-108155499D01*
X160554568Y-108152552D01*
X160598229Y-108143868D01*
X160598229Y-108143867D01*
X160598231Y-108143867D01*
X160664552Y-108099552D01*
X160708867Y-108033231D01*
X160708867Y-108033229D01*
X160708868Y-108033229D01*
X160720499Y-107974752D01*
X160720500Y-107974750D01*
X160720500Y-106335249D01*
X160720499Y-106335247D01*
X160708868Y-106276770D01*
X160708867Y-106276769D01*
X160664552Y-106210447D01*
X160598230Y-106166132D01*
X160598229Y-106166131D01*
X160539752Y-106154500D01*
X160539748Y-106154500D01*
X158900252Y-106154500D01*
X158900247Y-106154500D01*
X158841770Y-106166131D01*
X158841769Y-106166132D01*
X158775447Y-106210447D01*
X158731132Y-106276769D01*
X158731131Y-106276770D01*
X158719500Y-106335247D01*
X157245500Y-106335247D01*
X157245500Y-104615000D01*
X158714659Y-104615000D01*
X158733975Y-104811129D01*
X158791188Y-104999733D01*
X158884086Y-105173532D01*
X158884090Y-105173539D01*
X159009116Y-105325883D01*
X159161460Y-105450909D01*
X159161467Y-105450913D01*
X159335266Y-105543811D01*
X159335269Y-105543811D01*
X159335273Y-105543814D01*
X159523868Y-105601024D01*
X159720000Y-105620341D01*
X159916132Y-105601024D01*
X160104727Y-105543814D01*
X160278538Y-105450910D01*
X160430883Y-105325883D01*
X160555910Y-105173538D01*
X160615893Y-105061317D01*
X160648811Y-104999733D01*
X160648811Y-104999732D01*
X160648814Y-104999727D01*
X160706024Y-104811132D01*
X160725341Y-104615000D01*
X160706024Y-104418868D01*
X160648814Y-104230273D01*
X160648811Y-104230269D01*
X160648811Y-104230266D01*
X160555913Y-104056467D01*
X160555909Y-104056460D01*
X160430883Y-103904116D01*
X160278539Y-103779090D01*
X160278532Y-103779086D01*
X160104733Y-103686188D01*
X160104727Y-103686186D01*
X159916132Y-103628976D01*
X159916129Y-103628975D01*
X159720000Y-103609659D01*
X159523870Y-103628975D01*
X159335266Y-103686188D01*
X159161467Y-103779086D01*
X159161460Y-103779090D01*
X159009116Y-103904116D01*
X158884090Y-104056460D01*
X158884086Y-104056467D01*
X158791188Y-104230266D01*
X158733975Y-104418870D01*
X158714659Y-104615000D01*
X157245500Y-104615000D01*
X157245500Y-102075000D01*
X158714659Y-102075000D01*
X158733975Y-102271129D01*
X158733976Y-102271132D01*
X158777460Y-102414480D01*
X158791188Y-102459733D01*
X158884086Y-102633532D01*
X158884090Y-102633539D01*
X159009116Y-102785883D01*
X159161460Y-102910909D01*
X159161467Y-102910913D01*
X159335266Y-103003811D01*
X159335269Y-103003811D01*
X159335273Y-103003814D01*
X159523868Y-103061024D01*
X159720000Y-103080341D01*
X159916132Y-103061024D01*
X160104727Y-103003814D01*
X160278538Y-102910910D01*
X160430883Y-102785883D01*
X160555910Y-102633538D01*
X160616865Y-102519500D01*
X160648811Y-102459733D01*
X160648811Y-102459732D01*
X160648814Y-102459727D01*
X160706024Y-102271132D01*
X160725341Y-102075000D01*
X160706024Y-101878868D01*
X160648814Y-101690273D01*
X160648811Y-101690269D01*
X160648811Y-101690266D01*
X160555913Y-101516467D01*
X160555909Y-101516460D01*
X160430883Y-101364116D01*
X160278539Y-101239090D01*
X160278532Y-101239086D01*
X160104733Y-101146188D01*
X160104727Y-101146186D01*
X159916132Y-101088976D01*
X159916129Y-101088975D01*
X159720000Y-101069659D01*
X159523870Y-101088975D01*
X159335266Y-101146188D01*
X159161467Y-101239086D01*
X159161460Y-101239090D01*
X159009116Y-101364116D01*
X158884090Y-101516460D01*
X158884086Y-101516467D01*
X158791188Y-101690266D01*
X158733975Y-101878870D01*
X158714659Y-102075000D01*
X157245500Y-102075000D01*
X157245500Y-99284999D01*
X158441127Y-99284999D01*
X158441128Y-99285000D01*
X159286988Y-99285000D01*
X159254075Y-99342007D01*
X159220000Y-99469174D01*
X159220000Y-99600826D01*
X159254075Y-99727993D01*
X159286988Y-99785000D01*
X158441128Y-99785000D01*
X158493730Y-99981317D01*
X158493734Y-99981326D01*
X158589865Y-100187482D01*
X158720342Y-100373820D01*
X158881179Y-100534657D01*
X159067517Y-100665134D01*
X159273673Y-100761265D01*
X159273682Y-100761269D01*
X159469999Y-100813872D01*
X159470000Y-100813871D01*
X159470000Y-99968012D01*
X159527007Y-100000925D01*
X159654174Y-100035000D01*
X159785826Y-100035000D01*
X159912993Y-100000925D01*
X159970000Y-99968012D01*
X159970000Y-100813872D01*
X160166317Y-100761269D01*
X160166326Y-100761265D01*
X160372482Y-100665134D01*
X160558820Y-100534657D01*
X160719657Y-100373820D01*
X160850134Y-100187482D01*
X160946265Y-99981326D01*
X160946269Y-99981317D01*
X160972524Y-99883332D01*
X161008889Y-99823671D01*
X161071736Y-99793142D01*
X161141111Y-99801436D01*
X161179980Y-99827744D01*
X164588808Y-103236571D01*
X164588818Y-103236582D01*
X164593148Y-103240912D01*
X164593149Y-103240913D01*
X164667716Y-103315480D01*
X164759042Y-103368207D01*
X164860902Y-103395501D01*
X164860904Y-103395501D01*
X164973952Y-103395501D01*
X164973968Y-103395500D01*
X167206026Y-103395500D01*
X167273064Y-103415184D01*
X167334949Y-103454954D01*
X167473036Y-103495499D01*
X167473038Y-103495500D01*
X167473039Y-103495500D01*
X167616962Y-103495500D01*
X167616962Y-103495499D01*
X167755053Y-103454953D01*
X167876128Y-103377143D01*
X167970377Y-103268373D01*
X168030165Y-103137457D01*
X168039195Y-103074640D01*
X168042159Y-103060193D01*
X168045500Y-103047727D01*
X168045500Y-103039667D01*
X168046762Y-103022020D01*
X168050647Y-102994999D01*
X168046762Y-102967977D01*
X168045500Y-102950331D01*
X168045500Y-102942271D01*
X168042160Y-102929809D01*
X168039195Y-102915355D01*
X168030165Y-102852543D01*
X167970377Y-102721627D01*
X167876128Y-102612857D01*
X167755053Y-102535047D01*
X167755051Y-102535046D01*
X167755049Y-102535045D01*
X167755050Y-102535045D01*
X167616963Y-102494500D01*
X167616961Y-102494500D01*
X167473039Y-102494500D01*
X167473036Y-102494500D01*
X167334950Y-102535045D01*
X167334948Y-102535045D01*
X167273064Y-102574816D01*
X167206026Y-102594500D01*
X165130883Y-102594500D01*
X165063844Y-102574815D01*
X165043202Y-102558181D01*
X160395817Y-97910795D01*
X160362332Y-97849472D01*
X160367316Y-97779780D01*
X160404836Y-97727259D01*
X160430882Y-97705884D01*
X160555909Y-97553539D01*
X160555913Y-97553532D01*
X160648811Y-97379733D01*
X160648811Y-97379732D01*
X160648814Y-97379727D01*
X160706024Y-97191132D01*
X160725341Y-96995000D01*
X160706024Y-96798868D01*
X160648814Y-96610273D01*
X160648811Y-96610269D01*
X160648811Y-96610266D01*
X160555913Y-96436467D01*
X160555909Y-96436460D01*
X160430883Y-96284116D01*
X160278539Y-96159090D01*
X160278532Y-96159086D01*
X160104733Y-96066188D01*
X160104727Y-96066186D01*
X159916132Y-96008976D01*
X159916129Y-96008975D01*
X159720000Y-95989659D01*
X159523870Y-96008975D01*
X159335266Y-96066188D01*
X159161467Y-96159086D01*
X159161460Y-96159090D01*
X159009116Y-96284116D01*
X158884090Y-96436460D01*
X158884086Y-96436467D01*
X158791188Y-96610266D01*
X158733975Y-96798870D01*
X158714659Y-96995000D01*
X158733975Y-97191129D01*
X158791188Y-97379733D01*
X158884086Y-97553532D01*
X158884090Y-97553539D01*
X159009116Y-97705883D01*
X159161460Y-97830909D01*
X159161467Y-97830913D01*
X159293862Y-97901680D01*
X159342795Y-97949037D01*
X159399515Y-98047277D01*
X159399522Y-98047286D01*
X159427255Y-98075019D01*
X159460740Y-98136342D01*
X159455756Y-98206034D01*
X159413884Y-98261967D01*
X159371668Y-98282475D01*
X159273680Y-98308731D01*
X159273673Y-98308734D01*
X159067517Y-98404865D01*
X158881179Y-98535342D01*
X158720342Y-98696179D01*
X158589865Y-98882517D01*
X158493734Y-99088673D01*
X158493730Y-99088682D01*
X158441127Y-99284999D01*
X157245500Y-99284999D01*
X157245500Y-94455000D01*
X158714659Y-94455000D01*
X158733975Y-94651129D01*
X158791188Y-94839733D01*
X158884086Y-95013532D01*
X158884090Y-95013539D01*
X159009116Y-95165883D01*
X159161460Y-95290909D01*
X159161467Y-95290913D01*
X159335266Y-95383811D01*
X159335269Y-95383811D01*
X159335273Y-95383814D01*
X159523868Y-95441024D01*
X159720000Y-95460341D01*
X159916132Y-95441024D01*
X160104727Y-95383814D01*
X160278538Y-95290910D01*
X160430883Y-95165883D01*
X160555910Y-95013538D01*
X160648814Y-94839727D01*
X160706024Y-94651132D01*
X160725341Y-94455000D01*
X160706024Y-94258868D01*
X160648814Y-94070273D01*
X160648811Y-94070269D01*
X160648811Y-94070266D01*
X160555913Y-93896467D01*
X160555909Y-93896460D01*
X160430883Y-93744116D01*
X160278539Y-93619090D01*
X160278532Y-93619086D01*
X160104733Y-93526188D01*
X160104727Y-93526186D01*
X159916132Y-93468976D01*
X159916129Y-93468975D01*
X159720000Y-93449659D01*
X159523870Y-93468975D01*
X159335266Y-93526188D01*
X159161467Y-93619086D01*
X159161460Y-93619090D01*
X159009116Y-93744116D01*
X158884090Y-93896460D01*
X158884086Y-93896467D01*
X158791188Y-94070266D01*
X158733975Y-94258870D01*
X158714659Y-94455000D01*
X157245500Y-94455000D01*
X157245500Y-91915000D01*
X158714659Y-91915000D01*
X158733975Y-92111129D01*
X158791188Y-92299733D01*
X158884086Y-92473532D01*
X158884090Y-92473539D01*
X159009116Y-92625883D01*
X159161460Y-92750909D01*
X159161467Y-92750913D01*
X159335266Y-92843811D01*
X159335269Y-92843811D01*
X159335273Y-92843814D01*
X159523868Y-92901024D01*
X159720000Y-92920341D01*
X159916132Y-92901024D01*
X160104727Y-92843814D01*
X160278538Y-92750910D01*
X160430883Y-92625883D01*
X160555910Y-92473538D01*
X160648814Y-92299727D01*
X160706024Y-92111132D01*
X160725341Y-91915000D01*
X160706024Y-91718868D01*
X160648814Y-91530273D01*
X160648811Y-91530269D01*
X160648811Y-91530266D01*
X160555913Y-91356467D01*
X160555909Y-91356460D01*
X160430883Y-91204116D01*
X160278539Y-91079090D01*
X160278532Y-91079086D01*
X160104733Y-90986188D01*
X160104727Y-90986186D01*
X159916132Y-90928976D01*
X159916129Y-90928975D01*
X159720000Y-90909659D01*
X159523870Y-90928975D01*
X159335266Y-90986188D01*
X159161467Y-91079086D01*
X159161460Y-91079090D01*
X159009116Y-91204116D01*
X158884090Y-91356460D01*
X158884086Y-91356467D01*
X158791188Y-91530266D01*
X158733975Y-91718870D01*
X158714659Y-91915000D01*
X157245500Y-91915000D01*
X157245500Y-89375000D01*
X158714659Y-89375000D01*
X158733975Y-89571129D01*
X158791188Y-89759733D01*
X158884086Y-89933532D01*
X158884090Y-89933539D01*
X159009116Y-90085883D01*
X159161460Y-90210909D01*
X159161467Y-90210913D01*
X159335266Y-90303811D01*
X159335269Y-90303811D01*
X159335273Y-90303814D01*
X159523868Y-90361024D01*
X159720000Y-90380341D01*
X159916132Y-90361024D01*
X160104727Y-90303814D01*
X160278538Y-90210910D01*
X160430883Y-90085883D01*
X160555910Y-89933538D01*
X160640370Y-89775524D01*
X160648811Y-89759733D01*
X160648811Y-89759732D01*
X160648814Y-89759727D01*
X160706024Y-89571132D01*
X160725341Y-89375000D01*
X160706024Y-89178868D01*
X160648814Y-88990273D01*
X160648811Y-88990269D01*
X160648811Y-88990266D01*
X160555913Y-88816467D01*
X160555909Y-88816460D01*
X160430883Y-88664116D01*
X160278539Y-88539090D01*
X160278532Y-88539086D01*
X160104733Y-88446188D01*
X160104727Y-88446186D01*
X159916132Y-88388976D01*
X159916129Y-88388975D01*
X159720000Y-88369659D01*
X159523870Y-88388975D01*
X159335266Y-88446188D01*
X159161467Y-88539086D01*
X159161460Y-88539090D01*
X159009116Y-88664116D01*
X158884090Y-88816460D01*
X158884086Y-88816467D01*
X158791188Y-88990266D01*
X158733975Y-89178870D01*
X158714659Y-89375000D01*
X157245500Y-89375000D01*
X157245500Y-86835000D01*
X158714659Y-86835000D01*
X158733975Y-87031129D01*
X158733976Y-87031132D01*
X158774043Y-87163216D01*
X158791188Y-87219733D01*
X158884086Y-87393532D01*
X158884090Y-87393539D01*
X159009116Y-87545883D01*
X159161460Y-87670909D01*
X159161467Y-87670913D01*
X159335266Y-87763811D01*
X159335269Y-87763811D01*
X159335273Y-87763814D01*
X159523868Y-87821024D01*
X159720000Y-87840341D01*
X159916132Y-87821024D01*
X160104727Y-87763814D01*
X160278538Y-87670910D01*
X160430883Y-87545883D01*
X160555910Y-87393538D01*
X160648814Y-87219727D01*
X160706024Y-87031132D01*
X160725341Y-86835000D01*
X160706024Y-86638868D01*
X160648814Y-86450273D01*
X160648811Y-86450269D01*
X160648811Y-86450266D01*
X160555913Y-86276467D01*
X160555909Y-86276460D01*
X160430883Y-86124116D01*
X160278539Y-85999090D01*
X160278532Y-85999086D01*
X160104733Y-85906188D01*
X160104727Y-85906186D01*
X159916132Y-85848976D01*
X159916129Y-85848975D01*
X159720000Y-85829659D01*
X159523870Y-85848975D01*
X159335266Y-85906188D01*
X159161467Y-85999086D01*
X159161460Y-85999090D01*
X159009116Y-86124116D01*
X158884090Y-86276460D01*
X158884086Y-86276467D01*
X158791188Y-86450266D01*
X158733975Y-86638870D01*
X158714659Y-86835000D01*
X157245500Y-86835000D01*
X157245500Y-84295000D01*
X158714659Y-84295000D01*
X158733975Y-84491129D01*
X158733976Y-84491132D01*
X158786662Y-84664815D01*
X158791188Y-84679733D01*
X158884086Y-84853532D01*
X158884090Y-84853539D01*
X159009116Y-85005883D01*
X159161460Y-85130909D01*
X159161467Y-85130913D01*
X159335266Y-85223811D01*
X159335269Y-85223811D01*
X159335273Y-85223814D01*
X159523868Y-85281024D01*
X159720000Y-85300341D01*
X159916132Y-85281024D01*
X160104727Y-85223814D01*
X160278538Y-85130910D01*
X160430883Y-85005883D01*
X160555910Y-84853538D01*
X160616358Y-84740448D01*
X160648811Y-84679733D01*
X160648811Y-84679732D01*
X160648814Y-84679727D01*
X160706024Y-84491132D01*
X160725341Y-84295000D01*
X160706024Y-84098868D01*
X160648814Y-83910273D01*
X160648811Y-83910269D01*
X160648811Y-83910266D01*
X160555913Y-83736467D01*
X160555909Y-83736460D01*
X160430883Y-83584116D01*
X160278539Y-83459090D01*
X160278532Y-83459086D01*
X160104733Y-83366188D01*
X160104727Y-83366186D01*
X159916132Y-83308976D01*
X159916129Y-83308975D01*
X159720000Y-83289659D01*
X159523870Y-83308975D01*
X159335266Y-83366188D01*
X159161467Y-83459086D01*
X159161460Y-83459090D01*
X159009116Y-83584116D01*
X158884090Y-83736460D01*
X158884086Y-83736467D01*
X158791188Y-83910266D01*
X158733975Y-84098870D01*
X158714659Y-84295000D01*
X157245500Y-84295000D01*
X157245500Y-81755000D01*
X158714659Y-81755000D01*
X158733975Y-81951129D01*
X158791188Y-82139733D01*
X158884086Y-82313532D01*
X158884090Y-82313539D01*
X159009116Y-82465883D01*
X159161460Y-82590909D01*
X159161467Y-82590913D01*
X159335266Y-82683811D01*
X159335269Y-82683811D01*
X159335273Y-82683814D01*
X159523868Y-82741024D01*
X159720000Y-82760341D01*
X159916132Y-82741024D01*
X160104727Y-82683814D01*
X160278538Y-82590910D01*
X160430883Y-82465883D01*
X160555910Y-82313538D01*
X160648814Y-82139727D01*
X160706024Y-81951132D01*
X160725341Y-81755000D01*
X160706024Y-81558868D01*
X160648814Y-81370273D01*
X160648811Y-81370269D01*
X160648811Y-81370266D01*
X160555913Y-81196467D01*
X160555909Y-81196460D01*
X160430883Y-81044116D01*
X160278539Y-80919090D01*
X160278532Y-80919086D01*
X160104733Y-80826188D01*
X160104727Y-80826186D01*
X159978997Y-80788046D01*
X159916129Y-80768975D01*
X159720000Y-80749659D01*
X159523870Y-80768975D01*
X159335266Y-80826188D01*
X159161467Y-80919086D01*
X159161460Y-80919090D01*
X159009116Y-81044116D01*
X158884090Y-81196460D01*
X158884086Y-81196467D01*
X158791188Y-81370266D01*
X158733975Y-81558870D01*
X158714659Y-81755000D01*
X157245500Y-81755000D01*
X157245500Y-79215000D01*
X158714659Y-79215000D01*
X158733975Y-79411129D01*
X158733976Y-79411132D01*
X158764931Y-79513178D01*
X158791188Y-79599733D01*
X158884086Y-79773532D01*
X158884090Y-79773539D01*
X159009116Y-79925883D01*
X159161460Y-80050909D01*
X159161467Y-80050913D01*
X159335266Y-80143811D01*
X159335269Y-80143811D01*
X159335273Y-80143814D01*
X159523868Y-80201024D01*
X159720000Y-80220341D01*
X159916132Y-80201024D01*
X160104727Y-80143814D01*
X160278538Y-80050910D01*
X160430883Y-79925883D01*
X160555910Y-79773538D01*
X160648814Y-79599727D01*
X160706024Y-79411132D01*
X160725341Y-79215000D01*
X160706024Y-79018868D01*
X160648814Y-78830273D01*
X160648811Y-78830269D01*
X160648811Y-78830266D01*
X160555913Y-78656467D01*
X160555909Y-78656460D01*
X160430883Y-78504116D01*
X160278539Y-78379090D01*
X160278532Y-78379086D01*
X160104733Y-78286188D01*
X160104727Y-78286186D01*
X159916132Y-78228976D01*
X159916129Y-78228975D01*
X159720000Y-78209659D01*
X159523870Y-78228975D01*
X159335266Y-78286188D01*
X159161467Y-78379086D01*
X159161460Y-78379090D01*
X159009116Y-78504116D01*
X158884090Y-78656460D01*
X158884086Y-78656467D01*
X158791188Y-78830266D01*
X158733975Y-79018870D01*
X158714659Y-79215000D01*
X157245500Y-79215000D01*
X157245500Y-78415945D01*
X157245500Y-78415943D01*
X157204577Y-78263216D01*
X157204577Y-78263215D01*
X157173656Y-78209659D01*
X157125520Y-78126284D01*
X157013716Y-78014480D01*
X157013715Y-78014479D01*
X157009385Y-78010149D01*
X157009374Y-78010139D01*
X155674235Y-76675000D01*
X158714659Y-76675000D01*
X158733975Y-76871129D01*
X158791188Y-77059733D01*
X158884086Y-77233532D01*
X158884090Y-77233539D01*
X159009116Y-77385883D01*
X159161460Y-77510909D01*
X159161467Y-77510913D01*
X159335266Y-77603811D01*
X159335269Y-77603811D01*
X159335273Y-77603814D01*
X159523868Y-77661024D01*
X159720000Y-77680341D01*
X159916132Y-77661024D01*
X160104727Y-77603814D01*
X160278538Y-77510910D01*
X160430883Y-77385883D01*
X160555910Y-77233538D01*
X160603717Y-77144097D01*
X160648811Y-77059733D01*
X160648811Y-77059732D01*
X160648814Y-77059727D01*
X160706024Y-76871132D01*
X160725341Y-76675000D01*
X160706024Y-76478868D01*
X160648814Y-76290273D01*
X160648811Y-76290269D01*
X160648811Y-76290266D01*
X160555913Y-76116467D01*
X160555909Y-76116460D01*
X160430883Y-75964116D01*
X160278539Y-75839090D01*
X160278532Y-75839086D01*
X160104733Y-75746188D01*
X160104727Y-75746186D01*
X159916132Y-75688976D01*
X159916129Y-75688975D01*
X159720000Y-75669659D01*
X159523870Y-75688975D01*
X159335266Y-75746188D01*
X159161467Y-75839086D01*
X159161460Y-75839090D01*
X159009116Y-75964116D01*
X158884090Y-76116460D01*
X158884086Y-76116467D01*
X158791188Y-76290266D01*
X158733975Y-76478870D01*
X158714659Y-76675000D01*
X155674235Y-76675000D01*
X153134235Y-74135000D01*
X158714659Y-74135000D01*
X158733975Y-74331129D01*
X158791188Y-74519733D01*
X158884086Y-74693532D01*
X158884090Y-74693539D01*
X159009116Y-74845883D01*
X159161460Y-74970909D01*
X159161467Y-74970913D01*
X159335266Y-75063811D01*
X159335269Y-75063811D01*
X159335273Y-75063814D01*
X159523868Y-75121024D01*
X159720000Y-75140341D01*
X159916132Y-75121024D01*
X160104727Y-75063814D01*
X160278538Y-74970910D01*
X160430883Y-74845883D01*
X160555910Y-74693538D01*
X160648814Y-74519727D01*
X160706024Y-74331132D01*
X160725341Y-74135000D01*
X160706024Y-73938868D01*
X160648814Y-73750273D01*
X160648811Y-73750269D01*
X160648811Y-73750266D01*
X160555913Y-73576467D01*
X160555909Y-73576460D01*
X160430883Y-73424116D01*
X160278539Y-73299090D01*
X160278532Y-73299086D01*
X160104733Y-73206188D01*
X160104727Y-73206186D01*
X159967011Y-73164410D01*
X159916129Y-73148975D01*
X159720000Y-73129659D01*
X159523870Y-73148975D01*
X159335266Y-73206188D01*
X159161467Y-73299086D01*
X159161460Y-73299090D01*
X159009116Y-73424116D01*
X158884090Y-73576460D01*
X158884086Y-73576467D01*
X158791188Y-73750266D01*
X158733975Y-73938870D01*
X158714659Y-74135000D01*
X153134235Y-74135000D01*
X151913718Y-72914483D01*
X151913716Y-72914481D01*
X151776785Y-72835423D01*
X151624057Y-72794499D01*
X151465943Y-72794499D01*
X151351397Y-72825192D01*
X151313214Y-72835423D01*
X151176284Y-72914481D01*
X151176281Y-72914483D01*
X151064483Y-73026281D01*
X151064481Y-73026284D01*
X150985423Y-73163214D01*
X150985423Y-73163215D01*
X150944499Y-73315943D01*
X150944499Y-73315945D01*
X150944499Y-73474054D01*
X150944498Y-73474054D01*
X150944499Y-73474057D01*
X150985423Y-73626785D01*
X151064481Y-73763716D01*
X151064483Y-73763718D01*
X156008181Y-78707416D01*
X156041666Y-78768739D01*
X156044500Y-78795097D01*
X156044500Y-88770500D01*
X156024815Y-88837539D01*
X155972011Y-88883294D01*
X155920500Y-88894500D01*
X154445098Y-88894500D01*
X154378059Y-88874815D01*
X154357417Y-88858181D01*
X154313717Y-88814481D01*
X154313716Y-88814480D01*
X154226904Y-88764360D01*
X154226904Y-88764359D01*
X154226900Y-88764358D01*
X154176785Y-88735423D01*
X154024057Y-88694499D01*
X153865943Y-88694499D01*
X153858347Y-88694499D01*
X153858331Y-88694500D01*
X149465943Y-88694500D01*
X149313216Y-88735423D01*
X149313209Y-88735426D01*
X149176290Y-88814475D01*
X149176282Y-88814481D01*
X149064481Y-88926282D01*
X149064475Y-88926290D01*
X148985426Y-89063209D01*
X148985423Y-89063216D01*
X148944500Y-89215943D01*
X148944500Y-89374057D01*
X148963268Y-89444098D01*
X148985423Y-89526783D01*
X148985426Y-89526790D01*
X149064475Y-89663709D01*
X149064479Y-89663714D01*
X149064480Y-89663716D01*
X149176284Y-89775520D01*
X149176286Y-89775521D01*
X149176290Y-89775524D01*
X149313209Y-89854573D01*
X149313216Y-89854577D01*
X149465943Y-89895500D01*
X153644903Y-89895500D01*
X153711942Y-89915185D01*
X153732584Y-89931819D01*
X153764481Y-89963716D01*
X153876284Y-90075519D01*
X154013215Y-90154577D01*
X154165943Y-90195501D01*
X154165946Y-90195501D01*
X154324054Y-90195501D01*
X154324057Y-90195501D01*
X154476785Y-90154577D01*
X154497597Y-90142560D01*
X154550335Y-90112113D01*
X154612335Y-90095500D01*
X155920500Y-90095500D01*
X155987539Y-90115185D01*
X156033294Y-90167989D01*
X156044500Y-90219500D01*
X156044500Y-101070500D01*
X156024815Y-101137539D01*
X155972011Y-101183294D01*
X155920500Y-101194500D01*
X152745098Y-101194500D01*
X152678059Y-101174815D01*
X152657417Y-101158181D01*
X152613717Y-101114481D01*
X152613716Y-101114480D01*
X152526904Y-101064360D01*
X152526904Y-101064359D01*
X152526900Y-101064358D01*
X152476785Y-101035423D01*
X152324057Y-100994499D01*
X152165943Y-100994499D01*
X152158347Y-100994499D01*
X152158331Y-100994500D01*
X146805505Y-100994500D01*
X146743505Y-100977887D01*
X146674288Y-100937924D01*
X146674287Y-100937923D01*
X146613193Y-100921553D01*
X146521557Y-100896999D01*
X146363443Y-100896999D01*
X146248897Y-100927692D01*
X146210714Y-100937923D01*
X146073784Y-101016981D01*
X146073781Y-101016983D01*
X145961983Y-101128781D01*
X145961981Y-101128784D01*
X145882923Y-101265714D01*
X145882923Y-101265715D01*
X145841999Y-101418443D01*
X145841999Y-101418445D01*
X145841999Y-101576554D01*
X145841998Y-101576554D01*
X145348030Y-101576554D01*
X145315913Y-101516467D01*
X145315909Y-101516460D01*
X145190883Y-101364116D01*
X145038539Y-101239090D01*
X145038532Y-101239086D01*
X144864733Y-101146188D01*
X144864727Y-101146186D01*
X144676132Y-101088976D01*
X144676129Y-101088975D01*
X144480000Y-101069659D01*
X144283870Y-101088975D01*
X144095266Y-101146188D01*
X143921467Y-101239086D01*
X143921460Y-101239090D01*
X143769116Y-101364116D01*
X143644090Y-101516460D01*
X143644086Y-101516467D01*
X143551188Y-101690266D01*
X143493975Y-101878870D01*
X143474659Y-102075000D01*
X141945500Y-102075000D01*
X141945500Y-99535000D01*
X143474659Y-99535000D01*
X143493975Y-99731129D01*
X143551188Y-99919733D01*
X143644086Y-100093532D01*
X143644090Y-100093539D01*
X143769116Y-100245883D01*
X143921460Y-100370909D01*
X143921467Y-100370913D01*
X144095266Y-100463811D01*
X144095269Y-100463811D01*
X144095273Y-100463814D01*
X144283868Y-100521024D01*
X144480000Y-100540341D01*
X144676132Y-100521024D01*
X144864727Y-100463814D01*
X145038538Y-100370910D01*
X145190883Y-100245883D01*
X145315910Y-100093538D01*
X145375893Y-99981317D01*
X145408811Y-99919733D01*
X145408811Y-99919732D01*
X145408814Y-99919727D01*
X145466024Y-99731132D01*
X145485341Y-99535000D01*
X145466024Y-99338868D01*
X145408814Y-99150273D01*
X145408811Y-99150269D01*
X145408811Y-99150266D01*
X145315913Y-98976467D01*
X145315909Y-98976460D01*
X145190883Y-98824116D01*
X145038539Y-98699090D01*
X145038532Y-98699086D01*
X144864733Y-98606188D01*
X144864727Y-98606186D01*
X144676132Y-98548976D01*
X144676129Y-98548975D01*
X144480000Y-98529659D01*
X144283870Y-98548975D01*
X144095266Y-98606188D01*
X143921467Y-98699086D01*
X143921460Y-98699090D01*
X143769116Y-98824116D01*
X143644090Y-98976460D01*
X143644086Y-98976467D01*
X143551188Y-99150266D01*
X143493975Y-99338870D01*
X143474659Y-99535000D01*
X141945500Y-99535000D01*
X141945500Y-96995000D01*
X143474659Y-96995000D01*
X143493975Y-97191129D01*
X143551188Y-97379733D01*
X143644086Y-97553532D01*
X143644090Y-97553539D01*
X143769116Y-97705883D01*
X143921460Y-97830909D01*
X143921467Y-97830913D01*
X144095266Y-97923811D01*
X144095269Y-97923811D01*
X144095273Y-97923814D01*
X144283868Y-97981024D01*
X144480000Y-98000341D01*
X144676132Y-97981024D01*
X144864727Y-97923814D01*
X145038538Y-97830910D01*
X145190883Y-97705883D01*
X145315910Y-97553538D01*
X145408814Y-97379727D01*
X145466024Y-97191132D01*
X145485341Y-96995000D01*
X145466024Y-96798868D01*
X145408814Y-96610273D01*
X145408811Y-96610269D01*
X145408811Y-96610266D01*
X145315913Y-96436467D01*
X145315909Y-96436460D01*
X145190883Y-96284116D01*
X145038539Y-96159090D01*
X145038532Y-96159086D01*
X144864733Y-96066188D01*
X144864727Y-96066186D01*
X144676132Y-96008976D01*
X144676129Y-96008975D01*
X144480000Y-95989659D01*
X144283870Y-96008975D01*
X144095266Y-96066188D01*
X143921467Y-96159086D01*
X143921460Y-96159090D01*
X143769116Y-96284116D01*
X143644090Y-96436460D01*
X143644086Y-96436467D01*
X143551188Y-96610266D01*
X143493975Y-96798870D01*
X143474659Y-96995000D01*
X141945500Y-96995000D01*
X141945500Y-94455000D01*
X143474659Y-94455000D01*
X143493975Y-94651129D01*
X143551188Y-94839733D01*
X143644086Y-95013532D01*
X143644090Y-95013539D01*
X143769116Y-95165883D01*
X143921460Y-95290909D01*
X143921467Y-95290913D01*
X144095266Y-95383811D01*
X144095269Y-95383811D01*
X144095273Y-95383814D01*
X144283868Y-95441024D01*
X144480000Y-95460341D01*
X144676132Y-95441024D01*
X144864727Y-95383814D01*
X145038538Y-95290910D01*
X145190883Y-95165883D01*
X145315910Y-95013538D01*
X145408814Y-94839727D01*
X145466024Y-94651132D01*
X145485341Y-94455000D01*
X145466024Y-94258868D01*
X145408814Y-94070273D01*
X145408811Y-94070269D01*
X145408811Y-94070266D01*
X145315913Y-93896467D01*
X145315909Y-93896460D01*
X145190883Y-93744116D01*
X145038539Y-93619090D01*
X145038532Y-93619086D01*
X144864733Y-93526188D01*
X144864727Y-93526186D01*
X144676132Y-93468976D01*
X144676129Y-93468975D01*
X144480000Y-93449659D01*
X144283870Y-93468975D01*
X144095266Y-93526188D01*
X143921467Y-93619086D01*
X143921460Y-93619090D01*
X143769116Y-93744116D01*
X143644090Y-93896460D01*
X143644086Y-93896467D01*
X143551188Y-94070266D01*
X143493975Y-94258870D01*
X143474659Y-94455000D01*
X141945500Y-94455000D01*
X141945500Y-93175247D01*
X149344500Y-93175247D01*
X149344500Y-95014752D01*
X149356131Y-95073229D01*
X149356132Y-95073230D01*
X149400447Y-95139552D01*
X149466769Y-95183867D01*
X149466770Y-95183868D01*
X149525247Y-95195499D01*
X149525250Y-95195500D01*
X149525252Y-95195500D01*
X151364750Y-95195500D01*
X151364751Y-95195499D01*
X151379568Y-95192552D01*
X151423229Y-95183868D01*
X151423229Y-95183867D01*
X151423231Y-95183867D01*
X151489552Y-95139552D01*
X151533867Y-95073231D01*
X151533867Y-95073229D01*
X151533868Y-95073229D01*
X151543674Y-95023926D01*
X151545500Y-95014748D01*
X151545500Y-94094999D01*
X151879785Y-94094999D01*
X151879785Y-94095000D01*
X151898602Y-94298082D01*
X151954417Y-94494247D01*
X151954422Y-94494260D01*
X152045327Y-94676821D01*
X152168237Y-94839581D01*
X152318958Y-94976980D01*
X152318960Y-94976982D01*
X152378002Y-95013539D01*
X152492363Y-95084348D01*
X152682544Y-95158024D01*
X152883024Y-95195500D01*
X152883026Y-95195500D01*
X153086974Y-95195500D01*
X153086976Y-95195500D01*
X153287456Y-95158024D01*
X153477637Y-95084348D01*
X153651041Y-94976981D01*
X153801764Y-94839579D01*
X153924673Y-94676821D01*
X154015582Y-94494250D01*
X154071397Y-94298083D01*
X154090215Y-94095000D01*
X154071397Y-93891917D01*
X154015582Y-93695750D01*
X153924673Y-93513179D01*
X153801764Y-93350421D01*
X153801762Y-93350418D01*
X153651041Y-93213019D01*
X153651039Y-93213017D01*
X153477642Y-93105655D01*
X153477635Y-93105651D01*
X153335135Y-93050447D01*
X153287456Y-93031976D01*
X153086976Y-92994500D01*
X152883024Y-92994500D01*
X152682544Y-93031976D01*
X152682541Y-93031976D01*
X152682541Y-93031977D01*
X152492364Y-93105651D01*
X152492357Y-93105655D01*
X152318960Y-93213017D01*
X152318958Y-93213019D01*
X152168237Y-93350418D01*
X152045327Y-93513178D01*
X151954422Y-93695739D01*
X151954417Y-93695752D01*
X151898602Y-93891917D01*
X151879785Y-94094999D01*
X151545500Y-94094999D01*
X151545500Y-93175252D01*
X151545500Y-93175249D01*
X151545499Y-93175247D01*
X151533868Y-93116770D01*
X151533867Y-93116769D01*
X151489552Y-93050447D01*
X151423230Y-93006132D01*
X151423229Y-93006131D01*
X151364752Y-92994500D01*
X151364748Y-92994500D01*
X149525252Y-92994500D01*
X149525247Y-92994500D01*
X149466770Y-93006131D01*
X149466769Y-93006132D01*
X149400447Y-93050447D01*
X149356132Y-93116769D01*
X149356131Y-93116770D01*
X149344500Y-93175247D01*
X141945500Y-93175247D01*
X141945500Y-91915000D01*
X143474659Y-91915000D01*
X143493975Y-92111129D01*
X143551188Y-92299733D01*
X143644086Y-92473532D01*
X143644090Y-92473539D01*
X143769116Y-92625883D01*
X143921460Y-92750909D01*
X143921467Y-92750913D01*
X144095266Y-92843811D01*
X144095269Y-92843811D01*
X144095273Y-92843814D01*
X144283868Y-92901024D01*
X144480000Y-92920341D01*
X144676132Y-92901024D01*
X144864727Y-92843814D01*
X145038538Y-92750910D01*
X145190883Y-92625883D01*
X145315910Y-92473538D01*
X145408814Y-92299727D01*
X145466024Y-92111132D01*
X145485341Y-91915000D01*
X145466024Y-91718868D01*
X145408814Y-91530273D01*
X145408811Y-91530269D01*
X145408811Y-91530266D01*
X145315913Y-91356467D01*
X145315909Y-91356460D01*
X145190883Y-91204116D01*
X145038539Y-91079090D01*
X145038532Y-91079086D01*
X144864733Y-90986188D01*
X144864727Y-90986186D01*
X144676132Y-90928976D01*
X144676129Y-90928975D01*
X144480000Y-90909659D01*
X144283870Y-90928975D01*
X144095266Y-90986188D01*
X143921467Y-91079086D01*
X143921460Y-91079090D01*
X143769116Y-91204116D01*
X143644090Y-91356460D01*
X143644086Y-91356467D01*
X143551188Y-91530266D01*
X143493975Y-91718870D01*
X143474659Y-91915000D01*
X141945500Y-91915000D01*
X141945500Y-89375000D01*
X143474659Y-89375000D01*
X143493975Y-89571129D01*
X143551188Y-89759733D01*
X143644086Y-89933532D01*
X143644090Y-89933539D01*
X143769116Y-90085883D01*
X143921460Y-90210909D01*
X143921467Y-90210913D01*
X144095266Y-90303811D01*
X144095269Y-90303811D01*
X144095273Y-90303814D01*
X144283868Y-90361024D01*
X144480000Y-90380341D01*
X144676132Y-90361024D01*
X144864727Y-90303814D01*
X145038538Y-90210910D01*
X145190883Y-90085883D01*
X145315910Y-89933538D01*
X145400370Y-89775524D01*
X145408811Y-89759733D01*
X145408811Y-89759732D01*
X145408814Y-89759727D01*
X145466024Y-89571132D01*
X145485341Y-89375000D01*
X145466024Y-89178868D01*
X145408814Y-88990273D01*
X145408811Y-88990269D01*
X145408811Y-88990266D01*
X145315913Y-88816467D01*
X145315909Y-88816460D01*
X145190883Y-88664116D01*
X145038539Y-88539090D01*
X145038532Y-88539086D01*
X144864733Y-88446188D01*
X144864727Y-88446186D01*
X144676132Y-88388976D01*
X144676129Y-88388975D01*
X144480000Y-88369659D01*
X144283870Y-88388975D01*
X144095266Y-88446188D01*
X143921467Y-88539086D01*
X143921460Y-88539090D01*
X143769116Y-88664116D01*
X143644090Y-88816460D01*
X143644086Y-88816467D01*
X143551188Y-88990266D01*
X143493975Y-89178870D01*
X143474659Y-89375000D01*
X141945500Y-89375000D01*
X141945500Y-86835000D01*
X143474659Y-86835000D01*
X143493975Y-87031129D01*
X143493976Y-87031132D01*
X143534043Y-87163216D01*
X143551188Y-87219733D01*
X143644086Y-87393532D01*
X143644090Y-87393539D01*
X143769116Y-87545883D01*
X143921460Y-87670909D01*
X143921467Y-87670913D01*
X144095266Y-87763811D01*
X144095269Y-87763811D01*
X144095273Y-87763814D01*
X144283868Y-87821024D01*
X144480000Y-87840341D01*
X144676132Y-87821024D01*
X144864727Y-87763814D01*
X145038538Y-87670910D01*
X145190883Y-87545883D01*
X145315910Y-87393538D01*
X145408814Y-87219727D01*
X145466024Y-87031132D01*
X145485341Y-86835000D01*
X145466024Y-86638868D01*
X145408814Y-86450273D01*
X145408811Y-86450269D01*
X145408811Y-86450266D01*
X145315913Y-86276467D01*
X145315909Y-86276460D01*
X145190883Y-86124116D01*
X145038539Y-85999090D01*
X145038532Y-85999086D01*
X144864733Y-85906188D01*
X144864727Y-85906186D01*
X144676132Y-85848976D01*
X144676129Y-85848975D01*
X144480000Y-85829659D01*
X144283870Y-85848975D01*
X144095266Y-85906188D01*
X143921467Y-85999086D01*
X143921460Y-85999090D01*
X143769116Y-86124116D01*
X143644090Y-86276460D01*
X143644086Y-86276467D01*
X143551188Y-86450266D01*
X143493975Y-86638870D01*
X143474659Y-86835000D01*
X141945500Y-86835000D01*
X141945500Y-84295000D01*
X143474659Y-84295000D01*
X143493975Y-84491129D01*
X143493976Y-84491132D01*
X143546662Y-84664815D01*
X143551188Y-84679733D01*
X143644086Y-84853532D01*
X143644090Y-84853539D01*
X143769116Y-85005883D01*
X143921460Y-85130909D01*
X143921467Y-85130913D01*
X144095266Y-85223811D01*
X144095269Y-85223811D01*
X144095273Y-85223814D01*
X144283868Y-85281024D01*
X144480000Y-85300341D01*
X144676132Y-85281024D01*
X144864727Y-85223814D01*
X145038538Y-85130910D01*
X145190883Y-85005883D01*
X145315910Y-84853538D01*
X145376358Y-84740448D01*
X145408811Y-84679733D01*
X145408811Y-84679732D01*
X145408814Y-84679727D01*
X145466024Y-84491132D01*
X145485341Y-84295000D01*
X145466024Y-84098868D01*
X145408814Y-83910273D01*
X145408811Y-83910269D01*
X145408811Y-83910266D01*
X145315913Y-83736467D01*
X145315909Y-83736460D01*
X145190883Y-83584116D01*
X145038539Y-83459090D01*
X145038532Y-83459086D01*
X144864733Y-83366188D01*
X144864727Y-83366186D01*
X144676132Y-83308976D01*
X144676129Y-83308975D01*
X144480000Y-83289659D01*
X144283870Y-83308975D01*
X144095266Y-83366188D01*
X143921467Y-83459086D01*
X143921460Y-83459090D01*
X143769116Y-83584116D01*
X143644090Y-83736460D01*
X143644086Y-83736467D01*
X143551188Y-83910266D01*
X143493975Y-84098870D01*
X143474659Y-84295000D01*
X141945500Y-84295000D01*
X141945500Y-81755000D01*
X143474659Y-81755000D01*
X143493975Y-81951129D01*
X143551188Y-82139733D01*
X143644086Y-82313532D01*
X143644090Y-82313539D01*
X143769116Y-82465883D01*
X143921460Y-82590909D01*
X143921467Y-82590913D01*
X144095266Y-82683811D01*
X144095269Y-82683811D01*
X144095273Y-82683814D01*
X144283868Y-82741024D01*
X144480000Y-82760341D01*
X144676132Y-82741024D01*
X144864727Y-82683814D01*
X145038538Y-82590910D01*
X145190883Y-82465883D01*
X145315910Y-82313538D01*
X145408814Y-82139727D01*
X145466024Y-81951132D01*
X145485341Y-81755000D01*
X145466024Y-81558868D01*
X145408814Y-81370273D01*
X145408811Y-81370269D01*
X145408811Y-81370266D01*
X145315913Y-81196467D01*
X145315909Y-81196460D01*
X145190883Y-81044116D01*
X145038539Y-80919090D01*
X145038532Y-80919086D01*
X144864733Y-80826188D01*
X144864727Y-80826186D01*
X144738997Y-80788046D01*
X144676129Y-80768975D01*
X144480000Y-80749659D01*
X144283870Y-80768975D01*
X144095266Y-80826188D01*
X143921467Y-80919086D01*
X143921460Y-80919090D01*
X143769116Y-81044116D01*
X143644090Y-81196460D01*
X143644086Y-81196467D01*
X143551188Y-81370266D01*
X143493975Y-81558870D01*
X143474659Y-81755000D01*
X141945500Y-81755000D01*
X141945500Y-79215000D01*
X143474659Y-79215000D01*
X143493975Y-79411129D01*
X143493976Y-79411132D01*
X143524931Y-79513178D01*
X143551188Y-79599733D01*
X143644086Y-79773532D01*
X143644090Y-79773539D01*
X143769116Y-79925883D01*
X143921460Y-80050909D01*
X143921467Y-80050913D01*
X144095266Y-80143811D01*
X144095269Y-80143811D01*
X144095273Y-80143814D01*
X144283868Y-80201024D01*
X144480000Y-80220341D01*
X144676132Y-80201024D01*
X144864727Y-80143814D01*
X145038538Y-80050910D01*
X145190883Y-79925883D01*
X145315910Y-79773538D01*
X145408814Y-79599727D01*
X145466024Y-79411132D01*
X145485341Y-79215000D01*
X145481426Y-79175247D01*
X149344500Y-79175247D01*
X149344500Y-81014752D01*
X149356131Y-81073229D01*
X149356132Y-81073230D01*
X149400447Y-81139552D01*
X149466769Y-81183867D01*
X149466770Y-81183868D01*
X149525247Y-81195499D01*
X149525250Y-81195500D01*
X149525252Y-81195500D01*
X151364750Y-81195500D01*
X151364751Y-81195499D01*
X151379568Y-81192552D01*
X151423229Y-81183868D01*
X151423229Y-81183867D01*
X151423231Y-81183867D01*
X151489552Y-81139552D01*
X151533867Y-81073231D01*
X151533867Y-81073229D01*
X151533868Y-81073229D01*
X151545499Y-81014752D01*
X151545500Y-81014750D01*
X151545500Y-80094999D01*
X151879785Y-80094999D01*
X151879785Y-80095000D01*
X151898602Y-80298082D01*
X151954417Y-80494247D01*
X151954422Y-80494260D01*
X152045327Y-80676821D01*
X152168237Y-80839581D01*
X152318958Y-80976980D01*
X152318960Y-80976982D01*
X152349829Y-80996095D01*
X152492363Y-81084348D01*
X152682544Y-81158024D01*
X152883024Y-81195500D01*
X152883026Y-81195500D01*
X153086974Y-81195500D01*
X153086976Y-81195500D01*
X153287456Y-81158024D01*
X153477637Y-81084348D01*
X153651041Y-80976981D01*
X153801764Y-80839579D01*
X153924673Y-80676821D01*
X154015582Y-80494250D01*
X154071397Y-80298083D01*
X154090215Y-80095000D01*
X154086129Y-80050909D01*
X154071397Y-79891917D01*
X154029595Y-79745000D01*
X154015582Y-79695750D01*
X154008749Y-79682028D01*
X153971272Y-79606764D01*
X153924673Y-79513179D01*
X153847609Y-79411129D01*
X153801762Y-79350418D01*
X153651041Y-79213019D01*
X153651039Y-79213017D01*
X153477642Y-79105655D01*
X153477635Y-79105651D01*
X153335135Y-79050447D01*
X153287456Y-79031976D01*
X153086976Y-78994500D01*
X152883024Y-78994500D01*
X152682544Y-79031976D01*
X152682541Y-79031976D01*
X152682541Y-79031977D01*
X152492364Y-79105651D01*
X152492357Y-79105655D01*
X152318960Y-79213017D01*
X152318958Y-79213019D01*
X152168237Y-79350418D01*
X152045327Y-79513178D01*
X151954422Y-79695739D01*
X151954417Y-79695752D01*
X151898602Y-79891917D01*
X151879785Y-80094999D01*
X151545500Y-80094999D01*
X151545500Y-79175249D01*
X151545499Y-79175247D01*
X151533868Y-79116770D01*
X151533867Y-79116769D01*
X151489552Y-79050447D01*
X151423230Y-79006132D01*
X151423229Y-79006131D01*
X151364752Y-78994500D01*
X151364748Y-78994500D01*
X149525252Y-78994500D01*
X149525247Y-78994500D01*
X149466770Y-79006131D01*
X149466769Y-79006132D01*
X149400447Y-79050447D01*
X149356132Y-79116769D01*
X149356131Y-79116770D01*
X149344500Y-79175247D01*
X145481426Y-79175247D01*
X145466024Y-79018868D01*
X145408814Y-78830273D01*
X145408811Y-78830269D01*
X145408811Y-78830266D01*
X145315913Y-78656467D01*
X145315909Y-78656460D01*
X145190883Y-78504116D01*
X145038539Y-78379090D01*
X145038532Y-78379086D01*
X144864733Y-78286188D01*
X144864727Y-78286186D01*
X144676132Y-78228976D01*
X144676129Y-78228975D01*
X144480000Y-78209659D01*
X144283870Y-78228975D01*
X144095266Y-78286188D01*
X143921467Y-78379086D01*
X143921460Y-78379090D01*
X143769116Y-78504116D01*
X143644090Y-78656460D01*
X143644086Y-78656467D01*
X143551188Y-78830266D01*
X143493975Y-79018870D01*
X143474659Y-79215000D01*
X141945500Y-79215000D01*
X141945500Y-76675000D01*
X143474659Y-76675000D01*
X143493975Y-76871129D01*
X143551188Y-77059733D01*
X143644086Y-77233532D01*
X143644090Y-77233539D01*
X143769116Y-77385883D01*
X143921460Y-77510909D01*
X143921467Y-77510913D01*
X144095266Y-77603811D01*
X144095269Y-77603811D01*
X144095273Y-77603814D01*
X144283868Y-77661024D01*
X144480000Y-77680341D01*
X144676132Y-77661024D01*
X144864727Y-77603814D01*
X145038538Y-77510910D01*
X145190883Y-77385883D01*
X145315910Y-77233538D01*
X145363717Y-77144097D01*
X145408811Y-77059733D01*
X145408811Y-77059732D01*
X145408814Y-77059727D01*
X145466024Y-76871132D01*
X145485341Y-76675000D01*
X145466024Y-76478868D01*
X145408814Y-76290273D01*
X145408811Y-76290269D01*
X145408811Y-76290266D01*
X145315913Y-76116467D01*
X145315909Y-76116460D01*
X145190883Y-75964116D01*
X145038539Y-75839090D01*
X145038532Y-75839086D01*
X144864733Y-75746188D01*
X144864727Y-75746186D01*
X144676132Y-75688976D01*
X144676129Y-75688975D01*
X144480000Y-75669659D01*
X144283870Y-75688975D01*
X144095266Y-75746188D01*
X143921467Y-75839086D01*
X143921460Y-75839090D01*
X143769116Y-75964116D01*
X143644090Y-76116460D01*
X143644086Y-76116467D01*
X143551188Y-76290266D01*
X143493975Y-76478870D01*
X143474659Y-76675000D01*
X141945500Y-76675000D01*
X141945500Y-74135000D01*
X143474659Y-74135000D01*
X143493975Y-74331129D01*
X143551188Y-74519733D01*
X143644086Y-74693532D01*
X143644090Y-74693539D01*
X143769116Y-74845883D01*
X143921460Y-74970909D01*
X143921467Y-74970913D01*
X144095266Y-75063811D01*
X144095269Y-75063811D01*
X144095273Y-75063814D01*
X144283868Y-75121024D01*
X144480000Y-75140341D01*
X144676132Y-75121024D01*
X144864727Y-75063814D01*
X145038538Y-74970910D01*
X145190883Y-74845883D01*
X145315910Y-74693538D01*
X145408814Y-74519727D01*
X145466024Y-74331132D01*
X145485341Y-74135000D01*
X145466024Y-73938868D01*
X145408814Y-73750273D01*
X145408811Y-73750269D01*
X145408811Y-73750266D01*
X145315913Y-73576467D01*
X145315909Y-73576460D01*
X145190883Y-73424116D01*
X145038539Y-73299090D01*
X145038532Y-73299086D01*
X144864733Y-73206188D01*
X144864727Y-73206186D01*
X144727011Y-73164410D01*
X144676129Y-73148975D01*
X144480000Y-73129659D01*
X144283870Y-73148975D01*
X144095266Y-73206188D01*
X143921467Y-73299086D01*
X143921460Y-73299090D01*
X143769116Y-73424116D01*
X143644090Y-73576460D01*
X143644086Y-73576467D01*
X143551188Y-73750266D01*
X143493975Y-73938870D01*
X143474659Y-74135000D01*
X141945500Y-74135000D01*
X141945500Y-71595000D01*
X143474659Y-71595000D01*
X143493975Y-71791129D01*
X143551188Y-71979733D01*
X143644086Y-72153532D01*
X143644090Y-72153539D01*
X143769116Y-72305883D01*
X143921460Y-72430909D01*
X143921467Y-72430913D01*
X144095266Y-72523811D01*
X144095269Y-72523811D01*
X144095273Y-72523814D01*
X144283868Y-72581024D01*
X144480000Y-72600341D01*
X144676132Y-72581024D01*
X144864727Y-72523814D01*
X144882194Y-72514478D01*
X145038532Y-72430913D01*
X145038538Y-72430910D01*
X145190883Y-72305883D01*
X145315910Y-72153538D01*
X145388653Y-72017445D01*
X145408811Y-71979733D01*
X145408811Y-71979732D01*
X145408814Y-71979727D01*
X145466024Y-71791132D01*
X145485341Y-71595000D01*
X158714659Y-71595000D01*
X158733975Y-71791129D01*
X158791188Y-71979733D01*
X158884086Y-72153532D01*
X158884090Y-72153539D01*
X159009116Y-72305883D01*
X159161460Y-72430909D01*
X159161467Y-72430913D01*
X159335266Y-72523811D01*
X159335269Y-72523811D01*
X159335273Y-72523814D01*
X159523868Y-72581024D01*
X159720000Y-72600341D01*
X159916132Y-72581024D01*
X160104727Y-72523814D01*
X160122194Y-72514478D01*
X160278532Y-72430913D01*
X160278538Y-72430910D01*
X160430883Y-72305883D01*
X160555910Y-72153538D01*
X160628653Y-72017445D01*
X160648811Y-71979733D01*
X160648811Y-71979732D01*
X160648814Y-71979727D01*
X160706024Y-71791132D01*
X160725341Y-71595000D01*
X160706024Y-71398868D01*
X160648814Y-71210273D01*
X160648811Y-71210269D01*
X160648811Y-71210266D01*
X160555913Y-71036467D01*
X160555909Y-71036460D01*
X160430883Y-70884116D01*
X160278539Y-70759090D01*
X160278532Y-70759086D01*
X160104733Y-70666188D01*
X160104727Y-70666186D01*
X159916132Y-70608976D01*
X159916129Y-70608975D01*
X159720000Y-70589659D01*
X159523870Y-70608975D01*
X159335266Y-70666188D01*
X159161467Y-70759086D01*
X159161460Y-70759090D01*
X159009116Y-70884116D01*
X158884090Y-71036460D01*
X158884086Y-71036467D01*
X158791188Y-71210266D01*
X158733975Y-71398870D01*
X158714659Y-71595000D01*
X145485341Y-71595000D01*
X145466024Y-71398868D01*
X145408814Y-71210273D01*
X145408811Y-71210269D01*
X145408811Y-71210266D01*
X145315913Y-71036467D01*
X145315909Y-71036460D01*
X145190883Y-70884116D01*
X145038539Y-70759090D01*
X145038532Y-70759086D01*
X144864733Y-70666188D01*
X144864727Y-70666186D01*
X144676132Y-70608976D01*
X144676129Y-70608975D01*
X144480000Y-70589659D01*
X144283870Y-70608975D01*
X144095266Y-70666188D01*
X143921467Y-70759086D01*
X143921460Y-70759090D01*
X143769116Y-70884116D01*
X143644090Y-71036460D01*
X143644086Y-71036467D01*
X143551188Y-71210266D01*
X143493975Y-71398870D01*
X143474659Y-71595000D01*
X141945500Y-71595000D01*
X141945500Y-65175247D01*
X149344500Y-65175247D01*
X149344500Y-67014752D01*
X149356131Y-67073229D01*
X149356132Y-67073230D01*
X149400447Y-67139552D01*
X149466769Y-67183867D01*
X149466770Y-67183868D01*
X149525247Y-67195499D01*
X149525250Y-67195500D01*
X149525252Y-67195500D01*
X151364750Y-67195500D01*
X151364751Y-67195499D01*
X151379568Y-67192552D01*
X151423229Y-67183868D01*
X151423229Y-67183867D01*
X151423231Y-67183867D01*
X151489552Y-67139552D01*
X151533867Y-67073231D01*
X151533867Y-67073229D01*
X151533868Y-67073229D01*
X151545499Y-67014752D01*
X151545500Y-67014750D01*
X151545500Y-66094999D01*
X151879785Y-66094999D01*
X151879785Y-66095000D01*
X151898602Y-66298082D01*
X151954417Y-66494247D01*
X151954422Y-66494260D01*
X152045327Y-66676821D01*
X152168237Y-66839581D01*
X152318958Y-66976980D01*
X152318960Y-66976982D01*
X152379955Y-67014748D01*
X152492363Y-67084348D01*
X152682544Y-67158024D01*
X152883024Y-67195500D01*
X152883026Y-67195500D01*
X153086974Y-67195500D01*
X153086976Y-67195500D01*
X153287456Y-67158024D01*
X153477637Y-67084348D01*
X153651041Y-66976981D01*
X153801764Y-66839579D01*
X153924673Y-66676821D01*
X154015582Y-66494250D01*
X154071397Y-66298083D01*
X154090215Y-66095000D01*
X154071397Y-65891917D01*
X154015582Y-65695750D01*
X154008749Y-65682028D01*
X153931198Y-65526284D01*
X153924673Y-65513179D01*
X153850138Y-65414478D01*
X153801762Y-65350418D01*
X153651041Y-65213019D01*
X153651039Y-65213017D01*
X153590038Y-65175247D01*
X170344500Y-65175247D01*
X170344500Y-67014752D01*
X170356131Y-67073229D01*
X170356132Y-67073230D01*
X170400447Y-67139552D01*
X170466769Y-67183867D01*
X170466770Y-67183868D01*
X170525247Y-67195499D01*
X170525250Y-67195500D01*
X170525252Y-67195500D01*
X172364750Y-67195500D01*
X172364751Y-67195499D01*
X172379568Y-67192552D01*
X172423229Y-67183868D01*
X172423229Y-67183867D01*
X172423231Y-67183867D01*
X172489552Y-67139552D01*
X172533867Y-67073231D01*
X172533867Y-67073229D01*
X172533868Y-67073229D01*
X172545499Y-67014752D01*
X172545500Y-67014750D01*
X172545500Y-65895097D01*
X172565185Y-65828058D01*
X172581813Y-65807421D01*
X172720579Y-65668655D01*
X172781898Y-65635173D01*
X172851590Y-65640157D01*
X172907524Y-65682028D01*
X172931941Y-65747492D01*
X172927523Y-65790273D01*
X172898603Y-65891914D01*
X172898602Y-65891917D01*
X172879785Y-66094999D01*
X172879785Y-66095000D01*
X172898602Y-66298082D01*
X172954417Y-66494247D01*
X172954422Y-66494260D01*
X173045327Y-66676821D01*
X173168237Y-66839581D01*
X173318958Y-66976980D01*
X173318960Y-66976982D01*
X173379955Y-67014748D01*
X173492363Y-67084348D01*
X173682544Y-67158024D01*
X173883024Y-67195500D01*
X173883026Y-67195500D01*
X174086974Y-67195500D01*
X174086976Y-67195500D01*
X174287456Y-67158024D01*
X174477637Y-67084348D01*
X174651041Y-66976981D01*
X174801764Y-66839579D01*
X174924673Y-66676821D01*
X175015582Y-66494250D01*
X175071397Y-66298083D01*
X175090215Y-66095000D01*
X175075994Y-65941530D01*
X181469500Y-65941530D01*
X181469500Y-67348469D01*
X181509868Y-67551412D01*
X181509870Y-67551420D01*
X181579085Y-67718520D01*
X181589059Y-67742598D01*
X181617366Y-67784963D01*
X181704024Y-67914657D01*
X181850342Y-68060975D01*
X181850345Y-68060977D01*
X182022402Y-68175941D01*
X182213580Y-68255130D01*
X182416530Y-68295499D01*
X182416534Y-68295500D01*
X182416535Y-68295500D01*
X182623466Y-68295500D01*
X182623467Y-68295499D01*
X182826420Y-68255130D01*
X183017598Y-68175941D01*
X183189655Y-68060977D01*
X183335977Y-67914655D01*
X183450941Y-67742598D01*
X183530130Y-67551420D01*
X183570500Y-67348465D01*
X183570500Y-65941535D01*
X183530130Y-65738580D01*
X183450941Y-65547402D01*
X183335977Y-65375345D01*
X183335975Y-65375342D01*
X183189657Y-65229024D01*
X183021655Y-65116770D01*
X183017598Y-65114059D01*
X182997299Y-65105651D01*
X182826420Y-65034870D01*
X182826412Y-65034868D01*
X182623469Y-64994500D01*
X182623465Y-64994500D01*
X182416535Y-64994500D01*
X182416530Y-64994500D01*
X182213587Y-65034868D01*
X182213579Y-65034870D01*
X182022403Y-65114058D01*
X181850342Y-65229024D01*
X181704024Y-65375342D01*
X181589058Y-65547403D01*
X181509870Y-65738579D01*
X181509868Y-65738587D01*
X181469500Y-65941530D01*
X175075994Y-65941530D01*
X175071397Y-65891917D01*
X175015582Y-65695750D01*
X175008749Y-65682028D01*
X174931198Y-65526284D01*
X174924673Y-65513179D01*
X174850138Y-65414478D01*
X174801762Y-65350418D01*
X174651041Y-65213019D01*
X174651039Y-65213017D01*
X174477642Y-65105655D01*
X174477635Y-65105651D01*
X174294921Y-65034868D01*
X174287456Y-65031976D01*
X174086976Y-64994500D01*
X173883024Y-64994500D01*
X173682544Y-65031976D01*
X173682540Y-65031977D01*
X173676909Y-65033030D01*
X173676454Y-65030600D01*
X173617169Y-65030059D01*
X173558739Y-64991749D01*
X173530296Y-64927931D01*
X173540871Y-64858866D01*
X173565506Y-64823728D01*
X175357416Y-63031819D01*
X175418739Y-62998334D01*
X175445097Y-62995500D01*
X181644903Y-62995500D01*
X181711942Y-63015185D01*
X181732584Y-63031819D01*
X184808181Y-66107416D01*
X184841666Y-66168739D01*
X184844500Y-66195097D01*
X184844500Y-75178872D01*
X184824815Y-75245911D01*
X184772011Y-75291666D01*
X184702853Y-75301610D01*
X184639297Y-75272585D01*
X184632819Y-75266553D01*
X184399621Y-75033355D01*
X184399619Y-75033352D01*
X184280748Y-74914481D01*
X184280747Y-74914480D01*
X184193935Y-74864360D01*
X184193935Y-74864359D01*
X184193931Y-74864358D01*
X184143816Y-74835423D01*
X183991088Y-74794499D01*
X183832974Y-74794499D01*
X183825378Y-74794499D01*
X183825362Y-74794500D01*
X176231670Y-74794500D01*
X176231654Y-74794499D01*
X176224058Y-74794499D01*
X176065943Y-74794499D01*
X175989579Y-74814961D01*
X175913214Y-74835423D01*
X175913209Y-74835426D01*
X175776290Y-74914475D01*
X175776282Y-74914481D01*
X171732584Y-78958181D01*
X171671261Y-78991666D01*
X171644903Y-78994500D01*
X170525247Y-78994500D01*
X170466770Y-79006131D01*
X170466769Y-79006132D01*
X170400447Y-79050447D01*
X170356132Y-79116769D01*
X170356131Y-79116770D01*
X170344500Y-79175247D01*
X170344500Y-81014752D01*
X170356131Y-81073229D01*
X170356132Y-81073230D01*
X170400447Y-81139552D01*
X170466769Y-81183867D01*
X170466770Y-81183868D01*
X170525247Y-81195499D01*
X170525250Y-81195500D01*
X170525252Y-81195500D01*
X172364750Y-81195500D01*
X172364751Y-81195499D01*
X172379568Y-81192552D01*
X172423229Y-81183868D01*
X172423229Y-81183867D01*
X172423231Y-81183867D01*
X172489552Y-81139552D01*
X172533867Y-81073231D01*
X172533867Y-81073229D01*
X172533868Y-81073229D01*
X172545499Y-81014752D01*
X172545500Y-81014750D01*
X172545500Y-79895097D01*
X172565185Y-79828058D01*
X172581813Y-79807421D01*
X172720579Y-79668655D01*
X172781898Y-79635173D01*
X172851590Y-79640157D01*
X172907524Y-79682028D01*
X172931941Y-79747492D01*
X172927523Y-79790273D01*
X172898603Y-79891914D01*
X172898602Y-79891917D01*
X172879785Y-80094999D01*
X172879785Y-80095000D01*
X172898602Y-80298082D01*
X172954417Y-80494247D01*
X172954422Y-80494260D01*
X173045327Y-80676821D01*
X173168237Y-80839581D01*
X173318958Y-80976980D01*
X173318960Y-80976982D01*
X173349829Y-80996095D01*
X173492363Y-81084348D01*
X173682544Y-81158024D01*
X173883024Y-81195500D01*
X173883026Y-81195500D01*
X174086974Y-81195500D01*
X174086976Y-81195500D01*
X174287456Y-81158024D01*
X174477637Y-81084348D01*
X174651041Y-80976981D01*
X174801764Y-80839579D01*
X174924673Y-80676821D01*
X175015582Y-80494250D01*
X175071397Y-80298083D01*
X175090215Y-80095000D01*
X175086129Y-80050909D01*
X175071397Y-79891917D01*
X175029595Y-79745000D01*
X175015582Y-79695750D01*
X175008749Y-79682028D01*
X174971272Y-79606764D01*
X174924673Y-79513179D01*
X174847609Y-79411129D01*
X174801762Y-79350418D01*
X174651041Y-79213019D01*
X174651039Y-79213017D01*
X174477642Y-79105655D01*
X174477635Y-79105651D01*
X174335135Y-79050447D01*
X174287456Y-79031976D01*
X174086976Y-78994500D01*
X173883024Y-78994500D01*
X173682544Y-79031976D01*
X173682540Y-79031977D01*
X173676909Y-79033030D01*
X173676454Y-79030600D01*
X173617169Y-79030059D01*
X173558739Y-78991749D01*
X173530296Y-78927931D01*
X173540871Y-78858866D01*
X173565506Y-78823729D01*
X176357417Y-76031819D01*
X176418740Y-75998334D01*
X176445098Y-75995500D01*
X183611934Y-75995500D01*
X183678973Y-76015185D01*
X183699615Y-76031819D01*
X183808181Y-76140385D01*
X183841666Y-76201708D01*
X183844500Y-76228066D01*
X183844500Y-86308330D01*
X183844499Y-86308348D01*
X183844499Y-86474054D01*
X183844498Y-86474054D01*
X183885423Y-86626786D01*
X183885424Y-86626787D01*
X183906465Y-86663231D01*
X183964480Y-86763716D01*
X183964482Y-86763718D01*
X184083349Y-86882585D01*
X184083355Y-86882590D01*
X185840139Y-88639374D01*
X185840149Y-88639385D01*
X185844479Y-88643715D01*
X185844480Y-88643716D01*
X185956284Y-88755520D01*
X185956286Y-88755521D01*
X185956290Y-88755524D01*
X186061848Y-88816467D01*
X186093216Y-88834577D01*
X186193508Y-88861450D01*
X186245942Y-88875500D01*
X186245943Y-88875500D01*
X187520197Y-88875500D01*
X187587236Y-88895185D01*
X187616050Y-88920835D01*
X187698589Y-89021409D01*
X187698590Y-89021410D01*
X187858550Y-89152685D01*
X188041046Y-89250232D01*
X188239066Y-89310300D01*
X188239065Y-89310300D01*
X188257529Y-89312118D01*
X188445000Y-89330583D01*
X188650934Y-89310300D01*
X188848954Y-89250232D01*
X189031450Y-89152685D01*
X189191410Y-89021410D01*
X189322685Y-88861450D01*
X189420232Y-88678954D01*
X189480300Y-88480934D01*
X189500583Y-88275000D01*
X189480300Y-88069066D01*
X189420232Y-87871046D01*
X189322685Y-87688550D01*
X189270702Y-87625209D01*
X189191410Y-87528589D01*
X189031452Y-87397317D01*
X189031453Y-87397317D01*
X189031450Y-87397315D01*
X188848954Y-87299768D01*
X188650934Y-87239700D01*
X188650932Y-87239699D01*
X188650934Y-87239699D01*
X188445000Y-87219417D01*
X188239067Y-87239699D01*
X188041043Y-87299769D01*
X187930898Y-87358643D01*
X187858550Y-87397315D01*
X187858548Y-87397316D01*
X187858547Y-87397317D01*
X187698589Y-87528590D01*
X187616050Y-87629165D01*
X187558305Y-87668499D01*
X187520197Y-87674500D01*
X186625097Y-87674500D01*
X186558058Y-87654815D01*
X186537416Y-87638181D01*
X185081819Y-86182584D01*
X185048334Y-86121261D01*
X185045500Y-86094903D01*
X185045500Y-77144097D01*
X185065185Y-77077058D01*
X185117989Y-77031303D01*
X185187147Y-77021359D01*
X185250703Y-77050384D01*
X185257181Y-77056416D01*
X185433181Y-77232416D01*
X185466666Y-77293739D01*
X185469500Y-77320097D01*
X185469500Y-80853330D01*
X185469499Y-80853348D01*
X185469499Y-81019054D01*
X185469498Y-81019054D01*
X185510423Y-81171785D01*
X185539358Y-81221900D01*
X185539359Y-81221904D01*
X185539360Y-81221904D01*
X185589479Y-81308714D01*
X185589481Y-81308717D01*
X185708349Y-81427585D01*
X185708355Y-81427590D01*
X187808181Y-83527416D01*
X187841666Y-83588739D01*
X187844500Y-83615097D01*
X187844500Y-84560500D01*
X187824815Y-84627539D01*
X187772011Y-84673294D01*
X187720500Y-84684500D01*
X187575247Y-84684500D01*
X187516770Y-84696131D01*
X187516769Y-84696132D01*
X187450447Y-84740447D01*
X187406132Y-84806769D01*
X187406131Y-84806770D01*
X187394500Y-84865247D01*
X187394500Y-86604752D01*
X187406131Y-86663229D01*
X187406132Y-86663230D01*
X187450447Y-86729552D01*
X187516769Y-86773867D01*
X187516770Y-86773868D01*
X187575247Y-86785499D01*
X187575250Y-86785500D01*
X187575252Y-86785500D01*
X189314750Y-86785500D01*
X189314751Y-86785499D01*
X189329568Y-86782552D01*
X189373229Y-86773868D01*
X189373229Y-86773867D01*
X189373231Y-86773867D01*
X189439552Y-86729552D01*
X189483867Y-86663231D01*
X189483867Y-86663229D01*
X189483868Y-86663229D01*
X189495499Y-86604752D01*
X189495500Y-86604750D01*
X189495500Y-84865249D01*
X189495499Y-84865247D01*
X189483868Y-84806770D01*
X189483867Y-84806769D01*
X189439552Y-84740447D01*
X189373230Y-84696132D01*
X189373229Y-84696131D01*
X189314752Y-84684500D01*
X189314748Y-84684500D01*
X189169500Y-84684500D01*
X189102461Y-84664815D01*
X189056706Y-84612011D01*
X189045500Y-84560500D01*
X189045500Y-83235945D01*
X189045500Y-83235943D01*
X189004577Y-83083216D01*
X189004577Y-83083215D01*
X189004577Y-83083214D01*
X188975639Y-83033095D01*
X188975637Y-83033092D01*
X188941822Y-82974521D01*
X188925520Y-82946284D01*
X188813716Y-82834480D01*
X188813715Y-82834479D01*
X188809385Y-82830149D01*
X188809374Y-82830139D01*
X187246986Y-81267751D01*
X187213501Y-81206428D01*
X187218485Y-81136736D01*
X187254137Y-81085779D01*
X187270000Y-81072231D01*
X187270000Y-79693482D01*
X187288409Y-79704111D01*
X187441009Y-79745000D01*
X187598991Y-79745000D01*
X187751591Y-79704111D01*
X187770000Y-79693482D01*
X187770000Y-81072230D01*
X187836126Y-81061757D01*
X187836129Y-81061757D01*
X188038217Y-80996095D01*
X188227557Y-80899620D01*
X188399459Y-80774727D01*
X188399464Y-80774723D01*
X188549723Y-80624464D01*
X188549727Y-80624459D01*
X188674620Y-80452557D01*
X188771095Y-80263217D01*
X188836757Y-80061130D01*
X188836757Y-80061127D01*
X188870000Y-79851246D01*
X188870000Y-79395000D01*
X188068482Y-79395000D01*
X188079111Y-79376591D01*
X188120000Y-79223991D01*
X188120000Y-79066009D01*
X188079111Y-78913409D01*
X188068482Y-78895000D01*
X188870000Y-78895000D01*
X188870000Y-78438753D01*
X188836757Y-78228872D01*
X188836757Y-78228869D01*
X188771095Y-78026782D01*
X188674620Y-77837442D01*
X188549727Y-77665540D01*
X188549723Y-77665535D01*
X188399464Y-77515276D01*
X188399459Y-77515272D01*
X188227557Y-77390379D01*
X188038215Y-77293903D01*
X187836124Y-77228241D01*
X187770000Y-77217768D01*
X187770000Y-78596517D01*
X187751591Y-78585889D01*
X187598991Y-78545000D01*
X187441009Y-78545000D01*
X187288409Y-78585889D01*
X187270000Y-78596517D01*
X187270000Y-77217768D01*
X187269999Y-77217768D01*
X187203875Y-77228241D01*
X187001784Y-77293903D01*
X186850795Y-77370837D01*
X186782126Y-77383733D01*
X186717385Y-77357457D01*
X186677128Y-77300350D01*
X186670500Y-77260352D01*
X186670500Y-76940945D01*
X186670500Y-76940943D01*
X186629577Y-76788216D01*
X186582928Y-76707416D01*
X186550524Y-76651290D01*
X186550521Y-76651286D01*
X186550520Y-76651284D01*
X186438716Y-76539480D01*
X186438715Y-76539479D01*
X186434385Y-76535149D01*
X186434374Y-76535139D01*
X186081819Y-76182584D01*
X186048334Y-76121261D01*
X186045500Y-76094903D01*
X186045500Y-72804448D01*
X188369500Y-72804448D01*
X188369500Y-72985551D01*
X188397829Y-73164410D01*
X188453787Y-73336636D01*
X188453788Y-73336639D01*
X188509664Y-73446300D01*
X188523807Y-73474057D01*
X188536006Y-73497997D01*
X188642441Y-73644494D01*
X188642445Y-73644499D01*
X188770500Y-73772554D01*
X188770505Y-73772558D01*
X188898287Y-73865396D01*
X188917006Y-73878996D01*
X189022484Y-73932740D01*
X189078360Y-73961211D01*
X189078363Y-73961212D01*
X189164476Y-73989191D01*
X189250591Y-74017171D01*
X189333429Y-74030291D01*
X189429449Y-74045500D01*
X189429454Y-74045500D01*
X189610551Y-74045500D01*
X189697259Y-74031765D01*
X189789409Y-74017171D01*
X189961639Y-73961211D01*
X190122994Y-73878996D01*
X190269501Y-73772553D01*
X190397553Y-73644501D01*
X190503996Y-73497994D01*
X190586211Y-73336639D01*
X190642171Y-73164409D01*
X190664048Y-73026284D01*
X190670500Y-72985551D01*
X190670500Y-72804448D01*
X190654019Y-72700397D01*
X190642171Y-72625591D01*
X190586211Y-72453361D01*
X190586211Y-72453360D01*
X190556220Y-72394500D01*
X190503996Y-72292006D01*
X190490396Y-72273287D01*
X190397558Y-72145505D01*
X190397554Y-72145500D01*
X190269499Y-72017445D01*
X190269494Y-72017441D01*
X190122997Y-71911006D01*
X190122996Y-71911005D01*
X190122994Y-71911004D01*
X190071300Y-71884664D01*
X189961639Y-71828788D01*
X189961636Y-71828787D01*
X189789410Y-71772829D01*
X189610551Y-71744500D01*
X189610546Y-71744500D01*
X189429454Y-71744500D01*
X189429449Y-71744500D01*
X189250589Y-71772829D01*
X189078363Y-71828787D01*
X189078360Y-71828788D01*
X188917002Y-71911006D01*
X188770505Y-72017441D01*
X188770500Y-72017445D01*
X188642445Y-72145500D01*
X188642441Y-72145505D01*
X188536006Y-72292002D01*
X188453788Y-72453360D01*
X188453787Y-72453363D01*
X188397829Y-72625589D01*
X188369500Y-72804448D01*
X186045500Y-72804448D01*
X186045500Y-67841258D01*
X186065185Y-67774219D01*
X186117989Y-67728464D01*
X186187147Y-67718520D01*
X186250703Y-67747545D01*
X186279985Y-67784963D01*
X186365379Y-67952557D01*
X186490272Y-68124459D01*
X186490276Y-68124464D01*
X186640535Y-68274723D01*
X186640540Y-68274727D01*
X186812442Y-68399620D01*
X187001782Y-68496095D01*
X187203871Y-68561757D01*
X187270000Y-68572231D01*
X187270000Y-67193482D01*
X187288409Y-67204111D01*
X187441009Y-67245000D01*
X187598991Y-67245000D01*
X187751591Y-67204111D01*
X187770000Y-67193482D01*
X187770000Y-68572230D01*
X187836126Y-68561757D01*
X187836129Y-68561757D01*
X188038217Y-68496095D01*
X188227557Y-68399620D01*
X188399459Y-68274727D01*
X188399464Y-68274723D01*
X188549723Y-68124464D01*
X188549727Y-68124459D01*
X188674620Y-67952557D01*
X188771095Y-67763217D01*
X188836757Y-67561130D01*
X188836757Y-67561127D01*
X188870000Y-67351246D01*
X188870000Y-66895000D01*
X188068482Y-66895000D01*
X188079111Y-66876591D01*
X188120000Y-66723991D01*
X188120000Y-66566009D01*
X188079111Y-66413409D01*
X188068482Y-66395000D01*
X188870000Y-66395000D01*
X188870000Y-65938753D01*
X188836757Y-65728872D01*
X188836757Y-65728869D01*
X188771095Y-65526782D01*
X188674620Y-65337442D01*
X188549727Y-65165540D01*
X188549723Y-65165535D01*
X188399464Y-65015276D01*
X188399459Y-65015272D01*
X188227557Y-64890379D01*
X188038215Y-64793903D01*
X187836124Y-64728241D01*
X187770000Y-64717768D01*
X187770000Y-66096517D01*
X187751591Y-66085889D01*
X187598991Y-66045000D01*
X187441009Y-66045000D01*
X187288409Y-66085889D01*
X187270000Y-66096517D01*
X187270000Y-64717768D01*
X187269999Y-64717768D01*
X187203875Y-64728241D01*
X187001784Y-64793903D01*
X186812442Y-64890379D01*
X186640540Y-65015272D01*
X186640535Y-65015276D01*
X186490276Y-65165535D01*
X186490272Y-65165540D01*
X186365379Y-65337442D01*
X186268905Y-65526781D01*
X186231414Y-65642166D01*
X186191976Y-65699841D01*
X186127618Y-65727039D01*
X186058771Y-65715124D01*
X186007295Y-65667880D01*
X186006095Y-65665846D01*
X185988386Y-65635173D01*
X185925520Y-65526284D01*
X185813716Y-65414480D01*
X185813715Y-65414479D01*
X185809385Y-65410149D01*
X185809374Y-65410139D01*
X182432590Y-62033355D01*
X182432588Y-62033352D01*
X182313717Y-61914481D01*
X182313716Y-61914480D01*
X182226904Y-61864360D01*
X182226904Y-61864359D01*
X182226900Y-61864358D01*
X182176785Y-61835423D01*
X182024057Y-61794499D01*
X181865943Y-61794499D01*
X181858347Y-61794499D01*
X181858331Y-61794500D01*
X175224057Y-61794500D01*
X175065943Y-61794500D01*
X174913215Y-61835423D01*
X174913214Y-61835423D01*
X174913212Y-61835424D01*
X174913209Y-61835425D01*
X174863096Y-61864359D01*
X174863095Y-61864360D01*
X174819689Y-61889420D01*
X174776285Y-61914479D01*
X174776282Y-61914481D01*
X174664478Y-62026286D01*
X171732584Y-64958181D01*
X171671261Y-64991666D01*
X171644903Y-64994500D01*
X170525247Y-64994500D01*
X170466770Y-65006131D01*
X170466769Y-65006132D01*
X170400447Y-65050447D01*
X170356132Y-65116769D01*
X170356131Y-65116770D01*
X170344500Y-65175247D01*
X153590038Y-65175247D01*
X153477642Y-65105655D01*
X153477635Y-65105651D01*
X153294921Y-65034868D01*
X153287456Y-65031976D01*
X153086976Y-64994500D01*
X152883024Y-64994500D01*
X152682544Y-65031976D01*
X152682541Y-65031976D01*
X152682541Y-65031977D01*
X152492364Y-65105651D01*
X152492357Y-65105655D01*
X152318960Y-65213017D01*
X152318958Y-65213019D01*
X152168237Y-65350418D01*
X152045327Y-65513178D01*
X151954422Y-65695739D01*
X151954417Y-65695752D01*
X151898602Y-65891917D01*
X151879785Y-66094999D01*
X151545500Y-66094999D01*
X151545500Y-65175249D01*
X151545499Y-65175247D01*
X151533868Y-65116770D01*
X151533867Y-65116769D01*
X151489552Y-65050447D01*
X151423230Y-65006132D01*
X151423229Y-65006131D01*
X151364752Y-64994500D01*
X151364748Y-64994500D01*
X149525252Y-64994500D01*
X149525247Y-64994500D01*
X149466770Y-65006131D01*
X149466769Y-65006132D01*
X149400447Y-65050447D01*
X149356132Y-65116769D01*
X149356131Y-65116770D01*
X149344500Y-65175247D01*
X141945500Y-65175247D01*
X141945500Y-61273711D01*
X142594500Y-61273711D01*
X142594500Y-61273712D01*
X142594500Y-61516288D01*
X142626162Y-61756789D01*
X142636267Y-61794500D01*
X142688947Y-61991104D01*
X142781773Y-62215205D01*
X142781776Y-62215212D01*
X142903064Y-62425289D01*
X142903066Y-62425292D01*
X142903067Y-62425293D01*
X143050733Y-62617736D01*
X143050739Y-62617743D01*
X143222256Y-62789260D01*
X143222262Y-62789265D01*
X143414711Y-62936936D01*
X143624788Y-63058224D01*
X143848900Y-63151054D01*
X144083211Y-63213838D01*
X144263586Y-63237584D01*
X144323711Y-63245500D01*
X144323712Y-63245500D01*
X144566289Y-63245500D01*
X144614388Y-63239167D01*
X144806789Y-63213838D01*
X145041100Y-63151054D01*
X145265212Y-63058224D01*
X145475289Y-62936936D01*
X145667738Y-62789265D01*
X145839265Y-62617738D01*
X145986936Y-62425289D01*
X146108224Y-62215212D01*
X146201054Y-61991100D01*
X146263838Y-61756789D01*
X146295500Y-61516288D01*
X146295500Y-61273712D01*
X146295500Y-61273711D01*
X186594500Y-61273711D01*
X186594500Y-61273712D01*
X186594500Y-61516288D01*
X186626162Y-61756789D01*
X186636267Y-61794500D01*
X186688947Y-61991104D01*
X186781773Y-62215205D01*
X186781776Y-62215212D01*
X186903064Y-62425289D01*
X186903066Y-62425292D01*
X186903067Y-62425293D01*
X187050733Y-62617736D01*
X187050739Y-62617743D01*
X187222256Y-62789260D01*
X187222262Y-62789265D01*
X187414711Y-62936936D01*
X187624788Y-63058224D01*
X187848900Y-63151054D01*
X188083211Y-63213838D01*
X188263586Y-63237584D01*
X188323711Y-63245500D01*
X188323712Y-63245500D01*
X188566289Y-63245500D01*
X188614388Y-63239167D01*
X188806789Y-63213838D01*
X189041100Y-63151054D01*
X189265212Y-63058224D01*
X189475289Y-62936936D01*
X189667738Y-62789265D01*
X189839265Y-62617738D01*
X189986936Y-62425289D01*
X190108224Y-62215212D01*
X190201054Y-61991100D01*
X190263838Y-61756789D01*
X190295500Y-61516288D01*
X190295500Y-61273712D01*
X190263838Y-61033211D01*
X190201054Y-60798900D01*
X190108224Y-60574788D01*
X189986936Y-60364711D01*
X189839265Y-60172262D01*
X189839260Y-60172256D01*
X189667743Y-60000739D01*
X189667736Y-60000733D01*
X189475293Y-59853067D01*
X189475292Y-59853066D01*
X189475289Y-59853064D01*
X189265212Y-59731776D01*
X189265205Y-59731773D01*
X189041104Y-59638947D01*
X188806785Y-59576161D01*
X188566289Y-59544500D01*
X188566288Y-59544500D01*
X188323712Y-59544500D01*
X188323711Y-59544500D01*
X188083214Y-59576161D01*
X187848895Y-59638947D01*
X187624794Y-59731773D01*
X187624785Y-59731777D01*
X187414706Y-59853067D01*
X187222263Y-60000733D01*
X187222256Y-60000739D01*
X187050739Y-60172256D01*
X187050733Y-60172263D01*
X186903067Y-60364706D01*
X186781777Y-60574785D01*
X186781773Y-60574794D01*
X186688947Y-60798895D01*
X186626161Y-61033214D01*
X186594500Y-61273711D01*
X146295500Y-61273711D01*
X146263838Y-61033211D01*
X146201054Y-60798900D01*
X146108224Y-60574788D01*
X145986936Y-60364711D01*
X145839265Y-60172262D01*
X145839260Y-60172256D01*
X145667743Y-60000739D01*
X145667736Y-60000733D01*
X145475293Y-59853067D01*
X145475292Y-59853066D01*
X145475289Y-59853064D01*
X145265212Y-59731776D01*
X145265205Y-59731773D01*
X145041104Y-59638947D01*
X144806785Y-59576161D01*
X144566289Y-59544500D01*
X144566288Y-59544500D01*
X144323712Y-59544500D01*
X144323711Y-59544500D01*
X144083214Y-59576161D01*
X143848895Y-59638947D01*
X143624794Y-59731773D01*
X143624785Y-59731777D01*
X143414706Y-59853067D01*
X143222263Y-60000733D01*
X143222256Y-60000739D01*
X143050739Y-60172256D01*
X143050733Y-60172263D01*
X142903067Y-60364706D01*
X142781777Y-60574785D01*
X142781773Y-60574794D01*
X142688947Y-60798895D01*
X142626161Y-61033214D01*
X142594500Y-61273711D01*
X141945500Y-61273711D01*
X141945500Y-59019500D01*
X141965185Y-58952461D01*
X142017989Y-58906706D01*
X142069500Y-58895500D01*
X190820500Y-58895500D01*
X190887539Y-58915185D01*
G37*
G04 #@! TD.AperFunction*
M02*
