G04 #@! TF.GenerationSoftware,KiCad,Pcbnew,8.0.5*
G04 #@! TF.CreationDate,2025-02-13T10:20:18+08:00*
G04 #@! TF.ProjectId,arduino_solar_bikelight_1,61726475-696e-46f5-9f73-6f6c61725f62,rev?*
G04 #@! TF.SameCoordinates,Original*
G04 #@! TF.FileFunction,Legend,Top*
G04 #@! TF.FilePolarity,Positive*
%FSLAX46Y46*%
G04 Gerber Fmt 4.6, Leading zero omitted, Abs format (unit mm)*
G04 Created by KiCad (PCBNEW 8.0.5) date 2025-02-13 10:20:18*
%MOMM*%
%LPD*%
G01*
G04 APERTURE LIST*
G04 Aperture macros list*
%AMRoundRect*
0 Rectangle with rounded corners*
0 $1 Rounding radius*
0 $2 $3 $4 $5 $6 $7 $8 $9 X,Y pos of 4 corners*
0 Add a 4 corners polygon primitive as box body*
4,1,4,$2,$3,$4,$5,$6,$7,$8,$9,$2,$3,0*
0 Add four circle primitives for the rounded corners*
1,1,$1+$1,$2,$3*
1,1,$1+$1,$4,$5*
1,1,$1+$1,$6,$7*
1,1,$1+$1,$8,$9*
0 Add four rect primitives between the rounded corners*
20,1,$1+$1,$2,$3,$4,$5,0*
20,1,$1+$1,$4,$5,$6,$7,0*
20,1,$1+$1,$6,$7,$8,$9,0*
20,1,$1+$1,$8,$9,$2,$3,0*%
G04 Aperture macros list end*
%ADD10C,0.100000*%
%ADD11C,0.150000*%
%ADD12C,0.120000*%
%ADD13RoundRect,0.250000X-0.450000X0.350000X-0.450000X-0.350000X0.450000X-0.350000X0.450000X0.350000X0*%
%ADD14C,1.500000*%
%ADD15RoundRect,0.250000X-0.350000X-0.450000X0.350000X-0.450000X0.350000X0.450000X-0.350000X0.450000X0*%
%ADD16C,3.200000*%
%ADD17RoundRect,0.250000X0.450000X-0.350000X0.450000X0.350000X-0.450000X0.350000X-0.450000X-0.350000X0*%
%ADD18R,1.600000X1.600000*%
%ADD19O,1.600000X1.600000*%
%ADD20C,1.200000*%
%ADD21RoundRect,0.250000X-0.750000X0.600000X-0.750000X-0.600000X0.750000X-0.600000X0.750000X0.600000X0*%
%ADD22O,2.000000X1.700000*%
%ADD23C,1.800000*%
%ADD24O,1.700000X2.900000*%
%ADD25RoundRect,0.150000X-0.587500X-0.150000X0.587500X-0.150000X0.587500X0.150000X-0.587500X0.150000X0*%
%ADD26R,1.700000X1.700000*%
%ADD27O,1.700000X1.700000*%
%ADD28R,1.800000X1.800000*%
G04 APERTURE END LIST*
D10*
X181386979Y-106183133D02*
X182910789Y-106183133D01*
X185582217Y-109743609D02*
X185725074Y-109791228D01*
X185725074Y-109791228D02*
X185772693Y-109838847D01*
X185772693Y-109838847D02*
X185820312Y-109934085D01*
X185820312Y-109934085D02*
X185820312Y-110076942D01*
X185820312Y-110076942D02*
X185772693Y-110172180D01*
X185772693Y-110172180D02*
X185725074Y-110219800D01*
X185725074Y-110219800D02*
X185629836Y-110267419D01*
X185629836Y-110267419D02*
X185248884Y-110267419D01*
X185248884Y-110267419D02*
X185248884Y-109267419D01*
X185248884Y-109267419D02*
X185582217Y-109267419D01*
X185582217Y-109267419D02*
X185677455Y-109315038D01*
X185677455Y-109315038D02*
X185725074Y-109362657D01*
X185725074Y-109362657D02*
X185772693Y-109457895D01*
X185772693Y-109457895D02*
X185772693Y-109553133D01*
X185772693Y-109553133D02*
X185725074Y-109648371D01*
X185725074Y-109648371D02*
X185677455Y-109695990D01*
X185677455Y-109695990D02*
X185582217Y-109743609D01*
X185582217Y-109743609D02*
X185248884Y-109743609D01*
X186677455Y-110267419D02*
X186677455Y-109743609D01*
X186677455Y-109743609D02*
X186629836Y-109648371D01*
X186629836Y-109648371D02*
X186534598Y-109600752D01*
X186534598Y-109600752D02*
X186344122Y-109600752D01*
X186344122Y-109600752D02*
X186248884Y-109648371D01*
X186677455Y-110219800D02*
X186582217Y-110267419D01*
X186582217Y-110267419D02*
X186344122Y-110267419D01*
X186344122Y-110267419D02*
X186248884Y-110219800D01*
X186248884Y-110219800D02*
X186201265Y-110124561D01*
X186201265Y-110124561D02*
X186201265Y-110029323D01*
X186201265Y-110029323D02*
X186248884Y-109934085D01*
X186248884Y-109934085D02*
X186344122Y-109886466D01*
X186344122Y-109886466D02*
X186582217Y-109886466D01*
X186582217Y-109886466D02*
X186677455Y-109838847D01*
X187010789Y-109600752D02*
X187391741Y-109600752D01*
X187153646Y-109267419D02*
X187153646Y-110124561D01*
X187153646Y-110124561D02*
X187201265Y-110219800D01*
X187201265Y-110219800D02*
X187296503Y-110267419D01*
X187296503Y-110267419D02*
X187391741Y-110267419D01*
X187582218Y-109600752D02*
X187963170Y-109600752D01*
X187725075Y-109267419D02*
X187725075Y-110124561D01*
X187725075Y-110124561D02*
X187772694Y-110219800D01*
X187772694Y-110219800D02*
X187867932Y-110267419D01*
X187867932Y-110267419D02*
X187963170Y-110267419D01*
X188677456Y-110219800D02*
X188582218Y-110267419D01*
X188582218Y-110267419D02*
X188391742Y-110267419D01*
X188391742Y-110267419D02*
X188296504Y-110219800D01*
X188296504Y-110219800D02*
X188248885Y-110124561D01*
X188248885Y-110124561D02*
X188248885Y-109743609D01*
X188248885Y-109743609D02*
X188296504Y-109648371D01*
X188296504Y-109648371D02*
X188391742Y-109600752D01*
X188391742Y-109600752D02*
X188582218Y-109600752D01*
X188582218Y-109600752D02*
X188677456Y-109648371D01*
X188677456Y-109648371D02*
X188725075Y-109743609D01*
X188725075Y-109743609D02*
X188725075Y-109838847D01*
X188725075Y-109838847D02*
X188248885Y-109934085D01*
X189153647Y-110267419D02*
X189153647Y-109600752D01*
X189153647Y-109791228D02*
X189201266Y-109695990D01*
X189201266Y-109695990D02*
X189248885Y-109648371D01*
X189248885Y-109648371D02*
X189344123Y-109600752D01*
X189344123Y-109600752D02*
X189439361Y-109600752D01*
X189677457Y-109600752D02*
X189915552Y-110267419D01*
X190153647Y-109600752D02*
X189915552Y-110267419D01*
X189915552Y-110267419D02*
X189820314Y-110505514D01*
X189820314Y-110505514D02*
X189772695Y-110553133D01*
X189772695Y-110553133D02*
X189677457Y-110600752D01*
X181386979Y-102883133D02*
X182910789Y-102883133D01*
X182148884Y-103645038D02*
X182148884Y-102121228D01*
D11*
X177599819Y-111837857D02*
X177123628Y-112171190D01*
X177599819Y-112409285D02*
X176599819Y-112409285D01*
X176599819Y-112409285D02*
X176599819Y-112028333D01*
X176599819Y-112028333D02*
X176647438Y-111933095D01*
X176647438Y-111933095D02*
X176695057Y-111885476D01*
X176695057Y-111885476D02*
X176790295Y-111837857D01*
X176790295Y-111837857D02*
X176933152Y-111837857D01*
X176933152Y-111837857D02*
X177028390Y-111885476D01*
X177028390Y-111885476D02*
X177076009Y-111933095D01*
X177076009Y-111933095D02*
X177123628Y-112028333D01*
X177123628Y-112028333D02*
X177123628Y-112409285D01*
X177599819Y-110885476D02*
X177599819Y-111456904D01*
X177599819Y-111171190D02*
X176599819Y-111171190D01*
X176599819Y-111171190D02*
X176742676Y-111266428D01*
X176742676Y-111266428D02*
X176837914Y-111361666D01*
X176837914Y-111361666D02*
X176885533Y-111456904D01*
X176599819Y-109980714D02*
X176599819Y-110456904D01*
X176599819Y-110456904D02*
X177076009Y-110504523D01*
X177076009Y-110504523D02*
X177028390Y-110456904D01*
X177028390Y-110456904D02*
X176980771Y-110361666D01*
X176980771Y-110361666D02*
X176980771Y-110123571D01*
X176980771Y-110123571D02*
X177028390Y-110028333D01*
X177028390Y-110028333D02*
X177076009Y-109980714D01*
X177076009Y-109980714D02*
X177171247Y-109933095D01*
X177171247Y-109933095D02*
X177409342Y-109933095D01*
X177409342Y-109933095D02*
X177504580Y-109980714D01*
X177504580Y-109980714D02*
X177552200Y-110028333D01*
X177552200Y-110028333D02*
X177599819Y-110123571D01*
X177599819Y-110123571D02*
X177599819Y-110361666D01*
X177599819Y-110361666D02*
X177552200Y-110456904D01*
X177552200Y-110456904D02*
X177504580Y-110504523D01*
X183999819Y-114737857D02*
X183523628Y-115071190D01*
X183999819Y-115309285D02*
X182999819Y-115309285D01*
X182999819Y-115309285D02*
X182999819Y-114928333D01*
X182999819Y-114928333D02*
X183047438Y-114833095D01*
X183047438Y-114833095D02*
X183095057Y-114785476D01*
X183095057Y-114785476D02*
X183190295Y-114737857D01*
X183190295Y-114737857D02*
X183333152Y-114737857D01*
X183333152Y-114737857D02*
X183428390Y-114785476D01*
X183428390Y-114785476D02*
X183476009Y-114833095D01*
X183476009Y-114833095D02*
X183523628Y-114928333D01*
X183523628Y-114928333D02*
X183523628Y-115309285D01*
X183999819Y-113785476D02*
X183999819Y-114356904D01*
X183999819Y-114071190D02*
X182999819Y-114071190D01*
X182999819Y-114071190D02*
X183142676Y-114166428D01*
X183142676Y-114166428D02*
X183237914Y-114261666D01*
X183237914Y-114261666D02*
X183285533Y-114356904D01*
X183333152Y-112928333D02*
X183999819Y-112928333D01*
X182952200Y-113166428D02*
X183666485Y-113404523D01*
X183666485Y-113404523D02*
X183666485Y-112785476D01*
X168340833Y-77049819D02*
X168007500Y-76573628D01*
X167769405Y-77049819D02*
X167769405Y-76049819D01*
X167769405Y-76049819D02*
X168150357Y-76049819D01*
X168150357Y-76049819D02*
X168245595Y-76097438D01*
X168245595Y-76097438D02*
X168293214Y-76145057D01*
X168293214Y-76145057D02*
X168340833Y-76240295D01*
X168340833Y-76240295D02*
X168340833Y-76383152D01*
X168340833Y-76383152D02*
X168293214Y-76478390D01*
X168293214Y-76478390D02*
X168245595Y-76526009D01*
X168245595Y-76526009D02*
X168150357Y-76573628D01*
X168150357Y-76573628D02*
X167769405Y-76573628D01*
X169245595Y-76049819D02*
X168769405Y-76049819D01*
X168769405Y-76049819D02*
X168721786Y-76526009D01*
X168721786Y-76526009D02*
X168769405Y-76478390D01*
X168769405Y-76478390D02*
X168864643Y-76430771D01*
X168864643Y-76430771D02*
X169102738Y-76430771D01*
X169102738Y-76430771D02*
X169197976Y-76478390D01*
X169197976Y-76478390D02*
X169245595Y-76526009D01*
X169245595Y-76526009D02*
X169293214Y-76621247D01*
X169293214Y-76621247D02*
X169293214Y-76859342D01*
X169293214Y-76859342D02*
X169245595Y-76954580D01*
X169245595Y-76954580D02*
X169197976Y-77002200D01*
X169197976Y-77002200D02*
X169102738Y-77049819D01*
X169102738Y-77049819D02*
X168864643Y-77049819D01*
X168864643Y-77049819D02*
X168769405Y-77002200D01*
X168769405Y-77002200D02*
X168721786Y-76954580D01*
X153049819Y-86237857D02*
X152573628Y-86571190D01*
X153049819Y-86809285D02*
X152049819Y-86809285D01*
X152049819Y-86809285D02*
X152049819Y-86428333D01*
X152049819Y-86428333D02*
X152097438Y-86333095D01*
X152097438Y-86333095D02*
X152145057Y-86285476D01*
X152145057Y-86285476D02*
X152240295Y-86237857D01*
X152240295Y-86237857D02*
X152383152Y-86237857D01*
X152383152Y-86237857D02*
X152478390Y-86285476D01*
X152478390Y-86285476D02*
X152526009Y-86333095D01*
X152526009Y-86333095D02*
X152573628Y-86428333D01*
X152573628Y-86428333D02*
X152573628Y-86809285D01*
X153049819Y-85285476D02*
X153049819Y-85856904D01*
X153049819Y-85571190D02*
X152049819Y-85571190D01*
X152049819Y-85571190D02*
X152192676Y-85666428D01*
X152192676Y-85666428D02*
X152287914Y-85761666D01*
X152287914Y-85761666D02*
X152335533Y-85856904D01*
X153049819Y-84333095D02*
X153049819Y-84904523D01*
X153049819Y-84618809D02*
X152049819Y-84618809D01*
X152049819Y-84618809D02*
X152192676Y-84714047D01*
X152192676Y-84714047D02*
X152287914Y-84809285D01*
X152287914Y-84809285D02*
X152335533Y-84904523D01*
X150499819Y-89561666D02*
X150023628Y-89894999D01*
X150499819Y-90133094D02*
X149499819Y-90133094D01*
X149499819Y-90133094D02*
X149499819Y-89752142D01*
X149499819Y-89752142D02*
X149547438Y-89656904D01*
X149547438Y-89656904D02*
X149595057Y-89609285D01*
X149595057Y-89609285D02*
X149690295Y-89561666D01*
X149690295Y-89561666D02*
X149833152Y-89561666D01*
X149833152Y-89561666D02*
X149928390Y-89609285D01*
X149928390Y-89609285D02*
X149976009Y-89656904D01*
X149976009Y-89656904D02*
X150023628Y-89752142D01*
X150023628Y-89752142D02*
X150023628Y-90133094D01*
X150499819Y-88609285D02*
X150499819Y-89180713D01*
X150499819Y-88894999D02*
X149499819Y-88894999D01*
X149499819Y-88894999D02*
X149642676Y-88990237D01*
X149642676Y-88990237D02*
X149737914Y-89085475D01*
X149737914Y-89085475D02*
X149785533Y-89180713D01*
X146999819Y-89561666D02*
X146523628Y-89894999D01*
X146999819Y-90133094D02*
X145999819Y-90133094D01*
X145999819Y-90133094D02*
X145999819Y-89752142D01*
X145999819Y-89752142D02*
X146047438Y-89656904D01*
X146047438Y-89656904D02*
X146095057Y-89609285D01*
X146095057Y-89609285D02*
X146190295Y-89561666D01*
X146190295Y-89561666D02*
X146333152Y-89561666D01*
X146333152Y-89561666D02*
X146428390Y-89609285D01*
X146428390Y-89609285D02*
X146476009Y-89656904D01*
X146476009Y-89656904D02*
X146523628Y-89752142D01*
X146523628Y-89752142D02*
X146523628Y-90133094D01*
X146095057Y-89180713D02*
X146047438Y-89133094D01*
X146047438Y-89133094D02*
X145999819Y-89037856D01*
X145999819Y-89037856D02*
X145999819Y-88799761D01*
X145999819Y-88799761D02*
X146047438Y-88704523D01*
X146047438Y-88704523D02*
X146095057Y-88656904D01*
X146095057Y-88656904D02*
X146190295Y-88609285D01*
X146190295Y-88609285D02*
X146285533Y-88609285D01*
X146285533Y-88609285D02*
X146428390Y-88656904D01*
X146428390Y-88656904D02*
X146999819Y-89228332D01*
X146999819Y-89228332D02*
X146999819Y-88609285D01*
X155635714Y-105404104D02*
X156111904Y-105404104D01*
X155540476Y-105689819D02*
X155873809Y-104689819D01*
X155873809Y-104689819D02*
X156207142Y-105689819D01*
X157064285Y-105689819D02*
X156492857Y-105689819D01*
X156778571Y-105689819D02*
X156778571Y-104689819D01*
X156778571Y-104689819D02*
X156683333Y-104832676D01*
X156683333Y-104832676D02*
X156588095Y-104927914D01*
X156588095Y-104927914D02*
X156492857Y-104975533D01*
X152883095Y-73649819D02*
X152883095Y-74459342D01*
X152883095Y-74459342D02*
X152930714Y-74554580D01*
X152930714Y-74554580D02*
X152978333Y-74602200D01*
X152978333Y-74602200D02*
X153073571Y-74649819D01*
X153073571Y-74649819D02*
X153264047Y-74649819D01*
X153264047Y-74649819D02*
X153359285Y-74602200D01*
X153359285Y-74602200D02*
X153406904Y-74554580D01*
X153406904Y-74554580D02*
X153454523Y-74459342D01*
X153454523Y-74459342D02*
X153454523Y-73649819D01*
X153883095Y-74602200D02*
X154025952Y-74649819D01*
X154025952Y-74649819D02*
X154264047Y-74649819D01*
X154264047Y-74649819D02*
X154359285Y-74602200D01*
X154359285Y-74602200D02*
X154406904Y-74554580D01*
X154406904Y-74554580D02*
X154454523Y-74459342D01*
X154454523Y-74459342D02*
X154454523Y-74364104D01*
X154454523Y-74364104D02*
X154406904Y-74268866D01*
X154406904Y-74268866D02*
X154359285Y-74221247D01*
X154359285Y-74221247D02*
X154264047Y-74173628D01*
X154264047Y-74173628D02*
X154073571Y-74126009D01*
X154073571Y-74126009D02*
X153978333Y-74078390D01*
X153978333Y-74078390D02*
X153930714Y-74030771D01*
X153930714Y-74030771D02*
X153883095Y-73935533D01*
X153883095Y-73935533D02*
X153883095Y-73840295D01*
X153883095Y-73840295D02*
X153930714Y-73745057D01*
X153930714Y-73745057D02*
X153978333Y-73697438D01*
X153978333Y-73697438D02*
X154073571Y-73649819D01*
X154073571Y-73649819D02*
X154311666Y-73649819D01*
X154311666Y-73649819D02*
X154454523Y-73697438D01*
X155216428Y-74126009D02*
X155359285Y-74173628D01*
X155359285Y-74173628D02*
X155406904Y-74221247D01*
X155406904Y-74221247D02*
X155454523Y-74316485D01*
X155454523Y-74316485D02*
X155454523Y-74459342D01*
X155454523Y-74459342D02*
X155406904Y-74554580D01*
X155406904Y-74554580D02*
X155359285Y-74602200D01*
X155359285Y-74602200D02*
X155264047Y-74649819D01*
X155264047Y-74649819D02*
X154883095Y-74649819D01*
X154883095Y-74649819D02*
X154883095Y-73649819D01*
X154883095Y-73649819D02*
X155216428Y-73649819D01*
X155216428Y-73649819D02*
X155311666Y-73697438D01*
X155311666Y-73697438D02*
X155359285Y-73745057D01*
X155359285Y-73745057D02*
X155406904Y-73840295D01*
X155406904Y-73840295D02*
X155406904Y-73935533D01*
X155406904Y-73935533D02*
X155359285Y-74030771D01*
X155359285Y-74030771D02*
X155311666Y-74078390D01*
X155311666Y-74078390D02*
X155216428Y-74126009D01*
X155216428Y-74126009D02*
X154883095Y-74126009D01*
X168340833Y-85649819D02*
X168007500Y-85173628D01*
X167769405Y-85649819D02*
X167769405Y-84649819D01*
X167769405Y-84649819D02*
X168150357Y-84649819D01*
X168150357Y-84649819D02*
X168245595Y-84697438D01*
X168245595Y-84697438D02*
X168293214Y-84745057D01*
X168293214Y-84745057D02*
X168340833Y-84840295D01*
X168340833Y-84840295D02*
X168340833Y-84983152D01*
X168340833Y-84983152D02*
X168293214Y-85078390D01*
X168293214Y-85078390D02*
X168245595Y-85126009D01*
X168245595Y-85126009D02*
X168150357Y-85173628D01*
X168150357Y-85173628D02*
X167769405Y-85173628D01*
X169197976Y-84983152D02*
X169197976Y-85649819D01*
X168959881Y-84602200D02*
X168721786Y-85316485D01*
X168721786Y-85316485D02*
X169340833Y-85316485D01*
X172703333Y-70199819D02*
X172370000Y-69723628D01*
X172131905Y-70199819D02*
X172131905Y-69199819D01*
X172131905Y-69199819D02*
X172512857Y-69199819D01*
X172512857Y-69199819D02*
X172608095Y-69247438D01*
X172608095Y-69247438D02*
X172655714Y-69295057D01*
X172655714Y-69295057D02*
X172703333Y-69390295D01*
X172703333Y-69390295D02*
X172703333Y-69533152D01*
X172703333Y-69533152D02*
X172655714Y-69628390D01*
X172655714Y-69628390D02*
X172608095Y-69676009D01*
X172608095Y-69676009D02*
X172512857Y-69723628D01*
X172512857Y-69723628D02*
X172131905Y-69723628D01*
X173560476Y-69199819D02*
X173370000Y-69199819D01*
X173370000Y-69199819D02*
X173274762Y-69247438D01*
X173274762Y-69247438D02*
X173227143Y-69295057D01*
X173227143Y-69295057D02*
X173131905Y-69437914D01*
X173131905Y-69437914D02*
X173084286Y-69628390D01*
X173084286Y-69628390D02*
X173084286Y-70009342D01*
X173084286Y-70009342D02*
X173131905Y-70104580D01*
X173131905Y-70104580D02*
X173179524Y-70152200D01*
X173179524Y-70152200D02*
X173274762Y-70199819D01*
X173274762Y-70199819D02*
X173465238Y-70199819D01*
X173465238Y-70199819D02*
X173560476Y-70152200D01*
X173560476Y-70152200D02*
X173608095Y-70104580D01*
X173608095Y-70104580D02*
X173655714Y-70009342D01*
X173655714Y-70009342D02*
X173655714Y-69771247D01*
X173655714Y-69771247D02*
X173608095Y-69676009D01*
X173608095Y-69676009D02*
X173560476Y-69628390D01*
X173560476Y-69628390D02*
X173465238Y-69580771D01*
X173465238Y-69580771D02*
X173274762Y-69580771D01*
X173274762Y-69580771D02*
X173179524Y-69628390D01*
X173179524Y-69628390D02*
X173131905Y-69676009D01*
X173131905Y-69676009D02*
X173084286Y-69771247D01*
X181999819Y-101028333D02*
X182714104Y-101028333D01*
X182714104Y-101028333D02*
X182856961Y-101075952D01*
X182856961Y-101075952D02*
X182952200Y-101171190D01*
X182952200Y-101171190D02*
X182999819Y-101314047D01*
X182999819Y-101314047D02*
X182999819Y-101409285D01*
X182999819Y-100028333D02*
X182999819Y-100599761D01*
X182999819Y-100314047D02*
X181999819Y-100314047D01*
X181999819Y-100314047D02*
X182142676Y-100409285D01*
X182142676Y-100409285D02*
X182237914Y-100504523D01*
X182237914Y-100504523D02*
X182285533Y-100599761D01*
X185852200Y-65528332D02*
X185899819Y-65385475D01*
X185899819Y-65385475D02*
X185899819Y-65147380D01*
X185899819Y-65147380D02*
X185852200Y-65052142D01*
X185852200Y-65052142D02*
X185804580Y-65004523D01*
X185804580Y-65004523D02*
X185709342Y-64956904D01*
X185709342Y-64956904D02*
X185614104Y-64956904D01*
X185614104Y-64956904D02*
X185518866Y-65004523D01*
X185518866Y-65004523D02*
X185471247Y-65052142D01*
X185471247Y-65052142D02*
X185423628Y-65147380D01*
X185423628Y-65147380D02*
X185376009Y-65337856D01*
X185376009Y-65337856D02*
X185328390Y-65433094D01*
X185328390Y-65433094D02*
X185280771Y-65480713D01*
X185280771Y-65480713D02*
X185185533Y-65528332D01*
X185185533Y-65528332D02*
X185090295Y-65528332D01*
X185090295Y-65528332D02*
X184995057Y-65480713D01*
X184995057Y-65480713D02*
X184947438Y-65433094D01*
X184947438Y-65433094D02*
X184899819Y-65337856D01*
X184899819Y-65337856D02*
X184899819Y-65099761D01*
X184899819Y-65099761D02*
X184947438Y-64956904D01*
X184899819Y-64623570D02*
X185899819Y-64385475D01*
X185899819Y-64385475D02*
X185185533Y-64194999D01*
X185185533Y-64194999D02*
X185899819Y-64004523D01*
X185899819Y-64004523D02*
X184899819Y-63766428D01*
X185899819Y-62861666D02*
X185899819Y-63433094D01*
X185899819Y-63147380D02*
X184899819Y-63147380D01*
X184899819Y-63147380D02*
X185042676Y-63242618D01*
X185042676Y-63242618D02*
X185137914Y-63337856D01*
X185137914Y-63337856D02*
X185185533Y-63433094D01*
X168412261Y-88795057D02*
X168317023Y-88747438D01*
X168317023Y-88747438D02*
X168221785Y-88652200D01*
X168221785Y-88652200D02*
X168078928Y-88509342D01*
X168078928Y-88509342D02*
X167983690Y-88461723D01*
X167983690Y-88461723D02*
X167888452Y-88461723D01*
X167936071Y-88699819D02*
X167840833Y-88652200D01*
X167840833Y-88652200D02*
X167745595Y-88556961D01*
X167745595Y-88556961D02*
X167697976Y-88366485D01*
X167697976Y-88366485D02*
X167697976Y-88033152D01*
X167697976Y-88033152D02*
X167745595Y-87842676D01*
X167745595Y-87842676D02*
X167840833Y-87747438D01*
X167840833Y-87747438D02*
X167936071Y-87699819D01*
X167936071Y-87699819D02*
X168126547Y-87699819D01*
X168126547Y-87699819D02*
X168221785Y-87747438D01*
X168221785Y-87747438D02*
X168317023Y-87842676D01*
X168317023Y-87842676D02*
X168364642Y-88033152D01*
X168364642Y-88033152D02*
X168364642Y-88366485D01*
X168364642Y-88366485D02*
X168317023Y-88556961D01*
X168317023Y-88556961D02*
X168221785Y-88652200D01*
X168221785Y-88652200D02*
X168126547Y-88699819D01*
X168126547Y-88699819D02*
X167936071Y-88699819D01*
X168745595Y-87795057D02*
X168793214Y-87747438D01*
X168793214Y-87747438D02*
X168888452Y-87699819D01*
X168888452Y-87699819D02*
X169126547Y-87699819D01*
X169126547Y-87699819D02*
X169221785Y-87747438D01*
X169221785Y-87747438D02*
X169269404Y-87795057D01*
X169269404Y-87795057D02*
X169317023Y-87890295D01*
X169317023Y-87890295D02*
X169317023Y-87985533D01*
X169317023Y-87985533D02*
X169269404Y-88128390D01*
X169269404Y-88128390D02*
X168697976Y-88699819D01*
X168697976Y-88699819D02*
X169317023Y-88699819D01*
X172703333Y-112199819D02*
X172370000Y-111723628D01*
X172131905Y-112199819D02*
X172131905Y-111199819D01*
X172131905Y-111199819D02*
X172512857Y-111199819D01*
X172512857Y-111199819D02*
X172608095Y-111247438D01*
X172608095Y-111247438D02*
X172655714Y-111295057D01*
X172655714Y-111295057D02*
X172703333Y-111390295D01*
X172703333Y-111390295D02*
X172703333Y-111533152D01*
X172703333Y-111533152D02*
X172655714Y-111628390D01*
X172655714Y-111628390D02*
X172608095Y-111676009D01*
X172608095Y-111676009D02*
X172512857Y-111723628D01*
X172512857Y-111723628D02*
X172131905Y-111723628D01*
X173036667Y-111199819D02*
X173703333Y-111199819D01*
X173703333Y-111199819D02*
X173274762Y-112199819D01*
X151227142Y-70199819D02*
X150893809Y-69723628D01*
X150655714Y-70199819D02*
X150655714Y-69199819D01*
X150655714Y-69199819D02*
X151036666Y-69199819D01*
X151036666Y-69199819D02*
X151131904Y-69247438D01*
X151131904Y-69247438D02*
X151179523Y-69295057D01*
X151179523Y-69295057D02*
X151227142Y-69390295D01*
X151227142Y-69390295D02*
X151227142Y-69533152D01*
X151227142Y-69533152D02*
X151179523Y-69628390D01*
X151179523Y-69628390D02*
X151131904Y-69676009D01*
X151131904Y-69676009D02*
X151036666Y-69723628D01*
X151036666Y-69723628D02*
X150655714Y-69723628D01*
X152179523Y-70199819D02*
X151608095Y-70199819D01*
X151893809Y-70199819D02*
X151893809Y-69199819D01*
X151893809Y-69199819D02*
X151798571Y-69342676D01*
X151798571Y-69342676D02*
X151703333Y-69437914D01*
X151703333Y-69437914D02*
X151608095Y-69485533D01*
X152798571Y-69199819D02*
X152893809Y-69199819D01*
X152893809Y-69199819D02*
X152989047Y-69247438D01*
X152989047Y-69247438D02*
X153036666Y-69295057D01*
X153036666Y-69295057D02*
X153084285Y-69390295D01*
X153084285Y-69390295D02*
X153131904Y-69580771D01*
X153131904Y-69580771D02*
X153131904Y-69818866D01*
X153131904Y-69818866D02*
X153084285Y-70009342D01*
X153084285Y-70009342D02*
X153036666Y-70104580D01*
X153036666Y-70104580D02*
X152989047Y-70152200D01*
X152989047Y-70152200D02*
X152893809Y-70199819D01*
X152893809Y-70199819D02*
X152798571Y-70199819D01*
X152798571Y-70199819D02*
X152703333Y-70152200D01*
X152703333Y-70152200D02*
X152655714Y-70104580D01*
X152655714Y-70104580D02*
X152608095Y-70009342D01*
X152608095Y-70009342D02*
X152560476Y-69818866D01*
X152560476Y-69818866D02*
X152560476Y-69580771D01*
X152560476Y-69580771D02*
X152608095Y-69390295D01*
X152608095Y-69390295D02*
X152655714Y-69295057D01*
X152655714Y-69295057D02*
X152703333Y-69247438D01*
X152703333Y-69247438D02*
X152798571Y-69199819D01*
X188111666Y-82859819D02*
X188111666Y-83574104D01*
X188111666Y-83574104D02*
X188064047Y-83716961D01*
X188064047Y-83716961D02*
X187968809Y-83812200D01*
X187968809Y-83812200D02*
X187825952Y-83859819D01*
X187825952Y-83859819D02*
X187730714Y-83859819D01*
X188540238Y-82955057D02*
X188587857Y-82907438D01*
X188587857Y-82907438D02*
X188683095Y-82859819D01*
X188683095Y-82859819D02*
X188921190Y-82859819D01*
X188921190Y-82859819D02*
X189016428Y-82907438D01*
X189016428Y-82907438D02*
X189064047Y-82955057D01*
X189064047Y-82955057D02*
X189111666Y-83050295D01*
X189111666Y-83050295D02*
X189111666Y-83145533D01*
X189111666Y-83145533D02*
X189064047Y-83288390D01*
X189064047Y-83288390D02*
X188492619Y-83859819D01*
X188492619Y-83859819D02*
X189111666Y-83859819D01*
X168412261Y-80695057D02*
X168317023Y-80647438D01*
X168317023Y-80647438D02*
X168221785Y-80552200D01*
X168221785Y-80552200D02*
X168078928Y-80409342D01*
X168078928Y-80409342D02*
X167983690Y-80361723D01*
X167983690Y-80361723D02*
X167888452Y-80361723D01*
X167936071Y-80599819D02*
X167840833Y-80552200D01*
X167840833Y-80552200D02*
X167745595Y-80456961D01*
X167745595Y-80456961D02*
X167697976Y-80266485D01*
X167697976Y-80266485D02*
X167697976Y-79933152D01*
X167697976Y-79933152D02*
X167745595Y-79742676D01*
X167745595Y-79742676D02*
X167840833Y-79647438D01*
X167840833Y-79647438D02*
X167936071Y-79599819D01*
X167936071Y-79599819D02*
X168126547Y-79599819D01*
X168126547Y-79599819D02*
X168221785Y-79647438D01*
X168221785Y-79647438D02*
X168317023Y-79742676D01*
X168317023Y-79742676D02*
X168364642Y-79933152D01*
X168364642Y-79933152D02*
X168364642Y-80266485D01*
X168364642Y-80266485D02*
X168317023Y-80456961D01*
X168317023Y-80456961D02*
X168221785Y-80552200D01*
X168221785Y-80552200D02*
X168126547Y-80599819D01*
X168126547Y-80599819D02*
X167936071Y-80599819D01*
X168697976Y-79599819D02*
X169317023Y-79599819D01*
X169317023Y-79599819D02*
X168983690Y-79980771D01*
X168983690Y-79980771D02*
X169126547Y-79980771D01*
X169126547Y-79980771D02*
X169221785Y-80028390D01*
X169221785Y-80028390D02*
X169269404Y-80076009D01*
X169269404Y-80076009D02*
X169317023Y-80171247D01*
X169317023Y-80171247D02*
X169317023Y-80409342D01*
X169317023Y-80409342D02*
X169269404Y-80504580D01*
X169269404Y-80504580D02*
X169221785Y-80552200D01*
X169221785Y-80552200D02*
X169126547Y-80599819D01*
X169126547Y-80599819D02*
X168840833Y-80599819D01*
X168840833Y-80599819D02*
X168745595Y-80552200D01*
X168745595Y-80552200D02*
X168697976Y-80504580D01*
X168340833Y-93399819D02*
X168007500Y-92923628D01*
X167769405Y-93399819D02*
X167769405Y-92399819D01*
X167769405Y-92399819D02*
X168150357Y-92399819D01*
X168150357Y-92399819D02*
X168245595Y-92447438D01*
X168245595Y-92447438D02*
X168293214Y-92495057D01*
X168293214Y-92495057D02*
X168340833Y-92590295D01*
X168340833Y-92590295D02*
X168340833Y-92733152D01*
X168340833Y-92733152D02*
X168293214Y-92828390D01*
X168293214Y-92828390D02*
X168245595Y-92876009D01*
X168245595Y-92876009D02*
X168150357Y-92923628D01*
X168150357Y-92923628D02*
X167769405Y-92923628D01*
X168674167Y-92399819D02*
X169293214Y-92399819D01*
X169293214Y-92399819D02*
X168959881Y-92780771D01*
X168959881Y-92780771D02*
X169102738Y-92780771D01*
X169102738Y-92780771D02*
X169197976Y-92828390D01*
X169197976Y-92828390D02*
X169245595Y-92876009D01*
X169245595Y-92876009D02*
X169293214Y-92971247D01*
X169293214Y-92971247D02*
X169293214Y-93209342D01*
X169293214Y-93209342D02*
X169245595Y-93304580D01*
X169245595Y-93304580D02*
X169197976Y-93352200D01*
X169197976Y-93352200D02*
X169102738Y-93399819D01*
X169102738Y-93399819D02*
X168817024Y-93399819D01*
X168817024Y-93399819D02*
X168721786Y-93352200D01*
X168721786Y-93352200D02*
X168674167Y-93304580D01*
X154602142Y-113949819D02*
X154268809Y-113473628D01*
X154030714Y-113949819D02*
X154030714Y-112949819D01*
X154030714Y-112949819D02*
X154411666Y-112949819D01*
X154411666Y-112949819D02*
X154506904Y-112997438D01*
X154506904Y-112997438D02*
X154554523Y-113045057D01*
X154554523Y-113045057D02*
X154602142Y-113140295D01*
X154602142Y-113140295D02*
X154602142Y-113283152D01*
X154602142Y-113283152D02*
X154554523Y-113378390D01*
X154554523Y-113378390D02*
X154506904Y-113426009D01*
X154506904Y-113426009D02*
X154411666Y-113473628D01*
X154411666Y-113473628D02*
X154030714Y-113473628D01*
X155554523Y-113949819D02*
X154983095Y-113949819D01*
X155268809Y-113949819D02*
X155268809Y-112949819D01*
X155268809Y-112949819D02*
X155173571Y-113092676D01*
X155173571Y-113092676D02*
X155078333Y-113187914D01*
X155078333Y-113187914D02*
X154983095Y-113235533D01*
X155887857Y-112949819D02*
X156506904Y-112949819D01*
X156506904Y-112949819D02*
X156173571Y-113330771D01*
X156173571Y-113330771D02*
X156316428Y-113330771D01*
X156316428Y-113330771D02*
X156411666Y-113378390D01*
X156411666Y-113378390D02*
X156459285Y-113426009D01*
X156459285Y-113426009D02*
X156506904Y-113521247D01*
X156506904Y-113521247D02*
X156506904Y-113759342D01*
X156506904Y-113759342D02*
X156459285Y-113854580D01*
X156459285Y-113854580D02*
X156411666Y-113902200D01*
X156411666Y-113902200D02*
X156316428Y-113949819D01*
X156316428Y-113949819D02*
X156030714Y-113949819D01*
X156030714Y-113949819D02*
X155935476Y-113902200D01*
X155935476Y-113902200D02*
X155887857Y-113854580D01*
X152602142Y-98199819D02*
X152268809Y-97723628D01*
X152030714Y-98199819D02*
X152030714Y-97199819D01*
X152030714Y-97199819D02*
X152411666Y-97199819D01*
X152411666Y-97199819D02*
X152506904Y-97247438D01*
X152506904Y-97247438D02*
X152554523Y-97295057D01*
X152554523Y-97295057D02*
X152602142Y-97390295D01*
X152602142Y-97390295D02*
X152602142Y-97533152D01*
X152602142Y-97533152D02*
X152554523Y-97628390D01*
X152554523Y-97628390D02*
X152506904Y-97676009D01*
X152506904Y-97676009D02*
X152411666Y-97723628D01*
X152411666Y-97723628D02*
X152030714Y-97723628D01*
X153554523Y-98199819D02*
X152983095Y-98199819D01*
X153268809Y-98199819D02*
X153268809Y-97199819D01*
X153268809Y-97199819D02*
X153173571Y-97342676D01*
X153173571Y-97342676D02*
X153078333Y-97437914D01*
X153078333Y-97437914D02*
X152983095Y-97485533D01*
X153935476Y-97295057D02*
X153983095Y-97247438D01*
X153983095Y-97247438D02*
X154078333Y-97199819D01*
X154078333Y-97199819D02*
X154316428Y-97199819D01*
X154316428Y-97199819D02*
X154411666Y-97247438D01*
X154411666Y-97247438D02*
X154459285Y-97295057D01*
X154459285Y-97295057D02*
X154506904Y-97390295D01*
X154506904Y-97390295D02*
X154506904Y-97485533D01*
X154506904Y-97485533D02*
X154459285Y-97628390D01*
X154459285Y-97628390D02*
X153887857Y-98199819D01*
X153887857Y-98199819D02*
X154506904Y-98199819D01*
X172703333Y-98199819D02*
X172370000Y-97723628D01*
X172131905Y-98199819D02*
X172131905Y-97199819D01*
X172131905Y-97199819D02*
X172512857Y-97199819D01*
X172512857Y-97199819D02*
X172608095Y-97247438D01*
X172608095Y-97247438D02*
X172655714Y-97295057D01*
X172655714Y-97295057D02*
X172703333Y-97390295D01*
X172703333Y-97390295D02*
X172703333Y-97533152D01*
X172703333Y-97533152D02*
X172655714Y-97628390D01*
X172655714Y-97628390D02*
X172608095Y-97676009D01*
X172608095Y-97676009D02*
X172512857Y-97723628D01*
X172512857Y-97723628D02*
X172131905Y-97723628D01*
X173179524Y-98199819D02*
X173370000Y-98199819D01*
X173370000Y-98199819D02*
X173465238Y-98152200D01*
X173465238Y-98152200D02*
X173512857Y-98104580D01*
X173512857Y-98104580D02*
X173608095Y-97961723D01*
X173608095Y-97961723D02*
X173655714Y-97771247D01*
X173655714Y-97771247D02*
X173655714Y-97390295D01*
X173655714Y-97390295D02*
X173608095Y-97295057D01*
X173608095Y-97295057D02*
X173560476Y-97247438D01*
X173560476Y-97247438D02*
X173465238Y-97199819D01*
X173465238Y-97199819D02*
X173274762Y-97199819D01*
X173274762Y-97199819D02*
X173179524Y-97247438D01*
X173179524Y-97247438D02*
X173131905Y-97295057D01*
X173131905Y-97295057D02*
X173084286Y-97390295D01*
X173084286Y-97390295D02*
X173084286Y-97628390D01*
X173084286Y-97628390D02*
X173131905Y-97723628D01*
X173131905Y-97723628D02*
X173179524Y-97771247D01*
X173179524Y-97771247D02*
X173274762Y-97818866D01*
X173274762Y-97818866D02*
X173465238Y-97818866D01*
X173465238Y-97818866D02*
X173560476Y-97771247D01*
X173560476Y-97771247D02*
X173608095Y-97723628D01*
X173608095Y-97723628D02*
X173655714Y-97628390D01*
X168412261Y-96545057D02*
X168317023Y-96497438D01*
X168317023Y-96497438D02*
X168221785Y-96402200D01*
X168221785Y-96402200D02*
X168078928Y-96259342D01*
X168078928Y-96259342D02*
X167983690Y-96211723D01*
X167983690Y-96211723D02*
X167888452Y-96211723D01*
X167936071Y-96449819D02*
X167840833Y-96402200D01*
X167840833Y-96402200D02*
X167745595Y-96306961D01*
X167745595Y-96306961D02*
X167697976Y-96116485D01*
X167697976Y-96116485D02*
X167697976Y-95783152D01*
X167697976Y-95783152D02*
X167745595Y-95592676D01*
X167745595Y-95592676D02*
X167840833Y-95497438D01*
X167840833Y-95497438D02*
X167936071Y-95449819D01*
X167936071Y-95449819D02*
X168126547Y-95449819D01*
X168126547Y-95449819D02*
X168221785Y-95497438D01*
X168221785Y-95497438D02*
X168317023Y-95592676D01*
X168317023Y-95592676D02*
X168364642Y-95783152D01*
X168364642Y-95783152D02*
X168364642Y-96116485D01*
X168364642Y-96116485D02*
X168317023Y-96306961D01*
X168317023Y-96306961D02*
X168221785Y-96402200D01*
X168221785Y-96402200D02*
X168126547Y-96449819D01*
X168126547Y-96449819D02*
X167936071Y-96449819D01*
X169317023Y-96449819D02*
X168745595Y-96449819D01*
X169031309Y-96449819D02*
X169031309Y-95449819D01*
X169031309Y-95449819D02*
X168936071Y-95592676D01*
X168936071Y-95592676D02*
X168840833Y-95687914D01*
X168840833Y-95687914D02*
X168745595Y-95735533D01*
X172703333Y-84199819D02*
X172370000Y-83723628D01*
X172131905Y-84199819D02*
X172131905Y-83199819D01*
X172131905Y-83199819D02*
X172512857Y-83199819D01*
X172512857Y-83199819D02*
X172608095Y-83247438D01*
X172608095Y-83247438D02*
X172655714Y-83295057D01*
X172655714Y-83295057D02*
X172703333Y-83390295D01*
X172703333Y-83390295D02*
X172703333Y-83533152D01*
X172703333Y-83533152D02*
X172655714Y-83628390D01*
X172655714Y-83628390D02*
X172608095Y-83676009D01*
X172608095Y-83676009D02*
X172512857Y-83723628D01*
X172512857Y-83723628D02*
X172131905Y-83723628D01*
X173274762Y-83628390D02*
X173179524Y-83580771D01*
X173179524Y-83580771D02*
X173131905Y-83533152D01*
X173131905Y-83533152D02*
X173084286Y-83437914D01*
X173084286Y-83437914D02*
X173084286Y-83390295D01*
X173084286Y-83390295D02*
X173131905Y-83295057D01*
X173131905Y-83295057D02*
X173179524Y-83247438D01*
X173179524Y-83247438D02*
X173274762Y-83199819D01*
X173274762Y-83199819D02*
X173465238Y-83199819D01*
X173465238Y-83199819D02*
X173560476Y-83247438D01*
X173560476Y-83247438D02*
X173608095Y-83295057D01*
X173608095Y-83295057D02*
X173655714Y-83390295D01*
X173655714Y-83390295D02*
X173655714Y-83437914D01*
X173655714Y-83437914D02*
X173608095Y-83533152D01*
X173608095Y-83533152D02*
X173560476Y-83580771D01*
X173560476Y-83580771D02*
X173465238Y-83628390D01*
X173465238Y-83628390D02*
X173274762Y-83628390D01*
X173274762Y-83628390D02*
X173179524Y-83676009D01*
X173179524Y-83676009D02*
X173131905Y-83723628D01*
X173131905Y-83723628D02*
X173084286Y-83818866D01*
X173084286Y-83818866D02*
X173084286Y-84009342D01*
X173084286Y-84009342D02*
X173131905Y-84104580D01*
X173131905Y-84104580D02*
X173179524Y-84152200D01*
X173179524Y-84152200D02*
X173274762Y-84199819D01*
X173274762Y-84199819D02*
X173465238Y-84199819D01*
X173465238Y-84199819D02*
X173560476Y-84152200D01*
X173560476Y-84152200D02*
X173608095Y-84104580D01*
X173608095Y-84104580D02*
X173655714Y-84009342D01*
X173655714Y-84009342D02*
X173655714Y-83818866D01*
X173655714Y-83818866D02*
X173608095Y-83723628D01*
X173608095Y-83723628D02*
X173560476Y-83676009D01*
X173560476Y-83676009D02*
X173465238Y-83628390D01*
D12*
X177880000Y-115167936D02*
X177880000Y-115622064D01*
X176410000Y-115167936D02*
X176410000Y-115622064D01*
X182795000Y-112545000D02*
X182795000Y-115595000D01*
X178495000Y-112545000D02*
X178495000Y-115595000D01*
X178495000Y-112545000D02*
G75*
G02*
X182810525Y-112566766I2150000J-1550000D01*
G01*
X182795000Y-115595000D02*
G75*
G02*
X178526751Y-115639513I-2150000J1500000D01*
G01*
X164767936Y-77860000D02*
X165222064Y-77860000D01*
X164767936Y-79330000D02*
X165222064Y-79330000D01*
X153510000Y-86322064D02*
X153510000Y-85867936D01*
X154980000Y-86322064D02*
X154980000Y-85867936D01*
X148810000Y-86622064D02*
X148810000Y-86167936D01*
X150280000Y-86622064D02*
X150280000Y-86167936D01*
X146310000Y-86622064D02*
X146310000Y-86167936D01*
X147780000Y-86622064D02*
X147780000Y-86167936D01*
X143080000Y-67655000D02*
X143080000Y-111095000D01*
X143080000Y-67655000D02*
X148160000Y-67655000D01*
X143080000Y-111095000D02*
X161120000Y-111095000D01*
X145750000Y-70325000D02*
X143080000Y-70325000D01*
X145750000Y-108425000D02*
X143080000Y-108425000D01*
X145750000Y-108425000D02*
X145750000Y-70325000D01*
X148160000Y-65115000D02*
X156040000Y-65115000D01*
X148160000Y-75535000D02*
X148160000Y-65115000D01*
X156040000Y-65115000D02*
X156040000Y-75535000D01*
X156040000Y-75535000D02*
X148160000Y-75535000D01*
X158450000Y-70325000D02*
X161120000Y-70325000D01*
X158450000Y-105885000D02*
X158450000Y-70325000D01*
X158450000Y-105885000D02*
X158450000Y-108425000D01*
X158450000Y-105885000D02*
X161120000Y-105885000D01*
X158450000Y-108425000D02*
X161120000Y-108425000D01*
X161120000Y-67655000D02*
X156040000Y-67655000D01*
X161120000Y-105885000D02*
X161120000Y-67655000D01*
X161120000Y-111095000D02*
X161120000Y-108425000D01*
X164767936Y-86110000D02*
X165222064Y-86110000D01*
X164767936Y-87580000D02*
X165222064Y-87580000D01*
X172642936Y-70660000D02*
X173097064Y-70660000D01*
X172642936Y-72130000D02*
X173097064Y-72130000D01*
X183935000Y-100335000D02*
X183935000Y-107955000D01*
X183935000Y-107955000D02*
X189905000Y-107955000D01*
X184695000Y-104145000D02*
X184695000Y-102155000D01*
X184695000Y-107195000D02*
X184695000Y-104145000D01*
X187645000Y-100345000D02*
X187645000Y-101095000D01*
X187645000Y-101095000D02*
X186305000Y-101095000D01*
X187645000Y-107195000D02*
X184695000Y-107195000D01*
X187645000Y-107945000D02*
X187645000Y-107195000D01*
X189145000Y-100345000D02*
X189145000Y-102145000D01*
X189145000Y-102145000D02*
X189895000Y-102145000D01*
X189145000Y-103645000D02*
X189145000Y-104645000D01*
X189145000Y-104645000D02*
X189895000Y-104645000D01*
X189145000Y-106145000D02*
X189145000Y-107945000D01*
X189145000Y-107945000D02*
X189895000Y-107945000D01*
X189895000Y-100345000D02*
X189145000Y-100345000D01*
X189895000Y-102145000D02*
X189895000Y-100345000D01*
X189895000Y-103645000D02*
X189145000Y-103645000D01*
X189895000Y-104645000D02*
X189895000Y-103645000D01*
X189895000Y-106145000D02*
X189145000Y-106145000D01*
X189895000Y-107945000D02*
X189895000Y-106145000D01*
X189905000Y-100335000D02*
X183935000Y-100335000D01*
X189905000Y-107955000D02*
X189905000Y-100335000D01*
X190195000Y-100045000D02*
X188945000Y-100045000D01*
X190195000Y-101295000D02*
X190195000Y-100045000D01*
X178910000Y-66785000D02*
X181420000Y-66785000D01*
X178910000Y-79005000D02*
X178910000Y-66785000D01*
X178910000Y-79005000D02*
X181420000Y-79005000D01*
X183720000Y-66785000D02*
X186320000Y-66785000D01*
X183720000Y-79005000D02*
X186320000Y-79005000D01*
X188620000Y-66785000D02*
X191130000Y-66785000D01*
X188620000Y-79005000D02*
X191130000Y-79005000D01*
X191130000Y-66785000D02*
X191130000Y-79005000D01*
X165445000Y-89085000D02*
X164795000Y-89085000D01*
X165445000Y-89085000D02*
X166095000Y-89085000D01*
X165445000Y-92205000D02*
X164795000Y-92205000D01*
X165445000Y-92205000D02*
X166095000Y-92205000D01*
X164282500Y-89135000D02*
X164042500Y-88805000D01*
X164522500Y-88805000D01*
X164282500Y-89135000D01*
G36*
X164282500Y-89135000D02*
G01*
X164042500Y-88805000D01*
X164522500Y-88805000D01*
X164282500Y-89135000D01*
G37*
X172642936Y-112660000D02*
X173097064Y-112660000D01*
X172642936Y-114130000D02*
X173097064Y-114130000D01*
X151642936Y-70660000D02*
X152097064Y-70660000D01*
X151642936Y-72130000D02*
X152097064Y-72130000D01*
X187115000Y-84405000D02*
X188445000Y-84405000D01*
X187115000Y-85735000D02*
X187115000Y-84405000D01*
X187115000Y-87005000D02*
X187115000Y-97225000D01*
X187115000Y-87005000D02*
X189775000Y-87005000D01*
X187115000Y-97225000D02*
X189775000Y-97225000D01*
X189775000Y-87005000D02*
X189775000Y-97225000D01*
X165445000Y-80985000D02*
X164795000Y-80985000D01*
X165445000Y-80985000D02*
X166095000Y-80985000D01*
X165445000Y-84105000D02*
X164795000Y-84105000D01*
X165445000Y-84105000D02*
X166095000Y-84105000D01*
X164282500Y-81035000D02*
X164042500Y-80705000D01*
X164522500Y-80705000D01*
X164282500Y-81035000D01*
G36*
X164282500Y-81035000D02*
G01*
X164042500Y-80705000D01*
X164522500Y-80705000D01*
X164282500Y-81035000D01*
G37*
X164767936Y-93860000D02*
X165222064Y-93860000D01*
X164767936Y-95330000D02*
X165222064Y-95330000D01*
X151642936Y-112660000D02*
X152097064Y-112660000D01*
X151642936Y-114130000D02*
X152097064Y-114130000D01*
X153017936Y-98660000D02*
X153472064Y-98660000D01*
X153017936Y-100130000D02*
X153472064Y-100130000D01*
X172642936Y-98660000D02*
X173097064Y-98660000D01*
X172642936Y-100130000D02*
X173097064Y-100130000D01*
X165445000Y-96835000D02*
X164795000Y-96835000D01*
X165445000Y-96835000D02*
X166095000Y-96835000D01*
X165445000Y-99955000D02*
X164795000Y-99955000D01*
X165445000Y-99955000D02*
X166095000Y-99955000D01*
X164282500Y-96885000D02*
X164042500Y-96555000D01*
X164522500Y-96555000D01*
X164282500Y-96885000D01*
G36*
X164282500Y-96885000D02*
G01*
X164042500Y-96555000D01*
X164522500Y-96555000D01*
X164282500Y-96885000D01*
G37*
X172642936Y-84660000D02*
X173097064Y-84660000D01*
X172642936Y-86130000D02*
X173097064Y-86130000D01*
%LPC*%
D13*
X177145000Y-114395000D03*
X177145000Y-116395000D03*
D14*
X180645000Y-112395000D03*
X180645000Y-115795000D03*
D15*
X163995000Y-78595000D03*
X165995000Y-78595000D03*
D16*
X188445000Y-115395000D03*
D17*
X154245000Y-87095000D03*
X154245000Y-85095000D03*
X149545000Y-87395000D03*
X149545000Y-85395000D03*
X147045000Y-87395000D03*
X147045000Y-85395000D03*
D18*
X159720000Y-107155000D03*
D19*
X159720000Y-104615000D03*
X159720000Y-102075000D03*
X159720000Y-99535000D03*
X159720000Y-96995000D03*
X159720000Y-94455000D03*
X159720000Y-91915000D03*
X159720000Y-89375000D03*
X159720000Y-86835000D03*
X159720000Y-84295000D03*
X159720000Y-81755000D03*
X159720000Y-79215000D03*
X159720000Y-76675000D03*
X159720000Y-74135000D03*
X159720000Y-71595000D03*
X144480000Y-71595000D03*
X144480000Y-74135000D03*
X144480000Y-76675000D03*
X144480000Y-79215000D03*
X144480000Y-81755000D03*
X144480000Y-84295000D03*
X144480000Y-86835000D03*
X144480000Y-89375000D03*
X144480000Y-91915000D03*
X144480000Y-94455000D03*
X144480000Y-96995000D03*
X144480000Y-99535000D03*
X144480000Y-102075000D03*
X144480000Y-104615000D03*
X144480000Y-107155000D03*
D16*
X144445000Y-61395000D03*
X188445000Y-61395000D03*
D15*
X163995000Y-86845000D03*
X165995000Y-86845000D03*
X171870000Y-71395000D03*
X173870000Y-71395000D03*
D20*
X185445000Y-101295000D03*
D21*
X187445000Y-102895000D03*
D22*
X187445000Y-105395000D03*
D23*
X180520000Y-72895000D03*
X189520000Y-72895000D03*
D24*
X182520000Y-79145000D03*
X182520000Y-66645000D03*
X187520000Y-79145000D03*
X187520000Y-66645000D03*
D25*
X164507500Y-89695000D03*
X164507500Y-91595000D03*
X166382500Y-90645000D03*
D15*
X171870000Y-113395000D03*
X173870000Y-113395000D03*
X150870000Y-71395000D03*
X152870000Y-71395000D03*
D26*
X188445000Y-85735000D03*
D27*
X188445000Y-88275000D03*
X188445000Y-90815000D03*
X188445000Y-93355000D03*
X188445000Y-95895000D03*
D25*
X164507500Y-81595000D03*
X164507500Y-83495000D03*
X166382500Y-82545000D03*
D15*
X163995000Y-94595000D03*
X165995000Y-94595000D03*
X150870000Y-113395000D03*
X152870000Y-113395000D03*
X152245000Y-99395000D03*
X154245000Y-99395000D03*
X171870000Y-99395000D03*
X173870000Y-99395000D03*
D16*
X144445000Y-115395000D03*
D25*
X164507500Y-97445000D03*
X164507500Y-99345000D03*
X166382500Y-98395000D03*
D15*
X171870000Y-85395000D03*
X173870000Y-85395000D03*
D28*
X150445000Y-94095000D03*
D23*
X152985000Y-94095000D03*
D28*
X171445000Y-94095000D03*
D23*
X173985000Y-94095000D03*
D28*
X171445000Y-108095000D03*
D23*
X173985000Y-108095000D03*
D28*
X150445000Y-80095000D03*
D23*
X152985000Y-80095000D03*
D28*
X150445000Y-108095000D03*
D23*
X152985000Y-108095000D03*
D28*
X171445000Y-66095000D03*
D23*
X173985000Y-66095000D03*
D28*
X171445000Y-80095000D03*
D23*
X173985000Y-80095000D03*
D28*
X150445000Y-66095000D03*
D23*
X152985000Y-66095000D03*
%LPD*%
M02*
