<?xml version="1.0" standalone="no"?>
 <!DOCTYPE svg PUBLIC "-//W3C//DTD SVG 1.1//EN" 
 "http://www.w3.org/Graphics/SVG/1.1/DTD/svg11.dtd"> 
<svg
  xmlns:svg="http://www.w3.org/2000/svg"
  xmlns="http://www.w3.org/2000/svg"
  xmlns:xlink="http://www.w3.org/1999/xlink"
  version="1.1"
  width="297.0022mm" height="210.0072mm" viewBox="0.0000 0.0000 297.0022 210.0072">
<title>SVG Image created as arduino_solar_bikelight_1-F_Mask.svg date 2025/02/08 22:14:27 </title>
  <desc>Image generated by PCBNEW </desc>
<g style="fill:#000000; fill-opacity:1.0000;stroke:#000000; stroke-opacity:1.0000;
stroke-linecap:round; stroke-linejoin:round;"
 transform="translate(0 0) scale(1 1)">
</g>
<g style="fill:#000000; fill-opacity:1.0000; stroke:none;">
<circle cx="149.7450" cy="84.8750" r="0.8000" /> 
</g>
<g style="fill:#000000; fill-opacity:1.0000; stroke:none;">
<circle cx="149.7450" cy="74.7150" r="0.8000" /> 
<circle cx="146.2450" cy="84.8750" r="0.8000" /> 
</g>
<g style="fill:#000000; fill-opacity:1.0000; stroke:none;">
<circle cx="146.2450" cy="74.7150" r="0.8000" /> 
<circle cx="181.4450" cy="61.3950" r="1.6000" /> 
<path style="fill:#000000; fill-opacity:1.0000; stroke:none;fill-rule:evenodd;"
d="M 169.8850,100.3950
169.8850,101.9950
168.2850,101.9950
168.2850,100.3950
Z" /> 
</g>
<g style="fill:#000000; fill-opacity:1.0000; stroke:none;">
<circle cx="169.0850" cy="98.6550" r="0.8000" /> 
<circle cx="169.0850" cy="96.1150" r="0.8000" /> 
<circle cx="169.0850" cy="93.5750" r="0.8000" /> 
<circle cx="169.0850" cy="91.0350" r="0.8000" /> 
<circle cx="169.0850" cy="88.4950" r="0.8000" /> 
<circle cx="169.0850" cy="85.9550" r="0.8000" /> 
<circle cx="169.0850" cy="83.4150" r="0.8000" /> 
<circle cx="169.0850" cy="80.8750" r="0.8000" /> 
<circle cx="169.0850" cy="78.3350" r="0.8000" /> 
<circle cx="169.0850" cy="75.7950" r="0.8000" /> 
<circle cx="169.0850" cy="73.2550" r="0.8000" /> 
<circle cx="169.0850" cy="70.7150" r="0.8000" /> 
<circle cx="169.0850" cy="68.1750" r="0.8000" /> 
<circle cx="169.0850" cy="65.6350" r="0.8000" /> 
<circle cx="153.8450" cy="65.6350" r="0.8000" /> 
<circle cx="153.8450" cy="68.1750" r="0.8000" /> 
<circle cx="153.8450" cy="70.7150" r="0.8000" /> 
<circle cx="153.8450" cy="73.2550" r="0.8000" /> 
<circle cx="153.8450" cy="75.7950" r="0.8000" /> 
<circle cx="153.8450" cy="78.3350" r="0.8000" /> 
<circle cx="153.8450" cy="80.8750" r="0.8000" /> 
<circle cx="153.8450" cy="83.4150" r="0.8000" /> 
<circle cx="153.8450" cy="85.9550" r="0.8000" /> 
<circle cx="153.8450" cy="88.4950" r="0.8000" /> 
<circle cx="153.8450" cy="91.0350" r="0.8000" /> 
<circle cx="153.8450" cy="93.5750" r="0.8000" /> 
<circle cx="153.8450" cy="96.1150" r="0.8000" /> 
<circle cx="153.8450" cy="98.6550" r="0.8000" /> 
<circle cx="153.8450" cy="101.1950" r="0.8000" /> 
<circle cx="144.4450" cy="61.3950" r="1.6000" /> 
</g>
<g style="fill:#000000; fill-opacity:1.0000; stroke:none;">
<circle cx="174.4450" cy="68.3150" r="0.8000" /> 
</g>
<g style="fill:#000000; fill-opacity:1.0000; stroke:none;">
<circle cx="174.4450" cy="78.4750" r="0.8000" /> 
<circle cx="149.8450" cy="68.2950" r="0.6000" /> 
<path style="fill:#000000; fill-opacity:1.0000; stroke:none;fill-rule:evenodd;"
d="M 149.0950,71.0450
149.0760,71.1407
149.0218,71.2218
148.9407,71.2760
148.8450,71.2950
147.6450,71.2950
147.5493,71.2760
147.4682,71.2218
147.4140,71.1407
147.3950,71.0450
147.3950,69.5450
147.4140,69.4493
147.4682,69.3682
147.5493,69.3140
147.6450,69.2950
148.8450,69.2950
148.9407,69.3140
149.0218,69.3682
149.0760,69.4493
149.0950,69.5450
Z" /> 
</g>
<g style="fill:none; 
stroke:#000000; stroke-width:1.7000; stroke-opacity:1; 
stroke-linecap:round; stroke-linejoin:round;">
<path d="M145.7450 70.4450
L145.7450 70.1450
" />
</g>
<g style="fill:#000000; fill-opacity:1.0000; stroke:none;">
<circle cx="144.4450" cy="103.3950" r="1.6000" /> 
<path style="fill:#000000; fill-opacity:1.0000; stroke:none;fill-rule:evenodd;"
d="M 173.4650,81.5600
174.9650,81.5600
174.9650,82.6100
173.4650,82.6100
Z" /> 
</g>
<g style="fill:none; 
stroke:#000000; stroke-width:1.0500; stroke-opacity:1; 
stroke-linecap:round; stroke-linejoin:round;">
<path d="M174.4400 83.3550
L173.9900 83.3550
" />
<path d="M174.4400 84.6250
L173.9900 84.6250
" />
</g>
<g style="fill:#000000; fill-opacity:1.0000; stroke:none;">
<circle cx="179.5150" cy="68.3150" r="0.8000" /> 
</g>
<g style="fill:#000000; fill-opacity:1.0000; stroke:none;">
<circle cx="179.5150" cy="78.4750" r="0.8000" /> 
<path style="fill:#000000; fill-opacity:1.0000; stroke:none;fill-rule:evenodd;"
d="M 178.5950,81.6000
180.0950,81.6000
180.0950,82.6500
178.5950,82.6500
Z" /> 
</g>
<g style="fill:none; 
stroke:#000000; stroke-width:1.0500; stroke-opacity:1; 
stroke-linecap:round; stroke-linejoin:round;">
<path d="M179.5700 83.3950
L179.1200 83.3950
" />
<path d="M179.5700 84.6650
L179.1200 84.6650
" />
</g>
<g style="fill:#000000; fill-opacity:1.0000; stroke:none;">
<circle cx="181.4450" cy="103.3950" r="1.6000" /> 
<path style="fill:#000000; fill-opacity:1.0000; stroke:none;fill-rule:evenodd;"
d="M 177.2950,89.1250
177.2950,90.8250
175.5950,90.8250
175.5950,89.1250
Z" /> 
</g>
<g style="fill:#000000; fill-opacity:1.0000; stroke:none;">
<circle cx="176.4450" cy="92.5150" r="0.8500" /> 
<circle cx="176.4450" cy="95.0550" r="0.8500" /> 
<circle cx="176.4450" cy="97.5950" r="0.8500" /> 
<circle cx="176.4450" cy="100.1350" r="0.8500" /> 
<path style="fill:none; 
stroke:#000000; stroke-width:0.0500; stroke-opacity:1; 
stroke-linecap:round; stroke-linejoin:round;fill:none"
d="M 141.4450,58.3950
184.4450,58.3950
184.4450,106.3950
141.4450,106.3950
Z" /> 
</g> 
</svg>
