%TF.GenerationSoftware,KiCad,Pcbnew,8.0.5*%
%TF.CreationDate,2025-02-09T09:23:53+08:00*%
%TF.ProjectId,arduino_solar_bikelight_1,61726475-696e-46f5-9f73-6f6c61725f62,rev?*%
%TF.SameCoordinates,Original*%
%TF.FileFunction,Drillmap*%
%TF.FilePolarity,Positive*%
%FSLAX45Y45*%
G04 Gerber Fmt 4.5, Leading zero omitted, Abs format (unit mm)*
G04 Created by KiCad (PCBNEW 8.0.5) date 2025-02-09 09:23:53*
%MOMM*%
%LPD*%
G01*
G04 APERTURE LIST*
%ADD10C,0.050000*%
%ADD11C,0.200000*%
%ADD12C,0.120000*%
%ADD13C,0.320000*%
G04 APERTURE END LIST*
D10*
X14144500Y-5839500D02*
X18444500Y-5839500D01*
X18444500Y-10639500D01*
X14144500Y-10639500D01*
X14144500Y-5839500D01*
D11*
D12*
X14924500Y-6769500D02*
X15044500Y-6889500D01*
X15044500Y-6769500D02*
X14924500Y-6889500D01*
D13*
X14604500Y-6139500D02*
G75*
G02*
X14284500Y-6139500I-160000J0D01*
G01*
X14284500Y-6139500D02*
G75*
G02*
X14604500Y-6139500I160000J0D01*
G01*
X14604500Y-10339500D02*
G75*
G02*
X14284500Y-10339500I-160000J0D01*
G01*
X14284500Y-10339500D02*
G75*
G02*
X14604500Y-10339500I160000J0D01*
G01*
X18304500Y-6139500D02*
G75*
G02*
X17984500Y-6139500I-160000J0D01*
G01*
X17984500Y-6139500D02*
G75*
G02*
X18304500Y-6139500I160000J0D01*
G01*
X18304500Y-10339500D02*
G75*
G02*
X17984500Y-10339500I-160000J0D01*
G01*
X17984500Y-10339500D02*
G75*
G02*
X18304500Y-10339500I160000J0D01*
G01*
D11*
X14402777Y-10953484D02*
X14402777Y-10753484D01*
X14402777Y-10753484D02*
X14450396Y-10753484D01*
X14450396Y-10753484D02*
X14478967Y-10763008D01*
X14478967Y-10763008D02*
X14498015Y-10782055D01*
X14498015Y-10782055D02*
X14507539Y-10801103D01*
X14507539Y-10801103D02*
X14517062Y-10839198D01*
X14517062Y-10839198D02*
X14517062Y-10867770D01*
X14517062Y-10867770D02*
X14507539Y-10905865D01*
X14507539Y-10905865D02*
X14498015Y-10924912D01*
X14498015Y-10924912D02*
X14478967Y-10943960D01*
X14478967Y-10943960D02*
X14450396Y-10953484D01*
X14450396Y-10953484D02*
X14402777Y-10953484D01*
X14602777Y-10953484D02*
X14602777Y-10820150D01*
X14602777Y-10858246D02*
X14612301Y-10839198D01*
X14612301Y-10839198D02*
X14621824Y-10829674D01*
X14621824Y-10829674D02*
X14640872Y-10820150D01*
X14640872Y-10820150D02*
X14659920Y-10820150D01*
X14726586Y-10953484D02*
X14726586Y-10820150D01*
X14726586Y-10753484D02*
X14717062Y-10763008D01*
X14717062Y-10763008D02*
X14726586Y-10772531D01*
X14726586Y-10772531D02*
X14736110Y-10763008D01*
X14736110Y-10763008D02*
X14726586Y-10753484D01*
X14726586Y-10753484D02*
X14726586Y-10772531D01*
X14850396Y-10953484D02*
X14831348Y-10943960D01*
X14831348Y-10943960D02*
X14821824Y-10924912D01*
X14821824Y-10924912D02*
X14821824Y-10753484D01*
X14955158Y-10953484D02*
X14936110Y-10943960D01*
X14936110Y-10943960D02*
X14926586Y-10924912D01*
X14926586Y-10924912D02*
X14926586Y-10753484D01*
X15183729Y-10953484D02*
X15183729Y-10753484D01*
X15183729Y-10753484D02*
X15250396Y-10896341D01*
X15250396Y-10896341D02*
X15317062Y-10753484D01*
X15317062Y-10753484D02*
X15317062Y-10953484D01*
X15498015Y-10953484D02*
X15498015Y-10848722D01*
X15498015Y-10848722D02*
X15488491Y-10829674D01*
X15488491Y-10829674D02*
X15469443Y-10820150D01*
X15469443Y-10820150D02*
X15431348Y-10820150D01*
X15431348Y-10820150D02*
X15412301Y-10829674D01*
X15498015Y-10943960D02*
X15478967Y-10953484D01*
X15478967Y-10953484D02*
X15431348Y-10953484D01*
X15431348Y-10953484D02*
X15412301Y-10943960D01*
X15412301Y-10943960D02*
X15402777Y-10924912D01*
X15402777Y-10924912D02*
X15402777Y-10905865D01*
X15402777Y-10905865D02*
X15412301Y-10886817D01*
X15412301Y-10886817D02*
X15431348Y-10877293D01*
X15431348Y-10877293D02*
X15478967Y-10877293D01*
X15478967Y-10877293D02*
X15498015Y-10867770D01*
X15593253Y-10820150D02*
X15593253Y-11020150D01*
X15593253Y-10829674D02*
X15612301Y-10820150D01*
X15612301Y-10820150D02*
X15650396Y-10820150D01*
X15650396Y-10820150D02*
X15669443Y-10829674D01*
X15669443Y-10829674D02*
X15678967Y-10839198D01*
X15678967Y-10839198D02*
X15688491Y-10858246D01*
X15688491Y-10858246D02*
X15688491Y-10915389D01*
X15688491Y-10915389D02*
X15678967Y-10934436D01*
X15678967Y-10934436D02*
X15669443Y-10943960D01*
X15669443Y-10943960D02*
X15650396Y-10953484D01*
X15650396Y-10953484D02*
X15612301Y-10953484D01*
X15612301Y-10953484D02*
X15593253Y-10943960D01*
X15774205Y-10934436D02*
X15783729Y-10943960D01*
X15783729Y-10943960D02*
X15774205Y-10953484D01*
X15774205Y-10953484D02*
X15764682Y-10943960D01*
X15764682Y-10943960D02*
X15774205Y-10934436D01*
X15774205Y-10934436D02*
X15774205Y-10953484D01*
X15774205Y-10829674D02*
X15783729Y-10839198D01*
X15783729Y-10839198D02*
X15774205Y-10848722D01*
X15774205Y-10848722D02*
X15764682Y-10839198D01*
X15764682Y-10839198D02*
X15774205Y-10829674D01*
X15774205Y-10829674D02*
X15774205Y-10848722D01*
D12*
X14022000Y-11222000D02*
X14142000Y-11342000D01*
X14142000Y-11222000D02*
X14022000Y-11342000D01*
D11*
X14507539Y-11373484D02*
X14393253Y-11373484D01*
X14450396Y-11373484D02*
X14450396Y-11173484D01*
X14450396Y-11173484D02*
X14431348Y-11202055D01*
X14431348Y-11202055D02*
X14412301Y-11221103D01*
X14412301Y-11221103D02*
X14393253Y-11230627D01*
X14593253Y-11354436D02*
X14602777Y-11363960D01*
X14602777Y-11363960D02*
X14593253Y-11373484D01*
X14593253Y-11373484D02*
X14583729Y-11363960D01*
X14583729Y-11363960D02*
X14593253Y-11354436D01*
X14593253Y-11354436D02*
X14593253Y-11373484D01*
X14678967Y-11192531D02*
X14688491Y-11183008D01*
X14688491Y-11183008D02*
X14707539Y-11173484D01*
X14707539Y-11173484D02*
X14755158Y-11173484D01*
X14755158Y-11173484D02*
X14774205Y-11183008D01*
X14774205Y-11183008D02*
X14783729Y-11192531D01*
X14783729Y-11192531D02*
X14793253Y-11211579D01*
X14793253Y-11211579D02*
X14793253Y-11230627D01*
X14793253Y-11230627D02*
X14783729Y-11259198D01*
X14783729Y-11259198D02*
X14669443Y-11373484D01*
X14669443Y-11373484D02*
X14793253Y-11373484D01*
X14917062Y-11173484D02*
X14936110Y-11173484D01*
X14936110Y-11173484D02*
X14955158Y-11183008D01*
X14955158Y-11183008D02*
X14964682Y-11192531D01*
X14964682Y-11192531D02*
X14974205Y-11211579D01*
X14974205Y-11211579D02*
X14983729Y-11249674D01*
X14983729Y-11249674D02*
X14983729Y-11297293D01*
X14983729Y-11297293D02*
X14974205Y-11335388D01*
X14974205Y-11335388D02*
X14964682Y-11354436D01*
X14964682Y-11354436D02*
X14955158Y-11363960D01*
X14955158Y-11363960D02*
X14936110Y-11373484D01*
X14936110Y-11373484D02*
X14917062Y-11373484D01*
X14917062Y-11373484D02*
X14898015Y-11363960D01*
X14898015Y-11363960D02*
X14888491Y-11354436D01*
X14888491Y-11354436D02*
X14878967Y-11335388D01*
X14878967Y-11335388D02*
X14869443Y-11297293D01*
X14869443Y-11297293D02*
X14869443Y-11249674D01*
X14869443Y-11249674D02*
X14878967Y-11211579D01*
X14878967Y-11211579D02*
X14888491Y-11192531D01*
X14888491Y-11192531D02*
X14898015Y-11183008D01*
X14898015Y-11183008D02*
X14917062Y-11173484D01*
X15107539Y-11173484D02*
X15126586Y-11173484D01*
X15126586Y-11173484D02*
X15145634Y-11183008D01*
X15145634Y-11183008D02*
X15155158Y-11192531D01*
X15155158Y-11192531D02*
X15164682Y-11211579D01*
X15164682Y-11211579D02*
X15174205Y-11249674D01*
X15174205Y-11249674D02*
X15174205Y-11297293D01*
X15174205Y-11297293D02*
X15164682Y-11335388D01*
X15164682Y-11335388D02*
X15155158Y-11354436D01*
X15155158Y-11354436D02*
X15145634Y-11363960D01*
X15145634Y-11363960D02*
X15126586Y-11373484D01*
X15126586Y-11373484D02*
X15107539Y-11373484D01*
X15107539Y-11373484D02*
X15088491Y-11363960D01*
X15088491Y-11363960D02*
X15078967Y-11354436D01*
X15078967Y-11354436D02*
X15069443Y-11335388D01*
X15069443Y-11335388D02*
X15059920Y-11297293D01*
X15059920Y-11297293D02*
X15059920Y-11249674D01*
X15059920Y-11249674D02*
X15069443Y-11211579D01*
X15069443Y-11211579D02*
X15078967Y-11192531D01*
X15078967Y-11192531D02*
X15088491Y-11183008D01*
X15088491Y-11183008D02*
X15107539Y-11173484D01*
X15259920Y-11373484D02*
X15259920Y-11240150D01*
X15259920Y-11259198D02*
X15269443Y-11249674D01*
X15269443Y-11249674D02*
X15288491Y-11240150D01*
X15288491Y-11240150D02*
X15317063Y-11240150D01*
X15317063Y-11240150D02*
X15336110Y-11249674D01*
X15336110Y-11249674D02*
X15345634Y-11268722D01*
X15345634Y-11268722D02*
X15345634Y-11373484D01*
X15345634Y-11268722D02*
X15355158Y-11249674D01*
X15355158Y-11249674D02*
X15374205Y-11240150D01*
X15374205Y-11240150D02*
X15402777Y-11240150D01*
X15402777Y-11240150D02*
X15421824Y-11249674D01*
X15421824Y-11249674D02*
X15431348Y-11268722D01*
X15431348Y-11268722D02*
X15431348Y-11373484D01*
X15526586Y-11373484D02*
X15526586Y-11240150D01*
X15526586Y-11259198D02*
X15536110Y-11249674D01*
X15536110Y-11249674D02*
X15555158Y-11240150D01*
X15555158Y-11240150D02*
X15583729Y-11240150D01*
X15583729Y-11240150D02*
X15602777Y-11249674D01*
X15602777Y-11249674D02*
X15612301Y-11268722D01*
X15612301Y-11268722D02*
X15612301Y-11373484D01*
X15612301Y-11268722D02*
X15621824Y-11249674D01*
X15621824Y-11249674D02*
X15640872Y-11240150D01*
X15640872Y-11240150D02*
X15669443Y-11240150D01*
X15669443Y-11240150D02*
X15688491Y-11249674D01*
X15688491Y-11249674D02*
X15698015Y-11268722D01*
X15698015Y-11268722D02*
X15698015Y-11373484D01*
X16088491Y-11163960D02*
X15917063Y-11421103D01*
X16345634Y-11173484D02*
X16364682Y-11173484D01*
X16364682Y-11173484D02*
X16383729Y-11183008D01*
X16383729Y-11183008D02*
X16393253Y-11192531D01*
X16393253Y-11192531D02*
X16402777Y-11211579D01*
X16402777Y-11211579D02*
X16412301Y-11249674D01*
X16412301Y-11249674D02*
X16412301Y-11297293D01*
X16412301Y-11297293D02*
X16402777Y-11335388D01*
X16402777Y-11335388D02*
X16393253Y-11354436D01*
X16393253Y-11354436D02*
X16383729Y-11363960D01*
X16383729Y-11363960D02*
X16364682Y-11373484D01*
X16364682Y-11373484D02*
X16345634Y-11373484D01*
X16345634Y-11373484D02*
X16326586Y-11363960D01*
X16326586Y-11363960D02*
X16317063Y-11354436D01*
X16317063Y-11354436D02*
X16307539Y-11335388D01*
X16307539Y-11335388D02*
X16298015Y-11297293D01*
X16298015Y-11297293D02*
X16298015Y-11249674D01*
X16298015Y-11249674D02*
X16307539Y-11211579D01*
X16307539Y-11211579D02*
X16317063Y-11192531D01*
X16317063Y-11192531D02*
X16326586Y-11183008D01*
X16326586Y-11183008D02*
X16345634Y-11173484D01*
X16498015Y-11354436D02*
X16507539Y-11363960D01*
X16507539Y-11363960D02*
X16498015Y-11373484D01*
X16498015Y-11373484D02*
X16488491Y-11363960D01*
X16488491Y-11363960D02*
X16498015Y-11354436D01*
X16498015Y-11354436D02*
X16498015Y-11373484D01*
X16631348Y-11173484D02*
X16650396Y-11173484D01*
X16650396Y-11173484D02*
X16669444Y-11183008D01*
X16669444Y-11183008D02*
X16678967Y-11192531D01*
X16678967Y-11192531D02*
X16688491Y-11211579D01*
X16688491Y-11211579D02*
X16698015Y-11249674D01*
X16698015Y-11249674D02*
X16698015Y-11297293D01*
X16698015Y-11297293D02*
X16688491Y-11335388D01*
X16688491Y-11335388D02*
X16678967Y-11354436D01*
X16678967Y-11354436D02*
X16669444Y-11363960D01*
X16669444Y-11363960D02*
X16650396Y-11373484D01*
X16650396Y-11373484D02*
X16631348Y-11373484D01*
X16631348Y-11373484D02*
X16612301Y-11363960D01*
X16612301Y-11363960D02*
X16602777Y-11354436D01*
X16602777Y-11354436D02*
X16593253Y-11335388D01*
X16593253Y-11335388D02*
X16583729Y-11297293D01*
X16583729Y-11297293D02*
X16583729Y-11249674D01*
X16583729Y-11249674D02*
X16593253Y-11211579D01*
X16593253Y-11211579D02*
X16602777Y-11192531D01*
X16602777Y-11192531D02*
X16612301Y-11183008D01*
X16612301Y-11183008D02*
X16631348Y-11173484D01*
X16869444Y-11240150D02*
X16869444Y-11373484D01*
X16821825Y-11163960D02*
X16774206Y-11306817D01*
X16774206Y-11306817D02*
X16898015Y-11306817D01*
X16955158Y-11173484D02*
X17088491Y-11173484D01*
X17088491Y-11173484D02*
X17002777Y-11373484D01*
X17155158Y-11192531D02*
X17164682Y-11183008D01*
X17164682Y-11183008D02*
X17183729Y-11173484D01*
X17183729Y-11173484D02*
X17231349Y-11173484D01*
X17231349Y-11173484D02*
X17250396Y-11183008D01*
X17250396Y-11183008D02*
X17259920Y-11192531D01*
X17259920Y-11192531D02*
X17269444Y-11211579D01*
X17269444Y-11211579D02*
X17269444Y-11230627D01*
X17269444Y-11230627D02*
X17259920Y-11259198D01*
X17259920Y-11259198D02*
X17145634Y-11373484D01*
X17145634Y-11373484D02*
X17269444Y-11373484D01*
X17345634Y-11173484D02*
X17345634Y-11211579D01*
X17421825Y-11173484D02*
X17421825Y-11211579D01*
X17717063Y-11449674D02*
X17707539Y-11440150D01*
X17707539Y-11440150D02*
X17688491Y-11411579D01*
X17688491Y-11411579D02*
X17678968Y-11392531D01*
X17678968Y-11392531D02*
X17669444Y-11363960D01*
X17669444Y-11363960D02*
X17659920Y-11316341D01*
X17659920Y-11316341D02*
X17659920Y-11278246D01*
X17659920Y-11278246D02*
X17669444Y-11230627D01*
X17669444Y-11230627D02*
X17678968Y-11202055D01*
X17678968Y-11202055D02*
X17688491Y-11183008D01*
X17688491Y-11183008D02*
X17707539Y-11154436D01*
X17707539Y-11154436D02*
X17717063Y-11144912D01*
X17898015Y-11373484D02*
X17783730Y-11373484D01*
X17840872Y-11373484D02*
X17840872Y-11173484D01*
X17840872Y-11173484D02*
X17821825Y-11202055D01*
X17821825Y-11202055D02*
X17802777Y-11221103D01*
X17802777Y-11221103D02*
X17783730Y-11230627D01*
X18136111Y-11373484D02*
X18136111Y-11173484D01*
X18221825Y-11373484D02*
X18221825Y-11268722D01*
X18221825Y-11268722D02*
X18212301Y-11249674D01*
X18212301Y-11249674D02*
X18193253Y-11240150D01*
X18193253Y-11240150D02*
X18164682Y-11240150D01*
X18164682Y-11240150D02*
X18145634Y-11249674D01*
X18145634Y-11249674D02*
X18136111Y-11259198D01*
X18345634Y-11373484D02*
X18326587Y-11363960D01*
X18326587Y-11363960D02*
X18317063Y-11354436D01*
X18317063Y-11354436D02*
X18307539Y-11335388D01*
X18307539Y-11335388D02*
X18307539Y-11278246D01*
X18307539Y-11278246D02*
X18317063Y-11259198D01*
X18317063Y-11259198D02*
X18326587Y-11249674D01*
X18326587Y-11249674D02*
X18345634Y-11240150D01*
X18345634Y-11240150D02*
X18374206Y-11240150D01*
X18374206Y-11240150D02*
X18393253Y-11249674D01*
X18393253Y-11249674D02*
X18402777Y-11259198D01*
X18402777Y-11259198D02*
X18412301Y-11278246D01*
X18412301Y-11278246D02*
X18412301Y-11335388D01*
X18412301Y-11335388D02*
X18402777Y-11354436D01*
X18402777Y-11354436D02*
X18393253Y-11363960D01*
X18393253Y-11363960D02*
X18374206Y-11373484D01*
X18374206Y-11373484D02*
X18345634Y-11373484D01*
X18526587Y-11373484D02*
X18507539Y-11363960D01*
X18507539Y-11363960D02*
X18498015Y-11344912D01*
X18498015Y-11344912D02*
X18498015Y-11173484D01*
X18678968Y-11363960D02*
X18659920Y-11373484D01*
X18659920Y-11373484D02*
X18621825Y-11373484D01*
X18621825Y-11373484D02*
X18602777Y-11363960D01*
X18602777Y-11363960D02*
X18593253Y-11344912D01*
X18593253Y-11344912D02*
X18593253Y-11268722D01*
X18593253Y-11268722D02*
X18602777Y-11249674D01*
X18602777Y-11249674D02*
X18621825Y-11240150D01*
X18621825Y-11240150D02*
X18659920Y-11240150D01*
X18659920Y-11240150D02*
X18678968Y-11249674D01*
X18678968Y-11249674D02*
X18688492Y-11268722D01*
X18688492Y-11268722D02*
X18688492Y-11287769D01*
X18688492Y-11287769D02*
X18593253Y-11306817D01*
X18755158Y-11449674D02*
X18764682Y-11440150D01*
X18764682Y-11440150D02*
X18783730Y-11411579D01*
X18783730Y-11411579D02*
X18793253Y-11392531D01*
X18793253Y-11392531D02*
X18802777Y-11363960D01*
X18802777Y-11363960D02*
X18812301Y-11316341D01*
X18812301Y-11316341D02*
X18812301Y-11278246D01*
X18812301Y-11278246D02*
X18802777Y-11230627D01*
X18802777Y-11230627D02*
X18793253Y-11202055D01*
X18793253Y-11202055D02*
X18783730Y-11183008D01*
X18783730Y-11183008D02*
X18764682Y-11154436D01*
X18764682Y-11154436D02*
X18755158Y-11144912D01*
X19117063Y-11449674D02*
X19107539Y-11440150D01*
X19107539Y-11440150D02*
X19088492Y-11411579D01*
X19088492Y-11411579D02*
X19078968Y-11392531D01*
X19078968Y-11392531D02*
X19069444Y-11363960D01*
X19069444Y-11363960D02*
X19059920Y-11316341D01*
X19059920Y-11316341D02*
X19059920Y-11278246D01*
X19059920Y-11278246D02*
X19069444Y-11230627D01*
X19069444Y-11230627D02*
X19078968Y-11202055D01*
X19078968Y-11202055D02*
X19088492Y-11183008D01*
X19088492Y-11183008D02*
X19107539Y-11154436D01*
X19107539Y-11154436D02*
X19117063Y-11144912D01*
X19193253Y-11240150D02*
X19193253Y-11373484D01*
X19193253Y-11259198D02*
X19202777Y-11249674D01*
X19202777Y-11249674D02*
X19221825Y-11240150D01*
X19221825Y-11240150D02*
X19250396Y-11240150D01*
X19250396Y-11240150D02*
X19269444Y-11249674D01*
X19269444Y-11249674D02*
X19278968Y-11268722D01*
X19278968Y-11268722D02*
X19278968Y-11373484D01*
X19402777Y-11373484D02*
X19383730Y-11363960D01*
X19383730Y-11363960D02*
X19374206Y-11354436D01*
X19374206Y-11354436D02*
X19364682Y-11335388D01*
X19364682Y-11335388D02*
X19364682Y-11278246D01*
X19364682Y-11278246D02*
X19374206Y-11259198D01*
X19374206Y-11259198D02*
X19383730Y-11249674D01*
X19383730Y-11249674D02*
X19402777Y-11240150D01*
X19402777Y-11240150D02*
X19431349Y-11240150D01*
X19431349Y-11240150D02*
X19450396Y-11249674D01*
X19450396Y-11249674D02*
X19459920Y-11259198D01*
X19459920Y-11259198D02*
X19469444Y-11278246D01*
X19469444Y-11278246D02*
X19469444Y-11335388D01*
X19469444Y-11335388D02*
X19459920Y-11354436D01*
X19459920Y-11354436D02*
X19450396Y-11363960D01*
X19450396Y-11363960D02*
X19431349Y-11373484D01*
X19431349Y-11373484D02*
X19402777Y-11373484D01*
X19526587Y-11240150D02*
X19602777Y-11240150D01*
X19555158Y-11173484D02*
X19555158Y-11344912D01*
X19555158Y-11344912D02*
X19564682Y-11363960D01*
X19564682Y-11363960D02*
X19583730Y-11373484D01*
X19583730Y-11373484D02*
X19602777Y-11373484D01*
X19821825Y-11240150D02*
X19821825Y-11440150D01*
X19821825Y-11249674D02*
X19840873Y-11240150D01*
X19840873Y-11240150D02*
X19878968Y-11240150D01*
X19878968Y-11240150D02*
X19898015Y-11249674D01*
X19898015Y-11249674D02*
X19907539Y-11259198D01*
X19907539Y-11259198D02*
X19917063Y-11278246D01*
X19917063Y-11278246D02*
X19917063Y-11335388D01*
X19917063Y-11335388D02*
X19907539Y-11354436D01*
X19907539Y-11354436D02*
X19898015Y-11363960D01*
X19898015Y-11363960D02*
X19878968Y-11373484D01*
X19878968Y-11373484D02*
X19840873Y-11373484D01*
X19840873Y-11373484D02*
X19821825Y-11363960D01*
X20031349Y-11373484D02*
X20012301Y-11363960D01*
X20012301Y-11363960D02*
X20002777Y-11344912D01*
X20002777Y-11344912D02*
X20002777Y-11173484D01*
X20193254Y-11373484D02*
X20193254Y-11268722D01*
X20193254Y-11268722D02*
X20183730Y-11249674D01*
X20183730Y-11249674D02*
X20164682Y-11240150D01*
X20164682Y-11240150D02*
X20126587Y-11240150D01*
X20126587Y-11240150D02*
X20107539Y-11249674D01*
X20193254Y-11363960D02*
X20174206Y-11373484D01*
X20174206Y-11373484D02*
X20126587Y-11373484D01*
X20126587Y-11373484D02*
X20107539Y-11363960D01*
X20107539Y-11363960D02*
X20098015Y-11344912D01*
X20098015Y-11344912D02*
X20098015Y-11325865D01*
X20098015Y-11325865D02*
X20107539Y-11306817D01*
X20107539Y-11306817D02*
X20126587Y-11297293D01*
X20126587Y-11297293D02*
X20174206Y-11297293D01*
X20174206Y-11297293D02*
X20193254Y-11287769D01*
X20259920Y-11240150D02*
X20336111Y-11240150D01*
X20288492Y-11173484D02*
X20288492Y-11344912D01*
X20288492Y-11344912D02*
X20298015Y-11363960D01*
X20298015Y-11363960D02*
X20317063Y-11373484D01*
X20317063Y-11373484D02*
X20336111Y-11373484D01*
X20478968Y-11363960D02*
X20459920Y-11373484D01*
X20459920Y-11373484D02*
X20421825Y-11373484D01*
X20421825Y-11373484D02*
X20402777Y-11363960D01*
X20402777Y-11363960D02*
X20393254Y-11344912D01*
X20393254Y-11344912D02*
X20393254Y-11268722D01*
X20393254Y-11268722D02*
X20402777Y-11249674D01*
X20402777Y-11249674D02*
X20421825Y-11240150D01*
X20421825Y-11240150D02*
X20459920Y-11240150D01*
X20459920Y-11240150D02*
X20478968Y-11249674D01*
X20478968Y-11249674D02*
X20488492Y-11268722D01*
X20488492Y-11268722D02*
X20488492Y-11287769D01*
X20488492Y-11287769D02*
X20393254Y-11306817D01*
X20659920Y-11373484D02*
X20659920Y-11173484D01*
X20659920Y-11363960D02*
X20640873Y-11373484D01*
X20640873Y-11373484D02*
X20602777Y-11373484D01*
X20602777Y-11373484D02*
X20583730Y-11363960D01*
X20583730Y-11363960D02*
X20574206Y-11354436D01*
X20574206Y-11354436D02*
X20564682Y-11335388D01*
X20564682Y-11335388D02*
X20564682Y-11278246D01*
X20564682Y-11278246D02*
X20574206Y-11259198D01*
X20574206Y-11259198D02*
X20583730Y-11249674D01*
X20583730Y-11249674D02*
X20602777Y-11240150D01*
X20602777Y-11240150D02*
X20640873Y-11240150D01*
X20640873Y-11240150D02*
X20659920Y-11249674D01*
X20736111Y-11449674D02*
X20745635Y-11440150D01*
X20745635Y-11440150D02*
X20764682Y-11411579D01*
X20764682Y-11411579D02*
X20774206Y-11392531D01*
X20774206Y-11392531D02*
X20783730Y-11363960D01*
X20783730Y-11363960D02*
X20793254Y-11316341D01*
X20793254Y-11316341D02*
X20793254Y-11278246D01*
X20793254Y-11278246D02*
X20783730Y-11230627D01*
X20783730Y-11230627D02*
X20774206Y-11202055D01*
X20774206Y-11202055D02*
X20764682Y-11183008D01*
X20764682Y-11183008D02*
X20745635Y-11154436D01*
X20745635Y-11154436D02*
X20736111Y-11144912D01*
X14142000Y-11546000D02*
G75*
G02*
X13942000Y-11546000I-100000J0D01*
G01*
X13942000Y-11546000D02*
G75*
G02*
X14142000Y-11546000I100000J0D01*
G01*
X14383729Y-11437484D02*
X14507539Y-11437484D01*
X14507539Y-11437484D02*
X14440872Y-11513674D01*
X14440872Y-11513674D02*
X14469443Y-11513674D01*
X14469443Y-11513674D02*
X14488491Y-11523198D01*
X14488491Y-11523198D02*
X14498015Y-11532722D01*
X14498015Y-11532722D02*
X14507539Y-11551769D01*
X14507539Y-11551769D02*
X14507539Y-11599388D01*
X14507539Y-11599388D02*
X14498015Y-11618436D01*
X14498015Y-11618436D02*
X14488491Y-11627960D01*
X14488491Y-11627960D02*
X14469443Y-11637484D01*
X14469443Y-11637484D02*
X14412301Y-11637484D01*
X14412301Y-11637484D02*
X14393253Y-11627960D01*
X14393253Y-11627960D02*
X14383729Y-11618436D01*
X14593253Y-11618436D02*
X14602777Y-11627960D01*
X14602777Y-11627960D02*
X14593253Y-11637484D01*
X14593253Y-11637484D02*
X14583729Y-11627960D01*
X14583729Y-11627960D02*
X14593253Y-11618436D01*
X14593253Y-11618436D02*
X14593253Y-11637484D01*
X14678967Y-11456531D02*
X14688491Y-11447008D01*
X14688491Y-11447008D02*
X14707539Y-11437484D01*
X14707539Y-11437484D02*
X14755158Y-11437484D01*
X14755158Y-11437484D02*
X14774205Y-11447008D01*
X14774205Y-11447008D02*
X14783729Y-11456531D01*
X14783729Y-11456531D02*
X14793253Y-11475579D01*
X14793253Y-11475579D02*
X14793253Y-11494627D01*
X14793253Y-11494627D02*
X14783729Y-11523198D01*
X14783729Y-11523198D02*
X14669443Y-11637484D01*
X14669443Y-11637484D02*
X14793253Y-11637484D01*
X14917062Y-11437484D02*
X14936110Y-11437484D01*
X14936110Y-11437484D02*
X14955158Y-11447008D01*
X14955158Y-11447008D02*
X14964682Y-11456531D01*
X14964682Y-11456531D02*
X14974205Y-11475579D01*
X14974205Y-11475579D02*
X14983729Y-11513674D01*
X14983729Y-11513674D02*
X14983729Y-11561293D01*
X14983729Y-11561293D02*
X14974205Y-11599388D01*
X14974205Y-11599388D02*
X14964682Y-11618436D01*
X14964682Y-11618436D02*
X14955158Y-11627960D01*
X14955158Y-11627960D02*
X14936110Y-11637484D01*
X14936110Y-11637484D02*
X14917062Y-11637484D01*
X14917062Y-11637484D02*
X14898015Y-11627960D01*
X14898015Y-11627960D02*
X14888491Y-11618436D01*
X14888491Y-11618436D02*
X14878967Y-11599388D01*
X14878967Y-11599388D02*
X14869443Y-11561293D01*
X14869443Y-11561293D02*
X14869443Y-11513674D01*
X14869443Y-11513674D02*
X14878967Y-11475579D01*
X14878967Y-11475579D02*
X14888491Y-11456531D01*
X14888491Y-11456531D02*
X14898015Y-11447008D01*
X14898015Y-11447008D02*
X14917062Y-11437484D01*
X15107539Y-11437484D02*
X15126586Y-11437484D01*
X15126586Y-11437484D02*
X15145634Y-11447008D01*
X15145634Y-11447008D02*
X15155158Y-11456531D01*
X15155158Y-11456531D02*
X15164682Y-11475579D01*
X15164682Y-11475579D02*
X15174205Y-11513674D01*
X15174205Y-11513674D02*
X15174205Y-11561293D01*
X15174205Y-11561293D02*
X15164682Y-11599388D01*
X15164682Y-11599388D02*
X15155158Y-11618436D01*
X15155158Y-11618436D02*
X15145634Y-11627960D01*
X15145634Y-11627960D02*
X15126586Y-11637484D01*
X15126586Y-11637484D02*
X15107539Y-11637484D01*
X15107539Y-11637484D02*
X15088491Y-11627960D01*
X15088491Y-11627960D02*
X15078967Y-11618436D01*
X15078967Y-11618436D02*
X15069443Y-11599388D01*
X15069443Y-11599388D02*
X15059920Y-11561293D01*
X15059920Y-11561293D02*
X15059920Y-11513674D01*
X15059920Y-11513674D02*
X15069443Y-11475579D01*
X15069443Y-11475579D02*
X15078967Y-11456531D01*
X15078967Y-11456531D02*
X15088491Y-11447008D01*
X15088491Y-11447008D02*
X15107539Y-11437484D01*
X15259920Y-11637484D02*
X15259920Y-11504150D01*
X15259920Y-11523198D02*
X15269443Y-11513674D01*
X15269443Y-11513674D02*
X15288491Y-11504150D01*
X15288491Y-11504150D02*
X15317063Y-11504150D01*
X15317063Y-11504150D02*
X15336110Y-11513674D01*
X15336110Y-11513674D02*
X15345634Y-11532722D01*
X15345634Y-11532722D02*
X15345634Y-11637484D01*
X15345634Y-11532722D02*
X15355158Y-11513674D01*
X15355158Y-11513674D02*
X15374205Y-11504150D01*
X15374205Y-11504150D02*
X15402777Y-11504150D01*
X15402777Y-11504150D02*
X15421824Y-11513674D01*
X15421824Y-11513674D02*
X15431348Y-11532722D01*
X15431348Y-11532722D02*
X15431348Y-11637484D01*
X15526586Y-11637484D02*
X15526586Y-11504150D01*
X15526586Y-11523198D02*
X15536110Y-11513674D01*
X15536110Y-11513674D02*
X15555158Y-11504150D01*
X15555158Y-11504150D02*
X15583729Y-11504150D01*
X15583729Y-11504150D02*
X15602777Y-11513674D01*
X15602777Y-11513674D02*
X15612301Y-11532722D01*
X15612301Y-11532722D02*
X15612301Y-11637484D01*
X15612301Y-11532722D02*
X15621824Y-11513674D01*
X15621824Y-11513674D02*
X15640872Y-11504150D01*
X15640872Y-11504150D02*
X15669443Y-11504150D01*
X15669443Y-11504150D02*
X15688491Y-11513674D01*
X15688491Y-11513674D02*
X15698015Y-11532722D01*
X15698015Y-11532722D02*
X15698015Y-11637484D01*
X16088491Y-11427960D02*
X15917063Y-11685103D01*
X16345634Y-11437484D02*
X16364682Y-11437484D01*
X16364682Y-11437484D02*
X16383729Y-11447008D01*
X16383729Y-11447008D02*
X16393253Y-11456531D01*
X16393253Y-11456531D02*
X16402777Y-11475579D01*
X16402777Y-11475579D02*
X16412301Y-11513674D01*
X16412301Y-11513674D02*
X16412301Y-11561293D01*
X16412301Y-11561293D02*
X16402777Y-11599388D01*
X16402777Y-11599388D02*
X16393253Y-11618436D01*
X16393253Y-11618436D02*
X16383729Y-11627960D01*
X16383729Y-11627960D02*
X16364682Y-11637484D01*
X16364682Y-11637484D02*
X16345634Y-11637484D01*
X16345634Y-11637484D02*
X16326586Y-11627960D01*
X16326586Y-11627960D02*
X16317063Y-11618436D01*
X16317063Y-11618436D02*
X16307539Y-11599388D01*
X16307539Y-11599388D02*
X16298015Y-11561293D01*
X16298015Y-11561293D02*
X16298015Y-11513674D01*
X16298015Y-11513674D02*
X16307539Y-11475579D01*
X16307539Y-11475579D02*
X16317063Y-11456531D01*
X16317063Y-11456531D02*
X16326586Y-11447008D01*
X16326586Y-11447008D02*
X16345634Y-11437484D01*
X16498015Y-11618436D02*
X16507539Y-11627960D01*
X16507539Y-11627960D02*
X16498015Y-11637484D01*
X16498015Y-11637484D02*
X16488491Y-11627960D01*
X16488491Y-11627960D02*
X16498015Y-11618436D01*
X16498015Y-11618436D02*
X16498015Y-11637484D01*
X16698015Y-11637484D02*
X16583729Y-11637484D01*
X16640872Y-11637484D02*
X16640872Y-11437484D01*
X16640872Y-11437484D02*
X16621825Y-11466055D01*
X16621825Y-11466055D02*
X16602777Y-11485103D01*
X16602777Y-11485103D02*
X16583729Y-11494627D01*
X16774206Y-11456531D02*
X16783729Y-11447008D01*
X16783729Y-11447008D02*
X16802777Y-11437484D01*
X16802777Y-11437484D02*
X16850396Y-11437484D01*
X16850396Y-11437484D02*
X16869444Y-11447008D01*
X16869444Y-11447008D02*
X16878968Y-11456531D01*
X16878968Y-11456531D02*
X16888491Y-11475579D01*
X16888491Y-11475579D02*
X16888491Y-11494627D01*
X16888491Y-11494627D02*
X16878968Y-11523198D01*
X16878968Y-11523198D02*
X16764682Y-11637484D01*
X16764682Y-11637484D02*
X16888491Y-11637484D01*
X17059920Y-11437484D02*
X17021825Y-11437484D01*
X17021825Y-11437484D02*
X17002777Y-11447008D01*
X17002777Y-11447008D02*
X16993253Y-11456531D01*
X16993253Y-11456531D02*
X16974206Y-11485103D01*
X16974206Y-11485103D02*
X16964682Y-11523198D01*
X16964682Y-11523198D02*
X16964682Y-11599388D01*
X16964682Y-11599388D02*
X16974206Y-11618436D01*
X16974206Y-11618436D02*
X16983729Y-11627960D01*
X16983729Y-11627960D02*
X17002777Y-11637484D01*
X17002777Y-11637484D02*
X17040872Y-11637484D01*
X17040872Y-11637484D02*
X17059920Y-11627960D01*
X17059920Y-11627960D02*
X17069444Y-11618436D01*
X17069444Y-11618436D02*
X17078968Y-11599388D01*
X17078968Y-11599388D02*
X17078968Y-11551769D01*
X17078968Y-11551769D02*
X17069444Y-11532722D01*
X17069444Y-11532722D02*
X17059920Y-11523198D01*
X17059920Y-11523198D02*
X17040872Y-11513674D01*
X17040872Y-11513674D02*
X17002777Y-11513674D01*
X17002777Y-11513674D02*
X16983729Y-11523198D01*
X16983729Y-11523198D02*
X16974206Y-11532722D01*
X16974206Y-11532722D02*
X16964682Y-11551769D01*
X17202777Y-11437484D02*
X17221825Y-11437484D01*
X17221825Y-11437484D02*
X17240872Y-11447008D01*
X17240872Y-11447008D02*
X17250396Y-11456531D01*
X17250396Y-11456531D02*
X17259920Y-11475579D01*
X17259920Y-11475579D02*
X17269444Y-11513674D01*
X17269444Y-11513674D02*
X17269444Y-11561293D01*
X17269444Y-11561293D02*
X17259920Y-11599388D01*
X17259920Y-11599388D02*
X17250396Y-11618436D01*
X17250396Y-11618436D02*
X17240872Y-11627960D01*
X17240872Y-11627960D02*
X17221825Y-11637484D01*
X17221825Y-11637484D02*
X17202777Y-11637484D01*
X17202777Y-11637484D02*
X17183729Y-11627960D01*
X17183729Y-11627960D02*
X17174206Y-11618436D01*
X17174206Y-11618436D02*
X17164682Y-11599388D01*
X17164682Y-11599388D02*
X17155158Y-11561293D01*
X17155158Y-11561293D02*
X17155158Y-11513674D01*
X17155158Y-11513674D02*
X17164682Y-11475579D01*
X17164682Y-11475579D02*
X17174206Y-11456531D01*
X17174206Y-11456531D02*
X17183729Y-11447008D01*
X17183729Y-11447008D02*
X17202777Y-11437484D01*
X17345634Y-11437484D02*
X17345634Y-11475579D01*
X17421825Y-11437484D02*
X17421825Y-11475579D01*
X17717063Y-11713674D02*
X17707539Y-11704150D01*
X17707539Y-11704150D02*
X17688491Y-11675579D01*
X17688491Y-11675579D02*
X17678968Y-11656531D01*
X17678968Y-11656531D02*
X17669444Y-11627960D01*
X17669444Y-11627960D02*
X17659920Y-11580341D01*
X17659920Y-11580341D02*
X17659920Y-11542246D01*
X17659920Y-11542246D02*
X17669444Y-11494627D01*
X17669444Y-11494627D02*
X17678968Y-11466055D01*
X17678968Y-11466055D02*
X17688491Y-11447008D01*
X17688491Y-11447008D02*
X17707539Y-11418436D01*
X17707539Y-11418436D02*
X17717063Y-11408912D01*
X17878968Y-11504150D02*
X17878968Y-11637484D01*
X17831349Y-11427960D02*
X17783730Y-11570817D01*
X17783730Y-11570817D02*
X17907539Y-11570817D01*
X18136111Y-11637484D02*
X18136111Y-11437484D01*
X18221825Y-11637484D02*
X18221825Y-11532722D01*
X18221825Y-11532722D02*
X18212301Y-11513674D01*
X18212301Y-11513674D02*
X18193253Y-11504150D01*
X18193253Y-11504150D02*
X18164682Y-11504150D01*
X18164682Y-11504150D02*
X18145634Y-11513674D01*
X18145634Y-11513674D02*
X18136111Y-11523198D01*
X18345634Y-11637484D02*
X18326587Y-11627960D01*
X18326587Y-11627960D02*
X18317063Y-11618436D01*
X18317063Y-11618436D02*
X18307539Y-11599388D01*
X18307539Y-11599388D02*
X18307539Y-11542246D01*
X18307539Y-11542246D02*
X18317063Y-11523198D01*
X18317063Y-11523198D02*
X18326587Y-11513674D01*
X18326587Y-11513674D02*
X18345634Y-11504150D01*
X18345634Y-11504150D02*
X18374206Y-11504150D01*
X18374206Y-11504150D02*
X18393253Y-11513674D01*
X18393253Y-11513674D02*
X18402777Y-11523198D01*
X18402777Y-11523198D02*
X18412301Y-11542246D01*
X18412301Y-11542246D02*
X18412301Y-11599388D01*
X18412301Y-11599388D02*
X18402777Y-11618436D01*
X18402777Y-11618436D02*
X18393253Y-11627960D01*
X18393253Y-11627960D02*
X18374206Y-11637484D01*
X18374206Y-11637484D02*
X18345634Y-11637484D01*
X18526587Y-11637484D02*
X18507539Y-11627960D01*
X18507539Y-11627960D02*
X18498015Y-11608912D01*
X18498015Y-11608912D02*
X18498015Y-11437484D01*
X18678968Y-11627960D02*
X18659920Y-11637484D01*
X18659920Y-11637484D02*
X18621825Y-11637484D01*
X18621825Y-11637484D02*
X18602777Y-11627960D01*
X18602777Y-11627960D02*
X18593253Y-11608912D01*
X18593253Y-11608912D02*
X18593253Y-11532722D01*
X18593253Y-11532722D02*
X18602777Y-11513674D01*
X18602777Y-11513674D02*
X18621825Y-11504150D01*
X18621825Y-11504150D02*
X18659920Y-11504150D01*
X18659920Y-11504150D02*
X18678968Y-11513674D01*
X18678968Y-11513674D02*
X18688492Y-11532722D01*
X18688492Y-11532722D02*
X18688492Y-11551769D01*
X18688492Y-11551769D02*
X18593253Y-11570817D01*
X18764682Y-11627960D02*
X18783730Y-11637484D01*
X18783730Y-11637484D02*
X18821825Y-11637484D01*
X18821825Y-11637484D02*
X18840873Y-11627960D01*
X18840873Y-11627960D02*
X18850396Y-11608912D01*
X18850396Y-11608912D02*
X18850396Y-11599388D01*
X18850396Y-11599388D02*
X18840873Y-11580341D01*
X18840873Y-11580341D02*
X18821825Y-11570817D01*
X18821825Y-11570817D02*
X18793253Y-11570817D01*
X18793253Y-11570817D02*
X18774206Y-11561293D01*
X18774206Y-11561293D02*
X18764682Y-11542246D01*
X18764682Y-11542246D02*
X18764682Y-11532722D01*
X18764682Y-11532722D02*
X18774206Y-11513674D01*
X18774206Y-11513674D02*
X18793253Y-11504150D01*
X18793253Y-11504150D02*
X18821825Y-11504150D01*
X18821825Y-11504150D02*
X18840873Y-11513674D01*
X18917063Y-11713674D02*
X18926587Y-11704150D01*
X18926587Y-11704150D02*
X18945634Y-11675579D01*
X18945634Y-11675579D02*
X18955158Y-11656531D01*
X18955158Y-11656531D02*
X18964682Y-11627960D01*
X18964682Y-11627960D02*
X18974206Y-11580341D01*
X18974206Y-11580341D02*
X18974206Y-11542246D01*
X18974206Y-11542246D02*
X18964682Y-11494627D01*
X18964682Y-11494627D02*
X18955158Y-11466055D01*
X18955158Y-11466055D02*
X18945634Y-11447008D01*
X18945634Y-11447008D02*
X18926587Y-11418436D01*
X18926587Y-11418436D02*
X18917063Y-11408912D01*
X19278968Y-11713674D02*
X19269444Y-11704150D01*
X19269444Y-11704150D02*
X19250396Y-11675579D01*
X19250396Y-11675579D02*
X19240873Y-11656531D01*
X19240873Y-11656531D02*
X19231349Y-11627960D01*
X19231349Y-11627960D02*
X19221825Y-11580341D01*
X19221825Y-11580341D02*
X19221825Y-11542246D01*
X19221825Y-11542246D02*
X19231349Y-11494627D01*
X19231349Y-11494627D02*
X19240873Y-11466055D01*
X19240873Y-11466055D02*
X19250396Y-11447008D01*
X19250396Y-11447008D02*
X19269444Y-11418436D01*
X19269444Y-11418436D02*
X19278968Y-11408912D01*
X19355158Y-11504150D02*
X19355158Y-11637484D01*
X19355158Y-11523198D02*
X19364682Y-11513674D01*
X19364682Y-11513674D02*
X19383730Y-11504150D01*
X19383730Y-11504150D02*
X19412301Y-11504150D01*
X19412301Y-11504150D02*
X19431349Y-11513674D01*
X19431349Y-11513674D02*
X19440873Y-11532722D01*
X19440873Y-11532722D02*
X19440873Y-11637484D01*
X19564682Y-11637484D02*
X19545634Y-11627960D01*
X19545634Y-11627960D02*
X19536111Y-11618436D01*
X19536111Y-11618436D02*
X19526587Y-11599388D01*
X19526587Y-11599388D02*
X19526587Y-11542246D01*
X19526587Y-11542246D02*
X19536111Y-11523198D01*
X19536111Y-11523198D02*
X19545634Y-11513674D01*
X19545634Y-11513674D02*
X19564682Y-11504150D01*
X19564682Y-11504150D02*
X19593254Y-11504150D01*
X19593254Y-11504150D02*
X19612301Y-11513674D01*
X19612301Y-11513674D02*
X19621825Y-11523198D01*
X19621825Y-11523198D02*
X19631349Y-11542246D01*
X19631349Y-11542246D02*
X19631349Y-11599388D01*
X19631349Y-11599388D02*
X19621825Y-11618436D01*
X19621825Y-11618436D02*
X19612301Y-11627960D01*
X19612301Y-11627960D02*
X19593254Y-11637484D01*
X19593254Y-11637484D02*
X19564682Y-11637484D01*
X19688492Y-11504150D02*
X19764682Y-11504150D01*
X19717063Y-11437484D02*
X19717063Y-11608912D01*
X19717063Y-11608912D02*
X19726587Y-11627960D01*
X19726587Y-11627960D02*
X19745634Y-11637484D01*
X19745634Y-11637484D02*
X19764682Y-11637484D01*
X19983730Y-11504150D02*
X19983730Y-11704150D01*
X19983730Y-11513674D02*
X20002777Y-11504150D01*
X20002777Y-11504150D02*
X20040873Y-11504150D01*
X20040873Y-11504150D02*
X20059920Y-11513674D01*
X20059920Y-11513674D02*
X20069444Y-11523198D01*
X20069444Y-11523198D02*
X20078968Y-11542246D01*
X20078968Y-11542246D02*
X20078968Y-11599388D01*
X20078968Y-11599388D02*
X20069444Y-11618436D01*
X20069444Y-11618436D02*
X20059920Y-11627960D01*
X20059920Y-11627960D02*
X20040873Y-11637484D01*
X20040873Y-11637484D02*
X20002777Y-11637484D01*
X20002777Y-11637484D02*
X19983730Y-11627960D01*
X20193254Y-11637484D02*
X20174206Y-11627960D01*
X20174206Y-11627960D02*
X20164682Y-11608912D01*
X20164682Y-11608912D02*
X20164682Y-11437484D01*
X20355158Y-11637484D02*
X20355158Y-11532722D01*
X20355158Y-11532722D02*
X20345635Y-11513674D01*
X20345635Y-11513674D02*
X20326587Y-11504150D01*
X20326587Y-11504150D02*
X20288492Y-11504150D01*
X20288492Y-11504150D02*
X20269444Y-11513674D01*
X20355158Y-11627960D02*
X20336111Y-11637484D01*
X20336111Y-11637484D02*
X20288492Y-11637484D01*
X20288492Y-11637484D02*
X20269444Y-11627960D01*
X20269444Y-11627960D02*
X20259920Y-11608912D01*
X20259920Y-11608912D02*
X20259920Y-11589865D01*
X20259920Y-11589865D02*
X20269444Y-11570817D01*
X20269444Y-11570817D02*
X20288492Y-11561293D01*
X20288492Y-11561293D02*
X20336111Y-11561293D01*
X20336111Y-11561293D02*
X20355158Y-11551769D01*
X20421825Y-11504150D02*
X20498015Y-11504150D01*
X20450396Y-11437484D02*
X20450396Y-11608912D01*
X20450396Y-11608912D02*
X20459920Y-11627960D01*
X20459920Y-11627960D02*
X20478968Y-11637484D01*
X20478968Y-11637484D02*
X20498015Y-11637484D01*
X20640873Y-11627960D02*
X20621825Y-11637484D01*
X20621825Y-11637484D02*
X20583730Y-11637484D01*
X20583730Y-11637484D02*
X20564682Y-11627960D01*
X20564682Y-11627960D02*
X20555158Y-11608912D01*
X20555158Y-11608912D02*
X20555158Y-11532722D01*
X20555158Y-11532722D02*
X20564682Y-11513674D01*
X20564682Y-11513674D02*
X20583730Y-11504150D01*
X20583730Y-11504150D02*
X20621825Y-11504150D01*
X20621825Y-11504150D02*
X20640873Y-11513674D01*
X20640873Y-11513674D02*
X20650396Y-11532722D01*
X20650396Y-11532722D02*
X20650396Y-11551769D01*
X20650396Y-11551769D02*
X20555158Y-11570817D01*
X20821825Y-11637484D02*
X20821825Y-11437484D01*
X20821825Y-11627960D02*
X20802777Y-11637484D01*
X20802777Y-11637484D02*
X20764682Y-11637484D01*
X20764682Y-11637484D02*
X20745635Y-11627960D01*
X20745635Y-11627960D02*
X20736111Y-11618436D01*
X20736111Y-11618436D02*
X20726587Y-11599388D01*
X20726587Y-11599388D02*
X20726587Y-11542246D01*
X20726587Y-11542246D02*
X20736111Y-11523198D01*
X20736111Y-11523198D02*
X20745635Y-11513674D01*
X20745635Y-11513674D02*
X20764682Y-11504150D01*
X20764682Y-11504150D02*
X20802777Y-11504150D01*
X20802777Y-11504150D02*
X20821825Y-11513674D01*
X20898016Y-11713674D02*
X20907539Y-11704150D01*
X20907539Y-11704150D02*
X20926587Y-11675579D01*
X20926587Y-11675579D02*
X20936111Y-11656531D01*
X20936111Y-11656531D02*
X20945635Y-11627960D01*
X20945635Y-11627960D02*
X20955158Y-11580341D01*
X20955158Y-11580341D02*
X20955158Y-11542246D01*
X20955158Y-11542246D02*
X20945635Y-11494627D01*
X20945635Y-11494627D02*
X20936111Y-11466055D01*
X20936111Y-11466055D02*
X20926587Y-11447008D01*
X20926587Y-11447008D02*
X20907539Y-11418436D01*
X20907539Y-11418436D02*
X20898016Y-11408912D01*
M02*
