<?xml version="1.0" standalone="no"?>
 <!DOCTYPE svg PUBLIC "-//W3C//DTD SVG 1.1//EN" 
 "http://www.w3.org/Graphics/SVG/1.1/DTD/svg11.dtd"> 
<svg
  xmlns:svg="http://www.w3.org/2000/svg"
  xmlns="http://www.w3.org/2000/svg"
  xmlns:xlink="http://www.w3.org/1999/xlink"
  version="1.1"
  width="297.0022mm" height="210.0072mm" viewBox="0.0000 0.0000 297.0022 210.0072">
<title>SVG Image created as arduino_solar_bikelight_1-F_Silkscreen.svg date 2025/02/08 22:14:27 </title>
  <desc>Image generated by PCBNEW </desc>
<g style="fill:#000000; fill-opacity:1.0000;stroke:#000000; stroke-opacity:1.0000;
stroke-linecap:round; stroke-linejoin:round;"
 transform="translate(0 0) scale(1 1)">
</g>
<g style="fill:none; 
stroke:#000000; stroke-width:0.1000; stroke-opacity:1; 
stroke-linecap:round; stroke-linejoin:round;">
<text x="143.4450" y="66.3950"
textLength="5.3857" font-size="1.3333" lengthAdjust="spacingAndGlyphs"
text-anchor="start" opacity="0" stroke-opacity="0">Battery</text>
<g class="stroked-text"><desc>Battery</desc>
<path d="M144.0822 65.7436
L144.2251 65.7912
" />
<path d="M144.2251 65.7912
L144.2727 65.8388
" />
<path d="M144.2727 65.8388
L144.3203 65.9341
" />
<path d="M144.3203 65.9341
L144.3203 66.0769
" />
<path d="M144.3203 66.0769
L144.2727 66.1722
" />
<path d="M144.2727 66.1722
L144.2251 66.2198
" />
<path d="M144.2251 66.2198
L144.1298 66.2674
" />
<path d="M144.1298 66.2674
L143.7489 66.2674
" />
<path d="M143.7489 66.2674
L143.7489 65.2674
" />
<path d="M143.7489 65.2674
L144.0822 65.2674
" />
<path d="M144.0822 65.2674
L144.1775 65.3150
" />
<path d="M144.1775 65.3150
L144.2251 65.3627
" />
<path d="M144.2251 65.3627
L144.2727 65.4579
" />
<path d="M144.2727 65.4579
L144.2727 65.5531
" />
<path d="M144.2727 65.5531
L144.2251 65.6484
" />
<path d="M144.2251 65.6484
L144.1775 65.6960
" />
<path d="M144.1775 65.6960
L144.0822 65.7436
" />
<path d="M144.0822 65.7436
L143.7489 65.7436
" />
<path d="M145.1775 66.2674
L145.1775 65.7436
" />
<path d="M145.1775 65.7436
L145.1298 65.6484
" />
<path d="M145.1298 65.6484
L145.0346 65.6008
" />
<path d="M145.0346 65.6008
L144.8441 65.6008
" />
<path d="M144.8441 65.6008
L144.7489 65.6484
" />
<path d="M145.1775 66.2198
L145.0822 66.2674
" />
<path d="M145.0822 66.2674
L144.8441 66.2674
" />
<path d="M144.8441 66.2674
L144.7489 66.2198
" />
<path d="M144.7489 66.2198
L144.7013 66.1246
" />
<path d="M144.7013 66.1246
L144.7013 66.0293
" />
<path d="M144.7013 66.0293
L144.7489 65.9341
" />
<path d="M144.7489 65.9341
L144.8441 65.8865
" />
<path d="M144.8441 65.8865
L145.0822 65.8865
" />
<path d="M145.0822 65.8865
L145.1775 65.8388
" />
<path d="M145.5108 65.6008
L145.8917 65.6008
" />
<path d="M145.6536 65.2674
L145.6536 66.1246
" />
<path d="M145.6536 66.1246
L145.7013 66.2198
" />
<path d="M145.7013 66.2198
L145.7965 66.2674
" />
<path d="M145.7965 66.2674
L145.8917 66.2674
" />
<path d="M146.0822 65.6008
L146.4632 65.6008
" />
<path d="M146.2251 65.2674
L146.2251 66.1246
" />
<path d="M146.2251 66.1246
L146.2727 66.2198
" />
<path d="M146.2727 66.2198
L146.3679 66.2674
" />
<path d="M146.3679 66.2674
L146.4632 66.2674
" />
<path d="M147.1775 66.2198
L147.0822 66.2674
" />
<path d="M147.0822 66.2674
L146.8917 66.2674
" />
<path d="M146.8917 66.2674
L146.7965 66.2198
" />
<path d="M146.7965 66.2198
L146.7489 66.1246
" />
<path d="M146.7489 66.1246
L146.7489 65.7436
" />
<path d="M146.7489 65.7436
L146.7965 65.6484
" />
<path d="M146.7965 65.6484
L146.8917 65.6008
" />
<path d="M146.8917 65.6008
L147.0822 65.6008
" />
<path d="M147.0822 65.6008
L147.1775 65.6484
" />
<path d="M147.1775 65.6484
L147.2251 65.7436
" />
<path d="M147.2251 65.7436
L147.2251 65.8388
" />
<path d="M147.2251 65.8388
L146.7489 65.9341
" />
<path d="M147.6536 66.2674
L147.6536 65.6008
" />
<path d="M147.6536 65.7912
L147.7013 65.6960
" />
<path d="M147.7013 65.6960
L147.7489 65.6484
" />
<path d="M147.7489 65.6484
L147.8441 65.6008
" />
<path d="M147.8441 65.6008
L147.9394 65.6008
" />
<path d="M148.1775 65.6008
L148.4156 66.2674
" />
<path d="M148.6536 65.6008
L148.4156 66.2674
" />
<path d="M148.4156 66.2674
L148.3203 66.5055
" />
<path d="M148.3203 66.5055
L148.2727 66.5531
" />
<path d="M148.2727 66.5531
L148.1775 66.6008
" />
</g><g transform="rotate(-180.000000 138.4600 88.2950)">
<text x="138.4600" y="88.2950"
textLength="3.9095" font-size="1.3333" lengthAdjust="spacingAndGlyphs"
text-anchor="start" opacity="0" stroke-opacity="0">5VDC</text>
</g>
<g class="stroked-text"><desc>5VDC</desc>
<path d="M137.6799 89.4226
L138.1561 89.4226
" />
<path d="M138.1561 89.4226
L138.2037 88.9464
" />
<path d="M138.2037 88.9464
L138.1561 88.9940
" />
<path d="M138.1561 88.9940
L138.0609 89.0416
" />
<path d="M138.0609 89.0416
L137.8228 89.0416
" />
<path d="M137.8228 89.0416
L137.7275 88.9940
" />
<path d="M137.7275 88.9940
L137.6799 88.9464
" />
<path d="M137.6799 88.9464
L137.6323 88.8512
" />
<path d="M137.6323 88.8512
L137.6323 88.6131
" />
<path d="M137.6323 88.6131
L137.6799 88.5178
" />
<path d="M137.6799 88.5178
L137.7275 88.4702
" />
<path d="M137.7275 88.4702
L137.8228 88.4226
" />
<path d="M137.8228 88.4226
L138.0609 88.4226
" />
<path d="M138.0609 88.4226
L138.1561 88.4702
" />
<path d="M138.1561 88.4702
L138.2037 88.5178
" />
<path d="M137.3466 89.4226
L137.0133 88.4226
" />
<path d="M137.0133 88.4226
L136.6799 89.4226
" />
<path d="M136.3466 88.4226
L136.3466 89.4226
" />
<path d="M136.3466 89.4226
L136.1085 89.4226
" />
<path d="M136.1085 89.4226
L135.9656 89.3750
" />
<path d="M135.9656 89.3750
L135.8704 89.2797
" />
<path d="M135.8704 89.2797
L135.8228 89.1845
" />
<path d="M135.8228 89.1845
L135.7752 88.9940
" />
<path d="M135.7752 88.9940
L135.7752 88.8512
" />
<path d="M135.7752 88.8512
L135.8228 88.6607
" />
<path d="M135.8228 88.6607
L135.8704 88.5654
" />
<path d="M135.8704 88.5654
L135.9656 88.4702
" />
<path d="M135.9656 88.4702
L136.1085 88.4226
" />
<path d="M136.1085 88.4226
L136.3466 88.4226
" />
<path d="M134.7752 88.5178
L134.8228 88.4702
" />
<path d="M134.8228 88.4702
L134.9656 88.4226
" />
<path d="M134.9656 88.4226
L135.0609 88.4226
" />
<path d="M135.0609 88.4226
L135.2037 88.4702
" />
<path d="M135.2037 88.4702
L135.2990 88.5654
" />
<path d="M135.2990 88.5654
L135.3466 88.6607
" />
<path d="M135.3466 88.6607
L135.3942 88.8512
" />
<path d="M135.3942 88.8512
L135.3942 88.9940
" />
<path d="M135.3942 88.9940
L135.3466 89.1845
" />
<path d="M135.3466 89.1845
L135.2990 89.2797
" />
<path d="M135.2990 89.2797
L135.2037 89.3750
" />
<path d="M135.2037 89.3750
L135.0609 89.4226
" />
<path d="M135.0609 89.4226
L134.9656 89.4226
" />
<path d="M134.9656 89.4226
L134.8228 89.3750
" />
<path d="M134.8228 89.3750
L134.7752 89.3273
" />
</g></g>
<g style="fill:none; 
stroke:#000000; stroke-width:0.1500; stroke-opacity:1; 
stroke-linecap:round; stroke-linejoin:round;">
<g transform="rotate(-90.000000 147.3750 79.7950)">
<text x="147.3750" y="80.2950"
textLength="2.2024" font-size="1.3333" lengthAdjust="spacingAndGlyphs"
text-anchor="middle" opacity="0" stroke-opacity="0">R1</text>
</g>
<g class="stroked-text"><desc>R1</desc>
<path d="M147.8298 79.9617
L147.3536 80.2950
" />
<path d="M147.8298 80.5331
L146.8298 80.5331
" />
<path d="M146.8298 80.5331
L146.8298 80.1521
" />
<path d="M146.8298 80.1521
L146.8774 80.0569
" />
<path d="M146.8774 80.0569
L146.9251 80.0093
" />
<path d="M146.9251 80.0093
L147.0203 79.9617
" />
<path d="M147.0203 79.9617
L147.1632 79.9617
" />
<path d="M147.1632 79.9617
L147.2584 80.0093
" />
<path d="M147.2584 80.0093
L147.3060 80.0569
" />
<path d="M147.3060 80.0569
L147.3536 80.1521
" />
<path d="M147.3536 80.1521
L147.3536 80.5331
" />
<path d="M147.8298 79.0093
L147.8298 79.5807
" />
<path d="M147.8298 79.2950
L146.8298 79.2950
" />
<path d="M146.8298 79.2950
L146.9727 79.3902
" />
<path d="M146.9727 79.3902
L147.0679 79.4855
" />
<path d="M147.0679 79.4855
L147.1155 79.5807
" />
</g><g transform="rotate(-90.000000 143.8750 79.7950)">
<text x="143.8750" y="80.2950"
textLength="2.2024" font-size="1.3333" lengthAdjust="spacingAndGlyphs"
text-anchor="middle" opacity="0" stroke-opacity="0">R2</text>
</g>
<g class="stroked-text"><desc>R2</desc>
<path d="M144.3298 79.9617
L143.8536 80.2950
" />
<path d="M144.3298 80.5331
L143.3298 80.5331
" />
<path d="M143.3298 80.5331
L143.3298 80.1521
" />
<path d="M143.3298 80.1521
L143.3774 80.0569
" />
<path d="M143.3774 80.0569
L143.4251 80.0093
" />
<path d="M143.4251 80.0093
L143.5203 79.9617
" />
<path d="M143.5203 79.9617
L143.6632 79.9617
" />
<path d="M143.6632 79.9617
L143.7584 80.0093
" />
<path d="M143.7584 80.0093
L143.8060 80.0569
" />
<path d="M143.8060 80.0569
L143.8536 80.1521
" />
<path d="M143.8536 80.1521
L143.8536 80.5331
" />
<path d="M143.4251 79.5807
L143.3774 79.5331
" />
<path d="M143.3774 79.5331
L143.3298 79.4379
" />
<path d="M143.3298 79.4379
L143.3298 79.1998
" />
<path d="M143.3298 79.1998
L143.3774 79.1045
" />
<path d="M143.3774 79.1045
L143.4251 79.0569
" />
<path d="M143.4251 79.0569
L143.5203 79.0093
" />
<path d="M143.5203 79.0093
L143.6155 79.0093
" />
<path d="M143.6155 79.0093
L143.7584 79.0569
" />
<path d="M143.7584 79.0569
L144.3298 79.6283
" />
<path d="M144.3298 79.6283
L144.3298 79.0093
" />
</g><text x="165.7150" y="99.7750"
textLength="2.0595" font-size="1.3333" lengthAdjust="spacingAndGlyphs"
text-anchor="middle" opacity="0" stroke-opacity="0">A1</text>
<g class="stroked-text"><desc>A1</desc>
<path d="M165.0007 99.4441
L165.4769 99.4441
" />
<path d="M164.9055 99.7298
L165.2388 98.7298
" />
<path d="M165.2388 98.7298
L165.5721 99.7298
" />
<path d="M166.4293 99.7298
L165.8579 99.7298
" />
<path d="M166.1436 99.7298
L166.1436 98.7298
" />
<path d="M166.1436 98.7298
L166.0483 98.8727
" />
<path d="M166.0483 98.8727
L165.9531 98.9679
" />
<path d="M165.9531 98.9679
L165.8579 99.0155
" />
</g><g transform="rotate(-180.000000 161.4650 65.6350)">
<text x="161.4650" y="66.1350"
textLength="3.2500" font-size="1.3333" lengthAdjust="spacingAndGlyphs"
text-anchor="middle" opacity="0" stroke-opacity="0">USB</text>
</g>
<g class="stroked-text"><desc>USB</desc>
<path d="M162.7269 66.1802
L162.7269 65.3707
" />
<path d="M162.7269 65.3707
L162.6793 65.2754
" />
<path d="M162.6793 65.2754
L162.6317 65.2278
" />
<path d="M162.6317 65.2278
L162.5364 65.1802
" />
<path d="M162.5364 65.1802
L162.3460 65.1802
" />
<path d="M162.3460 65.1802
L162.2507 65.2278
" />
<path d="M162.2507 65.2278
L162.2031 65.2754
" />
<path d="M162.2031 65.2754
L162.1555 65.3707
" />
<path d="M162.1555 65.3707
L162.1555 66.1802
" />
<path d="M161.7269 65.2278
L161.5840 65.1802
" />
<path d="M161.5840 65.1802
L161.3460 65.1802
" />
<path d="M161.3460 65.1802
L161.2507 65.2278
" />
<path d="M161.2507 65.2278
L161.2031 65.2754
" />
<path d="M161.2031 65.2754
L161.1555 65.3707
" />
<path d="M161.1555 65.3707
L161.1555 65.4659
" />
<path d="M161.1555 65.4659
L161.2031 65.5611
" />
<path d="M161.2031 65.5611
L161.2507 65.6088
" />
<path d="M161.2507 65.6088
L161.3460 65.6564
" />
<path d="M161.3460 65.6564
L161.5364 65.7040
" />
<path d="M161.5364 65.7040
L161.6317 65.7516
" />
<path d="M161.6317 65.7516
L161.6793 65.7992
" />
<path d="M161.6793 65.7992
L161.7269 65.8945
" />
<path d="M161.7269 65.8945
L161.7269 65.9897
" />
<path d="M161.7269 65.9897
L161.6793 66.0849
" />
<path d="M161.6793 66.0849
L161.6317 66.1326
" />
<path d="M161.6317 66.1326
L161.5364 66.1802
" />
<path d="M161.5364 66.1802
L161.2983 66.1802
" />
<path d="M161.2983 66.1802
L161.1555 66.1326
" />
<path d="M160.3936 65.7040
L160.2507 65.6564
" />
<path d="M160.2507 65.6564
L160.2031 65.6088
" />
<path d="M160.2031 65.6088
L160.1555 65.5135
" />
<path d="M160.1555 65.5135
L160.1555 65.3707
" />
<path d="M160.1555 65.3707
L160.2031 65.2754
" />
<path d="M160.2031 65.2754
L160.2507 65.2278
" />
<path d="M160.2507 65.2278
L160.3460 65.1802
" />
<path d="M160.3460 65.1802
L160.7269 65.1802
" />
<path d="M160.7269 65.1802
L160.7269 66.1802
" />
<path d="M160.7269 66.1802
L160.3936 66.1802
" />
<path d="M160.3936 66.1802
L160.2983 66.1326
" />
<path d="M160.2983 66.1326
L160.2507 66.0849
" />
<path d="M160.2507 66.0849
L160.2031 65.9897
" />
<path d="M160.2031 65.9897
L160.2031 65.8945
" />
<path d="M160.2031 65.8945
L160.2507 65.7992
" />
<path d="M160.2507 65.7992
L160.2983 65.7516
" />
<path d="M160.2983 65.7516
L160.3936 65.7040
" />
<path d="M160.3936 65.7040
L160.7269 65.7040
" />
</g><g transform="rotate(-90.000000 176.8150 73.3950)">
<text x="176.8150" y="73.8950"
textLength="2.2024" font-size="1.3333" lengthAdjust="spacingAndGlyphs"
text-anchor="middle" opacity="0" stroke-opacity="0">R4</text>
</g>
<g class="stroked-text"><desc>R4</desc>
<path d="M177.2698 73.5617
L176.7936 73.8950
" />
<path d="M177.2698 74.1331
L176.2698 74.1331
" />
<path d="M176.2698 74.1331
L176.2698 73.7521
" />
<path d="M176.2698 73.7521
L176.3174 73.6569
" />
<path d="M176.3174 73.6569
L176.3651 73.6093
" />
<path d="M176.3651 73.6093
L176.4603 73.5617
" />
<path d="M176.4603 73.5617
L176.6032 73.5617
" />
<path d="M176.6032 73.5617
L176.6984 73.6093
" />
<path d="M176.6984 73.6093
L176.7460 73.6569
" />
<path d="M176.7460 73.6569
L176.7936 73.7521
" />
<path d="M176.7936 73.7521
L176.7936 74.1331
" />
<path d="M176.6032 72.7045
L177.2698 72.7045
" />
<path d="M176.2222 72.9426
L176.9365 73.1807
" />
<path d="M176.9365 73.1807
L176.9365 72.5617
" />
</g><text x="150.4450" y="65.8950"
textLength="1.9643" font-size="1.3333" lengthAdjust="spacingAndGlyphs"
text-anchor="middle" opacity="0" stroke-opacity="0">J1</text>
<g class="stroked-text"><desc>J1</desc>
<path d="M150.1117 64.8498
L150.1117 65.5641
" />
<path d="M150.1117 65.5641
L150.0640 65.7070
" />
<path d="M150.0640 65.7070
L149.9688 65.8022
" />
<path d="M149.9688 65.8022
L149.8260 65.8498
" />
<path d="M149.8260 65.8498
L149.7307 65.8498
" />
<path d="M151.1117 65.8498
L150.5402 65.8498
" />
<path d="M150.8260 65.8498
L150.8260 64.8498
" />
<path d="M150.8260 64.8498
L150.7307 64.9927
" />
<path d="M150.7307 64.9927
L150.6355 65.0879
" />
<path d="M150.6355 65.0879
L150.5402 65.1355
" />
</g><g transform="rotate(-90.000000 177.7750 83.3550)">
<text x="177.7750" y="83.8550"
textLength="2.2500" font-size="1.3333" lengthAdjust="spacingAndGlyphs"
text-anchor="middle" opacity="0" stroke-opacity="0">Q2</text>
</g>
<g class="stroked-text"><desc>Q2</desc>
<path d="M178.3251 83.4502
L178.2774 83.5455
" />
<path d="M178.2774 83.5455
L178.1822 83.6407
" />
<path d="M178.1822 83.6407
L178.0393 83.7836
" />
<path d="M178.0393 83.7836
L177.9917 83.8788
" />
<path d="M177.9917 83.8788
L177.9917 83.9740
" />
<path d="M178.2298 83.9264
L178.1822 84.0217
" />
<path d="M178.1822 84.0217
L178.0870 84.1169
" />
<path d="M178.0870 84.1169
L177.8965 84.1645
" />
<path d="M177.8965 84.1645
L177.5632 84.1645
" />
<path d="M177.5632 84.1645
L177.3727 84.1169
" />
<path d="M177.3727 84.1169
L177.2774 84.0217
" />
<path d="M177.2774 84.0217
L177.2298 83.9264
" />
<path d="M177.2298 83.9264
L177.2298 83.7360
" />
<path d="M177.2298 83.7360
L177.2774 83.6407
" />
<path d="M177.2774 83.6407
L177.3727 83.5455
" />
<path d="M177.3727 83.5455
L177.5632 83.4979
" />
<path d="M177.5632 83.4979
L177.8965 83.4979
" />
<path d="M177.8965 83.4979
L178.0870 83.5455
" />
<path d="M178.0870 83.5455
L178.1822 83.6407
" />
<path d="M178.1822 83.6407
L178.2298 83.7360
" />
<path d="M178.2298 83.7360
L178.2298 83.9264
" />
<path d="M177.3251 83.1169
L177.2774 83.0693
" />
<path d="M177.2774 83.0693
L177.2298 82.9740
" />
<path d="M177.2298 82.9740
L177.2298 82.7360
" />
<path d="M177.2298 82.7360
L177.2774 82.6407
" />
<path d="M177.2774 82.6407
L177.3251 82.5931
" />
<path d="M177.3251 82.5931
L177.4203 82.5455
" />
<path d="M177.4203 82.5455
L177.5155 82.5455
" />
<path d="M177.5155 82.5455
L177.6584 82.5931
" />
<path d="M177.6584 82.5931
L178.2298 83.1645
" />
<path d="M178.2298 83.1645
L178.2298 82.5455
" />
</g><g transform="rotate(-90.000000 181.8850 73.3950)">
<text x="181.8850" y="73.8950"
textLength="2.2024" font-size="1.3333" lengthAdjust="spacingAndGlyphs"
text-anchor="middle" opacity="0" stroke-opacity="0">R3</text>
</g>
<g class="stroked-text"><desc>R3</desc>
<path d="M182.3398 73.5617
L181.8636 73.8950
" />
<path d="M182.3398 74.1331
L181.3398 74.1331
" />
<path d="M181.3398 74.1331
L181.3398 73.7521
" />
<path d="M181.3398 73.7521
L181.3874 73.6569
" />
<path d="M181.3874 73.6569
L181.4351 73.6093
" />
<path d="M181.4351 73.6093
L181.5303 73.5617
" />
<path d="M181.5303 73.5617
L181.6732 73.5617
" />
<path d="M181.6732 73.5617
L181.7684 73.6093
" />
<path d="M181.7684 73.6093
L181.8160 73.6569
" />
<path d="M181.8160 73.6569
L181.8636 73.7521
" />
<path d="M181.8636 73.7521
L181.8636 74.1331
" />
<path d="M181.3398 73.2283
L181.3398 72.6093
" />
<path d="M181.3398 72.6093
L181.7208 72.9426
" />
<path d="M181.7208 72.9426
L181.7208 72.7998
" />
<path d="M181.7208 72.7998
L181.7684 72.7045
" />
<path d="M181.7684 72.7045
L181.8160 72.6569
" />
<path d="M181.8160 72.6569
L181.9112 72.6093
" />
<path d="M181.9112 72.6093
L182.1493 72.6093
" />
<path d="M182.1493 72.6093
L182.2446 72.6569
" />
<path d="M182.2446 72.6569
L182.2922 72.7045
" />
<path d="M182.2922 72.7045
L182.3398 72.7998
" />
<path d="M182.3398 72.7998
L182.3398 73.0855
" />
<path d="M182.3398 73.0855
L182.2922 73.1807
" />
<path d="M182.2922 73.1807
L182.2446 73.2283
" />
</g><g transform="rotate(-90.000000 182.9050 83.3950)">
<text x="182.9050" y="83.8950"
textLength="2.2500" font-size="1.3333" lengthAdjust="spacingAndGlyphs"
text-anchor="middle" opacity="0" stroke-opacity="0">Q1</text>
</g>
<g class="stroked-text"><desc>Q1</desc>
<path d="M183.4551 83.4902
L183.4074 83.5855
" />
<path d="M183.4074 83.5855
L183.3122 83.6807
" />
<path d="M183.3122 83.6807
L183.1693 83.8236
" />
<path d="M183.1693 83.8236
L183.1217 83.9188
" />
<path d="M183.1217 83.9188
L183.1217 84.0140
" />
<path d="M183.3598 83.9664
L183.3122 84.0617
" />
<path d="M183.3122 84.0617
L183.2170 84.1569
" />
<path d="M183.2170 84.1569
L183.0265 84.2045
" />
<path d="M183.0265 84.2045
L182.6932 84.2045
" />
<path d="M182.6932 84.2045
L182.5027 84.1569
" />
<path d="M182.5027 84.1569
L182.4074 84.0617
" />
<path d="M182.4074 84.0617
L182.3598 83.9664
" />
<path d="M182.3598 83.9664
L182.3598 83.7760
" />
<path d="M182.3598 83.7760
L182.4074 83.6807
" />
<path d="M182.4074 83.6807
L182.5027 83.5855
" />
<path d="M182.5027 83.5855
L182.6932 83.5379
" />
<path d="M182.6932 83.5379
L183.0265 83.5379
" />
<path d="M183.0265 83.5379
L183.2170 83.5855
" />
<path d="M183.2170 83.5855
L183.3122 83.6807
" />
<path d="M183.3122 83.6807
L183.3598 83.7760
" />
<path d="M183.3598 83.7760
L183.3598 83.9664
" />
<path d="M183.3598 82.5855
L183.3598 83.1569
" />
<path d="M183.3598 82.8712
L182.3598 82.8712
" />
<path d="M182.3598 82.8712
L182.5027 82.9664
" />
<path d="M182.5027 82.9664
L182.5979 83.0617
" />
<path d="M182.5979 83.0617
L182.6455 83.1569
" />
</g></g>
<g style="fill:none; 
stroke:#000000; stroke-width:0.1200; stroke-opacity:1; 
stroke-linecap:round; stroke-linejoin:round;">
<path d="M148.3750 76.5250
L148.3750 83.0650
" />
<path d="M148.3750 83.0650
L151.1150 83.0650
" />
<path d="M149.7450 75.7550
L149.7450 76.5250
" />
<path d="M149.7450 83.8350
L149.7450 83.0650
" />
<path d="M151.1150 76.5250
L148.3750 76.5250
" />
<path d="M151.1150 83.0650
L151.1150 76.5250
" />
<path d="M144.8750 76.5250
L144.8750 83.0650
" />
<path d="M144.8750 83.0650
L147.6150 83.0650
" />
<path d="M146.2450 75.7550
L146.2450 76.5250
" />
<path d="M146.2450 83.8350
L146.2450 83.0650
" />
<path d="M147.6150 76.5250
L144.8750 76.5250
" />
<path d="M147.6150 83.0650
L147.6150 76.5250
" />
<path d="M152.4450 61.6950
L152.4450 105.1350
" />
<path d="M152.4450 61.6950
L157.5250 61.6950
" />
<path d="M152.4450 105.1350
L170.4850 105.1350
" />
<path d="M155.1150 64.3650
L152.4450 64.3650
" />
<path d="M155.1150 102.4650
L152.4450 102.4650
" />
<path d="M155.1150 102.4650
L155.1150 64.3650
" />
<path d="M157.5250 59.1550
L165.4050 59.1550
" />
<path d="M157.5250 69.5750
L157.5250 59.1550
" />
<path d="M165.4050 59.1550
L165.4050 69.5750
" />
<path d="M165.4050 69.5750
L157.5250 69.5750
" />
<path d="M167.8150 64.3650
L170.4850 64.3650
" />
<path d="M167.8150 99.9250
L167.8150 64.3650
" />
<path d="M167.8150 99.9250
L167.8150 102.4650
" />
<path d="M167.8150 99.9250
L170.4850 99.9250
" />
<path d="M167.8150 102.4650
L170.4850 102.4650
" />
<path d="M170.4850 61.6950
L165.4050 61.6950
" />
<path d="M170.4850 99.9250
L170.4850 61.6950
" />
<path d="M170.4850 105.1350
L170.4850 102.4650
" />
<path d="M173.0750 70.1250
L173.0750 76.6650
" />
<path d="M173.0750 76.6650
L175.8150 76.6650
" />
<path d="M174.4450 69.3550
L174.4450 70.1250
" />
<path d="M174.4450 77.4350
L174.4450 76.6650
" />
<path d="M175.8150 70.1250
L173.0750 70.1250
" />
<path d="M175.8150 76.6650
L175.8150 70.1250
" />
<path d="M143.1850 66.7850
L143.1850 72.7550
" />
<path d="M143.1850 72.7550
L150.8050 72.7550
" />
<path d="M143.1950 70.4950
L143.9450 70.4950
" />
<path d="M143.1950 71.9950
L143.1950 72.7450
" />
<path d="M143.1950 72.7450
L144.9950 72.7450
" />
<path d="M143.9450 67.5450
L146.9950 67.5450
" />
<path d="M143.9450 70.4950
L143.9450 67.5450
" />
<path d="M144.9950 71.9950
L143.1950 71.9950
" />
<path d="M144.9950 72.7450
L144.9950 71.9950
" />
<path d="M146.4950 71.9950
L146.4950 72.7450
" />
<path d="M146.4950 72.7450
L147.4950 72.7450
" />
<path d="M146.9950 67.5450
L148.9850 67.5450
" />
<path d="M147.4950 71.9950
L146.4950 71.9950
" />
<path d="M147.4950 72.7450
L147.4950 71.9950
" />
<path d="M148.9950 71.9950
L148.9950 72.7450
" />
<path d="M148.9950 72.7450
L150.7950 72.7450
" />
<path d="M149.8450 73.0450
L151.0950 73.0450
" />
<path d="M150.0450 70.4950
L150.0450 69.1550
" />
<path d="M150.7950 70.4950
L150.0450 70.4950
" />
<path d="M150.7950 71.9950
L148.9950 71.9950
" />
<path d="M150.7950 72.7450
L150.7950 71.9950
" />
<path d="M150.8050 66.7850
L143.1850 66.7850
" />
<path d="M150.8050 72.7550
L150.8050 66.7850
" />
<path d="M151.0950 73.0450
L151.0950 71.7950
" />
<path d="M172.3650 81.5550
L172.3650 85.1550
" />
<path d="M176.8150 83.3550 A2.6000 2.6000 0.0 0 0 172.3765 81.5165" />
<path d="M172.3765 85.1935 A2.6000 2.6000 0.0 0 0 176.8150 83.3550" />
<path d="M178.1450 70.1250
L178.1450 76.6650
" />
<path d="M178.1450 76.6650
L180.8850 76.6650
" />
<path d="M179.5150 69.3550
L179.5150 70.1250
" />
<path d="M179.5150 77.4350
L179.5150 76.6650
" />
<path d="M180.8850 70.1250
L178.1450 70.1250
" />
<path d="M180.8850 76.6650
L180.8850 70.1250
" />
<path d="M177.4950 81.5950
L177.4950 85.1950
" />
<path d="M181.9450 83.3950 A2.6000 2.6000 0.0 0 0 177.5065 81.5565" />
<path d="M177.5065 85.2335 A2.6000 2.6000 0.0 0 0 181.9450 83.3950" />
<path style="fill:none; 
stroke:#000000; stroke-width:0.0500; stroke-opacity:1; 
stroke-linecap:round; stroke-linejoin:round;fill:none"
d="M 141.4450,58.3950
184.4450,58.3950
184.4450,106.3950
141.4450,106.3950
Z" /> 
</g> 
</svg>
