<?xml version="1.0" standalone="no"?>
 <!DOCTYPE svg PUBLIC "-//W3C//DTD SVG 1.1//EN" 
 "http://www.w3.org/Graphics/SVG/1.1/DTD/svg11.dtd"> 
<svg
  xmlns:svg="http://www.w3.org/2000/svg"
  xmlns="http://www.w3.org/2000/svg"
  xmlns:xlink="http://www.w3.org/1999/xlink"
  version="1.1"
  width="297.0022mm" height="210.0072mm" viewBox="0.0000 0.0000 297.0022 210.0072">
<title>SVG Image created as arduino_solar_bikelight_1-F_Cu.svg date 2025/02/08 22:14:27 </title>
  <desc>Image generated by PCBNEW </desc>
<g style="fill:#000000; fill-opacity:1.0000;stroke:#000000; stroke-opacity:1.0000;
stroke-linecap:round; stroke-linejoin:round;"
 transform="translate(0 0) scale(1 1)">
</g>
<g style="fill:#000000; fill-opacity:1.0000; stroke:none;">
<circle cx="149.7450" cy="84.8750" r="0.8000" /> 
</g>
<g style="fill:#000000; fill-opacity:1.0000; stroke:none;">
<circle cx="149.7450" cy="74.7150" r="0.8000" /> 
<circle cx="146.2450" cy="84.8750" r="0.8000" /> 
</g>
<g style="fill:#000000; fill-opacity:1.0000; stroke:none;">
<circle cx="146.2450" cy="74.7150" r="0.8000" /> 
<path style="fill:#000000; fill-opacity:1.0000; stroke:none;fill-rule:evenodd;"
d="M 169.8850,100.3950
169.8850,101.9950
168.2850,101.9950
168.2850,100.3950
Z" /> 
<circle cx="169.0850" cy="98.6550" r="0.8000" /> 
<circle cx="169.0850" cy="96.1150" r="0.8000" /> 
<circle cx="169.0850" cy="93.5750" r="0.8000" /> 
<circle cx="169.0850" cy="91.0350" r="0.8000" /> 
<circle cx="169.0850" cy="88.4950" r="0.8000" /> 
<circle cx="169.0850" cy="85.9550" r="0.8000" /> 
<circle cx="169.0850" cy="83.4150" r="0.8000" /> 
<circle cx="169.0850" cy="80.8750" r="0.8000" /> 
<circle cx="169.0850" cy="78.3350" r="0.8000" /> 
<circle cx="169.0850" cy="75.7950" r="0.8000" /> 
<circle cx="169.0850" cy="73.2550" r="0.8000" /> 
<circle cx="169.0850" cy="70.7150" r="0.8000" /> 
<circle cx="169.0850" cy="68.1750" r="0.8000" /> 
<circle cx="169.0850" cy="65.6350" r="0.8000" /> 
<circle cx="153.8450" cy="65.6350" r="0.8000" /> 
<circle cx="153.8450" cy="68.1750" r="0.8000" /> 
<circle cx="153.8450" cy="70.7150" r="0.8000" /> 
<circle cx="153.8450" cy="73.2550" r="0.8000" /> 
<circle cx="153.8450" cy="75.7950" r="0.8000" /> 
<circle cx="153.8450" cy="78.3350" r="0.8000" /> 
<circle cx="153.8450" cy="80.8750" r="0.8000" /> 
<circle cx="153.8450" cy="83.4150" r="0.8000" /> 
<circle cx="153.8450" cy="85.9550" r="0.8000" /> 
<circle cx="153.8450" cy="88.4950" r="0.8000" /> 
<circle cx="153.8450" cy="91.0350" r="0.8000" /> 
<circle cx="153.8450" cy="93.5750" r="0.8000" /> 
<circle cx="153.8450" cy="96.1150" r="0.8000" /> 
<circle cx="153.8450" cy="98.6550" r="0.8000" /> 
<circle cx="153.8450" cy="101.1950" r="0.8000" /> 
<circle cx="174.4450" cy="68.3150" r="0.8000" /> 
</g>
<g style="fill:#000000; fill-opacity:1.0000; stroke:none;">
<circle cx="174.4450" cy="78.4750" r="0.8000" /> 
<path style="fill:#000000; fill-opacity:1.0000; stroke:none;fill-rule:evenodd;"
d="M 149.0950,71.0450
149.0760,71.1407
149.0218,71.2218
148.9407,71.2760
148.8450,71.2950
147.6450,71.2950
147.5493,71.2760
147.4682,71.2218
147.4140,71.1407
147.3950,71.0450
147.3950,69.5450
147.4140,69.4493
147.4682,69.3682
147.5493,69.3140
147.6450,69.2950
148.8450,69.2950
148.9407,69.3140
149.0218,69.3682
149.0760,69.4493
149.0950,69.5450
Z" /> 
</g>
<g style="fill:none; 
stroke:#000000; stroke-width:1.7000; stroke-opacity:1; 
stroke-linecap:round; stroke-linejoin:round;">
<path d="M145.7450 70.4450
L145.7450 70.1450
" />
<path style="fill:#000000; fill-opacity:1.0000; stroke:none;fill-rule:evenodd;"
d="M 173.4650,81.5600
174.9650,81.5600
174.9650,82.6100
173.4650,82.6100
Z" /> 
</g>
<g style="fill:none; 
stroke:#000000; stroke-width:1.0500; stroke-opacity:1; 
stroke-linecap:round; stroke-linejoin:round;">
<path d="M174.4400 83.3550
L173.9900 83.3550
" />
<path d="M174.4400 84.6250
L173.9900 84.6250
" />
</g>
<g style="fill:#000000; fill-opacity:1.0000; stroke:none;">
<circle cx="179.5150" cy="68.3150" r="0.8000" /> 
</g>
<g style="fill:#000000; fill-opacity:1.0000; stroke:none;">
<circle cx="179.5150" cy="78.4750" r="0.8000" /> 
<path style="fill:#000000; fill-opacity:1.0000; stroke:none;fill-rule:evenodd;"
d="M 178.5950,81.6000
180.0950,81.6000
180.0950,82.6500
178.5950,82.6500
Z" /> 
</g>
<g style="fill:none; 
stroke:#000000; stroke-width:1.0500; stroke-opacity:1; 
stroke-linecap:round; stroke-linejoin:round;">
<path d="M179.5700 83.3950
L179.1200 83.3950
" />
<path d="M179.5700 84.6650
L179.1200 84.6650
" />
<path style="fill:#000000; fill-opacity:1.0000; stroke:none;fill-rule:evenodd;"
d="M 177.2950,89.1250
177.2950,90.8250
175.5950,90.8250
175.5950,89.1250
Z" /> 
</g>
<g style="fill:#000000; fill-opacity:1.0000; stroke:none;">
<circle cx="176.4450" cy="92.5150" r="0.8500" /> 
<circle cx="176.4450" cy="95.0550" r="0.8500" /> 
<circle cx="176.4450" cy="97.5950" r="0.8500" /> 
<circle cx="176.4450" cy="100.1350" r="0.8500" /> 
<circle cx="176.4450" cy="78.3950" r="0.3000" /> 
<path style="fill:#000000; fill-opacity:1.0000; stroke:none;fill-rule:evenodd;"
d="M 183.8375,58.9652
183.8833,59.0180
183.8945,59.0695
183.8945,105.7205
183.8748,105.7875
183.8220,105.8333
183.7705,105.8445
142.1195,105.8445
142.0525,105.8248
142.0067,105.7720
141.9955,105.7205
141.9955,103.2737
142.5945,103.2737
142.5945,103.5163
142.6262,103.7568
142.6889,103.9911
142.7818,104.2152
142.7818,104.2152
142.9031,104.4253
142.9031,104.4253
142.9031,104.4253
143.0507,104.6177
143.0507,104.6177
143.2223,104.7893
143.2223,104.7893
143.4147,104.9369
143.6248,105.0582
143.8489,105.1511
144.0832,105.2138
144.2636,105.2376
144.3237,105.2455
144.3237,105.2455
144.5663,105.2455
144.6144,105.2392
144.8068,105.2138
145.0411,105.1511
145.2652,105.0582
145.4753,104.9369
145.6677,104.7893
145.8393,104.6177
145.9869,104.4253
146.1082,104.2152
146.2011,103.9911
146.2638,103.7568
146.2955,103.5163
146.2955,103.2737
146.2955,103.2737
179.5945,103.2737
179.5945,103.5163
179.6262,103.7568
179.6889,103.9911
179.7818,104.2152
179.7818,104.2152
179.9031,104.4253
179.9031,104.4253
179.9031,104.4253
180.0507,104.6177
180.0507,104.6177
180.2223,104.7893
180.2223,104.7893
180.4147,104.9369
180.6248,105.0582
180.8489,105.1511
181.0832,105.2138
181.2636,105.2376
181.3237,105.2455
181.3237,105.2455
181.5663,105.2455
181.6144,105.2392
181.8068,105.2138
182.0411,105.1511
182.2652,105.0582
182.4753,104.9369
182.6677,104.7893
182.8393,104.6177
182.9869,104.4253
183.1082,104.2152
183.2011,103.9911
183.2638,103.7568
183.2955,103.5163
183.2955,103.2737
183.2638,103.0332
183.2011,102.7989
183.1082,102.5748
182.9869,102.3647
182.8571,102.1955
182.8393,102.1723
182.8393,102.1723
182.6677,102.0007
182.6677,102.0007
182.4753,101.8531
182.4753,101.8531
182.4753,101.8531
182.2652,101.7318
182.2652,101.7318
182.0411,101.6389
181.8201,101.5797
181.8068,101.5762
181.8068,101.5762
181.8068,101.5762
181.5663,101.5445
181.5663,101.5445
181.3237,101.5445
181.3237,101.5445
181.0832,101.5762
180.8489,101.6389
180.6248,101.7318
180.6248,101.7318
180.4147,101.8531
180.2223,102.0007
180.2223,102.0007
180.0507,102.1723
180.0507,102.1723
179.9031,102.3647
179.7818,102.5748
179.7818,102.5748
179.6889,102.7989
179.6262,103.0332
179.5945,103.2737
146.2955,103.2737
146.2638,103.0332
146.2011,102.7989
146.1082,102.5748
145.9869,102.3647
145.8571,102.1955
145.8393,102.1723
145.8393,102.1723
145.6677,102.0007
145.6677,102.0007
145.4753,101.8531
145.4753,101.8531
145.4753,101.8531
145.2652,101.7318
145.2652,101.7318
145.0411,101.6389
144.8201,101.5797
144.8068,101.5762
144.8068,101.5762
144.8068,101.5762
144.5663,101.5445
144.5663,101.5445
144.3237,101.5445
144.3237,101.5445
144.0832,101.5762
143.8489,101.6389
143.6248,101.7318
143.6248,101.7318
143.4147,101.8531
143.2223,102.0007
143.2223,102.0007
143.0507,102.1723
143.0507,102.1723
142.9031,102.3647
142.7818,102.5748
142.7818,102.5748
142.6889,102.7989
142.6262,103.0332
142.5945,103.2737
141.9955,103.2737
141.9955,101.1950
152.8397,101.1950
152.8590,101.3911
152.9162,101.5797
153.0091,101.7535
153.0091,101.7535
153.1341,101.9059
153.2865,102.0309
153.2865,102.0309
153.4603,102.1238
153.4603,102.1238
153.4603,102.1238
153.6489,102.1810
153.8450,102.2003
154.0411,102.1810
154.2297,102.1238
154.4035,102.0309
154.5559,101.9059
154.6809,101.7535
154.7738,101.5797
154.8310,101.3911
154.8503,101.1950
154.8310,100.9989
154.7738,100.8103
154.7738,100.8103
154.7738,100.8103
154.6809,100.6365
154.6809,100.6365
154.5559,100.4841
154.4232,100.3752
168.0845,100.3752
168.0845,102.0148
168.0961,102.0732
168.0961,102.0732
168.1404,102.1396
168.2068,102.1839
168.2068,102.1839
168.2652,102.1955
168.2652,102.1955
168.2653,102.1955
169.9047,102.1955
169.9048,102.1955
169.9196,102.1926
169.9632,102.1839
169.9632,102.1839
169.9632,102.1839
170.0296,102.1396
170.0739,102.0732
170.0739,102.0732
170.0739,102.0732
170.0855,102.0148
170.0855,102.0147
170.0855,100.3752
170.0855,100.3752
170.0739,100.3168
170.0739,100.3168
170.0296,100.2504
169.9632,100.2061
169.9632,100.2061
169.9048,100.1945
169.9047,100.1945
168.2653,100.1945
168.2652,100.1945
168.2068,100.2061
168.2068,100.2061
168.1404,100.2504
168.0961,100.3168
168.0961,100.3168
168.0845,100.3752
154.4232,100.3752
154.4035,100.3591
154.4035,100.3591
154.2297,100.2662
154.2297,100.2662
154.0411,100.2090
154.0411,100.2090
153.8450,100.1897
153.6489,100.2090
153.4603,100.2662
153.2865,100.3591
153.2865,100.3591
153.1341,100.4841
153.0091,100.6365
153.0091,100.6365
152.9162,100.8103
152.8590,100.9989
152.8397,101.1950
141.9955,101.1950
141.9955,98.4050
152.5661,98.4050
152.5661,98.4050
153.4120,98.4050
153.3791,98.4620
153.3450,98.5892
153.3450,98.7208
153.3791,98.8480
153.4120,98.9050
152.5661,98.9050
152.6187,99.1013
152.6187,99.1013
152.7149,99.3075
152.8453,99.4938
153.0062,99.6547
153.1925,99.7851
153.3987,99.8813
153.3987,99.8813
153.5950,99.9339
153.5950,99.9339
153.5950,99.0880
153.6520,99.1209
153.7792,99.1550
153.9108,99.1550
154.0380,99.1209
154.0950,99.0880
154.0950,99.9339
154.2774,99.8850
175.1144,99.8850
175.1144,99.8850
176.0120,99.8850
175.9791,99.9420
175.9450,100.0692
175.9450,100.2008
175.9791,100.3280
176.0120,100.3850
175.1144,100.3850
175.1716,100.5985
175.1716,100.5985
175.2714,100.8126
175.4069,101.0061
175.5739,101.1731
175.7674,101.3086
175.9815,101.4084
175.9815,101.4084
176.1950,101.4656
176.1950,100.5680
176.2520,100.6009
176.3792,100.6350
176.5108,100.6350
176.6380,100.6009
176.6950,100.5680
176.6950,101.4656
176.9085,101.4084
176.9085,101.4084
177.1226,101.3086
177.3161,101.1731
177.4831,101.0061
177.6186,100.8126
177.7184,100.5985
177.7184,100.5985
177.7756,100.3850
176.8780,100.3850
176.9109,100.3280
176.9450,100.2008
176.9450,100.0692
176.9109,99.9420
176.8780,99.8850
177.7756,99.8850
177.7756,99.8850
177.7184,99.6715
177.7184,99.6715
177.6186,99.4574
177.6186,99.4574
177.4831,99.2639
177.4831,99.2639
177.3161,99.0969
177.1226,98.9614
176.9085,98.8616
176.9085,98.8616
176.7863,98.8288
176.7267,98.7925
176.6962,98.7296
176.7045,98.6603
176.7489,98.6064
176.7824,98.5904
176.8490,98.5702
177.0314,98.4727
177.1914,98.3414
177.3227,98.1814
177.4202,97.9990
177.4803,97.8009
177.5006,97.5950
177.4803,97.3891
177.4202,97.1910
177.3227,97.0085
177.2707,96.9452
177.1914,96.8486
177.0315,96.7173
177.0315,96.7173
177.0314,96.7173
176.8490,96.6198
176.6509,96.5597
176.6509,96.5597
176.6509,96.5597
176.4450,96.5394
176.2391,96.5597
176.0410,96.6198
175.9404,96.6735
175.8585,96.7173
175.8585,96.7173
175.8585,96.7173
175.6986,96.8486
175.5673,97.0085
175.5673,97.0085
175.5485,97.0438
175.4698,97.1910
175.4097,97.3891
175.3894,97.5950
175.4097,97.8009
175.4097,97.8009
175.4698,97.9990
175.5673,98.1814
175.5673,98.1815
175.6986,98.3414
175.7066,98.3480
175.8585,98.4727
176.0410,98.5702
176.1076,98.5904
176.1660,98.6287
176.1944,98.6925
176.1839,98.7616
176.1377,98.8140
176.1036,98.8288
175.9815,98.8616
175.9815,98.8616
175.7674,98.9614
175.7674,98.9614
175.5739,99.0969
175.5739,99.0969
175.4069,99.2639
175.4069,99.2639
175.2714,99.4574
175.2714,99.4574
175.1716,99.6715
175.1716,99.6715
175.1144,99.8850
154.2774,99.8850
154.2913,99.8813
154.2913,99.8813
154.4975,99.7851
154.6838,99.6547
154.8447,99.4938
154.9751,99.3075
155.0713,99.1013
155.0713,99.1013
155.1239,98.9050
154.2780,98.9050
154.3109,98.8480
154.3450,98.7208
154.3450,98.6550
168.0797,98.6550
168.0990,98.8511
168.1562,99.0397
168.2491,99.2135
168.2491,99.2135
168.3741,99.3659
168.5265,99.4909
168.5265,99.4909
168.7003,99.5838
168.7003,99.5838
168.7003,99.5838
168.8889,99.6410
169.0850,99.6603
169.2811,99.6410
169.4697,99.5838
169.6435,99.4909
169.7959,99.3659
169.9209,99.2135
169.9833,99.0969
170.0138,99.0397
170.0138,99.0397
170.0138,99.0397
170.0710,98.8511
170.0903,98.6550
170.0710,98.4589
170.0138,98.2703
170.0138,98.2703
170.0138,98.2703
169.9209,98.0965
169.9209,98.0965
169.7959,97.9441
169.6435,97.8191
169.6435,97.8191
169.4697,97.7262
169.4697,97.7262
169.2811,97.6690
169.2811,97.6690
169.0850,97.6497
168.8889,97.6690
168.7003,97.7262
168.5265,97.8191
168.5265,97.8191
168.3741,97.9441
168.2491,98.0965
168.2491,98.0965
168.1562,98.2703
168.0990,98.4589
168.0797,98.6550
154.3450,98.6550
154.3450,98.5892
154.3109,98.4620
154.2780,98.4050
155.1239,98.4050
155.1239,98.4050
155.0713,98.2087
155.0713,98.2087
154.9751,98.0025
154.8447,97.8162
154.6838,97.6553
154.4975,97.5249
154.2913,97.4287
154.0950,97.3761
154.0950,98.2220
154.0380,98.1891
153.9108,98.1550
153.7792,98.1550
153.6520,98.1891
153.5950,98.2220
153.5950,97.3761
153.3987,97.4287
153.1925,97.5249
153.0062,97.6553
152.8453,97.8162
152.7149,98.0025
152.6187,98.2087
152.6187,98.2087
152.5661,98.4050
141.9955,98.4050
141.9955,96.1150
152.8397,96.1150
152.8590,96.3111
152.9162,96.4997
153.0091,96.6735
153.0091,96.6735
153.1341,96.8259
153.2865,96.9509
153.2865,96.9509
153.4603,97.0438
153.4603,97.0438
153.4603,97.0438
153.6489,97.1010
153.8450,97.1203
154.0411,97.1010
154.2297,97.0438
154.4035,96.9509
154.5559,96.8259
154.6809,96.6735
154.7738,96.4997
154.8310,96.3111
154.8503,96.1150
168.0797,96.1150
168.0990,96.3111
168.1562,96.4997
168.2491,96.6735
168.2491,96.6735
168.3741,96.8259
168.5265,96.9509
168.5265,96.9509
168.7003,97.0438
168.7003,97.0438
168.7003,97.0438
168.8889,97.1010
169.0850,97.1203
169.2811,97.1010
169.4697,97.0438
169.6435,96.9509
169.7959,96.8259
169.9209,96.6735
170.0138,96.4997
170.0710,96.3111
170.0903,96.1150
170.0710,95.9189
170.0138,95.7303
170.0138,95.7303
170.0138,95.7303
169.9209,95.5565
169.9209,95.5565
169.7959,95.4041
169.6435,95.2791
169.6435,95.2791
169.4697,95.1862
169.4697,95.1862
169.2811,95.1290
169.2811,95.1290
169.0850,95.1097
168.8889,95.1290
168.7003,95.1862
168.5265,95.2791
168.5265,95.2791
168.3741,95.4041
168.2491,95.5565
168.2491,95.5565
168.1562,95.7303
168.0990,95.9189
168.0797,96.1150
154.8503,96.1150
154.8310,95.9189
154.7738,95.7303
154.7738,95.7303
154.7738,95.7303
154.6809,95.5565
154.6809,95.5565
154.5559,95.4041
154.4035,95.2791
154.4035,95.2791
154.2297,95.1862
154.2297,95.1862
154.0411,95.1290
154.0411,95.1290
153.8450,95.1097
153.6489,95.1290
153.4603,95.1862
153.2865,95.2791
153.2865,95.2791
153.1341,95.4041
153.0091,95.5565
153.0091,95.5565
152.9162,95.7303
152.8590,95.9189
152.8397,96.1150
141.9955,96.1150
141.9955,95.0550
175.3894,95.0550
175.4097,95.2609
175.4097,95.2609
175.4698,95.4590
175.5673,95.6414
175.5673,95.6415
175.6986,95.8014
175.7952,95.8807
175.8585,95.9327
176.0410,96.0302
176.2391,96.0903
176.2391,96.0903
176.2575,96.0921
176.4450,96.1106
176.6509,96.0903
176.8490,96.0302
177.0314,95.9327
177.1914,95.8014
177.3227,95.6414
177.4202,95.4590
177.4803,95.2609
177.5006,95.0550
177.4803,94.8491
177.4202,94.6510
177.3227,94.4685
177.2707,94.4052
177.1914,94.3086
177.0315,94.1773
177.0315,94.1773
177.0314,94.1773
176.8490,94.0798
176.6509,94.0197
176.6509,94.0197
176.6509,94.0197
176.4450,93.9994
176.2391,94.0197
176.0410,94.0798
175.9404,94.1335
175.8585,94.1773
175.8585,94.1773
175.8585,94.1773
175.6986,94.3086
175.6122,94.4138
175.5673,94.4685
175.5485,94.5038
175.4698,94.6510
175.4097,94.8491
175.3894,95.0550
141.9955,95.0550
141.9955,93.5750
152.8397,93.5750
152.8590,93.7711
152.9162,93.9597
153.0091,94.1335
153.0091,94.1335
153.1341,94.2859
153.2865,94.4109
153.2865,94.4109
153.4603,94.5038
153.4603,94.5038
153.4603,94.5038
153.6489,94.5610
153.8450,94.5803
154.0411,94.5610
154.2297,94.5038
154.4035,94.4109
154.5559,94.2859
154.6809,94.1335
154.7526,93.9994
154.7738,93.9597
154.7738,93.9597
154.7738,93.9597
154.8310,93.7711
154.8503,93.5750
154.8310,93.3789
154.8147,93.3250
167.8061,93.3250
167.8061,93.3250
168.6520,93.3250
168.6191,93.3820
168.5850,93.5092
168.5850,93.6408
168.6191,93.7680
168.6520,93.8250
167.8061,93.8250
167.8587,94.0213
167.8587,94.0213
167.9549,94.2275
168.0853,94.4138
168.2462,94.5747
168.4325,94.7051
168.6387,94.8013
168.6387,94.8013
168.8350,94.8539
168.8350,94.8539
168.8350,94.0080
168.8920,94.0409
169.0192,94.0750
169.1508,94.0750
169.2780,94.0409
169.3350,94.0080
169.3350,94.8539
169.5313,94.8013
169.5313,94.8013
169.7375,94.7051
169.9238,94.5747
170.0847,94.4138
170.2151,94.2275
170.3113,94.0213
170.3113,94.0213
170.3639,93.8250
169.5180,93.8250
169.5509,93.7680
169.5850,93.6408
169.5850,93.5092
169.5509,93.3820
169.5180,93.3250
170.3639,93.3250
170.3639,93.3250
170.3113,93.1287
170.3113,93.1287
170.2151,92.9225
170.0847,92.7362
169.9238,92.5753
169.8376,92.5150
175.3894,92.5150
175.4097,92.7209
175.4097,92.7209
175.4698,92.9190
175.5673,93.1014
175.5673,93.1015
175.6986,93.2614
175.7066,93.2680
175.8585,93.3927
176.0410,93.4902
176.2391,93.5503
176.2391,93.5503
176.2575,93.5521
176.4450,93.5706
176.6509,93.5503
176.8490,93.4902
177.0314,93.3927
177.1914,93.2614
177.3227,93.1014
177.4202,92.9190
177.4803,92.7209
177.5006,92.5150
177.4803,92.3091
177.4202,92.1110
177.3227,91.9286
177.2707,91.8652
177.1914,91.7686
177.0315,91.6373
177.0315,91.6373
177.0314,91.6373
176.8490,91.5398
176.6509,91.4797
176.6509,91.4797
176.6509,91.4797
176.4450,91.4594
176.2391,91.4797
176.0410,91.5398
175.9404,91.5935
175.8585,91.6373
175.8585,91.6373
175.8585,91.6373
175.6986,91.7686
175.5673,91.9285
175.5673,91.9286
175.5485,91.9638
175.4698,92.1110
175.4097,92.3091
175.3894,92.5150
169.8376,92.5150
169.7375,92.4449
169.5313,92.3487
169.3350,92.2961
169.3350,93.1420
169.2780,93.1091
169.1508,93.0750
169.0192,93.0750
168.8920,93.1091
168.8350,93.1420
168.8350,92.2961
168.6387,92.3487
168.4325,92.4449
168.2462,92.5753
168.0853,92.7362
167.9549,92.9225
167.8587,93.1287
167.8587,93.1287
167.8061,93.3250
154.8147,93.3250
154.7738,93.1903
154.7738,93.1903
154.7738,93.1903
154.6809,93.0165
154.6809,93.0165
154.5559,92.8641
154.4035,92.7391
154.4035,92.7391
154.2297,92.6462
154.2297,92.6462
154.0411,92.5890
154.0411,92.5890
153.8450,92.5697
153.6489,92.5890
153.4603,92.6462
153.2865,92.7391
153.2865,92.7391
153.1341,92.8641
153.0091,93.0165
153.0091,93.0165
152.9162,93.1903
152.8590,93.3789
152.8397,93.5750
141.9955,93.5750
141.9955,91.0350
152.8397,91.0350
152.8590,91.2311
152.9162,91.4197
153.0091,91.5935
153.0091,91.5935
153.1341,91.7459
153.2865,91.8709
153.2865,91.8709
153.4603,91.9638
153.4603,91.9638
153.4603,91.9638
153.6489,92.0210
153.8450,92.0403
154.0411,92.0210
154.2297,91.9638
154.4035,91.8709
154.5559,91.7459
154.6809,91.5935
154.7738,91.4197
154.8310,91.2311
154.8503,91.0350
168.0797,91.0350
168.0990,91.2311
168.1562,91.4197
168.2491,91.5935
168.2491,91.5935
168.3741,91.7459
168.5265,91.8709
168.5265,91.8709
168.7003,91.9638
168.7003,91.9638
168.7003,91.9638
168.8889,92.0210
169.0850,92.0403
169.2811,92.0210
169.4697,91.9638
169.6435,91.8709
169.7959,91.7459
169.9209,91.5935
170.0138,91.4197
170.0710,91.2311
170.0903,91.0350
170.0710,90.8389
170.0138,90.6503
170.0138,90.6503
170.0138,90.6503
169.9209,90.4765
169.9209,90.4765
169.7959,90.3241
169.6435,90.1991
169.6435,90.1991
169.4697,90.1062
169.4697,90.1062
169.2811,90.0490
169.2811,90.0490
169.0850,90.0297
168.8889,90.0490
168.7003,90.1062
168.5265,90.1991
168.5265,90.1991
168.3741,90.3241
168.2491,90.4765
168.2491,90.4765
168.1562,90.6503
168.0990,90.8389
168.0797,91.0350
154.8503,91.0350
154.8310,90.8389
154.7738,90.6503
154.7738,90.6503
154.7738,90.6503
154.6809,90.4765
154.6809,90.4765
154.5559,90.3241
154.4035,90.1991
154.4035,90.1991
154.2297,90.1062
154.2297,90.1062
154.0411,90.0490
154.0411,90.0490
153.8450,90.0297
153.6489,90.0490
153.4603,90.1062
153.2865,90.1991
153.2865,90.1991
153.1341,90.3241
153.0091,90.4765
153.0091,90.4765
152.9162,90.6503
152.8590,90.8389
152.8397,91.0350
141.9955,91.0350
141.9955,88.4950
152.8397,88.4950
152.8590,88.6911
152.9162,88.8797
153.0091,89.0535
153.0091,89.0535
153.1341,89.2059
153.2865,89.3309
153.2865,89.3309
153.4603,89.4238
153.4603,89.4238
153.4603,89.4238
153.6489,89.4810
153.8450,89.5003
154.0411,89.4810
154.2297,89.4238
154.4035,89.3309
154.5559,89.2059
154.6809,89.0535
154.7738,88.8797
154.8310,88.6911
154.8503,88.4950
168.0797,88.4950
168.0990,88.6911
168.1562,88.8797
168.2491,89.0535
168.2491,89.0535
168.3741,89.2059
168.5265,89.3309
168.5265,89.3309
168.7003,89.4238
168.7003,89.4238
168.7003,89.4238
168.8889,89.4810
169.0850,89.5003
169.2811,89.4810
169.4697,89.4238
169.6435,89.3309
169.7959,89.2059
169.8785,89.1052
175.3945,89.1052
175.3945,90.8448
175.4061,90.9032
175.4061,90.9032
175.4504,90.9696
175.5168,91.0139
175.5168,91.0139
175.5752,91.0255
175.5752,91.0255
175.5753,91.0255
177.3148,91.0255
177.3148,91.0255
177.3296,91.0226
177.3732,91.0139
177.3732,91.0139
177.3732,91.0139
177.4396,90.9696
177.4839,90.9032
177.4839,90.9032
177.4839,90.9032
177.4955,90.8448
177.4955,90.8447
177.4955,89.1052
177.4955,89.1052
177.4839,89.0468
177.4839,89.0468
177.4396,88.9804
177.3732,88.9361
177.3732,88.9361
177.3148,88.9245
177.3147,88.9245
175.5753,88.9245
175.5752,88.9245
175.5168,88.9361
175.5168,88.9361
175.4504,88.9804
175.4061,89.0468
175.4061,89.0468
175.3945,89.1052
169.8785,89.1052
169.9209,89.0535
170.0138,88.8797
170.0710,88.6911
170.0903,88.4950
170.0710,88.2989
170.0138,88.1103
170.0138,88.1103
170.0138,88.1103
169.9209,87.9365
169.9209,87.9365
169.7959,87.7841
169.6435,87.6591
169.6435,87.6591
169.4697,87.5662
169.4697,87.5662
169.2811,87.5090
169.2811,87.5090
169.0850,87.4897
168.8889,87.5090
168.7003,87.5662
168.5265,87.6591
168.5265,87.6591
168.3741,87.7841
168.2491,87.9365
168.2491,87.9365
168.1562,88.1103
168.0990,88.2989
168.0797,88.4950
154.8503,88.4950
154.8310,88.2989
154.7738,88.1103
154.7738,88.1103
154.7738,88.1103
154.6809,87.9365
154.6809,87.9365
154.5559,87.7841
154.4035,87.6591
154.4035,87.6591
154.2297,87.5662
154.2297,87.5662
154.0411,87.5090
154.0411,87.5090
153.8450,87.4897
153.6489,87.5090
153.4603,87.5662
153.2865,87.6591
153.2865,87.6591
153.1341,87.7841
153.0091,87.9365
153.0091,87.9365
152.9162,88.1103
152.8590,88.2989
152.8397,88.4950
141.9955,88.4950
141.9955,84.8750
144.9400,84.8750
144.9400,84.8750
144.9599,85.1016
144.9599,85.1016
145.0187,85.3213
145.0187,85.3213
145.1149,85.5275
145.1660,85.6005
145.8450,84.9214
145.8450,84.9277
145.8723,85.0294
145.9249,85.1206
145.9994,85.1951
146.0906,85.2477
146.1923,85.2750
146.1986,85.2750
145.5195,85.9540
145.5925,86.0051
145.5925,86.0051
145.7987,86.1013
145.7987,86.1013
146.0184,86.1601
146.0184,86.1601
146.2450,86.1800
146.2450,86.1800
146.4716,86.1601
146.4716,86.1601
146.6913,86.1013
146.6913,86.1013
146.8975,86.0051
146.9691,85.9550
152.8397,85.9550
152.8590,86.1511
152.9162,86.3397
153.0091,86.5135
153.0091,86.5135
153.1341,86.6659
153.2865,86.7909
153.2865,86.7909
153.4603,86.8838
153.4603,86.8838
153.4603,86.8838
153.6489,86.9410
153.8450,86.9603
154.0411,86.9410
154.2297,86.8838
154.4035,86.7909
154.5559,86.6659
154.6809,86.5135
154.7738,86.3397
154.8310,86.1511
154.8503,85.9550
168.0797,85.9550
168.0990,86.1511
168.1562,86.3397
168.2491,86.5135
168.2491,86.5135
168.3741,86.6659
168.5265,86.7909
168.5265,86.7909
168.7003,86.8838
168.7003,86.8838
168.7003,86.8838
168.8889,86.9410
169.0850,86.9603
169.2811,86.9410
169.4697,86.8838
169.6435,86.7909
169.7959,86.6659
169.9209,86.5135
170.0138,86.3397
170.0710,86.1511
170.0903,85.9550
170.0710,85.7589
170.0138,85.5703
170.0138,85.5703
170.0138,85.5703
169.9209,85.3965
169.9209,85.3965
169.7959,85.2441
169.6435,85.1191
169.6435,85.1191
169.4697,85.0262
169.4697,85.0262
169.2811,84.9690
169.2811,84.9690
169.0850,84.9497
168.8889,84.9690
168.7003,85.0262
168.5265,85.1191
168.5265,85.1191
168.3741,85.2441
168.2491,85.3965
168.2491,85.3965
168.1562,85.5703
168.0990,85.7589
168.0797,85.9550
154.8503,85.9550
154.8310,85.7589
154.7738,85.5703
154.7738,85.5703
154.7738,85.5703
154.6809,85.3965
154.6809,85.3965
154.5559,85.2441
154.4035,85.1191
154.4035,85.1191
154.2297,85.0262
154.2297,85.0262
154.0411,84.9690
154.0411,84.9690
153.8450,84.9497
153.6489,84.9690
153.4603,85.0262
153.2865,85.1191
153.2865,85.1191
153.1341,85.2441
153.0091,85.3965
153.0091,85.3965
152.9162,85.5703
152.8590,85.7589
152.8397,85.9550
146.9691,85.9550
146.9705,85.9540
146.2914,85.2750
146.2977,85.2750
146.3994,85.2477
146.4906,85.1951
146.5651,85.1206
146.6177,85.0294
146.6450,84.9277
146.6450,84.9214
147.3240,85.6005
147.3751,85.5275
147.4713,85.3213
147.4713,85.3213
147.5301,85.1016
147.5301,85.1016
147.5500,84.8750
147.5500,84.8750
148.7397,84.8750
148.7590,85.0711
148.7639,85.0875
148.8114,85.2441
148.8162,85.2597
148.9091,85.4335
148.9091,85.4335
149.0341,85.5859
149.1865,85.7109
149.1865,85.7109
149.3603,85.8038
149.3603,85.8038
149.3603,85.8038
149.5489,85.8610
149.7450,85.8803
149.9411,85.8610
150.1297,85.8038
150.3035,85.7109
150.4559,85.5859
150.5809,85.4335
150.6402,85.3226
150.6738,85.2597
150.6738,85.2597
150.6738,85.2597
150.7310,85.0711
150.7503,84.8750
150.7310,84.6789
150.6738,84.4903
150.6738,84.4903
150.6738,84.4903
150.5809,84.3165
150.5809,84.3165
150.4559,84.1641
150.3035,84.0391
150.3035,84.0391
150.1297,83.9462
150.1297,83.9462
149.9411,83.8890
149.9411,83.8890
149.7450,83.8697
149.5489,83.8890
149.3603,83.9462
149.1865,84.0391
149.1865,84.0391
149.0341,84.1641
148.9091,84.3165
148.9091,84.3165
148.8162,84.4903
148.7590,84.6789
148.7397,84.8750
147.5500,84.8750
147.5500,84.8750
147.5301,84.6484
147.5301,84.6484
147.4713,84.4287
147.4713,84.4287
147.3751,84.2225
147.3751,84.2225
147.3240,84.1495
146.6450,84.8286
146.6450,84.8223
146.6177,84.7206
146.5651,84.6294
146.4906,84.5549
146.3994,84.5023
146.2977,84.4750
146.2914,84.4750
146.9705,83.7960
146.8975,83.7449
146.6913,83.6487
146.6913,83.6487
146.4716,83.5899
146.4716,83.5899
146.2450,83.5700
146.2450,83.5700
146.0184,83.5899
146.0184,83.5899
145.7987,83.6487
145.7987,83.6487
145.5925,83.7449
145.5925,83.7449
145.5195,83.7960
145.5195,83.7960
146.1986,84.4750
146.1923,84.4750
146.0906,84.5023
145.9994,84.5549
145.9249,84.6294
145.8723,84.7206
145.8450,84.8223
145.8450,84.8286
145.1660,84.1495
145.1660,84.1495
145.1149,84.2225
145.1149,84.2225
145.0187,84.4287
145.0187,84.4287
144.9599,84.6484
144.9599,84.6484
144.9400,84.8750
141.9955,84.8750
141.9955,83.4150
152.8397,83.4150
152.8590,83.6111
152.9162,83.7997
153.0091,83.9735
153.0091,83.9735
153.1341,84.1259
153.2865,84.2509
153.2865,84.2509
153.4603,84.3438
153.4603,84.3438
153.4603,84.3438
153.6489,84.4010
153.8450,84.4203
154.0411,84.4010
154.2297,84.3438
154.4035,84.2509
154.5559,84.1259
154.6809,83.9735
154.7643,83.8175
154.7738,83.7997
154.7738,83.7997
154.7738,83.7997
154.8310,83.6111
154.8503,83.4150
168.0797,83.4150
168.0990,83.6111
168.1562,83.7997
168.2491,83.9735
168.2491,83.9735
168.3741,84.1259
168.5265,84.2509
168.5265,84.2509
168.7003,84.3438
168.7003,84.3438
168.7003,84.3438
168.8889,84.4010
169.0850,84.4203
169.2811,84.4010
169.4697,84.3438
169.6435,84.2509
169.7959,84.1259
169.9209,83.9735
170.0043,83.8175
170.0138,83.7997
170.0138,83.7997
170.0138,83.7997
170.0710,83.6111
170.0892,83.4265
173.2645,83.4265
173.2924,83.5666
173.2924,83.5666
173.3471,83.6987
173.3471,83.6987
173.4265,83.8175
173.4265,83.8175
173.5113,83.9023
173.5448,83.9636
173.5398,84.0333
173.5113,84.0777
173.4265,84.1625
173.4265,84.1625
173.3471,84.2813
173.3471,84.2813
173.2924,84.4134
173.2924,84.4134
173.2645,84.5535
173.2645,84.5535
173.2645,84.6965
173.2645,84.6965
173.2645,84.6965
173.2924,84.8366
173.2924,84.8366
173.3471,84.9686
173.3471,84.9687
173.4265,85.0875
173.4265,85.0875
173.5275,85.1885
173.5275,85.1885
173.6463,85.2679
173.6463,85.2679
173.6463,85.2679
173.7784,85.3226
173.7784,85.3226
173.7784,85.3226
173.9185,85.3505
173.9185,85.3505
174.5115,85.3505
174.6058,85.3317
174.6516,85.3226
174.7837,85.2679
174.9025,85.1885
175.0035,85.0875
175.0829,84.9687
175.1376,84.8366
175.1575,84.7365
175.1655,84.6965
175.1655,84.5535
175.1376,84.4134
175.1376,84.4134
175.1376,84.4134
175.0829,84.2813
175.0829,84.2813
175.0829,84.2813
175.0035,84.1625
175.0035,84.1625
174.9187,84.0777
174.8852,84.0164
174.8902,83.9467
174.9187,83.9023
175.0035,83.8175
175.0035,83.8175
175.0829,83.6987
175.1376,83.5666
175.1575,83.4665
178.3945,83.4665
178.4224,83.6066
178.4224,83.6066
178.4771,83.7386
178.4771,83.7387
178.5565,83.8575
178.5565,83.8575
178.6413,83.9423
178.6748,84.0036
178.6698,84.0733
178.6413,84.1177
178.5565,84.2025
178.5565,84.2025
178.4771,84.3213
178.4771,84.3213
178.4224,84.4534
178.4224,84.4534
178.3945,84.5935
178.3945,84.5935
178.3945,84.7365
178.3945,84.7365
178.3945,84.7365
178.4224,84.8766
178.4224,84.8766
178.4771,85.0087
178.4771,85.0087
178.5565,85.1275
178.5565,85.1275
178.6575,85.2285
178.6575,85.2285
178.7763,85.3079
178.7763,85.3079
178.7763,85.3079
178.9084,85.3626
178.9084,85.3626
178.9084,85.3626
179.0485,85.3905
179.0485,85.3905
179.6415,85.3905
179.7358,85.3717
179.7816,85.3626
179.9137,85.3079
180.0325,85.2285
180.1335,85.1275
180.2129,85.0087
180.2676,84.8766
180.2955,84.7365
180.2955,84.5935
180.2955,84.5935
180.2676,84.4534
180.2676,84.4534
180.2676,84.4534
180.2129,84.3213
180.2129,84.3213
180.2129,84.3213
180.1335,84.2025
180.1335,84.2025
180.0487,84.1177
180.0152,84.0564
180.0202,83.9867
180.0487,83.9423
180.1335,83.8575
180.1335,83.8575
180.2129,83.7387
180.2676,83.6066
180.2955,83.4665
180.2955,83.3235
180.2955,83.3235
180.2676,83.1834
180.2676,83.1834
180.2676,83.1834
180.2129,83.0513
180.2129,83.0513
180.2129,83.0513
180.1714,82.9892
180.1505,82.9225
180.1690,82.8552
180.2056,82.8172
180.2396,82.7946
180.2839,82.7282
180.2839,82.7282
180.2839,82.7282
180.2955,82.6698
180.2955,82.6697
180.2955,81.5802
180.2955,81.5802
180.2839,81.5218
180.2839,81.5218
180.2396,81.4554
180.1732,81.4111
180.1732,81.4111
180.1148,81.3995
180.1147,81.3995
178.5753,81.3995
178.5752,81.3995
178.5168,81.4111
178.5168,81.4111
178.4504,81.4554
178.4061,81.5218
178.4061,81.5218
178.3945,81.5802
178.3945,82.6698
178.4061,82.7282
178.4061,82.7282
178.4504,82.7946
178.4844,82.8172
178.5292,82.8708
178.5379,82.9402
178.5186,82.9892
178.4771,83.0513
178.4771,83.0513
178.4224,83.1834
178.4224,83.1834
178.3945,83.3235
178.3945,83.3235
178.3945,83.4665
178.3945,83.4665
178.3945,83.4665
175.1575,83.4665
175.1655,83.4265
175.1655,83.2835
175.1376,83.1434
175.1376,83.1434
175.1376,83.1434
175.0829,83.0113
175.0829,83.0113
175.0829,83.0113
175.0414,82.9492
175.0205,82.8825
175.0390,82.8152
175.0756,82.7772
175.1096,82.7546
175.1539,82.6882
175.1539,82.6882
175.1539,82.6882
175.1655,82.6298
175.1655,82.6298
175.1655,81.5402
175.1655,81.5402
175.1539,81.4818
175.1539,81.4818
175.1096,81.4154
175.0432,81.3711
175.0432,81.3711
174.9848,81.3595
174.9847,81.3595
173.4453,81.3595
173.4452,81.3595
173.3868,81.3711
173.3868,81.3711
173.3204,81.4154
173.2761,81.4818
173.2761,81.4818
173.2645,81.5402
173.2645,82.6298
173.2761,82.6882
173.2761,82.6882
173.3204,82.7546
173.3544,82.7772
173.3992,82.8308
173.4079,82.9002
173.3886,82.9492
173.3471,83.0113
173.3471,83.0113
173.2924,83.1434
173.2924,83.1434
173.2645,83.2835
173.2645,83.2835
173.2645,83.4265
173.2645,83.4265
173.2645,83.4265
170.0892,83.4265
170.0903,83.4150
170.0710,83.2189
170.0138,83.0303
170.0138,83.0303
170.0138,83.0303
169.9209,82.8565
169.9209,82.8565
169.7959,82.7041
169.6435,82.5791
169.6435,82.5791
169.4697,82.4862
169.4697,82.4862
169.2811,82.4290
169.2811,82.4290
169.0850,82.4097
168.8889,82.4290
168.7003,82.4862
168.5265,82.5791
168.5265,82.5791
168.3741,82.7041
168.2491,82.8565
168.2491,82.8565
168.1562,83.0303
168.0990,83.2189
168.0797,83.4150
154.8503,83.4150
154.8310,83.2189
154.7738,83.0303
154.7738,83.0303
154.7738,83.0303
154.6809,82.8565
154.6809,82.8565
154.5559,82.7041
154.4035,82.5791
154.4035,82.5791
154.2297,82.4862
154.2297,82.4862
154.0411,82.4290
154.0411,82.4290
153.8450,82.4097
153.6489,82.4290
153.4603,82.4862
153.2865,82.5791
153.2865,82.5791
153.1341,82.7041
153.0091,82.8565
153.0091,82.8565
152.9162,83.0303
152.8590,83.2189
152.8397,83.4150
141.9955,83.4150
141.9955,80.8750
152.8397,80.8750
152.8590,81.0711
152.9162,81.2597
153.0091,81.4335
153.0091,81.4335
153.1341,81.5859
153.2865,81.7109
153.2865,81.7109
153.4603,81.8038
153.4603,81.8038
153.4603,81.8038
153.6489,81.8610
153.8450,81.8803
154.0411,81.8610
154.2297,81.8038
154.4035,81.7109
154.5559,81.5859
154.6809,81.4335
154.7738,81.2597
154.8310,81.0711
154.8503,80.8750
168.0797,80.8750
168.0990,81.0711
168.1562,81.2597
168.2491,81.4335
168.2491,81.4335
168.3741,81.5859
168.5265,81.7109
168.5265,81.7109
168.7003,81.8038
168.7003,81.8038
168.7003,81.8038
168.8889,81.8610
169.0850,81.8803
169.2811,81.8610
169.4697,81.8038
169.6435,81.7109
169.7959,81.5859
169.9209,81.4335
170.0138,81.2597
170.0710,81.0711
170.0903,80.8750
170.0710,80.6789
170.0138,80.4903
170.0138,80.4903
170.0138,80.4903
169.9209,80.3165
169.9209,80.3165
169.7959,80.1641
169.6435,80.0391
169.6435,80.0391
169.4697,79.9462
169.4697,79.9462
169.2811,79.8890
169.2811,79.8890
169.0850,79.8697
168.8889,79.8890
168.7003,79.9462
168.5265,80.0391
168.5265,80.0391
168.3741,80.1641
168.2491,80.3165
168.2491,80.3165
168.1562,80.4903
168.0990,80.6789
168.0797,80.8750
154.8503,80.8750
154.8310,80.6789
154.7738,80.4903
154.7738,80.4903
154.7738,80.4903
154.6809,80.3165
154.6809,80.3165
154.5559,80.1641
154.4035,80.0391
154.4035,80.0391
154.2297,79.9462
154.2297,79.9462
154.0411,79.8890
154.0411,79.8890
153.8450,79.8697
153.6489,79.8890
153.4603,79.9462
153.2865,80.0391
153.2865,80.0391
153.1341,80.1641
153.0091,80.3165
153.0091,80.3165
152.9162,80.4903
152.8590,80.6789
152.8397,80.8750
141.9955,80.8750
141.9955,78.3350
152.8397,78.3350
152.8590,78.5311
152.9162,78.7197
153.0091,78.8935
153.0091,78.8935
153.1341,79.0459
153.2865,79.1709
153.2865,79.1709
153.4603,79.2638
153.4603,79.2638
153.4603,79.2638
153.6489,79.3210
153.8450,79.3403
154.0411,79.3210
154.2297,79.2638
154.4035,79.1709
154.5559,79.0459
154.6809,78.8935
154.7738,78.7197
154.8310,78.5311
154.8503,78.3350
168.0797,78.3350
168.0990,78.5311
168.1562,78.7197
168.2491,78.8935
168.2491,78.8935
168.3741,79.0459
168.5265,79.1709
168.5265,79.1709
168.7003,79.2638
168.7003,79.2638
168.7003,79.2638
168.8889,79.3210
169.0850,79.3403
169.2811,79.3210
169.4697,79.2638
169.6435,79.1709
169.7959,79.0459
169.9209,78.8935
170.0138,78.7197
170.0710,78.5311
170.0766,78.4750
173.4397,78.4750
173.4590,78.6711
173.5162,78.8597
173.6091,79.0335
173.6091,79.0335
173.7341,79.1859
173.8865,79.3109
173.8865,79.3109
174.0603,79.4038
174.0603,79.4038
174.0603,79.4038
174.2489,79.4610
174.4450,79.4803
174.6411,79.4610
174.8297,79.4038
175.0035,79.3109
175.1559,79.1859
175.2809,79.0335
175.3738,78.8597
175.4310,78.6711
175.4503,78.4750
178.5097,78.4750
178.5290,78.6711
178.5862,78.8597
178.6791,79.0335
178.6791,79.0335
178.8041,79.1859
178.9565,79.3109
178.9565,79.3109
179.1303,79.4038
179.1303,79.4038
179.1303,79.4038
179.3189,79.4610
179.5150,79.4803
179.7111,79.4610
179.8997,79.4038
180.0735,79.3109
180.2259,79.1859
180.3509,79.0335
180.4438,78.8597
180.5010,78.6711
180.5203,78.4750
180.5010,78.2789
180.4438,78.0903
180.4438,78.0903
180.4438,78.0903
180.3509,77.9165
180.3509,77.9165
180.2259,77.7641
180.0735,77.6391
180.0735,77.6391
179.8997,77.5462
179.8997,77.5462
179.7111,77.4890
179.7111,77.4890
179.5150,77.4697
179.3189,77.4890
179.1303,77.5462
178.9565,77.6391
178.9565,77.6391
178.8041,77.7641
178.6791,77.9165
178.6791,77.9165
178.5862,78.0903
178.5290,78.2789
178.5097,78.4750
175.4503,78.4750
175.4310,78.2789
175.3738,78.0903
175.3738,78.0903
175.3738,78.0903
175.2809,77.9165
175.2809,77.9165
175.1559,77.7641
175.0035,77.6391
175.0035,77.6391
174.8297,77.5462
174.8297,77.5462
174.6411,77.4890
174.6411,77.4890
174.4450,77.4697
174.2489,77.4890
174.0603,77.5462
173.8865,77.6391
173.8865,77.6391
173.7341,77.7641
173.6091,77.9165
173.6091,77.9165
173.5162,78.0903
173.4590,78.2789
173.4397,78.4750
170.0766,78.4750
170.0903,78.3350
170.0710,78.1389
170.0138,77.9503
170.0138,77.9503
170.0138,77.9503
169.9209,77.7765
169.9209,77.7765
169.7959,77.6241
169.6435,77.4991
169.6435,77.4991
169.4697,77.4062
169.4697,77.4062
169.2811,77.3490
169.2811,77.3490
169.0850,77.3297
168.8889,77.3490
168.7003,77.4062
168.5265,77.4991
168.5265,77.4991
168.3741,77.6241
168.2491,77.7765
168.2491,77.7765
168.1562,77.9503
168.0990,78.1389
168.0797,78.3350
154.8503,78.3350
154.8310,78.1389
154.7738,77.9503
154.7738,77.9503
154.7738,77.9503
154.6809,77.7765
154.6809,77.7765
154.5559,77.6241
154.4035,77.4991
154.4035,77.4991
154.2297,77.4062
154.2297,77.4062
154.0411,77.3490
154.0411,77.3490
153.8450,77.3297
153.6489,77.3490
153.4603,77.4062
153.2865,77.4991
153.2865,77.4991
153.1341,77.6241
153.0091,77.7765
153.0091,77.7765
152.9162,77.9503
152.8590,78.1389
152.8397,78.3350
141.9955,78.3350
141.9955,75.7950
152.8397,75.7950
152.8590,75.9911
152.9162,76.1797
153.0091,76.3535
153.0091,76.3535
153.1341,76.5059
153.2865,76.6309
153.2865,76.6309
153.4603,76.7238
153.4603,76.7238
153.4603,76.7238
153.6489,76.7810
153.8450,76.8003
154.0411,76.7810
154.2297,76.7238
154.4035,76.6309
154.5559,76.5059
154.6809,76.3535
154.7738,76.1797
154.8310,75.9911
154.8503,75.7950
168.0797,75.7950
168.0990,75.9911
168.1562,76.1797
168.2491,76.3535
168.2491,76.3535
168.3741,76.5059
168.5265,76.6309
168.5265,76.6309
168.7003,76.7238
168.7003,76.7238
168.7003,76.7238
168.8889,76.7810
169.0850,76.8003
169.2811,76.7810
169.4697,76.7238
169.6435,76.6309
169.7959,76.5059
169.9209,76.3535
170.0138,76.1797
170.0710,75.9911
170.0903,75.7950
170.0710,75.5989
170.0138,75.4103
170.0138,75.4103
170.0138,75.4103
169.9209,75.2365
169.9209,75.2365
169.7959,75.0841
169.6435,74.9591
169.6435,74.9591
169.4697,74.8662
169.4697,74.8662
169.2811,74.8090
169.2811,74.8090
169.0850,74.7897
168.8889,74.8090
168.7003,74.8662
168.5265,74.9591
168.5265,74.9591
168.3741,75.0841
168.2491,75.2365
168.2491,75.2365
168.1562,75.4103
168.0990,75.5989
168.0797,75.7950
154.8503,75.7950
154.8310,75.5989
154.7738,75.4103
154.7738,75.4103
154.7738,75.4103
154.6809,75.2365
154.6809,75.2365
154.5559,75.0841
154.4035,74.9591
154.4035,74.9591
154.2297,74.8662
154.2297,74.8662
154.0411,74.8090
154.0411,74.8090
153.8450,74.7897
153.6489,74.8090
153.4603,74.8662
153.2865,74.9591
153.2865,74.9591
153.1341,75.0841
153.0091,75.2365
153.0091,75.2365
152.9162,75.4103
152.8590,75.5989
152.8397,75.7950
141.9955,75.7950
141.9955,74.7150
145.2397,74.7150
145.2590,74.9111
145.2590,74.9111
145.3114,75.0841
145.3162,75.0997
145.4091,75.2735
145.4091,75.2735
145.5341,75.4259
145.6865,75.5509
145.6865,75.5509
145.8603,75.6438
145.8603,75.6438
145.8603,75.6438
146.0489,75.7010
146.2450,75.7203
146.4411,75.7010
146.6297,75.6438
146.8035,75.5509
146.9559,75.4259
147.0809,75.2735
147.1738,75.0997
147.2310,74.9111
147.2503,74.7150
148.7397,74.7150
148.7590,74.9111
148.7590,74.9111
148.8114,75.0841
148.8162,75.0997
148.9091,75.2735
148.9091,75.2735
149.0341,75.4259
149.1865,75.5509
149.1865,75.5509
149.3603,75.6438
149.3603,75.6438
149.3603,75.6438
149.5489,75.7010
149.7450,75.7203
149.9411,75.7010
150.1297,75.6438
150.3035,75.5509
150.4559,75.4259
150.5809,75.2735
150.6738,75.0997
150.7310,74.9111
150.7503,74.7150
150.7310,74.5189
150.6738,74.3303
150.6738,74.3303
150.6738,74.3303
150.5809,74.1565
150.5809,74.1565
150.4559,74.0041
150.3035,73.8791
150.3035,73.8791
150.1297,73.7862
150.1297,73.7862
149.9411,73.7290
149.9411,73.7290
149.7450,73.7097
149.5489,73.7290
149.3603,73.7862
149.1865,73.8791
149.1865,73.8791
149.0341,74.0041
148.9091,74.1565
148.9091,74.1565
148.8162,74.3303
148.7590,74.5189
148.7397,74.7150
147.2503,74.7150
147.2310,74.5189
147.1738,74.3303
147.1738,74.3303
147.1738,74.3303
147.0809,74.1565
147.0809,74.1565
146.9559,74.0041
146.8035,73.8791
146.8035,73.8791
146.6297,73.7862
146.6297,73.7862
146.4411,73.7290
146.4411,73.7290
146.2450,73.7097
146.0489,73.7290
145.8603,73.7862
145.6865,73.8791
145.6865,73.8791
145.5341,74.0041
145.4091,74.1565
145.4091,74.1565
145.3162,74.3303
145.2590,74.5189
145.2397,74.7150
141.9955,74.7150
141.9955,73.2550
152.8397,73.2550
152.8590,73.4511
152.9162,73.6397
153.0091,73.8135
153.0091,73.8135
153.1341,73.9659
153.2865,74.0909
153.2865,74.0909
153.4603,74.1838
153.4603,74.1838
153.4603,74.1838
153.6489,74.2410
153.8450,74.2603
154.0411,74.2410
154.2297,74.1838
154.4035,74.0909
154.5559,73.9659
154.6809,73.8135
154.7738,73.6397
154.8310,73.4511
154.8503,73.2550
168.0797,73.2550
168.0990,73.4511
168.1562,73.6397
168.2491,73.8135
168.2491,73.8135
168.3741,73.9659
168.5265,74.0909
168.5265,74.0909
168.7003,74.1838
168.7003,74.1838
168.7003,74.1838
168.8889,74.2410
169.0850,74.2603
169.2811,74.2410
169.4697,74.1838
169.6435,74.0909
169.7959,73.9659
169.9209,73.8135
170.0138,73.6397
170.0710,73.4511
170.0903,73.2550
170.0710,73.0589
170.0138,72.8703
170.0138,72.8703
170.0138,72.8703
169.9209,72.6965
169.9209,72.6965
169.7959,72.5441
169.6435,72.4191
169.6435,72.4191
169.4697,72.3262
169.4697,72.3262
169.2811,72.2690
169.2811,72.2690
169.0850,72.2497
168.8889,72.2690
168.7003,72.3262
168.5265,72.4191
168.5265,72.4191
168.3741,72.5441
168.2491,72.6965
168.2491,72.6965
168.1562,72.8703
168.0990,73.0589
168.0797,73.2550
154.8503,73.2550
154.8310,73.0589
154.7738,72.8703
154.7738,72.8703
154.7738,72.8703
154.6809,72.6965
154.6809,72.6965
154.5559,72.5441
154.4035,72.4191
154.4035,72.4191
154.2297,72.3262
154.2297,72.3262
154.0411,72.2690
154.0411,72.2690
153.8450,72.2497
153.6489,72.2690
153.4603,72.3262
153.2865,72.4191
153.2865,72.4191
153.1341,72.5441
153.0091,72.6965
153.0091,72.6965
152.9162,72.8703
152.8590,73.0589
152.8397,73.2550
141.9955,73.2550
141.9955,70.0388
144.3950,70.0388
144.3950,70.0450
145.3120,70.0450
145.2791,70.1020
145.2450,70.2292
145.2450,70.3608
145.2791,70.4880
145.3120,70.5450
144.3950,70.5450
144.3950,70.5512
144.4282,70.7611
144.4282,70.7611
144.4939,70.9632
144.5904,71.1526
144.7153,71.3245
144.7153,71.3245
144.8655,71.4747
144.8655,71.4747
145.0374,71.5996
145.2268,71.6961
145.4289,71.7618
145.4950,71.7722
145.4950,70.7280
145.5520,70.7609
145.6792,70.7950
145.8108,70.7950
145.9380,70.7609
145.9950,70.7280
145.9950,71.7722
146.0611,71.7618
146.0611,71.7618
146.2632,71.6961
146.4526,71.5996
146.6245,71.4747
146.6245,71.4747
146.7747,71.3245
146.7747,71.3245
146.8996,71.1526
146.9600,71.0340
147.0080,70.9832
147.0758,70.9664
147.1419,70.9890
147.1854,71.0437
147.1945,71.0903
147.1945,71.0993
147.1974,71.1297
147.1974,71.1297
147.2422,71.2579
147.2422,71.2579
147.3228,71.3671
147.4321,71.4478
147.4748,71.4627
147.5603,71.4926
147.5907,71.4955
147.5907,71.4955
148.8993,71.4955
148.9297,71.4926
148.9297,71.4926
148.9938,71.4702
149.0579,71.4478
149.1671,71.3671
149.2478,71.2579
149.2846,71.1526
149.2926,71.1297
149.2926,71.1297
149.2955,71.0993
149.2955,70.7150
152.8397,70.7150
152.8590,70.9111
152.9162,71.0997
153.0091,71.2735
153.0091,71.2735
153.1341,71.4259
153.2865,71.5509
153.2865,71.5509
153.4603,71.6438
153.4603,71.6438
153.4603,71.6438
153.6489,71.7010
153.8450,71.7203
154.0411,71.7010
154.2297,71.6438
154.4035,71.5509
154.5559,71.4259
154.6809,71.2735
154.7738,71.0997
154.8310,70.9111
154.8503,70.7150
168.0797,70.7150
168.0990,70.9111
168.1562,71.0997
168.2491,71.2735
168.2491,71.2735
168.3741,71.4259
168.5265,71.5509
168.5265,71.5509
168.7003,71.6438
168.7003,71.6438
168.7003,71.6438
168.8889,71.7010
169.0850,71.7203
169.2811,71.7010
169.4697,71.6438
169.6435,71.5509
169.7959,71.4259
169.9209,71.2735
170.0138,71.0997
170.0710,70.9111
170.0903,70.7150
170.0710,70.5189
170.0138,70.3303
170.0138,70.3303
170.0138,70.3303
169.9209,70.1565
169.9209,70.1565
169.7959,70.0041
169.6435,69.8791
169.6435,69.8791
169.4697,69.7862
169.4697,69.7862
169.2811,69.7290
169.2811,69.7290
169.0850,69.7097
168.8889,69.7290
168.7003,69.7862
168.5265,69.8791
168.5265,69.8791
168.3741,70.0041
168.2491,70.1565
168.2491,70.1565
168.1562,70.3303
168.0990,70.5189
168.0797,70.7150
154.8503,70.7150
154.8310,70.5189
154.7738,70.3303
154.7738,70.3303
154.7738,70.3303
154.6809,70.1565
154.6809,70.1565
154.5559,70.0041
154.4035,69.8791
154.4035,69.8791
154.2297,69.7862
154.2297,69.7862
154.0411,69.7290
154.0411,69.7290
153.8450,69.7097
153.6489,69.7290
153.4603,69.7862
153.2865,69.8791
153.2865,69.8791
153.1341,70.0041
153.0091,70.1565
153.0091,70.1565
152.9162,70.3303
152.8590,70.5189
152.8397,70.7150
149.2955,70.7150
149.2955,69.4907
149.2926,69.4603
149.2926,69.4603
149.2478,69.3321
149.2478,69.3321
149.2391,69.3203
149.1671,69.2228
149.0579,69.1422
149.0579,69.1422
148.9297,69.0974
148.8993,69.0945
148.8993,69.0945
147.5907,69.0945
147.5907,69.0945
147.5603,69.0974
147.5603,69.0974
147.4321,69.1422
147.4321,69.1422
147.3228,69.2228
147.2422,69.3321
147.2422,69.3321
147.1974,69.4603
147.1974,69.4603
147.1945,69.4907
147.1945,69.4997
147.1748,69.5667
147.1220,69.6125
147.0529,69.6224
146.9893,69.5934
146.9600,69.5560
146.8996,69.4374
146.7747,69.2655
146.7747,69.2655
146.6245,69.1153
146.6245,69.1153
146.4526,68.9904
146.2632,68.8939
146.0611,68.8282
145.9950,68.8178
145.9950,69.8620
145.9380,69.8291
145.8108,69.7950
145.6792,69.7950
145.5520,69.8291
145.4950,69.8620
145.4950,68.8178
145.4950,68.8178
145.4289,68.8282
145.2268,68.8939
145.0374,68.9904
144.8655,69.1153
144.8655,69.1153
144.7153,69.2655
144.7153,69.2655
144.5904,69.4374
144.4939,69.6268
144.4282,69.8289
144.4282,69.8289
144.3950,70.0388
141.9955,70.0388
141.9955,68.2112
148.9945,68.2112
148.9945,68.3788
149.0272,68.5431
149.0272,68.5431
149.0913,68.6979
149.1844,68.8372
149.3028,68.9556
149.3955,69.0175
149.4421,69.0487
149.5969,69.1128
149.7447,69.1422
149.7612,69.1455
149.7612,69.1455
149.7612,69.1455
149.9288,69.1455
149.9288,69.1455
150.0931,69.1128
150.2479,69.0487
150.3872,68.9556
150.5056,68.8372
150.5987,68.6979
150.6628,68.5431
150.6955,68.3788
150.6955,68.2112
150.6883,68.1750
152.8397,68.1750
152.8590,68.3711
152.9162,68.5597
153.0091,68.7335
153.0091,68.7335
153.1341,68.8859
153.2865,69.0109
153.2865,69.0109
153.4603,69.1038
153.4603,69.1038
153.4603,69.1038
153.6489,69.1610
153.8450,69.1803
154.0411,69.1610
154.2297,69.1038
154.2472,69.0945
154.3328,69.0487
154.4035,69.0109
154.5559,68.8859
154.6809,68.7335
154.7738,68.5597
154.8310,68.3711
154.8503,68.1750
168.0797,68.1750
168.0990,68.3711
168.1562,68.5597
168.2491,68.7335
168.2491,68.7335
168.3741,68.8859
168.5265,69.0109
168.5265,69.0109
168.7003,69.1038
168.7003,69.1038
168.7003,69.1038
168.8889,69.1610
169.0850,69.1803
169.2811,69.1610
169.4697,69.1038
169.4872,69.0945
169.5728,69.0487
169.6435,69.0109
169.7959,68.8859
169.9209,68.7335
170.0138,68.5597
170.0710,68.3711
170.0766,68.3150
173.4397,68.3150
173.4590,68.5111
173.5162,68.6997
173.6091,68.8735
173.6091,68.8735
173.7341,69.0259
173.8865,69.1509
173.8865,69.1509
174.0603,69.2438
174.0603,69.2438
174.0603,69.2438
174.2489,69.3010
174.4450,69.3203
174.6411,69.3010
174.8297,69.2438
175.0035,69.1509
175.1559,69.0259
175.2809,68.8735
175.3738,68.6997
175.4310,68.5111
175.4503,68.3150
178.5097,68.3150
178.5290,68.5111
178.5862,68.6997
178.6791,68.8735
178.6791,68.8735
178.8041,69.0259
178.9565,69.1509
178.9565,69.1509
179.1303,69.2438
179.1303,69.2438
179.1303,69.2438
179.3189,69.3010
179.5150,69.3203
179.7111,69.3010
179.8997,69.2438
180.0735,69.1509
180.2259,69.0259
180.3509,68.8735
180.4438,68.6997
180.5010,68.5111
180.5203,68.3150
180.5010,68.1189
180.4438,67.9303
180.4438,67.9303
180.4438,67.9303
180.3509,67.7565
180.3509,67.7565
180.2259,67.6041
180.0735,67.4791
180.0735,67.4791
179.8997,67.3862
179.8997,67.3862
179.7111,67.3290
179.7111,67.3290
179.5150,67.3097
179.3189,67.3290
179.1303,67.3862
178.9565,67.4791
178.9565,67.4791
178.8041,67.6041
178.6791,67.7565
178.6791,67.7565
178.5862,67.9303
178.5290,68.1189
178.5097,68.3150
175.4503,68.3150
175.4310,68.1189
175.3738,67.9303
175.3738,67.9303
175.3738,67.9303
175.2809,67.7565
175.2809,67.7565
175.1559,67.6041
175.0035,67.4791
175.0035,67.4791
174.8297,67.3862
174.8297,67.3862
174.6411,67.3290
174.6411,67.3290
174.4450,67.3097
174.2489,67.3290
174.0603,67.3862
173.8865,67.4791
173.8865,67.4791
173.7341,67.6041
173.6091,67.7565
173.6091,67.7565
173.5162,67.9303
173.4590,68.1189
173.4397,68.3150
170.0766,68.3150
170.0903,68.1750
170.0710,67.9789
170.0138,67.7903
170.0138,67.7903
170.0138,67.7903
169.9209,67.6165
169.9209,67.6165
169.7959,67.4641
169.6435,67.3391
169.6435,67.3391
169.4697,67.2462
169.4697,67.2462
169.2811,67.1890
169.2811,67.1890
169.0850,67.1697
168.8889,67.1890
168.7003,67.2462
168.5265,67.3391
168.5265,67.3391
168.3741,67.4641
168.2491,67.6165
168.2491,67.6165
168.1562,67.7903
168.0990,67.9789
168.0797,68.1750
154.8503,68.1750
154.8310,67.9789
154.7738,67.7903
154.7738,67.7903
154.7738,67.7903
154.6809,67.6165
154.6809,67.6165
154.5559,67.4641
154.4035,67.3391
154.4035,67.3391
154.2297,67.2462
154.2297,67.2462
154.0411,67.1890
154.0411,67.1890
153.8450,67.1697
153.6489,67.1890
153.4603,67.2462
153.2865,67.3391
153.2865,67.3391
153.1341,67.4641
153.0091,67.6165
153.0091,67.6165
152.9162,67.7903
152.8590,67.9789
152.8397,68.1750
150.6883,68.1750
150.6628,68.0469
150.5987,67.8921
150.5675,67.8455
150.5056,67.7528
150.3872,67.6344
150.2479,67.5413
150.0931,67.4772
150.0931,67.4772
149.9288,67.4445
149.9288,67.4445
149.7612,67.4445
149.7612,67.4445
149.5969,67.4772
149.5969,67.4772
149.4421,67.5413
149.3028,67.6344
149.1844,67.7528
149.0913,67.8921
149.0272,68.0469
149.0272,68.0469
148.9945,68.2112
141.9955,68.2112
141.9955,65.6350
152.8397,65.6350
152.8590,65.8311
152.9162,66.0197
153.0091,66.1935
153.0091,66.1935
153.1341,66.3459
153.2865,66.4709
153.2865,66.4709
153.4603,66.5638
153.4603,66.5638
153.4603,66.5638
153.6489,66.6210
153.8450,66.6403
154.0411,66.6210
154.2297,66.5638
154.4035,66.4709
154.5559,66.3459
154.6809,66.1935
154.7738,66.0197
154.8310,65.8311
154.8503,65.6350
168.0797,65.6350
168.0990,65.8311
168.1562,66.0197
168.2491,66.1935
168.2491,66.1935
168.3741,66.3459
168.5265,66.4709
168.5265,66.4709
168.7003,66.5638
168.7003,66.5638
168.7003,66.5638
168.8889,66.6210
169.0850,66.6403
169.2811,66.6210
169.4697,66.5638
169.6435,66.4709
169.7959,66.3459
169.9209,66.1935
170.0138,66.0197
170.0710,65.8311
170.0903,65.6350
170.0710,65.4389
170.0138,65.2503
170.0138,65.2503
170.0138,65.2503
169.9209,65.0765
169.9209,65.0765
169.7959,64.9241
169.6435,64.7991
169.6435,64.7991
169.4697,64.7062
169.4697,64.7062
169.2811,64.6490
169.2811,64.6490
169.0850,64.6297
168.8889,64.6490
168.7003,64.7062
168.5265,64.7991
168.5265,64.7991
168.3741,64.9241
168.2491,65.0765
168.2491,65.0765
168.1562,65.2503
168.0990,65.4389
168.0797,65.6350
154.8503,65.6350
154.8310,65.4389
154.7738,65.2503
154.7738,65.2503
154.7738,65.2503
154.6809,65.0765
154.6809,65.0765
154.5559,64.9241
154.4035,64.7991
154.4035,64.7991
154.2297,64.7062
154.2297,64.7062
154.0411,64.6490
154.0411,64.6490
153.8450,64.6297
153.6489,64.6490
153.4603,64.7062
153.2865,64.7991
153.2865,64.7991
153.1341,64.9241
153.0091,65.0765
153.0091,65.0765
152.9162,65.2503
152.8590,65.4389
152.8397,65.6350
141.9955,65.6350
141.9955,61.2737
142.5945,61.2737
142.5945,61.5163
142.6262,61.7568
142.6889,61.9911
142.7818,62.2152
142.7818,62.2152
142.9031,62.4253
142.9031,62.4253
142.9031,62.4253
143.0507,62.6177
143.0507,62.6177
143.2223,62.7893
143.2223,62.7893
143.4147,62.9369
143.6248,63.0582
143.8489,63.1511
144.0832,63.2138
144.2636,63.2376
144.3237,63.2455
144.3237,63.2455
144.5663,63.2455
144.6144,63.2392
144.8068,63.2138
145.0411,63.1511
145.2652,63.0582
145.4753,62.9369
145.6677,62.7893
145.8393,62.6177
145.9869,62.4253
146.1082,62.2152
146.2011,61.9911
146.2638,61.7568
146.2955,61.5163
146.2955,61.2737
146.2955,61.2737
179.5945,61.2737
179.5945,61.5163
179.6262,61.7568
179.6889,61.9911
179.7818,62.2152
179.7818,62.2152
179.9031,62.4253
179.9031,62.4253
179.9031,62.4253
180.0507,62.6177
180.0507,62.6177
180.2223,62.7893
180.2223,62.7893
180.4147,62.9369
180.6248,63.0582
180.8489,63.1511
181.0832,63.2138
181.2636,63.2376
181.3237,63.2455
181.3237,63.2455
181.5663,63.2455
181.6144,63.2392
181.8068,63.2138
182.0411,63.1511
182.2652,63.0582
182.4753,62.9369
182.6677,62.7893
182.8393,62.6177
182.9869,62.4253
183.1082,62.2152
183.2011,61.9911
183.2638,61.7568
183.2955,61.5163
183.2955,61.2737
183.2638,61.0332
183.2011,60.7989
183.1082,60.5748
182.9869,60.3647
182.8393,60.1723
182.8393,60.1723
182.6677,60.0007
182.6677,60.0007
182.4753,59.8531
182.4753,59.8531
182.4753,59.8531
182.2652,59.7318
182.2652,59.7318
182.0411,59.6389
181.8068,59.5762
181.5663,59.5445
181.5663,59.5445
181.3237,59.5445
181.3237,59.5445
181.0832,59.5762
180.8489,59.6389
180.6248,59.7318
180.6248,59.7318
180.4147,59.8531
180.2223,60.0007
180.2223,60.0007
180.0507,60.1723
180.0507,60.1723
179.9031,60.3647
179.7818,60.5748
179.7818,60.5748
179.6889,60.7989
179.6262,61.0332
179.5945,61.2737
146.2955,61.2737
146.2638,61.0332
146.2011,60.7989
146.1082,60.5748
145.9869,60.3647
145.8393,60.1723
145.8393,60.1723
145.6677,60.0007
145.6677,60.0007
145.4753,59.8531
145.4753,59.8531
145.4753,59.8531
145.2652,59.7318
145.2652,59.7318
145.0411,59.6389
144.8068,59.5762
144.5663,59.5445
144.5663,59.5445
144.3237,59.5445
144.3237,59.5445
144.0832,59.5762
143.8489,59.6389
143.6248,59.7318
143.6248,59.7318
143.4147,59.8531
143.2223,60.0007
143.2223,60.0007
143.0507,60.1723
143.0507,60.1723
142.9031,60.3647
142.7818,60.5748
142.7818,60.5748
142.6889,60.7989
142.6262,61.0332
142.5945,61.2737
141.9955,61.2737
141.9955,59.0695
142.0152,59.0025
142.0680,58.9567
142.1195,58.9455
183.7705,58.9455
Z" /> 
<path style="fill:none; 
stroke:#000000; stroke-width:0.0500; stroke-opacity:1; 
stroke-linecap:round; stroke-linejoin:round;fill:none"
d="M 141.4450,58.3950
184.4450,58.3950
184.4450,106.3950
141.4450,106.3950
Z" /> 
</g> 
</svg>
