%TF.GenerationSoftware,KiCad,Pcbnew,8.0.5*%
%TF.CreationDate,2025-02-09T09:24:22+08:00*%
%TF.ProjectId,arduino_solar_bikelight_1,61726475-696e-46f5-9f73-6f6c61725f62,rev?*%
%TF.SameCoordinates,Original*%
%TF.FileFunction,Legend,Top*%
%TF.FilePolarity,Positive*%
%FSLAX46Y46*%
G04 Gerber Fmt 4.6, Leading zero omitted, Abs format (unit mm)*
G04 Created by KiCad (PCBNEW 8.0.5) date 2025-02-09 09:24:22*
%MOMM*%
%LPD*%
G01*
G04 APERTURE LIST*
%ADD10C,0.100000*%
%ADD11C,0.150000*%
%ADD12C,0.120000*%
%TA.AperFunction,Profile*%
%ADD13C,0.050000*%
%TD*%
G04 APERTURE END LIST*
D10*
X144082217Y-65743609D02*
X144225074Y-65791228D01*
X144225074Y-65791228D02*
X144272693Y-65838847D01*
X144272693Y-65838847D02*
X144320312Y-65934085D01*
X144320312Y-65934085D02*
X144320312Y-66076942D01*
X144320312Y-66076942D02*
X144272693Y-66172180D01*
X144272693Y-66172180D02*
X144225074Y-66219800D01*
X144225074Y-66219800D02*
X144129836Y-66267419D01*
X144129836Y-66267419D02*
X143748884Y-66267419D01*
X143748884Y-66267419D02*
X143748884Y-65267419D01*
X143748884Y-65267419D02*
X144082217Y-65267419D01*
X144082217Y-65267419D02*
X144177455Y-65315038D01*
X144177455Y-65315038D02*
X144225074Y-65362657D01*
X144225074Y-65362657D02*
X144272693Y-65457895D01*
X144272693Y-65457895D02*
X144272693Y-65553133D01*
X144272693Y-65553133D02*
X144225074Y-65648371D01*
X144225074Y-65648371D02*
X144177455Y-65695990D01*
X144177455Y-65695990D02*
X144082217Y-65743609D01*
X144082217Y-65743609D02*
X143748884Y-65743609D01*
X145177455Y-66267419D02*
X145177455Y-65743609D01*
X145177455Y-65743609D02*
X145129836Y-65648371D01*
X145129836Y-65648371D02*
X145034598Y-65600752D01*
X145034598Y-65600752D02*
X144844122Y-65600752D01*
X144844122Y-65600752D02*
X144748884Y-65648371D01*
X145177455Y-66219800D02*
X145082217Y-66267419D01*
X145082217Y-66267419D02*
X144844122Y-66267419D01*
X144844122Y-66267419D02*
X144748884Y-66219800D01*
X144748884Y-66219800D02*
X144701265Y-66124561D01*
X144701265Y-66124561D02*
X144701265Y-66029323D01*
X144701265Y-66029323D02*
X144748884Y-65934085D01*
X144748884Y-65934085D02*
X144844122Y-65886466D01*
X144844122Y-65886466D02*
X145082217Y-65886466D01*
X145082217Y-65886466D02*
X145177455Y-65838847D01*
X145510789Y-65600752D02*
X145891741Y-65600752D01*
X145653646Y-65267419D02*
X145653646Y-66124561D01*
X145653646Y-66124561D02*
X145701265Y-66219800D01*
X145701265Y-66219800D02*
X145796503Y-66267419D01*
X145796503Y-66267419D02*
X145891741Y-66267419D01*
X146082218Y-65600752D02*
X146463170Y-65600752D01*
X146225075Y-65267419D02*
X146225075Y-66124561D01*
X146225075Y-66124561D02*
X146272694Y-66219800D01*
X146272694Y-66219800D02*
X146367932Y-66267419D01*
X146367932Y-66267419D02*
X146463170Y-66267419D01*
X147177456Y-66219800D02*
X147082218Y-66267419D01*
X147082218Y-66267419D02*
X146891742Y-66267419D01*
X146891742Y-66267419D02*
X146796504Y-66219800D01*
X146796504Y-66219800D02*
X146748885Y-66124561D01*
X146748885Y-66124561D02*
X146748885Y-65743609D01*
X146748885Y-65743609D02*
X146796504Y-65648371D01*
X146796504Y-65648371D02*
X146891742Y-65600752D01*
X146891742Y-65600752D02*
X147082218Y-65600752D01*
X147082218Y-65600752D02*
X147177456Y-65648371D01*
X147177456Y-65648371D02*
X147225075Y-65743609D01*
X147225075Y-65743609D02*
X147225075Y-65838847D01*
X147225075Y-65838847D02*
X146748885Y-65934085D01*
X147653647Y-66267419D02*
X147653647Y-65600752D01*
X147653647Y-65791228D02*
X147701266Y-65695990D01*
X147701266Y-65695990D02*
X147748885Y-65648371D01*
X147748885Y-65648371D02*
X147844123Y-65600752D01*
X147844123Y-65600752D02*
X147939361Y-65600752D01*
X148177457Y-65600752D02*
X148415552Y-66267419D01*
X148653647Y-65600752D02*
X148415552Y-66267419D01*
X148415552Y-66267419D02*
X148320314Y-66505514D01*
X148320314Y-66505514D02*
X148272695Y-66553133D01*
X148272695Y-66553133D02*
X148177457Y-66600752D01*
X137679925Y-89422580D02*
X138156115Y-89422580D01*
X138156115Y-89422580D02*
X138203734Y-88946390D01*
X138203734Y-88946390D02*
X138156115Y-88994009D01*
X138156115Y-88994009D02*
X138060877Y-89041628D01*
X138060877Y-89041628D02*
X137822782Y-89041628D01*
X137822782Y-89041628D02*
X137727544Y-88994009D01*
X137727544Y-88994009D02*
X137679925Y-88946390D01*
X137679925Y-88946390D02*
X137632306Y-88851152D01*
X137632306Y-88851152D02*
X137632306Y-88613057D01*
X137632306Y-88613057D02*
X137679925Y-88517819D01*
X137679925Y-88517819D02*
X137727544Y-88470200D01*
X137727544Y-88470200D02*
X137822782Y-88422580D01*
X137822782Y-88422580D02*
X138060877Y-88422580D01*
X138060877Y-88422580D02*
X138156115Y-88470200D01*
X138156115Y-88470200D02*
X138203734Y-88517819D01*
X137346591Y-89422580D02*
X137013258Y-88422580D01*
X137013258Y-88422580D02*
X136679925Y-89422580D01*
X136346591Y-88422580D02*
X136346591Y-89422580D01*
X136346591Y-89422580D02*
X136108496Y-89422580D01*
X136108496Y-89422580D02*
X135965639Y-89374961D01*
X135965639Y-89374961D02*
X135870401Y-89279723D01*
X135870401Y-89279723D02*
X135822782Y-89184485D01*
X135822782Y-89184485D02*
X135775163Y-88994009D01*
X135775163Y-88994009D02*
X135775163Y-88851152D01*
X135775163Y-88851152D02*
X135822782Y-88660676D01*
X135822782Y-88660676D02*
X135870401Y-88565438D01*
X135870401Y-88565438D02*
X135965639Y-88470200D01*
X135965639Y-88470200D02*
X136108496Y-88422580D01*
X136108496Y-88422580D02*
X136346591Y-88422580D01*
X134775163Y-88517819D02*
X134822782Y-88470200D01*
X134822782Y-88470200D02*
X134965639Y-88422580D01*
X134965639Y-88422580D02*
X135060877Y-88422580D01*
X135060877Y-88422580D02*
X135203734Y-88470200D01*
X135203734Y-88470200D02*
X135298972Y-88565438D01*
X135298972Y-88565438D02*
X135346591Y-88660676D01*
X135346591Y-88660676D02*
X135394210Y-88851152D01*
X135394210Y-88851152D02*
X135394210Y-88994009D01*
X135394210Y-88994009D02*
X135346591Y-89184485D01*
X135346591Y-89184485D02*
X135298972Y-89279723D01*
X135298972Y-89279723D02*
X135203734Y-89374961D01*
X135203734Y-89374961D02*
X135060877Y-89422580D01*
X135060877Y-89422580D02*
X134965639Y-89422580D01*
X134965639Y-89422580D02*
X134822782Y-89374961D01*
X134822782Y-89374961D02*
X134775163Y-89327342D01*
D11*
X147829819Y-79961666D02*
X147353628Y-80294999D01*
X147829819Y-80533094D02*
X146829819Y-80533094D01*
X146829819Y-80533094D02*
X146829819Y-80152142D01*
X146829819Y-80152142D02*
X146877438Y-80056904D01*
X146877438Y-80056904D02*
X146925057Y-80009285D01*
X146925057Y-80009285D02*
X147020295Y-79961666D01*
X147020295Y-79961666D02*
X147163152Y-79961666D01*
X147163152Y-79961666D02*
X147258390Y-80009285D01*
X147258390Y-80009285D02*
X147306009Y-80056904D01*
X147306009Y-80056904D02*
X147353628Y-80152142D01*
X147353628Y-80152142D02*
X147353628Y-80533094D01*
X147829819Y-79009285D02*
X147829819Y-79580713D01*
X147829819Y-79294999D02*
X146829819Y-79294999D01*
X146829819Y-79294999D02*
X146972676Y-79390237D01*
X146972676Y-79390237D02*
X147067914Y-79485475D01*
X147067914Y-79485475D02*
X147115533Y-79580713D01*
X144329819Y-79961666D02*
X143853628Y-80294999D01*
X144329819Y-80533094D02*
X143329819Y-80533094D01*
X143329819Y-80533094D02*
X143329819Y-80152142D01*
X143329819Y-80152142D02*
X143377438Y-80056904D01*
X143377438Y-80056904D02*
X143425057Y-80009285D01*
X143425057Y-80009285D02*
X143520295Y-79961666D01*
X143520295Y-79961666D02*
X143663152Y-79961666D01*
X143663152Y-79961666D02*
X143758390Y-80009285D01*
X143758390Y-80009285D02*
X143806009Y-80056904D01*
X143806009Y-80056904D02*
X143853628Y-80152142D01*
X143853628Y-80152142D02*
X143853628Y-80533094D01*
X143425057Y-79580713D02*
X143377438Y-79533094D01*
X143377438Y-79533094D02*
X143329819Y-79437856D01*
X143329819Y-79437856D02*
X143329819Y-79199761D01*
X143329819Y-79199761D02*
X143377438Y-79104523D01*
X143377438Y-79104523D02*
X143425057Y-79056904D01*
X143425057Y-79056904D02*
X143520295Y-79009285D01*
X143520295Y-79009285D02*
X143615533Y-79009285D01*
X143615533Y-79009285D02*
X143758390Y-79056904D01*
X143758390Y-79056904D02*
X144329819Y-79628332D01*
X144329819Y-79628332D02*
X144329819Y-79009285D01*
X165000714Y-99444104D02*
X165476904Y-99444104D01*
X164905476Y-99729819D02*
X165238809Y-98729819D01*
X165238809Y-98729819D02*
X165572142Y-99729819D01*
X166429285Y-99729819D02*
X165857857Y-99729819D01*
X166143571Y-99729819D02*
X166143571Y-98729819D01*
X166143571Y-98729819D02*
X166048333Y-98872676D01*
X166048333Y-98872676D02*
X165953095Y-98967914D01*
X165953095Y-98967914D02*
X165857857Y-99015533D01*
X162726904Y-66180180D02*
X162726904Y-65370657D01*
X162726904Y-65370657D02*
X162679285Y-65275419D01*
X162679285Y-65275419D02*
X162631666Y-65227800D01*
X162631666Y-65227800D02*
X162536428Y-65180180D01*
X162536428Y-65180180D02*
X162345952Y-65180180D01*
X162345952Y-65180180D02*
X162250714Y-65227800D01*
X162250714Y-65227800D02*
X162203095Y-65275419D01*
X162203095Y-65275419D02*
X162155476Y-65370657D01*
X162155476Y-65370657D02*
X162155476Y-66180180D01*
X161726904Y-65227800D02*
X161584047Y-65180180D01*
X161584047Y-65180180D02*
X161345952Y-65180180D01*
X161345952Y-65180180D02*
X161250714Y-65227800D01*
X161250714Y-65227800D02*
X161203095Y-65275419D01*
X161203095Y-65275419D02*
X161155476Y-65370657D01*
X161155476Y-65370657D02*
X161155476Y-65465895D01*
X161155476Y-65465895D02*
X161203095Y-65561133D01*
X161203095Y-65561133D02*
X161250714Y-65608752D01*
X161250714Y-65608752D02*
X161345952Y-65656371D01*
X161345952Y-65656371D02*
X161536428Y-65703990D01*
X161536428Y-65703990D02*
X161631666Y-65751609D01*
X161631666Y-65751609D02*
X161679285Y-65799228D01*
X161679285Y-65799228D02*
X161726904Y-65894466D01*
X161726904Y-65894466D02*
X161726904Y-65989704D01*
X161726904Y-65989704D02*
X161679285Y-66084942D01*
X161679285Y-66084942D02*
X161631666Y-66132561D01*
X161631666Y-66132561D02*
X161536428Y-66180180D01*
X161536428Y-66180180D02*
X161298333Y-66180180D01*
X161298333Y-66180180D02*
X161155476Y-66132561D01*
X160393571Y-65703990D02*
X160250714Y-65656371D01*
X160250714Y-65656371D02*
X160203095Y-65608752D01*
X160203095Y-65608752D02*
X160155476Y-65513514D01*
X160155476Y-65513514D02*
X160155476Y-65370657D01*
X160155476Y-65370657D02*
X160203095Y-65275419D01*
X160203095Y-65275419D02*
X160250714Y-65227800D01*
X160250714Y-65227800D02*
X160345952Y-65180180D01*
X160345952Y-65180180D02*
X160726904Y-65180180D01*
X160726904Y-65180180D02*
X160726904Y-66180180D01*
X160726904Y-66180180D02*
X160393571Y-66180180D01*
X160393571Y-66180180D02*
X160298333Y-66132561D01*
X160298333Y-66132561D02*
X160250714Y-66084942D01*
X160250714Y-66084942D02*
X160203095Y-65989704D01*
X160203095Y-65989704D02*
X160203095Y-65894466D01*
X160203095Y-65894466D02*
X160250714Y-65799228D01*
X160250714Y-65799228D02*
X160298333Y-65751609D01*
X160298333Y-65751609D02*
X160393571Y-65703990D01*
X160393571Y-65703990D02*
X160726904Y-65703990D01*
X177269819Y-73561666D02*
X176793628Y-73894999D01*
X177269819Y-74133094D02*
X176269819Y-74133094D01*
X176269819Y-74133094D02*
X176269819Y-73752142D01*
X176269819Y-73752142D02*
X176317438Y-73656904D01*
X176317438Y-73656904D02*
X176365057Y-73609285D01*
X176365057Y-73609285D02*
X176460295Y-73561666D01*
X176460295Y-73561666D02*
X176603152Y-73561666D01*
X176603152Y-73561666D02*
X176698390Y-73609285D01*
X176698390Y-73609285D02*
X176746009Y-73656904D01*
X176746009Y-73656904D02*
X176793628Y-73752142D01*
X176793628Y-73752142D02*
X176793628Y-74133094D01*
X176603152Y-72704523D02*
X177269819Y-72704523D01*
X176222200Y-72942618D02*
X176936485Y-73180713D01*
X176936485Y-73180713D02*
X176936485Y-72561666D01*
X150111666Y-64849819D02*
X150111666Y-65564104D01*
X150111666Y-65564104D02*
X150064047Y-65706961D01*
X150064047Y-65706961D02*
X149968809Y-65802200D01*
X149968809Y-65802200D02*
X149825952Y-65849819D01*
X149825952Y-65849819D02*
X149730714Y-65849819D01*
X151111666Y-65849819D02*
X150540238Y-65849819D01*
X150825952Y-65849819D02*
X150825952Y-64849819D01*
X150825952Y-64849819D02*
X150730714Y-64992676D01*
X150730714Y-64992676D02*
X150635476Y-65087914D01*
X150635476Y-65087914D02*
X150540238Y-65135533D01*
X178325057Y-83450238D02*
X178277438Y-83545476D01*
X178277438Y-83545476D02*
X178182200Y-83640714D01*
X178182200Y-83640714D02*
X178039342Y-83783571D01*
X178039342Y-83783571D02*
X177991723Y-83878809D01*
X177991723Y-83878809D02*
X177991723Y-83974047D01*
X178229819Y-83926428D02*
X178182200Y-84021666D01*
X178182200Y-84021666D02*
X178086961Y-84116904D01*
X178086961Y-84116904D02*
X177896485Y-84164523D01*
X177896485Y-84164523D02*
X177563152Y-84164523D01*
X177563152Y-84164523D02*
X177372676Y-84116904D01*
X177372676Y-84116904D02*
X177277438Y-84021666D01*
X177277438Y-84021666D02*
X177229819Y-83926428D01*
X177229819Y-83926428D02*
X177229819Y-83735952D01*
X177229819Y-83735952D02*
X177277438Y-83640714D01*
X177277438Y-83640714D02*
X177372676Y-83545476D01*
X177372676Y-83545476D02*
X177563152Y-83497857D01*
X177563152Y-83497857D02*
X177896485Y-83497857D01*
X177896485Y-83497857D02*
X178086961Y-83545476D01*
X178086961Y-83545476D02*
X178182200Y-83640714D01*
X178182200Y-83640714D02*
X178229819Y-83735952D01*
X178229819Y-83735952D02*
X178229819Y-83926428D01*
X177325057Y-83116904D02*
X177277438Y-83069285D01*
X177277438Y-83069285D02*
X177229819Y-82974047D01*
X177229819Y-82974047D02*
X177229819Y-82735952D01*
X177229819Y-82735952D02*
X177277438Y-82640714D01*
X177277438Y-82640714D02*
X177325057Y-82593095D01*
X177325057Y-82593095D02*
X177420295Y-82545476D01*
X177420295Y-82545476D02*
X177515533Y-82545476D01*
X177515533Y-82545476D02*
X177658390Y-82593095D01*
X177658390Y-82593095D02*
X178229819Y-83164523D01*
X178229819Y-83164523D02*
X178229819Y-82545476D01*
X182339819Y-73561666D02*
X181863628Y-73894999D01*
X182339819Y-74133094D02*
X181339819Y-74133094D01*
X181339819Y-74133094D02*
X181339819Y-73752142D01*
X181339819Y-73752142D02*
X181387438Y-73656904D01*
X181387438Y-73656904D02*
X181435057Y-73609285D01*
X181435057Y-73609285D02*
X181530295Y-73561666D01*
X181530295Y-73561666D02*
X181673152Y-73561666D01*
X181673152Y-73561666D02*
X181768390Y-73609285D01*
X181768390Y-73609285D02*
X181816009Y-73656904D01*
X181816009Y-73656904D02*
X181863628Y-73752142D01*
X181863628Y-73752142D02*
X181863628Y-74133094D01*
X181339819Y-73228332D02*
X181339819Y-72609285D01*
X181339819Y-72609285D02*
X181720771Y-72942618D01*
X181720771Y-72942618D02*
X181720771Y-72799761D01*
X181720771Y-72799761D02*
X181768390Y-72704523D01*
X181768390Y-72704523D02*
X181816009Y-72656904D01*
X181816009Y-72656904D02*
X181911247Y-72609285D01*
X181911247Y-72609285D02*
X182149342Y-72609285D01*
X182149342Y-72609285D02*
X182244580Y-72656904D01*
X182244580Y-72656904D02*
X182292200Y-72704523D01*
X182292200Y-72704523D02*
X182339819Y-72799761D01*
X182339819Y-72799761D02*
X182339819Y-73085475D01*
X182339819Y-73085475D02*
X182292200Y-73180713D01*
X182292200Y-73180713D02*
X182244580Y-73228332D01*
X183455057Y-83490238D02*
X183407438Y-83585476D01*
X183407438Y-83585476D02*
X183312200Y-83680714D01*
X183312200Y-83680714D02*
X183169342Y-83823571D01*
X183169342Y-83823571D02*
X183121723Y-83918809D01*
X183121723Y-83918809D02*
X183121723Y-84014047D01*
X183359819Y-83966428D02*
X183312200Y-84061666D01*
X183312200Y-84061666D02*
X183216961Y-84156904D01*
X183216961Y-84156904D02*
X183026485Y-84204523D01*
X183026485Y-84204523D02*
X182693152Y-84204523D01*
X182693152Y-84204523D02*
X182502676Y-84156904D01*
X182502676Y-84156904D02*
X182407438Y-84061666D01*
X182407438Y-84061666D02*
X182359819Y-83966428D01*
X182359819Y-83966428D02*
X182359819Y-83775952D01*
X182359819Y-83775952D02*
X182407438Y-83680714D01*
X182407438Y-83680714D02*
X182502676Y-83585476D01*
X182502676Y-83585476D02*
X182693152Y-83537857D01*
X182693152Y-83537857D02*
X183026485Y-83537857D01*
X183026485Y-83537857D02*
X183216961Y-83585476D01*
X183216961Y-83585476D02*
X183312200Y-83680714D01*
X183312200Y-83680714D02*
X183359819Y-83775952D01*
X183359819Y-83775952D02*
X183359819Y-83966428D01*
X183359819Y-82585476D02*
X183359819Y-83156904D01*
X183359819Y-82871190D02*
X182359819Y-82871190D01*
X182359819Y-82871190D02*
X182502676Y-82966428D01*
X182502676Y-82966428D02*
X182597914Y-83061666D01*
X182597914Y-83061666D02*
X182645533Y-83156904D01*
D12*
%TO.C,R1*%
X148375000Y-76525000D02*
X148375000Y-83065000D01*
X148375000Y-83065000D02*
X151115000Y-83065000D01*
X149745000Y-75755000D02*
X149745000Y-76525000D01*
X149745000Y-83835000D02*
X149745000Y-83065000D01*
X151115000Y-76525000D02*
X148375000Y-76525000D01*
X151115000Y-83065000D02*
X151115000Y-76525000D01*
%TO.C,R2*%
X144875000Y-76525000D02*
X144875000Y-83065000D01*
X144875000Y-83065000D02*
X147615000Y-83065000D01*
X146245000Y-75755000D02*
X146245000Y-76525000D01*
X146245000Y-83835000D02*
X146245000Y-83065000D01*
X147615000Y-76525000D02*
X144875000Y-76525000D01*
X147615000Y-83065000D02*
X147615000Y-76525000D01*
%TO.C,A1*%
X152445000Y-61695000D02*
X152445000Y-105135000D01*
X152445000Y-61695000D02*
X157525000Y-61695000D01*
X152445000Y-105135000D02*
X170485000Y-105135000D01*
X155115000Y-64365000D02*
X152445000Y-64365000D01*
X155115000Y-102465000D02*
X152445000Y-102465000D01*
X155115000Y-102465000D02*
X155115000Y-64365000D01*
X157525000Y-59155000D02*
X165405000Y-59155000D01*
X157525000Y-69575000D02*
X157525000Y-59155000D01*
X165405000Y-59155000D02*
X165405000Y-69575000D01*
X165405000Y-69575000D02*
X157525000Y-69575000D01*
X167815000Y-64365000D02*
X170485000Y-64365000D01*
X167815000Y-99925000D02*
X167815000Y-64365000D01*
X167815000Y-99925000D02*
X167815000Y-102465000D01*
X167815000Y-99925000D02*
X170485000Y-99925000D01*
X167815000Y-102465000D02*
X170485000Y-102465000D01*
X170485000Y-61695000D02*
X165405000Y-61695000D01*
X170485000Y-99925000D02*
X170485000Y-61695000D01*
X170485000Y-105135000D02*
X170485000Y-102465000D01*
%TO.C,R4*%
X173075000Y-70125000D02*
X173075000Y-76665000D01*
X173075000Y-76665000D02*
X175815000Y-76665000D01*
X174445000Y-69355000D02*
X174445000Y-70125000D01*
X174445000Y-77435000D02*
X174445000Y-76665000D01*
X175815000Y-70125000D02*
X173075000Y-70125000D01*
X175815000Y-76665000D02*
X175815000Y-70125000D01*
%TO.C,J1*%
X143185000Y-66785000D02*
X143185000Y-72755000D01*
X143185000Y-72755000D02*
X150805000Y-72755000D01*
X143195000Y-70495000D02*
X143945000Y-70495000D01*
X143195000Y-71995000D02*
X143195000Y-72745000D01*
X143195000Y-72745000D02*
X144995000Y-72745000D01*
X143945000Y-67545000D02*
X146995000Y-67545000D01*
X143945000Y-70495000D02*
X143945000Y-67545000D01*
X144995000Y-71995000D02*
X143195000Y-71995000D01*
X144995000Y-72745000D02*
X144995000Y-71995000D01*
X146495000Y-71995000D02*
X146495000Y-72745000D01*
X146495000Y-72745000D02*
X147495000Y-72745000D01*
X146995000Y-67545000D02*
X148985000Y-67545000D01*
X147495000Y-71995000D02*
X146495000Y-71995000D01*
X147495000Y-72745000D02*
X147495000Y-71995000D01*
X148995000Y-71995000D02*
X148995000Y-72745000D01*
X148995000Y-72745000D02*
X150795000Y-72745000D01*
X149845000Y-73045000D02*
X151095000Y-73045000D01*
X150045000Y-70495000D02*
X150045000Y-69155000D01*
X150795000Y-70495000D02*
X150045000Y-70495000D01*
X150795000Y-71995000D02*
X148995000Y-71995000D01*
X150795000Y-72745000D02*
X150795000Y-71995000D01*
X150805000Y-66785000D02*
X143185000Y-66785000D01*
X150805000Y-72755000D02*
X150805000Y-66785000D01*
X151095000Y-73045000D02*
X151095000Y-71795000D01*
%TO.C,Q2*%
X172365000Y-81555000D02*
X172365000Y-85155000D01*
X172376522Y-81516522D02*
G75*
G02*
X176815001Y-83355000I1838478J-1838478D01*
G01*
X176815000Y-83355000D02*
G75*
G02*
X172376522Y-85193478I-2600000J0D01*
G01*
%TO.C,R3*%
X178145000Y-70125000D02*
X178145000Y-76665000D01*
X178145000Y-76665000D02*
X180885000Y-76665000D01*
X179515000Y-69355000D02*
X179515000Y-70125000D01*
X179515000Y-77435000D02*
X179515000Y-76665000D01*
X180885000Y-70125000D02*
X178145000Y-70125000D01*
X180885000Y-76665000D02*
X180885000Y-70125000D01*
%TO.C,Q1*%
X177495000Y-81595000D02*
X177495000Y-85195000D01*
X177506522Y-81556522D02*
G75*
G02*
X181945001Y-83395000I1838478J-1838478D01*
G01*
X181945000Y-83395000D02*
G75*
G02*
X177506522Y-85233478I-2600000J0D01*
G01*
%TD*%
D13*
X141445000Y-58395000D02*
X184445000Y-58395000D01*
X184445000Y-106395000D01*
X141445000Y-106395000D01*
X141445000Y-58395000D01*
M02*
