M48
; DRILL file {KiCad 8.0.5} date 2025-02-08T21:47:29+0800
; FORMAT={-:-/ absolute / metric / decimal}
; #@! TF.CreationDate,2025-02-08T21:47:29+08:00
; #@! TF.GenerationSoftware,Kicad,Pcbnew,8.0.5
; #@! TF.FileFunction,Plated,1,2,PTH
FMAT,2
METRIC
; #@! TA.AperFunction,Plated,PTH,ViaDrill
T1C0.300
; #@! TA.AperFunction,Plated,PTH,ComponentDrill
T2C0.750
; #@! TA.AperFunction,Plated,PTH,ComponentDrill
T3C0.800
; #@! TA.AperFunction,Plated,PTH,ComponentDrill
T4C1.000
%
G90
G05
T1
X176.445Y-78.395
T2
X174.215Y-82.085
X174.215Y-83.355
X174.215Y-84.625
X179.345Y-82.125
X179.345Y-83.395
X179.345Y-84.665
T3
X146.245Y-74.715
X146.245Y-84.875
X149.745Y-74.715
X149.745Y-84.875
X174.445Y-68.315
X174.445Y-78.475
X179.515Y-68.315
X179.515Y-78.475
T4
X145.745Y-70.295
X148.245Y-70.295
X153.845Y-65.635
X153.845Y-68.175
X153.845Y-70.715
X153.845Y-73.255
X153.845Y-75.795
X153.845Y-78.335
X153.845Y-80.875
X153.845Y-83.415
X153.845Y-85.955
X153.845Y-88.495
X153.845Y-91.035
X153.845Y-93.575
X153.845Y-96.115
X153.845Y-98.655
X153.845Y-101.195
X169.085Y-65.635
X169.085Y-68.175
X169.085Y-70.715
X169.085Y-73.255
X169.085Y-75.795
X169.085Y-78.335
X169.085Y-80.875
X169.085Y-83.415
X169.085Y-85.955
X169.085Y-88.495
X169.085Y-91.035
X169.085Y-93.575
X169.085Y-96.115
X169.085Y-98.655
X169.085Y-101.195
X176.445Y-89.975
X176.445Y-92.515
X176.445Y-95.055
X176.445Y-97.595
X176.445Y-100.135
M30
