<?xml version="1.0" standalone="no"?>
 <!DOCTYPE svg PUBLIC "-//W3C//DTD SVG 1.1//EN" 
 "http://www.w3.org/Graphics/SVG/1.1/DTD/svg11.dtd"> 
<svg
  xmlns:svg="http://www.w3.org/2000/svg"
  xmlns="http://www.w3.org/2000/svg"
  xmlns:xlink="http://www.w3.org/1999/xlink"
  version="1.1"
  width="297.0022mm" height="210.0072mm" viewBox="0.0000 0.0000 297.0022 210.0072">
<title>SVG Image created as arduino_solar_bikelight_1-B_Silkscreen.svg date 2025/02/08 22:14:27 </title>
  <desc>Image generated by PCBNEW </desc>
<g style="fill:#000000; fill-opacity:1.0000;stroke:#000000; stroke-opacity:1.0000;
stroke-linecap:round; stroke-linejoin:round;"
 transform="translate(0 0) scale(1 1)">
</g>
<g style="fill:none; 
stroke:#000000; stroke-width:0.1500; stroke-opacity:1; 
stroke-linecap:round; stroke-linejoin:round;">
<text x="176.4450" y="88.1450"
transform="scale(-1 1) translate(-352.890000 0)"
textLength="1.9643" font-size="1.3333" lengthAdjust="spacingAndGlyphs"
text-anchor="middle" opacity="0" stroke-opacity="0">J4</text>
<g class="stroked-text"><desc>J4</desc>
<path d="M176.7783 87.0998
L176.7783 87.8141
" />
<path d="M176.7783 87.8141
L176.8260 87.9570
" />
<path d="M176.8260 87.9570
L176.9212 88.0522
" />
<path d="M176.9212 88.0522
L177.0640 88.0998
" />
<path d="M177.0640 88.0998
L177.1593 88.0998
" />
<path d="M175.8736 87.4332
L175.8736 88.0998
" />
<path d="M176.1117 87.0522
L176.3498 87.7665
" />
<path d="M176.3498 87.7665
L175.7307 87.7665
" />
</g></g>
<g style="fill:none; 
stroke:#000000; stroke-width:0.1200; stroke-opacity:1; 
stroke-linecap:round; stroke-linejoin:round;">
<path d="M175.1150 91.2450
L177.7750 91.2450
" />
<path d="M175.1150 101.4650
L175.1150 91.2450
" />
<path d="M175.1150 101.4650
L177.7750 101.4650
" />
<path d="M176.4450 88.6450
L177.7750 88.6450
" />
<path d="M177.7750 88.6450
L177.7750 89.9750
" />
<path d="M177.7750 101.4650
L177.7750 91.2450
" />
<path style="fill:none; 
stroke:#000000; stroke-width:0.0500; stroke-opacity:1; 
stroke-linecap:round; stroke-linejoin:round;fill:none"
d="M 141.4450,58.3950
184.4450,58.3950
184.4450,106.3950
141.4450,106.3950
Z" /> 
</g> 
</svg>
