%TF.GenerationSoftware,KiCad,Pcbnew,8.0.5*%
%TF.CreationDate,2025-02-09T09:24:22+08:00*%
%TF.ProjectId,arduino_solar_bikelight_1,61726475-696e-46f5-9f73-6f6c61725f62,rev?*%
%TF.SameCoordinates,Original*%
%TF.FileFunction,Copper,L1,Top*%
%TF.FilePolarity,Positive*%
%FSLAX46Y46*%
G04 Gerber Fmt 4.6, Leading zero omitted, Abs format (unit mm)*
G04 Created by KiCad (PCBNEW 8.0.5) date 2025-02-09 09:24:22*
%MOMM*%
%LPD*%
G01*
G04 APERTURE LIST*
G04 Aperture macros list*
%AMRoundRect*
0 Rectangle with rounded corners*
0 $1 Rounding radius*
0 $2 $3 $4 $5 $6 $7 $8 $9 X,Y pos of 4 corners*
0 Add a 4 corners polygon primitive as box body*
4,1,4,$2,$3,$4,$5,$6,$7,$8,$9,$2,$3,0*
0 Add four circle primitives for the rounded corners*
1,1,$1+$1,$2,$3*
1,1,$1+$1,$4,$5*
1,1,$1+$1,$6,$7*
1,1,$1+$1,$8,$9*
0 Add four rect primitives between the rounded corners*
20,1,$1+$1,$2,$3,$4,$5,0*
20,1,$1+$1,$4,$5,$6,$7,0*
20,1,$1+$1,$6,$7,$8,$9,0*
20,1,$1+$1,$8,$9,$2,$3,0*%
G04 Aperture macros list end*
%TA.AperFunction,ComponentPad*%
%ADD10C,1.600000*%
%TD*%
%TA.AperFunction,ComponentPad*%
%ADD11O,1.600000X1.600000*%
%TD*%
%TA.AperFunction,ComponentPad*%
%ADD12R,1.600000X1.600000*%
%TD*%
%TA.AperFunction,ComponentPad*%
%ADD13RoundRect,0.250000X0.600000X0.750000X-0.600000X0.750000X-0.600000X-0.750000X0.600000X-0.750000X0*%
%TD*%
%TA.AperFunction,ComponentPad*%
%ADD14O,1.700000X2.000000*%
%TD*%
%TA.AperFunction,ComponentPad*%
%ADD15R,1.500000X1.050000*%
%TD*%
%TA.AperFunction,ComponentPad*%
%ADD16O,1.500000X1.050000*%
%TD*%
%TA.AperFunction,ComponentPad*%
%ADD17R,1.700000X1.700000*%
%TD*%
%TA.AperFunction,ComponentPad*%
%ADD18O,1.700000X1.700000*%
%TD*%
%TA.AperFunction,ViaPad*%
%ADD19C,0.600000*%
%TD*%
%TA.AperFunction,Profile*%
%ADD20C,0.050000*%
%TD*%
G04 APERTURE END LIST*
D10*
%TO.P,R1,1*%
%TO.N,+BATT*%
X149745000Y-84875000D03*
D11*
%TO.P,R1,2*%
%TO.N,/BAT_PIN*%
X149745000Y-74715000D03*
%TD*%
D10*
%TO.P,R2,1*%
%TO.N,-BATT*%
X146245000Y-84875000D03*
D11*
%TO.P,R2,2*%
%TO.N,/BAT_PIN*%
X146245000Y-74715000D03*
%TD*%
D12*
%TO.P,A1,1,D1/TX*%
%TO.N,unconnected-(A1-D1{slash}TX-Pad1)*%
X169085000Y-101195000D03*
D11*
%TO.P,A1,2,D0/RX*%
%TO.N,unconnected-(A1-D0{slash}RX-Pad2)*%
X169085000Y-98655000D03*
%TO.P,A1,3,~{RESET}*%
%TO.N,unconnected-(A1-~{RESET}-Pad3)*%
X169085000Y-96115000D03*
%TO.P,A1,4,GND*%
%TO.N,-BATT*%
X169085000Y-93575000D03*
%TO.P,A1,5,D2*%
%TO.N,/BUTTON_PIN*%
X169085000Y-91035000D03*
%TO.P,A1,6,D3*%
%TO.N,unconnected-(A1-D3-Pad6)*%
X169085000Y-88495000D03*
%TO.P,A1,7,D4*%
%TO.N,/LOW_LED_PIN*%
X169085000Y-85955000D03*
%TO.P,A1,8,D5*%
%TO.N,/CHARGING_LED_PIN*%
X169085000Y-83415000D03*
%TO.P,A1,9,D6*%
%TO.N,/HIGH_LED_PIN*%
X169085000Y-80875000D03*
%TO.P,A1,10,D7*%
%TO.N,unconnected-(A1-D7-Pad10)*%
X169085000Y-78335000D03*
%TO.P,A1,11,D8*%
%TO.N,unconnected-(A1-D8-Pad11)*%
X169085000Y-75795000D03*
%TO.P,A1,12,D9*%
%TO.N,unconnected-(A1-D9-Pad12)*%
X169085000Y-73255000D03*
%TO.P,A1,13,D10*%
%TO.N,unconnected-(A1-D10-Pad13)*%
X169085000Y-70715000D03*
%TO.P,A1,14,D11*%
%TO.N,unconnected-(A1-D11-Pad14)*%
X169085000Y-68175000D03*
%TO.P,A1,15,D12*%
%TO.N,unconnected-(A1-D12-Pad15)*%
X169085000Y-65635000D03*
%TO.P,A1,16,D13*%
%TO.N,unconnected-(A1-D13-Pad16)*%
X153845000Y-65635000D03*
%TO.P,A1,17,3V3*%
%TO.N,unconnected-(A1-3V3-Pad17)*%
X153845000Y-68175000D03*
%TO.P,A1,18,AREF*%
%TO.N,unconnected-(A1-AREF-Pad18)*%
X153845000Y-70715000D03*
%TO.P,A1,19,A0*%
%TO.N,unconnected-(A1-A0-Pad19)*%
X153845000Y-73255000D03*
%TO.P,A1,20,A1*%
%TO.N,/BAT_PIN*%
X153845000Y-75795000D03*
%TO.P,A1,21,A2*%
%TO.N,unconnected-(A1-A2-Pad21)*%
X153845000Y-78335000D03*
%TO.P,A1,22,A3*%
%TO.N,unconnected-(A1-A3-Pad22)*%
X153845000Y-80875000D03*
%TO.P,A1,23,A4*%
%TO.N,unconnected-(A1-A4-Pad23)*%
X153845000Y-83415000D03*
%TO.P,A1,24,A5*%
%TO.N,unconnected-(A1-A5-Pad24)*%
X153845000Y-85955000D03*
%TO.P,A1,25,A6*%
%TO.N,unconnected-(A1-A6-Pad25)*%
X153845000Y-88495000D03*
%TO.P,A1,26,A7*%
%TO.N,unconnected-(A1-A7-Pad26)*%
X153845000Y-91035000D03*
%TO.P,A1,27,+5V*%
%TO.N,+BATT*%
X153845000Y-93575000D03*
%TO.P,A1,28,~{RESET}*%
%TO.N,unconnected-(A1-~{RESET}-Pad28)*%
X153845000Y-96115000D03*
%TO.P,A1,29,GND*%
%TO.N,-BATT*%
X153845000Y-98655000D03*
%TO.P,A1,30,VIN*%
%TO.N,unconnected-(A1-VIN-Pad30)*%
X153845000Y-101195000D03*
%TD*%
D10*
%TO.P,R4,1*%
%TO.N,/HIGH_LED_PIN*%
X174445000Y-68315000D03*
D11*
%TO.P,R4,2*%
%TO.N,Net-(Q2-B)*%
X174445000Y-78475000D03*
%TD*%
D13*
%TO.P,J1,1,Pin_1*%
%TO.N,+BATT*%
X148245000Y-70295000D03*
D14*
%TO.P,J1,2,Pin_2*%
%TO.N,-BATT*%
X145745000Y-70295000D03*
%TD*%
D15*
%TO.P,Q2,1,E*%
%TO.N,/LOW_LED_OUT*%
X174215000Y-82085000D03*
D16*
%TO.P,Q2,2,B*%
%TO.N,Net-(Q2-B)*%
X174215000Y-83355000D03*
%TO.P,Q2,3,C*%
%TO.N,+BATT*%
X174215000Y-84625000D03*
%TD*%
D10*
%TO.P,R3,1*%
%TO.N,/LOW_LED_PIN*%
X179515000Y-68315000D03*
D11*
%TO.P,R3,2*%
%TO.N,Net-(Q1-B)*%
X179515000Y-78475000D03*
%TD*%
D15*
%TO.P,Q1,1,E*%
%TO.N,/HIGH_LED_OUT+*%
X179345000Y-82125000D03*
D16*
%TO.P,Q1,2,B*%
%TO.N,Net-(Q1-B)*%
X179345000Y-83395000D03*
%TO.P,Q1,3,C*%
%TO.N,+BATT*%
X179345000Y-84665000D03*
%TD*%
D17*
%TO.P,J4,1,Pin_1*%
%TO.N,/LOW_LED_OUT*%
X176445000Y-89975000D03*
D18*
%TO.P,J4,2,Pin_2*%
%TO.N,/HIGH_LED_OUT+*%
X176445000Y-92515000D03*
%TO.P,J4,3,Pin_3*%
%TO.N,/CHARGING_LED_PIN*%
X176445000Y-95055000D03*
%TO.P,J4,4,Pin_4*%
%TO.N,/BUTTON_PIN*%
X176445000Y-97595000D03*
%TO.P,J4,5,Pin_5*%
%TO.N,-BATT*%
X176445000Y-100135000D03*
%TD*%
D19*
%TO.N,-BATT*%
X176445000Y-78395000D03*
%TD*%
%TA.AperFunction,Conductor*%
%TO.N,-BATT*%
G36*
X183837539Y-58965185D02*
G01*
X183883294Y-59017989D01*
X183894500Y-59069500D01*
X183894500Y-105720500D01*
X183874815Y-105787539D01*
X183822011Y-105833294D01*
X183770500Y-105844500D01*
X142119500Y-105844500D01*
X142052461Y-105824815D01*
X142006706Y-105772011D01*
X141995500Y-105720500D01*
X141995500Y-103273711D01*
X142594500Y-103273711D01*
X142594500Y-103516288D01*
X142626161Y-103756785D01*
X142688947Y-103991104D01*
X142781773Y-104215205D01*
X142781776Y-104215212D01*
X142903064Y-104425289D01*
X142903066Y-104425292D01*
X142903067Y-104425293D01*
X143050733Y-104617736D01*
X143050739Y-104617743D01*
X143222256Y-104789260D01*
X143222262Y-104789265D01*
X143414711Y-104936936D01*
X143624788Y-105058224D01*
X143848900Y-105151054D01*
X144083211Y-105213838D01*
X144263586Y-105237584D01*
X144323711Y-105245500D01*
X144323712Y-105245500D01*
X144566289Y-105245500D01*
X144614388Y-105239167D01*
X144806789Y-105213838D01*
X145041100Y-105151054D01*
X145265212Y-105058224D01*
X145475289Y-104936936D01*
X145667738Y-104789265D01*
X145839265Y-104617738D01*
X145986936Y-104425289D01*
X146108224Y-104215212D01*
X146201054Y-103991100D01*
X146263838Y-103756789D01*
X146295500Y-103516288D01*
X146295500Y-103273712D01*
X146295500Y-103273711D01*
X179594500Y-103273711D01*
X179594500Y-103516288D01*
X179626161Y-103756785D01*
X179688947Y-103991104D01*
X179781773Y-104215205D01*
X179781776Y-104215212D01*
X179903064Y-104425289D01*
X179903066Y-104425292D01*
X179903067Y-104425293D01*
X180050733Y-104617736D01*
X180050739Y-104617743D01*
X180222256Y-104789260D01*
X180222262Y-104789265D01*
X180414711Y-104936936D01*
X180624788Y-105058224D01*
X180848900Y-105151054D01*
X181083211Y-105213838D01*
X181263586Y-105237584D01*
X181323711Y-105245500D01*
X181323712Y-105245500D01*
X181566289Y-105245500D01*
X181614388Y-105239167D01*
X181806789Y-105213838D01*
X182041100Y-105151054D01*
X182265212Y-105058224D01*
X182475289Y-104936936D01*
X182667738Y-104789265D01*
X182839265Y-104617738D01*
X182986936Y-104425289D01*
X183108224Y-104215212D01*
X183201054Y-103991100D01*
X183263838Y-103756789D01*
X183295500Y-103516288D01*
X183295500Y-103273712D01*
X183263838Y-103033211D01*
X183201054Y-102798900D01*
X183108224Y-102574788D01*
X182986936Y-102364711D01*
X182857096Y-102195500D01*
X182839266Y-102172263D01*
X182839260Y-102172256D01*
X182667743Y-102000739D01*
X182667736Y-102000733D01*
X182475293Y-101853067D01*
X182475292Y-101853066D01*
X182475289Y-101853064D01*
X182265212Y-101731776D01*
X182265205Y-101731773D01*
X182041104Y-101638947D01*
X181820116Y-101579733D01*
X181806789Y-101576162D01*
X181806788Y-101576161D01*
X181806785Y-101576161D01*
X181566289Y-101544500D01*
X181566288Y-101544500D01*
X181323712Y-101544500D01*
X181323711Y-101544500D01*
X181083214Y-101576161D01*
X180848895Y-101638947D01*
X180624794Y-101731773D01*
X180624785Y-101731777D01*
X180414706Y-101853067D01*
X180222263Y-102000733D01*
X180222256Y-102000739D01*
X180050739Y-102172256D01*
X180050733Y-102172263D01*
X179903067Y-102364706D01*
X179781777Y-102574785D01*
X179781773Y-102574794D01*
X179688947Y-102798895D01*
X179626161Y-103033214D01*
X179594500Y-103273711D01*
X146295500Y-103273711D01*
X146263838Y-103033211D01*
X146201054Y-102798900D01*
X146108224Y-102574788D01*
X145986936Y-102364711D01*
X145857096Y-102195500D01*
X145839266Y-102172263D01*
X145839260Y-102172256D01*
X145667743Y-102000739D01*
X145667736Y-102000733D01*
X145475293Y-101853067D01*
X145475292Y-101853066D01*
X145475289Y-101853064D01*
X145265212Y-101731776D01*
X145265205Y-101731773D01*
X145041104Y-101638947D01*
X144820116Y-101579733D01*
X144806789Y-101576162D01*
X144806788Y-101576161D01*
X144806785Y-101576161D01*
X144566289Y-101544500D01*
X144566288Y-101544500D01*
X144323712Y-101544500D01*
X144323711Y-101544500D01*
X144083214Y-101576161D01*
X143848895Y-101638947D01*
X143624794Y-101731773D01*
X143624785Y-101731777D01*
X143414706Y-101853067D01*
X143222263Y-102000733D01*
X143222256Y-102000739D01*
X143050739Y-102172256D01*
X143050733Y-102172263D01*
X142903067Y-102364706D01*
X142781777Y-102574785D01*
X142781773Y-102574794D01*
X142688947Y-102798895D01*
X142626161Y-103033214D01*
X142594500Y-103273711D01*
X141995500Y-103273711D01*
X141995500Y-101195000D01*
X152839659Y-101195000D01*
X152858975Y-101391129D01*
X152916188Y-101579733D01*
X153009086Y-101753532D01*
X153009090Y-101753539D01*
X153134116Y-101905883D01*
X153286460Y-102030909D01*
X153286467Y-102030913D01*
X153460266Y-102123811D01*
X153460269Y-102123811D01*
X153460273Y-102123814D01*
X153648868Y-102181024D01*
X153845000Y-102200341D01*
X154041132Y-102181024D01*
X154229727Y-102123814D01*
X154403538Y-102030910D01*
X154555883Y-101905883D01*
X154680910Y-101753538D01*
X154773814Y-101579727D01*
X154831024Y-101391132D01*
X154850341Y-101195000D01*
X154831024Y-100998868D01*
X154773814Y-100810273D01*
X154773811Y-100810269D01*
X154773811Y-100810266D01*
X154680913Y-100636467D01*
X154680909Y-100636460D01*
X154555883Y-100484116D01*
X154423226Y-100375247D01*
X168084500Y-100375247D01*
X168084500Y-102014752D01*
X168096131Y-102073229D01*
X168096132Y-102073230D01*
X168140447Y-102139552D01*
X168206769Y-102183867D01*
X168206770Y-102183868D01*
X168265247Y-102195499D01*
X168265250Y-102195500D01*
X168265252Y-102195500D01*
X169904750Y-102195500D01*
X169904751Y-102195499D01*
X169919568Y-102192552D01*
X169963229Y-102183868D01*
X169963229Y-102183867D01*
X169963231Y-102183867D01*
X170029552Y-102139552D01*
X170073867Y-102073231D01*
X170073867Y-102073229D01*
X170073868Y-102073229D01*
X170085499Y-102014752D01*
X170085500Y-102014750D01*
X170085500Y-100375249D01*
X170085499Y-100375247D01*
X170073868Y-100316770D01*
X170073867Y-100316769D01*
X170029552Y-100250447D01*
X169963230Y-100206132D01*
X169963229Y-100206131D01*
X169904752Y-100194500D01*
X169904748Y-100194500D01*
X168265252Y-100194500D01*
X168265247Y-100194500D01*
X168206770Y-100206131D01*
X168206769Y-100206132D01*
X168140447Y-100250447D01*
X168096132Y-100316769D01*
X168096131Y-100316770D01*
X168084500Y-100375247D01*
X154423226Y-100375247D01*
X154403539Y-100359090D01*
X154403532Y-100359086D01*
X154229733Y-100266188D01*
X154229727Y-100266186D01*
X154041132Y-100208976D01*
X154041129Y-100208975D01*
X153845000Y-100189659D01*
X153648870Y-100208975D01*
X153460266Y-100266188D01*
X153286467Y-100359086D01*
X153286460Y-100359090D01*
X153134116Y-100484116D01*
X153009090Y-100636460D01*
X153009086Y-100636467D01*
X152916188Y-100810266D01*
X152858975Y-100998870D01*
X152839659Y-101195000D01*
X141995500Y-101195000D01*
X141995500Y-98404999D01*
X152566127Y-98404999D01*
X152566128Y-98405000D01*
X153411988Y-98405000D01*
X153379075Y-98462007D01*
X153345000Y-98589174D01*
X153345000Y-98720826D01*
X153379075Y-98847993D01*
X153411988Y-98905000D01*
X152566128Y-98905000D01*
X152618730Y-99101317D01*
X152618734Y-99101326D01*
X152714865Y-99307482D01*
X152845342Y-99493820D01*
X153006179Y-99654657D01*
X153192517Y-99785134D01*
X153398673Y-99881265D01*
X153398682Y-99881269D01*
X153594999Y-99933872D01*
X153595000Y-99933871D01*
X153595000Y-99088012D01*
X153652007Y-99120925D01*
X153779174Y-99155000D01*
X153910826Y-99155000D01*
X154037993Y-99120925D01*
X154095000Y-99088012D01*
X154095000Y-99933872D01*
X154277396Y-99884999D01*
X175114364Y-99884999D01*
X175114364Y-99885000D01*
X176011988Y-99885000D01*
X175979075Y-99942007D01*
X175945000Y-100069174D01*
X175945000Y-100200826D01*
X175979075Y-100327993D01*
X176011988Y-100385000D01*
X175114364Y-100385000D01*
X175171567Y-100598486D01*
X175171570Y-100598492D01*
X175271399Y-100812578D01*
X175406894Y-101006082D01*
X175573917Y-101173105D01*
X175767421Y-101308600D01*
X175981507Y-101408429D01*
X175981516Y-101408433D01*
X176195000Y-101465634D01*
X176195000Y-100568012D01*
X176252007Y-100600925D01*
X176379174Y-100635000D01*
X176510826Y-100635000D01*
X176637993Y-100600925D01*
X176695000Y-100568012D01*
X176695000Y-101465633D01*
X176908483Y-101408433D01*
X176908492Y-101408429D01*
X177122578Y-101308600D01*
X177316082Y-101173105D01*
X177483105Y-101006082D01*
X177618600Y-100812578D01*
X177718429Y-100598492D01*
X177718432Y-100598486D01*
X177775636Y-100385000D01*
X176878012Y-100385000D01*
X176910925Y-100327993D01*
X176945000Y-100200826D01*
X176945000Y-100069174D01*
X176910925Y-99942007D01*
X176878012Y-99885000D01*
X177775636Y-99885000D01*
X177775635Y-99884999D01*
X177718432Y-99671513D01*
X177718429Y-99671507D01*
X177618600Y-99457422D01*
X177618599Y-99457420D01*
X177483113Y-99263926D01*
X177483108Y-99263920D01*
X177316082Y-99096894D01*
X177122578Y-98961399D01*
X176908492Y-98861570D01*
X176908486Y-98861567D01*
X176786349Y-98828841D01*
X176726689Y-98792476D01*
X176696160Y-98729629D01*
X176704455Y-98660253D01*
X176748940Y-98606375D01*
X176782444Y-98590407D01*
X176848954Y-98570232D01*
X177031450Y-98472685D01*
X177191410Y-98341410D01*
X177322685Y-98181450D01*
X177420232Y-97998954D01*
X177480300Y-97800934D01*
X177500583Y-97595000D01*
X177480300Y-97389066D01*
X177420232Y-97191046D01*
X177322685Y-97008550D01*
X177270702Y-96945209D01*
X177191410Y-96848589D01*
X177031452Y-96717317D01*
X177031453Y-96717317D01*
X177031450Y-96717315D01*
X176848954Y-96619768D01*
X176650934Y-96559700D01*
X176650932Y-96559699D01*
X176650934Y-96559699D01*
X176445000Y-96539417D01*
X176239067Y-96559699D01*
X176041043Y-96619769D01*
X175940450Y-96673538D01*
X175858550Y-96717315D01*
X175858548Y-96717316D01*
X175858547Y-96717317D01*
X175698589Y-96848589D01*
X175567317Y-97008547D01*
X175567315Y-97008550D01*
X175548466Y-97043814D01*
X175469769Y-97191043D01*
X175409699Y-97389067D01*
X175389417Y-97595000D01*
X175409699Y-97800932D01*
X175409700Y-97800934D01*
X175469768Y-97998954D01*
X175567315Y-98181450D01*
X175567317Y-98181452D01*
X175698589Y-98341410D01*
X175706611Y-98347993D01*
X175858550Y-98472685D01*
X176041046Y-98570232D01*
X176107551Y-98590405D01*
X176165989Y-98628702D01*
X176194446Y-98692514D01*
X176183887Y-98761581D01*
X176137663Y-98813975D01*
X176103650Y-98828841D01*
X175981514Y-98861567D01*
X175981507Y-98861570D01*
X175767422Y-98961399D01*
X175767420Y-98961400D01*
X175573926Y-99096886D01*
X175573920Y-99096891D01*
X175406891Y-99263920D01*
X175406886Y-99263926D01*
X175271400Y-99457420D01*
X175271399Y-99457422D01*
X175171570Y-99671507D01*
X175171567Y-99671513D01*
X175114364Y-99884999D01*
X154277396Y-99884999D01*
X154291317Y-99881269D01*
X154291326Y-99881265D01*
X154497482Y-99785134D01*
X154683820Y-99654657D01*
X154844657Y-99493820D01*
X154975134Y-99307482D01*
X155071265Y-99101326D01*
X155071269Y-99101317D01*
X155123872Y-98905000D01*
X154278012Y-98905000D01*
X154310925Y-98847993D01*
X154345000Y-98720826D01*
X154345000Y-98655000D01*
X168079659Y-98655000D01*
X168098975Y-98851129D01*
X168156188Y-99039733D01*
X168249086Y-99213532D01*
X168249090Y-99213539D01*
X168374116Y-99365883D01*
X168526460Y-99490909D01*
X168526467Y-99490913D01*
X168700266Y-99583811D01*
X168700269Y-99583811D01*
X168700273Y-99583814D01*
X168888868Y-99641024D01*
X169085000Y-99660341D01*
X169281132Y-99641024D01*
X169469727Y-99583814D01*
X169643538Y-99490910D01*
X169795883Y-99365883D01*
X169920910Y-99213538D01*
X169983262Y-99096886D01*
X170013811Y-99039733D01*
X170013811Y-99039732D01*
X170013814Y-99039727D01*
X170071024Y-98851132D01*
X170090341Y-98655000D01*
X170071024Y-98458868D01*
X170013814Y-98270273D01*
X170013811Y-98270269D01*
X170013811Y-98270266D01*
X169920913Y-98096467D01*
X169920909Y-98096460D01*
X169795883Y-97944116D01*
X169643539Y-97819090D01*
X169643532Y-97819086D01*
X169469733Y-97726188D01*
X169469727Y-97726186D01*
X169281132Y-97668976D01*
X169281129Y-97668975D01*
X169085000Y-97649659D01*
X168888870Y-97668975D01*
X168700266Y-97726188D01*
X168526467Y-97819086D01*
X168526460Y-97819090D01*
X168374116Y-97944116D01*
X168249090Y-98096460D01*
X168249086Y-98096467D01*
X168156188Y-98270266D01*
X168098975Y-98458870D01*
X168079659Y-98655000D01*
X154345000Y-98655000D01*
X154345000Y-98589174D01*
X154310925Y-98462007D01*
X154278012Y-98405000D01*
X155123872Y-98405000D01*
X155123872Y-98404999D01*
X155071269Y-98208682D01*
X155071265Y-98208673D01*
X154975134Y-98002517D01*
X154844657Y-97816179D01*
X154683820Y-97655342D01*
X154497482Y-97524865D01*
X154291328Y-97428734D01*
X154095000Y-97376127D01*
X154095000Y-98221988D01*
X154037993Y-98189075D01*
X153910826Y-98155000D01*
X153779174Y-98155000D01*
X153652007Y-98189075D01*
X153595000Y-98221988D01*
X153595000Y-97376127D01*
X153398671Y-97428734D01*
X153192517Y-97524865D01*
X153006179Y-97655342D01*
X152845342Y-97816179D01*
X152714865Y-98002517D01*
X152618734Y-98208673D01*
X152618730Y-98208682D01*
X152566127Y-98404999D01*
X141995500Y-98404999D01*
X141995500Y-96115000D01*
X152839659Y-96115000D01*
X152858975Y-96311129D01*
X152916188Y-96499733D01*
X153009086Y-96673532D01*
X153009090Y-96673539D01*
X153134116Y-96825883D01*
X153286460Y-96950909D01*
X153286467Y-96950913D01*
X153460266Y-97043811D01*
X153460269Y-97043811D01*
X153460273Y-97043814D01*
X153648868Y-97101024D01*
X153845000Y-97120341D01*
X154041132Y-97101024D01*
X154229727Y-97043814D01*
X154403538Y-96950910D01*
X154555883Y-96825883D01*
X154680910Y-96673538D01*
X154773814Y-96499727D01*
X154831024Y-96311132D01*
X154850341Y-96115000D01*
X168079659Y-96115000D01*
X168098975Y-96311129D01*
X168156188Y-96499733D01*
X168249086Y-96673532D01*
X168249090Y-96673539D01*
X168374116Y-96825883D01*
X168526460Y-96950909D01*
X168526467Y-96950913D01*
X168700266Y-97043811D01*
X168700269Y-97043811D01*
X168700273Y-97043814D01*
X168888868Y-97101024D01*
X169085000Y-97120341D01*
X169281132Y-97101024D01*
X169469727Y-97043814D01*
X169643538Y-96950910D01*
X169795883Y-96825883D01*
X169920910Y-96673538D01*
X170013814Y-96499727D01*
X170071024Y-96311132D01*
X170090341Y-96115000D01*
X170071024Y-95918868D01*
X170013814Y-95730273D01*
X170013811Y-95730269D01*
X170013811Y-95730266D01*
X169920913Y-95556467D01*
X169920909Y-95556460D01*
X169795883Y-95404116D01*
X169643539Y-95279090D01*
X169643532Y-95279086D01*
X169469733Y-95186188D01*
X169469727Y-95186186D01*
X169281132Y-95128976D01*
X169281129Y-95128975D01*
X169085000Y-95109659D01*
X168888870Y-95128975D01*
X168700266Y-95186188D01*
X168526467Y-95279086D01*
X168526460Y-95279090D01*
X168374116Y-95404116D01*
X168249090Y-95556460D01*
X168249086Y-95556467D01*
X168156188Y-95730266D01*
X168098975Y-95918870D01*
X168079659Y-96115000D01*
X154850341Y-96115000D01*
X154831024Y-95918868D01*
X154773814Y-95730273D01*
X154773811Y-95730269D01*
X154773811Y-95730266D01*
X154680913Y-95556467D01*
X154680909Y-95556460D01*
X154555883Y-95404116D01*
X154403539Y-95279090D01*
X154403532Y-95279086D01*
X154229733Y-95186188D01*
X154229727Y-95186186D01*
X154041132Y-95128976D01*
X154041129Y-95128975D01*
X153845000Y-95109659D01*
X153648870Y-95128975D01*
X153460266Y-95186188D01*
X153286467Y-95279086D01*
X153286460Y-95279090D01*
X153134116Y-95404116D01*
X153009090Y-95556460D01*
X153009086Y-95556467D01*
X152916188Y-95730266D01*
X152858975Y-95918870D01*
X152839659Y-96115000D01*
X141995500Y-96115000D01*
X141995500Y-95055000D01*
X175389417Y-95055000D01*
X175409699Y-95260932D01*
X175409700Y-95260934D01*
X175469768Y-95458954D01*
X175567315Y-95641450D01*
X175567317Y-95641452D01*
X175698589Y-95801410D01*
X175795209Y-95880702D01*
X175858550Y-95932685D01*
X176041046Y-96030232D01*
X176239066Y-96090300D01*
X176239065Y-96090300D01*
X176257529Y-96092118D01*
X176445000Y-96110583D01*
X176650934Y-96090300D01*
X176848954Y-96030232D01*
X177031450Y-95932685D01*
X177191410Y-95801410D01*
X177322685Y-95641450D01*
X177420232Y-95458954D01*
X177480300Y-95260934D01*
X177500583Y-95055000D01*
X177480300Y-94849066D01*
X177420232Y-94651046D01*
X177322685Y-94468550D01*
X177270702Y-94405209D01*
X177191410Y-94308589D01*
X177031452Y-94177317D01*
X177031453Y-94177317D01*
X177031450Y-94177315D01*
X176848954Y-94079768D01*
X176650934Y-94019700D01*
X176650932Y-94019699D01*
X176650934Y-94019699D01*
X176445000Y-93999417D01*
X176239067Y-94019699D01*
X176041043Y-94079769D01*
X175940450Y-94133538D01*
X175858550Y-94177315D01*
X175858548Y-94177316D01*
X175858547Y-94177317D01*
X175698589Y-94308589D01*
X175612230Y-94413820D01*
X175567315Y-94468550D01*
X175548466Y-94503814D01*
X175469769Y-94651043D01*
X175409699Y-94849067D01*
X175389417Y-95055000D01*
X141995500Y-95055000D01*
X141995500Y-93575000D01*
X152839659Y-93575000D01*
X152858975Y-93771129D01*
X152916188Y-93959733D01*
X153009086Y-94133532D01*
X153009090Y-94133539D01*
X153134116Y-94285883D01*
X153286460Y-94410909D01*
X153286467Y-94410913D01*
X153460266Y-94503811D01*
X153460269Y-94503811D01*
X153460273Y-94503814D01*
X153648868Y-94561024D01*
X153845000Y-94580341D01*
X154041132Y-94561024D01*
X154229727Y-94503814D01*
X154403538Y-94410910D01*
X154555883Y-94285883D01*
X154680910Y-94133538D01*
X154752599Y-93999417D01*
X154773811Y-93959733D01*
X154773811Y-93959732D01*
X154773814Y-93959727D01*
X154831024Y-93771132D01*
X154850341Y-93575000D01*
X154831024Y-93378868D01*
X154814683Y-93324999D01*
X167806127Y-93324999D01*
X167806128Y-93325000D01*
X168651988Y-93325000D01*
X168619075Y-93382007D01*
X168585000Y-93509174D01*
X168585000Y-93640826D01*
X168619075Y-93767993D01*
X168651988Y-93825000D01*
X167806128Y-93825000D01*
X167858730Y-94021317D01*
X167858734Y-94021326D01*
X167954865Y-94227482D01*
X168085342Y-94413820D01*
X168246179Y-94574657D01*
X168432517Y-94705134D01*
X168638673Y-94801265D01*
X168638682Y-94801269D01*
X168834999Y-94853872D01*
X168835000Y-94853871D01*
X168835000Y-94008012D01*
X168892007Y-94040925D01*
X169019174Y-94075000D01*
X169150826Y-94075000D01*
X169277993Y-94040925D01*
X169335000Y-94008012D01*
X169335000Y-94853872D01*
X169531317Y-94801269D01*
X169531326Y-94801265D01*
X169737482Y-94705134D01*
X169923820Y-94574657D01*
X170084657Y-94413820D01*
X170215134Y-94227482D01*
X170311265Y-94021326D01*
X170311269Y-94021317D01*
X170363872Y-93825000D01*
X169518012Y-93825000D01*
X169550925Y-93767993D01*
X169585000Y-93640826D01*
X169585000Y-93509174D01*
X169550925Y-93382007D01*
X169518012Y-93325000D01*
X170363872Y-93325000D01*
X170363872Y-93324999D01*
X170311269Y-93128682D01*
X170311265Y-93128673D01*
X170215134Y-92922517D01*
X170084657Y-92736179D01*
X169923820Y-92575342D01*
X169837644Y-92515000D01*
X175389417Y-92515000D01*
X175409699Y-92720932D01*
X175409700Y-92720934D01*
X175469768Y-92918954D01*
X175567315Y-93101450D01*
X175567317Y-93101452D01*
X175698589Y-93261410D01*
X175706611Y-93267993D01*
X175858550Y-93392685D01*
X176041046Y-93490232D01*
X176239066Y-93550300D01*
X176239065Y-93550300D01*
X176257529Y-93552118D01*
X176445000Y-93570583D01*
X176650934Y-93550300D01*
X176848954Y-93490232D01*
X177031450Y-93392685D01*
X177191410Y-93261410D01*
X177322685Y-93101450D01*
X177420232Y-92918954D01*
X177480300Y-92720934D01*
X177500583Y-92515000D01*
X177480300Y-92309066D01*
X177420232Y-92111046D01*
X177322685Y-91928550D01*
X177270702Y-91865209D01*
X177191410Y-91768589D01*
X177031452Y-91637317D01*
X177031453Y-91637317D01*
X177031450Y-91637315D01*
X176848954Y-91539768D01*
X176650934Y-91479700D01*
X176650932Y-91479699D01*
X176650934Y-91479699D01*
X176445000Y-91459417D01*
X176239067Y-91479699D01*
X176041043Y-91539769D01*
X175940450Y-91593538D01*
X175858550Y-91637315D01*
X175858548Y-91637316D01*
X175858547Y-91637317D01*
X175698589Y-91768589D01*
X175567317Y-91928547D01*
X175567315Y-91928550D01*
X175548466Y-91963814D01*
X175469769Y-92111043D01*
X175409699Y-92309067D01*
X175389417Y-92515000D01*
X169837644Y-92515000D01*
X169737482Y-92444865D01*
X169531328Y-92348734D01*
X169335000Y-92296127D01*
X169335000Y-93141988D01*
X169277993Y-93109075D01*
X169150826Y-93075000D01*
X169019174Y-93075000D01*
X168892007Y-93109075D01*
X168835000Y-93141988D01*
X168835000Y-92296127D01*
X168638671Y-92348734D01*
X168432517Y-92444865D01*
X168246179Y-92575342D01*
X168085342Y-92736179D01*
X167954865Y-92922517D01*
X167858734Y-93128673D01*
X167858730Y-93128682D01*
X167806127Y-93324999D01*
X154814683Y-93324999D01*
X154773814Y-93190273D01*
X154773811Y-93190269D01*
X154773811Y-93190266D01*
X154680913Y-93016467D01*
X154680909Y-93016460D01*
X154555883Y-92864116D01*
X154403539Y-92739090D01*
X154403532Y-92739086D01*
X154229733Y-92646188D01*
X154229727Y-92646186D01*
X154041132Y-92588976D01*
X154041129Y-92588975D01*
X153845000Y-92569659D01*
X153648870Y-92588975D01*
X153460266Y-92646188D01*
X153286467Y-92739086D01*
X153286460Y-92739090D01*
X153134116Y-92864116D01*
X153009090Y-93016460D01*
X153009086Y-93016467D01*
X152916188Y-93190266D01*
X152858975Y-93378870D01*
X152839659Y-93575000D01*
X141995500Y-93575000D01*
X141995500Y-91035000D01*
X152839659Y-91035000D01*
X152858975Y-91231129D01*
X152916188Y-91419733D01*
X153009086Y-91593532D01*
X153009090Y-91593539D01*
X153134116Y-91745883D01*
X153286460Y-91870909D01*
X153286467Y-91870913D01*
X153460266Y-91963811D01*
X153460269Y-91963811D01*
X153460273Y-91963814D01*
X153648868Y-92021024D01*
X153845000Y-92040341D01*
X154041132Y-92021024D01*
X154229727Y-91963814D01*
X154403538Y-91870910D01*
X154555883Y-91745883D01*
X154680910Y-91593538D01*
X154773814Y-91419727D01*
X154831024Y-91231132D01*
X154850341Y-91035000D01*
X168079659Y-91035000D01*
X168098975Y-91231129D01*
X168156188Y-91419733D01*
X168249086Y-91593532D01*
X168249090Y-91593539D01*
X168374116Y-91745883D01*
X168526460Y-91870909D01*
X168526467Y-91870913D01*
X168700266Y-91963811D01*
X168700269Y-91963811D01*
X168700273Y-91963814D01*
X168888868Y-92021024D01*
X169085000Y-92040341D01*
X169281132Y-92021024D01*
X169469727Y-91963814D01*
X169643538Y-91870910D01*
X169795883Y-91745883D01*
X169920910Y-91593538D01*
X170013814Y-91419727D01*
X170071024Y-91231132D01*
X170090341Y-91035000D01*
X170071024Y-90838868D01*
X170013814Y-90650273D01*
X170013811Y-90650269D01*
X170013811Y-90650266D01*
X169920913Y-90476467D01*
X169920909Y-90476460D01*
X169795883Y-90324116D01*
X169643539Y-90199090D01*
X169643532Y-90199086D01*
X169469733Y-90106188D01*
X169469727Y-90106186D01*
X169281132Y-90048976D01*
X169281129Y-90048975D01*
X169085000Y-90029659D01*
X168888870Y-90048975D01*
X168700266Y-90106188D01*
X168526467Y-90199086D01*
X168526460Y-90199090D01*
X168374116Y-90324116D01*
X168249090Y-90476460D01*
X168249086Y-90476467D01*
X168156188Y-90650266D01*
X168098975Y-90838870D01*
X168079659Y-91035000D01*
X154850341Y-91035000D01*
X154831024Y-90838868D01*
X154773814Y-90650273D01*
X154773811Y-90650269D01*
X154773811Y-90650266D01*
X154680913Y-90476467D01*
X154680909Y-90476460D01*
X154555883Y-90324116D01*
X154403539Y-90199090D01*
X154403532Y-90199086D01*
X154229733Y-90106188D01*
X154229727Y-90106186D01*
X154041132Y-90048976D01*
X154041129Y-90048975D01*
X153845000Y-90029659D01*
X153648870Y-90048975D01*
X153460266Y-90106188D01*
X153286467Y-90199086D01*
X153286460Y-90199090D01*
X153134116Y-90324116D01*
X153009090Y-90476460D01*
X153009086Y-90476467D01*
X152916188Y-90650266D01*
X152858975Y-90838870D01*
X152839659Y-91035000D01*
X141995500Y-91035000D01*
X141995500Y-88495000D01*
X152839659Y-88495000D01*
X152858975Y-88691129D01*
X152916188Y-88879733D01*
X153009086Y-89053532D01*
X153009090Y-89053539D01*
X153134116Y-89205883D01*
X153286460Y-89330909D01*
X153286467Y-89330913D01*
X153460266Y-89423811D01*
X153460269Y-89423811D01*
X153460273Y-89423814D01*
X153648868Y-89481024D01*
X153845000Y-89500341D01*
X154041132Y-89481024D01*
X154229727Y-89423814D01*
X154403538Y-89330910D01*
X154555883Y-89205883D01*
X154680910Y-89053538D01*
X154773814Y-88879727D01*
X154831024Y-88691132D01*
X154850341Y-88495000D01*
X168079659Y-88495000D01*
X168098975Y-88691129D01*
X168156188Y-88879733D01*
X168249086Y-89053532D01*
X168249090Y-89053539D01*
X168374116Y-89205883D01*
X168526460Y-89330909D01*
X168526467Y-89330913D01*
X168700266Y-89423811D01*
X168700269Y-89423811D01*
X168700273Y-89423814D01*
X168888868Y-89481024D01*
X169085000Y-89500341D01*
X169281132Y-89481024D01*
X169469727Y-89423814D01*
X169643538Y-89330910D01*
X169795883Y-89205883D01*
X169878473Y-89105247D01*
X175394500Y-89105247D01*
X175394500Y-90844752D01*
X175406131Y-90903229D01*
X175406132Y-90903230D01*
X175450447Y-90969552D01*
X175516769Y-91013867D01*
X175516770Y-91013868D01*
X175575247Y-91025499D01*
X175575250Y-91025500D01*
X175575252Y-91025500D01*
X177314750Y-91025500D01*
X177314751Y-91025499D01*
X177329568Y-91022552D01*
X177373229Y-91013868D01*
X177373229Y-91013867D01*
X177373231Y-91013867D01*
X177439552Y-90969552D01*
X177483867Y-90903231D01*
X177483867Y-90903229D01*
X177483868Y-90903229D01*
X177495499Y-90844752D01*
X177495500Y-90844750D01*
X177495500Y-89105249D01*
X177495499Y-89105247D01*
X177483868Y-89046770D01*
X177483867Y-89046769D01*
X177439552Y-88980447D01*
X177373230Y-88936132D01*
X177373229Y-88936131D01*
X177314752Y-88924500D01*
X177314748Y-88924500D01*
X175575252Y-88924500D01*
X175575247Y-88924500D01*
X175516770Y-88936131D01*
X175516769Y-88936132D01*
X175450447Y-88980447D01*
X175406132Y-89046769D01*
X175406131Y-89046770D01*
X175394500Y-89105247D01*
X169878473Y-89105247D01*
X169920910Y-89053538D01*
X170013814Y-88879727D01*
X170071024Y-88691132D01*
X170090341Y-88495000D01*
X170071024Y-88298868D01*
X170013814Y-88110273D01*
X170013811Y-88110269D01*
X170013811Y-88110266D01*
X169920913Y-87936467D01*
X169920909Y-87936460D01*
X169795883Y-87784116D01*
X169643539Y-87659090D01*
X169643532Y-87659086D01*
X169469733Y-87566188D01*
X169469727Y-87566186D01*
X169281132Y-87508976D01*
X169281129Y-87508975D01*
X169085000Y-87489659D01*
X168888870Y-87508975D01*
X168700266Y-87566188D01*
X168526467Y-87659086D01*
X168526460Y-87659090D01*
X168374116Y-87784116D01*
X168249090Y-87936460D01*
X168249086Y-87936467D01*
X168156188Y-88110266D01*
X168098975Y-88298870D01*
X168079659Y-88495000D01*
X154850341Y-88495000D01*
X154831024Y-88298868D01*
X154773814Y-88110273D01*
X154773811Y-88110269D01*
X154773811Y-88110266D01*
X154680913Y-87936467D01*
X154680909Y-87936460D01*
X154555883Y-87784116D01*
X154403539Y-87659090D01*
X154403532Y-87659086D01*
X154229733Y-87566188D01*
X154229727Y-87566186D01*
X154041132Y-87508976D01*
X154041129Y-87508975D01*
X153845000Y-87489659D01*
X153648870Y-87508975D01*
X153460266Y-87566188D01*
X153286467Y-87659086D01*
X153286460Y-87659090D01*
X153134116Y-87784116D01*
X153009090Y-87936460D01*
X153009086Y-87936467D01*
X152916188Y-88110266D01*
X152858975Y-88298870D01*
X152839659Y-88495000D01*
X141995500Y-88495000D01*
X141995500Y-84874997D01*
X144940034Y-84874997D01*
X144940034Y-84875002D01*
X144959858Y-85101599D01*
X144959860Y-85101610D01*
X145018730Y-85321317D01*
X145018735Y-85321331D01*
X145114863Y-85527478D01*
X145165974Y-85600472D01*
X145845000Y-84921446D01*
X145845000Y-84927661D01*
X145872259Y-85029394D01*
X145924920Y-85120606D01*
X145999394Y-85195080D01*
X146090606Y-85247741D01*
X146192339Y-85275000D01*
X146198553Y-85275000D01*
X145519526Y-85954025D01*
X145592513Y-86005132D01*
X145592521Y-86005136D01*
X145798668Y-86101264D01*
X145798682Y-86101269D01*
X146018389Y-86160139D01*
X146018400Y-86160141D01*
X146244998Y-86179966D01*
X146245002Y-86179966D01*
X146471599Y-86160141D01*
X146471610Y-86160139D01*
X146691317Y-86101269D01*
X146691331Y-86101264D01*
X146897478Y-86005136D01*
X146969077Y-85955000D01*
X152839659Y-85955000D01*
X152858975Y-86151129D01*
X152916188Y-86339733D01*
X153009086Y-86513532D01*
X153009090Y-86513539D01*
X153134116Y-86665883D01*
X153286460Y-86790909D01*
X153286467Y-86790913D01*
X153460266Y-86883811D01*
X153460269Y-86883811D01*
X153460273Y-86883814D01*
X153648868Y-86941024D01*
X153845000Y-86960341D01*
X154041132Y-86941024D01*
X154229727Y-86883814D01*
X154403538Y-86790910D01*
X154555883Y-86665883D01*
X154680910Y-86513538D01*
X154773814Y-86339727D01*
X154831024Y-86151132D01*
X154850341Y-85955000D01*
X168079659Y-85955000D01*
X168098975Y-86151129D01*
X168156188Y-86339733D01*
X168249086Y-86513532D01*
X168249090Y-86513539D01*
X168374116Y-86665883D01*
X168526460Y-86790909D01*
X168526467Y-86790913D01*
X168700266Y-86883811D01*
X168700269Y-86883811D01*
X168700273Y-86883814D01*
X168888868Y-86941024D01*
X169085000Y-86960341D01*
X169281132Y-86941024D01*
X169469727Y-86883814D01*
X169643538Y-86790910D01*
X169795883Y-86665883D01*
X169920910Y-86513538D01*
X170013814Y-86339727D01*
X170071024Y-86151132D01*
X170090341Y-85955000D01*
X170071024Y-85758868D01*
X170013814Y-85570273D01*
X170013811Y-85570269D01*
X170013811Y-85570266D01*
X169920913Y-85396467D01*
X169920909Y-85396460D01*
X169795883Y-85244116D01*
X169643539Y-85119090D01*
X169643532Y-85119086D01*
X169469733Y-85026188D01*
X169469727Y-85026186D01*
X169281132Y-84968976D01*
X169281129Y-84968975D01*
X169085000Y-84949659D01*
X168888870Y-84968975D01*
X168700266Y-85026188D01*
X168526467Y-85119086D01*
X168526460Y-85119090D01*
X168374116Y-85244116D01*
X168249090Y-85396460D01*
X168249086Y-85396467D01*
X168156188Y-85570266D01*
X168098975Y-85758870D01*
X168079659Y-85955000D01*
X154850341Y-85955000D01*
X154831024Y-85758868D01*
X154773814Y-85570273D01*
X154773811Y-85570269D01*
X154773811Y-85570266D01*
X154680913Y-85396467D01*
X154680909Y-85396460D01*
X154555883Y-85244116D01*
X154403539Y-85119090D01*
X154403532Y-85119086D01*
X154229733Y-85026188D01*
X154229727Y-85026186D01*
X154041132Y-84968976D01*
X154041129Y-84968975D01*
X153845000Y-84949659D01*
X153648870Y-84968975D01*
X153460266Y-85026188D01*
X153286467Y-85119086D01*
X153286460Y-85119090D01*
X153134116Y-85244116D01*
X153009090Y-85396460D01*
X153009086Y-85396467D01*
X152916188Y-85570266D01*
X152858975Y-85758870D01*
X152839659Y-85955000D01*
X146969077Y-85955000D01*
X146970471Y-85954024D01*
X146291447Y-85275000D01*
X146297661Y-85275000D01*
X146399394Y-85247741D01*
X146490606Y-85195080D01*
X146565080Y-85120606D01*
X146617741Y-85029394D01*
X146645000Y-84927661D01*
X146645000Y-84921447D01*
X147324024Y-85600471D01*
X147375136Y-85527478D01*
X147471264Y-85321331D01*
X147471269Y-85321317D01*
X147530139Y-85101610D01*
X147530141Y-85101599D01*
X147549966Y-84875002D01*
X147549966Y-84875000D01*
X148739659Y-84875000D01*
X148758975Y-85071129D01*
X148763935Y-85087479D01*
X148811450Y-85244116D01*
X148816188Y-85259733D01*
X148909086Y-85433532D01*
X148909090Y-85433539D01*
X149034116Y-85585883D01*
X149186460Y-85710909D01*
X149186467Y-85710913D01*
X149360266Y-85803811D01*
X149360269Y-85803811D01*
X149360273Y-85803814D01*
X149548868Y-85861024D01*
X149745000Y-85880341D01*
X149941132Y-85861024D01*
X150129727Y-85803814D01*
X150303538Y-85710910D01*
X150455883Y-85585883D01*
X150580910Y-85433538D01*
X150640197Y-85322620D01*
X150673811Y-85259733D01*
X150673811Y-85259732D01*
X150673814Y-85259727D01*
X150731024Y-85071132D01*
X150750341Y-84875000D01*
X150731024Y-84678868D01*
X150673814Y-84490273D01*
X150673811Y-84490269D01*
X150673811Y-84490266D01*
X150580913Y-84316467D01*
X150580909Y-84316460D01*
X150455883Y-84164116D01*
X150303539Y-84039090D01*
X150303532Y-84039086D01*
X150129733Y-83946188D01*
X150129727Y-83946186D01*
X149941132Y-83888976D01*
X149941129Y-83888975D01*
X149745000Y-83869659D01*
X149548870Y-83888975D01*
X149360266Y-83946188D01*
X149186467Y-84039086D01*
X149186460Y-84039090D01*
X149034116Y-84164116D01*
X148909090Y-84316460D01*
X148909086Y-84316467D01*
X148816188Y-84490266D01*
X148758975Y-84678870D01*
X148739659Y-84875000D01*
X147549966Y-84875000D01*
X147549966Y-84874997D01*
X147530141Y-84648400D01*
X147530139Y-84648389D01*
X147471269Y-84428682D01*
X147471264Y-84428668D01*
X147375136Y-84222521D01*
X147375132Y-84222513D01*
X147324025Y-84149526D01*
X146645000Y-84828551D01*
X146645000Y-84822339D01*
X146617741Y-84720606D01*
X146565080Y-84629394D01*
X146490606Y-84554920D01*
X146399394Y-84502259D01*
X146297661Y-84475000D01*
X146291448Y-84475000D01*
X146970472Y-83795974D01*
X146897478Y-83744863D01*
X146691331Y-83648735D01*
X146691317Y-83648730D01*
X146471610Y-83589860D01*
X146471599Y-83589858D01*
X146245002Y-83570034D01*
X146244998Y-83570034D01*
X146018400Y-83589858D01*
X146018389Y-83589860D01*
X145798682Y-83648730D01*
X145798673Y-83648734D01*
X145592516Y-83744866D01*
X145592512Y-83744868D01*
X145519526Y-83795973D01*
X145519526Y-83795974D01*
X146198553Y-84475000D01*
X146192339Y-84475000D01*
X146090606Y-84502259D01*
X145999394Y-84554920D01*
X145924920Y-84629394D01*
X145872259Y-84720606D01*
X145845000Y-84822339D01*
X145845000Y-84828552D01*
X145165974Y-84149526D01*
X145165973Y-84149526D01*
X145114868Y-84222512D01*
X145114866Y-84222516D01*
X145018734Y-84428673D01*
X145018730Y-84428682D01*
X144959860Y-84648389D01*
X144959858Y-84648400D01*
X144940034Y-84874997D01*
X141995500Y-84874997D01*
X141995500Y-83415000D01*
X152839659Y-83415000D01*
X152858975Y-83611129D01*
X152916188Y-83799733D01*
X153009086Y-83973532D01*
X153009090Y-83973539D01*
X153134116Y-84125883D01*
X153286460Y-84250909D01*
X153286467Y-84250913D01*
X153460266Y-84343811D01*
X153460269Y-84343811D01*
X153460273Y-84343814D01*
X153648868Y-84401024D01*
X153845000Y-84420341D01*
X154041132Y-84401024D01*
X154229727Y-84343814D01*
X154403538Y-84250910D01*
X154555883Y-84125883D01*
X154680910Y-83973538D01*
X154764324Y-83817482D01*
X154773811Y-83799733D01*
X154773811Y-83799732D01*
X154773814Y-83799727D01*
X154831024Y-83611132D01*
X154850341Y-83415000D01*
X168079659Y-83415000D01*
X168098975Y-83611129D01*
X168156188Y-83799733D01*
X168249086Y-83973532D01*
X168249090Y-83973539D01*
X168374116Y-84125883D01*
X168526460Y-84250909D01*
X168526467Y-84250913D01*
X168700266Y-84343811D01*
X168700269Y-84343811D01*
X168700273Y-84343814D01*
X168888868Y-84401024D01*
X169085000Y-84420341D01*
X169281132Y-84401024D01*
X169469727Y-84343814D01*
X169643538Y-84250910D01*
X169795883Y-84125883D01*
X169920910Y-83973538D01*
X170004324Y-83817482D01*
X170013811Y-83799733D01*
X170013811Y-83799732D01*
X170013814Y-83799727D01*
X170071024Y-83611132D01*
X170089213Y-83426457D01*
X173264499Y-83426457D01*
X173292379Y-83566614D01*
X173292381Y-83566620D01*
X173347069Y-83698650D01*
X173347074Y-83698659D01*
X173426467Y-83817478D01*
X173426470Y-83817482D01*
X173511307Y-83902319D01*
X173544792Y-83963642D01*
X173539808Y-84033334D01*
X173511307Y-84077681D01*
X173426470Y-84162517D01*
X173426467Y-84162521D01*
X173347074Y-84281340D01*
X173347069Y-84281349D01*
X173292381Y-84413379D01*
X173292379Y-84413385D01*
X173264500Y-84553542D01*
X173264500Y-84553545D01*
X173264500Y-84696455D01*
X173264500Y-84696457D01*
X173264499Y-84696457D01*
X173292379Y-84836614D01*
X173292381Y-84836620D01*
X173347069Y-84968650D01*
X173347074Y-84968659D01*
X173426467Y-85087478D01*
X173426470Y-85087482D01*
X173527517Y-85188529D01*
X173527521Y-85188532D01*
X173646340Y-85267925D01*
X173646346Y-85267928D01*
X173646347Y-85267929D01*
X173778380Y-85322619D01*
X173778384Y-85322619D01*
X173778385Y-85322620D01*
X173918542Y-85350500D01*
X173918545Y-85350500D01*
X174511457Y-85350500D01*
X174605751Y-85331742D01*
X174651620Y-85322619D01*
X174783653Y-85267929D01*
X174902479Y-85188532D01*
X175003532Y-85087479D01*
X175082929Y-84968653D01*
X175137619Y-84836620D01*
X175157543Y-84736457D01*
X175165500Y-84696457D01*
X175165500Y-84553542D01*
X175137620Y-84413385D01*
X175137619Y-84413384D01*
X175137619Y-84413380D01*
X175082929Y-84281347D01*
X175082928Y-84281346D01*
X175082925Y-84281340D01*
X175003532Y-84162521D01*
X175003529Y-84162517D01*
X174918693Y-84077681D01*
X174885208Y-84016358D01*
X174890192Y-83946666D01*
X174918693Y-83902319D01*
X175003529Y-83817482D01*
X175003532Y-83817479D01*
X175082929Y-83698653D01*
X175137619Y-83566620D01*
X175157543Y-83466457D01*
X178394499Y-83466457D01*
X178422379Y-83606614D01*
X178422381Y-83606620D01*
X178477069Y-83738650D01*
X178477074Y-83738659D01*
X178556467Y-83857478D01*
X178556470Y-83857482D01*
X178641307Y-83942319D01*
X178674792Y-84003642D01*
X178669808Y-84073334D01*
X178641307Y-84117681D01*
X178556470Y-84202517D01*
X178556467Y-84202521D01*
X178477074Y-84321340D01*
X178477069Y-84321349D01*
X178422381Y-84453379D01*
X178422379Y-84453385D01*
X178394500Y-84593542D01*
X178394500Y-84593545D01*
X178394500Y-84736455D01*
X178394500Y-84736457D01*
X178394499Y-84736457D01*
X178422379Y-84876614D01*
X178422381Y-84876620D01*
X178477069Y-85008650D01*
X178477074Y-85008659D01*
X178556467Y-85127478D01*
X178556470Y-85127482D01*
X178657517Y-85228529D01*
X178657521Y-85228532D01*
X178776340Y-85307925D01*
X178776346Y-85307928D01*
X178776347Y-85307929D01*
X178908380Y-85362619D01*
X178908384Y-85362619D01*
X178908385Y-85362620D01*
X179048542Y-85390500D01*
X179048545Y-85390500D01*
X179641457Y-85390500D01*
X179735751Y-85371742D01*
X179781620Y-85362619D01*
X179913653Y-85307929D01*
X180032479Y-85228532D01*
X180133532Y-85127479D01*
X180212929Y-85008653D01*
X180267619Y-84876620D01*
X180295500Y-84736455D01*
X180295500Y-84593545D01*
X180295500Y-84593542D01*
X180267620Y-84453385D01*
X180267619Y-84453384D01*
X180267619Y-84453380D01*
X180212929Y-84321347D01*
X180212928Y-84321346D01*
X180212925Y-84321340D01*
X180133532Y-84202521D01*
X180133529Y-84202517D01*
X180048693Y-84117681D01*
X180015208Y-84056358D01*
X180020192Y-83986666D01*
X180048693Y-83942319D01*
X180133529Y-83857482D01*
X180133532Y-83857479D01*
X180212929Y-83738653D01*
X180267619Y-83606620D01*
X180295500Y-83466455D01*
X180295500Y-83323545D01*
X180295500Y-83323542D01*
X180267620Y-83183385D01*
X180267619Y-83183384D01*
X180267619Y-83183380D01*
X180212929Y-83051347D01*
X180212928Y-83051345D01*
X180212922Y-83051335D01*
X180171414Y-82989213D01*
X180150536Y-82922536D01*
X180169021Y-82855156D01*
X180205623Y-82817222D01*
X180239552Y-82794552D01*
X180283867Y-82728231D01*
X180283867Y-82728229D01*
X180283868Y-82728229D01*
X180295499Y-82669752D01*
X180295500Y-82669750D01*
X180295500Y-81580249D01*
X180295499Y-81580247D01*
X180283868Y-81521770D01*
X180283867Y-81521769D01*
X180239552Y-81455447D01*
X180173230Y-81411132D01*
X180173229Y-81411131D01*
X180114752Y-81399500D01*
X180114748Y-81399500D01*
X178575252Y-81399500D01*
X178575247Y-81399500D01*
X178516770Y-81411131D01*
X178516769Y-81411132D01*
X178450447Y-81455447D01*
X178406132Y-81521769D01*
X178406131Y-81521770D01*
X178394500Y-81580247D01*
X178394500Y-82669752D01*
X178406131Y-82728229D01*
X178406132Y-82728230D01*
X178450447Y-82794552D01*
X178484374Y-82817221D01*
X178529179Y-82870833D01*
X178537886Y-82940158D01*
X178518586Y-82989212D01*
X178477076Y-83051337D01*
X178477069Y-83051349D01*
X178422381Y-83183379D01*
X178422379Y-83183385D01*
X178394500Y-83323542D01*
X178394500Y-83323545D01*
X178394500Y-83466455D01*
X178394500Y-83466457D01*
X178394499Y-83466457D01*
X175157543Y-83466457D01*
X175165500Y-83426457D01*
X175165500Y-83283542D01*
X175137620Y-83143385D01*
X175137619Y-83143384D01*
X175137619Y-83143380D01*
X175082929Y-83011347D01*
X175082928Y-83011345D01*
X175082922Y-83011335D01*
X175041414Y-82949213D01*
X175020536Y-82882536D01*
X175039021Y-82815156D01*
X175075623Y-82777222D01*
X175109552Y-82754552D01*
X175153867Y-82688231D01*
X175153867Y-82688229D01*
X175153868Y-82688229D01*
X175165499Y-82629752D01*
X175165500Y-82629750D01*
X175165500Y-81540249D01*
X175165499Y-81540247D01*
X175153868Y-81481770D01*
X175153867Y-81481769D01*
X175109552Y-81415447D01*
X175043230Y-81371132D01*
X175043229Y-81371131D01*
X174984752Y-81359500D01*
X174984748Y-81359500D01*
X173445252Y-81359500D01*
X173445247Y-81359500D01*
X173386770Y-81371131D01*
X173386769Y-81371132D01*
X173320447Y-81415447D01*
X173276132Y-81481769D01*
X173276131Y-81481770D01*
X173264500Y-81540247D01*
X173264500Y-82629752D01*
X173276131Y-82688229D01*
X173276132Y-82688230D01*
X173320447Y-82754552D01*
X173354374Y-82777221D01*
X173399179Y-82830833D01*
X173407886Y-82900158D01*
X173388586Y-82949212D01*
X173347076Y-83011337D01*
X173347069Y-83011349D01*
X173292381Y-83143379D01*
X173292379Y-83143385D01*
X173264500Y-83283542D01*
X173264500Y-83283545D01*
X173264500Y-83426455D01*
X173264500Y-83426457D01*
X173264499Y-83426457D01*
X170089213Y-83426457D01*
X170090341Y-83415000D01*
X170071024Y-83218868D01*
X170013814Y-83030273D01*
X170013811Y-83030269D01*
X170013811Y-83030266D01*
X169920913Y-82856467D01*
X169920909Y-82856460D01*
X169795883Y-82704116D01*
X169643539Y-82579090D01*
X169643532Y-82579086D01*
X169469733Y-82486188D01*
X169469727Y-82486186D01*
X169281132Y-82428976D01*
X169281129Y-82428975D01*
X169085000Y-82409659D01*
X168888870Y-82428975D01*
X168700266Y-82486188D01*
X168526467Y-82579086D01*
X168526460Y-82579090D01*
X168374116Y-82704116D01*
X168249090Y-82856460D01*
X168249086Y-82856467D01*
X168156188Y-83030266D01*
X168098975Y-83218870D01*
X168079659Y-83415000D01*
X154850341Y-83415000D01*
X154831024Y-83218868D01*
X154773814Y-83030273D01*
X154773811Y-83030269D01*
X154773811Y-83030266D01*
X154680913Y-82856467D01*
X154680909Y-82856460D01*
X154555883Y-82704116D01*
X154403539Y-82579090D01*
X154403532Y-82579086D01*
X154229733Y-82486188D01*
X154229727Y-82486186D01*
X154041132Y-82428976D01*
X154041129Y-82428975D01*
X153845000Y-82409659D01*
X153648870Y-82428975D01*
X153460266Y-82486188D01*
X153286467Y-82579086D01*
X153286460Y-82579090D01*
X153134116Y-82704116D01*
X153009090Y-82856460D01*
X153009086Y-82856467D01*
X152916188Y-83030266D01*
X152858975Y-83218870D01*
X152839659Y-83415000D01*
X141995500Y-83415000D01*
X141995500Y-80875000D01*
X152839659Y-80875000D01*
X152858975Y-81071129D01*
X152916188Y-81259733D01*
X153009086Y-81433532D01*
X153009090Y-81433539D01*
X153134116Y-81585883D01*
X153286460Y-81710909D01*
X153286467Y-81710913D01*
X153460266Y-81803811D01*
X153460269Y-81803811D01*
X153460273Y-81803814D01*
X153648868Y-81861024D01*
X153845000Y-81880341D01*
X154041132Y-81861024D01*
X154229727Y-81803814D01*
X154403538Y-81710910D01*
X154555883Y-81585883D01*
X154680910Y-81433538D01*
X154773814Y-81259727D01*
X154831024Y-81071132D01*
X154850341Y-80875000D01*
X168079659Y-80875000D01*
X168098975Y-81071129D01*
X168156188Y-81259733D01*
X168249086Y-81433532D01*
X168249090Y-81433539D01*
X168374116Y-81585883D01*
X168526460Y-81710909D01*
X168526467Y-81710913D01*
X168700266Y-81803811D01*
X168700269Y-81803811D01*
X168700273Y-81803814D01*
X168888868Y-81861024D01*
X169085000Y-81880341D01*
X169281132Y-81861024D01*
X169469727Y-81803814D01*
X169643538Y-81710910D01*
X169795883Y-81585883D01*
X169920910Y-81433538D01*
X170013814Y-81259727D01*
X170071024Y-81071132D01*
X170090341Y-80875000D01*
X170071024Y-80678868D01*
X170013814Y-80490273D01*
X170013811Y-80490269D01*
X170013811Y-80490266D01*
X169920913Y-80316467D01*
X169920909Y-80316460D01*
X169795883Y-80164116D01*
X169643539Y-80039090D01*
X169643532Y-80039086D01*
X169469733Y-79946188D01*
X169469727Y-79946186D01*
X169281132Y-79888976D01*
X169281129Y-79888975D01*
X169085000Y-79869659D01*
X168888870Y-79888975D01*
X168700266Y-79946188D01*
X168526467Y-80039086D01*
X168526460Y-80039090D01*
X168374116Y-80164116D01*
X168249090Y-80316460D01*
X168249086Y-80316467D01*
X168156188Y-80490266D01*
X168098975Y-80678870D01*
X168079659Y-80875000D01*
X154850341Y-80875000D01*
X154831024Y-80678868D01*
X154773814Y-80490273D01*
X154773811Y-80490269D01*
X154773811Y-80490266D01*
X154680913Y-80316467D01*
X154680909Y-80316460D01*
X154555883Y-80164116D01*
X154403539Y-80039090D01*
X154403532Y-80039086D01*
X154229733Y-79946188D01*
X154229727Y-79946186D01*
X154041132Y-79888976D01*
X154041129Y-79888975D01*
X153845000Y-79869659D01*
X153648870Y-79888975D01*
X153460266Y-79946188D01*
X153286467Y-80039086D01*
X153286460Y-80039090D01*
X153134116Y-80164116D01*
X153009090Y-80316460D01*
X153009086Y-80316467D01*
X152916188Y-80490266D01*
X152858975Y-80678870D01*
X152839659Y-80875000D01*
X141995500Y-80875000D01*
X141995500Y-78335000D01*
X152839659Y-78335000D01*
X152858975Y-78531129D01*
X152916188Y-78719733D01*
X153009086Y-78893532D01*
X153009090Y-78893539D01*
X153134116Y-79045883D01*
X153286460Y-79170909D01*
X153286467Y-79170913D01*
X153460266Y-79263811D01*
X153460269Y-79263811D01*
X153460273Y-79263814D01*
X153648868Y-79321024D01*
X153845000Y-79340341D01*
X154041132Y-79321024D01*
X154229727Y-79263814D01*
X154403538Y-79170910D01*
X154555883Y-79045883D01*
X154680910Y-78893538D01*
X154773814Y-78719727D01*
X154831024Y-78531132D01*
X154850341Y-78335000D01*
X168079659Y-78335000D01*
X168098975Y-78531129D01*
X168156188Y-78719733D01*
X168249086Y-78893532D01*
X168249090Y-78893539D01*
X168374116Y-79045883D01*
X168526460Y-79170909D01*
X168526467Y-79170913D01*
X168700266Y-79263811D01*
X168700269Y-79263811D01*
X168700273Y-79263814D01*
X168888868Y-79321024D01*
X169085000Y-79340341D01*
X169281132Y-79321024D01*
X169469727Y-79263814D01*
X169643538Y-79170910D01*
X169795883Y-79045883D01*
X169920910Y-78893538D01*
X170013814Y-78719727D01*
X170071024Y-78531132D01*
X170076552Y-78475000D01*
X173439659Y-78475000D01*
X173458975Y-78671129D01*
X173516188Y-78859733D01*
X173609086Y-79033532D01*
X173609090Y-79033539D01*
X173734116Y-79185883D01*
X173886460Y-79310909D01*
X173886467Y-79310913D01*
X174060266Y-79403811D01*
X174060269Y-79403811D01*
X174060273Y-79403814D01*
X174248868Y-79461024D01*
X174445000Y-79480341D01*
X174641132Y-79461024D01*
X174829727Y-79403814D01*
X175003538Y-79310910D01*
X175155883Y-79185883D01*
X175280910Y-79033538D01*
X175373814Y-78859727D01*
X175431024Y-78671132D01*
X175450341Y-78475000D01*
X178509659Y-78475000D01*
X178528975Y-78671129D01*
X178586188Y-78859733D01*
X178679086Y-79033532D01*
X178679090Y-79033539D01*
X178804116Y-79185883D01*
X178956460Y-79310909D01*
X178956467Y-79310913D01*
X179130266Y-79403811D01*
X179130269Y-79403811D01*
X179130273Y-79403814D01*
X179318868Y-79461024D01*
X179515000Y-79480341D01*
X179711132Y-79461024D01*
X179899727Y-79403814D01*
X180073538Y-79310910D01*
X180225883Y-79185883D01*
X180350910Y-79033538D01*
X180443814Y-78859727D01*
X180501024Y-78671132D01*
X180520341Y-78475000D01*
X180501024Y-78278868D01*
X180443814Y-78090273D01*
X180443811Y-78090269D01*
X180443811Y-78090266D01*
X180350913Y-77916467D01*
X180350909Y-77916460D01*
X180225883Y-77764116D01*
X180073539Y-77639090D01*
X180073532Y-77639086D01*
X179899733Y-77546188D01*
X179899727Y-77546186D01*
X179711132Y-77488976D01*
X179711129Y-77488975D01*
X179515000Y-77469659D01*
X179318870Y-77488975D01*
X179130266Y-77546188D01*
X178956467Y-77639086D01*
X178956460Y-77639090D01*
X178804116Y-77764116D01*
X178679090Y-77916460D01*
X178679086Y-77916467D01*
X178586188Y-78090266D01*
X178528975Y-78278870D01*
X178509659Y-78475000D01*
X175450341Y-78475000D01*
X175431024Y-78278868D01*
X175373814Y-78090273D01*
X175373811Y-78090269D01*
X175373811Y-78090266D01*
X175280913Y-77916467D01*
X175280909Y-77916460D01*
X175155883Y-77764116D01*
X175003539Y-77639090D01*
X175003532Y-77639086D01*
X174829733Y-77546188D01*
X174829727Y-77546186D01*
X174641132Y-77488976D01*
X174641129Y-77488975D01*
X174445000Y-77469659D01*
X174248870Y-77488975D01*
X174060266Y-77546188D01*
X173886467Y-77639086D01*
X173886460Y-77639090D01*
X173734116Y-77764116D01*
X173609090Y-77916460D01*
X173609086Y-77916467D01*
X173516188Y-78090266D01*
X173458975Y-78278870D01*
X173439659Y-78475000D01*
X170076552Y-78475000D01*
X170090341Y-78335000D01*
X170071024Y-78138868D01*
X170013814Y-77950273D01*
X170013811Y-77950269D01*
X170013811Y-77950266D01*
X169920913Y-77776467D01*
X169920909Y-77776460D01*
X169795883Y-77624116D01*
X169643539Y-77499090D01*
X169643532Y-77499086D01*
X169469733Y-77406188D01*
X169469727Y-77406186D01*
X169281132Y-77348976D01*
X169281129Y-77348975D01*
X169085000Y-77329659D01*
X168888870Y-77348975D01*
X168700266Y-77406188D01*
X168526467Y-77499086D01*
X168526460Y-77499090D01*
X168374116Y-77624116D01*
X168249090Y-77776460D01*
X168249086Y-77776467D01*
X168156188Y-77950266D01*
X168098975Y-78138870D01*
X168079659Y-78335000D01*
X154850341Y-78335000D01*
X154831024Y-78138868D01*
X154773814Y-77950273D01*
X154773811Y-77950269D01*
X154773811Y-77950266D01*
X154680913Y-77776467D01*
X154680909Y-77776460D01*
X154555883Y-77624116D01*
X154403539Y-77499090D01*
X154403532Y-77499086D01*
X154229733Y-77406188D01*
X154229727Y-77406186D01*
X154041132Y-77348976D01*
X154041129Y-77348975D01*
X153845000Y-77329659D01*
X153648870Y-77348975D01*
X153460266Y-77406188D01*
X153286467Y-77499086D01*
X153286460Y-77499090D01*
X153134116Y-77624116D01*
X153009090Y-77776460D01*
X153009086Y-77776467D01*
X152916188Y-77950266D01*
X152858975Y-78138870D01*
X152839659Y-78335000D01*
X141995500Y-78335000D01*
X141995500Y-75795000D01*
X152839659Y-75795000D01*
X152858975Y-75991129D01*
X152916188Y-76179733D01*
X153009086Y-76353532D01*
X153009090Y-76353539D01*
X153134116Y-76505883D01*
X153286460Y-76630909D01*
X153286467Y-76630913D01*
X153460266Y-76723811D01*
X153460269Y-76723811D01*
X153460273Y-76723814D01*
X153648868Y-76781024D01*
X153845000Y-76800341D01*
X154041132Y-76781024D01*
X154229727Y-76723814D01*
X154403538Y-76630910D01*
X154555883Y-76505883D01*
X154680910Y-76353538D01*
X154773814Y-76179727D01*
X154831024Y-75991132D01*
X154850341Y-75795000D01*
X168079659Y-75795000D01*
X168098975Y-75991129D01*
X168156188Y-76179733D01*
X168249086Y-76353532D01*
X168249090Y-76353539D01*
X168374116Y-76505883D01*
X168526460Y-76630909D01*
X168526467Y-76630913D01*
X168700266Y-76723811D01*
X168700269Y-76723811D01*
X168700273Y-76723814D01*
X168888868Y-76781024D01*
X169085000Y-76800341D01*
X169281132Y-76781024D01*
X169469727Y-76723814D01*
X169643538Y-76630910D01*
X169795883Y-76505883D01*
X169920910Y-76353538D01*
X170013814Y-76179727D01*
X170071024Y-75991132D01*
X170090341Y-75795000D01*
X170071024Y-75598868D01*
X170013814Y-75410273D01*
X170013811Y-75410269D01*
X170013811Y-75410266D01*
X169920913Y-75236467D01*
X169920909Y-75236460D01*
X169795883Y-75084116D01*
X169643539Y-74959090D01*
X169643532Y-74959086D01*
X169469733Y-74866188D01*
X169469727Y-74866186D01*
X169281132Y-74808976D01*
X169281129Y-74808975D01*
X169085000Y-74789659D01*
X168888870Y-74808975D01*
X168700266Y-74866188D01*
X168526467Y-74959086D01*
X168526460Y-74959090D01*
X168374116Y-75084116D01*
X168249090Y-75236460D01*
X168249086Y-75236467D01*
X168156188Y-75410266D01*
X168098975Y-75598870D01*
X168079659Y-75795000D01*
X154850341Y-75795000D01*
X154831024Y-75598868D01*
X154773814Y-75410273D01*
X154773811Y-75410269D01*
X154773811Y-75410266D01*
X154680913Y-75236467D01*
X154680909Y-75236460D01*
X154555883Y-75084116D01*
X154403539Y-74959090D01*
X154403532Y-74959086D01*
X154229733Y-74866188D01*
X154229727Y-74866186D01*
X154041132Y-74808976D01*
X154041129Y-74808975D01*
X153845000Y-74789659D01*
X153648870Y-74808975D01*
X153460266Y-74866188D01*
X153286467Y-74959086D01*
X153286460Y-74959090D01*
X153134116Y-75084116D01*
X153009090Y-75236460D01*
X153009086Y-75236467D01*
X152916188Y-75410266D01*
X152858975Y-75598870D01*
X152839659Y-75795000D01*
X141995500Y-75795000D01*
X141995500Y-74715000D01*
X145239659Y-74715000D01*
X145258975Y-74911129D01*
X145258976Y-74911132D01*
X145311450Y-75084116D01*
X145316188Y-75099733D01*
X145409086Y-75273532D01*
X145409090Y-75273539D01*
X145534116Y-75425883D01*
X145686460Y-75550909D01*
X145686467Y-75550913D01*
X145860266Y-75643811D01*
X145860269Y-75643811D01*
X145860273Y-75643814D01*
X146048868Y-75701024D01*
X146245000Y-75720341D01*
X146441132Y-75701024D01*
X146629727Y-75643814D01*
X146803538Y-75550910D01*
X146955883Y-75425883D01*
X147080910Y-75273538D01*
X147173814Y-75099727D01*
X147231024Y-74911132D01*
X147250341Y-74715000D01*
X148739659Y-74715000D01*
X148758975Y-74911129D01*
X148758976Y-74911132D01*
X148811450Y-75084116D01*
X148816188Y-75099733D01*
X148909086Y-75273532D01*
X148909090Y-75273539D01*
X149034116Y-75425883D01*
X149186460Y-75550909D01*
X149186467Y-75550913D01*
X149360266Y-75643811D01*
X149360269Y-75643811D01*
X149360273Y-75643814D01*
X149548868Y-75701024D01*
X149745000Y-75720341D01*
X149941132Y-75701024D01*
X150129727Y-75643814D01*
X150303538Y-75550910D01*
X150455883Y-75425883D01*
X150580910Y-75273538D01*
X150673814Y-75099727D01*
X150731024Y-74911132D01*
X150750341Y-74715000D01*
X150731024Y-74518868D01*
X150673814Y-74330273D01*
X150673811Y-74330269D01*
X150673811Y-74330266D01*
X150580913Y-74156467D01*
X150580909Y-74156460D01*
X150455883Y-74004116D01*
X150303539Y-73879090D01*
X150303532Y-73879086D01*
X150129733Y-73786188D01*
X150129727Y-73786186D01*
X149941132Y-73728976D01*
X149941129Y-73728975D01*
X149745000Y-73709659D01*
X149548870Y-73728975D01*
X149360266Y-73786188D01*
X149186467Y-73879086D01*
X149186460Y-73879090D01*
X149034116Y-74004116D01*
X148909090Y-74156460D01*
X148909086Y-74156467D01*
X148816188Y-74330266D01*
X148758975Y-74518870D01*
X148739659Y-74715000D01*
X147250341Y-74715000D01*
X147231024Y-74518868D01*
X147173814Y-74330273D01*
X147173811Y-74330269D01*
X147173811Y-74330266D01*
X147080913Y-74156467D01*
X147080909Y-74156460D01*
X146955883Y-74004116D01*
X146803539Y-73879090D01*
X146803532Y-73879086D01*
X146629733Y-73786188D01*
X146629727Y-73786186D01*
X146441132Y-73728976D01*
X146441129Y-73728975D01*
X146245000Y-73709659D01*
X146048870Y-73728975D01*
X145860266Y-73786188D01*
X145686467Y-73879086D01*
X145686460Y-73879090D01*
X145534116Y-74004116D01*
X145409090Y-74156460D01*
X145409086Y-74156467D01*
X145316188Y-74330266D01*
X145258975Y-74518870D01*
X145239659Y-74715000D01*
X141995500Y-74715000D01*
X141995500Y-73255000D01*
X152839659Y-73255000D01*
X152858975Y-73451129D01*
X152916188Y-73639733D01*
X153009086Y-73813532D01*
X153009090Y-73813539D01*
X153134116Y-73965883D01*
X153286460Y-74090909D01*
X153286467Y-74090913D01*
X153460266Y-74183811D01*
X153460269Y-74183811D01*
X153460273Y-74183814D01*
X153648868Y-74241024D01*
X153845000Y-74260341D01*
X154041132Y-74241024D01*
X154229727Y-74183814D01*
X154403538Y-74090910D01*
X154555883Y-73965883D01*
X154680910Y-73813538D01*
X154773814Y-73639727D01*
X154831024Y-73451132D01*
X154850341Y-73255000D01*
X168079659Y-73255000D01*
X168098975Y-73451129D01*
X168156188Y-73639733D01*
X168249086Y-73813532D01*
X168249090Y-73813539D01*
X168374116Y-73965883D01*
X168526460Y-74090909D01*
X168526467Y-74090913D01*
X168700266Y-74183811D01*
X168700269Y-74183811D01*
X168700273Y-74183814D01*
X168888868Y-74241024D01*
X169085000Y-74260341D01*
X169281132Y-74241024D01*
X169469727Y-74183814D01*
X169643538Y-74090910D01*
X169795883Y-73965883D01*
X169920910Y-73813538D01*
X170013814Y-73639727D01*
X170071024Y-73451132D01*
X170090341Y-73255000D01*
X170071024Y-73058868D01*
X170013814Y-72870273D01*
X170013811Y-72870269D01*
X170013811Y-72870266D01*
X169920913Y-72696467D01*
X169920909Y-72696460D01*
X169795883Y-72544116D01*
X169643539Y-72419090D01*
X169643532Y-72419086D01*
X169469733Y-72326188D01*
X169469727Y-72326186D01*
X169281132Y-72268976D01*
X169281129Y-72268975D01*
X169085000Y-72249659D01*
X168888870Y-72268975D01*
X168700266Y-72326188D01*
X168526467Y-72419086D01*
X168526460Y-72419090D01*
X168374116Y-72544116D01*
X168249090Y-72696460D01*
X168249086Y-72696467D01*
X168156188Y-72870266D01*
X168098975Y-73058870D01*
X168079659Y-73255000D01*
X154850341Y-73255000D01*
X154831024Y-73058868D01*
X154773814Y-72870273D01*
X154773811Y-72870269D01*
X154773811Y-72870266D01*
X154680913Y-72696467D01*
X154680909Y-72696460D01*
X154555883Y-72544116D01*
X154403539Y-72419090D01*
X154403532Y-72419086D01*
X154229733Y-72326188D01*
X154229727Y-72326186D01*
X154041132Y-72268976D01*
X154041129Y-72268975D01*
X153845000Y-72249659D01*
X153648870Y-72268975D01*
X153460266Y-72326188D01*
X153286467Y-72419086D01*
X153286460Y-72419090D01*
X153134116Y-72544116D01*
X153009090Y-72696460D01*
X153009086Y-72696467D01*
X152916188Y-72870266D01*
X152858975Y-73058870D01*
X152839659Y-73255000D01*
X141995500Y-73255000D01*
X141995500Y-70038753D01*
X144395000Y-70038753D01*
X144395000Y-70045000D01*
X145311988Y-70045000D01*
X145279075Y-70102007D01*
X145245000Y-70229174D01*
X145245000Y-70360826D01*
X145279075Y-70487993D01*
X145311988Y-70545000D01*
X144395000Y-70545000D01*
X144395000Y-70551246D01*
X144428242Y-70761127D01*
X144428242Y-70761130D01*
X144493904Y-70963217D01*
X144590379Y-71152557D01*
X144715272Y-71324459D01*
X144715276Y-71324464D01*
X144865535Y-71474723D01*
X144865540Y-71474727D01*
X145037442Y-71599620D01*
X145226782Y-71696095D01*
X145428871Y-71761757D01*
X145495000Y-71772231D01*
X145495000Y-70728012D01*
X145552007Y-70760925D01*
X145679174Y-70795000D01*
X145810826Y-70795000D01*
X145937993Y-70760925D01*
X145995000Y-70728012D01*
X145995000Y-71772230D01*
X146061126Y-71761757D01*
X146061129Y-71761757D01*
X146263217Y-71696095D01*
X146452557Y-71599620D01*
X146624459Y-71474727D01*
X146624464Y-71474723D01*
X146774723Y-71324464D01*
X146774727Y-71324459D01*
X146899620Y-71152557D01*
X146960015Y-71034028D01*
X147007990Y-70983232D01*
X147075811Y-70966437D01*
X147141946Y-70988974D01*
X147185397Y-71043690D01*
X147194500Y-71090323D01*
X147194500Y-71099269D01*
X147197353Y-71129699D01*
X147197353Y-71129701D01*
X147242206Y-71257880D01*
X147242207Y-71257882D01*
X147322850Y-71367150D01*
X147432118Y-71447793D01*
X147474845Y-71462744D01*
X147560299Y-71492646D01*
X147590730Y-71495500D01*
X147590734Y-71495500D01*
X148899270Y-71495500D01*
X148929699Y-71492646D01*
X148929701Y-71492646D01*
X148993790Y-71470219D01*
X149057882Y-71447793D01*
X149167150Y-71367150D01*
X149247793Y-71257882D01*
X149284648Y-71152557D01*
X149292646Y-71129701D01*
X149292646Y-71129699D01*
X149295500Y-71099269D01*
X149295500Y-70715000D01*
X152839659Y-70715000D01*
X152858975Y-70911129D01*
X152916188Y-71099733D01*
X153009086Y-71273532D01*
X153009090Y-71273539D01*
X153134116Y-71425883D01*
X153286460Y-71550909D01*
X153286467Y-71550913D01*
X153460266Y-71643811D01*
X153460269Y-71643811D01*
X153460273Y-71643814D01*
X153648868Y-71701024D01*
X153845000Y-71720341D01*
X154041132Y-71701024D01*
X154229727Y-71643814D01*
X154403538Y-71550910D01*
X154555883Y-71425883D01*
X154680910Y-71273538D01*
X154773814Y-71099727D01*
X154831024Y-70911132D01*
X154850341Y-70715000D01*
X168079659Y-70715000D01*
X168098975Y-70911129D01*
X168156188Y-71099733D01*
X168249086Y-71273532D01*
X168249090Y-71273539D01*
X168374116Y-71425883D01*
X168526460Y-71550909D01*
X168526467Y-71550913D01*
X168700266Y-71643811D01*
X168700269Y-71643811D01*
X168700273Y-71643814D01*
X168888868Y-71701024D01*
X169085000Y-71720341D01*
X169281132Y-71701024D01*
X169469727Y-71643814D01*
X169643538Y-71550910D01*
X169795883Y-71425883D01*
X169920910Y-71273538D01*
X170013814Y-71099727D01*
X170071024Y-70911132D01*
X170090341Y-70715000D01*
X170071024Y-70518868D01*
X170013814Y-70330273D01*
X170013811Y-70330269D01*
X170013811Y-70330266D01*
X169920913Y-70156467D01*
X169920909Y-70156460D01*
X169795883Y-70004116D01*
X169643539Y-69879090D01*
X169643532Y-69879086D01*
X169469733Y-69786188D01*
X169469727Y-69786186D01*
X169281132Y-69728976D01*
X169281129Y-69728975D01*
X169085000Y-69709659D01*
X168888870Y-69728975D01*
X168700266Y-69786188D01*
X168526467Y-69879086D01*
X168526460Y-69879090D01*
X168374116Y-70004116D01*
X168249090Y-70156460D01*
X168249086Y-70156467D01*
X168156188Y-70330266D01*
X168098975Y-70518870D01*
X168079659Y-70715000D01*
X154850341Y-70715000D01*
X154831024Y-70518868D01*
X154773814Y-70330273D01*
X154773811Y-70330269D01*
X154773811Y-70330266D01*
X154680913Y-70156467D01*
X154680909Y-70156460D01*
X154555883Y-70004116D01*
X154403539Y-69879090D01*
X154403532Y-69879086D01*
X154229733Y-69786188D01*
X154229727Y-69786186D01*
X154041132Y-69728976D01*
X154041129Y-69728975D01*
X153845000Y-69709659D01*
X153648870Y-69728975D01*
X153460266Y-69786188D01*
X153286467Y-69879086D01*
X153286460Y-69879090D01*
X153134116Y-70004116D01*
X153009090Y-70156460D01*
X153009086Y-70156467D01*
X152916188Y-70330266D01*
X152858975Y-70518870D01*
X152839659Y-70715000D01*
X149295500Y-70715000D01*
X149295500Y-69490730D01*
X149292646Y-69460300D01*
X149292646Y-69460298D01*
X149247793Y-69332119D01*
X149247792Y-69332117D01*
X149239100Y-69320340D01*
X149167150Y-69222850D01*
X149057882Y-69142207D01*
X149057880Y-69142206D01*
X148929700Y-69097353D01*
X148899270Y-69094500D01*
X148899266Y-69094500D01*
X147590734Y-69094500D01*
X147590730Y-69094500D01*
X147560300Y-69097353D01*
X147560298Y-69097353D01*
X147432119Y-69142206D01*
X147432117Y-69142207D01*
X147322850Y-69222850D01*
X147242207Y-69332117D01*
X147242206Y-69332119D01*
X147197353Y-69460298D01*
X147197353Y-69460300D01*
X147194500Y-69490730D01*
X147194500Y-69499676D01*
X147174815Y-69566715D01*
X147122011Y-69612470D01*
X147052853Y-69622414D01*
X146989297Y-69593389D01*
X146960015Y-69555971D01*
X146899620Y-69437442D01*
X146774727Y-69265540D01*
X146774723Y-69265535D01*
X146624464Y-69115276D01*
X146624459Y-69115272D01*
X146452557Y-68990379D01*
X146263215Y-68893903D01*
X146061124Y-68828241D01*
X145995000Y-68817768D01*
X145995000Y-69861988D01*
X145937993Y-69829075D01*
X145810826Y-69795000D01*
X145679174Y-69795000D01*
X145552007Y-69829075D01*
X145495000Y-69861988D01*
X145495000Y-68817768D01*
X145494999Y-68817768D01*
X145428875Y-68828241D01*
X145226784Y-68893903D01*
X145037442Y-68990379D01*
X144865540Y-69115272D01*
X144865535Y-69115276D01*
X144715276Y-69265535D01*
X144715272Y-69265540D01*
X144590379Y-69437442D01*
X144493904Y-69626782D01*
X144428242Y-69828869D01*
X144428242Y-69828872D01*
X144395000Y-70038753D01*
X141995500Y-70038753D01*
X141995500Y-68211228D01*
X148994500Y-68211228D01*
X148994500Y-68378771D01*
X149027182Y-68543074D01*
X149027184Y-68543082D01*
X149091295Y-68697860D01*
X149184373Y-68837162D01*
X149302837Y-68955626D01*
X149395494Y-69017537D01*
X149442137Y-69048703D01*
X149596918Y-69112816D01*
X149744673Y-69142206D01*
X149761228Y-69145499D01*
X149761232Y-69145500D01*
X149761233Y-69145500D01*
X149928768Y-69145500D01*
X149928769Y-69145499D01*
X150093082Y-69112816D01*
X150247863Y-69048703D01*
X150387162Y-68955626D01*
X150505626Y-68837162D01*
X150598703Y-68697863D01*
X150662816Y-68543082D01*
X150695500Y-68378767D01*
X150695500Y-68211233D01*
X150688293Y-68175000D01*
X152839659Y-68175000D01*
X152858975Y-68371129D01*
X152916188Y-68559733D01*
X153009086Y-68733532D01*
X153009090Y-68733539D01*
X153134116Y-68885883D01*
X153286460Y-69010909D01*
X153286467Y-69010913D01*
X153460266Y-69103811D01*
X153460269Y-69103811D01*
X153460273Y-69103814D01*
X153648868Y-69161024D01*
X153845000Y-69180341D01*
X154041132Y-69161024D01*
X154229727Y-69103814D01*
X154247153Y-69094500D01*
X154332832Y-69048703D01*
X154403538Y-69010910D01*
X154555883Y-68885883D01*
X154680910Y-68733538D01*
X154773814Y-68559727D01*
X154831024Y-68371132D01*
X154850341Y-68175000D01*
X168079659Y-68175000D01*
X168098975Y-68371129D01*
X168156188Y-68559733D01*
X168249086Y-68733532D01*
X168249090Y-68733539D01*
X168374116Y-68885883D01*
X168526460Y-69010909D01*
X168526467Y-69010913D01*
X168700266Y-69103811D01*
X168700269Y-69103811D01*
X168700273Y-69103814D01*
X168888868Y-69161024D01*
X169085000Y-69180341D01*
X169281132Y-69161024D01*
X169469727Y-69103814D01*
X169487153Y-69094500D01*
X169572832Y-69048703D01*
X169643538Y-69010910D01*
X169795883Y-68885883D01*
X169920910Y-68733538D01*
X170013814Y-68559727D01*
X170071024Y-68371132D01*
X170076552Y-68315000D01*
X173439659Y-68315000D01*
X173458975Y-68511129D01*
X173516188Y-68699733D01*
X173609086Y-68873532D01*
X173609090Y-68873539D01*
X173734116Y-69025883D01*
X173886460Y-69150909D01*
X173886467Y-69150913D01*
X174060266Y-69243811D01*
X174060269Y-69243811D01*
X174060273Y-69243814D01*
X174248868Y-69301024D01*
X174445000Y-69320341D01*
X174641132Y-69301024D01*
X174829727Y-69243814D01*
X175003538Y-69150910D01*
X175155883Y-69025883D01*
X175280910Y-68873538D01*
X175373814Y-68699727D01*
X175431024Y-68511132D01*
X175450341Y-68315000D01*
X178509659Y-68315000D01*
X178528975Y-68511129D01*
X178586188Y-68699733D01*
X178679086Y-68873532D01*
X178679090Y-68873539D01*
X178804116Y-69025883D01*
X178956460Y-69150909D01*
X178956467Y-69150913D01*
X179130266Y-69243811D01*
X179130269Y-69243811D01*
X179130273Y-69243814D01*
X179318868Y-69301024D01*
X179515000Y-69320341D01*
X179711132Y-69301024D01*
X179899727Y-69243814D01*
X180073538Y-69150910D01*
X180225883Y-69025883D01*
X180350910Y-68873538D01*
X180443814Y-68699727D01*
X180501024Y-68511132D01*
X180520341Y-68315000D01*
X180501024Y-68118868D01*
X180443814Y-67930273D01*
X180443811Y-67930269D01*
X180443811Y-67930266D01*
X180350913Y-67756467D01*
X180350909Y-67756460D01*
X180225883Y-67604116D01*
X180073539Y-67479090D01*
X180073532Y-67479086D01*
X179899733Y-67386188D01*
X179899727Y-67386186D01*
X179711132Y-67328976D01*
X179711129Y-67328975D01*
X179515000Y-67309659D01*
X179318870Y-67328975D01*
X179130266Y-67386188D01*
X178956467Y-67479086D01*
X178956460Y-67479090D01*
X178804116Y-67604116D01*
X178679090Y-67756460D01*
X178679086Y-67756467D01*
X178586188Y-67930266D01*
X178528975Y-68118870D01*
X178509659Y-68315000D01*
X175450341Y-68315000D01*
X175431024Y-68118868D01*
X175373814Y-67930273D01*
X175373811Y-67930269D01*
X175373811Y-67930266D01*
X175280913Y-67756467D01*
X175280909Y-67756460D01*
X175155883Y-67604116D01*
X175003539Y-67479090D01*
X175003532Y-67479086D01*
X174829733Y-67386188D01*
X174829727Y-67386186D01*
X174641132Y-67328976D01*
X174641129Y-67328975D01*
X174445000Y-67309659D01*
X174248870Y-67328975D01*
X174060266Y-67386188D01*
X173886467Y-67479086D01*
X173886460Y-67479090D01*
X173734116Y-67604116D01*
X173609090Y-67756460D01*
X173609086Y-67756467D01*
X173516188Y-67930266D01*
X173458975Y-68118870D01*
X173439659Y-68315000D01*
X170076552Y-68315000D01*
X170090341Y-68175000D01*
X170071024Y-67978868D01*
X170013814Y-67790273D01*
X170013811Y-67790269D01*
X170013811Y-67790266D01*
X169920913Y-67616467D01*
X169920909Y-67616460D01*
X169795883Y-67464116D01*
X169643539Y-67339090D01*
X169643532Y-67339086D01*
X169469733Y-67246188D01*
X169469727Y-67246186D01*
X169281132Y-67188976D01*
X169281129Y-67188975D01*
X169085000Y-67169659D01*
X168888870Y-67188975D01*
X168700266Y-67246188D01*
X168526467Y-67339086D01*
X168526460Y-67339090D01*
X168374116Y-67464116D01*
X168249090Y-67616460D01*
X168249086Y-67616467D01*
X168156188Y-67790266D01*
X168098975Y-67978870D01*
X168079659Y-68175000D01*
X154850341Y-68175000D01*
X154831024Y-67978868D01*
X154773814Y-67790273D01*
X154773811Y-67790269D01*
X154773811Y-67790266D01*
X154680913Y-67616467D01*
X154680909Y-67616460D01*
X154555883Y-67464116D01*
X154403539Y-67339090D01*
X154403532Y-67339086D01*
X154229733Y-67246188D01*
X154229727Y-67246186D01*
X154041132Y-67188976D01*
X154041129Y-67188975D01*
X153845000Y-67169659D01*
X153648870Y-67188975D01*
X153460266Y-67246188D01*
X153286467Y-67339086D01*
X153286460Y-67339090D01*
X153134116Y-67464116D01*
X153009090Y-67616460D01*
X153009086Y-67616467D01*
X152916188Y-67790266D01*
X152858975Y-67978870D01*
X152839659Y-68175000D01*
X150688293Y-68175000D01*
X150662816Y-68046918D01*
X150598703Y-67892137D01*
X150567537Y-67845494D01*
X150505626Y-67752837D01*
X150387162Y-67634373D01*
X150247860Y-67541295D01*
X150093082Y-67477184D01*
X150093074Y-67477182D01*
X149928771Y-67444500D01*
X149928767Y-67444500D01*
X149761233Y-67444500D01*
X149761228Y-67444500D01*
X149596925Y-67477182D01*
X149596917Y-67477184D01*
X149442139Y-67541295D01*
X149302837Y-67634373D01*
X149184373Y-67752837D01*
X149091295Y-67892139D01*
X149027184Y-68046917D01*
X149027182Y-68046925D01*
X148994500Y-68211228D01*
X141995500Y-68211228D01*
X141995500Y-65635000D01*
X152839659Y-65635000D01*
X152858975Y-65831129D01*
X152916188Y-66019733D01*
X153009086Y-66193532D01*
X153009090Y-66193539D01*
X153134116Y-66345883D01*
X153286460Y-66470909D01*
X153286467Y-66470913D01*
X153460266Y-66563811D01*
X153460269Y-66563811D01*
X153460273Y-66563814D01*
X153648868Y-66621024D01*
X153845000Y-66640341D01*
X154041132Y-66621024D01*
X154229727Y-66563814D01*
X154403538Y-66470910D01*
X154555883Y-66345883D01*
X154680910Y-66193538D01*
X154773814Y-66019727D01*
X154831024Y-65831132D01*
X154850341Y-65635000D01*
X168079659Y-65635000D01*
X168098975Y-65831129D01*
X168156188Y-66019733D01*
X168249086Y-66193532D01*
X168249090Y-66193539D01*
X168374116Y-66345883D01*
X168526460Y-66470909D01*
X168526467Y-66470913D01*
X168700266Y-66563811D01*
X168700269Y-66563811D01*
X168700273Y-66563814D01*
X168888868Y-66621024D01*
X169085000Y-66640341D01*
X169281132Y-66621024D01*
X169469727Y-66563814D01*
X169643538Y-66470910D01*
X169795883Y-66345883D01*
X169920910Y-66193538D01*
X170013814Y-66019727D01*
X170071024Y-65831132D01*
X170090341Y-65635000D01*
X170071024Y-65438868D01*
X170013814Y-65250273D01*
X170013811Y-65250269D01*
X170013811Y-65250266D01*
X169920913Y-65076467D01*
X169920909Y-65076460D01*
X169795883Y-64924116D01*
X169643539Y-64799090D01*
X169643532Y-64799086D01*
X169469733Y-64706188D01*
X169469727Y-64706186D01*
X169281132Y-64648976D01*
X169281129Y-64648975D01*
X169085000Y-64629659D01*
X168888870Y-64648975D01*
X168700266Y-64706188D01*
X168526467Y-64799086D01*
X168526460Y-64799090D01*
X168374116Y-64924116D01*
X168249090Y-65076460D01*
X168249086Y-65076467D01*
X168156188Y-65250266D01*
X168098975Y-65438870D01*
X168079659Y-65635000D01*
X154850341Y-65635000D01*
X154831024Y-65438868D01*
X154773814Y-65250273D01*
X154773811Y-65250269D01*
X154773811Y-65250266D01*
X154680913Y-65076467D01*
X154680909Y-65076460D01*
X154555883Y-64924116D01*
X154403539Y-64799090D01*
X154403532Y-64799086D01*
X154229733Y-64706188D01*
X154229727Y-64706186D01*
X154041132Y-64648976D01*
X154041129Y-64648975D01*
X153845000Y-64629659D01*
X153648870Y-64648975D01*
X153460266Y-64706188D01*
X153286467Y-64799086D01*
X153286460Y-64799090D01*
X153134116Y-64924116D01*
X153009090Y-65076460D01*
X153009086Y-65076467D01*
X152916188Y-65250266D01*
X152858975Y-65438870D01*
X152839659Y-65635000D01*
X141995500Y-65635000D01*
X141995500Y-61273711D01*
X142594500Y-61273711D01*
X142594500Y-61516288D01*
X142626161Y-61756785D01*
X142688947Y-61991104D01*
X142781773Y-62215205D01*
X142781776Y-62215212D01*
X142903064Y-62425289D01*
X142903066Y-62425292D01*
X142903067Y-62425293D01*
X143050733Y-62617736D01*
X143050739Y-62617743D01*
X143222256Y-62789260D01*
X143222262Y-62789265D01*
X143414711Y-62936936D01*
X143624788Y-63058224D01*
X143848900Y-63151054D01*
X144083211Y-63213838D01*
X144263586Y-63237584D01*
X144323711Y-63245500D01*
X144323712Y-63245500D01*
X144566289Y-63245500D01*
X144614388Y-63239167D01*
X144806789Y-63213838D01*
X145041100Y-63151054D01*
X145265212Y-63058224D01*
X145475289Y-62936936D01*
X145667738Y-62789265D01*
X145839265Y-62617738D01*
X145986936Y-62425289D01*
X146108224Y-62215212D01*
X146201054Y-61991100D01*
X146263838Y-61756789D01*
X146295500Y-61516288D01*
X146295500Y-61273712D01*
X146295500Y-61273711D01*
X179594500Y-61273711D01*
X179594500Y-61516288D01*
X179626161Y-61756785D01*
X179688947Y-61991104D01*
X179781773Y-62215205D01*
X179781776Y-62215212D01*
X179903064Y-62425289D01*
X179903066Y-62425292D01*
X179903067Y-62425293D01*
X180050733Y-62617736D01*
X180050739Y-62617743D01*
X180222256Y-62789260D01*
X180222262Y-62789265D01*
X180414711Y-62936936D01*
X180624788Y-63058224D01*
X180848900Y-63151054D01*
X181083211Y-63213838D01*
X181263586Y-63237584D01*
X181323711Y-63245500D01*
X181323712Y-63245500D01*
X181566289Y-63245500D01*
X181614388Y-63239167D01*
X181806789Y-63213838D01*
X182041100Y-63151054D01*
X182265212Y-63058224D01*
X182475289Y-62936936D01*
X182667738Y-62789265D01*
X182839265Y-62617738D01*
X182986936Y-62425289D01*
X183108224Y-62215212D01*
X183201054Y-61991100D01*
X183263838Y-61756789D01*
X183295500Y-61516288D01*
X183295500Y-61273712D01*
X183263838Y-61033211D01*
X183201054Y-60798900D01*
X183108224Y-60574788D01*
X182986936Y-60364711D01*
X182839265Y-60172262D01*
X182839260Y-60172256D01*
X182667743Y-60000739D01*
X182667736Y-60000733D01*
X182475293Y-59853067D01*
X182475292Y-59853066D01*
X182475289Y-59853064D01*
X182265212Y-59731776D01*
X182265205Y-59731773D01*
X182041104Y-59638947D01*
X181806785Y-59576161D01*
X181566289Y-59544500D01*
X181566288Y-59544500D01*
X181323712Y-59544500D01*
X181323711Y-59544500D01*
X181083214Y-59576161D01*
X180848895Y-59638947D01*
X180624794Y-59731773D01*
X180624785Y-59731777D01*
X180414706Y-59853067D01*
X180222263Y-60000733D01*
X180222256Y-60000739D01*
X180050739Y-60172256D01*
X180050733Y-60172263D01*
X179903067Y-60364706D01*
X179781777Y-60574785D01*
X179781773Y-60574794D01*
X179688947Y-60798895D01*
X179626161Y-61033214D01*
X179594500Y-61273711D01*
X146295500Y-61273711D01*
X146263838Y-61033211D01*
X146201054Y-60798900D01*
X146108224Y-60574788D01*
X145986936Y-60364711D01*
X145839265Y-60172262D01*
X145839260Y-60172256D01*
X145667743Y-60000739D01*
X145667736Y-60000733D01*
X145475293Y-59853067D01*
X145475292Y-59853066D01*
X145475289Y-59853064D01*
X145265212Y-59731776D01*
X145265205Y-59731773D01*
X145041104Y-59638947D01*
X144806785Y-59576161D01*
X144566289Y-59544500D01*
X144566288Y-59544500D01*
X144323712Y-59544500D01*
X144323711Y-59544500D01*
X144083214Y-59576161D01*
X143848895Y-59638947D01*
X143624794Y-59731773D01*
X143624785Y-59731777D01*
X143414706Y-59853067D01*
X143222263Y-60000733D01*
X143222256Y-60000739D01*
X143050739Y-60172256D01*
X143050733Y-60172263D01*
X142903067Y-60364706D01*
X142781777Y-60574785D01*
X142781773Y-60574794D01*
X142688947Y-60798895D01*
X142626161Y-61033214D01*
X142594500Y-61273711D01*
X141995500Y-61273711D01*
X141995500Y-59069500D01*
X142015185Y-59002461D01*
X142067989Y-58956706D01*
X142119500Y-58945500D01*
X183770500Y-58945500D01*
X183837539Y-58965185D01*
G37*
%TD.AperFunction*%
%TD*%
D20*
X141445000Y-58395000D02*
X184445000Y-58395000D01*
X184445000Y-106395000D01*
X141445000Y-106395000D01*
X141445000Y-58395000D01*
M02*
