%TF.GenerationSoftware,KiCad,Pcbnew,8.0.5*%
%TF.CreationDate,2025-02-09T09:23:53+08:00*%
%TF.ProjectId,arduino_solar_bikelight_1,61726475-696e-46f5-9f73-6f6c61725f62,rev?*%
%TF.SameCoordinates,Original*%
%TF.FileFunction,Drillmap*%
%TF.FilePolarity,Positive*%
%FSLAX45Y45*%
G04 Gerber Fmt 4.5, Leading zero omitted, Abs format (unit mm)*
G04 Created by KiCad (PCBNEW 8.0.5) date 2025-02-09 09:23:53*
%MOMM*%
%LPD*%
G01*
G04 APERTURE LIST*
%ADD10C,0.050000*%
%ADD11C,0.200000*%
%ADD12C,0.100000*%
G04 APERTURE END LIST*
D10*
X14144500Y-5839500D02*
X18444500Y-5839500D01*
X18444500Y-10639500D01*
X14144500Y-10639500D01*
X14144500Y-5839500D01*
D11*
D12*
X17629500Y-7824500D02*
X17659500Y-7854500D01*
X17659500Y-7824500D02*
X17629500Y-7854500D01*
X17459000Y-8208500D02*
G75*
G02*
X17384000Y-8208500I-37500J0D01*
G01*
X17384000Y-8208500D02*
G75*
G02*
X17459000Y-8208500I37500J0D01*
G01*
X17459000Y-8335500D02*
G75*
G02*
X17384000Y-8335500I-37500J0D01*
G01*
X17384000Y-8335500D02*
G75*
G02*
X17459000Y-8335500I37500J0D01*
G01*
X17459000Y-8462500D02*
G75*
G02*
X17384000Y-8462500I-37500J0D01*
G01*
X17384000Y-8462500D02*
G75*
G02*
X17459000Y-8462500I37500J0D01*
G01*
X17972000Y-8212500D02*
G75*
G02*
X17897000Y-8212500I-37500J0D01*
G01*
X17897000Y-8212500D02*
G75*
G02*
X17972000Y-8212500I37500J0D01*
G01*
X17972000Y-8339500D02*
G75*
G02*
X17897000Y-8339500I-37500J0D01*
G01*
X17897000Y-8339500D02*
G75*
G02*
X17972000Y-8339500I37500J0D01*
G01*
X17972000Y-8466500D02*
G75*
G02*
X17897000Y-8466500I-37500J0D01*
G01*
X17897000Y-8466500D02*
G75*
G02*
X17972000Y-8466500I37500J0D01*
G01*
X14624500Y-7431500D02*
X14624500Y-7511500D01*
X14584500Y-7471500D02*
X14664500Y-7471500D01*
X14624500Y-8447500D02*
X14624500Y-8527500D01*
X14584500Y-8487500D02*
X14664500Y-8487500D01*
X14974500Y-7431500D02*
X14974500Y-7511500D01*
X14934500Y-7471500D02*
X15014500Y-7471500D01*
X14974500Y-8447500D02*
X14974500Y-8527500D01*
X14934500Y-8487500D02*
X15014500Y-8487500D01*
X17444500Y-6791500D02*
X17444500Y-6871500D01*
X17404500Y-6831500D02*
X17484500Y-6831500D01*
X17444500Y-7807500D02*
X17444500Y-7887500D01*
X17404500Y-7847500D02*
X17484500Y-7847500D01*
X17951500Y-6791500D02*
X17951500Y-6871500D01*
X17911500Y-6831500D02*
X17991500Y-6831500D01*
X17951500Y-7807500D02*
X17951500Y-7887500D01*
X17911500Y-7847500D02*
X17991500Y-7847500D01*
X14609856Y-7064856D02*
X14609856Y-6994144D01*
X14539144Y-6994144D01*
X14539144Y-7064856D01*
X14609856Y-7064856D01*
X14859856Y-7064856D02*
X14859856Y-6994144D01*
X14789144Y-6994144D01*
X14789144Y-7064856D01*
X14859856Y-7064856D01*
X15419856Y-6598856D02*
X15419856Y-6528144D01*
X15349144Y-6528144D01*
X15349144Y-6598856D01*
X15419856Y-6598856D01*
X15419856Y-6852856D02*
X15419856Y-6782144D01*
X15349144Y-6782144D01*
X15349144Y-6852856D01*
X15419856Y-6852856D01*
X15419856Y-7106856D02*
X15419856Y-7036144D01*
X15349144Y-7036144D01*
X15349144Y-7106856D01*
X15419856Y-7106856D01*
X15419856Y-7360856D02*
X15419856Y-7290144D01*
X15349144Y-7290144D01*
X15349144Y-7360856D01*
X15419856Y-7360856D01*
X15419856Y-7614856D02*
X15419856Y-7544144D01*
X15349144Y-7544144D01*
X15349144Y-7614856D01*
X15419856Y-7614856D01*
X15419856Y-7868856D02*
X15419856Y-7798144D01*
X15349144Y-7798144D01*
X15349144Y-7868856D01*
X15419856Y-7868856D01*
X15419856Y-8122856D02*
X15419856Y-8052144D01*
X15349144Y-8052144D01*
X15349144Y-8122856D01*
X15419856Y-8122856D01*
X15419856Y-8376856D02*
X15419856Y-8306144D01*
X15349144Y-8306144D01*
X15349144Y-8376856D01*
X15419856Y-8376856D01*
X15419856Y-8630856D02*
X15419856Y-8560144D01*
X15349144Y-8560144D01*
X15349144Y-8630856D01*
X15419856Y-8630856D01*
X15419856Y-8884856D02*
X15419856Y-8814144D01*
X15349144Y-8814144D01*
X15349144Y-8884856D01*
X15419856Y-8884856D01*
X15419856Y-9138856D02*
X15419856Y-9068144D01*
X15349144Y-9068144D01*
X15349144Y-9138856D01*
X15419856Y-9138856D01*
X15419856Y-9392856D02*
X15419856Y-9322144D01*
X15349144Y-9322144D01*
X15349144Y-9392856D01*
X15419856Y-9392856D01*
X15419856Y-9646856D02*
X15419856Y-9576144D01*
X15349144Y-9576144D01*
X15349144Y-9646856D01*
X15419856Y-9646856D01*
X15419856Y-9900856D02*
X15419856Y-9830144D01*
X15349144Y-9830144D01*
X15349144Y-9900856D01*
X15419856Y-9900856D01*
X15419856Y-10154856D02*
X15419856Y-10084144D01*
X15349144Y-10084144D01*
X15349144Y-10154856D01*
X15419856Y-10154856D01*
X16943856Y-6598856D02*
X16943856Y-6528144D01*
X16873144Y-6528144D01*
X16873144Y-6598856D01*
X16943856Y-6598856D01*
X16943856Y-6852856D02*
X16943856Y-6782144D01*
X16873144Y-6782144D01*
X16873144Y-6852856D01*
X16943856Y-6852856D01*
X16943856Y-7106856D02*
X16943856Y-7036144D01*
X16873144Y-7036144D01*
X16873144Y-7106856D01*
X16943856Y-7106856D01*
X16943856Y-7360856D02*
X16943856Y-7290144D01*
X16873144Y-7290144D01*
X16873144Y-7360856D01*
X16943856Y-7360856D01*
X16943856Y-7614856D02*
X16943856Y-7544144D01*
X16873144Y-7544144D01*
X16873144Y-7614856D01*
X16943856Y-7614856D01*
X16943856Y-7868856D02*
X16943856Y-7798144D01*
X16873144Y-7798144D01*
X16873144Y-7868856D01*
X16943856Y-7868856D01*
X16943856Y-8122856D02*
X16943856Y-8052144D01*
X16873144Y-8052144D01*
X16873144Y-8122856D01*
X16943856Y-8122856D01*
X16943856Y-8376856D02*
X16943856Y-8306144D01*
X16873144Y-8306144D01*
X16873144Y-8376856D01*
X16943856Y-8376856D01*
X16943856Y-8630856D02*
X16943856Y-8560144D01*
X16873144Y-8560144D01*
X16873144Y-8630856D01*
X16943856Y-8630856D01*
X16943856Y-8884856D02*
X16943856Y-8814144D01*
X16873144Y-8814144D01*
X16873144Y-8884856D01*
X16943856Y-8884856D01*
X16943856Y-9138856D02*
X16943856Y-9068144D01*
X16873144Y-9068144D01*
X16873144Y-9138856D01*
X16943856Y-9138856D01*
X16943856Y-9392856D02*
X16943856Y-9322144D01*
X16873144Y-9322144D01*
X16873144Y-9392856D01*
X16943856Y-9392856D01*
X16943856Y-9646856D02*
X16943856Y-9576144D01*
X16873144Y-9576144D01*
X16873144Y-9646856D01*
X16943856Y-9646856D01*
X16943856Y-9900856D02*
X16943856Y-9830144D01*
X16873144Y-9830144D01*
X16873144Y-9900856D01*
X16943856Y-9900856D01*
X16943856Y-10154856D02*
X16943856Y-10084144D01*
X16873144Y-10084144D01*
X16873144Y-10154856D01*
X16943856Y-10154856D01*
X17679856Y-9032856D02*
X17679856Y-8962144D01*
X17609144Y-8962144D01*
X17609144Y-9032856D01*
X17679856Y-9032856D01*
X17679856Y-9286856D02*
X17679856Y-9216144D01*
X17609144Y-9216144D01*
X17609144Y-9286856D01*
X17679856Y-9286856D01*
X17679856Y-9540856D02*
X17679856Y-9470144D01*
X17609144Y-9470144D01*
X17609144Y-9540856D01*
X17679856Y-9540856D01*
X17679856Y-9794856D02*
X17679856Y-9724144D01*
X17609144Y-9724144D01*
X17609144Y-9794856D01*
X17679856Y-9794856D01*
X17679856Y-10048856D02*
X17679856Y-9978144D01*
X17609144Y-9978144D01*
X17609144Y-10048856D01*
X17679856Y-10048856D01*
D11*
X14402777Y-10953484D02*
X14402777Y-10753484D01*
X14402777Y-10753484D02*
X14450396Y-10753484D01*
X14450396Y-10753484D02*
X14478967Y-10763008D01*
X14478967Y-10763008D02*
X14498015Y-10782055D01*
X14498015Y-10782055D02*
X14507539Y-10801103D01*
X14507539Y-10801103D02*
X14517062Y-10839198D01*
X14517062Y-10839198D02*
X14517062Y-10867770D01*
X14517062Y-10867770D02*
X14507539Y-10905865D01*
X14507539Y-10905865D02*
X14498015Y-10924912D01*
X14498015Y-10924912D02*
X14478967Y-10943960D01*
X14478967Y-10943960D02*
X14450396Y-10953484D01*
X14450396Y-10953484D02*
X14402777Y-10953484D01*
X14602777Y-10953484D02*
X14602777Y-10820150D01*
X14602777Y-10858246D02*
X14612301Y-10839198D01*
X14612301Y-10839198D02*
X14621824Y-10829674D01*
X14621824Y-10829674D02*
X14640872Y-10820150D01*
X14640872Y-10820150D02*
X14659920Y-10820150D01*
X14726586Y-10953484D02*
X14726586Y-10820150D01*
X14726586Y-10753484D02*
X14717062Y-10763008D01*
X14717062Y-10763008D02*
X14726586Y-10772531D01*
X14726586Y-10772531D02*
X14736110Y-10763008D01*
X14736110Y-10763008D02*
X14726586Y-10753484D01*
X14726586Y-10753484D02*
X14726586Y-10772531D01*
X14850396Y-10953484D02*
X14831348Y-10943960D01*
X14831348Y-10943960D02*
X14821824Y-10924912D01*
X14821824Y-10924912D02*
X14821824Y-10753484D01*
X14955158Y-10953484D02*
X14936110Y-10943960D01*
X14936110Y-10943960D02*
X14926586Y-10924912D01*
X14926586Y-10924912D02*
X14926586Y-10753484D01*
X15183729Y-10953484D02*
X15183729Y-10753484D01*
X15183729Y-10753484D02*
X15250396Y-10896341D01*
X15250396Y-10896341D02*
X15317062Y-10753484D01*
X15317062Y-10753484D02*
X15317062Y-10953484D01*
X15498015Y-10953484D02*
X15498015Y-10848722D01*
X15498015Y-10848722D02*
X15488491Y-10829674D01*
X15488491Y-10829674D02*
X15469443Y-10820150D01*
X15469443Y-10820150D02*
X15431348Y-10820150D01*
X15431348Y-10820150D02*
X15412301Y-10829674D01*
X15498015Y-10943960D02*
X15478967Y-10953484D01*
X15478967Y-10953484D02*
X15431348Y-10953484D01*
X15431348Y-10953484D02*
X15412301Y-10943960D01*
X15412301Y-10943960D02*
X15402777Y-10924912D01*
X15402777Y-10924912D02*
X15402777Y-10905865D01*
X15402777Y-10905865D02*
X15412301Y-10886817D01*
X15412301Y-10886817D02*
X15431348Y-10877293D01*
X15431348Y-10877293D02*
X15478967Y-10877293D01*
X15478967Y-10877293D02*
X15498015Y-10867770D01*
X15593253Y-10820150D02*
X15593253Y-11020150D01*
X15593253Y-10829674D02*
X15612301Y-10820150D01*
X15612301Y-10820150D02*
X15650396Y-10820150D01*
X15650396Y-10820150D02*
X15669443Y-10829674D01*
X15669443Y-10829674D02*
X15678967Y-10839198D01*
X15678967Y-10839198D02*
X15688491Y-10858246D01*
X15688491Y-10858246D02*
X15688491Y-10915389D01*
X15688491Y-10915389D02*
X15678967Y-10934436D01*
X15678967Y-10934436D02*
X15669443Y-10943960D01*
X15669443Y-10943960D02*
X15650396Y-10953484D01*
X15650396Y-10953484D02*
X15612301Y-10953484D01*
X15612301Y-10953484D02*
X15593253Y-10943960D01*
X15774205Y-10934436D02*
X15783729Y-10943960D01*
X15783729Y-10943960D02*
X15774205Y-10953484D01*
X15774205Y-10953484D02*
X15764682Y-10943960D01*
X15764682Y-10943960D02*
X15774205Y-10934436D01*
X15774205Y-10934436D02*
X15774205Y-10953484D01*
X15774205Y-10829674D02*
X15783729Y-10839198D01*
X15783729Y-10839198D02*
X15774205Y-10848722D01*
X15774205Y-10848722D02*
X15764682Y-10839198D01*
X15764682Y-10839198D02*
X15774205Y-10829674D01*
X15774205Y-10829674D02*
X15774205Y-10848722D01*
D12*
X14112000Y-11267000D02*
X14142000Y-11297000D01*
X14142000Y-11267000D02*
X14112000Y-11297000D01*
D11*
X14440872Y-11173484D02*
X14459920Y-11173484D01*
X14459920Y-11173484D02*
X14478967Y-11183008D01*
X14478967Y-11183008D02*
X14488491Y-11192531D01*
X14488491Y-11192531D02*
X14498015Y-11211579D01*
X14498015Y-11211579D02*
X14507539Y-11249674D01*
X14507539Y-11249674D02*
X14507539Y-11297293D01*
X14507539Y-11297293D02*
X14498015Y-11335388D01*
X14498015Y-11335388D02*
X14488491Y-11354436D01*
X14488491Y-11354436D02*
X14478967Y-11363960D01*
X14478967Y-11363960D02*
X14459920Y-11373484D01*
X14459920Y-11373484D02*
X14440872Y-11373484D01*
X14440872Y-11373484D02*
X14421824Y-11363960D01*
X14421824Y-11363960D02*
X14412301Y-11354436D01*
X14412301Y-11354436D02*
X14402777Y-11335388D01*
X14402777Y-11335388D02*
X14393253Y-11297293D01*
X14393253Y-11297293D02*
X14393253Y-11249674D01*
X14393253Y-11249674D02*
X14402777Y-11211579D01*
X14402777Y-11211579D02*
X14412301Y-11192531D01*
X14412301Y-11192531D02*
X14421824Y-11183008D01*
X14421824Y-11183008D02*
X14440872Y-11173484D01*
X14593253Y-11354436D02*
X14602777Y-11363960D01*
X14602777Y-11363960D02*
X14593253Y-11373484D01*
X14593253Y-11373484D02*
X14583729Y-11363960D01*
X14583729Y-11363960D02*
X14593253Y-11354436D01*
X14593253Y-11354436D02*
X14593253Y-11373484D01*
X14669443Y-11173484D02*
X14793253Y-11173484D01*
X14793253Y-11173484D02*
X14726586Y-11249674D01*
X14726586Y-11249674D02*
X14755158Y-11249674D01*
X14755158Y-11249674D02*
X14774205Y-11259198D01*
X14774205Y-11259198D02*
X14783729Y-11268722D01*
X14783729Y-11268722D02*
X14793253Y-11287769D01*
X14793253Y-11287769D02*
X14793253Y-11335388D01*
X14793253Y-11335388D02*
X14783729Y-11354436D01*
X14783729Y-11354436D02*
X14774205Y-11363960D01*
X14774205Y-11363960D02*
X14755158Y-11373484D01*
X14755158Y-11373484D02*
X14698015Y-11373484D01*
X14698015Y-11373484D02*
X14678967Y-11363960D01*
X14678967Y-11363960D02*
X14669443Y-11354436D01*
X14917062Y-11173484D02*
X14936110Y-11173484D01*
X14936110Y-11173484D02*
X14955158Y-11183008D01*
X14955158Y-11183008D02*
X14964682Y-11192531D01*
X14964682Y-11192531D02*
X14974205Y-11211579D01*
X14974205Y-11211579D02*
X14983729Y-11249674D01*
X14983729Y-11249674D02*
X14983729Y-11297293D01*
X14983729Y-11297293D02*
X14974205Y-11335388D01*
X14974205Y-11335388D02*
X14964682Y-11354436D01*
X14964682Y-11354436D02*
X14955158Y-11363960D01*
X14955158Y-11363960D02*
X14936110Y-11373484D01*
X14936110Y-11373484D02*
X14917062Y-11373484D01*
X14917062Y-11373484D02*
X14898015Y-11363960D01*
X14898015Y-11363960D02*
X14888491Y-11354436D01*
X14888491Y-11354436D02*
X14878967Y-11335388D01*
X14878967Y-11335388D02*
X14869443Y-11297293D01*
X14869443Y-11297293D02*
X14869443Y-11249674D01*
X14869443Y-11249674D02*
X14878967Y-11211579D01*
X14878967Y-11211579D02*
X14888491Y-11192531D01*
X14888491Y-11192531D02*
X14898015Y-11183008D01*
X14898015Y-11183008D02*
X14917062Y-11173484D01*
X15107539Y-11173484D02*
X15126586Y-11173484D01*
X15126586Y-11173484D02*
X15145634Y-11183008D01*
X15145634Y-11183008D02*
X15155158Y-11192531D01*
X15155158Y-11192531D02*
X15164682Y-11211579D01*
X15164682Y-11211579D02*
X15174205Y-11249674D01*
X15174205Y-11249674D02*
X15174205Y-11297293D01*
X15174205Y-11297293D02*
X15164682Y-11335388D01*
X15164682Y-11335388D02*
X15155158Y-11354436D01*
X15155158Y-11354436D02*
X15145634Y-11363960D01*
X15145634Y-11363960D02*
X15126586Y-11373484D01*
X15126586Y-11373484D02*
X15107539Y-11373484D01*
X15107539Y-11373484D02*
X15088491Y-11363960D01*
X15088491Y-11363960D02*
X15078967Y-11354436D01*
X15078967Y-11354436D02*
X15069443Y-11335388D01*
X15069443Y-11335388D02*
X15059920Y-11297293D01*
X15059920Y-11297293D02*
X15059920Y-11249674D01*
X15059920Y-11249674D02*
X15069443Y-11211579D01*
X15069443Y-11211579D02*
X15078967Y-11192531D01*
X15078967Y-11192531D02*
X15088491Y-11183008D01*
X15088491Y-11183008D02*
X15107539Y-11173484D01*
X15259920Y-11373484D02*
X15259920Y-11240150D01*
X15259920Y-11259198D02*
X15269443Y-11249674D01*
X15269443Y-11249674D02*
X15288491Y-11240150D01*
X15288491Y-11240150D02*
X15317063Y-11240150D01*
X15317063Y-11240150D02*
X15336110Y-11249674D01*
X15336110Y-11249674D02*
X15345634Y-11268722D01*
X15345634Y-11268722D02*
X15345634Y-11373484D01*
X15345634Y-11268722D02*
X15355158Y-11249674D01*
X15355158Y-11249674D02*
X15374205Y-11240150D01*
X15374205Y-11240150D02*
X15402777Y-11240150D01*
X15402777Y-11240150D02*
X15421824Y-11249674D01*
X15421824Y-11249674D02*
X15431348Y-11268722D01*
X15431348Y-11268722D02*
X15431348Y-11373484D01*
X15526586Y-11373484D02*
X15526586Y-11240150D01*
X15526586Y-11259198D02*
X15536110Y-11249674D01*
X15536110Y-11249674D02*
X15555158Y-11240150D01*
X15555158Y-11240150D02*
X15583729Y-11240150D01*
X15583729Y-11240150D02*
X15602777Y-11249674D01*
X15602777Y-11249674D02*
X15612301Y-11268722D01*
X15612301Y-11268722D02*
X15612301Y-11373484D01*
X15612301Y-11268722D02*
X15621824Y-11249674D01*
X15621824Y-11249674D02*
X15640872Y-11240150D01*
X15640872Y-11240150D02*
X15669443Y-11240150D01*
X15669443Y-11240150D02*
X15688491Y-11249674D01*
X15688491Y-11249674D02*
X15698015Y-11268722D01*
X15698015Y-11268722D02*
X15698015Y-11373484D01*
X16088491Y-11163960D02*
X15917063Y-11421103D01*
X16345634Y-11173484D02*
X16364682Y-11173484D01*
X16364682Y-11173484D02*
X16383729Y-11183008D01*
X16383729Y-11183008D02*
X16393253Y-11192531D01*
X16393253Y-11192531D02*
X16402777Y-11211579D01*
X16402777Y-11211579D02*
X16412301Y-11249674D01*
X16412301Y-11249674D02*
X16412301Y-11297293D01*
X16412301Y-11297293D02*
X16402777Y-11335388D01*
X16402777Y-11335388D02*
X16393253Y-11354436D01*
X16393253Y-11354436D02*
X16383729Y-11363960D01*
X16383729Y-11363960D02*
X16364682Y-11373484D01*
X16364682Y-11373484D02*
X16345634Y-11373484D01*
X16345634Y-11373484D02*
X16326586Y-11363960D01*
X16326586Y-11363960D02*
X16317063Y-11354436D01*
X16317063Y-11354436D02*
X16307539Y-11335388D01*
X16307539Y-11335388D02*
X16298015Y-11297293D01*
X16298015Y-11297293D02*
X16298015Y-11249674D01*
X16298015Y-11249674D02*
X16307539Y-11211579D01*
X16307539Y-11211579D02*
X16317063Y-11192531D01*
X16317063Y-11192531D02*
X16326586Y-11183008D01*
X16326586Y-11183008D02*
X16345634Y-11173484D01*
X16498015Y-11354436D02*
X16507539Y-11363960D01*
X16507539Y-11363960D02*
X16498015Y-11373484D01*
X16498015Y-11373484D02*
X16488491Y-11363960D01*
X16488491Y-11363960D02*
X16498015Y-11354436D01*
X16498015Y-11354436D02*
X16498015Y-11373484D01*
X16631348Y-11173484D02*
X16650396Y-11173484D01*
X16650396Y-11173484D02*
X16669444Y-11183008D01*
X16669444Y-11183008D02*
X16678967Y-11192531D01*
X16678967Y-11192531D02*
X16688491Y-11211579D01*
X16688491Y-11211579D02*
X16698015Y-11249674D01*
X16698015Y-11249674D02*
X16698015Y-11297293D01*
X16698015Y-11297293D02*
X16688491Y-11335388D01*
X16688491Y-11335388D02*
X16678967Y-11354436D01*
X16678967Y-11354436D02*
X16669444Y-11363960D01*
X16669444Y-11363960D02*
X16650396Y-11373484D01*
X16650396Y-11373484D02*
X16631348Y-11373484D01*
X16631348Y-11373484D02*
X16612301Y-11363960D01*
X16612301Y-11363960D02*
X16602777Y-11354436D01*
X16602777Y-11354436D02*
X16593253Y-11335388D01*
X16593253Y-11335388D02*
X16583729Y-11297293D01*
X16583729Y-11297293D02*
X16583729Y-11249674D01*
X16583729Y-11249674D02*
X16593253Y-11211579D01*
X16593253Y-11211579D02*
X16602777Y-11192531D01*
X16602777Y-11192531D02*
X16612301Y-11183008D01*
X16612301Y-11183008D02*
X16631348Y-11173484D01*
X16888491Y-11373484D02*
X16774206Y-11373484D01*
X16831348Y-11373484D02*
X16831348Y-11173484D01*
X16831348Y-11173484D02*
X16812301Y-11202055D01*
X16812301Y-11202055D02*
X16793253Y-11221103D01*
X16793253Y-11221103D02*
X16774206Y-11230627D01*
X17078968Y-11373484D02*
X16964682Y-11373484D01*
X17021825Y-11373484D02*
X17021825Y-11173484D01*
X17021825Y-11173484D02*
X17002777Y-11202055D01*
X17002777Y-11202055D02*
X16983729Y-11221103D01*
X16983729Y-11221103D02*
X16964682Y-11230627D01*
X17193253Y-11259198D02*
X17174206Y-11249674D01*
X17174206Y-11249674D02*
X17164682Y-11240150D01*
X17164682Y-11240150D02*
X17155158Y-11221103D01*
X17155158Y-11221103D02*
X17155158Y-11211579D01*
X17155158Y-11211579D02*
X17164682Y-11192531D01*
X17164682Y-11192531D02*
X17174206Y-11183008D01*
X17174206Y-11183008D02*
X17193253Y-11173484D01*
X17193253Y-11173484D02*
X17231349Y-11173484D01*
X17231349Y-11173484D02*
X17250396Y-11183008D01*
X17250396Y-11183008D02*
X17259920Y-11192531D01*
X17259920Y-11192531D02*
X17269444Y-11211579D01*
X17269444Y-11211579D02*
X17269444Y-11221103D01*
X17269444Y-11221103D02*
X17259920Y-11240150D01*
X17259920Y-11240150D02*
X17250396Y-11249674D01*
X17250396Y-11249674D02*
X17231349Y-11259198D01*
X17231349Y-11259198D02*
X17193253Y-11259198D01*
X17193253Y-11259198D02*
X17174206Y-11268722D01*
X17174206Y-11268722D02*
X17164682Y-11278246D01*
X17164682Y-11278246D02*
X17155158Y-11297293D01*
X17155158Y-11297293D02*
X17155158Y-11335388D01*
X17155158Y-11335388D02*
X17164682Y-11354436D01*
X17164682Y-11354436D02*
X17174206Y-11363960D01*
X17174206Y-11363960D02*
X17193253Y-11373484D01*
X17193253Y-11373484D02*
X17231349Y-11373484D01*
X17231349Y-11373484D02*
X17250396Y-11363960D01*
X17250396Y-11363960D02*
X17259920Y-11354436D01*
X17259920Y-11354436D02*
X17269444Y-11335388D01*
X17269444Y-11335388D02*
X17269444Y-11297293D01*
X17269444Y-11297293D02*
X17259920Y-11278246D01*
X17259920Y-11278246D02*
X17250396Y-11268722D01*
X17250396Y-11268722D02*
X17231349Y-11259198D01*
X17345634Y-11173484D02*
X17345634Y-11211579D01*
X17421825Y-11173484D02*
X17421825Y-11211579D01*
X17717063Y-11449674D02*
X17707539Y-11440150D01*
X17707539Y-11440150D02*
X17688491Y-11411579D01*
X17688491Y-11411579D02*
X17678968Y-11392531D01*
X17678968Y-11392531D02*
X17669444Y-11363960D01*
X17669444Y-11363960D02*
X17659920Y-11316341D01*
X17659920Y-11316341D02*
X17659920Y-11278246D01*
X17659920Y-11278246D02*
X17669444Y-11230627D01*
X17669444Y-11230627D02*
X17678968Y-11202055D01*
X17678968Y-11202055D02*
X17688491Y-11183008D01*
X17688491Y-11183008D02*
X17707539Y-11154436D01*
X17707539Y-11154436D02*
X17717063Y-11144912D01*
X17898015Y-11373484D02*
X17783730Y-11373484D01*
X17840872Y-11373484D02*
X17840872Y-11173484D01*
X17840872Y-11173484D02*
X17821825Y-11202055D01*
X17821825Y-11202055D02*
X17802777Y-11221103D01*
X17802777Y-11221103D02*
X17783730Y-11230627D01*
X18136111Y-11373484D02*
X18136111Y-11173484D01*
X18221825Y-11373484D02*
X18221825Y-11268722D01*
X18221825Y-11268722D02*
X18212301Y-11249674D01*
X18212301Y-11249674D02*
X18193253Y-11240150D01*
X18193253Y-11240150D02*
X18164682Y-11240150D01*
X18164682Y-11240150D02*
X18145634Y-11249674D01*
X18145634Y-11249674D02*
X18136111Y-11259198D01*
X18345634Y-11373484D02*
X18326587Y-11363960D01*
X18326587Y-11363960D02*
X18317063Y-11354436D01*
X18317063Y-11354436D02*
X18307539Y-11335388D01*
X18307539Y-11335388D02*
X18307539Y-11278246D01*
X18307539Y-11278246D02*
X18317063Y-11259198D01*
X18317063Y-11259198D02*
X18326587Y-11249674D01*
X18326587Y-11249674D02*
X18345634Y-11240150D01*
X18345634Y-11240150D02*
X18374206Y-11240150D01*
X18374206Y-11240150D02*
X18393253Y-11249674D01*
X18393253Y-11249674D02*
X18402777Y-11259198D01*
X18402777Y-11259198D02*
X18412301Y-11278246D01*
X18412301Y-11278246D02*
X18412301Y-11335388D01*
X18412301Y-11335388D02*
X18402777Y-11354436D01*
X18402777Y-11354436D02*
X18393253Y-11363960D01*
X18393253Y-11363960D02*
X18374206Y-11373484D01*
X18374206Y-11373484D02*
X18345634Y-11373484D01*
X18526587Y-11373484D02*
X18507539Y-11363960D01*
X18507539Y-11363960D02*
X18498015Y-11344912D01*
X18498015Y-11344912D02*
X18498015Y-11173484D01*
X18678968Y-11363960D02*
X18659920Y-11373484D01*
X18659920Y-11373484D02*
X18621825Y-11373484D01*
X18621825Y-11373484D02*
X18602777Y-11363960D01*
X18602777Y-11363960D02*
X18593253Y-11344912D01*
X18593253Y-11344912D02*
X18593253Y-11268722D01*
X18593253Y-11268722D02*
X18602777Y-11249674D01*
X18602777Y-11249674D02*
X18621825Y-11240150D01*
X18621825Y-11240150D02*
X18659920Y-11240150D01*
X18659920Y-11240150D02*
X18678968Y-11249674D01*
X18678968Y-11249674D02*
X18688492Y-11268722D01*
X18688492Y-11268722D02*
X18688492Y-11287769D01*
X18688492Y-11287769D02*
X18593253Y-11306817D01*
X18755158Y-11449674D02*
X18764682Y-11440150D01*
X18764682Y-11440150D02*
X18783730Y-11411579D01*
X18783730Y-11411579D02*
X18793253Y-11392531D01*
X18793253Y-11392531D02*
X18802777Y-11363960D01*
X18802777Y-11363960D02*
X18812301Y-11316341D01*
X18812301Y-11316341D02*
X18812301Y-11278246D01*
X18812301Y-11278246D02*
X18802777Y-11230627D01*
X18802777Y-11230627D02*
X18793253Y-11202055D01*
X18793253Y-11202055D02*
X18783730Y-11183008D01*
X18783730Y-11183008D02*
X18764682Y-11154436D01*
X18764682Y-11154436D02*
X18755158Y-11144912D01*
D12*
X14142000Y-11546000D02*
G75*
G02*
X14067000Y-11546000I-37500J0D01*
G01*
X14067000Y-11546000D02*
G75*
G02*
X14142000Y-11546000I37500J0D01*
G01*
D11*
X14440872Y-11437484D02*
X14459920Y-11437484D01*
X14459920Y-11437484D02*
X14478967Y-11447008D01*
X14478967Y-11447008D02*
X14488491Y-11456531D01*
X14488491Y-11456531D02*
X14498015Y-11475579D01*
X14498015Y-11475579D02*
X14507539Y-11513674D01*
X14507539Y-11513674D02*
X14507539Y-11561293D01*
X14507539Y-11561293D02*
X14498015Y-11599388D01*
X14498015Y-11599388D02*
X14488491Y-11618436D01*
X14488491Y-11618436D02*
X14478967Y-11627960D01*
X14478967Y-11627960D02*
X14459920Y-11637484D01*
X14459920Y-11637484D02*
X14440872Y-11637484D01*
X14440872Y-11637484D02*
X14421824Y-11627960D01*
X14421824Y-11627960D02*
X14412301Y-11618436D01*
X14412301Y-11618436D02*
X14402777Y-11599388D01*
X14402777Y-11599388D02*
X14393253Y-11561293D01*
X14393253Y-11561293D02*
X14393253Y-11513674D01*
X14393253Y-11513674D02*
X14402777Y-11475579D01*
X14402777Y-11475579D02*
X14412301Y-11456531D01*
X14412301Y-11456531D02*
X14421824Y-11447008D01*
X14421824Y-11447008D02*
X14440872Y-11437484D01*
X14593253Y-11618436D02*
X14602777Y-11627960D01*
X14602777Y-11627960D02*
X14593253Y-11637484D01*
X14593253Y-11637484D02*
X14583729Y-11627960D01*
X14583729Y-11627960D02*
X14593253Y-11618436D01*
X14593253Y-11618436D02*
X14593253Y-11637484D01*
X14669443Y-11437484D02*
X14802777Y-11437484D01*
X14802777Y-11437484D02*
X14717062Y-11637484D01*
X14974205Y-11437484D02*
X14878967Y-11437484D01*
X14878967Y-11437484D02*
X14869443Y-11532722D01*
X14869443Y-11532722D02*
X14878967Y-11523198D01*
X14878967Y-11523198D02*
X14898015Y-11513674D01*
X14898015Y-11513674D02*
X14945634Y-11513674D01*
X14945634Y-11513674D02*
X14964682Y-11523198D01*
X14964682Y-11523198D02*
X14974205Y-11532722D01*
X14974205Y-11532722D02*
X14983729Y-11551769D01*
X14983729Y-11551769D02*
X14983729Y-11599388D01*
X14983729Y-11599388D02*
X14974205Y-11618436D01*
X14974205Y-11618436D02*
X14964682Y-11627960D01*
X14964682Y-11627960D02*
X14945634Y-11637484D01*
X14945634Y-11637484D02*
X14898015Y-11637484D01*
X14898015Y-11637484D02*
X14878967Y-11627960D01*
X14878967Y-11627960D02*
X14869443Y-11618436D01*
X15107539Y-11437484D02*
X15126586Y-11437484D01*
X15126586Y-11437484D02*
X15145634Y-11447008D01*
X15145634Y-11447008D02*
X15155158Y-11456531D01*
X15155158Y-11456531D02*
X15164682Y-11475579D01*
X15164682Y-11475579D02*
X15174205Y-11513674D01*
X15174205Y-11513674D02*
X15174205Y-11561293D01*
X15174205Y-11561293D02*
X15164682Y-11599388D01*
X15164682Y-11599388D02*
X15155158Y-11618436D01*
X15155158Y-11618436D02*
X15145634Y-11627960D01*
X15145634Y-11627960D02*
X15126586Y-11637484D01*
X15126586Y-11637484D02*
X15107539Y-11637484D01*
X15107539Y-11637484D02*
X15088491Y-11627960D01*
X15088491Y-11627960D02*
X15078967Y-11618436D01*
X15078967Y-11618436D02*
X15069443Y-11599388D01*
X15069443Y-11599388D02*
X15059920Y-11561293D01*
X15059920Y-11561293D02*
X15059920Y-11513674D01*
X15059920Y-11513674D02*
X15069443Y-11475579D01*
X15069443Y-11475579D02*
X15078967Y-11456531D01*
X15078967Y-11456531D02*
X15088491Y-11447008D01*
X15088491Y-11447008D02*
X15107539Y-11437484D01*
X15259920Y-11637484D02*
X15259920Y-11504150D01*
X15259920Y-11523198D02*
X15269443Y-11513674D01*
X15269443Y-11513674D02*
X15288491Y-11504150D01*
X15288491Y-11504150D02*
X15317063Y-11504150D01*
X15317063Y-11504150D02*
X15336110Y-11513674D01*
X15336110Y-11513674D02*
X15345634Y-11532722D01*
X15345634Y-11532722D02*
X15345634Y-11637484D01*
X15345634Y-11532722D02*
X15355158Y-11513674D01*
X15355158Y-11513674D02*
X15374205Y-11504150D01*
X15374205Y-11504150D02*
X15402777Y-11504150D01*
X15402777Y-11504150D02*
X15421824Y-11513674D01*
X15421824Y-11513674D02*
X15431348Y-11532722D01*
X15431348Y-11532722D02*
X15431348Y-11637484D01*
X15526586Y-11637484D02*
X15526586Y-11504150D01*
X15526586Y-11523198D02*
X15536110Y-11513674D01*
X15536110Y-11513674D02*
X15555158Y-11504150D01*
X15555158Y-11504150D02*
X15583729Y-11504150D01*
X15583729Y-11504150D02*
X15602777Y-11513674D01*
X15602777Y-11513674D02*
X15612301Y-11532722D01*
X15612301Y-11532722D02*
X15612301Y-11637484D01*
X15612301Y-11532722D02*
X15621824Y-11513674D01*
X15621824Y-11513674D02*
X15640872Y-11504150D01*
X15640872Y-11504150D02*
X15669443Y-11504150D01*
X15669443Y-11504150D02*
X15688491Y-11513674D01*
X15688491Y-11513674D02*
X15698015Y-11532722D01*
X15698015Y-11532722D02*
X15698015Y-11637484D01*
X16088491Y-11427960D02*
X15917063Y-11685103D01*
X16345634Y-11437484D02*
X16364682Y-11437484D01*
X16364682Y-11437484D02*
X16383729Y-11447008D01*
X16383729Y-11447008D02*
X16393253Y-11456531D01*
X16393253Y-11456531D02*
X16402777Y-11475579D01*
X16402777Y-11475579D02*
X16412301Y-11513674D01*
X16412301Y-11513674D02*
X16412301Y-11561293D01*
X16412301Y-11561293D02*
X16402777Y-11599388D01*
X16402777Y-11599388D02*
X16393253Y-11618436D01*
X16393253Y-11618436D02*
X16383729Y-11627960D01*
X16383729Y-11627960D02*
X16364682Y-11637484D01*
X16364682Y-11637484D02*
X16345634Y-11637484D01*
X16345634Y-11637484D02*
X16326586Y-11627960D01*
X16326586Y-11627960D02*
X16317063Y-11618436D01*
X16317063Y-11618436D02*
X16307539Y-11599388D01*
X16307539Y-11599388D02*
X16298015Y-11561293D01*
X16298015Y-11561293D02*
X16298015Y-11513674D01*
X16298015Y-11513674D02*
X16307539Y-11475579D01*
X16307539Y-11475579D02*
X16317063Y-11456531D01*
X16317063Y-11456531D02*
X16326586Y-11447008D01*
X16326586Y-11447008D02*
X16345634Y-11437484D01*
X16498015Y-11618436D02*
X16507539Y-11627960D01*
X16507539Y-11627960D02*
X16498015Y-11637484D01*
X16498015Y-11637484D02*
X16488491Y-11627960D01*
X16488491Y-11627960D02*
X16498015Y-11618436D01*
X16498015Y-11618436D02*
X16498015Y-11637484D01*
X16631348Y-11437484D02*
X16650396Y-11437484D01*
X16650396Y-11437484D02*
X16669444Y-11447008D01*
X16669444Y-11447008D02*
X16678967Y-11456531D01*
X16678967Y-11456531D02*
X16688491Y-11475579D01*
X16688491Y-11475579D02*
X16698015Y-11513674D01*
X16698015Y-11513674D02*
X16698015Y-11561293D01*
X16698015Y-11561293D02*
X16688491Y-11599388D01*
X16688491Y-11599388D02*
X16678967Y-11618436D01*
X16678967Y-11618436D02*
X16669444Y-11627960D01*
X16669444Y-11627960D02*
X16650396Y-11637484D01*
X16650396Y-11637484D02*
X16631348Y-11637484D01*
X16631348Y-11637484D02*
X16612301Y-11627960D01*
X16612301Y-11627960D02*
X16602777Y-11618436D01*
X16602777Y-11618436D02*
X16593253Y-11599388D01*
X16593253Y-11599388D02*
X16583729Y-11561293D01*
X16583729Y-11561293D02*
X16583729Y-11513674D01*
X16583729Y-11513674D02*
X16593253Y-11475579D01*
X16593253Y-11475579D02*
X16602777Y-11456531D01*
X16602777Y-11456531D02*
X16612301Y-11447008D01*
X16612301Y-11447008D02*
X16631348Y-11437484D01*
X16774206Y-11456531D02*
X16783729Y-11447008D01*
X16783729Y-11447008D02*
X16802777Y-11437484D01*
X16802777Y-11437484D02*
X16850396Y-11437484D01*
X16850396Y-11437484D02*
X16869444Y-11447008D01*
X16869444Y-11447008D02*
X16878968Y-11456531D01*
X16878968Y-11456531D02*
X16888491Y-11475579D01*
X16888491Y-11475579D02*
X16888491Y-11494627D01*
X16888491Y-11494627D02*
X16878968Y-11523198D01*
X16878968Y-11523198D02*
X16764682Y-11637484D01*
X16764682Y-11637484D02*
X16888491Y-11637484D01*
X16983729Y-11637484D02*
X17021825Y-11637484D01*
X17021825Y-11637484D02*
X17040872Y-11627960D01*
X17040872Y-11627960D02*
X17050396Y-11618436D01*
X17050396Y-11618436D02*
X17069444Y-11589865D01*
X17069444Y-11589865D02*
X17078968Y-11551769D01*
X17078968Y-11551769D02*
X17078968Y-11475579D01*
X17078968Y-11475579D02*
X17069444Y-11456531D01*
X17069444Y-11456531D02*
X17059920Y-11447008D01*
X17059920Y-11447008D02*
X17040872Y-11437484D01*
X17040872Y-11437484D02*
X17002777Y-11437484D01*
X17002777Y-11437484D02*
X16983729Y-11447008D01*
X16983729Y-11447008D02*
X16974206Y-11456531D01*
X16974206Y-11456531D02*
X16964682Y-11475579D01*
X16964682Y-11475579D02*
X16964682Y-11523198D01*
X16964682Y-11523198D02*
X16974206Y-11542246D01*
X16974206Y-11542246D02*
X16983729Y-11551769D01*
X16983729Y-11551769D02*
X17002777Y-11561293D01*
X17002777Y-11561293D02*
X17040872Y-11561293D01*
X17040872Y-11561293D02*
X17059920Y-11551769D01*
X17059920Y-11551769D02*
X17069444Y-11542246D01*
X17069444Y-11542246D02*
X17078968Y-11523198D01*
X17259920Y-11437484D02*
X17164682Y-11437484D01*
X17164682Y-11437484D02*
X17155158Y-11532722D01*
X17155158Y-11532722D02*
X17164682Y-11523198D01*
X17164682Y-11523198D02*
X17183729Y-11513674D01*
X17183729Y-11513674D02*
X17231349Y-11513674D01*
X17231349Y-11513674D02*
X17250396Y-11523198D01*
X17250396Y-11523198D02*
X17259920Y-11532722D01*
X17259920Y-11532722D02*
X17269444Y-11551769D01*
X17269444Y-11551769D02*
X17269444Y-11599388D01*
X17269444Y-11599388D02*
X17259920Y-11618436D01*
X17259920Y-11618436D02*
X17250396Y-11627960D01*
X17250396Y-11627960D02*
X17231349Y-11637484D01*
X17231349Y-11637484D02*
X17183729Y-11637484D01*
X17183729Y-11637484D02*
X17164682Y-11627960D01*
X17164682Y-11627960D02*
X17155158Y-11618436D01*
X17345634Y-11437484D02*
X17345634Y-11475579D01*
X17421825Y-11437484D02*
X17421825Y-11475579D01*
X17717063Y-11713674D02*
X17707539Y-11704150D01*
X17707539Y-11704150D02*
X17688491Y-11675579D01*
X17688491Y-11675579D02*
X17678968Y-11656531D01*
X17678968Y-11656531D02*
X17669444Y-11627960D01*
X17669444Y-11627960D02*
X17659920Y-11580341D01*
X17659920Y-11580341D02*
X17659920Y-11542246D01*
X17659920Y-11542246D02*
X17669444Y-11494627D01*
X17669444Y-11494627D02*
X17678968Y-11466055D01*
X17678968Y-11466055D02*
X17688491Y-11447008D01*
X17688491Y-11447008D02*
X17707539Y-11418436D01*
X17707539Y-11418436D02*
X17717063Y-11408912D01*
X17878968Y-11437484D02*
X17840872Y-11437484D01*
X17840872Y-11437484D02*
X17821825Y-11447008D01*
X17821825Y-11447008D02*
X17812301Y-11456531D01*
X17812301Y-11456531D02*
X17793253Y-11485103D01*
X17793253Y-11485103D02*
X17783730Y-11523198D01*
X17783730Y-11523198D02*
X17783730Y-11599388D01*
X17783730Y-11599388D02*
X17793253Y-11618436D01*
X17793253Y-11618436D02*
X17802777Y-11627960D01*
X17802777Y-11627960D02*
X17821825Y-11637484D01*
X17821825Y-11637484D02*
X17859920Y-11637484D01*
X17859920Y-11637484D02*
X17878968Y-11627960D01*
X17878968Y-11627960D02*
X17888491Y-11618436D01*
X17888491Y-11618436D02*
X17898015Y-11599388D01*
X17898015Y-11599388D02*
X17898015Y-11551769D01*
X17898015Y-11551769D02*
X17888491Y-11532722D01*
X17888491Y-11532722D02*
X17878968Y-11523198D01*
X17878968Y-11523198D02*
X17859920Y-11513674D01*
X17859920Y-11513674D02*
X17821825Y-11513674D01*
X17821825Y-11513674D02*
X17802777Y-11523198D01*
X17802777Y-11523198D02*
X17793253Y-11532722D01*
X17793253Y-11532722D02*
X17783730Y-11551769D01*
X18136111Y-11637484D02*
X18136111Y-11437484D01*
X18221825Y-11637484D02*
X18221825Y-11532722D01*
X18221825Y-11532722D02*
X18212301Y-11513674D01*
X18212301Y-11513674D02*
X18193253Y-11504150D01*
X18193253Y-11504150D02*
X18164682Y-11504150D01*
X18164682Y-11504150D02*
X18145634Y-11513674D01*
X18145634Y-11513674D02*
X18136111Y-11523198D01*
X18345634Y-11637484D02*
X18326587Y-11627960D01*
X18326587Y-11627960D02*
X18317063Y-11618436D01*
X18317063Y-11618436D02*
X18307539Y-11599388D01*
X18307539Y-11599388D02*
X18307539Y-11542246D01*
X18307539Y-11542246D02*
X18317063Y-11523198D01*
X18317063Y-11523198D02*
X18326587Y-11513674D01*
X18326587Y-11513674D02*
X18345634Y-11504150D01*
X18345634Y-11504150D02*
X18374206Y-11504150D01*
X18374206Y-11504150D02*
X18393253Y-11513674D01*
X18393253Y-11513674D02*
X18402777Y-11523198D01*
X18402777Y-11523198D02*
X18412301Y-11542246D01*
X18412301Y-11542246D02*
X18412301Y-11599388D01*
X18412301Y-11599388D02*
X18402777Y-11618436D01*
X18402777Y-11618436D02*
X18393253Y-11627960D01*
X18393253Y-11627960D02*
X18374206Y-11637484D01*
X18374206Y-11637484D02*
X18345634Y-11637484D01*
X18526587Y-11637484D02*
X18507539Y-11627960D01*
X18507539Y-11627960D02*
X18498015Y-11608912D01*
X18498015Y-11608912D02*
X18498015Y-11437484D01*
X18678968Y-11627960D02*
X18659920Y-11637484D01*
X18659920Y-11637484D02*
X18621825Y-11637484D01*
X18621825Y-11637484D02*
X18602777Y-11627960D01*
X18602777Y-11627960D02*
X18593253Y-11608912D01*
X18593253Y-11608912D02*
X18593253Y-11532722D01*
X18593253Y-11532722D02*
X18602777Y-11513674D01*
X18602777Y-11513674D02*
X18621825Y-11504150D01*
X18621825Y-11504150D02*
X18659920Y-11504150D01*
X18659920Y-11504150D02*
X18678968Y-11513674D01*
X18678968Y-11513674D02*
X18688492Y-11532722D01*
X18688492Y-11532722D02*
X18688492Y-11551769D01*
X18688492Y-11551769D02*
X18593253Y-11570817D01*
X18764682Y-11627960D02*
X18783730Y-11637484D01*
X18783730Y-11637484D02*
X18821825Y-11637484D01*
X18821825Y-11637484D02*
X18840873Y-11627960D01*
X18840873Y-11627960D02*
X18850396Y-11608912D01*
X18850396Y-11608912D02*
X18850396Y-11599388D01*
X18850396Y-11599388D02*
X18840873Y-11580341D01*
X18840873Y-11580341D02*
X18821825Y-11570817D01*
X18821825Y-11570817D02*
X18793253Y-11570817D01*
X18793253Y-11570817D02*
X18774206Y-11561293D01*
X18774206Y-11561293D02*
X18764682Y-11542246D01*
X18764682Y-11542246D02*
X18764682Y-11532722D01*
X18764682Y-11532722D02*
X18774206Y-11513674D01*
X18774206Y-11513674D02*
X18793253Y-11504150D01*
X18793253Y-11504150D02*
X18821825Y-11504150D01*
X18821825Y-11504150D02*
X18840873Y-11513674D01*
X18917063Y-11713674D02*
X18926587Y-11704150D01*
X18926587Y-11704150D02*
X18945634Y-11675579D01*
X18945634Y-11675579D02*
X18955158Y-11656531D01*
X18955158Y-11656531D02*
X18964682Y-11627960D01*
X18964682Y-11627960D02*
X18974206Y-11580341D01*
X18974206Y-11580341D02*
X18974206Y-11542246D01*
X18974206Y-11542246D02*
X18964682Y-11494627D01*
X18964682Y-11494627D02*
X18955158Y-11466055D01*
X18955158Y-11466055D02*
X18945634Y-11447008D01*
X18945634Y-11447008D02*
X18926587Y-11418436D01*
X18926587Y-11418436D02*
X18917063Y-11408912D01*
D12*
X14102000Y-11770000D02*
X14102000Y-11850000D01*
X14062000Y-11810000D02*
X14142000Y-11810000D01*
D11*
X14440872Y-11701484D02*
X14459920Y-11701484D01*
X14459920Y-11701484D02*
X14478967Y-11711008D01*
X14478967Y-11711008D02*
X14488491Y-11720531D01*
X14488491Y-11720531D02*
X14498015Y-11739579D01*
X14498015Y-11739579D02*
X14507539Y-11777674D01*
X14507539Y-11777674D02*
X14507539Y-11825293D01*
X14507539Y-11825293D02*
X14498015Y-11863388D01*
X14498015Y-11863388D02*
X14488491Y-11882436D01*
X14488491Y-11882436D02*
X14478967Y-11891960D01*
X14478967Y-11891960D02*
X14459920Y-11901484D01*
X14459920Y-11901484D02*
X14440872Y-11901484D01*
X14440872Y-11901484D02*
X14421824Y-11891960D01*
X14421824Y-11891960D02*
X14412301Y-11882436D01*
X14412301Y-11882436D02*
X14402777Y-11863388D01*
X14402777Y-11863388D02*
X14393253Y-11825293D01*
X14393253Y-11825293D02*
X14393253Y-11777674D01*
X14393253Y-11777674D02*
X14402777Y-11739579D01*
X14402777Y-11739579D02*
X14412301Y-11720531D01*
X14412301Y-11720531D02*
X14421824Y-11711008D01*
X14421824Y-11711008D02*
X14440872Y-11701484D01*
X14593253Y-11882436D02*
X14602777Y-11891960D01*
X14602777Y-11891960D02*
X14593253Y-11901484D01*
X14593253Y-11901484D02*
X14583729Y-11891960D01*
X14583729Y-11891960D02*
X14593253Y-11882436D01*
X14593253Y-11882436D02*
X14593253Y-11901484D01*
X14717062Y-11787198D02*
X14698015Y-11777674D01*
X14698015Y-11777674D02*
X14688491Y-11768150D01*
X14688491Y-11768150D02*
X14678967Y-11749103D01*
X14678967Y-11749103D02*
X14678967Y-11739579D01*
X14678967Y-11739579D02*
X14688491Y-11720531D01*
X14688491Y-11720531D02*
X14698015Y-11711008D01*
X14698015Y-11711008D02*
X14717062Y-11701484D01*
X14717062Y-11701484D02*
X14755158Y-11701484D01*
X14755158Y-11701484D02*
X14774205Y-11711008D01*
X14774205Y-11711008D02*
X14783729Y-11720531D01*
X14783729Y-11720531D02*
X14793253Y-11739579D01*
X14793253Y-11739579D02*
X14793253Y-11749103D01*
X14793253Y-11749103D02*
X14783729Y-11768150D01*
X14783729Y-11768150D02*
X14774205Y-11777674D01*
X14774205Y-11777674D02*
X14755158Y-11787198D01*
X14755158Y-11787198D02*
X14717062Y-11787198D01*
X14717062Y-11787198D02*
X14698015Y-11796722D01*
X14698015Y-11796722D02*
X14688491Y-11806246D01*
X14688491Y-11806246D02*
X14678967Y-11825293D01*
X14678967Y-11825293D02*
X14678967Y-11863388D01*
X14678967Y-11863388D02*
X14688491Y-11882436D01*
X14688491Y-11882436D02*
X14698015Y-11891960D01*
X14698015Y-11891960D02*
X14717062Y-11901484D01*
X14717062Y-11901484D02*
X14755158Y-11901484D01*
X14755158Y-11901484D02*
X14774205Y-11891960D01*
X14774205Y-11891960D02*
X14783729Y-11882436D01*
X14783729Y-11882436D02*
X14793253Y-11863388D01*
X14793253Y-11863388D02*
X14793253Y-11825293D01*
X14793253Y-11825293D02*
X14783729Y-11806246D01*
X14783729Y-11806246D02*
X14774205Y-11796722D01*
X14774205Y-11796722D02*
X14755158Y-11787198D01*
X14917062Y-11701484D02*
X14936110Y-11701484D01*
X14936110Y-11701484D02*
X14955158Y-11711008D01*
X14955158Y-11711008D02*
X14964682Y-11720531D01*
X14964682Y-11720531D02*
X14974205Y-11739579D01*
X14974205Y-11739579D02*
X14983729Y-11777674D01*
X14983729Y-11777674D02*
X14983729Y-11825293D01*
X14983729Y-11825293D02*
X14974205Y-11863388D01*
X14974205Y-11863388D02*
X14964682Y-11882436D01*
X14964682Y-11882436D02*
X14955158Y-11891960D01*
X14955158Y-11891960D02*
X14936110Y-11901484D01*
X14936110Y-11901484D02*
X14917062Y-11901484D01*
X14917062Y-11901484D02*
X14898015Y-11891960D01*
X14898015Y-11891960D02*
X14888491Y-11882436D01*
X14888491Y-11882436D02*
X14878967Y-11863388D01*
X14878967Y-11863388D02*
X14869443Y-11825293D01*
X14869443Y-11825293D02*
X14869443Y-11777674D01*
X14869443Y-11777674D02*
X14878967Y-11739579D01*
X14878967Y-11739579D02*
X14888491Y-11720531D01*
X14888491Y-11720531D02*
X14898015Y-11711008D01*
X14898015Y-11711008D02*
X14917062Y-11701484D01*
X15107539Y-11701484D02*
X15126586Y-11701484D01*
X15126586Y-11701484D02*
X15145634Y-11711008D01*
X15145634Y-11711008D02*
X15155158Y-11720531D01*
X15155158Y-11720531D02*
X15164682Y-11739579D01*
X15164682Y-11739579D02*
X15174205Y-11777674D01*
X15174205Y-11777674D02*
X15174205Y-11825293D01*
X15174205Y-11825293D02*
X15164682Y-11863388D01*
X15164682Y-11863388D02*
X15155158Y-11882436D01*
X15155158Y-11882436D02*
X15145634Y-11891960D01*
X15145634Y-11891960D02*
X15126586Y-11901484D01*
X15126586Y-11901484D02*
X15107539Y-11901484D01*
X15107539Y-11901484D02*
X15088491Y-11891960D01*
X15088491Y-11891960D02*
X15078967Y-11882436D01*
X15078967Y-11882436D02*
X15069443Y-11863388D01*
X15069443Y-11863388D02*
X15059920Y-11825293D01*
X15059920Y-11825293D02*
X15059920Y-11777674D01*
X15059920Y-11777674D02*
X15069443Y-11739579D01*
X15069443Y-11739579D02*
X15078967Y-11720531D01*
X15078967Y-11720531D02*
X15088491Y-11711008D01*
X15088491Y-11711008D02*
X15107539Y-11701484D01*
X15259920Y-11901484D02*
X15259920Y-11768150D01*
X15259920Y-11787198D02*
X15269443Y-11777674D01*
X15269443Y-11777674D02*
X15288491Y-11768150D01*
X15288491Y-11768150D02*
X15317063Y-11768150D01*
X15317063Y-11768150D02*
X15336110Y-11777674D01*
X15336110Y-11777674D02*
X15345634Y-11796722D01*
X15345634Y-11796722D02*
X15345634Y-11901484D01*
X15345634Y-11796722D02*
X15355158Y-11777674D01*
X15355158Y-11777674D02*
X15374205Y-11768150D01*
X15374205Y-11768150D02*
X15402777Y-11768150D01*
X15402777Y-11768150D02*
X15421824Y-11777674D01*
X15421824Y-11777674D02*
X15431348Y-11796722D01*
X15431348Y-11796722D02*
X15431348Y-11901484D01*
X15526586Y-11901484D02*
X15526586Y-11768150D01*
X15526586Y-11787198D02*
X15536110Y-11777674D01*
X15536110Y-11777674D02*
X15555158Y-11768150D01*
X15555158Y-11768150D02*
X15583729Y-11768150D01*
X15583729Y-11768150D02*
X15602777Y-11777674D01*
X15602777Y-11777674D02*
X15612301Y-11796722D01*
X15612301Y-11796722D02*
X15612301Y-11901484D01*
X15612301Y-11796722D02*
X15621824Y-11777674D01*
X15621824Y-11777674D02*
X15640872Y-11768150D01*
X15640872Y-11768150D02*
X15669443Y-11768150D01*
X15669443Y-11768150D02*
X15688491Y-11777674D01*
X15688491Y-11777674D02*
X15698015Y-11796722D01*
X15698015Y-11796722D02*
X15698015Y-11901484D01*
X16088491Y-11691960D02*
X15917063Y-11949103D01*
X16345634Y-11701484D02*
X16364682Y-11701484D01*
X16364682Y-11701484D02*
X16383729Y-11711008D01*
X16383729Y-11711008D02*
X16393253Y-11720531D01*
X16393253Y-11720531D02*
X16402777Y-11739579D01*
X16402777Y-11739579D02*
X16412301Y-11777674D01*
X16412301Y-11777674D02*
X16412301Y-11825293D01*
X16412301Y-11825293D02*
X16402777Y-11863388D01*
X16402777Y-11863388D02*
X16393253Y-11882436D01*
X16393253Y-11882436D02*
X16383729Y-11891960D01*
X16383729Y-11891960D02*
X16364682Y-11901484D01*
X16364682Y-11901484D02*
X16345634Y-11901484D01*
X16345634Y-11901484D02*
X16326586Y-11891960D01*
X16326586Y-11891960D02*
X16317063Y-11882436D01*
X16317063Y-11882436D02*
X16307539Y-11863388D01*
X16307539Y-11863388D02*
X16298015Y-11825293D01*
X16298015Y-11825293D02*
X16298015Y-11777674D01*
X16298015Y-11777674D02*
X16307539Y-11739579D01*
X16307539Y-11739579D02*
X16317063Y-11720531D01*
X16317063Y-11720531D02*
X16326586Y-11711008D01*
X16326586Y-11711008D02*
X16345634Y-11701484D01*
X16498015Y-11882436D02*
X16507539Y-11891960D01*
X16507539Y-11891960D02*
X16498015Y-11901484D01*
X16498015Y-11901484D02*
X16488491Y-11891960D01*
X16488491Y-11891960D02*
X16498015Y-11882436D01*
X16498015Y-11882436D02*
X16498015Y-11901484D01*
X16631348Y-11701484D02*
X16650396Y-11701484D01*
X16650396Y-11701484D02*
X16669444Y-11711008D01*
X16669444Y-11711008D02*
X16678967Y-11720531D01*
X16678967Y-11720531D02*
X16688491Y-11739579D01*
X16688491Y-11739579D02*
X16698015Y-11777674D01*
X16698015Y-11777674D02*
X16698015Y-11825293D01*
X16698015Y-11825293D02*
X16688491Y-11863388D01*
X16688491Y-11863388D02*
X16678967Y-11882436D01*
X16678967Y-11882436D02*
X16669444Y-11891960D01*
X16669444Y-11891960D02*
X16650396Y-11901484D01*
X16650396Y-11901484D02*
X16631348Y-11901484D01*
X16631348Y-11901484D02*
X16612301Y-11891960D01*
X16612301Y-11891960D02*
X16602777Y-11882436D01*
X16602777Y-11882436D02*
X16593253Y-11863388D01*
X16593253Y-11863388D02*
X16583729Y-11825293D01*
X16583729Y-11825293D02*
X16583729Y-11777674D01*
X16583729Y-11777674D02*
X16593253Y-11739579D01*
X16593253Y-11739579D02*
X16602777Y-11720531D01*
X16602777Y-11720531D02*
X16612301Y-11711008D01*
X16612301Y-11711008D02*
X16631348Y-11701484D01*
X16764682Y-11701484D02*
X16888491Y-11701484D01*
X16888491Y-11701484D02*
X16821825Y-11777674D01*
X16821825Y-11777674D02*
X16850396Y-11777674D01*
X16850396Y-11777674D02*
X16869444Y-11787198D01*
X16869444Y-11787198D02*
X16878968Y-11796722D01*
X16878968Y-11796722D02*
X16888491Y-11815769D01*
X16888491Y-11815769D02*
X16888491Y-11863388D01*
X16888491Y-11863388D02*
X16878968Y-11882436D01*
X16878968Y-11882436D02*
X16869444Y-11891960D01*
X16869444Y-11891960D02*
X16850396Y-11901484D01*
X16850396Y-11901484D02*
X16793253Y-11901484D01*
X16793253Y-11901484D02*
X16774206Y-11891960D01*
X16774206Y-11891960D02*
X16764682Y-11882436D01*
X17078968Y-11901484D02*
X16964682Y-11901484D01*
X17021825Y-11901484D02*
X17021825Y-11701484D01*
X17021825Y-11701484D02*
X17002777Y-11730055D01*
X17002777Y-11730055D02*
X16983729Y-11749103D01*
X16983729Y-11749103D02*
X16964682Y-11758627D01*
X17259920Y-11701484D02*
X17164682Y-11701484D01*
X17164682Y-11701484D02*
X17155158Y-11796722D01*
X17155158Y-11796722D02*
X17164682Y-11787198D01*
X17164682Y-11787198D02*
X17183729Y-11777674D01*
X17183729Y-11777674D02*
X17231349Y-11777674D01*
X17231349Y-11777674D02*
X17250396Y-11787198D01*
X17250396Y-11787198D02*
X17259920Y-11796722D01*
X17259920Y-11796722D02*
X17269444Y-11815769D01*
X17269444Y-11815769D02*
X17269444Y-11863388D01*
X17269444Y-11863388D02*
X17259920Y-11882436D01*
X17259920Y-11882436D02*
X17250396Y-11891960D01*
X17250396Y-11891960D02*
X17231349Y-11901484D01*
X17231349Y-11901484D02*
X17183729Y-11901484D01*
X17183729Y-11901484D02*
X17164682Y-11891960D01*
X17164682Y-11891960D02*
X17155158Y-11882436D01*
X17345634Y-11701484D02*
X17345634Y-11739579D01*
X17421825Y-11701484D02*
X17421825Y-11739579D01*
X17717063Y-11977674D02*
X17707539Y-11968150D01*
X17707539Y-11968150D02*
X17688491Y-11939579D01*
X17688491Y-11939579D02*
X17678968Y-11920531D01*
X17678968Y-11920531D02*
X17669444Y-11891960D01*
X17669444Y-11891960D02*
X17659920Y-11844341D01*
X17659920Y-11844341D02*
X17659920Y-11806246D01*
X17659920Y-11806246D02*
X17669444Y-11758627D01*
X17669444Y-11758627D02*
X17678968Y-11730055D01*
X17678968Y-11730055D02*
X17688491Y-11711008D01*
X17688491Y-11711008D02*
X17707539Y-11682436D01*
X17707539Y-11682436D02*
X17717063Y-11672912D01*
X17821825Y-11787198D02*
X17802777Y-11777674D01*
X17802777Y-11777674D02*
X17793253Y-11768150D01*
X17793253Y-11768150D02*
X17783730Y-11749103D01*
X17783730Y-11749103D02*
X17783730Y-11739579D01*
X17783730Y-11739579D02*
X17793253Y-11720531D01*
X17793253Y-11720531D02*
X17802777Y-11711008D01*
X17802777Y-11711008D02*
X17821825Y-11701484D01*
X17821825Y-11701484D02*
X17859920Y-11701484D01*
X17859920Y-11701484D02*
X17878968Y-11711008D01*
X17878968Y-11711008D02*
X17888491Y-11720531D01*
X17888491Y-11720531D02*
X17898015Y-11739579D01*
X17898015Y-11739579D02*
X17898015Y-11749103D01*
X17898015Y-11749103D02*
X17888491Y-11768150D01*
X17888491Y-11768150D02*
X17878968Y-11777674D01*
X17878968Y-11777674D02*
X17859920Y-11787198D01*
X17859920Y-11787198D02*
X17821825Y-11787198D01*
X17821825Y-11787198D02*
X17802777Y-11796722D01*
X17802777Y-11796722D02*
X17793253Y-11806246D01*
X17793253Y-11806246D02*
X17783730Y-11825293D01*
X17783730Y-11825293D02*
X17783730Y-11863388D01*
X17783730Y-11863388D02*
X17793253Y-11882436D01*
X17793253Y-11882436D02*
X17802777Y-11891960D01*
X17802777Y-11891960D02*
X17821825Y-11901484D01*
X17821825Y-11901484D02*
X17859920Y-11901484D01*
X17859920Y-11901484D02*
X17878968Y-11891960D01*
X17878968Y-11891960D02*
X17888491Y-11882436D01*
X17888491Y-11882436D02*
X17898015Y-11863388D01*
X17898015Y-11863388D02*
X17898015Y-11825293D01*
X17898015Y-11825293D02*
X17888491Y-11806246D01*
X17888491Y-11806246D02*
X17878968Y-11796722D01*
X17878968Y-11796722D02*
X17859920Y-11787198D01*
X18136111Y-11901484D02*
X18136111Y-11701484D01*
X18221825Y-11901484D02*
X18221825Y-11796722D01*
X18221825Y-11796722D02*
X18212301Y-11777674D01*
X18212301Y-11777674D02*
X18193253Y-11768150D01*
X18193253Y-11768150D02*
X18164682Y-11768150D01*
X18164682Y-11768150D02*
X18145634Y-11777674D01*
X18145634Y-11777674D02*
X18136111Y-11787198D01*
X18345634Y-11901484D02*
X18326587Y-11891960D01*
X18326587Y-11891960D02*
X18317063Y-11882436D01*
X18317063Y-11882436D02*
X18307539Y-11863388D01*
X18307539Y-11863388D02*
X18307539Y-11806246D01*
X18307539Y-11806246D02*
X18317063Y-11787198D01*
X18317063Y-11787198D02*
X18326587Y-11777674D01*
X18326587Y-11777674D02*
X18345634Y-11768150D01*
X18345634Y-11768150D02*
X18374206Y-11768150D01*
X18374206Y-11768150D02*
X18393253Y-11777674D01*
X18393253Y-11777674D02*
X18402777Y-11787198D01*
X18402777Y-11787198D02*
X18412301Y-11806246D01*
X18412301Y-11806246D02*
X18412301Y-11863388D01*
X18412301Y-11863388D02*
X18402777Y-11882436D01*
X18402777Y-11882436D02*
X18393253Y-11891960D01*
X18393253Y-11891960D02*
X18374206Y-11901484D01*
X18374206Y-11901484D02*
X18345634Y-11901484D01*
X18526587Y-11901484D02*
X18507539Y-11891960D01*
X18507539Y-11891960D02*
X18498015Y-11872912D01*
X18498015Y-11872912D02*
X18498015Y-11701484D01*
X18678968Y-11891960D02*
X18659920Y-11901484D01*
X18659920Y-11901484D02*
X18621825Y-11901484D01*
X18621825Y-11901484D02*
X18602777Y-11891960D01*
X18602777Y-11891960D02*
X18593253Y-11872912D01*
X18593253Y-11872912D02*
X18593253Y-11796722D01*
X18593253Y-11796722D02*
X18602777Y-11777674D01*
X18602777Y-11777674D02*
X18621825Y-11768150D01*
X18621825Y-11768150D02*
X18659920Y-11768150D01*
X18659920Y-11768150D02*
X18678968Y-11777674D01*
X18678968Y-11777674D02*
X18688492Y-11796722D01*
X18688492Y-11796722D02*
X18688492Y-11815769D01*
X18688492Y-11815769D02*
X18593253Y-11834817D01*
X18764682Y-11891960D02*
X18783730Y-11901484D01*
X18783730Y-11901484D02*
X18821825Y-11901484D01*
X18821825Y-11901484D02*
X18840873Y-11891960D01*
X18840873Y-11891960D02*
X18850396Y-11872912D01*
X18850396Y-11872912D02*
X18850396Y-11863388D01*
X18850396Y-11863388D02*
X18840873Y-11844341D01*
X18840873Y-11844341D02*
X18821825Y-11834817D01*
X18821825Y-11834817D02*
X18793253Y-11834817D01*
X18793253Y-11834817D02*
X18774206Y-11825293D01*
X18774206Y-11825293D02*
X18764682Y-11806246D01*
X18764682Y-11806246D02*
X18764682Y-11796722D01*
X18764682Y-11796722D02*
X18774206Y-11777674D01*
X18774206Y-11777674D02*
X18793253Y-11768150D01*
X18793253Y-11768150D02*
X18821825Y-11768150D01*
X18821825Y-11768150D02*
X18840873Y-11777674D01*
X18917063Y-11977674D02*
X18926587Y-11968150D01*
X18926587Y-11968150D02*
X18945634Y-11939579D01*
X18945634Y-11939579D02*
X18955158Y-11920531D01*
X18955158Y-11920531D02*
X18964682Y-11891960D01*
X18964682Y-11891960D02*
X18974206Y-11844341D01*
X18974206Y-11844341D02*
X18974206Y-11806246D01*
X18974206Y-11806246D02*
X18964682Y-11758627D01*
X18964682Y-11758627D02*
X18955158Y-11730055D01*
X18955158Y-11730055D02*
X18945634Y-11711008D01*
X18945634Y-11711008D02*
X18926587Y-11682436D01*
X18926587Y-11682436D02*
X18917063Y-11672912D01*
D12*
X14127356Y-12109356D02*
X14127356Y-12038644D01*
X14056644Y-12038644D01*
X14056644Y-12109356D01*
X14127356Y-12109356D01*
D11*
X14507539Y-12165484D02*
X14393253Y-12165484D01*
X14450396Y-12165484D02*
X14450396Y-11965484D01*
X14450396Y-11965484D02*
X14431348Y-11994055D01*
X14431348Y-11994055D02*
X14412301Y-12013103D01*
X14412301Y-12013103D02*
X14393253Y-12022627D01*
X14593253Y-12146436D02*
X14602777Y-12155960D01*
X14602777Y-12155960D02*
X14593253Y-12165484D01*
X14593253Y-12165484D02*
X14583729Y-12155960D01*
X14583729Y-12155960D02*
X14593253Y-12146436D01*
X14593253Y-12146436D02*
X14593253Y-12165484D01*
X14726586Y-11965484D02*
X14745634Y-11965484D01*
X14745634Y-11965484D02*
X14764682Y-11975008D01*
X14764682Y-11975008D02*
X14774205Y-11984531D01*
X14774205Y-11984531D02*
X14783729Y-12003579D01*
X14783729Y-12003579D02*
X14793253Y-12041674D01*
X14793253Y-12041674D02*
X14793253Y-12089293D01*
X14793253Y-12089293D02*
X14783729Y-12127388D01*
X14783729Y-12127388D02*
X14774205Y-12146436D01*
X14774205Y-12146436D02*
X14764682Y-12155960D01*
X14764682Y-12155960D02*
X14745634Y-12165484D01*
X14745634Y-12165484D02*
X14726586Y-12165484D01*
X14726586Y-12165484D02*
X14707539Y-12155960D01*
X14707539Y-12155960D02*
X14698015Y-12146436D01*
X14698015Y-12146436D02*
X14688491Y-12127388D01*
X14688491Y-12127388D02*
X14678967Y-12089293D01*
X14678967Y-12089293D02*
X14678967Y-12041674D01*
X14678967Y-12041674D02*
X14688491Y-12003579D01*
X14688491Y-12003579D02*
X14698015Y-11984531D01*
X14698015Y-11984531D02*
X14707539Y-11975008D01*
X14707539Y-11975008D02*
X14726586Y-11965484D01*
X14917062Y-11965484D02*
X14936110Y-11965484D01*
X14936110Y-11965484D02*
X14955158Y-11975008D01*
X14955158Y-11975008D02*
X14964682Y-11984531D01*
X14964682Y-11984531D02*
X14974205Y-12003579D01*
X14974205Y-12003579D02*
X14983729Y-12041674D01*
X14983729Y-12041674D02*
X14983729Y-12089293D01*
X14983729Y-12089293D02*
X14974205Y-12127388D01*
X14974205Y-12127388D02*
X14964682Y-12146436D01*
X14964682Y-12146436D02*
X14955158Y-12155960D01*
X14955158Y-12155960D02*
X14936110Y-12165484D01*
X14936110Y-12165484D02*
X14917062Y-12165484D01*
X14917062Y-12165484D02*
X14898015Y-12155960D01*
X14898015Y-12155960D02*
X14888491Y-12146436D01*
X14888491Y-12146436D02*
X14878967Y-12127388D01*
X14878967Y-12127388D02*
X14869443Y-12089293D01*
X14869443Y-12089293D02*
X14869443Y-12041674D01*
X14869443Y-12041674D02*
X14878967Y-12003579D01*
X14878967Y-12003579D02*
X14888491Y-11984531D01*
X14888491Y-11984531D02*
X14898015Y-11975008D01*
X14898015Y-11975008D02*
X14917062Y-11965484D01*
X15107539Y-11965484D02*
X15126586Y-11965484D01*
X15126586Y-11965484D02*
X15145634Y-11975008D01*
X15145634Y-11975008D02*
X15155158Y-11984531D01*
X15155158Y-11984531D02*
X15164682Y-12003579D01*
X15164682Y-12003579D02*
X15174205Y-12041674D01*
X15174205Y-12041674D02*
X15174205Y-12089293D01*
X15174205Y-12089293D02*
X15164682Y-12127388D01*
X15164682Y-12127388D02*
X15155158Y-12146436D01*
X15155158Y-12146436D02*
X15145634Y-12155960D01*
X15145634Y-12155960D02*
X15126586Y-12165484D01*
X15126586Y-12165484D02*
X15107539Y-12165484D01*
X15107539Y-12165484D02*
X15088491Y-12155960D01*
X15088491Y-12155960D02*
X15078967Y-12146436D01*
X15078967Y-12146436D02*
X15069443Y-12127388D01*
X15069443Y-12127388D02*
X15059920Y-12089293D01*
X15059920Y-12089293D02*
X15059920Y-12041674D01*
X15059920Y-12041674D02*
X15069443Y-12003579D01*
X15069443Y-12003579D02*
X15078967Y-11984531D01*
X15078967Y-11984531D02*
X15088491Y-11975008D01*
X15088491Y-11975008D02*
X15107539Y-11965484D01*
X15259920Y-12165484D02*
X15259920Y-12032150D01*
X15259920Y-12051198D02*
X15269443Y-12041674D01*
X15269443Y-12041674D02*
X15288491Y-12032150D01*
X15288491Y-12032150D02*
X15317063Y-12032150D01*
X15317063Y-12032150D02*
X15336110Y-12041674D01*
X15336110Y-12041674D02*
X15345634Y-12060722D01*
X15345634Y-12060722D02*
X15345634Y-12165484D01*
X15345634Y-12060722D02*
X15355158Y-12041674D01*
X15355158Y-12041674D02*
X15374205Y-12032150D01*
X15374205Y-12032150D02*
X15402777Y-12032150D01*
X15402777Y-12032150D02*
X15421824Y-12041674D01*
X15421824Y-12041674D02*
X15431348Y-12060722D01*
X15431348Y-12060722D02*
X15431348Y-12165484D01*
X15526586Y-12165484D02*
X15526586Y-12032150D01*
X15526586Y-12051198D02*
X15536110Y-12041674D01*
X15536110Y-12041674D02*
X15555158Y-12032150D01*
X15555158Y-12032150D02*
X15583729Y-12032150D01*
X15583729Y-12032150D02*
X15602777Y-12041674D01*
X15602777Y-12041674D02*
X15612301Y-12060722D01*
X15612301Y-12060722D02*
X15612301Y-12165484D01*
X15612301Y-12060722D02*
X15621824Y-12041674D01*
X15621824Y-12041674D02*
X15640872Y-12032150D01*
X15640872Y-12032150D02*
X15669443Y-12032150D01*
X15669443Y-12032150D02*
X15688491Y-12041674D01*
X15688491Y-12041674D02*
X15698015Y-12060722D01*
X15698015Y-12060722D02*
X15698015Y-12165484D01*
X16088491Y-11955960D02*
X15917063Y-12213103D01*
X16345634Y-11965484D02*
X16364682Y-11965484D01*
X16364682Y-11965484D02*
X16383729Y-11975008D01*
X16383729Y-11975008D02*
X16393253Y-11984531D01*
X16393253Y-11984531D02*
X16402777Y-12003579D01*
X16402777Y-12003579D02*
X16412301Y-12041674D01*
X16412301Y-12041674D02*
X16412301Y-12089293D01*
X16412301Y-12089293D02*
X16402777Y-12127388D01*
X16402777Y-12127388D02*
X16393253Y-12146436D01*
X16393253Y-12146436D02*
X16383729Y-12155960D01*
X16383729Y-12155960D02*
X16364682Y-12165484D01*
X16364682Y-12165484D02*
X16345634Y-12165484D01*
X16345634Y-12165484D02*
X16326586Y-12155960D01*
X16326586Y-12155960D02*
X16317063Y-12146436D01*
X16317063Y-12146436D02*
X16307539Y-12127388D01*
X16307539Y-12127388D02*
X16298015Y-12089293D01*
X16298015Y-12089293D02*
X16298015Y-12041674D01*
X16298015Y-12041674D02*
X16307539Y-12003579D01*
X16307539Y-12003579D02*
X16317063Y-11984531D01*
X16317063Y-11984531D02*
X16326586Y-11975008D01*
X16326586Y-11975008D02*
X16345634Y-11965484D01*
X16498015Y-12146436D02*
X16507539Y-12155960D01*
X16507539Y-12155960D02*
X16498015Y-12165484D01*
X16498015Y-12165484D02*
X16488491Y-12155960D01*
X16488491Y-12155960D02*
X16498015Y-12146436D01*
X16498015Y-12146436D02*
X16498015Y-12165484D01*
X16631348Y-11965484D02*
X16650396Y-11965484D01*
X16650396Y-11965484D02*
X16669444Y-11975008D01*
X16669444Y-11975008D02*
X16678967Y-11984531D01*
X16678967Y-11984531D02*
X16688491Y-12003579D01*
X16688491Y-12003579D02*
X16698015Y-12041674D01*
X16698015Y-12041674D02*
X16698015Y-12089293D01*
X16698015Y-12089293D02*
X16688491Y-12127388D01*
X16688491Y-12127388D02*
X16678967Y-12146436D01*
X16678967Y-12146436D02*
X16669444Y-12155960D01*
X16669444Y-12155960D02*
X16650396Y-12165484D01*
X16650396Y-12165484D02*
X16631348Y-12165484D01*
X16631348Y-12165484D02*
X16612301Y-12155960D01*
X16612301Y-12155960D02*
X16602777Y-12146436D01*
X16602777Y-12146436D02*
X16593253Y-12127388D01*
X16593253Y-12127388D02*
X16583729Y-12089293D01*
X16583729Y-12089293D02*
X16583729Y-12041674D01*
X16583729Y-12041674D02*
X16593253Y-12003579D01*
X16593253Y-12003579D02*
X16602777Y-11984531D01*
X16602777Y-11984531D02*
X16612301Y-11975008D01*
X16612301Y-11975008D02*
X16631348Y-11965484D01*
X16764682Y-11965484D02*
X16888491Y-11965484D01*
X16888491Y-11965484D02*
X16821825Y-12041674D01*
X16821825Y-12041674D02*
X16850396Y-12041674D01*
X16850396Y-12041674D02*
X16869444Y-12051198D01*
X16869444Y-12051198D02*
X16878968Y-12060722D01*
X16878968Y-12060722D02*
X16888491Y-12079769D01*
X16888491Y-12079769D02*
X16888491Y-12127388D01*
X16888491Y-12127388D02*
X16878968Y-12146436D01*
X16878968Y-12146436D02*
X16869444Y-12155960D01*
X16869444Y-12155960D02*
X16850396Y-12165484D01*
X16850396Y-12165484D02*
X16793253Y-12165484D01*
X16793253Y-12165484D02*
X16774206Y-12155960D01*
X16774206Y-12155960D02*
X16764682Y-12146436D01*
X16983729Y-12165484D02*
X17021825Y-12165484D01*
X17021825Y-12165484D02*
X17040872Y-12155960D01*
X17040872Y-12155960D02*
X17050396Y-12146436D01*
X17050396Y-12146436D02*
X17069444Y-12117865D01*
X17069444Y-12117865D02*
X17078968Y-12079769D01*
X17078968Y-12079769D02*
X17078968Y-12003579D01*
X17078968Y-12003579D02*
X17069444Y-11984531D01*
X17069444Y-11984531D02*
X17059920Y-11975008D01*
X17059920Y-11975008D02*
X17040872Y-11965484D01*
X17040872Y-11965484D02*
X17002777Y-11965484D01*
X17002777Y-11965484D02*
X16983729Y-11975008D01*
X16983729Y-11975008D02*
X16974206Y-11984531D01*
X16974206Y-11984531D02*
X16964682Y-12003579D01*
X16964682Y-12003579D02*
X16964682Y-12051198D01*
X16964682Y-12051198D02*
X16974206Y-12070246D01*
X16974206Y-12070246D02*
X16983729Y-12079769D01*
X16983729Y-12079769D02*
X17002777Y-12089293D01*
X17002777Y-12089293D02*
X17040872Y-12089293D01*
X17040872Y-12089293D02*
X17059920Y-12079769D01*
X17059920Y-12079769D02*
X17069444Y-12070246D01*
X17069444Y-12070246D02*
X17078968Y-12051198D01*
X17250396Y-12032150D02*
X17250396Y-12165484D01*
X17202777Y-11955960D02*
X17155158Y-12098817D01*
X17155158Y-12098817D02*
X17278968Y-12098817D01*
X17345634Y-11965484D02*
X17345634Y-12003579D01*
X17421825Y-11965484D02*
X17421825Y-12003579D01*
X17717063Y-12241674D02*
X17707539Y-12232150D01*
X17707539Y-12232150D02*
X17688491Y-12203579D01*
X17688491Y-12203579D02*
X17678968Y-12184531D01*
X17678968Y-12184531D02*
X17669444Y-12155960D01*
X17669444Y-12155960D02*
X17659920Y-12108341D01*
X17659920Y-12108341D02*
X17659920Y-12070246D01*
X17659920Y-12070246D02*
X17669444Y-12022627D01*
X17669444Y-12022627D02*
X17678968Y-11994055D01*
X17678968Y-11994055D02*
X17688491Y-11975008D01*
X17688491Y-11975008D02*
X17707539Y-11946436D01*
X17707539Y-11946436D02*
X17717063Y-11936912D01*
X17774206Y-11965484D02*
X17898015Y-11965484D01*
X17898015Y-11965484D02*
X17831349Y-12041674D01*
X17831349Y-12041674D02*
X17859920Y-12041674D01*
X17859920Y-12041674D02*
X17878968Y-12051198D01*
X17878968Y-12051198D02*
X17888491Y-12060722D01*
X17888491Y-12060722D02*
X17898015Y-12079769D01*
X17898015Y-12079769D02*
X17898015Y-12127388D01*
X17898015Y-12127388D02*
X17888491Y-12146436D01*
X17888491Y-12146436D02*
X17878968Y-12155960D01*
X17878968Y-12155960D02*
X17859920Y-12165484D01*
X17859920Y-12165484D02*
X17802777Y-12165484D01*
X17802777Y-12165484D02*
X17783730Y-12155960D01*
X17783730Y-12155960D02*
X17774206Y-12146436D01*
X17964682Y-11965484D02*
X18098015Y-11965484D01*
X18098015Y-11965484D02*
X18012301Y-12165484D01*
X18326587Y-12165484D02*
X18326587Y-11965484D01*
X18412301Y-12165484D02*
X18412301Y-12060722D01*
X18412301Y-12060722D02*
X18402777Y-12041674D01*
X18402777Y-12041674D02*
X18383730Y-12032150D01*
X18383730Y-12032150D02*
X18355158Y-12032150D01*
X18355158Y-12032150D02*
X18336111Y-12041674D01*
X18336111Y-12041674D02*
X18326587Y-12051198D01*
X18536111Y-12165484D02*
X18517063Y-12155960D01*
X18517063Y-12155960D02*
X18507539Y-12146436D01*
X18507539Y-12146436D02*
X18498015Y-12127388D01*
X18498015Y-12127388D02*
X18498015Y-12070246D01*
X18498015Y-12070246D02*
X18507539Y-12051198D01*
X18507539Y-12051198D02*
X18517063Y-12041674D01*
X18517063Y-12041674D02*
X18536111Y-12032150D01*
X18536111Y-12032150D02*
X18564682Y-12032150D01*
X18564682Y-12032150D02*
X18583730Y-12041674D01*
X18583730Y-12041674D02*
X18593253Y-12051198D01*
X18593253Y-12051198D02*
X18602777Y-12070246D01*
X18602777Y-12070246D02*
X18602777Y-12127388D01*
X18602777Y-12127388D02*
X18593253Y-12146436D01*
X18593253Y-12146436D02*
X18583730Y-12155960D01*
X18583730Y-12155960D02*
X18564682Y-12165484D01*
X18564682Y-12165484D02*
X18536111Y-12165484D01*
X18717063Y-12165484D02*
X18698015Y-12155960D01*
X18698015Y-12155960D02*
X18688492Y-12136912D01*
X18688492Y-12136912D02*
X18688492Y-11965484D01*
X18869444Y-12155960D02*
X18850396Y-12165484D01*
X18850396Y-12165484D02*
X18812301Y-12165484D01*
X18812301Y-12165484D02*
X18793253Y-12155960D01*
X18793253Y-12155960D02*
X18783730Y-12136912D01*
X18783730Y-12136912D02*
X18783730Y-12060722D01*
X18783730Y-12060722D02*
X18793253Y-12041674D01*
X18793253Y-12041674D02*
X18812301Y-12032150D01*
X18812301Y-12032150D02*
X18850396Y-12032150D01*
X18850396Y-12032150D02*
X18869444Y-12041674D01*
X18869444Y-12041674D02*
X18878968Y-12060722D01*
X18878968Y-12060722D02*
X18878968Y-12079769D01*
X18878968Y-12079769D02*
X18783730Y-12098817D01*
X18955158Y-12155960D02*
X18974206Y-12165484D01*
X18974206Y-12165484D02*
X19012301Y-12165484D01*
X19012301Y-12165484D02*
X19031349Y-12155960D01*
X19031349Y-12155960D02*
X19040873Y-12136912D01*
X19040873Y-12136912D02*
X19040873Y-12127388D01*
X19040873Y-12127388D02*
X19031349Y-12108341D01*
X19031349Y-12108341D02*
X19012301Y-12098817D01*
X19012301Y-12098817D02*
X18983730Y-12098817D01*
X18983730Y-12098817D02*
X18964682Y-12089293D01*
X18964682Y-12089293D02*
X18955158Y-12070246D01*
X18955158Y-12070246D02*
X18955158Y-12060722D01*
X18955158Y-12060722D02*
X18964682Y-12041674D01*
X18964682Y-12041674D02*
X18983730Y-12032150D01*
X18983730Y-12032150D02*
X19012301Y-12032150D01*
X19012301Y-12032150D02*
X19031349Y-12041674D01*
X19107539Y-12241674D02*
X19117063Y-12232150D01*
X19117063Y-12232150D02*
X19136111Y-12203579D01*
X19136111Y-12203579D02*
X19145634Y-12184531D01*
X19145634Y-12184531D02*
X19155158Y-12155960D01*
X19155158Y-12155960D02*
X19164682Y-12108341D01*
X19164682Y-12108341D02*
X19164682Y-12070246D01*
X19164682Y-12070246D02*
X19155158Y-12022627D01*
X19155158Y-12022627D02*
X19145634Y-11994055D01*
X19145634Y-11994055D02*
X19136111Y-11975008D01*
X19136111Y-11975008D02*
X19117063Y-11946436D01*
X19117063Y-11946436D02*
X19107539Y-11936912D01*
M02*
