<?xml version="1.0" standalone="no"?>
 <!DOCTYPE svg PUBLIC "-//W3C//DTD SVG 1.1//EN" 
 "http://www.w3.org/Graphics/SVG/1.1/DTD/svg11.dtd"> 
<svg
  xmlns:svg="http://www.w3.org/2000/svg"
  xmlns="http://www.w3.org/2000/svg"
  xmlns:xlink="http://www.w3.org/1999/xlink"
  version="1.1"
  width="297.0022mm" height="210.0072mm" viewBox="0.0000 0.0000 297.0022 210.0072">
<title>SVG Image created as arduino_solar_bikelight_1-B_Cu.svg date 2025/02/08 22:14:27 </title>
  <desc>Image generated by PCBNEW </desc>
<g style="fill:#000000; fill-opacity:1.0000;stroke:#000000; stroke-opacity:1.0000;
stroke-linecap:round; stroke-linejoin:round;"
 transform="translate(0 0) scale(1 1)">
</g>
<g style="fill:#000000; fill-opacity:1.0000; stroke:none;">
<circle cx="149.7450" cy="84.8750" r="0.8000" /> 
</g>
<g style="fill:#000000; fill-opacity:1.0000; stroke:none;">
<circle cx="149.7450" cy="74.7150" r="0.8000" /> 
<circle cx="146.2450" cy="84.8750" r="0.8000" /> 
</g>
<g style="fill:#000000; fill-opacity:1.0000; stroke:none;">
<circle cx="146.2450" cy="74.7150" r="0.8000" /> 
<path style="fill:#000000; fill-opacity:1.0000; stroke:none;fill-rule:evenodd;"
d="M 169.8850,100.3950
169.8850,101.9950
168.2850,101.9950
168.2850,100.3950
Z" /> 
<circle cx="169.0850" cy="98.6550" r="0.8000" /> 
<circle cx="169.0850" cy="96.1150" r="0.8000" /> 
<circle cx="169.0850" cy="93.5750" r="0.8000" /> 
<circle cx="169.0850" cy="91.0350" r="0.8000" /> 
<circle cx="169.0850" cy="88.4950" r="0.8000" /> 
<circle cx="169.0850" cy="85.9550" r="0.8000" /> 
<circle cx="169.0850" cy="83.4150" r="0.8000" /> 
<circle cx="169.0850" cy="80.8750" r="0.8000" /> 
<circle cx="169.0850" cy="78.3350" r="0.8000" /> 
<circle cx="169.0850" cy="75.7950" r="0.8000" /> 
<circle cx="169.0850" cy="73.2550" r="0.8000" /> 
<circle cx="169.0850" cy="70.7150" r="0.8000" /> 
<circle cx="169.0850" cy="68.1750" r="0.8000" /> 
<circle cx="169.0850" cy="65.6350" r="0.8000" /> 
<circle cx="153.8450" cy="65.6350" r="0.8000" /> 
<circle cx="153.8450" cy="68.1750" r="0.8000" /> 
<circle cx="153.8450" cy="70.7150" r="0.8000" /> 
<circle cx="153.8450" cy="73.2550" r="0.8000" /> 
<circle cx="153.8450" cy="75.7950" r="0.8000" /> 
<circle cx="153.8450" cy="78.3350" r="0.8000" /> 
<circle cx="153.8450" cy="80.8750" r="0.8000" /> 
<circle cx="153.8450" cy="83.4150" r="0.8000" /> 
<circle cx="153.8450" cy="85.9550" r="0.8000" /> 
<circle cx="153.8450" cy="88.4950" r="0.8000" /> 
<circle cx="153.8450" cy="91.0350" r="0.8000" /> 
<circle cx="153.8450" cy="93.5750" r="0.8000" /> 
<circle cx="153.8450" cy="96.1150" r="0.8000" /> 
<circle cx="153.8450" cy="98.6550" r="0.8000" /> 
<circle cx="153.8450" cy="101.1950" r="0.8000" /> 
<circle cx="174.4450" cy="68.3150" r="0.8000" /> 
</g>
<g style="fill:#000000; fill-opacity:1.0000; stroke:none;">
<circle cx="174.4450" cy="78.4750" r="0.8000" /> 
<path style="fill:#000000; fill-opacity:1.0000; stroke:none;fill-rule:evenodd;"
d="M 149.0950,71.0450
149.0760,71.1407
149.0218,71.2218
148.9407,71.2760
148.8450,71.2950
147.6450,71.2950
147.5493,71.2760
147.4682,71.2218
147.4140,71.1407
147.3950,71.0450
147.3950,69.5450
147.4140,69.4493
147.4682,69.3682
147.5493,69.3140
147.6450,69.2950
148.8450,69.2950
148.9407,69.3140
149.0218,69.3682
149.0760,69.4493
149.0950,69.5450
Z" /> 
</g>
<g style="fill:none; 
stroke:#000000; stroke-width:1.7000; stroke-opacity:1; 
stroke-linecap:round; stroke-linejoin:round;">
<path d="M145.7450 70.4450
L145.7450 70.1450
" />
<path style="fill:#000000; fill-opacity:1.0000; stroke:none;fill-rule:evenodd;"
d="M 173.4650,81.5600
174.9650,81.5600
174.9650,82.6100
173.4650,82.6100
Z" /> 
</g>
<g style="fill:none; 
stroke:#000000; stroke-width:1.0500; stroke-opacity:1; 
stroke-linecap:round; stroke-linejoin:round;">
<path d="M174.4400 83.3550
L173.9900 83.3550
" />
<path d="M174.4400 84.6250
L173.9900 84.6250
" />
</g>
<g style="fill:#000000; fill-opacity:1.0000; stroke:none;">
<circle cx="179.5150" cy="68.3150" r="0.8000" /> 
</g>
<g style="fill:#000000; fill-opacity:1.0000; stroke:none;">
<circle cx="179.5150" cy="78.4750" r="0.8000" /> 
<path style="fill:#000000; fill-opacity:1.0000; stroke:none;fill-rule:evenodd;"
d="M 178.5950,81.6000
180.0950,81.6000
180.0950,82.6500
178.5950,82.6500
Z" /> 
</g>
<g style="fill:none; 
stroke:#000000; stroke-width:1.0500; stroke-opacity:1; 
stroke-linecap:round; stroke-linejoin:round;">
<path d="M179.5700 83.3950
L179.1200 83.3950
" />
<path d="M179.5700 84.6650
L179.1200 84.6650
" />
<path style="fill:#000000; fill-opacity:1.0000; stroke:none;fill-rule:evenodd;"
d="M 177.2950,89.1250
177.2950,90.8250
175.5950,90.8250
175.5950,89.1250
Z" /> 
</g>
<g style="fill:#000000; fill-opacity:1.0000; stroke:none;">
<circle cx="176.4450" cy="92.5150" r="0.8500" /> 
<circle cx="176.4450" cy="95.0550" r="0.8500" /> 
<circle cx="176.4450" cy="97.5950" r="0.8500" /> 
<circle cx="176.4450" cy="100.1350" r="0.8500" /> 
<circle cx="176.4450" cy="78.3950" r="0.3000" /> 
</g>
<g style="fill:none; 
stroke:#000000; stroke-width:0.8000; stroke-opacity:1; 
stroke-linecap:round; stroke-linejoin:round;">
<path d="M148.2450 70.2950
L148.2450 69.1950
" />
<path d="M149.7450 89.4750
L153.8450 93.5750
" />
<path d="M180.6450 84.6650
L182.4450 82.8650
" />
<path d="M182.4450 82.8650
L182.4450 65.3950
" />
<path d="M179.3450 84.6650
L180.6450 84.6650
" />
<path d="M151.4450 61.3950
L148.2450 64.5950
" />
<path d="M145.4450 67.3950
L143.4450 69.3950
" />
<path d="M143.4450 69.3950
L143.4450 87.3950
" />
<path d="M182.4450 65.3950
L176.4450 65.3950
" />
<path d="M147.2250 87.3950
L149.7450 84.8750
" />
<path d="M172.4450 61.3950
L151.4450 61.3950
" />
<path d="M174.2150 84.6250
L179.3050 84.6250
" />
<path d="M148.2450 69.1950
L146.4450 67.3950
" />
<path d="M149.7450 84.8750
L149.7450 89.4750
" />
<path d="M148.2450 64.5950
L148.2450 70.2950
" />
<path d="M179.3050 84.6250
L179.3450 84.6650
" />
<path d="M143.4450 87.3950
L147.2250 87.3950
" />
<path d="M146.4450 67.3950
L145.4450 67.3950
" />
<path d="M176.4450 65.3950
L172.4450 61.3950
" />
</g>
<g style="fill:none; 
stroke:#000000; stroke-width:0.4000; stroke-opacity:1; 
stroke-linecap:round; stroke-linejoin:round;">
<path d="M170.2850 84.6150
L170.2850 88.8950
" />
<path d="M170.2850 88.8950
L176.4450 95.0550
" />
<path d="M169.0850 83.4150
L170.2850 84.6150
" />
<path d="M150.8250 75.7950
L149.7450 74.7150
" />
<path d="M153.8450 75.7950
L150.8250 75.7950
" />
<path d="M146.2450 74.7150
L149.7450 74.7150
" />
<path d="M170.6650 72.0950
L174.4450 68.3150
" />
<path d="M169.0850 80.8750
L170.6650 79.2950
" />
<path d="M170.6650 79.2950
L170.6650 72.0950
" />
<path d="M175.6450 97.5950
L176.4450 97.5950
" />
<path d="M169.0850 91.0350
L175.6450 97.5950
" />
<path d="M168.4450 63.3950
L167.4450 64.3950
" />
<path d="M176.1650 67.1150
L172.4450 63.3950
" />
<path d="M167.4450 64.3950
L167.4450 84.3150
" />
<path d="M167.4450 84.3150
L169.0850 85.9550
" />
<path d="M172.4450 63.3950
L168.4450 63.3950
" />
<path d="M178.3150 67.1150
L176.1650 67.1150
" />
<path d="M179.5150 68.3150
L178.3150 67.1150
" />
</g>
<g style="fill:none; 
stroke:#000000; stroke-width:0.8000; stroke-opacity:1; 
stroke-linecap:round; stroke-linejoin:round;">
<path d="M171.4650 79.6264
L171.4450 79.6464
" />
<path d="M171.4650 77.3750
L171.4650 79.6264
" />
<path d="M173.4450 75.3950
L171.4650 77.3750
" />
<path d="M176.0850 92.5150
L176.4450 92.5150
" />
<path d="M171.4450 79.6464
L171.4450 87.8750
" />
<path d="M177.4450 76.3950
L176.4450 75.3950
" />
<path d="M177.4450 78.3950
L177.4450 76.3950
" />
<path d="M179.3450 82.1250
L179.3450 80.2950
" />
<path d="M179.3450 80.2950
L177.4450 78.3950
" />
<path d="M171.4450 87.8750
L176.0850 92.5150
" />
<path d="M176.4450 75.3950
L173.4450 75.3950
" />
<path d="M172.4450 82.1050
L172.4450 85.9750
" />
<path d="M172.4650 82.0850
L172.4450 82.1050
" />
<path d="M174.2150 82.0850
L172.4650 82.0850
" />
<path d="M172.4450 85.9750
L176.4450 89.9750
" />
</g>
<g style="fill:none; 
stroke:#000000; stroke-width:0.5000; stroke-opacity:1; 
stroke-linecap:round; stroke-linejoin:round;">
<path d="M179.5950 78.3950
L179.5150 78.4750
" />
<path d="M181.4450 82.2000
L181.4450 78.3950
" />
<path d="M179.3450 83.3950
L180.2500 83.3950
" />
<path d="M180.2500 83.3950
L181.4450 82.2000
" />
<path d="M181.4450 78.3950
L179.5950 78.3950
" />
<path d="M175.4150 79.4450
L174.4450 78.4750
" />
<path d="M175.1200 83.3550
L175.4150 83.0600
" />
<path d="M174.2150 83.3550
L175.1200 83.3550
" />
<path d="M175.4150 83.0600
L175.4150 79.4450
" />
<path style="fill:#000000; fill-opacity:1.0000; stroke:none;fill-rule:evenodd;"
d="M 176.2119,76.0152
176.2326,76.0318
176.8082,76.6074
176.8417,76.6687
176.8445,76.6951
176.8445,78.3083
176.8445,78.3083
176.8445,78.4741
176.8445,78.4741
176.8854,78.6268
176.8982,78.6489
176.8982,78.6489
176.8982,78.6489
176.9391,78.7197
176.9645,78.7637
176.9645,78.7637
177.0833,78.8826
177.0834,78.8826
178.7082,80.5074
178.7417,80.5687
178.7445,80.5951
178.7445,81.2755
178.7248,81.3425
178.6720,81.3883
178.6205,81.3995
178.5752,81.3995
178.5168,81.4111
178.5168,81.4111
178.4504,81.4554
178.4061,81.5218
178.4061,81.5218
178.3945,81.5802
178.3945,82.6698
178.4061,82.7282
178.4061,82.7282
178.4504,82.7946
178.4844,82.8172
178.5292,82.8708
178.5379,82.9402
178.5186,82.9892
178.4771,83.0513
178.4771,83.0513
178.4224,83.1834
178.4224,83.1834
178.3945,83.3235
178.3945,83.3235
178.3945,83.4665
178.3945,83.4665
178.3945,83.4665
178.4224,83.6066
178.4224,83.6066
178.4771,83.7386
178.4771,83.7387
178.5392,83.8316
178.5601,83.8983
178.5416,83.9657
178.4896,84.0124
178.4361,84.0245
175.3039,84.0245
175.2368,84.0048
175.1911,83.9520
175.1811,83.8829
175.2101,83.8193
175.2689,83.7815
175.2717,83.7807
175.2939,83.7748
175.3966,83.7155
175.7755,83.3366
175.8348,83.2339
175.8483,83.1834
175.8489,83.1811
175.8489,83.1811
175.8655,83.1193
175.8655,79.3857
175.8348,79.2711
175.8348,79.2711
175.7755,79.1684
175.4480,78.8409
175.4145,78.7796
175.4170,78.7172
175.4310,78.6711
175.4346,78.6348
175.4503,78.4750
175.4310,78.2789
175.3738,78.0903
175.3738,78.0903
175.3738,78.0903
175.2809,77.9165
175.2809,77.9165
175.1559,77.7641
175.0035,77.6391
175.0035,77.6391
174.8297,77.5462
174.8297,77.5462
174.6411,77.4890
174.6411,77.4890
174.4450,77.4697
174.2489,77.4890
174.0603,77.5462
173.8865,77.6391
173.8865,77.6391
173.7341,77.7641
173.6091,77.9165
173.6091,77.9165
173.5162,78.0903
173.4590,78.2789
173.4397,78.4750
173.4590,78.6711
173.5162,78.8597
173.6091,79.0335
173.6091,79.0335
173.7341,79.1859
173.8865,79.3109
173.8865,79.3109
174.0603,79.4038
174.0603,79.4038
174.0603,79.4038
174.2489,79.4610
174.4450,79.4803
174.6411,79.4610
174.6872,79.4470
174.7571,79.4464
174.8109,79.4780
174.9282,79.5953
174.9617,79.6566
174.9645,79.6830
174.9645,81.2355
174.9448,81.3025
174.8920,81.3483
174.8405,81.3595
173.4452,81.3595
173.3868,81.3711
173.3868,81.3711
173.3204,81.4154
173.3111,81.4294
173.2575,81.4742
173.2080,81.4845
172.5441,81.4845
172.3859,81.4845
172.2332,81.5254
172.2332,81.5254
172.2332,81.5254
172.2332,81.5254
172.2315,81.5264
172.2299,81.5268
172.2257,81.5285
172.2254,81.5279
172.1636,81.5429
172.0976,81.5200
172.0544,81.4651
172.0455,81.4190
172.0455,79.7964
172.0497,79.7643
172.0601,79.7254
172.0655,79.7054
172.0655,79.5473
172.0655,77.6751
172.0852,77.6081
172.1018,77.5874
173.6574,76.0318
173.7187,75.9983
173.7451,75.9955
176.1449,75.9955
Z" /> 
<path style="fill:#000000; fill-opacity:1.0000; stroke:none;fill-rule:evenodd;"
d="M 146.2119,68.0152
146.2326,68.0318
147.2902,69.0894
147.3237,69.1507
147.3187,69.2204
147.3023,69.2507
147.2422,69.3321
147.2422,69.3321
147.1974,69.4603
147.1974,69.4603
147.1945,69.4907
147.1945,69.4997
147.1748,69.5667
147.1220,69.6125
147.0529,69.6224
146.9893,69.5934
146.9600,69.5560
146.8996,69.4374
146.7747,69.2655
146.7747,69.2655
146.6245,69.1153
146.6245,69.1153
146.4526,68.9904
146.2632,68.8939
146.0611,68.8282
145.9950,68.8178
145.9950,69.8620
145.9380,69.8291
145.8108,69.7950
145.6792,69.7950
145.5520,69.8291
145.4950,69.8620
145.4950,68.8178
145.4950,68.8178
145.4289,68.8282
145.2268,68.8939
145.0447,68.9867
144.9760,68.9996
144.9113,68.9733
144.8710,68.9162
144.8680,68.8464
144.9007,68.7885
145.6574,68.0318
145.7187,67.9983
145.7451,67.9955
146.1449,67.9955
Z" /> 
<path style="fill:#000000; fill-opacity:1.0000; stroke:none;fill-rule:evenodd;"
d="M 183.8375,58.9652
183.8833,59.0180
183.8945,59.0695
183.8945,105.7205
183.8748,105.7875
183.8220,105.8333
183.7705,105.8445
142.1195,105.8445
142.0525,105.8248
142.0067,105.7720
141.9955,105.7205
141.9955,103.2737
142.5945,103.2737
142.5945,103.5163
142.6262,103.7568
142.6889,103.9911
142.7818,104.2152
142.7818,104.2152
142.9031,104.4253
142.9031,104.4253
142.9031,104.4253
143.0507,104.6177
143.0507,104.6177
143.2223,104.7893
143.2223,104.7893
143.4147,104.9369
143.6248,105.0582
143.8489,105.1511
144.0832,105.2138
144.2636,105.2376
144.3237,105.2455
144.3237,105.2455
144.5663,105.2455
144.6144,105.2392
144.8068,105.2138
145.0411,105.1511
145.2652,105.0582
145.4753,104.9369
145.6677,104.7893
145.8393,104.6177
145.9869,104.4253
146.1082,104.2152
146.2011,103.9911
146.2638,103.7568
146.2955,103.5163
146.2955,103.2737
146.2955,103.2737
179.5945,103.2737
179.5945,103.5163
179.6262,103.7568
179.6889,103.9911
179.7818,104.2152
179.7818,104.2152
179.9031,104.4253
179.9031,104.4253
179.9031,104.4253
180.0507,104.6177
180.0507,104.6177
180.2223,104.7893
180.2223,104.7893
180.4147,104.9369
180.6248,105.0582
180.8489,105.1511
181.0832,105.2138
181.2636,105.2376
181.3237,105.2455
181.3237,105.2455
181.5663,105.2455
181.6144,105.2392
181.8068,105.2138
182.0411,105.1511
182.2652,105.0582
182.4753,104.9369
182.6677,104.7893
182.8393,104.6177
182.9869,104.4253
183.1082,104.2152
183.2011,103.9911
183.2638,103.7568
183.2955,103.5163
183.2955,103.2737
183.2638,103.0332
183.2011,102.7989
183.1082,102.5748
182.9869,102.3647
182.8571,102.1955
182.8393,102.1723
182.8393,102.1723
182.6677,102.0007
182.6677,102.0007
182.4753,101.8531
182.4753,101.8531
182.4753,101.8531
182.2652,101.7318
182.2652,101.7318
182.0411,101.6389
181.8201,101.5797
181.8068,101.5762
181.8068,101.5762
181.8068,101.5762
181.5663,101.5445
181.5663,101.5445
181.3237,101.5445
181.3237,101.5445
181.0832,101.5762
180.8489,101.6389
180.6248,101.7318
180.6248,101.7318
180.4147,101.8531
180.2223,102.0007
180.2223,102.0007
180.0507,102.1723
180.0507,102.1723
179.9031,102.3647
179.7818,102.5748
179.7818,102.5748
179.6889,102.7989
179.6262,103.0332
179.5945,103.2737
146.2955,103.2737
146.2638,103.0332
146.2011,102.7989
146.1082,102.5748
145.9869,102.3647
145.8571,102.1955
145.8393,102.1723
145.8393,102.1723
145.6677,102.0007
145.6677,102.0007
145.4753,101.8531
145.4753,101.8531
145.4753,101.8531
145.2652,101.7318
145.2652,101.7318
145.0411,101.6389
144.8201,101.5797
144.8068,101.5762
144.8068,101.5762
144.8068,101.5762
144.5663,101.5445
144.5663,101.5445
144.3237,101.5445
144.3237,101.5445
144.0832,101.5762
143.8489,101.6389
143.6248,101.7318
143.6248,101.7318
143.4147,101.8531
143.2223,102.0007
143.2223,102.0007
143.0507,102.1723
143.0507,102.1723
142.9031,102.3647
142.7818,102.5748
142.7818,102.5748
142.6889,102.7989
142.6262,103.0332
142.5945,103.2737
141.9955,103.2737
141.9955,101.1950
152.8397,101.1950
152.8590,101.3911
152.9162,101.5797
153.0091,101.7535
153.0091,101.7535
153.1341,101.9059
153.2865,102.0309
153.2865,102.0309
153.4603,102.1238
153.4603,102.1238
153.4603,102.1238
153.6489,102.1810
153.8450,102.2003
154.0411,102.1810
154.2297,102.1238
154.4035,102.0309
154.5559,101.9059
154.6809,101.7535
154.7738,101.5797
154.8310,101.3911
154.8503,101.1950
154.8310,100.9989
154.7738,100.8103
154.7738,100.8103
154.7738,100.8103
154.6809,100.6365
154.6809,100.6365
154.5559,100.4841
154.4232,100.3752
168.0845,100.3752
168.0845,102.0148
168.0961,102.0732
168.0961,102.0732
168.1404,102.1396
168.2068,102.1839
168.2068,102.1839
168.2652,102.1955
168.2652,102.1955
168.2653,102.1955
169.9047,102.1955
169.9048,102.1955
169.9196,102.1926
169.9632,102.1839
169.9632,102.1839
169.9632,102.1839
170.0296,102.1396
170.0739,102.0732
170.0739,102.0732
170.0739,102.0732
170.0855,102.0148
170.0855,102.0147
170.0855,100.3752
170.0855,100.3752
170.0739,100.3168
170.0739,100.3168
170.0296,100.2504
169.9632,100.2061
169.9632,100.2061
169.9048,100.1945
169.9047,100.1945
168.2653,100.1945
168.2652,100.1945
168.2068,100.2061
168.2068,100.2061
168.1404,100.2504
168.0961,100.3168
168.0961,100.3168
168.0845,100.3752
154.4232,100.3752
154.4035,100.3591
154.4035,100.3591
154.2297,100.2662
154.2297,100.2662
154.0411,100.2090
154.0411,100.2090
153.8450,100.1897
153.6489,100.2090
153.4603,100.2662
153.2865,100.3591
153.2865,100.3591
153.1341,100.4841
153.0091,100.6365
153.0091,100.6365
152.9162,100.8103
152.8590,100.9989
152.8397,101.1950
141.9955,101.1950
141.9955,98.4050
152.5661,98.4050
152.5661,98.4050
153.4120,98.4050
153.3791,98.4620
153.3450,98.5892
153.3450,98.7208
153.3791,98.8480
153.4120,98.9050
152.5661,98.9050
152.6187,99.1013
152.6187,99.1013
152.7149,99.3075
152.8453,99.4938
153.0062,99.6547
153.1925,99.7851
153.3987,99.8813
153.3987,99.8813
153.5950,99.9339
153.5950,99.9339
153.5950,99.0880
153.6520,99.1209
153.7792,99.1550
153.9108,99.1550
154.0380,99.1209
154.0950,99.0880
154.0950,99.9339
154.2913,99.8813
154.2913,99.8813
154.4975,99.7851
154.6838,99.6547
154.8447,99.4938
154.9751,99.3075
155.0713,99.1013
155.0713,99.1013
155.1239,98.9050
154.2780,98.9050
154.3109,98.8480
154.3450,98.7208
154.3450,98.6550
168.0797,98.6550
168.0990,98.8511
168.1562,99.0397
168.2491,99.2135
168.2491,99.2135
168.3741,99.3659
168.5265,99.4909
168.5265,99.4909
168.7003,99.5838
168.7003,99.5838
168.7003,99.5838
168.8889,99.6410
169.0850,99.6603
169.2811,99.6410
169.4697,99.5838
169.6435,99.4909
169.7959,99.3659
169.9209,99.2135
169.9833,99.0969
170.0138,99.0397
170.0138,99.0397
170.0138,99.0397
170.0710,98.8511
170.0903,98.6550
170.0710,98.4589
170.0138,98.2703
170.0138,98.2703
170.0138,98.2703
169.9209,98.0965
169.9209,98.0965
169.7959,97.9441
169.6435,97.8191
169.6435,97.8191
169.4697,97.7262
169.4697,97.7262
169.2811,97.6690
169.2811,97.6690
169.0850,97.6497
168.8889,97.6690
168.7003,97.7262
168.5265,97.8191
168.5265,97.8191
168.3741,97.9441
168.2491,98.0965
168.2491,98.0965
168.1562,98.2703
168.0990,98.4589
168.0797,98.6550
154.3450,98.6550
154.3450,98.5892
154.3109,98.4620
154.2780,98.4050
155.1239,98.4050
155.1239,98.4050
155.0713,98.2087
155.0713,98.2087
154.9751,98.0025
154.8447,97.8162
154.6838,97.6553
154.4975,97.5249
154.2913,97.4287
154.0950,97.3761
154.0950,98.2220
154.0380,98.1891
153.9108,98.1550
153.7792,98.1550
153.6520,98.1891
153.5950,98.2220
153.5950,97.3761
153.3987,97.4287
153.1925,97.5249
153.0062,97.6553
152.8453,97.8162
152.7149,98.0025
152.6187,98.2087
152.6187,98.2087
152.5661,98.4050
141.9955,98.4050
141.9955,96.1150
152.8397,96.1150
152.8590,96.3111
152.9162,96.4997
153.0091,96.6735
153.0091,96.6735
153.1341,96.8259
153.2865,96.9509
153.2865,96.9509
153.4603,97.0438
153.4603,97.0438
153.4603,97.0438
153.6489,97.1010
153.8450,97.1203
154.0411,97.1010
154.2297,97.0438
154.4035,96.9509
154.5559,96.8259
154.6809,96.6735
154.7738,96.4997
154.8310,96.3111
154.8503,96.1150
168.0797,96.1150
168.0990,96.3111
168.1562,96.4997
168.2491,96.6735
168.2491,96.6735
168.3741,96.8259
168.5265,96.9509
168.5265,96.9509
168.7003,97.0438
168.7003,97.0438
168.7003,97.0438
168.8889,97.1010
169.0850,97.1203
169.2811,97.1010
169.4697,97.0438
169.6435,96.9509
169.7959,96.8259
169.9209,96.6735
170.0138,96.4997
170.0710,96.3111
170.0903,96.1150
170.0710,95.9189
170.0138,95.7303
170.0138,95.7303
170.0138,95.7303
169.9209,95.5565
169.9209,95.5565
169.7959,95.4041
169.6435,95.2791
169.6435,95.2791
169.4697,95.1862
169.4697,95.1862
169.2811,95.1290
169.2811,95.1290
169.0850,95.1097
168.8889,95.1290
168.7003,95.1862
168.5265,95.2791
168.5265,95.2791
168.3741,95.4041
168.2491,95.5565
168.2491,95.5565
168.1562,95.7303
168.0990,95.9189
168.0797,96.1150
154.8503,96.1150
154.8310,95.9189
154.7738,95.7303
154.7738,95.7303
154.7738,95.7303
154.6809,95.5565
154.6809,95.5565
154.5559,95.4041
154.4035,95.2791
154.4035,95.2791
154.2297,95.1862
154.2297,95.1862
154.0411,95.1290
154.0411,95.1290
153.8450,95.1097
153.6489,95.1290
153.4603,95.1862
153.2865,95.2791
153.2865,95.2791
153.1341,95.4041
153.0091,95.5565
153.0091,95.5565
152.9162,95.7303
152.8590,95.9189
152.8397,96.1150
141.9955,96.1150
141.9955,69.3159
142.8445,69.3159
142.8445,69.3159
142.8445,69.4840
142.8445,69.4841
142.8445,87.3159
142.8445,87.4741
142.8692,87.5662
142.8854,87.6268
142.8854,87.6268
142.9645,87.7637
142.9645,87.7637
142.9645,87.7637
143.0763,87.8755
143.0763,87.8755
143.0763,87.8755
143.1818,87.9365
143.2132,87.9546
143.3659,87.9955
147.1383,87.9955
147.1383,87.9955
147.1459,87.9955
147.3041,87.9955
147.3041,87.9955
147.4568,87.9546
147.5304,87.9120
147.5937,87.8755
147.7055,87.7637
147.7055,87.7637
147.7157,87.7535
147.7157,87.7535
148.9328,86.5364
148.9941,86.5029
149.0638,86.5079
149.1198,86.5498
149.1442,86.6153
149.1445,86.6241
149.1445,89.3883
149.1445,89.3883
149.1445,89.5541
149.1445,89.5541
149.1854,89.7068
149.1854,89.7068
149.2065,89.7432
149.2065,89.7432
149.2645,89.8437
149.2645,89.8437
149.3833,89.9626
149.3834,89.9626
152.8122,93.3914
152.8457,93.4527
152.8479,93.4913
152.8397,93.5750
152.8397,93.5750
152.8590,93.7711
152.9162,93.9597
153.0091,94.1335
153.0091,94.1335
153.1341,94.2859
153.2865,94.4109
153.2865,94.4109
153.4603,94.5038
153.4603,94.5038
153.4603,94.5038
153.6489,94.5610
153.8450,94.5803
154.0411,94.5610
154.2297,94.5038
154.4035,94.4109
154.5559,94.2859
154.6809,94.1335
154.7526,93.9994
154.7738,93.9597
154.7738,93.9597
154.7738,93.9597
154.8310,93.7711
154.8503,93.5750
154.8310,93.3789
154.8147,93.3250
167.8061,93.3250
167.8061,93.3250
168.6520,93.3250
168.6191,93.3820
168.5850,93.5092
168.5850,93.6408
168.6191,93.7680
168.6520,93.8250
167.8061,93.8250
167.8587,94.0213
167.8587,94.0213
167.9549,94.2275
168.0853,94.4138
168.2462,94.5747
168.4325,94.7051
168.6387,94.8013
168.6387,94.8013
168.8350,94.8539
168.8350,94.8539
168.8350,94.0080
168.8920,94.0409
169.0192,94.0750
169.1508,94.0750
169.2780,94.0409
169.3350,94.0080
169.3350,94.8539
169.5313,94.8013
169.5313,94.8013
169.7375,94.7051
169.9238,94.5747
170.0847,94.4138
170.2151,94.2275
170.3113,94.0213
170.3113,94.0213
170.3639,93.8250
169.5180,93.8250
169.5509,93.7680
169.5850,93.6408
169.5850,93.5092
169.5509,93.3820
169.5180,93.3250
170.3639,93.3250
170.3639,93.3250
170.3209,93.1645
170.3225,93.0946
170.3617,93.0368
170.4259,93.0093
170.4948,93.0209
170.5283,93.0447
175.3991,97.9155
175.4116,97.9227
175.4599,97.9733
175.4683,97.9941
175.4698,97.9990
175.5673,98.1814
175.5673,98.1815
175.6986,98.3414
175.7066,98.3480
175.8585,98.4727
176.0410,98.5702
176.1076,98.5904
176.1660,98.6287
176.1944,98.6925
176.1839,98.7616
176.1377,98.8140
176.1036,98.8288
175.9815,98.8616
175.9815,98.8616
175.7674,98.9614
175.7674,98.9614
175.5739,99.0969
175.5739,99.0969
175.4069,99.2639
175.4069,99.2639
175.2714,99.4574
175.2714,99.4574
175.1716,99.6715
175.1716,99.6715
175.1144,99.8850
175.1144,99.8850
176.0120,99.8850
175.9791,99.9420
175.9450,100.0692
175.9450,100.2008
175.9791,100.3280
176.0120,100.3850
175.1144,100.3850
175.1716,100.5985
175.1716,100.5985
175.2714,100.8126
175.4069,101.0061
175.5739,101.1731
175.7674,101.3086
175.9815,101.4084
175.9815,101.4084
176.1950,101.4656
176.1950,100.5680
176.2520,100.6009
176.3792,100.6350
176.5108,100.6350
176.6380,100.6009
176.6950,100.5680
176.6950,101.4656
176.9085,101.4084
176.9085,101.4084
177.1226,101.3086
177.3161,101.1731
177.4831,101.0061
177.6186,100.8126
177.7184,100.5985
177.7184,100.5985
177.7756,100.3850
176.8780,100.3850
176.9109,100.3280
176.9450,100.2008
176.9450,100.0692
176.9109,99.9420
176.8780,99.8850
177.7756,99.8850
177.7756,99.8850
177.7184,99.6715
177.7184,99.6715
177.6186,99.4574
177.6186,99.4574
177.4831,99.2639
177.4831,99.2639
177.3161,99.0969
177.1226,98.9614
176.9085,98.8616
176.9085,98.8616
176.7863,98.8288
176.7267,98.7925
176.6962,98.7296
176.7045,98.6603
176.7489,98.6064
176.7824,98.5904
176.8490,98.5702
177.0314,98.4727
177.1914,98.3414
177.3227,98.1814
177.4202,97.9990
177.4803,97.8009
177.5006,97.5950
177.4803,97.3891
177.4202,97.1910
177.3227,97.0085
177.2707,96.9452
177.1914,96.8486
177.0315,96.7173
177.0315,96.7173
177.0314,96.7173
176.8490,96.6198
176.6509,96.5597
176.6509,96.5597
176.6509,96.5597
176.4450,96.5394
176.2391,96.5597
176.0410,96.6198
175.8585,96.7173
175.6986,96.8486
175.6801,96.8711
175.6223,96.9105
175.5525,96.9123
175.4965,96.8802
170.0716,91.4552
170.0381,91.3938
170.0406,91.3315
170.0710,91.2311
170.0903,91.0350
170.0710,90.8389
170.0138,90.6503
170.0138,90.6503
170.0138,90.6503
169.9209,90.4765
169.9209,90.4765
169.7959,90.3241
169.6435,90.1991
169.6435,90.1991
169.4697,90.1062
169.4697,90.1062
169.2811,90.0490
169.2811,90.0490
169.0850,90.0297
168.8889,90.0490
168.7003,90.1062
168.5265,90.1991
168.5265,90.1991
168.3741,90.3241
168.2491,90.4765
168.2491,90.4765
168.1562,90.6503
168.0990,90.8389
168.0797,91.0350
168.0990,91.2311
168.1562,91.4197
168.2491,91.5935
168.2491,91.5935
168.3741,91.7459
168.5265,91.8709
168.5265,91.8709
168.7003,91.9638
168.7003,91.9638
168.7003,91.9638
168.8889,92.0210
169.0850,92.0403
169.2811,92.0210
169.3815,91.9906
169.4514,91.9900
169.5052,92.0216
169.6153,92.1317
169.6488,92.1930
169.6438,92.2627
169.6019,92.3186
169.5365,92.3430
169.4955,92.3391
169.3350,92.2961
169.3350,93.1420
169.2780,93.1091
169.1508,93.0750
169.0192,93.0750
168.8920,93.1091
168.8350,93.1420
168.8350,92.2961
168.6387,92.3487
168.4325,92.4449
168.2462,92.5753
168.0853,92.7362
167.9549,92.9225
167.8587,93.1287
167.8587,93.1287
167.8061,93.3250
154.8147,93.3250
154.7738,93.1903
154.7738,93.1903
154.7738,93.1903
154.6809,93.0165
154.6809,93.0165
154.5559,92.8641
154.4035,92.7391
154.4035,92.7391
154.2297,92.6462
154.2297,92.6462
154.0411,92.5890
154.0411,92.5890
153.8450,92.5697
153.8450,92.5697
153.7613,92.5779
153.6926,92.5649
153.6614,92.5422
153.2410,92.1218
153.2075,92.0604
153.2125,91.9907
153.2544,91.9348
153.3198,91.9104
153.3871,91.9247
153.4603,91.9638
153.4603,91.9638
153.6489,92.0210
153.8450,92.0403
154.0411,92.0210
154.2297,91.9638
154.4035,91.8709
154.5559,91.7459
154.6809,91.5935
154.7526,91.4594
154.7738,91.4197
154.7738,91.4197
154.7738,91.4197
154.8310,91.2311
154.8503,91.0350
154.8310,90.8389
154.7738,90.6503
154.7738,90.6503
154.7738,90.6503
154.6809,90.4765
154.6809,90.4765
154.5559,90.3241
154.4035,90.1991
154.4035,90.1991
154.2297,90.1062
154.2297,90.1062
154.0411,90.0490
154.0411,90.0490
153.8450,90.0297
153.6489,90.0490
153.4603,90.1062
153.2865,90.1991
153.2865,90.1991
153.1341,90.3241
153.0091,90.4765
153.0091,90.4765
152.9162,90.6503
152.8590,90.8389
152.8397,91.0350
152.8590,91.2311
152.9162,91.4197
152.9553,91.4929
152.9695,91.5613
152.9445,91.6265
152.8882,91.6679
152.8185,91.6723
152.7582,91.6390
150.3818,89.2626
150.3483,89.2013
150.3455,89.1749
150.3455,88.4950
152.8397,88.4950
152.8590,88.6911
152.9162,88.8797
153.0091,89.0535
153.0091,89.0535
153.1341,89.2059
153.2865,89.3309
153.2865,89.3309
153.4603,89.4238
153.4603,89.4238
153.4603,89.4238
153.6489,89.4810
153.8450,89.5003
154.0411,89.4810
154.2297,89.4238
154.2819,89.3959
154.4035,89.3309
154.4035,89.3309
154.5559,89.2059
154.6809,89.0535
154.7738,88.8797
154.8310,88.6911
154.8503,88.4950
154.8310,88.2989
154.7738,88.1103
154.7738,88.1103
154.7738,88.1103
154.6809,87.9365
154.6809,87.9365
154.5559,87.7841
154.4035,87.6591
154.4035,87.6591
154.2297,87.5662
154.2297,87.5662
154.0411,87.5090
154.0411,87.5090
153.8450,87.4897
153.6489,87.5090
153.4603,87.5662
153.2865,87.6591
153.2865,87.6591
153.1341,87.7841
153.0091,87.9365
153.0091,87.9365
152.9162,88.1103
152.8590,88.2989
152.8397,88.4950
150.3455,88.4950
150.3455,85.9550
152.8397,85.9550
152.8590,86.1511
152.9162,86.3397
153.0091,86.5135
153.0091,86.5135
153.1341,86.6659
153.2865,86.7909
153.2865,86.7909
153.4603,86.8838
153.4603,86.8838
153.4603,86.8838
153.6489,86.9410
153.8450,86.9603
154.0411,86.9410
154.2297,86.8838
154.4035,86.7909
154.5559,86.6659
154.6809,86.5135
154.7738,86.3397
154.8310,86.1511
154.8503,85.9550
154.8310,85.7589
154.7738,85.5703
154.7738,85.5703
154.7738,85.5703
154.6809,85.3965
154.6809,85.3965
154.5559,85.2441
154.4035,85.1191
154.4035,85.1191
154.2297,85.0262
154.2297,85.0262
154.0411,84.9690
154.0411,84.9690
153.8450,84.9497
153.6489,84.9690
153.4603,85.0262
153.2865,85.1191
153.2865,85.1191
153.1341,85.2441
153.0091,85.3965
153.0091,85.3965
152.9162,85.5703
152.8590,85.7589
152.8397,85.9550
150.3455,85.9550
150.3455,85.7351
150.3652,85.6681
150.3908,85.6393
150.4559,85.5859
150.5809,85.4335
150.6402,85.3226
150.6738,85.2597
150.6738,85.2597
150.6738,85.2597
150.7310,85.0711
150.7503,84.8750
150.7310,84.6789
150.6738,84.4903
150.6738,84.4903
150.6738,84.4903
150.5809,84.3165
150.5809,84.3165
150.4559,84.1641
150.3035,84.0391
150.3035,84.0391
150.1297,83.9462
150.1297,83.9462
149.9411,83.8890
149.9411,83.8890
149.7450,83.8697
149.5489,83.8890
149.3603,83.9462
149.1865,84.0391
149.1865,84.0391
149.0341,84.1641
148.9091,84.3165
148.9091,84.3165
148.8162,84.4903
148.7590,84.6789
148.7397,84.8750
148.7397,84.8750
148.7479,84.9587
148.7349,85.0274
148.7122,85.0586
147.0126,86.7582
146.9513,86.7917
146.9249,86.7945
144.1695,86.7945
144.1025,86.7748
144.0567,86.7220
144.0455,86.6705
144.0455,84.8750
144.9400,84.8750
144.9400,84.8750
144.9599,85.1016
144.9599,85.1016
145.0187,85.3213
145.0187,85.3213
145.1149,85.5275
145.1660,85.6005
145.8450,84.9214
145.8450,84.9277
145.8723,85.0294
145.9249,85.1206
145.9994,85.1951
146.0906,85.2477
146.1923,85.2750
146.1986,85.2750
145.5195,85.9540
145.5925,86.0051
145.5925,86.0051
145.7987,86.1013
145.7987,86.1013
146.0184,86.1601
146.0184,86.1601
146.2450,86.1800
146.2450,86.1800
146.4716,86.1601
146.4716,86.1601
146.6913,86.1013
146.6913,86.1013
146.8975,86.0051
146.9705,85.9540
146.2914,85.2750
146.2977,85.2750
146.3994,85.2477
146.4906,85.1951
146.5651,85.1206
146.6177,85.0294
146.6450,84.9277
146.6450,84.9214
147.3240,85.6005
147.3751,85.5275
147.4713,85.3213
147.4713,85.3213
147.5301,85.1016
147.5301,85.1016
147.5500,84.8750
147.5500,84.8750
147.5301,84.6484
147.5301,84.6484
147.4713,84.4287
147.4713,84.4287
147.3751,84.2225
147.3751,84.2225
147.3240,84.1495
146.6450,84.8286
146.6450,84.8223
146.6177,84.7206
146.5651,84.6294
146.4906,84.5549
146.3994,84.5023
146.2977,84.4750
146.2914,84.4750
146.9705,83.7960
146.8975,83.7449
146.6913,83.6487
146.6913,83.6487
146.4716,83.5899
146.4716,83.5899
146.2450,83.5700
146.2450,83.5700
146.0184,83.5899
146.0184,83.5899
145.7987,83.6487
145.7987,83.6487
145.5925,83.7449
145.5925,83.7449
145.5195,83.7960
145.5195,83.7960
146.1986,84.4750
146.1923,84.4750
146.0906,84.5023
145.9994,84.5549
145.9249,84.6294
145.8723,84.7206
145.8450,84.8223
145.8450,84.8286
145.1660,84.1495
145.1660,84.1495
145.1149,84.2225
145.1149,84.2225
145.0187,84.4287
145.0187,84.4287
144.9599,84.6484
144.9599,84.6484
144.9400,84.8750
144.0455,84.8750
144.0455,83.4150
152.8397,83.4150
152.8590,83.6111
152.8704,83.6487
152.9028,83.7555
152.9162,83.7997
153.0091,83.9735
153.0091,83.9735
153.1341,84.1259
153.2865,84.2509
153.2865,84.2509
153.4603,84.3438
153.4603,84.3438
153.4603,84.3438
153.6489,84.4010
153.8450,84.4203
154.0411,84.4010
154.2297,84.3438
154.2737,84.3203
154.3466,84.2813
154.4035,84.2509
154.5559,84.1259
154.6809,83.9735
154.7493,83.8455
154.7738,83.7997
154.7738,83.7997
154.7738,83.7997
154.8310,83.6111
154.8503,83.4150
154.8310,83.2189
154.7738,83.0303
154.7738,83.0303
154.7738,83.0303
154.6809,82.8565
154.6809,82.8565
154.5559,82.7041
154.4035,82.5791
154.4035,82.5791
154.2297,82.4862
154.2297,82.4862
154.0411,82.4290
154.0411,82.4290
153.8450,82.4097
153.6489,82.4290
153.4603,82.4862
153.2865,82.5791
153.2865,82.5791
153.1341,82.7041
153.0091,82.8565
153.0091,82.8565
152.9162,83.0303
152.8590,83.2189
152.8397,83.4150
144.0455,83.4150
144.0455,80.8750
152.8397,80.8750
152.8590,81.0711
152.9162,81.2597
153.0091,81.4335
153.0091,81.4335
153.1341,81.5859
153.2865,81.7109
153.2865,81.7109
153.4603,81.8038
153.4603,81.8038
153.4603,81.8038
153.6489,81.8610
153.8450,81.8803
154.0411,81.8610
154.2297,81.8038
154.4035,81.7109
154.5559,81.5859
154.6809,81.4335
154.7378,81.3270
154.7738,81.2597
154.7738,81.2597
154.7738,81.2597
154.8310,81.0711
154.8503,80.8750
154.8310,80.6789
154.7738,80.4903
154.7738,80.4903
154.7738,80.4903
154.6809,80.3165
154.6809,80.3165
154.5559,80.1641
154.4035,80.0391
154.4035,80.0391
154.2297,79.9462
154.2297,79.9462
154.0411,79.8890
154.0411,79.8890
153.8450,79.8697
153.6489,79.8890
153.4603,79.9462
153.2865,80.0391
153.2865,80.0391
153.1341,80.1641
153.0091,80.3165
153.0091,80.3165
152.9162,80.4903
152.8590,80.6789
152.8397,80.8750
144.0455,80.8750
144.0455,78.3350
152.8397,78.3350
152.8590,78.5311
152.8590,78.5311
152.9154,78.7172
152.9162,78.7197
153.0091,78.8935
153.0091,78.8935
153.1341,79.0459
153.2865,79.1709
153.2865,79.1709
153.4603,79.2638
153.4603,79.2638
153.4603,79.2638
153.6489,79.3210
153.8450,79.3403
154.0411,79.3210
154.2297,79.2638
154.4035,79.1709
154.5559,79.0459
154.6809,78.8935
154.7503,78.7637
154.7738,78.7197
154.7738,78.7197
154.7738,78.7197
154.8310,78.5311
154.8503,78.3350
154.8310,78.1389
154.7738,77.9503
154.7738,77.9503
154.7738,77.9503
154.6809,77.7765
154.6809,77.7765
154.5559,77.6241
154.4035,77.4991
154.4035,77.4991
154.2297,77.4062
154.2297,77.4062
154.0411,77.3490
154.0411,77.3490
153.8450,77.3297
153.6489,77.3490
153.4603,77.4062
153.2865,77.4991
153.2865,77.4991
153.1341,77.6241
153.0091,77.7765
153.0091,77.7765
152.9162,77.9503
152.8590,78.1389
152.8397,78.3350
144.0455,78.3350
144.0455,74.7150
145.2397,74.7150
145.2590,74.9111
145.2590,74.9111
145.2590,74.9111
145.3114,75.0841
145.3162,75.0997
145.4091,75.2735
145.4091,75.2735
145.5341,75.4259
145.6865,75.5509
145.6865,75.5509
145.8603,75.6438
145.8603,75.6438
145.8603,75.6438
146.0489,75.7010
146.2450,75.7203
146.4411,75.7010
146.6297,75.6438
146.8035,75.5509
146.9559,75.4259
147.0809,75.2735
147.1007,75.2365
147.1303,75.1810
147.1793,75.1312
147.2397,75.1155
148.7503,75.1155
148.8173,75.1352
148.8597,75.1810
148.9091,75.2735
148.9091,75.2735
149.0341,75.4259
149.1865,75.5509
149.1865,75.5509
149.3603,75.6438
149.3603,75.6438
149.3603,75.6438
149.5489,75.7010
149.7450,75.7203
149.9411,75.7010
150.0415,75.6706
150.1114,75.6700
150.1652,75.7016
150.5002,76.0366
150.5002,76.0366
150.5045,76.0409
150.5045,76.0409
150.5791,76.1155
150.6397,76.1505
150.6397,76.1505
150.6704,76.1682
150.6704,76.1682
150.6704,76.1682
150.6704,76.1682
150.7723,76.1955
150.7723,76.1955
150.8853,76.1955
150.8853,76.1955
152.8503,76.1955
152.9173,76.2152
152.9597,76.2610
153.0091,76.3535
153.0091,76.3535
153.1341,76.5059
153.2865,76.6309
153.2865,76.6309
153.4603,76.7238
153.4603,76.7238
153.4603,76.7238
153.6489,76.7810
153.8450,76.8003
154.0411,76.7810
154.2297,76.7238
154.4035,76.6309
154.5559,76.5059
154.6809,76.3535
154.7738,76.1797
154.8310,75.9911
154.8503,75.7950
154.8310,75.5989
154.7738,75.4103
154.7738,75.4103
154.7738,75.4103
154.6809,75.2365
154.6809,75.2365
154.5559,75.0841
154.4035,74.9591
154.4035,74.9591
154.2297,74.8662
154.2297,74.8662
154.0411,74.8090
154.0411,74.8090
153.8450,74.7897
153.6489,74.8090
153.4603,74.8662
153.2865,74.9591
153.2865,74.9591
153.1341,75.0841
153.0091,75.2365
153.0091,75.2365
152.9597,75.3290
152.9107,75.3788
152.8503,75.3945
151.0423,75.3945
150.9752,75.3748
150.9546,75.3582
150.7316,75.1352
150.6981,75.0738
150.7006,75.0115
150.7310,74.9111
150.7503,74.7150
150.7310,74.5189
150.6738,74.3303
150.6738,74.3303
150.6738,74.3303
150.5809,74.1565
150.5809,74.1565
150.4559,74.0041
150.3035,73.8791
150.3035,73.8791
150.1297,73.7862
150.1297,73.7862
149.9411,73.7290
149.9411,73.7290
149.7450,73.7097
149.5489,73.7290
149.3603,73.7862
149.1865,73.8791
149.1865,73.8791
149.0341,74.0041
148.9091,74.1565
148.9091,74.1565
148.8597,74.2490
148.8107,74.2988
148.7503,74.3145
147.2397,74.3145
147.1727,74.2948
147.1303,74.2490
147.0809,74.1565
147.0809,74.1565
146.9559,74.0041
146.8035,73.8791
146.8035,73.8791
146.6297,73.7862
146.6297,73.7862
146.4411,73.7290
146.4411,73.7290
146.2450,73.7097
146.0489,73.7290
145.8603,73.7862
145.6865,73.8791
145.6865,73.8791
145.5341,74.0041
145.4091,74.1565
145.4091,74.1565
145.3162,74.3303
145.2590,74.5189
145.2397,74.7150
144.0455,74.7150
144.0455,73.2550
152.8397,73.2550
152.8590,73.4511
152.9162,73.6397
153.0091,73.8135
153.0091,73.8135
153.1341,73.9659
153.2865,74.0909
153.2865,74.0909
153.4603,74.1838
153.4603,74.1838
153.4603,74.1838
153.6489,74.2410
153.8450,74.2603
154.0411,74.2410
154.2297,74.1838
154.4035,74.0909
154.5559,73.9659
154.6809,73.8135
154.7738,73.6397
154.8310,73.4511
154.8503,73.2550
154.8310,73.0589
154.7738,72.8703
154.7738,72.8703
154.7738,72.8703
154.6809,72.6965
154.6809,72.6965
154.5559,72.5441
154.4035,72.4191
154.4035,72.4191
154.2297,72.3262
154.2297,72.3262
154.0411,72.2690
154.0411,72.2690
153.8450,72.2497
153.6489,72.2690
153.4603,72.3262
153.2865,72.4191
153.2865,72.4191
153.1341,72.5441
153.0091,72.6965
153.0091,72.6965
152.9162,72.8703
152.8590,73.0589
152.8397,73.2550
144.0455,73.2550
144.0455,69.6951
144.0652,69.6281
144.0818,69.6074
144.2289,69.4603
144.3885,69.3007
144.4498,69.2672
144.5195,69.2722
144.5755,69.3141
144.5999,69.3795
144.5867,69.4447
144.4939,69.6268
144.4282,69.8289
144.4282,69.8289
144.3950,70.0388
144.3950,70.0450
145.3120,70.0450
145.2791,70.1020
145.2450,70.2292
145.2450,70.3608
145.2791,70.4880
145.3120,70.5450
144.3950,70.5450
144.3950,70.5512
144.4282,70.7611
144.4282,70.7611
144.4939,70.9632
144.5904,71.1526
144.7153,71.3245
144.7153,71.3245
144.8655,71.4747
144.8655,71.4747
145.0374,71.5996
145.2268,71.6961
145.4289,71.7618
145.4950,71.7722
145.4950,70.7280
145.5520,70.7609
145.6792,70.7950
145.8108,70.7950
145.9380,70.7609
145.9950,70.7280
145.9950,71.7722
146.0611,71.7618
146.0611,71.7618
146.2632,71.6961
146.4526,71.5996
146.6245,71.4747
146.6245,71.4747
146.7747,71.3245
146.7747,71.3245
146.8996,71.1526
146.9600,71.0340
147.0080,70.9832
147.0758,70.9664
147.1419,70.9890
147.1854,71.0437
147.1945,71.0903
147.1945,71.0993
147.1974,71.1297
147.1974,71.1297
147.2422,71.2579
147.2422,71.2579
147.3228,71.3671
147.4321,71.4478
147.4748,71.4627
147.5603,71.4926
147.5907,71.4955
147.5907,71.4955
148.8993,71.4955
148.9297,71.4926
148.9297,71.4926
148.9938,71.4702
149.0579,71.4478
149.1671,71.3671
149.2478,71.2579
149.2846,71.1526
149.2926,71.1297
149.2926,71.1297
149.2955,71.0993
149.2955,70.7150
152.8397,70.7150
152.8590,70.9111
152.9162,71.0997
153.0091,71.2735
153.0091,71.2735
153.1341,71.4259
153.2865,71.5509
153.2865,71.5509
153.4603,71.6438
153.4603,71.6438
153.4603,71.6438
153.6489,71.7010
153.8450,71.7203
154.0411,71.7010
154.2297,71.6438
154.4035,71.5509
154.5559,71.4259
154.6809,71.2735
154.7738,71.0997
154.8310,70.9111
154.8503,70.7150
154.8310,70.5189
154.7738,70.3303
154.7738,70.3303
154.7738,70.3303
154.6809,70.1565
154.6809,70.1565
154.5559,70.0041
154.4035,69.8791
154.4035,69.8791
154.2297,69.7862
154.2297,69.7862
154.0411,69.7290
154.0411,69.7290
153.8450,69.7097
153.6489,69.7290
153.4603,69.7862
153.2865,69.8791
153.2865,69.8791
153.1341,70.0041
153.0091,70.1565
153.0091,70.1565
152.9162,70.3303
152.8590,70.5189
152.8397,70.7150
149.2955,70.7150
149.2955,69.4907
149.2926,69.4603
149.2926,69.4603
149.2478,69.3321
149.2478,69.3321
149.2391,69.3203
149.1671,69.2228
149.0579,69.1422
148.9285,69.0969
148.8718,69.0562
148.8460,68.9913
148.8455,68.9799
148.8455,68.7278
148.8652,68.6608
148.9180,68.6151
148.9871,68.6051
149.0507,68.6341
149.0841,68.6804
149.0913,68.6979
149.0913,68.6979
149.1844,68.8372
149.3028,68.9556
149.3955,69.0175
149.4421,69.0487
149.5969,69.1128
149.7447,69.1422
149.7612,69.1455
149.7612,69.1455
149.7612,69.1455
149.9288,69.1455
149.9288,69.1455
150.0931,69.1128
150.2479,69.0487
150.3872,68.9556
150.5056,68.8372
150.5987,68.6979
150.6628,68.5431
150.6955,68.3788
150.6955,68.2112
150.6883,68.1750
152.8397,68.1750
152.8590,68.3711
152.9162,68.5597
153.0091,68.7335
153.0091,68.7335
153.1341,68.8859
153.2865,69.0109
153.2865,69.0109
153.4603,69.1038
153.4603,69.1038
153.4603,69.1038
153.6489,69.1610
153.8450,69.1803
154.0411,69.1610
154.2297,69.1038
154.2426,69.0969
154.3748,69.0263
154.4035,69.0109
154.5559,68.8859
154.6809,68.7335
154.7738,68.5597
154.8310,68.3711
154.8503,68.1750
154.8310,67.9789
154.7738,67.7903
154.7738,67.7903
154.7738,67.7903
154.6809,67.6165
154.6809,67.6165
154.5559,67.4641
154.4035,67.3391
154.4035,67.3391
154.2297,67.2462
154.2297,67.2462
154.0411,67.1890
154.0411,67.1890
153.8450,67.1697
153.6489,67.1890
153.4603,67.2462
153.2865,67.3391
153.2865,67.3391
153.1341,67.4641
153.0091,67.6165
153.0091,67.6165
152.9162,67.7903
152.8590,67.9789
152.8397,68.1750
150.6883,68.1750
150.6628,68.0469
150.5998,67.8948
150.5987,67.8921
150.5787,67.8622
150.5675,67.8455
150.5056,67.7528
150.3872,67.6344
150.2479,67.5413
150.0931,67.4772
150.0931,67.4772
149.9288,67.4445
149.9288,67.4445
149.7612,67.4445
149.7612,67.4445
149.5969,67.4772
149.5969,67.4772
149.4421,67.5413
149.3028,67.6344
149.1844,67.7528
149.0913,67.8921
149.0913,67.8921
149.0841,67.9096
149.0402,67.9640
148.9739,67.9861
148.9062,67.9688
148.8586,67.9177
148.8455,67.8622
148.8455,65.6350
152.8397,65.6350
152.8590,65.8311
152.8590,65.8311
152.9088,65.9955
152.9162,66.0197
153.0091,66.1935
153.0091,66.1935
153.1341,66.3459
153.2865,66.4709
153.2865,66.4709
153.4603,66.5638
153.4603,66.5638
153.4603,66.5638
153.6489,66.6210
153.8450,66.6403
154.0411,66.6210
154.2297,66.5638
154.4035,66.4709
154.5559,66.3459
154.6809,66.1935
154.7738,66.0197
154.8310,65.8311
154.8503,65.6350
154.8310,65.4389
154.7738,65.2503
154.7738,65.2503
154.7738,65.2503
154.6809,65.0765
154.6809,65.0765
154.5559,64.9241
154.4035,64.7991
154.4035,64.7991
154.2297,64.7062
154.2297,64.7062
154.0411,64.6490
154.0411,64.6490
153.8450,64.6297
153.6489,64.6490
153.4603,64.7062
153.2865,64.7991
153.2865,64.7991
153.1341,64.9241
153.0091,65.0765
153.0091,65.0765
152.9162,65.2503
152.8590,65.4389
152.8397,65.6350
148.8455,65.6350
148.8455,64.8951
148.8652,64.8281
148.8818,64.8074
151.6574,62.0318
151.7187,61.9983
151.7451,61.9955
172.1449,61.9955
172.2119,62.0152
172.2326,62.0318
175.9601,65.7594
175.9601,65.7594
175.9645,65.7637
175.9645,65.7637
176.0763,65.8755
176.1631,65.9256
176.1631,65.9256
176.2132,65.9546
176.2132,65.9546
176.3659,65.9955
176.3659,65.9955
181.7205,65.9955
181.7875,66.0152
181.8333,66.0680
181.8445,66.1195
181.8445,77.8907
181.8248,77.9577
181.7720,78.0035
181.7029,78.0134
181.6585,77.9981
181.6215,77.9767
181.6189,77.9752
181.5043,77.9445
181.5043,77.9445
180.4326,77.9445
180.3655,77.9248
180.3367,77.8992
180.2881,77.8400
180.2259,77.7641
180.0735,77.6391
180.0735,77.6391
179.8997,77.5462
179.8997,77.5462
179.7111,77.4890
179.7111,77.4890
179.5150,77.4697
179.3189,77.4890
179.1303,77.5462
178.9565,77.6391
178.9565,77.6391
178.8041,77.7641
178.6791,77.9165
178.6791,77.9165
178.5862,78.0903
178.5290,78.2789
178.5232,78.3374
178.4971,78.4022
178.4400,78.4425
178.3702,78.4456
178.3121,78.4129
178.0818,78.1826
178.0483,78.1213
178.0455,78.0949
178.0455,76.4841
178.0455,76.4840
178.0455,76.3159
178.0132,76.1955
178.0046,76.1632
177.9814,76.1232
177.9255,76.0263
177.9255,76.0263
176.9326,75.0334
176.9326,75.0334
176.8137,74.9145
176.8137,74.9145
176.7269,74.8644
176.7269,74.8644
176.7269,74.8644
176.6768,74.8354
176.5241,74.7945
176.3659,74.7945
176.3583,74.7945
176.3583,74.7945
173.5317,74.7945
173.5317,74.7945
173.5241,74.7945
173.3659,74.7945
173.2586,74.8233
173.2132,74.8354
173.2132,74.8354
173.1631,74.8644
173.1631,74.8644
173.1599,74.8662
173.0763,74.9145
173.0763,74.9145
171.2772,76.7136
171.2159,76.7471
171.1462,76.7421
171.0902,76.7002
171.0658,76.6347
171.0655,76.6259
171.0655,72.3123
171.0852,72.2452
171.1018,72.2246
174.0248,69.3016
174.0862,69.2681
174.1485,69.2706
174.2478,69.3007
174.2489,69.3010
174.2489,69.3010
174.2682,69.3029
174.4450,69.3203
174.6411,69.3010
174.8297,69.2438
175.0035,69.1509
175.1559,69.0259
175.2809,68.8735
175.3274,68.7866
175.3738,68.6997
175.3738,68.6997
175.3738,68.6997
175.4310,68.5111
175.4503,68.3150
175.4310,68.1189
175.3738,67.9303
175.3738,67.9303
175.3738,67.9303
175.2809,67.7565
175.2809,67.7565
175.1559,67.6041
175.0035,67.4791
175.0035,67.4791
174.8297,67.3862
174.8297,67.3862
174.6411,67.3290
174.6411,67.3290
174.4450,67.3097
174.2489,67.3290
174.0603,67.3862
173.8865,67.4791
173.8865,67.4791
173.7341,67.6041
173.6091,67.7565
173.6091,67.7565
173.5162,67.9303
173.4590,68.1189
173.4397,68.3150
173.4590,68.5111
173.4894,68.6115
173.4900,68.6814
173.4584,68.7352
170.3445,71.8491
170.3445,71.8491
170.2918,71.9404
170.2918,71.9404
170.2645,72.0423
170.2645,72.8607
170.2448,72.9278
170.1920,72.9735
170.1229,72.9835
170.0593,72.9544
170.0218,72.8967
170.0138,72.8703
169.9209,72.6965
169.9209,72.6965
169.7959,72.5441
169.6435,72.4191
169.6435,72.4191
169.4697,72.3262
169.4697,72.3262
169.2811,72.2690
169.2811,72.2690
169.0850,72.2497
168.8889,72.2690
168.7003,72.3262
168.5265,72.4191
168.5265,72.4191
168.3741,72.5441
168.2491,72.6965
168.2491,72.6965
168.1562,72.8703
168.0990,73.0589
168.0929,73.1205
168.0667,73.1853
168.0097,73.2257
167.9399,73.2288
167.8795,73.1937
167.8477,73.1315
167.8455,73.1084
167.8455,70.8616
167.8652,70.7946
167.9180,70.7488
167.9871,70.7389
168.0507,70.7679
168.0885,70.8267
168.0929,70.8495
168.0990,70.9111
168.1562,71.0997
168.2491,71.2735
168.2491,71.2735
168.3741,71.4259
168.5265,71.5509
168.5265,71.5509
168.7003,71.6438
168.7003,71.6438
168.7003,71.6438
168.8889,71.7010
169.0850,71.7203
169.2811,71.7010
169.4697,71.6438
169.6435,71.5509
169.7959,71.4259
169.9209,71.2735
170.0138,71.0997
170.0710,70.9111
170.0903,70.7150
170.0710,70.5189
170.0138,70.3303
170.0138,70.3303
170.0138,70.3303
169.9209,70.1565
169.9209,70.1565
169.7959,70.0041
169.6435,69.8791
169.6435,69.8791
169.4697,69.7862
169.4697,69.7862
169.2811,69.7290
169.2811,69.7290
169.0850,69.7097
168.8889,69.7290
168.7003,69.7862
168.5265,69.8791
168.5265,69.8791
168.3741,70.0041
168.2491,70.1565
168.2491,70.1565
168.1562,70.3303
168.0990,70.5189
168.0929,70.5805
168.0667,70.6453
168.0097,70.6857
167.9399,70.6888
167.8795,70.6537
167.8477,70.5915
167.8455,70.5684
167.8455,68.3216
167.8652,68.2546
167.9180,68.2088
167.9871,68.1989
168.0507,68.2279
168.0885,68.2867
168.0929,68.3095
168.0990,68.3711
168.1562,68.5597
168.2491,68.7335
168.2491,68.7335
168.3741,68.8859
168.5265,69.0109
168.5265,69.0109
168.7003,69.1038
168.7003,69.1038
168.7003,69.1038
168.8889,69.1610
169.0850,69.1803
169.2811,69.1610
169.4697,69.1038
169.4826,69.0969
169.6148,69.0263
169.6435,69.0109
169.7959,68.8859
169.9209,68.7335
170.0138,68.5597
170.0710,68.3711
170.0903,68.1750
170.0710,67.9789
170.0138,67.7903
170.0138,67.7903
170.0138,67.7903
169.9209,67.6165
169.9209,67.6165
169.7959,67.4641
169.6435,67.3391
169.6435,67.3391
169.4697,67.2462
169.4697,67.2462
169.2811,67.1890
169.2811,67.1890
169.0850,67.1697
168.8889,67.1890
168.7003,67.2462
168.5265,67.3391
168.5265,67.3391
168.3741,67.4641
168.2491,67.6165
168.2491,67.6165
168.1562,67.7903
168.0990,67.9789
168.0929,68.0405
168.0667,68.1053
168.0097,68.1457
167.9399,68.1488
167.8795,68.1137
167.8477,68.0515
167.8455,68.0284
167.8455,65.7816
167.8652,65.7146
167.9180,65.6688
167.9871,65.6589
168.0507,65.6879
168.0885,65.7467
168.0929,65.7695
168.0990,65.8311
168.0990,65.8311
168.1488,65.9955
168.1562,66.0197
168.2491,66.1935
168.2491,66.1935
168.3741,66.3459
168.5265,66.4709
168.5265,66.4709
168.7003,66.5638
168.7003,66.5638
168.7003,66.5638
168.8889,66.6210
169.0850,66.6403
169.2811,66.6210
169.4697,66.5638
169.6435,66.4709
169.7959,66.3459
169.9209,66.1935
170.0138,66.0197
170.0710,65.8311
170.0903,65.6350
170.0710,65.4389
170.0138,65.2503
170.0138,65.2503
170.0138,65.2503
169.9209,65.0765
169.9209,65.0765
169.7959,64.9241
169.6435,64.7991
169.6435,64.7991
169.4697,64.7062
169.4697,64.7062
169.2811,64.6490
169.2811,64.6490
169.0850,64.6297
168.8889,64.6490
168.7003,64.7062
168.5265,64.7991
168.5265,64.7991
168.3741,64.9241
168.2491,65.0765
168.2491,65.0765
168.1562,65.2503
168.0990,65.4389
168.0929,65.5005
168.0667,65.5653
168.0097,65.6057
167.9399,65.6088
167.8795,65.5737
167.8477,65.5115
167.8455,65.4884
167.8455,64.6123
167.8652,64.5452
167.8818,64.5246
168.5746,63.8318
168.6359,63.7983
168.6623,63.7955
172.2277,63.7955
172.2948,63.8152
172.3154,63.8318
175.8445,67.3609
175.8445,67.3609
175.9191,67.4355
176.0104,67.4882
176.1123,67.5155
178.0977,67.5155
178.1648,67.5352
178.1854,67.5518
178.5284,67.8948
178.5619,67.9562
178.5594,68.0185
178.5290,68.1189
178.5097,68.3150
178.5290,68.5111
178.5290,68.5111
178.5806,68.6814
178.5862,68.6997
178.6791,68.8735
178.6791,68.8735
178.8041,69.0259
178.9565,69.1509
178.9565,69.1509
179.1303,69.2438
179.1303,69.2438
179.1303,69.2438
179.3189,69.3010
179.5150,69.3203
179.7111,69.3010
179.8997,69.2438
180.0735,69.1509
180.2259,69.0259
180.3509,68.8735
180.3974,68.7866
180.4438,68.6997
180.4438,68.6997
180.4438,68.6997
180.5010,68.5111
180.5203,68.3150
180.5010,68.1189
180.4438,67.9303
180.4438,67.9303
180.4438,67.9303
180.3509,67.7565
180.3509,67.7565
180.2259,67.6041
180.0735,67.4791
180.0735,67.4791
179.8997,67.3862
179.8997,67.3862
179.7111,67.3290
179.7111,67.3290
179.5150,67.3097
179.3189,67.3290
179.2185,67.3594
179.1486,67.3600
179.0948,67.3284
178.5609,66.7945
178.5609,66.7945
178.5152,66.7682
178.4696,66.7418
178.4187,66.7281
178.3677,66.7145
178.3677,66.7145
176.3823,66.7145
176.3152,66.6948
176.2946,66.6782
172.6909,63.0745
172.6909,63.0745
172.6453,63.0482
172.5996,63.0218
172.5487,63.0081
172.4977,62.9945
172.4977,62.9945
168.5053,62.9945
168.5053,62.9945
168.4977,62.9945
168.3923,62.9945
168.3244,63.0127
168.2904,63.0218
168.1991,63.0745
167.1245,64.1491
167.1245,64.1491
167.0718,64.2404
167.0718,64.2404
167.0445,64.3423
167.0445,84.2623
167.0445,84.3677
167.0569,84.4140
167.0718,84.4696
167.0907,84.5023
167.1245,84.5609
167.1245,84.5609
168.0984,85.5348
168.1319,85.5962
168.1294,85.6585
168.0990,85.7589
168.0797,85.9550
168.0990,86.1511
168.1562,86.3397
168.2491,86.5135
168.2491,86.5135
168.3741,86.6659
168.5265,86.7909
168.5265,86.7909
168.7003,86.8838
168.7003,86.8838
168.7003,86.8838
168.8889,86.9410
169.0850,86.9603
169.2811,86.9410
169.4697,86.8838
169.6435,86.7909
169.6818,86.7595
169.7461,86.7322
169.8150,86.7440
169.8666,86.7911
169.8845,86.8553
169.8845,87.5947
169.8648,87.6617
169.8120,87.7075
169.7429,87.7174
169.6818,87.6905
169.6435,87.6591
169.6435,87.6591
169.4697,87.5662
169.4697,87.5662
169.2811,87.5090
169.2811,87.5090
169.0850,87.4897
168.8889,87.5090
168.7003,87.5662
168.5265,87.6591
168.5265,87.6591
168.3741,87.7841
168.2491,87.9365
168.2491,87.9365
168.1562,88.1103
168.0990,88.2989
168.0797,88.4950
168.0990,88.6911
168.1562,88.8797
168.2491,89.0535
168.2491,89.0535
168.3741,89.2059
168.5265,89.3309
168.5265,89.3309
168.7003,89.4238
168.7003,89.4238
168.7003,89.4238
168.8889,89.4810
169.0850,89.5003
169.2811,89.4810
169.4697,89.4238
169.5219,89.3959
169.6435,89.3309
169.6435,89.3309
169.7959,89.2059
169.8144,89.1833
169.8721,89.1440
169.9420,89.1421
169.9979,89.1743
175.4184,94.5947
175.4518,94.6561
175.4493,94.7184
175.4097,94.8491
175.3894,95.0550
175.4097,95.2609
175.4097,95.2609
175.4698,95.4590
175.5673,95.6414
175.5673,95.6415
175.6986,95.8014
175.7952,95.8807
175.8585,95.9327
176.0410,96.0302
176.2391,96.0903
176.2391,96.0903
176.2575,96.0921
176.4450,96.1106
176.6509,96.0903
176.8490,96.0302
177.0314,95.9327
177.1914,95.8014
177.3227,95.6414
177.4202,95.4590
177.4803,95.2609
177.5006,95.0550
177.4803,94.8491
177.4202,94.6510
177.3227,94.4685
177.2707,94.4052
177.1914,94.3086
177.0315,94.1773
177.0315,94.1773
177.0314,94.1773
176.8490,94.0798
176.6509,94.0197
176.6509,94.0197
176.6509,94.0197
176.4450,93.9994
176.2391,94.0197
176.1588,94.0440
176.1084,94.0593
176.0386,94.0600
175.9847,94.0284
170.7218,88.7654
170.6883,88.7041
170.6855,88.6777
170.6855,88.2233
170.7052,88.1562
170.7580,88.1105
170.8271,88.1005
170.8907,88.1296
170.9169,88.1613
170.9645,88.2437
170.9645,88.2437
171.0833,88.3626
171.0834,88.3626
175.3752,92.6544
175.4086,92.7157
175.4091,92.7179
175.4097,92.7209
175.4097,92.7209
175.4698,92.9190
175.5673,93.1014
175.5673,93.1015
175.6986,93.2614
175.7066,93.2680
175.8585,93.3927
176.0410,93.4902
176.2391,93.5503
176.2391,93.5503
176.2575,93.5521
176.4450,93.5706
176.6509,93.5503
176.8490,93.4902
177.0314,93.3927
177.1914,93.2614
177.3227,93.1014
177.4202,92.9190
177.4803,92.7209
177.5006,92.5150
177.4803,92.3091
177.4202,92.1110
177.3227,91.9286
177.2707,91.8652
177.1914,91.7686
177.0315,91.6373
177.0315,91.6373
177.0314,91.6373
176.8490,91.5398
176.6509,91.4797
176.6509,91.4797
176.6509,91.4797
176.4450,91.4594
176.2391,91.4797
176.0492,91.5373
175.9794,91.5379
175.9255,91.5063
175.6564,91.2372
175.6229,91.1759
175.6279,91.1062
175.6698,91.0502
175.7353,91.0258
175.7441,91.0255
177.3148,91.0255
177.3148,91.0255
177.3296,91.0226
177.3732,91.0139
177.3732,91.0139
177.3732,91.0139
177.4396,90.9696
177.4839,90.9032
177.4839,90.9032
177.4839,90.9032
177.4955,90.8448
177.4955,90.8447
177.4955,89.1052
177.4955,89.1052
177.4839,89.0468
177.4839,89.0468
177.4396,88.9804
177.3732,88.9361
177.3732,88.9361
177.3148,88.9245
177.3147,88.9245
176.2951,88.9245
176.2281,88.9048
176.2074,88.8882
173.0818,85.7626
173.0483,85.7013
173.0455,85.6749
173.0455,84.8545
173.0652,84.7874
173.1180,84.7417
173.1871,84.7317
173.2507,84.7607
173.2885,84.8195
173.2911,84.8303
173.2924,84.8366
173.2924,84.8366
173.3471,84.9686
173.3471,84.9687
173.4265,85.0875
173.4265,85.0875
173.5275,85.1885
173.5275,85.1885
173.6463,85.2679
173.6463,85.2679
173.6463,85.2679
173.7784,85.3226
173.7784,85.3226
173.7784,85.3226
173.9185,85.3505
173.9185,85.3505
174.5115,85.3505
174.6058,85.3317
174.6516,85.3226
174.7837,85.2679
174.8159,85.2464
174.8826,85.2255
174.8848,85.2255
178.6154,85.2255
178.6824,85.2452
178.6843,85.2464
178.7763,85.3079
178.7763,85.3079
178.7763,85.3079
178.9084,85.3626
178.9084,85.3626
178.9084,85.3626
179.0485,85.3905
179.0485,85.3905
179.6415,85.3905
179.7358,85.3717
179.7816,85.3626
179.9137,85.3079
179.9459,85.2864
180.0126,85.2655
180.0148,85.2655
180.5583,85.2655
180.5583,85.2655
180.5659,85.2655
180.7241,85.2655
180.7241,85.2655
180.8768,85.2246
180.9392,85.1885
181.0137,85.1455
181.1255,85.0337
181.1255,85.0337
181.1357,85.0235
181.1357,85.0235
182.8035,83.3557
182.8035,83.3557
182.8137,83.3455
182.8137,83.3455
182.9255,83.2337
183.0046,83.0968
183.0372,82.9752
183.0455,82.9441
183.0455,82.7859
183.0455,65.3159
183.0046,65.1632
182.9545,65.0765
182.9255,65.0263
182.9255,65.0263
182.8137,64.9145
182.8137,64.9145
182.6768,64.8354
182.6768,64.8354
182.6768,64.8354
182.5241,64.7945
182.5241,64.7945
176.7451,64.7945
176.6781,64.7748
176.6574,64.7582
173.1729,61.2737
179.5945,61.2737
179.5945,61.5163
179.6262,61.7568
179.6889,61.9911
179.6919,61.9983
179.7818,62.2152
179.9031,62.4253
179.9031,62.4253
179.9031,62.4253
180.0507,62.6177
180.0507,62.6177
180.2223,62.7893
180.2223,62.7893
180.4147,62.9369
180.6248,63.0582
180.8489,63.1511
181.0832,63.2138
181.2636,63.2376
181.3237,63.2455
181.3237,63.2455
181.5663,63.2455
181.6144,63.2392
181.8068,63.2138
182.0411,63.1511
182.2652,63.0582
182.4753,62.9369
182.6677,62.7893
182.8393,62.6177
182.9869,62.4253
183.1082,62.2152
183.2011,61.9911
183.2638,61.7568
183.2955,61.5163
183.2955,61.2737
183.2638,61.0332
183.2011,60.7989
183.1992,60.7945
183.1082,60.5748
183.1082,60.5748
182.9869,60.3647
182.8393,60.1723
182.8393,60.1723
182.6677,60.0007
182.6677,60.0007
182.4753,59.8531
182.4753,59.8531
182.4753,59.8531
182.2652,59.7318
182.2652,59.7318
182.0411,59.6389
181.8068,59.5762
181.5663,59.5445
181.5663,59.5445
181.3237,59.5445
181.3237,59.5445
181.0832,59.5762
180.8489,59.6389
180.6248,59.7318
180.6248,59.7318
180.4147,59.8531
180.2223,60.0007
180.2223,60.0007
180.0507,60.1723
180.0507,60.1723
179.9031,60.3647
179.7818,60.5748
179.7818,60.5748
179.6889,60.7989
179.6262,61.0332
179.5945,61.2737
173.1729,61.2737
172.9326,61.0334
172.9326,61.0334
172.8137,60.9145
172.8137,60.9145
172.7269,60.8644
172.7269,60.8644
172.7269,60.8644
172.6768,60.8354
172.5241,60.7945
172.3659,60.7945
172.3583,60.7945
172.3583,60.7945
151.3659,60.7945
151.3250,60.8055
151.3250,60.8055
151.2878,60.8155
151.2132,60.8354
151.2132,60.8354
151.0763,60.9145
151.0763,60.9145
147.7645,64.2263
147.7645,64.2263
147.7144,64.3131
147.7144,64.3131
147.6854,64.3632
147.6854,64.3632
147.6854,64.3632
147.6445,64.5159
147.6445,64.5159
147.6445,64.6840
147.6445,64.6841
147.6445,67.4459
147.6248,67.5129
147.5720,67.5587
147.5029,67.5686
147.4393,67.5396
147.4328,67.5336
146.9326,67.0334
146.9326,67.0334
146.8137,66.9145
146.8137,66.9145
146.7269,66.8644
146.7269,66.8644
146.7269,66.8644
146.6768,66.8354
146.5241,66.7945
146.3659,66.7945
146.3583,66.7945
146.3583,66.7945
145.5241,66.7945
145.3659,66.7945
145.2132,66.8354
145.2132,66.8354
145.2132,66.8354
145.2132,66.8354
145.1631,66.8644
145.1631,66.8644
145.1197,66.8894
145.0763,66.9145
145.0763,66.9145
142.9645,69.0263
142.9645,69.0263
142.9145,69.1128
142.9145,69.1128
142.8854,69.1632
142.8445,69.3159
141.9955,69.3159
141.9955,61.2737
142.5945,61.2737
142.5945,61.5163
142.6262,61.7568
142.6889,61.9911
142.6919,61.9983
142.7818,62.2152
142.9031,62.4253
142.9031,62.4253
142.9031,62.4253
143.0507,62.6177
143.0507,62.6177
143.2223,62.7893
143.2223,62.7893
143.4147,62.9369
143.6248,63.0582
143.8489,63.1511
144.0832,63.2138
144.2636,63.2376
144.3237,63.2455
144.3237,63.2455
144.5663,63.2455
144.6144,63.2392
144.8068,63.2138
145.0411,63.1511
145.2652,63.0582
145.4753,62.9369
145.6677,62.7893
145.8393,62.6177
145.9869,62.4253
146.1082,62.2152
146.2011,61.9911
146.2638,61.7568
146.2955,61.5163
146.2955,61.2737
146.2638,61.0332
146.2011,60.7989
146.1992,60.7945
146.1082,60.5748
146.1082,60.5748
145.9869,60.3647
145.8393,60.1723
145.8393,60.1723
145.6677,60.0007
145.6677,60.0007
145.4753,59.8531
145.4753,59.8531
145.4753,59.8531
145.2652,59.7318
145.2652,59.7318
145.0411,59.6389
144.8068,59.5762
144.5663,59.5445
144.5663,59.5445
144.3237,59.5445
144.3237,59.5445
144.0832,59.5762
143.8489,59.6389
143.6248,59.7318
143.6248,59.7318
143.4147,59.8531
143.2223,60.0007
143.2223,60.0007
143.0507,60.1723
143.0507,60.1723
142.9031,60.3647
142.7818,60.5748
142.7818,60.5748
142.6889,60.7989
142.6262,61.0332
142.5945,61.2737
141.9955,61.2737
141.9955,59.0695
142.0152,59.0025
142.0680,58.9567
142.1195,58.9455
183.7705,58.9455
Z" /> 
<path style="fill:none; 
stroke:#000000; stroke-width:0.0500; stroke-opacity:1; 
stroke-linecap:round; stroke-linejoin:round;fill:none"
d="M 141.4450,58.3950
184.4450,58.3950
184.4450,106.3950
141.4450,106.3950
Z" /> 
</g> 
</svg>
