%TF.GenerationSoftware,KiCad,Pcbnew,8.0.5*%
%TF.CreationDate,2025-02-09T09:24:22+08:00*%
%TF.ProjectId,arduino_solar_bikelight_1,61726475-696e-46f5-9f73-6f6c61725f62,rev?*%
%TF.SameCoordinates,Original*%
%TF.FileFunction,Soldermask,Bot*%
%TF.FilePolarity,Negative*%
%FSLAX46Y46*%
G04 Gerber Fmt 4.6, Leading zero omitted, Abs format (unit mm)*
G04 Created by KiCad (PCBNEW 8.0.5) date 2025-02-09 09:24:22*
%MOMM*%
%LPD*%
G01*
G04 APERTURE LIST*
G04 Aperture macros list*
%AMRoundRect*
0 Rectangle with rounded corners*
0 $1 Rounding radius*
0 $2 $3 $4 $5 $6 $7 $8 $9 X,Y pos of 4 corners*
0 Add a 4 corners polygon primitive as box body*
4,1,4,$2,$3,$4,$5,$6,$7,$8,$9,$2,$3,0*
0 Add four circle primitives for the rounded corners*
1,1,$1+$1,$2,$3*
1,1,$1+$1,$4,$5*
1,1,$1+$1,$6,$7*
1,1,$1+$1,$8,$9*
0 Add four rect primitives between the rounded corners*
20,1,$1+$1,$2,$3,$4,$5,0*
20,1,$1+$1,$4,$5,$6,$7,0*
20,1,$1+$1,$6,$7,$8,$9,0*
20,1,$1+$1,$8,$9,$2,$3,0*%
G04 Aperture macros list end*
%ADD10C,1.600000*%
%ADD11O,1.600000X1.600000*%
%ADD12C,3.200000*%
%ADD13R,1.600000X1.600000*%
%ADD14C,1.200000*%
%ADD15RoundRect,0.250000X0.600000X0.750000X-0.600000X0.750000X-0.600000X-0.750000X0.600000X-0.750000X0*%
%ADD16O,1.700000X2.000000*%
%ADD17R,1.500000X1.050000*%
%ADD18O,1.500000X1.050000*%
%ADD19R,1.700000X1.700000*%
%ADD20O,1.700000X1.700000*%
%TA.AperFunction,Profile*%
%ADD21C,0.050000*%
%TD*%
G04 APERTURE END LIST*
D10*
%TO.C,R1*%
X149745000Y-84875000D03*
D11*
X149745000Y-74715000D03*
%TD*%
D10*
%TO.C,R2*%
X146245000Y-84875000D03*
D11*
X146245000Y-74715000D03*
%TD*%
D12*
%TO.C,REF\u002A\u002A*%
X181445000Y-61395000D03*
%TD*%
D13*
%TO.C,A1*%
X169085000Y-101195000D03*
D11*
X169085000Y-98655000D03*
X169085000Y-96115000D03*
X169085000Y-93575000D03*
X169085000Y-91035000D03*
X169085000Y-88495000D03*
X169085000Y-85955000D03*
X169085000Y-83415000D03*
X169085000Y-80875000D03*
X169085000Y-78335000D03*
X169085000Y-75795000D03*
X169085000Y-73255000D03*
X169085000Y-70715000D03*
X169085000Y-68175000D03*
X169085000Y-65635000D03*
X153845000Y-65635000D03*
X153845000Y-68175000D03*
X153845000Y-70715000D03*
X153845000Y-73255000D03*
X153845000Y-75795000D03*
X153845000Y-78335000D03*
X153845000Y-80875000D03*
X153845000Y-83415000D03*
X153845000Y-85955000D03*
X153845000Y-88495000D03*
X153845000Y-91035000D03*
X153845000Y-93575000D03*
X153845000Y-96115000D03*
X153845000Y-98655000D03*
X153845000Y-101195000D03*
%TD*%
D12*
%TO.C,REF\u002A\u002A*%
X144445000Y-61395000D03*
%TD*%
D10*
%TO.C,R4*%
X174445000Y-68315000D03*
D11*
X174445000Y-78475000D03*
%TD*%
D14*
%TO.C,J1*%
X149845000Y-68295000D03*
D15*
X148245000Y-70295000D03*
D16*
X145745000Y-70295000D03*
%TD*%
D12*
%TO.C,REF\u002A\u002A*%
X144445000Y-103395000D03*
%TD*%
D17*
%TO.C,Q2*%
X174215000Y-82085000D03*
D18*
X174215000Y-83355000D03*
X174215000Y-84625000D03*
%TD*%
D10*
%TO.C,R3*%
X179515000Y-68315000D03*
D11*
X179515000Y-78475000D03*
%TD*%
D17*
%TO.C,Q1*%
X179345000Y-82125000D03*
D18*
X179345000Y-83395000D03*
X179345000Y-84665000D03*
%TD*%
D12*
%TO.C,REF\u002A\u002A*%
X181445000Y-103395000D03*
%TD*%
D19*
%TO.C,J4*%
X176445000Y-89975000D03*
D20*
X176445000Y-92515000D03*
X176445000Y-95055000D03*
X176445000Y-97595000D03*
X176445000Y-100135000D03*
%TD*%
D21*
X141445000Y-58395000D02*
X184445000Y-58395000D01*
X184445000Y-106395000D01*
X141445000Y-106395000D01*
X141445000Y-58395000D01*
M02*
