<?xml version="1.0" standalone="no"?>
 <!DOCTYPE svg PUBLIC "-//W3C//DTD SVG 1.1//EN" 
 "http://www.w3.org/Graphics/SVG/1.1/DTD/svg11.dtd"> 
<svg
  xmlns:svg="http://www.w3.org/2000/svg"
  xmlns="http://www.w3.org/2000/svg"
  xmlns:xlink="http://www.w3.org/1999/xlink"
  version="1.1"
  width="297.0022mm" height="210.0072mm" viewBox="0.0000 0.0000 297.0022 210.0072">
<title>SVG Image created as arduino_solar_bikelight_2-B_Mask.svg date 2025/02/08 22:32:36 </title>
  <desc>Image generated by PCBNEW </desc>
<g style="fill:#000000; fill-opacity:1.0000;stroke:#000000; stroke-opacity:1.0000;
stroke-linecap:round; stroke-linejoin:round;"
 transform="translate(0 0) scale(1 1)">
</g>
<g style="fill:#000000; fill-opacity:1.0000; stroke:none;">
<circle cx="168.7450" cy="67.4450" r="0.8000" /> 
</g>
<g style="fill:#000000; fill-opacity:1.0000; stroke:none;">
<circle cx="158.5850" cy="67.4450" r="0.8000" /> 
<circle cx="126.1650" cy="40.3300" r="1.6000" /> 
<path style="fill:#000000; fill-opacity:1.0000; stroke:none;fill-rule:evenodd;"
d="M 150.7550,50.1100
150.7550,51.9100
148.9550,51.9100
148.9550,50.1100
Z" /> 
</g>
<g style="fill:#000000; fill-opacity:1.0000; stroke:none;">
<circle cx="147.3150" cy="51.0100" r="0.9000" /> 
<path style="fill:#000000; fill-opacity:1.0000; stroke:none;fill-rule:evenodd;"
d="M 180.7550,75.1100
180.7550,76.9100
178.9550,76.9100
178.9550,75.1100
Z" /> 
</g>
<g style="fill:#000000; fill-opacity:1.0000; stroke:none;">
<circle cx="177.3150" cy="76.0100" r="0.9000" /> 
</g>
<g style="fill:#000000; fill-opacity:1.0000; stroke:none;">
<circle cx="196.2450" cy="71.0600" r="0.8000" /> 
</g>
<g style="fill:#000000; fill-opacity:1.0000; stroke:none;">
<circle cx="186.0850" cy="71.0600" r="0.8000" /> 
<path style="fill:#000000; fill-opacity:1.0000; stroke:none;fill-rule:evenodd;"
d="M 138.2550,50.1100
138.2550,51.9100
136.4550,51.9100
136.4550,50.1100
Z" /> 
<circle cx="134.8150" cy="51.0100" r="0.9000" /> 
</g>
<g style="fill:#000000; fill-opacity:1.0000; stroke:none;">
<circle cx="153.7450" cy="66.3950" r="0.8000" /> 
</g>
<g style="fill:#000000; fill-opacity:1.0000; stroke:none;">
<circle cx="143.5850" cy="66.3950" r="0.8000" /> 
<path style="fill:#000000; fill-opacity:1.0000; stroke:none;fill-rule:evenodd;"
d="M 165.7550,71.4950
165.7550,73.2950
163.9550,73.2950
163.9550,71.4950
Z" /> 
<circle cx="162.3150" cy="72.3950" r="0.9000" /> 
<path style="fill:#000000; fill-opacity:1.0000; stroke:none;fill-rule:evenodd;"
d="M 193.2550,50.1100
193.2550,51.9100
191.4550,51.9100
191.4550,50.1100
Z" /> 
</g>
<g style="fill:#000000; fill-opacity:1.0000; stroke:none;">
<circle cx="189.8150" cy="51.0100" r="0.9000" /> 
</g>
<g style="fill:#000000; fill-opacity:1.0000; stroke:none;">
<circle cx="141.2450" cy="46.0600" r="0.8000" /> 
</g>
<g style="fill:#000000; fill-opacity:1.0000; stroke:none;">
<circle cx="131.0850" cy="46.0600" r="0.8000" /> 
<path style="fill:#000000; fill-opacity:1.0000; stroke:none;fill-rule:evenodd;"
d="M 138.2550,75.1100
138.2550,76.9100
136.4550,76.9100
136.4550,75.1100
Z" /> 
<circle cx="134.8150" cy="76.0100" r="0.9000" /> 
<path style="fill:#000000; fill-opacity:1.0000; stroke:none;fill-rule:evenodd;"
d="M 150.7550,75.1100
150.7550,76.9100
148.9550,76.9100
148.9550,75.1100
Z" /> 
</g>
<g style="fill:#000000; fill-opacity:1.0000; stroke:none;">
<circle cx="147.3150" cy="76.0100" r="0.9000" /> 
</g>
<g style="fill:#000000; fill-opacity:1.0000; stroke:none;">
<circle cx="141.2450" cy="71.0600" r="0.8000" /> 
</g>
<g style="fill:#000000; fill-opacity:1.0000; stroke:none;">
<circle cx="131.0850" cy="71.0600" r="0.8000" /> 
<circle cx="163.6650" cy="48.3950" r="0.9000" /> 
</g>
<g style="fill:#000000; fill-opacity:1.0000; stroke:none;">
<circle cx="163.6650" cy="57.3950" r="0.9000" /> 
</g>
<g style="fill:none; 
stroke:#000000; stroke-width:1.7000; stroke-opacity:1; 
stroke-linecap:round; stroke-linejoin:round;">
<path d="M156.8150 50.3950
L158.0150 50.3950
" />
<path d="M169.3150 50.3950
L170.5150 50.3950
" />
<path d="M156.8150 55.3950
L158.0150 55.3950
" />
<path d="M169.3150 55.3950
L170.5150 55.3950
" />
</g>
<g style="fill:#000000; fill-opacity:1.0000; stroke:none;">
<circle cx="183.7450" cy="66.3950" r="0.8000" /> 
</g>
<g style="fill:#000000; fill-opacity:1.0000; stroke:none;">
<circle cx="173.5850" cy="66.3950" r="0.8000" /> 
<circle cx="196.2450" cy="46.0600" r="0.8000" /> 
</g>
<g style="fill:#000000; fill-opacity:1.0000; stroke:none;">
<circle cx="186.0850" cy="46.0600" r="0.8000" /> 
<path style="fill:#000000; fill-opacity:1.0000; stroke:none;fill-rule:evenodd;"
d="M 180.7550,50.1100
180.7550,51.9100
178.9550,51.9100
178.9550,50.1100
Z" /> 
<circle cx="177.3150" cy="51.0100" r="0.9000" /> 
</g>
<g style="fill:#000000; fill-opacity:1.0000; stroke:none;">
<circle cx="153.7450" cy="58.3950" r="0.8000" /> 
</g>
<g style="fill:#000000; fill-opacity:1.0000; stroke:none;">
<circle cx="143.5850" cy="58.3950" r="0.8000" /> 
<circle cx="201.1650" cy="83.3300" r="1.6000" /> 
</g>
<g style="fill:#000000; fill-opacity:1.0000; stroke:none;">
<circle cx="201.1650" cy="40.3300" r="1.6000" /> 
</g>
<g style="fill:#000000; fill-opacity:1.0000; stroke:none;">
<circle cx="126.1650" cy="83.3300" r="1.6000" /> 
<path style="fill:#000000; fill-opacity:1.0000; stroke:none;fill-rule:evenodd;"
d="M 193.2550,75.1100
193.2550,76.9100
191.4550,76.9100
191.4550,75.1100
Z" /> 
</g>
<g style="fill:#000000; fill-opacity:1.0000; stroke:none;">
<circle cx="189.8150" cy="76.0100" r="0.9000" /> 
</g>
<g style="fill:#000000; fill-opacity:1.0000; stroke:none;">
<circle cx="183.7450" cy="58.3950" r="0.8000" /> 
</g>
<g style="fill:#000000; fill-opacity:1.0000; stroke:none;">
<circle cx="173.5850" cy="58.3950" r="0.8000" /> 
<path style="fill:#000000; fill-opacity:1.0000; stroke:none;fill-rule:evenodd;"
d="M 198.9900,55.9300
198.9900,57.6300
197.2900,57.6300
197.2900,55.9300
Z" /> 
<circle cx="198.1400" cy="59.3200" r="0.8500" /> 
<circle cx="198.1400" cy="61.8600" r="0.8500" /> 
<circle cx="198.1400" cy="64.4000" r="0.8500" /> 
<circle cx="198.1400" cy="66.9400" r="0.8500" /> 
<path style="fill:#000000; fill-opacity:1.0000; stroke:none;fill-rule:evenodd;"
d="M 128.4900,55.9300
128.4900,57.6300
126.7900,57.6300
126.7900,55.9300
Z" /> 
<circle cx="127.6400" cy="59.3200" r="0.8500" /> 
<circle cx="127.6400" cy="61.8600" r="0.8500" /> 
<circle cx="127.6400" cy="64.4000" r="0.8500" /> 
<circle cx="127.6400" cy="66.9400" r="0.8500" /> 
<path style="fill:none; 
stroke:#000000; stroke-width:0.0500; stroke-opacity:1; 
stroke-linecap:round; stroke-linejoin:round;fill:none"
d="M 122.6650,36.8300
204.6650,36.8300
204.6650,86.8300
122.6650,86.8300
Z" /> 
</g> 
</svg>
