M48
; DRILL file {KiCad 8.0.5} date 2025-02-08T21:50:06+0800
; FORMAT={-:-/ absolute / metric / decimal}
; #@! TF.CreationDate,2025-02-08T21:50:06+08:00
; #@! TF.GenerationSoftware,Kicad,Pcbnew,8.0.5
; #@! TF.FileFunction,Plated,1,2,PTH
FMAT,2
METRIC
; #@! TA.AperFunction,Plated,PTH,ComponentDrill
T1C0.800
; #@! TA.AperFunction,Plated,PTH,ComponentDrill
T2C0.900
; #@! TA.AperFunction,Plated,PTH,ComponentDrill
T3C1.000
; #@! TA.AperFunction,Plated,PTH,ComponentDrill
T4C1.200
%
G90
G05
T1
X131.085Y-46.06
X131.085Y-71.06
X141.245Y-46.06
X141.245Y-71.06
X143.585Y-58.395
X143.585Y-66.395
X153.745Y-58.395
X153.745Y-66.395
X158.585Y-67.445
X168.745Y-67.445
X173.585Y-58.395
X173.585Y-66.395
X183.745Y-58.395
X183.745Y-66.395
X186.085Y-46.06
X186.085Y-71.06
X196.245Y-46.06
X196.245Y-71.06
T2
X134.815Y-51.01
X134.815Y-76.01
X137.355Y-51.01
X137.355Y-76.01
X147.315Y-51.01
X147.315Y-76.01
X149.855Y-51.01
X149.855Y-76.01
X162.315Y-72.395
X164.855Y-72.395
X177.315Y-51.01
X177.315Y-76.01
X179.855Y-51.01
X179.855Y-76.01
X189.815Y-51.01
X189.815Y-76.01
X192.355Y-51.01
X192.355Y-76.01
T3
X127.64Y-56.78
X127.64Y-59.32
X127.64Y-61.86
X127.64Y-64.4
X127.64Y-66.94
X198.14Y-56.78
X198.14Y-59.32
X198.14Y-61.86
X198.14Y-64.4
X198.14Y-66.94
T4
X157.415Y-50.395
X157.415Y-55.395
X169.915Y-50.395
X169.915Y-55.395
M30
