%TF.GenerationSoftware,KiCad,Pcbnew,8.0.5*%
%TF.CreationDate,2025-02-08T22:31:55+08:00*%
%TF.ProjectId,arduino_solar_bikelight_2,61726475-696e-46f5-9f73-6f6c61725f62,rev?*%
%TF.SameCoordinates,Original*%
%TF.FileFunction,Legend,Top*%
%TF.FilePolarity,Positive*%
%FSLAX46Y46*%
G04 Gerber Fmt 4.6, Leading zero omitted, Abs format (unit mm)*
G04 Created by KiCad (PCBNEW 8.0.5) date 2025-02-08 22:31:55*
%MOMM*%
%LPD*%
G01*
G04 APERTURE LIST*
%ADD10C,0.150000*%
%ADD11C,0.120000*%
%TA.AperFunction,Profile*%
%ADD12C,0.050000*%
%TD*%
G04 APERTURE END LIST*
D10*
X163498333Y-70269819D02*
X163165000Y-69793628D01*
X162926905Y-70269819D02*
X162926905Y-69269819D01*
X162926905Y-69269819D02*
X163307857Y-69269819D01*
X163307857Y-69269819D02*
X163403095Y-69317438D01*
X163403095Y-69317438D02*
X163450714Y-69365057D01*
X163450714Y-69365057D02*
X163498333Y-69460295D01*
X163498333Y-69460295D02*
X163498333Y-69603152D01*
X163498333Y-69603152D02*
X163450714Y-69698390D01*
X163450714Y-69698390D02*
X163403095Y-69746009D01*
X163403095Y-69746009D02*
X163307857Y-69793628D01*
X163307857Y-69793628D02*
X162926905Y-69793628D01*
X163974524Y-70269819D02*
X164165000Y-70269819D01*
X164165000Y-70269819D02*
X164260238Y-70222200D01*
X164260238Y-70222200D02*
X164307857Y-70174580D01*
X164307857Y-70174580D02*
X164403095Y-70031723D01*
X164403095Y-70031723D02*
X164450714Y-69841247D01*
X164450714Y-69841247D02*
X164450714Y-69460295D01*
X164450714Y-69460295D02*
X164403095Y-69365057D01*
X164403095Y-69365057D02*
X164355476Y-69317438D01*
X164355476Y-69317438D02*
X164260238Y-69269819D01*
X164260238Y-69269819D02*
X164069762Y-69269819D01*
X164069762Y-69269819D02*
X163974524Y-69317438D01*
X163974524Y-69317438D02*
X163926905Y-69365057D01*
X163926905Y-69365057D02*
X163879286Y-69460295D01*
X163879286Y-69460295D02*
X163879286Y-69698390D01*
X163879286Y-69698390D02*
X163926905Y-69793628D01*
X163926905Y-69793628D02*
X163974524Y-69841247D01*
X163974524Y-69841247D02*
X164069762Y-69888866D01*
X164069762Y-69888866D02*
X164260238Y-69888866D01*
X164260238Y-69888866D02*
X164355476Y-69841247D01*
X164355476Y-69841247D02*
X164403095Y-69793628D01*
X164403095Y-69793628D02*
X164450714Y-69698390D01*
X147846905Y-55424819D02*
X147846905Y-54424819D01*
X147846905Y-54424819D02*
X148085000Y-54424819D01*
X148085000Y-54424819D02*
X148227857Y-54472438D01*
X148227857Y-54472438D02*
X148323095Y-54567676D01*
X148323095Y-54567676D02*
X148370714Y-54662914D01*
X148370714Y-54662914D02*
X148418333Y-54853390D01*
X148418333Y-54853390D02*
X148418333Y-54996247D01*
X148418333Y-54996247D02*
X148370714Y-55186723D01*
X148370714Y-55186723D02*
X148323095Y-55281961D01*
X148323095Y-55281961D02*
X148227857Y-55377200D01*
X148227857Y-55377200D02*
X148085000Y-55424819D01*
X148085000Y-55424819D02*
X147846905Y-55424819D01*
X149323095Y-54424819D02*
X148846905Y-54424819D01*
X148846905Y-54424819D02*
X148799286Y-54901009D01*
X148799286Y-54901009D02*
X148846905Y-54853390D01*
X148846905Y-54853390D02*
X148942143Y-54805771D01*
X148942143Y-54805771D02*
X149180238Y-54805771D01*
X149180238Y-54805771D02*
X149275476Y-54853390D01*
X149275476Y-54853390D02*
X149323095Y-54901009D01*
X149323095Y-54901009D02*
X149370714Y-54996247D01*
X149370714Y-54996247D02*
X149370714Y-55234342D01*
X149370714Y-55234342D02*
X149323095Y-55329580D01*
X149323095Y-55329580D02*
X149275476Y-55377200D01*
X149275476Y-55377200D02*
X149180238Y-55424819D01*
X149180238Y-55424819D02*
X148942143Y-55424819D01*
X148942143Y-55424819D02*
X148846905Y-55377200D01*
X148846905Y-55377200D02*
X148799286Y-55329580D01*
X177846905Y-80424819D02*
X177846905Y-79424819D01*
X177846905Y-79424819D02*
X178085000Y-79424819D01*
X178085000Y-79424819D02*
X178227857Y-79472438D01*
X178227857Y-79472438D02*
X178323095Y-79567676D01*
X178323095Y-79567676D02*
X178370714Y-79662914D01*
X178370714Y-79662914D02*
X178418333Y-79853390D01*
X178418333Y-79853390D02*
X178418333Y-79996247D01*
X178418333Y-79996247D02*
X178370714Y-80186723D01*
X178370714Y-80186723D02*
X178323095Y-80281961D01*
X178323095Y-80281961D02*
X178227857Y-80377200D01*
X178227857Y-80377200D02*
X178085000Y-80424819D01*
X178085000Y-80424819D02*
X177846905Y-80424819D01*
X178989762Y-79853390D02*
X178894524Y-79805771D01*
X178894524Y-79805771D02*
X178846905Y-79758152D01*
X178846905Y-79758152D02*
X178799286Y-79662914D01*
X178799286Y-79662914D02*
X178799286Y-79615295D01*
X178799286Y-79615295D02*
X178846905Y-79520057D01*
X178846905Y-79520057D02*
X178894524Y-79472438D01*
X178894524Y-79472438D02*
X178989762Y-79424819D01*
X178989762Y-79424819D02*
X179180238Y-79424819D01*
X179180238Y-79424819D02*
X179275476Y-79472438D01*
X179275476Y-79472438D02*
X179323095Y-79520057D01*
X179323095Y-79520057D02*
X179370714Y-79615295D01*
X179370714Y-79615295D02*
X179370714Y-79662914D01*
X179370714Y-79662914D02*
X179323095Y-79758152D01*
X179323095Y-79758152D02*
X179275476Y-79805771D01*
X179275476Y-79805771D02*
X179180238Y-79853390D01*
X179180238Y-79853390D02*
X178989762Y-79853390D01*
X178989762Y-79853390D02*
X178894524Y-79901009D01*
X178894524Y-79901009D02*
X178846905Y-79948628D01*
X178846905Y-79948628D02*
X178799286Y-80043866D01*
X178799286Y-80043866D02*
X178799286Y-80234342D01*
X178799286Y-80234342D02*
X178846905Y-80329580D01*
X178846905Y-80329580D02*
X178894524Y-80377200D01*
X178894524Y-80377200D02*
X178989762Y-80424819D01*
X178989762Y-80424819D02*
X179180238Y-80424819D01*
X179180238Y-80424819D02*
X179275476Y-80377200D01*
X179275476Y-80377200D02*
X179323095Y-80329580D01*
X179323095Y-80329580D02*
X179370714Y-80234342D01*
X179370714Y-80234342D02*
X179370714Y-80043866D01*
X179370714Y-80043866D02*
X179323095Y-79948628D01*
X179323095Y-79948628D02*
X179275476Y-79901009D01*
X179275476Y-79901009D02*
X179180238Y-79853390D01*
X190998333Y-73884819D02*
X190665000Y-73408628D01*
X190426905Y-73884819D02*
X190426905Y-72884819D01*
X190426905Y-72884819D02*
X190807857Y-72884819D01*
X190807857Y-72884819D02*
X190903095Y-72932438D01*
X190903095Y-72932438D02*
X190950714Y-72980057D01*
X190950714Y-72980057D02*
X190998333Y-73075295D01*
X190998333Y-73075295D02*
X190998333Y-73218152D01*
X190998333Y-73218152D02*
X190950714Y-73313390D01*
X190950714Y-73313390D02*
X190903095Y-73361009D01*
X190903095Y-73361009D02*
X190807857Y-73408628D01*
X190807857Y-73408628D02*
X190426905Y-73408628D01*
X191855476Y-73218152D02*
X191855476Y-73884819D01*
X191617381Y-72837200D02*
X191379286Y-73551485D01*
X191379286Y-73551485D02*
X191998333Y-73551485D01*
X135346905Y-55424819D02*
X135346905Y-54424819D01*
X135346905Y-54424819D02*
X135585000Y-54424819D01*
X135585000Y-54424819D02*
X135727857Y-54472438D01*
X135727857Y-54472438D02*
X135823095Y-54567676D01*
X135823095Y-54567676D02*
X135870714Y-54662914D01*
X135870714Y-54662914D02*
X135918333Y-54853390D01*
X135918333Y-54853390D02*
X135918333Y-54996247D01*
X135918333Y-54996247D02*
X135870714Y-55186723D01*
X135870714Y-55186723D02*
X135823095Y-55281961D01*
X135823095Y-55281961D02*
X135727857Y-55377200D01*
X135727857Y-55377200D02*
X135585000Y-55424819D01*
X135585000Y-55424819D02*
X135346905Y-55424819D01*
X136870714Y-55424819D02*
X136299286Y-55424819D01*
X136585000Y-55424819D02*
X136585000Y-54424819D01*
X136585000Y-54424819D02*
X136489762Y-54567676D01*
X136489762Y-54567676D02*
X136394524Y-54662914D01*
X136394524Y-54662914D02*
X136299286Y-54710533D01*
X148498333Y-69219819D02*
X148165000Y-68743628D01*
X147926905Y-69219819D02*
X147926905Y-68219819D01*
X147926905Y-68219819D02*
X148307857Y-68219819D01*
X148307857Y-68219819D02*
X148403095Y-68267438D01*
X148403095Y-68267438D02*
X148450714Y-68315057D01*
X148450714Y-68315057D02*
X148498333Y-68410295D01*
X148498333Y-68410295D02*
X148498333Y-68553152D01*
X148498333Y-68553152D02*
X148450714Y-68648390D01*
X148450714Y-68648390D02*
X148403095Y-68696009D01*
X148403095Y-68696009D02*
X148307857Y-68743628D01*
X148307857Y-68743628D02*
X147926905Y-68743628D01*
X148831667Y-68219819D02*
X149498333Y-68219819D01*
X149498333Y-68219819D02*
X149069762Y-69219819D01*
X162846905Y-76809819D02*
X162846905Y-75809819D01*
X162846905Y-75809819D02*
X163085000Y-75809819D01*
X163085000Y-75809819D02*
X163227857Y-75857438D01*
X163227857Y-75857438D02*
X163323095Y-75952676D01*
X163323095Y-75952676D02*
X163370714Y-76047914D01*
X163370714Y-76047914D02*
X163418333Y-76238390D01*
X163418333Y-76238390D02*
X163418333Y-76381247D01*
X163418333Y-76381247D02*
X163370714Y-76571723D01*
X163370714Y-76571723D02*
X163323095Y-76666961D01*
X163323095Y-76666961D02*
X163227857Y-76762200D01*
X163227857Y-76762200D02*
X163085000Y-76809819D01*
X163085000Y-76809819D02*
X162846905Y-76809819D01*
X163894524Y-76809819D02*
X164085000Y-76809819D01*
X164085000Y-76809819D02*
X164180238Y-76762200D01*
X164180238Y-76762200D02*
X164227857Y-76714580D01*
X164227857Y-76714580D02*
X164323095Y-76571723D01*
X164323095Y-76571723D02*
X164370714Y-76381247D01*
X164370714Y-76381247D02*
X164370714Y-76000295D01*
X164370714Y-76000295D02*
X164323095Y-75905057D01*
X164323095Y-75905057D02*
X164275476Y-75857438D01*
X164275476Y-75857438D02*
X164180238Y-75809819D01*
X164180238Y-75809819D02*
X163989762Y-75809819D01*
X163989762Y-75809819D02*
X163894524Y-75857438D01*
X163894524Y-75857438D02*
X163846905Y-75905057D01*
X163846905Y-75905057D02*
X163799286Y-76000295D01*
X163799286Y-76000295D02*
X163799286Y-76238390D01*
X163799286Y-76238390D02*
X163846905Y-76333628D01*
X163846905Y-76333628D02*
X163894524Y-76381247D01*
X163894524Y-76381247D02*
X163989762Y-76428866D01*
X163989762Y-76428866D02*
X164180238Y-76428866D01*
X164180238Y-76428866D02*
X164275476Y-76381247D01*
X164275476Y-76381247D02*
X164323095Y-76333628D01*
X164323095Y-76333628D02*
X164370714Y-76238390D01*
X190346905Y-55424819D02*
X190346905Y-54424819D01*
X190346905Y-54424819D02*
X190585000Y-54424819D01*
X190585000Y-54424819D02*
X190727857Y-54472438D01*
X190727857Y-54472438D02*
X190823095Y-54567676D01*
X190823095Y-54567676D02*
X190870714Y-54662914D01*
X190870714Y-54662914D02*
X190918333Y-54853390D01*
X190918333Y-54853390D02*
X190918333Y-54996247D01*
X190918333Y-54996247D02*
X190870714Y-55186723D01*
X190870714Y-55186723D02*
X190823095Y-55281961D01*
X190823095Y-55281961D02*
X190727857Y-55377200D01*
X190727857Y-55377200D02*
X190585000Y-55424819D01*
X190585000Y-55424819D02*
X190346905Y-55424819D01*
X191299286Y-54520057D02*
X191346905Y-54472438D01*
X191346905Y-54472438D02*
X191442143Y-54424819D01*
X191442143Y-54424819D02*
X191680238Y-54424819D01*
X191680238Y-54424819D02*
X191775476Y-54472438D01*
X191775476Y-54472438D02*
X191823095Y-54520057D01*
X191823095Y-54520057D02*
X191870714Y-54615295D01*
X191870714Y-54615295D02*
X191870714Y-54710533D01*
X191870714Y-54710533D02*
X191823095Y-54853390D01*
X191823095Y-54853390D02*
X191251667Y-55424819D01*
X191251667Y-55424819D02*
X191870714Y-55424819D01*
X135998333Y-48884819D02*
X135665000Y-48408628D01*
X135426905Y-48884819D02*
X135426905Y-47884819D01*
X135426905Y-47884819D02*
X135807857Y-47884819D01*
X135807857Y-47884819D02*
X135903095Y-47932438D01*
X135903095Y-47932438D02*
X135950714Y-47980057D01*
X135950714Y-47980057D02*
X135998333Y-48075295D01*
X135998333Y-48075295D02*
X135998333Y-48218152D01*
X135998333Y-48218152D02*
X135950714Y-48313390D01*
X135950714Y-48313390D02*
X135903095Y-48361009D01*
X135903095Y-48361009D02*
X135807857Y-48408628D01*
X135807857Y-48408628D02*
X135426905Y-48408628D01*
X136950714Y-48884819D02*
X136379286Y-48884819D01*
X136665000Y-48884819D02*
X136665000Y-47884819D01*
X136665000Y-47884819D02*
X136569762Y-48027676D01*
X136569762Y-48027676D02*
X136474524Y-48122914D01*
X136474524Y-48122914D02*
X136379286Y-48170533D01*
X135346905Y-80424819D02*
X135346905Y-79424819D01*
X135346905Y-79424819D02*
X135585000Y-79424819D01*
X135585000Y-79424819D02*
X135727857Y-79472438D01*
X135727857Y-79472438D02*
X135823095Y-79567676D01*
X135823095Y-79567676D02*
X135870714Y-79662914D01*
X135870714Y-79662914D02*
X135918333Y-79853390D01*
X135918333Y-79853390D02*
X135918333Y-79996247D01*
X135918333Y-79996247D02*
X135870714Y-80186723D01*
X135870714Y-80186723D02*
X135823095Y-80281961D01*
X135823095Y-80281961D02*
X135727857Y-80377200D01*
X135727857Y-80377200D02*
X135585000Y-80424819D01*
X135585000Y-80424819D02*
X135346905Y-80424819D01*
X136251667Y-79424819D02*
X136870714Y-79424819D01*
X136870714Y-79424819D02*
X136537381Y-79805771D01*
X136537381Y-79805771D02*
X136680238Y-79805771D01*
X136680238Y-79805771D02*
X136775476Y-79853390D01*
X136775476Y-79853390D02*
X136823095Y-79901009D01*
X136823095Y-79901009D02*
X136870714Y-79996247D01*
X136870714Y-79996247D02*
X136870714Y-80234342D01*
X136870714Y-80234342D02*
X136823095Y-80329580D01*
X136823095Y-80329580D02*
X136775476Y-80377200D01*
X136775476Y-80377200D02*
X136680238Y-80424819D01*
X136680238Y-80424819D02*
X136394524Y-80424819D01*
X136394524Y-80424819D02*
X136299286Y-80377200D01*
X136299286Y-80377200D02*
X136251667Y-80329580D01*
X147846905Y-80424819D02*
X147846905Y-79424819D01*
X147846905Y-79424819D02*
X148085000Y-79424819D01*
X148085000Y-79424819D02*
X148227857Y-79472438D01*
X148227857Y-79472438D02*
X148323095Y-79567676D01*
X148323095Y-79567676D02*
X148370714Y-79662914D01*
X148370714Y-79662914D02*
X148418333Y-79853390D01*
X148418333Y-79853390D02*
X148418333Y-79996247D01*
X148418333Y-79996247D02*
X148370714Y-80186723D01*
X148370714Y-80186723D02*
X148323095Y-80281961D01*
X148323095Y-80281961D02*
X148227857Y-80377200D01*
X148227857Y-80377200D02*
X148085000Y-80424819D01*
X148085000Y-80424819D02*
X147846905Y-80424819D01*
X148751667Y-79424819D02*
X149418333Y-79424819D01*
X149418333Y-79424819D02*
X148989762Y-80424819D01*
X135998333Y-73884819D02*
X135665000Y-73408628D01*
X135426905Y-73884819D02*
X135426905Y-72884819D01*
X135426905Y-72884819D02*
X135807857Y-72884819D01*
X135807857Y-72884819D02*
X135903095Y-72932438D01*
X135903095Y-72932438D02*
X135950714Y-72980057D01*
X135950714Y-72980057D02*
X135998333Y-73075295D01*
X135998333Y-73075295D02*
X135998333Y-73218152D01*
X135998333Y-73218152D02*
X135950714Y-73313390D01*
X135950714Y-73313390D02*
X135903095Y-73361009D01*
X135903095Y-73361009D02*
X135807857Y-73408628D01*
X135807857Y-73408628D02*
X135426905Y-73408628D01*
X136331667Y-72884819D02*
X136950714Y-72884819D01*
X136950714Y-72884819D02*
X136617381Y-73265771D01*
X136617381Y-73265771D02*
X136760238Y-73265771D01*
X136760238Y-73265771D02*
X136855476Y-73313390D01*
X136855476Y-73313390D02*
X136903095Y-73361009D01*
X136903095Y-73361009D02*
X136950714Y-73456247D01*
X136950714Y-73456247D02*
X136950714Y-73694342D01*
X136950714Y-73694342D02*
X136903095Y-73789580D01*
X136903095Y-73789580D02*
X136855476Y-73837200D01*
X136855476Y-73837200D02*
X136760238Y-73884819D01*
X136760238Y-73884819D02*
X136474524Y-73884819D01*
X136474524Y-73884819D02*
X136379286Y-73837200D01*
X136379286Y-73837200D02*
X136331667Y-73789580D01*
X162331667Y-45002200D02*
X162474524Y-45049819D01*
X162474524Y-45049819D02*
X162712619Y-45049819D01*
X162712619Y-45049819D02*
X162807857Y-45002200D01*
X162807857Y-45002200D02*
X162855476Y-44954580D01*
X162855476Y-44954580D02*
X162903095Y-44859342D01*
X162903095Y-44859342D02*
X162903095Y-44764104D01*
X162903095Y-44764104D02*
X162855476Y-44668866D01*
X162855476Y-44668866D02*
X162807857Y-44621247D01*
X162807857Y-44621247D02*
X162712619Y-44573628D01*
X162712619Y-44573628D02*
X162522143Y-44526009D01*
X162522143Y-44526009D02*
X162426905Y-44478390D01*
X162426905Y-44478390D02*
X162379286Y-44430771D01*
X162379286Y-44430771D02*
X162331667Y-44335533D01*
X162331667Y-44335533D02*
X162331667Y-44240295D01*
X162331667Y-44240295D02*
X162379286Y-44145057D01*
X162379286Y-44145057D02*
X162426905Y-44097438D01*
X162426905Y-44097438D02*
X162522143Y-44049819D01*
X162522143Y-44049819D02*
X162760238Y-44049819D01*
X162760238Y-44049819D02*
X162903095Y-44097438D01*
X163236429Y-44049819D02*
X163474524Y-45049819D01*
X163474524Y-45049819D02*
X163665000Y-44335533D01*
X163665000Y-44335533D02*
X163855476Y-45049819D01*
X163855476Y-45049819D02*
X164093572Y-44049819D01*
X164998333Y-45049819D02*
X164426905Y-45049819D01*
X164712619Y-45049819D02*
X164712619Y-44049819D01*
X164712619Y-44049819D02*
X164617381Y-44192676D01*
X164617381Y-44192676D02*
X164522143Y-44287914D01*
X164522143Y-44287914D02*
X164426905Y-44335533D01*
X178498333Y-69219819D02*
X178165000Y-68743628D01*
X177926905Y-69219819D02*
X177926905Y-68219819D01*
X177926905Y-68219819D02*
X178307857Y-68219819D01*
X178307857Y-68219819D02*
X178403095Y-68267438D01*
X178403095Y-68267438D02*
X178450714Y-68315057D01*
X178450714Y-68315057D02*
X178498333Y-68410295D01*
X178498333Y-68410295D02*
X178498333Y-68553152D01*
X178498333Y-68553152D02*
X178450714Y-68648390D01*
X178450714Y-68648390D02*
X178403095Y-68696009D01*
X178403095Y-68696009D02*
X178307857Y-68743628D01*
X178307857Y-68743628D02*
X177926905Y-68743628D01*
X179069762Y-68648390D02*
X178974524Y-68600771D01*
X178974524Y-68600771D02*
X178926905Y-68553152D01*
X178926905Y-68553152D02*
X178879286Y-68457914D01*
X178879286Y-68457914D02*
X178879286Y-68410295D01*
X178879286Y-68410295D02*
X178926905Y-68315057D01*
X178926905Y-68315057D02*
X178974524Y-68267438D01*
X178974524Y-68267438D02*
X179069762Y-68219819D01*
X179069762Y-68219819D02*
X179260238Y-68219819D01*
X179260238Y-68219819D02*
X179355476Y-68267438D01*
X179355476Y-68267438D02*
X179403095Y-68315057D01*
X179403095Y-68315057D02*
X179450714Y-68410295D01*
X179450714Y-68410295D02*
X179450714Y-68457914D01*
X179450714Y-68457914D02*
X179403095Y-68553152D01*
X179403095Y-68553152D02*
X179355476Y-68600771D01*
X179355476Y-68600771D02*
X179260238Y-68648390D01*
X179260238Y-68648390D02*
X179069762Y-68648390D01*
X179069762Y-68648390D02*
X178974524Y-68696009D01*
X178974524Y-68696009D02*
X178926905Y-68743628D01*
X178926905Y-68743628D02*
X178879286Y-68838866D01*
X178879286Y-68838866D02*
X178879286Y-69029342D01*
X178879286Y-69029342D02*
X178926905Y-69124580D01*
X178926905Y-69124580D02*
X178974524Y-69172200D01*
X178974524Y-69172200D02*
X179069762Y-69219819D01*
X179069762Y-69219819D02*
X179260238Y-69219819D01*
X179260238Y-69219819D02*
X179355476Y-69172200D01*
X179355476Y-69172200D02*
X179403095Y-69124580D01*
X179403095Y-69124580D02*
X179450714Y-69029342D01*
X179450714Y-69029342D02*
X179450714Y-68838866D01*
X179450714Y-68838866D02*
X179403095Y-68743628D01*
X179403095Y-68743628D02*
X179355476Y-68696009D01*
X179355476Y-68696009D02*
X179260238Y-68648390D01*
X190998333Y-48884819D02*
X190665000Y-48408628D01*
X190426905Y-48884819D02*
X190426905Y-47884819D01*
X190426905Y-47884819D02*
X190807857Y-47884819D01*
X190807857Y-47884819D02*
X190903095Y-47932438D01*
X190903095Y-47932438D02*
X190950714Y-47980057D01*
X190950714Y-47980057D02*
X190998333Y-48075295D01*
X190998333Y-48075295D02*
X190998333Y-48218152D01*
X190998333Y-48218152D02*
X190950714Y-48313390D01*
X190950714Y-48313390D02*
X190903095Y-48361009D01*
X190903095Y-48361009D02*
X190807857Y-48408628D01*
X190807857Y-48408628D02*
X190426905Y-48408628D01*
X191379286Y-47980057D02*
X191426905Y-47932438D01*
X191426905Y-47932438D02*
X191522143Y-47884819D01*
X191522143Y-47884819D02*
X191760238Y-47884819D01*
X191760238Y-47884819D02*
X191855476Y-47932438D01*
X191855476Y-47932438D02*
X191903095Y-47980057D01*
X191903095Y-47980057D02*
X191950714Y-48075295D01*
X191950714Y-48075295D02*
X191950714Y-48170533D01*
X191950714Y-48170533D02*
X191903095Y-48313390D01*
X191903095Y-48313390D02*
X191331667Y-48884819D01*
X191331667Y-48884819D02*
X191950714Y-48884819D01*
X177846905Y-55424819D02*
X177846905Y-54424819D01*
X177846905Y-54424819D02*
X178085000Y-54424819D01*
X178085000Y-54424819D02*
X178227857Y-54472438D01*
X178227857Y-54472438D02*
X178323095Y-54567676D01*
X178323095Y-54567676D02*
X178370714Y-54662914D01*
X178370714Y-54662914D02*
X178418333Y-54853390D01*
X178418333Y-54853390D02*
X178418333Y-54996247D01*
X178418333Y-54996247D02*
X178370714Y-55186723D01*
X178370714Y-55186723D02*
X178323095Y-55281961D01*
X178323095Y-55281961D02*
X178227857Y-55377200D01*
X178227857Y-55377200D02*
X178085000Y-55424819D01*
X178085000Y-55424819D02*
X177846905Y-55424819D01*
X179275476Y-54424819D02*
X179085000Y-54424819D01*
X179085000Y-54424819D02*
X178989762Y-54472438D01*
X178989762Y-54472438D02*
X178942143Y-54520057D01*
X178942143Y-54520057D02*
X178846905Y-54662914D01*
X178846905Y-54662914D02*
X178799286Y-54853390D01*
X178799286Y-54853390D02*
X178799286Y-55234342D01*
X178799286Y-55234342D02*
X178846905Y-55329580D01*
X178846905Y-55329580D02*
X178894524Y-55377200D01*
X178894524Y-55377200D02*
X178989762Y-55424819D01*
X178989762Y-55424819D02*
X179180238Y-55424819D01*
X179180238Y-55424819D02*
X179275476Y-55377200D01*
X179275476Y-55377200D02*
X179323095Y-55329580D01*
X179323095Y-55329580D02*
X179370714Y-55234342D01*
X179370714Y-55234342D02*
X179370714Y-54996247D01*
X179370714Y-54996247D02*
X179323095Y-54901009D01*
X179323095Y-54901009D02*
X179275476Y-54853390D01*
X179275476Y-54853390D02*
X179180238Y-54805771D01*
X179180238Y-54805771D02*
X178989762Y-54805771D01*
X178989762Y-54805771D02*
X178894524Y-54853390D01*
X178894524Y-54853390D02*
X178846905Y-54901009D01*
X178846905Y-54901009D02*
X178799286Y-54996247D01*
X148498333Y-61219819D02*
X148165000Y-60743628D01*
X147926905Y-61219819D02*
X147926905Y-60219819D01*
X147926905Y-60219819D02*
X148307857Y-60219819D01*
X148307857Y-60219819D02*
X148403095Y-60267438D01*
X148403095Y-60267438D02*
X148450714Y-60315057D01*
X148450714Y-60315057D02*
X148498333Y-60410295D01*
X148498333Y-60410295D02*
X148498333Y-60553152D01*
X148498333Y-60553152D02*
X148450714Y-60648390D01*
X148450714Y-60648390D02*
X148403095Y-60696009D01*
X148403095Y-60696009D02*
X148307857Y-60743628D01*
X148307857Y-60743628D02*
X147926905Y-60743628D01*
X149403095Y-60219819D02*
X148926905Y-60219819D01*
X148926905Y-60219819D02*
X148879286Y-60696009D01*
X148879286Y-60696009D02*
X148926905Y-60648390D01*
X148926905Y-60648390D02*
X149022143Y-60600771D01*
X149022143Y-60600771D02*
X149260238Y-60600771D01*
X149260238Y-60600771D02*
X149355476Y-60648390D01*
X149355476Y-60648390D02*
X149403095Y-60696009D01*
X149403095Y-60696009D02*
X149450714Y-60791247D01*
X149450714Y-60791247D02*
X149450714Y-61029342D01*
X149450714Y-61029342D02*
X149403095Y-61124580D01*
X149403095Y-61124580D02*
X149355476Y-61172200D01*
X149355476Y-61172200D02*
X149260238Y-61219819D01*
X149260238Y-61219819D02*
X149022143Y-61219819D01*
X149022143Y-61219819D02*
X148926905Y-61172200D01*
X148926905Y-61172200D02*
X148879286Y-61124580D01*
X190346905Y-80424819D02*
X190346905Y-79424819D01*
X190346905Y-79424819D02*
X190585000Y-79424819D01*
X190585000Y-79424819D02*
X190727857Y-79472438D01*
X190727857Y-79472438D02*
X190823095Y-79567676D01*
X190823095Y-79567676D02*
X190870714Y-79662914D01*
X190870714Y-79662914D02*
X190918333Y-79853390D01*
X190918333Y-79853390D02*
X190918333Y-79996247D01*
X190918333Y-79996247D02*
X190870714Y-80186723D01*
X190870714Y-80186723D02*
X190823095Y-80281961D01*
X190823095Y-80281961D02*
X190727857Y-80377200D01*
X190727857Y-80377200D02*
X190585000Y-80424819D01*
X190585000Y-80424819D02*
X190346905Y-80424819D01*
X191775476Y-79758152D02*
X191775476Y-80424819D01*
X191537381Y-79377200D02*
X191299286Y-80091485D01*
X191299286Y-80091485D02*
X191918333Y-80091485D01*
X178498333Y-61219819D02*
X178165000Y-60743628D01*
X177926905Y-61219819D02*
X177926905Y-60219819D01*
X177926905Y-60219819D02*
X178307857Y-60219819D01*
X178307857Y-60219819D02*
X178403095Y-60267438D01*
X178403095Y-60267438D02*
X178450714Y-60315057D01*
X178450714Y-60315057D02*
X178498333Y-60410295D01*
X178498333Y-60410295D02*
X178498333Y-60553152D01*
X178498333Y-60553152D02*
X178450714Y-60648390D01*
X178450714Y-60648390D02*
X178403095Y-60696009D01*
X178403095Y-60696009D02*
X178307857Y-60743628D01*
X178307857Y-60743628D02*
X177926905Y-60743628D01*
X179355476Y-60219819D02*
X179165000Y-60219819D01*
X179165000Y-60219819D02*
X179069762Y-60267438D01*
X179069762Y-60267438D02*
X179022143Y-60315057D01*
X179022143Y-60315057D02*
X178926905Y-60457914D01*
X178926905Y-60457914D02*
X178879286Y-60648390D01*
X178879286Y-60648390D02*
X178879286Y-61029342D01*
X178879286Y-61029342D02*
X178926905Y-61124580D01*
X178926905Y-61124580D02*
X178974524Y-61172200D01*
X178974524Y-61172200D02*
X179069762Y-61219819D01*
X179069762Y-61219819D02*
X179260238Y-61219819D01*
X179260238Y-61219819D02*
X179355476Y-61172200D01*
X179355476Y-61172200D02*
X179403095Y-61124580D01*
X179403095Y-61124580D02*
X179450714Y-61029342D01*
X179450714Y-61029342D02*
X179450714Y-60791247D01*
X179450714Y-60791247D02*
X179403095Y-60696009D01*
X179403095Y-60696009D02*
X179355476Y-60648390D01*
X179355476Y-60648390D02*
X179260238Y-60600771D01*
X179260238Y-60600771D02*
X179069762Y-60600771D01*
X179069762Y-60600771D02*
X178974524Y-60648390D01*
X178974524Y-60648390D02*
X178926905Y-60696009D01*
X178926905Y-60696009D02*
X178879286Y-60791247D01*
D11*
%TO.C,R9*%
X159625000Y-67445000D02*
X160395000Y-67445000D01*
X160395000Y-66075000D02*
X160395000Y-68815000D01*
X160395000Y-68815000D02*
X166935000Y-68815000D01*
X166935000Y-66075000D02*
X160395000Y-66075000D01*
X166935000Y-68815000D02*
X166935000Y-66075000D01*
X167705000Y-67445000D02*
X166935000Y-67445000D01*
%TO.C,D5*%
X151145000Y-52555000D02*
X151145000Y-49465000D01*
X145595000Y-51010462D02*
G75*
G02*
X151145000Y-49465170I2990000J462D01*
G01*
X151145000Y-52554830D02*
G75*
G02*
X145595000Y-51009538I-2560000J1544830D01*
G01*
X151085000Y-51010000D02*
G75*
G02*
X146085000Y-51010000I-2500000J0D01*
G01*
X146085000Y-51010000D02*
G75*
G02*
X151085000Y-51010000I2500000J0D01*
G01*
%TO.C,D8*%
X181145000Y-77555000D02*
X181145000Y-74465000D01*
X175595000Y-76010462D02*
G75*
G02*
X181145000Y-74465170I2990000J462D01*
G01*
X181145000Y-77554830D02*
G75*
G02*
X175595000Y-76009538I-2560000J1544830D01*
G01*
X181085000Y-76010000D02*
G75*
G02*
X176085000Y-76010000I-2500000J0D01*
G01*
X176085000Y-76010000D02*
G75*
G02*
X181085000Y-76010000I2500000J0D01*
G01*
%TO.C,R4*%
X187125000Y-71060000D02*
X187895000Y-71060000D01*
X187895000Y-69690000D02*
X187895000Y-72430000D01*
X187895000Y-72430000D02*
X194435000Y-72430000D01*
X194435000Y-69690000D02*
X187895000Y-69690000D01*
X194435000Y-72430000D02*
X194435000Y-69690000D01*
X195205000Y-71060000D02*
X194435000Y-71060000D01*
%TO.C,D1*%
X138645000Y-52555000D02*
X138645000Y-49465000D01*
X133095000Y-51010462D02*
G75*
G02*
X138645000Y-49465170I2990000J462D01*
G01*
X138645000Y-52554830D02*
G75*
G02*
X133095000Y-51009538I-2560000J1544830D01*
G01*
X138585000Y-51010000D02*
G75*
G02*
X133585000Y-51010000I-2500000J0D01*
G01*
X133585000Y-51010000D02*
G75*
G02*
X138585000Y-51010000I2500000J0D01*
G01*
%TO.C,R7*%
X144625000Y-66395000D02*
X145395000Y-66395000D01*
X145395000Y-65025000D02*
X145395000Y-67765000D01*
X145395000Y-67765000D02*
X151935000Y-67765000D01*
X151935000Y-65025000D02*
X145395000Y-65025000D01*
X151935000Y-67765000D02*
X151935000Y-65025000D01*
X152705000Y-66395000D02*
X151935000Y-66395000D01*
%TO.C,D9*%
X166145000Y-73940000D02*
X166145000Y-70850000D01*
X160595000Y-72395462D02*
G75*
G02*
X166145000Y-70850170I2990000J462D01*
G01*
X166145000Y-73939830D02*
G75*
G02*
X160595000Y-72394538I-2560000J1544830D01*
G01*
X166085000Y-72395000D02*
G75*
G02*
X161085000Y-72395000I-2500000J0D01*
G01*
X161085000Y-72395000D02*
G75*
G02*
X166085000Y-72395000I2500000J0D01*
G01*
%TO.C,D2*%
X193645000Y-52555000D02*
X193645000Y-49465000D01*
X188095000Y-51010462D02*
G75*
G02*
X193645000Y-49465170I2990000J462D01*
G01*
X193645000Y-52554830D02*
G75*
G02*
X188095000Y-51009538I-2560000J1544830D01*
G01*
X193585000Y-51010000D02*
G75*
G02*
X188585000Y-51010000I-2500000J0D01*
G01*
X188585000Y-51010000D02*
G75*
G02*
X193585000Y-51010000I2500000J0D01*
G01*
%TO.C,R1*%
X132125000Y-46060000D02*
X132895000Y-46060000D01*
X132895000Y-44690000D02*
X132895000Y-47430000D01*
X132895000Y-47430000D02*
X139435000Y-47430000D01*
X139435000Y-44690000D02*
X132895000Y-44690000D01*
X139435000Y-47430000D02*
X139435000Y-44690000D01*
X140205000Y-46060000D02*
X139435000Y-46060000D01*
%TO.C,D3*%
X138645000Y-77555000D02*
X138645000Y-74465000D01*
X133095000Y-76010462D02*
G75*
G02*
X138645000Y-74465170I2990000J462D01*
G01*
X138645000Y-77554830D02*
G75*
G02*
X133095000Y-76009538I-2560000J1544830D01*
G01*
X138585000Y-76010000D02*
G75*
G02*
X133585000Y-76010000I-2500000J0D01*
G01*
X133585000Y-76010000D02*
G75*
G02*
X138585000Y-76010000I2500000J0D01*
G01*
%TO.C,D7*%
X151145000Y-77555000D02*
X151145000Y-74465000D01*
X145595000Y-76010462D02*
G75*
G02*
X151145000Y-74465170I2990000J462D01*
G01*
X151145000Y-77554830D02*
G75*
G02*
X145595000Y-76009538I-2560000J1544830D01*
G01*
X151085000Y-76010000D02*
G75*
G02*
X146085000Y-76010000I-2500000J0D01*
G01*
X146085000Y-76010000D02*
G75*
G02*
X151085000Y-76010000I2500000J0D01*
G01*
%TO.C,R3*%
X132125000Y-71060000D02*
X132895000Y-71060000D01*
X132895000Y-69690000D02*
X132895000Y-72430000D01*
X132895000Y-72430000D02*
X139435000Y-72430000D01*
X139435000Y-69690000D02*
X132895000Y-69690000D01*
X139435000Y-72430000D02*
X139435000Y-69690000D01*
X140205000Y-71060000D02*
X139435000Y-71060000D01*
%TO.C,SW1*%
X157555000Y-46785000D02*
X157555000Y-49295000D01*
X157555000Y-46785000D02*
X169775000Y-46785000D01*
X157555000Y-51595000D02*
X157555000Y-54195000D01*
X157555000Y-56495000D02*
X157555000Y-59005000D01*
X169775000Y-46785000D02*
X169775000Y-49295000D01*
X169775000Y-51595000D02*
X169775000Y-54195000D01*
X169775000Y-56495000D02*
X169775000Y-59005000D01*
X169775000Y-59005000D02*
X157555000Y-59005000D01*
%TO.C,R8*%
X174625000Y-66395000D02*
X175395000Y-66395000D01*
X175395000Y-65025000D02*
X175395000Y-67765000D01*
X175395000Y-67765000D02*
X181935000Y-67765000D01*
X181935000Y-65025000D02*
X175395000Y-65025000D01*
X181935000Y-67765000D02*
X181935000Y-65025000D01*
X182705000Y-66395000D02*
X181935000Y-66395000D01*
%TO.C,R2*%
X187125000Y-46060000D02*
X187895000Y-46060000D01*
X187895000Y-44690000D02*
X187895000Y-47430000D01*
X187895000Y-47430000D02*
X194435000Y-47430000D01*
X194435000Y-44690000D02*
X187895000Y-44690000D01*
X194435000Y-47430000D02*
X194435000Y-44690000D01*
X195205000Y-46060000D02*
X194435000Y-46060000D01*
%TO.C,D6*%
X181145000Y-52555000D02*
X181145000Y-49465000D01*
X175595000Y-51010462D02*
G75*
G02*
X181145000Y-49465170I2990000J462D01*
G01*
X181145000Y-52554830D02*
G75*
G02*
X175595000Y-51009538I-2560000J1544830D01*
G01*
X181085000Y-51010000D02*
G75*
G02*
X176085000Y-51010000I-2500000J0D01*
G01*
X176085000Y-51010000D02*
G75*
G02*
X181085000Y-51010000I2500000J0D01*
G01*
%TO.C,R5*%
X144625000Y-58395000D02*
X145395000Y-58395000D01*
X145395000Y-57025000D02*
X145395000Y-59765000D01*
X145395000Y-59765000D02*
X151935000Y-59765000D01*
X151935000Y-57025000D02*
X145395000Y-57025000D01*
X151935000Y-59765000D02*
X151935000Y-57025000D01*
X152705000Y-58395000D02*
X151935000Y-58395000D01*
%TO.C,D4*%
X193645000Y-77555000D02*
X193645000Y-74465000D01*
X188095000Y-76010462D02*
G75*
G02*
X193645000Y-74465170I2990000J462D01*
G01*
X193645000Y-77554830D02*
G75*
G02*
X188095000Y-76009538I-2560000J1544830D01*
G01*
X193585000Y-76010000D02*
G75*
G02*
X188585000Y-76010000I-2500000J0D01*
G01*
X188585000Y-76010000D02*
G75*
G02*
X193585000Y-76010000I2500000J0D01*
G01*
%TO.C,R6*%
X174625000Y-58395000D02*
X175395000Y-58395000D01*
X175395000Y-57025000D02*
X175395000Y-59765000D01*
X175395000Y-59765000D02*
X181935000Y-59765000D01*
X181935000Y-57025000D02*
X175395000Y-57025000D01*
X181935000Y-59765000D02*
X181935000Y-57025000D01*
X182705000Y-58395000D02*
X181935000Y-58395000D01*
%TD*%
D12*
X122665000Y-36830000D02*
X204665000Y-36830000D01*
X204665000Y-86830000D01*
X122665000Y-86830000D01*
X122665000Y-36830000D01*
M02*
