<?xml version="1.0" standalone="no"?>
 <!DOCTYPE svg PUBLIC "-//W3C//DTD SVG 1.1//EN" 
 "http://www.w3.org/Graphics/SVG/1.1/DTD/svg11.dtd"> 
<svg
  xmlns:svg="http://www.w3.org/2000/svg"
  xmlns="http://www.w3.org/2000/svg"
  xmlns:xlink="http://www.w3.org/1999/xlink"
  version="1.1"
  width="297.0022mm" height="210.0072mm" viewBox="0.0000 0.0000 297.0022 210.0072">
<title>SVG Image created as arduino_solar_bikelight_2-B_Silkscreen.svg date 2025/02/08 22:32:36 </title>
  <desc>Image generated by PCBNEW </desc>
<g style="fill:#000000; fill-opacity:1.0000;stroke:#000000; stroke-opacity:1.0000;
stroke-linecap:round; stroke-linejoin:round;"
 transform="translate(0 0) scale(1 1)">
</g>
<g style="fill:none; 
stroke:#000000; stroke-width:0.1500; stroke-opacity:1; 
stroke-linecap:round; stroke-linejoin:round;">
<text x="198.1400" y="54.5100"
transform="scale(-1 1) translate(-396.280000 0)"
textLength="1.9643" font-size="1.3333" lengthAdjust="spacingAndGlyphs"
text-anchor="middle" opacity="0" stroke-opacity="0">J1</text>
<g class="stroked-text"><desc>J1</desc>
<path d="M198.4733 53.4648
L198.4733 54.1791
" />
<path d="M198.4733 54.1791
L198.5210 54.3220
" />
<path d="M198.5210 54.3220
L198.6162 54.4172
" />
<path d="M198.6162 54.4172
L198.7590 54.4648
" />
<path d="M198.7590 54.4648
L198.8543 54.4648
" />
<path d="M197.4733 54.4648
L198.0448 54.4648
" />
<path d="M197.7590 54.4648
L197.7590 53.4648
" />
<path d="M197.7590 53.4648
L197.8543 53.6077
" />
<path d="M197.8543 53.6077
L197.9495 53.7029
" />
<path d="M197.9495 53.7029
L198.0448 53.7505
" />
</g><text x="127.6400" y="54.5100"
transform="scale(-1 1) translate(-255.280000 0)"
textLength="1.9643" font-size="1.3333" lengthAdjust="spacingAndGlyphs"
text-anchor="middle" opacity="0" stroke-opacity="0">J2</text>
<g class="stroked-text"><desc>J2</desc>
<path d="M127.9733 53.4648
L127.9733 54.1791
" />
<path d="M127.9733 54.1791
L128.0210 54.3220
" />
<path d="M128.0210 54.3220
L128.1162 54.4172
" />
<path d="M128.1162 54.4172
L128.2590 54.4648
" />
<path d="M128.2590 54.4648
L128.3543 54.4648
" />
<path d="M127.5448 53.5601
L127.4971 53.5124
" />
<path d="M127.4971 53.5124
L127.4019 53.4648
" />
<path d="M127.4019 53.4648
L127.1638 53.4648
" />
<path d="M127.1638 53.4648
L127.0686 53.5124
" />
<path d="M127.0686 53.5124
L127.0210 53.5601
" />
<path d="M127.0210 53.5601
L126.9733 53.6553
" />
<path d="M126.9733 53.6553
L126.9733 53.7505
" />
<path d="M126.9733 53.7505
L127.0210 53.8934
" />
<path d="M127.0210 53.8934
L127.5924 54.4648
" />
<path d="M127.5924 54.4648
L126.9733 54.4648
" />
</g></g>
<g style="fill:none; 
stroke:#000000; stroke-width:0.1200; stroke-opacity:1; 
stroke-linecap:round; stroke-linejoin:round;">
<path d="M196.8100 55.4500
L198.1400 55.4500
" />
<path d="M196.8100 56.7800
L196.8100 55.4500
" />
<path d="M196.8100 58.0500
L199.4700 58.0500
" />
<path d="M196.8100 68.2700
L196.8100 58.0500
" />
<path d="M196.8100 68.2700
L199.4700 68.2700
" />
<path d="M199.4700 68.2700
L199.4700 58.0500
" />
<path d="M126.3100 55.4500
L127.6400 55.4500
" />
<path d="M126.3100 56.7800
L126.3100 55.4500
" />
<path d="M126.3100 58.0500
L128.9700 58.0500
" />
<path d="M126.3100 68.2700
L126.3100 58.0500
" />
<path d="M126.3100 68.2700
L128.9700 68.2700
" />
<path d="M128.9700 68.2700
L128.9700 58.0500
" />
<path style="fill:none; 
stroke:#000000; stroke-width:0.0500; stroke-opacity:1; 
stroke-linecap:round; stroke-linejoin:round;fill:none"
d="M 122.6650,36.8300
204.6650,36.8300
204.6650,86.8300
122.6650,86.8300
Z" /> 
</g> 
</svg>
