%TF.GenerationSoftware,KiCad,Pcbnew,8.0.5*%
%TF.CreationDate,2025-02-08T22:31:55+08:00*%
%TF.ProjectId,arduino_solar_bikelight_2,61726475-696e-46f5-9f73-6f6c61725f62,rev?*%
%TF.SameCoordinates,Original*%
%TF.FileFunction,Copper,L2,Bot*%
%TF.FilePolarity,Positive*%
%FSLAX46Y46*%
G04 Gerber Fmt 4.6, Leading zero omitted, Abs format (unit mm)*
G04 Created by KiCad (PCBNEW 8.0.5) date 2025-02-08 22:31:55*
%MOMM*%
%LPD*%
G01*
G04 APERTURE LIST*
%TA.AperFunction,ComponentPad*%
%ADD10C,1.600000*%
%TD*%
%TA.AperFunction,ComponentPad*%
%ADD11O,1.600000X1.600000*%
%TD*%
%TA.AperFunction,ComponentPad*%
%ADD12R,1.800000X1.800000*%
%TD*%
%TA.AperFunction,ComponentPad*%
%ADD13C,1.800000*%
%TD*%
%TA.AperFunction,ComponentPad*%
%ADD14O,2.900000X1.700000*%
%TD*%
%TA.AperFunction,ComponentPad*%
%ADD15R,1.700000X1.700000*%
%TD*%
%TA.AperFunction,ComponentPad*%
%ADD16O,1.700000X1.700000*%
%TD*%
%TA.AperFunction,Conductor*%
%ADD17C,0.200000*%
%TD*%
%TA.AperFunction,Conductor*%
%ADD18C,1.000000*%
%TD*%
%TA.AperFunction,Conductor*%
%ADD19C,0.400000*%
%TD*%
%TA.AperFunction,Profile*%
%ADD20C,0.050000*%
%TD*%
G04 APERTURE END LIST*
D10*
%TO.P,R9,1*%
%TO.N,/CHARGING_LED_IN+*%
X168745000Y-67445000D03*
D11*
%TO.P,R9,2*%
%TO.N,Net-(D9-A)*%
X158585000Y-67445000D03*
%TD*%
D12*
%TO.P,D5,1,K*%
%TO.N,-BATT*%
X149855000Y-51010000D03*
D13*
%TO.P,D5,2,A*%
%TO.N,Net-(D5-A)*%
X147315000Y-51010000D03*
%TD*%
D12*
%TO.P,D8,1,K*%
%TO.N,-BATT*%
X179855000Y-76010000D03*
D13*
%TO.P,D8,2,A*%
%TO.N,Net-(D8-A)*%
X177315000Y-76010000D03*
%TD*%
D10*
%TO.P,R4,1*%
%TO.N,/LOW_LED_IN+*%
X196245000Y-71060000D03*
D11*
%TO.P,R4,2*%
%TO.N,Net-(D4-A)*%
X186085000Y-71060000D03*
%TD*%
D12*
%TO.P,D1,1,K*%
%TO.N,-BATT*%
X137355000Y-51010000D03*
D13*
%TO.P,D1,2,A*%
%TO.N,Net-(D1-A)*%
X134815000Y-51010000D03*
%TD*%
D10*
%TO.P,R7,1*%
%TO.N,/HIGH_LED_IN+*%
X153745000Y-66395000D03*
D11*
%TO.P,R7,2*%
%TO.N,Net-(D7-A)*%
X143585000Y-66395000D03*
%TD*%
D12*
%TO.P,D9,1,K*%
%TO.N,-BATT*%
X164855000Y-72395000D03*
D13*
%TO.P,D9,2,A*%
%TO.N,Net-(D9-A)*%
X162315000Y-72395000D03*
%TD*%
D12*
%TO.P,D2,1,K*%
%TO.N,-BATT*%
X192355000Y-51010000D03*
D13*
%TO.P,D2,2,A*%
%TO.N,Net-(D2-A)*%
X189815000Y-51010000D03*
%TD*%
D10*
%TO.P,R1,1*%
%TO.N,/LOW_LED_IN+*%
X141245000Y-46060000D03*
D11*
%TO.P,R1,2*%
%TO.N,Net-(D1-A)*%
X131085000Y-46060000D03*
%TD*%
D12*
%TO.P,D3,1,K*%
%TO.N,-BATT*%
X137355000Y-76010000D03*
D13*
%TO.P,D3,2,A*%
%TO.N,Net-(D3-A)*%
X134815000Y-76010000D03*
%TD*%
D12*
%TO.P,D7,1,K*%
%TO.N,-BATT*%
X149855000Y-76010000D03*
D13*
%TO.P,D7,2,A*%
%TO.N,Net-(D7-A)*%
X147315000Y-76010000D03*
%TD*%
D10*
%TO.P,R3,1*%
%TO.N,/LOW_LED_IN+*%
X141245000Y-71060000D03*
D11*
%TO.P,R3,2*%
%TO.N,Net-(D3-A)*%
X131085000Y-71060000D03*
%TD*%
D14*
%TO.P,SW1,1,1*%
%TO.N,/BUTTON_PIN*%
X157415000Y-50395000D03*
X169915000Y-50395000D03*
%TO.P,SW1,2,2*%
%TO.N,-BATT*%
X157415000Y-55395000D03*
X169915000Y-55395000D03*
%TD*%
D10*
%TO.P,R8,1*%
%TO.N,/HIGH_LED_IN+*%
X183745000Y-66395000D03*
D11*
%TO.P,R8,2*%
%TO.N,Net-(D8-A)*%
X173585000Y-66395000D03*
%TD*%
D10*
%TO.P,R2,1*%
%TO.N,/LOW_LED_IN+*%
X196245000Y-46060000D03*
D11*
%TO.P,R2,2*%
%TO.N,Net-(D2-A)*%
X186085000Y-46060000D03*
%TD*%
D12*
%TO.P,D6,1,K*%
%TO.N,-BATT*%
X179855000Y-51010000D03*
D13*
%TO.P,D6,2,A*%
%TO.N,Net-(D6-A)*%
X177315000Y-51010000D03*
%TD*%
D10*
%TO.P,R5,1*%
%TO.N,/HIGH_LED_IN+*%
X153745000Y-58395000D03*
D11*
%TO.P,R5,2*%
%TO.N,Net-(D5-A)*%
X143585000Y-58395000D03*
%TD*%
D12*
%TO.P,D4,1,K*%
%TO.N,-BATT*%
X192355000Y-76010000D03*
D13*
%TO.P,D4,2,A*%
%TO.N,Net-(D4-A)*%
X189815000Y-76010000D03*
%TD*%
D10*
%TO.P,R6,1*%
%TO.N,/HIGH_LED_IN+*%
X183745000Y-58395000D03*
D11*
%TO.P,R6,2*%
%TO.N,Net-(D6-A)*%
X173585000Y-58395000D03*
%TD*%
D15*
%TO.P,J1,1,Pin_1*%
%TO.N,/LOW_LED_IN+*%
X198140000Y-56780000D03*
D16*
%TO.P,J1,2,Pin_2*%
%TO.N,/HIGH_LED_IN+*%
X198140000Y-59320000D03*
%TO.P,J1,3,Pin_3*%
%TO.N,/CHARGING_LED_IN+*%
X198140000Y-61860000D03*
%TO.P,J1,4,Pin_4*%
%TO.N,/BUTTON_PIN*%
X198140000Y-64400000D03*
%TO.P,J1,5,Pin_5*%
%TO.N,-BATT*%
X198140000Y-66940000D03*
%TD*%
D15*
%TO.P,J2,1,Pin_1*%
%TO.N,/LOW_LED_IN+*%
X127640000Y-56780000D03*
D16*
%TO.P,J2,2,Pin_2*%
%TO.N,/HIGH_LED_IN+*%
X127640000Y-59320000D03*
%TO.P,J2,3,Pin_3*%
%TO.N,/CHARGING_LED_IN+*%
X127640000Y-61860000D03*
%TO.P,J2,4,Pin_4*%
%TO.N,/BUTTON_PIN*%
X127640000Y-64400000D03*
%TO.P,J2,5,Pin_5*%
%TO.N,-BATT*%
X127640000Y-66940000D03*
%TD*%
D17*
%TO.N,Net-(D1-A)*%
X131085000Y-46060000D02*
X131085000Y-47280000D01*
X131085000Y-47280000D02*
X134815000Y-51010000D01*
%TO.N,Net-(D2-A)*%
X186085000Y-47280000D02*
X189815000Y-51010000D01*
X186085000Y-46060000D02*
X186085000Y-47280000D01*
%TO.N,Net-(D3-A)*%
X131085000Y-72280000D02*
X134815000Y-76010000D01*
X131085000Y-71060000D02*
X131085000Y-72280000D01*
%TO.N,Net-(D4-A)*%
X186085000Y-71060000D02*
X186085000Y-72280000D01*
X186085000Y-72280000D02*
X189815000Y-76010000D01*
%TO.N,Net-(D5-A)*%
X147315000Y-51010000D02*
X147315000Y-54665000D01*
X147315000Y-54665000D02*
X143585000Y-58395000D01*
%TO.N,Net-(D6-A)*%
X177315000Y-51010000D02*
X177315000Y-54665000D01*
X177315000Y-54665000D02*
X173585000Y-58395000D01*
%TO.N,Net-(D7-A)*%
X143585000Y-72280000D02*
X147315000Y-76010000D01*
X143585000Y-66395000D02*
X143585000Y-72280000D01*
%TO.N,Net-(D8-A)*%
X173585000Y-66395000D02*
X173585000Y-72280000D01*
X173585000Y-72280000D02*
X177315000Y-76010000D01*
D18*
%TO.N,-BATT*%
X169915000Y-55395000D02*
X157415000Y-55395000D01*
D17*
%TO.N,Net-(D9-A)*%
X158585000Y-68665000D02*
X162315000Y-72395000D01*
X158585000Y-67445000D02*
X158585000Y-68665000D01*
D18*
%TO.N,/LOW_LED_IN+*%
X134215000Y-81330000D02*
X144165000Y-81330000D01*
X124215000Y-50808679D02*
X124215000Y-71330000D01*
X139745000Y-44560000D02*
X130463679Y-44560000D01*
X196245000Y-71060000D02*
X199690000Y-67615000D01*
X199690000Y-67615000D02*
X199690000Y-58330000D01*
X199690000Y-58330000D02*
X198140000Y-56780000D01*
X130463679Y-44560000D02*
X124215000Y-50808679D01*
X190235000Y-81330000D02*
X144165000Y-81330000D01*
X141245000Y-77910000D02*
X141245000Y-71060000D01*
X196245000Y-71060000D02*
X196245000Y-75320000D01*
X144165000Y-81330000D02*
X144165000Y-80830000D01*
X124215000Y-71330000D02*
X134215000Y-81330000D01*
X196245000Y-54885000D02*
X198140000Y-56780000D01*
X196245000Y-46060000D02*
X196245000Y-54885000D01*
X196245000Y-75320000D02*
X190235000Y-81330000D01*
X144165000Y-80830000D02*
X141245000Y-77910000D01*
X141245000Y-46060000D02*
X139745000Y-44560000D01*
D19*
%TO.N,/BUTTON_PIN*%
X155045000Y-49710000D02*
X153165000Y-47830000D01*
X125665000Y-53830000D02*
X127165000Y-52330000D01*
X139165000Y-54830000D02*
X139165000Y-54330000D01*
X157415000Y-50395000D02*
X156730000Y-49710000D01*
X153165000Y-47830000D02*
X144165000Y-47830000D01*
X139165000Y-54330000D02*
X140665000Y-52830000D01*
X138665000Y-55330000D02*
X139165000Y-54830000D01*
X125665000Y-62425000D02*
X125665000Y-53830000D01*
X140665000Y-52330000D02*
X141285000Y-51710000D01*
X157415000Y-50395000D02*
X169915000Y-50395000D01*
X127640000Y-64400000D02*
X125665000Y-62425000D01*
X127165000Y-52330000D02*
X129665000Y-52330000D01*
X132665000Y-55330000D02*
X138665000Y-55330000D01*
X144165000Y-47830000D02*
X141285000Y-50710000D01*
X140665000Y-52830000D02*
X140665000Y-52330000D01*
X156730000Y-49710000D02*
X155045000Y-49710000D01*
X141285000Y-50710000D02*
X141285000Y-51710000D01*
X129665000Y-52330000D02*
X132665000Y-55330000D01*
D18*
%TO.N,/HIGH_LED_IN+*%
X197215000Y-58395000D02*
X183745000Y-58395000D01*
X151970000Y-60170000D02*
X153745000Y-58395000D01*
X153745000Y-58395000D02*
X153745000Y-66395000D01*
X183745000Y-66395000D02*
X183745000Y-58395000D01*
X127640000Y-59320000D02*
X128490000Y-60170000D01*
X128490000Y-60170000D02*
X151970000Y-60170000D01*
X198140000Y-59320000D02*
X197215000Y-58395000D01*
D19*
%TO.N,/CHARGING_LED_IN+*%
X180847943Y-65195000D02*
X183247943Y-67595000D01*
X192405000Y-67595000D02*
X198140000Y-61860000D01*
X168745000Y-67445000D02*
X170995000Y-65195000D01*
X183247943Y-67595000D02*
X192405000Y-67595000D01*
X170995000Y-65195000D02*
X180847943Y-65195000D01*
%TD*%
%TA.AperFunction,Conductor*%
%TO.N,-BATT*%
G36*
X203557539Y-37900185D02*
G01*
X203603294Y-37952989D01*
X203614500Y-38004500D01*
X203614500Y-85655500D01*
X203594815Y-85722539D01*
X203542011Y-85768294D01*
X203490500Y-85779500D01*
X123839500Y-85779500D01*
X123772461Y-85759815D01*
X123726706Y-85707011D01*
X123715500Y-85655500D01*
X123715500Y-83208711D01*
X124314500Y-83208711D01*
X124314500Y-83451288D01*
X124346161Y-83691785D01*
X124408947Y-83926104D01*
X124501773Y-84150205D01*
X124501776Y-84150212D01*
X124623064Y-84360289D01*
X124623066Y-84360292D01*
X124623067Y-84360293D01*
X124770733Y-84552736D01*
X124770739Y-84552743D01*
X124942256Y-84724260D01*
X124942262Y-84724265D01*
X125134711Y-84871936D01*
X125344788Y-84993224D01*
X125568900Y-85086054D01*
X125803211Y-85148838D01*
X125983586Y-85172584D01*
X126043711Y-85180500D01*
X126043712Y-85180500D01*
X126286289Y-85180500D01*
X126334388Y-85174167D01*
X126526789Y-85148838D01*
X126761100Y-85086054D01*
X126985212Y-84993224D01*
X127195289Y-84871936D01*
X127387738Y-84724265D01*
X127559265Y-84552738D01*
X127706936Y-84360289D01*
X127828224Y-84150212D01*
X127921054Y-83926100D01*
X127983838Y-83691789D01*
X128015500Y-83451288D01*
X128015500Y-83208712D01*
X128015500Y-83208711D01*
X199314500Y-83208711D01*
X199314500Y-83451288D01*
X199346161Y-83691785D01*
X199408947Y-83926104D01*
X199501773Y-84150205D01*
X199501776Y-84150212D01*
X199623064Y-84360289D01*
X199623066Y-84360292D01*
X199623067Y-84360293D01*
X199770733Y-84552736D01*
X199770739Y-84552743D01*
X199942256Y-84724260D01*
X199942262Y-84724265D01*
X200134711Y-84871936D01*
X200344788Y-84993224D01*
X200568900Y-85086054D01*
X200803211Y-85148838D01*
X200983586Y-85172584D01*
X201043711Y-85180500D01*
X201043712Y-85180500D01*
X201286289Y-85180500D01*
X201334388Y-85174167D01*
X201526789Y-85148838D01*
X201761100Y-85086054D01*
X201985212Y-84993224D01*
X202195289Y-84871936D01*
X202387738Y-84724265D01*
X202559265Y-84552738D01*
X202706936Y-84360289D01*
X202828224Y-84150212D01*
X202921054Y-83926100D01*
X202983838Y-83691789D01*
X203015500Y-83451288D01*
X203015500Y-83208712D01*
X202983838Y-82968211D01*
X202921054Y-82733900D01*
X202828224Y-82509788D01*
X202706936Y-82299711D01*
X202559265Y-82107262D01*
X202559260Y-82107256D01*
X202387743Y-81935739D01*
X202387736Y-81935733D01*
X202195293Y-81788067D01*
X202195292Y-81788066D01*
X202195289Y-81788064D01*
X201985212Y-81666776D01*
X201985205Y-81666773D01*
X201761104Y-81573947D01*
X201526785Y-81511161D01*
X201286289Y-81479500D01*
X201286288Y-81479500D01*
X201043712Y-81479500D01*
X201043711Y-81479500D01*
X200803214Y-81511161D01*
X200568895Y-81573947D01*
X200344794Y-81666773D01*
X200344785Y-81666777D01*
X200134706Y-81788067D01*
X199942263Y-81935733D01*
X199942256Y-81935739D01*
X199770739Y-82107256D01*
X199770733Y-82107263D01*
X199623067Y-82299706D01*
X199501777Y-82509785D01*
X199501773Y-82509794D01*
X199408947Y-82733895D01*
X199346161Y-82968214D01*
X199314500Y-83208711D01*
X128015500Y-83208711D01*
X127983838Y-82968211D01*
X127921054Y-82733900D01*
X127828224Y-82509788D01*
X127706936Y-82299711D01*
X127559265Y-82107262D01*
X127559260Y-82107256D01*
X127387743Y-81935739D01*
X127387736Y-81935733D01*
X127195293Y-81788067D01*
X127195292Y-81788066D01*
X127195289Y-81788064D01*
X126985212Y-81666776D01*
X126985205Y-81666773D01*
X126761104Y-81573947D01*
X126526785Y-81511161D01*
X126286289Y-81479500D01*
X126286288Y-81479500D01*
X126043712Y-81479500D01*
X126043711Y-81479500D01*
X125803214Y-81511161D01*
X125568895Y-81573947D01*
X125344794Y-81666773D01*
X125344785Y-81666777D01*
X125134706Y-81788067D01*
X124942263Y-81935733D01*
X124942256Y-81935739D01*
X124770739Y-82107256D01*
X124770733Y-82107263D01*
X124623067Y-82299706D01*
X124501777Y-82509785D01*
X124501773Y-82509794D01*
X124408947Y-82733895D01*
X124346161Y-82968214D01*
X124314500Y-83208711D01*
X123715500Y-83208711D01*
X123715500Y-72544782D01*
X123735185Y-72477743D01*
X123787989Y-72431988D01*
X123857147Y-72422044D01*
X123920703Y-72451069D01*
X123927181Y-72457101D01*
X133577215Y-82107137D01*
X133577219Y-82107140D01*
X133741079Y-82216628D01*
X133741085Y-82216631D01*
X133741086Y-82216632D01*
X133923165Y-82292052D01*
X134116455Y-82330500D01*
X134116458Y-82330501D01*
X134116460Y-82330501D01*
X134319655Y-82330501D01*
X134319675Y-82330500D01*
X190333542Y-82330500D01*
X190352870Y-82326655D01*
X190430188Y-82311275D01*
X190526836Y-82292051D01*
X190580165Y-82269961D01*
X190708914Y-82216632D01*
X190872782Y-82107139D01*
X191012139Y-81967782D01*
X191012139Y-81967780D01*
X191022347Y-81957573D01*
X191022348Y-81957570D01*
X197022140Y-75957781D01*
X197131632Y-75793914D01*
X197207052Y-75611835D01*
X197245501Y-75418540D01*
X197245501Y-75221459D01*
X197245501Y-75216349D01*
X197245500Y-75216323D01*
X197245500Y-71937588D01*
X197265185Y-71870549D01*
X197267925Y-71866465D01*
X197375568Y-71712734D01*
X197471739Y-71506496D01*
X197530635Y-71286692D01*
X197536040Y-71224905D01*
X197561492Y-71159838D01*
X197571879Y-71148040D01*
X200467140Y-68252781D01*
X200538822Y-68145500D01*
X200576632Y-68088914D01*
X200629961Y-67960165D01*
X200652051Y-67906836D01*
X200671275Y-67810188D01*
X200690500Y-67713541D01*
X200690500Y-58231459D01*
X200690500Y-58231456D01*
X200670418Y-58130500D01*
X200669143Y-58124091D01*
X200652051Y-58038164D01*
X200637451Y-58002916D01*
X200629961Y-57984833D01*
X200576635Y-57856092D01*
X200576628Y-57856079D01*
X200467139Y-57692218D01*
X200467136Y-57692214D01*
X200324686Y-57549764D01*
X200324655Y-57549735D01*
X199526818Y-56751898D01*
X199493333Y-56690575D01*
X199490499Y-56664217D01*
X199490499Y-55882129D01*
X199490498Y-55882123D01*
X199489745Y-55875119D01*
X199484091Y-55822517D01*
X199433796Y-55687669D01*
X199433795Y-55687668D01*
X199433793Y-55687664D01*
X199347547Y-55572455D01*
X199347544Y-55572452D01*
X199232335Y-55486206D01*
X199232328Y-55486202D01*
X199097482Y-55435908D01*
X199097483Y-55435908D01*
X199037883Y-55429501D01*
X199037881Y-55429500D01*
X199037873Y-55429500D01*
X199037865Y-55429500D01*
X198255783Y-55429500D01*
X198188744Y-55409815D01*
X198168102Y-55393181D01*
X197281819Y-54506898D01*
X197248334Y-54445575D01*
X197245500Y-54419217D01*
X197245500Y-46937588D01*
X197265185Y-46870549D01*
X197267925Y-46866465D01*
X197375568Y-46712734D01*
X197471739Y-46506496D01*
X197530635Y-46286692D01*
X197550468Y-46060000D01*
X197530635Y-45833308D01*
X197471739Y-45613504D01*
X197375568Y-45407266D01*
X197245047Y-45220861D01*
X197245045Y-45220858D01*
X197084141Y-45059954D01*
X196897734Y-44929432D01*
X196897732Y-44929431D01*
X196691497Y-44833261D01*
X196691488Y-44833258D01*
X196471697Y-44774366D01*
X196471693Y-44774365D01*
X196471692Y-44774365D01*
X196471691Y-44774364D01*
X196471686Y-44774364D01*
X196245002Y-44754532D01*
X196244998Y-44754532D01*
X196018313Y-44774364D01*
X196018302Y-44774366D01*
X195798511Y-44833258D01*
X195798502Y-44833261D01*
X195592267Y-44929431D01*
X195592265Y-44929432D01*
X195405858Y-45059954D01*
X195244954Y-45220858D01*
X195114432Y-45407265D01*
X195114431Y-45407267D01*
X195018261Y-45613502D01*
X195018258Y-45613511D01*
X194959366Y-45833302D01*
X194959364Y-45833313D01*
X194939532Y-46059998D01*
X194939532Y-46060001D01*
X194959364Y-46286686D01*
X194959366Y-46286697D01*
X195018258Y-46506488D01*
X195018261Y-46506497D01*
X195114431Y-46712732D01*
X195114432Y-46712734D01*
X195222075Y-46866465D01*
X195244402Y-46932671D01*
X195244500Y-46937588D01*
X195244500Y-54983544D01*
X195279959Y-55161808D01*
X195282948Y-55176831D01*
X195282949Y-55176837D01*
X195358364Y-55358907D01*
X195358371Y-55358920D01*
X195467859Y-55522780D01*
X195467860Y-55522781D01*
X195467861Y-55522782D01*
X195607218Y-55662139D01*
X195607219Y-55662139D01*
X195614286Y-55669206D01*
X195614285Y-55669206D01*
X195614289Y-55669209D01*
X196753181Y-56808102D01*
X196786666Y-56869425D01*
X196789500Y-56895783D01*
X196789500Y-57109366D01*
X196789501Y-57270500D01*
X196769817Y-57337539D01*
X196717013Y-57383294D01*
X196665501Y-57394500D01*
X184622588Y-57394500D01*
X184555549Y-57374815D01*
X184551465Y-57372075D01*
X184502142Y-57337539D01*
X184397734Y-57264432D01*
X184397732Y-57264431D01*
X184191497Y-57168261D01*
X184191488Y-57168258D01*
X183971697Y-57109366D01*
X183971693Y-57109365D01*
X183971692Y-57109365D01*
X183971691Y-57109364D01*
X183971686Y-57109364D01*
X183745002Y-57089532D01*
X183744998Y-57089532D01*
X183518313Y-57109364D01*
X183518302Y-57109366D01*
X183298511Y-57168258D01*
X183298502Y-57168261D01*
X183092267Y-57264431D01*
X183092265Y-57264432D01*
X182905858Y-57394954D01*
X182744954Y-57555858D01*
X182614432Y-57742265D01*
X182614431Y-57742267D01*
X182518261Y-57948502D01*
X182518258Y-57948511D01*
X182459366Y-58168302D01*
X182459364Y-58168313D01*
X182439532Y-58394998D01*
X182439532Y-58395001D01*
X182459364Y-58621686D01*
X182459366Y-58621697D01*
X182518258Y-58841488D01*
X182518261Y-58841497D01*
X182526220Y-58858565D01*
X182614432Y-59047734D01*
X182697708Y-59166666D01*
X182722075Y-59201465D01*
X182744402Y-59267671D01*
X182744500Y-59272588D01*
X182744500Y-65517410D01*
X182724815Y-65584449D01*
X182722076Y-65588532D01*
X182614429Y-65742270D01*
X182611721Y-65746961D01*
X182609580Y-65745724D01*
X182570062Y-65790306D01*
X182502805Y-65809233D01*
X182435992Y-65788794D01*
X182416522Y-65772922D01*
X181294489Y-64650888D01*
X181294488Y-64650887D01*
X181179750Y-64574222D01*
X181052275Y-64521421D01*
X181052265Y-64521418D01*
X180916939Y-64494500D01*
X180916937Y-64494500D01*
X180916936Y-64494500D01*
X171063994Y-64494500D01*
X170926007Y-64494500D01*
X170926005Y-64494500D01*
X170790677Y-64521418D01*
X170790667Y-64521421D01*
X170663192Y-64574222D01*
X170548454Y-64650887D01*
X169075369Y-66123972D01*
X169014046Y-66157457D01*
X168976881Y-66159819D01*
X168971680Y-66159364D01*
X168952171Y-66157657D01*
X168745002Y-66139532D01*
X168744998Y-66139532D01*
X168518313Y-66159364D01*
X168518302Y-66159366D01*
X168298511Y-66218258D01*
X168298502Y-66218261D01*
X168092267Y-66314431D01*
X168092265Y-66314432D01*
X167905858Y-66444954D01*
X167744954Y-66605858D01*
X167614432Y-66792265D01*
X167614431Y-66792267D01*
X167518261Y-66998502D01*
X167518258Y-66998511D01*
X167459366Y-67218302D01*
X167459364Y-67218313D01*
X167439532Y-67444998D01*
X167439532Y-67445001D01*
X167459364Y-67671686D01*
X167459366Y-67671697D01*
X167518258Y-67891488D01*
X167518261Y-67891497D01*
X167614431Y-68097732D01*
X167614432Y-68097734D01*
X167744954Y-68284141D01*
X167905858Y-68445045D01*
X167911535Y-68449020D01*
X168092266Y-68575568D01*
X168298504Y-68671739D01*
X168518308Y-68730635D01*
X168671688Y-68744054D01*
X168744998Y-68750468D01*
X168745000Y-68750468D01*
X168745002Y-68750468D01*
X168801673Y-68745509D01*
X168971692Y-68730635D01*
X169191496Y-68671739D01*
X169397734Y-68575568D01*
X169584139Y-68445047D01*
X169745047Y-68284139D01*
X169875568Y-68097734D01*
X169971739Y-67891496D01*
X170030635Y-67671692D01*
X170050468Y-67445000D01*
X170030635Y-67218308D01*
X170030633Y-67218303D01*
X170030180Y-67213117D01*
X170043946Y-67144617D01*
X170066024Y-67114631D01*
X171248838Y-65931819D01*
X171310161Y-65898334D01*
X171336519Y-65895500D01*
X172210863Y-65895500D01*
X172277902Y-65915185D01*
X172323657Y-65967989D01*
X172333601Y-66037147D01*
X172330638Y-66051593D01*
X172299366Y-66168302D01*
X172299364Y-66168313D01*
X172279532Y-66394998D01*
X172279532Y-66395001D01*
X172299364Y-66621686D01*
X172299366Y-66621697D01*
X172358258Y-66841488D01*
X172358261Y-66841497D01*
X172454431Y-67047732D01*
X172454432Y-67047734D01*
X172584954Y-67234141D01*
X172745858Y-67395045D01*
X172767308Y-67410064D01*
X172931624Y-67525118D01*
X172975248Y-67579693D01*
X172984500Y-67626692D01*
X172984500Y-72193330D01*
X172984499Y-72193348D01*
X172984499Y-72359054D01*
X172984498Y-72359054D01*
X173004041Y-72431988D01*
X173025423Y-72511785D01*
X173044474Y-72544782D01*
X173054358Y-72561900D01*
X173054359Y-72561904D01*
X173054360Y-72561904D01*
X173104479Y-72648714D01*
X173104481Y-72648717D01*
X173223349Y-72767585D01*
X173223355Y-72767590D01*
X175940795Y-75485030D01*
X175974280Y-75546353D01*
X175973320Y-75603151D01*
X175928866Y-75778691D01*
X175928864Y-75778702D01*
X175909700Y-76009993D01*
X175909700Y-76010006D01*
X175928864Y-76241297D01*
X175928866Y-76241308D01*
X175985842Y-76466300D01*
X176079075Y-76678848D01*
X176206016Y-76873147D01*
X176206019Y-76873151D01*
X176206021Y-76873153D01*
X176363216Y-77043913D01*
X176363219Y-77043915D01*
X176363222Y-77043918D01*
X176546365Y-77186464D01*
X176546371Y-77186468D01*
X176546374Y-77186470D01*
X176750497Y-77296936D01*
X176864487Y-77336068D01*
X176970015Y-77372297D01*
X176970017Y-77372297D01*
X176970019Y-77372298D01*
X177198951Y-77410500D01*
X177198952Y-77410500D01*
X177431048Y-77410500D01*
X177431049Y-77410500D01*
X177659981Y-77372298D01*
X177879503Y-77296936D01*
X178083626Y-77186470D01*
X178266784Y-77043913D01*
X178275511Y-77034432D01*
X178335394Y-76998441D01*
X178405232Y-77000538D01*
X178462850Y-77040060D01*
X178482924Y-77075080D01*
X178511645Y-77152086D01*
X178511649Y-77152093D01*
X178597809Y-77267187D01*
X178597812Y-77267190D01*
X178712906Y-77353350D01*
X178712913Y-77353354D01*
X178847620Y-77403596D01*
X178847627Y-77403598D01*
X178907155Y-77409999D01*
X178907172Y-77410000D01*
X179605000Y-77410000D01*
X179605000Y-76385277D01*
X179681306Y-76429333D01*
X179795756Y-76460000D01*
X179914244Y-76460000D01*
X180028694Y-76429333D01*
X180105000Y-76385277D01*
X180105000Y-77410000D01*
X180802828Y-77410000D01*
X180802844Y-77409999D01*
X180862372Y-77403598D01*
X180862379Y-77403596D01*
X180997086Y-77353354D01*
X180997093Y-77353350D01*
X181112187Y-77267190D01*
X181112190Y-77267187D01*
X181198350Y-77152093D01*
X181198354Y-77152086D01*
X181248596Y-77017379D01*
X181248598Y-77017372D01*
X181254999Y-76957844D01*
X181255000Y-76957827D01*
X181255000Y-76260000D01*
X180230278Y-76260000D01*
X180274333Y-76183694D01*
X180305000Y-76069244D01*
X180305000Y-75950756D01*
X180274333Y-75836306D01*
X180230278Y-75760000D01*
X181255000Y-75760000D01*
X181255000Y-75062172D01*
X181254999Y-75062155D01*
X181248598Y-75002627D01*
X181248596Y-75002620D01*
X181198354Y-74867913D01*
X181198350Y-74867906D01*
X181112190Y-74752812D01*
X181112187Y-74752809D01*
X180997093Y-74666649D01*
X180997086Y-74666645D01*
X180862379Y-74616403D01*
X180862372Y-74616401D01*
X180802844Y-74610000D01*
X180105000Y-74610000D01*
X180105000Y-75634722D01*
X180028694Y-75590667D01*
X179914244Y-75560000D01*
X179795756Y-75560000D01*
X179681306Y-75590667D01*
X179605000Y-75634722D01*
X179605000Y-74610000D01*
X178907155Y-74610000D01*
X178847627Y-74616401D01*
X178847620Y-74616403D01*
X178712913Y-74666645D01*
X178712906Y-74666649D01*
X178597812Y-74752809D01*
X178597809Y-74752812D01*
X178511649Y-74867906D01*
X178511646Y-74867911D01*
X178482924Y-74944920D01*
X178441052Y-75000853D01*
X178375588Y-75025270D01*
X178307315Y-75010418D01*
X178275514Y-74985571D01*
X178266784Y-74976087D01*
X178266779Y-74976083D01*
X178266777Y-74976081D01*
X178083634Y-74833535D01*
X178083628Y-74833531D01*
X177879504Y-74723064D01*
X177879495Y-74723061D01*
X177659984Y-74647702D01*
X177472404Y-74616401D01*
X177431049Y-74609500D01*
X177198951Y-74609500D01*
X177157596Y-74616401D01*
X176970016Y-74647702D01*
X176918100Y-74665524D01*
X176848301Y-74668672D01*
X176790159Y-74635923D01*
X174221819Y-72067583D01*
X174188334Y-72006260D01*
X174185500Y-71979902D01*
X174185500Y-67626692D01*
X174205185Y-67559653D01*
X174238374Y-67525119D01*
X174424139Y-67395047D01*
X174585047Y-67234139D01*
X174715568Y-67047734D01*
X174811739Y-66841496D01*
X174870635Y-66621692D01*
X174890468Y-66395000D01*
X174870635Y-66168308D01*
X174844006Y-66068926D01*
X174839362Y-66051593D01*
X174841025Y-65981743D01*
X174880188Y-65923881D01*
X174944417Y-65896377D01*
X174959137Y-65895500D01*
X180506424Y-65895500D01*
X180573463Y-65915185D01*
X180594105Y-65931819D01*
X182801396Y-68139111D01*
X182801397Y-68139112D01*
X182916135Y-68215777D01*
X183043610Y-68268578D01*
X183043615Y-68268580D01*
X183043619Y-68268580D01*
X183043620Y-68268581D01*
X183178946Y-68295500D01*
X183178949Y-68295500D01*
X192473996Y-68295500D01*
X192565040Y-68277389D01*
X192609328Y-68268580D01*
X192673069Y-68242177D01*
X192736807Y-68215777D01*
X192736808Y-68215776D01*
X192736811Y-68215775D01*
X192851543Y-68139114D01*
X196580728Y-64409927D01*
X196642049Y-64376444D01*
X196711741Y-64381428D01*
X196767674Y-64423300D01*
X196791935Y-64486802D01*
X196804936Y-64635403D01*
X196804938Y-64635413D01*
X196866094Y-64863655D01*
X196866096Y-64863659D01*
X196866097Y-64863663D01*
X196965965Y-65077830D01*
X196965967Y-65077834D01*
X197074281Y-65232521D01*
X197101505Y-65271401D01*
X197268599Y-65438495D01*
X197437137Y-65556507D01*
X197454594Y-65568730D01*
X197498219Y-65623307D01*
X197505413Y-65692805D01*
X197473890Y-65755160D01*
X197454595Y-65771880D01*
X197268922Y-65901890D01*
X197268920Y-65901891D01*
X197101891Y-66068920D01*
X197101886Y-66068926D01*
X196966400Y-66262420D01*
X196966399Y-66262422D01*
X196866570Y-66476507D01*
X196866567Y-66476513D01*
X196809364Y-66689999D01*
X196809364Y-66690000D01*
X197706988Y-66690000D01*
X197674075Y-66747007D01*
X197640000Y-66874174D01*
X197640000Y-67005826D01*
X197674075Y-67132993D01*
X197706988Y-67190000D01*
X196809364Y-67190000D01*
X196866567Y-67403486D01*
X196866570Y-67403492D01*
X196966399Y-67617578D01*
X197101894Y-67811082D01*
X197268917Y-67978105D01*
X197462421Y-68113600D01*
X197516105Y-68138633D01*
X197568544Y-68184805D01*
X197587696Y-68251999D01*
X197567480Y-68318880D01*
X197551381Y-68338696D01*
X196156966Y-69733111D01*
X196095643Y-69766596D01*
X196080095Y-69768958D01*
X196018307Y-69774365D01*
X195798511Y-69833258D01*
X195798502Y-69833261D01*
X195592267Y-69929431D01*
X195592265Y-69929432D01*
X195405858Y-70059954D01*
X195244954Y-70220858D01*
X195114432Y-70407265D01*
X195114431Y-70407267D01*
X195018261Y-70613502D01*
X195018258Y-70613511D01*
X194959366Y-70833302D01*
X194959364Y-70833313D01*
X194939532Y-71059998D01*
X194939532Y-71060001D01*
X194959364Y-71286686D01*
X194959366Y-71286697D01*
X195018258Y-71506488D01*
X195018261Y-71506497D01*
X195114431Y-71712732D01*
X195114432Y-71712734D01*
X195222075Y-71866465D01*
X195244402Y-71932671D01*
X195244500Y-71937588D01*
X195244500Y-74854217D01*
X195224815Y-74921256D01*
X195208181Y-74941898D01*
X193910220Y-76239858D01*
X193848897Y-76273343D01*
X193779205Y-76268359D01*
X193766199Y-76260000D01*
X192730278Y-76260000D01*
X192774333Y-76183694D01*
X192805000Y-76069244D01*
X192805000Y-75950756D01*
X192774333Y-75836306D01*
X192730278Y-75760000D01*
X193755000Y-75760000D01*
X193755000Y-75062172D01*
X193754999Y-75062155D01*
X193748598Y-75002627D01*
X193748596Y-75002620D01*
X193698354Y-74867913D01*
X193698350Y-74867906D01*
X193612190Y-74752812D01*
X193612187Y-74752809D01*
X193497093Y-74666649D01*
X193497086Y-74666645D01*
X193362379Y-74616403D01*
X193362372Y-74616401D01*
X193302844Y-74610000D01*
X192605000Y-74610000D01*
X192605000Y-75634722D01*
X192528694Y-75590667D01*
X192414244Y-75560000D01*
X192295756Y-75560000D01*
X192181306Y-75590667D01*
X192105000Y-75634722D01*
X192105000Y-74610000D01*
X191407155Y-74610000D01*
X191347627Y-74616401D01*
X191347620Y-74616403D01*
X191212913Y-74666645D01*
X191212906Y-74666649D01*
X191097812Y-74752809D01*
X191097809Y-74752812D01*
X191011649Y-74867906D01*
X191011646Y-74867911D01*
X190982924Y-74944920D01*
X190941052Y-75000853D01*
X190875588Y-75025270D01*
X190807315Y-75010418D01*
X190775514Y-74985571D01*
X190766784Y-74976087D01*
X190766779Y-74976083D01*
X190766777Y-74976081D01*
X190583634Y-74833535D01*
X190583628Y-74833531D01*
X190379504Y-74723064D01*
X190379495Y-74723061D01*
X190159984Y-74647702D01*
X189972404Y-74616401D01*
X189931049Y-74609500D01*
X189698951Y-74609500D01*
X189657596Y-74616401D01*
X189470016Y-74647702D01*
X189418100Y-74665524D01*
X189348301Y-74668672D01*
X189290159Y-74635923D01*
X188114316Y-73460080D01*
X186905202Y-72250967D01*
X186871718Y-72189645D01*
X186876702Y-72119953D01*
X186918574Y-72064020D01*
X186921766Y-72061709D01*
X186924140Y-72060046D01*
X187085045Y-71899141D01*
X187085047Y-71899139D01*
X187215568Y-71712734D01*
X187311739Y-71506496D01*
X187370635Y-71286692D01*
X187390468Y-71060000D01*
X187389914Y-71053672D01*
X187370635Y-70833313D01*
X187370635Y-70833308D01*
X187311739Y-70613504D01*
X187215568Y-70407266D01*
X187085047Y-70220861D01*
X187085045Y-70220858D01*
X186924141Y-70059954D01*
X186737734Y-69929432D01*
X186737732Y-69929431D01*
X186531497Y-69833261D01*
X186531488Y-69833258D01*
X186311697Y-69774366D01*
X186311693Y-69774365D01*
X186311692Y-69774365D01*
X186311691Y-69774364D01*
X186311686Y-69774364D01*
X186085002Y-69754532D01*
X186084998Y-69754532D01*
X185858313Y-69774364D01*
X185858302Y-69774366D01*
X185638511Y-69833258D01*
X185638502Y-69833261D01*
X185432267Y-69929431D01*
X185432265Y-69929432D01*
X185245858Y-70059954D01*
X185084954Y-70220858D01*
X184954432Y-70407265D01*
X184954431Y-70407267D01*
X184858261Y-70613502D01*
X184858258Y-70613511D01*
X184799366Y-70833302D01*
X184799364Y-70833313D01*
X184779532Y-71059998D01*
X184779532Y-71060001D01*
X184799364Y-71286686D01*
X184799366Y-71286697D01*
X184858258Y-71506488D01*
X184858261Y-71506497D01*
X184954431Y-71712732D01*
X184954432Y-71712734D01*
X185084954Y-71899141D01*
X185245858Y-72060045D01*
X185431622Y-72190117D01*
X185475247Y-72244693D01*
X185484499Y-72291692D01*
X185484499Y-72359054D01*
X185484498Y-72359054D01*
X185504041Y-72431988D01*
X185525423Y-72511785D01*
X185544474Y-72544782D01*
X185554358Y-72561900D01*
X185554359Y-72561904D01*
X185554360Y-72561904D01*
X185604479Y-72648714D01*
X185604481Y-72648717D01*
X185723349Y-72767585D01*
X185723355Y-72767590D01*
X188440795Y-75485030D01*
X188474280Y-75546353D01*
X188473320Y-75603151D01*
X188428866Y-75778691D01*
X188428864Y-75778702D01*
X188409700Y-76009993D01*
X188409700Y-76010006D01*
X188428864Y-76241297D01*
X188428866Y-76241308D01*
X188485842Y-76466300D01*
X188579075Y-76678848D01*
X188706016Y-76873147D01*
X188706019Y-76873151D01*
X188706021Y-76873153D01*
X188863216Y-77043913D01*
X188863219Y-77043915D01*
X188863222Y-77043918D01*
X189046365Y-77186464D01*
X189046371Y-77186468D01*
X189046374Y-77186470D01*
X189250497Y-77296936D01*
X189364487Y-77336068D01*
X189470015Y-77372297D01*
X189470017Y-77372297D01*
X189470019Y-77372298D01*
X189698951Y-77410500D01*
X189698952Y-77410500D01*
X189931048Y-77410500D01*
X189931049Y-77410500D01*
X190159981Y-77372298D01*
X190379503Y-77296936D01*
X190583626Y-77186470D01*
X190766784Y-77043913D01*
X190775511Y-77034432D01*
X190835394Y-76998441D01*
X190905232Y-77000538D01*
X190962850Y-77040060D01*
X190982924Y-77075080D01*
X191011645Y-77152086D01*
X191011649Y-77152093D01*
X191097809Y-77267187D01*
X191097812Y-77267190D01*
X191212906Y-77353350D01*
X191212913Y-77353354D01*
X191347620Y-77403596D01*
X191347627Y-77403598D01*
X191407155Y-77409999D01*
X191407172Y-77410000D01*
X192105000Y-77410000D01*
X192105000Y-76385277D01*
X192181306Y-76429333D01*
X192295756Y-76460000D01*
X192414244Y-76460000D01*
X192528694Y-76429333D01*
X192605000Y-76385277D01*
X192605000Y-77426745D01*
X192618343Y-77451181D01*
X192613359Y-77520873D01*
X192584858Y-77565220D01*
X189856899Y-80293181D01*
X189795576Y-80326666D01*
X189769218Y-80329500D01*
X145100148Y-80329500D01*
X145033109Y-80309815D01*
X144997046Y-80274391D01*
X144942140Y-80192219D01*
X144942137Y-80192215D01*
X142281819Y-77531897D01*
X142248334Y-77470574D01*
X142245500Y-77444216D01*
X142245500Y-71937588D01*
X142265185Y-71870549D01*
X142267925Y-71866465D01*
X142375568Y-71712734D01*
X142471739Y-71506496D01*
X142530635Y-71286692D01*
X142550468Y-71060000D01*
X142549914Y-71053672D01*
X142530635Y-70833313D01*
X142530635Y-70833308D01*
X142471739Y-70613504D01*
X142375568Y-70407266D01*
X142245047Y-70220861D01*
X142245045Y-70220858D01*
X142084141Y-70059954D01*
X141897734Y-69929432D01*
X141897732Y-69929431D01*
X141691497Y-69833261D01*
X141691488Y-69833258D01*
X141471697Y-69774366D01*
X141471693Y-69774365D01*
X141471692Y-69774365D01*
X141471691Y-69774364D01*
X141471686Y-69774364D01*
X141245002Y-69754532D01*
X141244998Y-69754532D01*
X141018313Y-69774364D01*
X141018302Y-69774366D01*
X140798511Y-69833258D01*
X140798502Y-69833261D01*
X140592267Y-69929431D01*
X140592265Y-69929432D01*
X140405858Y-70059954D01*
X140244954Y-70220858D01*
X140114432Y-70407265D01*
X140114431Y-70407267D01*
X140018261Y-70613502D01*
X140018258Y-70613511D01*
X139959366Y-70833302D01*
X139959364Y-70833313D01*
X139939532Y-71059998D01*
X139939532Y-71060001D01*
X139959364Y-71286686D01*
X139959366Y-71286697D01*
X140018258Y-71506488D01*
X140018261Y-71506497D01*
X140114431Y-71712732D01*
X140114432Y-71712734D01*
X140222075Y-71866465D01*
X140244402Y-71932671D01*
X140244500Y-71937588D01*
X140244500Y-78008541D01*
X140244500Y-78008543D01*
X140244499Y-78008543D01*
X140282947Y-78201829D01*
X140282950Y-78201839D01*
X140358364Y-78383907D01*
X140358371Y-78383920D01*
X140467859Y-78547780D01*
X140467860Y-78547781D01*
X140467861Y-78547782D01*
X140607218Y-78687139D01*
X140607219Y-78687139D01*
X140614286Y-78694206D01*
X140614285Y-78694206D01*
X140614289Y-78694209D01*
X142037898Y-80117819D01*
X142071383Y-80179142D01*
X142066399Y-80248834D01*
X142024527Y-80304767D01*
X141959063Y-80329184D01*
X141950217Y-80329500D01*
X134680783Y-80329500D01*
X134613744Y-80309815D01*
X134593102Y-80293181D01*
X125359919Y-71059998D01*
X129779532Y-71059998D01*
X129779532Y-71060001D01*
X129799364Y-71286686D01*
X129799366Y-71286697D01*
X129858258Y-71506488D01*
X129858261Y-71506497D01*
X129954431Y-71712732D01*
X129954432Y-71712734D01*
X130084954Y-71899141D01*
X130245858Y-72060045D01*
X130431622Y-72190117D01*
X130475247Y-72244693D01*
X130484499Y-72291692D01*
X130484499Y-72359054D01*
X130484498Y-72359054D01*
X130504041Y-72431988D01*
X130525423Y-72511785D01*
X130544474Y-72544782D01*
X130554358Y-72561900D01*
X130554359Y-72561904D01*
X130554360Y-72561904D01*
X130604479Y-72648714D01*
X130604481Y-72648717D01*
X130723349Y-72767585D01*
X130723355Y-72767590D01*
X133440795Y-75485030D01*
X133474280Y-75546353D01*
X133473320Y-75603151D01*
X133428866Y-75778691D01*
X133428864Y-75778702D01*
X133409700Y-76009993D01*
X133409700Y-76010006D01*
X133428864Y-76241297D01*
X133428866Y-76241308D01*
X133485842Y-76466300D01*
X133579075Y-76678848D01*
X133706016Y-76873147D01*
X133706019Y-76873151D01*
X133706021Y-76873153D01*
X133863216Y-77043913D01*
X133863219Y-77043915D01*
X133863222Y-77043918D01*
X134046365Y-77186464D01*
X134046371Y-77186468D01*
X134046374Y-77186470D01*
X134250497Y-77296936D01*
X134364487Y-77336068D01*
X134470015Y-77372297D01*
X134470017Y-77372297D01*
X134470019Y-77372298D01*
X134698951Y-77410500D01*
X134698952Y-77410500D01*
X134931048Y-77410500D01*
X134931049Y-77410500D01*
X135159981Y-77372298D01*
X135379503Y-77296936D01*
X135583626Y-77186470D01*
X135766784Y-77043913D01*
X135775511Y-77034432D01*
X135835394Y-76998441D01*
X135905232Y-77000538D01*
X135962850Y-77040060D01*
X135982924Y-77075080D01*
X136011645Y-77152086D01*
X136011649Y-77152093D01*
X136097809Y-77267187D01*
X136097812Y-77267190D01*
X136212906Y-77353350D01*
X136212913Y-77353354D01*
X136347620Y-77403596D01*
X136347627Y-77403598D01*
X136407155Y-77409999D01*
X136407172Y-77410000D01*
X137105000Y-77410000D01*
X137105000Y-76385277D01*
X137181306Y-76429333D01*
X137295756Y-76460000D01*
X137414244Y-76460000D01*
X137528694Y-76429333D01*
X137605000Y-76385277D01*
X137605000Y-77410000D01*
X138302828Y-77410000D01*
X138302844Y-77409999D01*
X138362372Y-77403598D01*
X138362379Y-77403596D01*
X138497086Y-77353354D01*
X138497093Y-77353350D01*
X138612187Y-77267190D01*
X138612190Y-77267187D01*
X138698350Y-77152093D01*
X138698354Y-77152086D01*
X138748596Y-77017379D01*
X138748598Y-77017372D01*
X138754999Y-76957844D01*
X138755000Y-76957827D01*
X138755000Y-76260000D01*
X137730278Y-76260000D01*
X137774333Y-76183694D01*
X137805000Y-76069244D01*
X137805000Y-75950756D01*
X137774333Y-75836306D01*
X137730278Y-75760000D01*
X138755000Y-75760000D01*
X138755000Y-75062172D01*
X138754999Y-75062155D01*
X138748598Y-75002627D01*
X138748596Y-75002620D01*
X138698354Y-74867913D01*
X138698350Y-74867906D01*
X138612190Y-74752812D01*
X138612187Y-74752809D01*
X138497093Y-74666649D01*
X138497086Y-74666645D01*
X138362379Y-74616403D01*
X138362372Y-74616401D01*
X138302844Y-74610000D01*
X137605000Y-74610000D01*
X137605000Y-75634722D01*
X137528694Y-75590667D01*
X137414244Y-75560000D01*
X137295756Y-75560000D01*
X137181306Y-75590667D01*
X137105000Y-75634722D01*
X137105000Y-74610000D01*
X136407155Y-74610000D01*
X136347627Y-74616401D01*
X136347620Y-74616403D01*
X136212913Y-74666645D01*
X136212906Y-74666649D01*
X136097812Y-74752809D01*
X136097809Y-74752812D01*
X136011649Y-74867906D01*
X136011646Y-74867911D01*
X135982924Y-74944920D01*
X135941052Y-75000853D01*
X135875588Y-75025270D01*
X135807315Y-75010418D01*
X135775514Y-74985571D01*
X135766784Y-74976087D01*
X135766779Y-74976083D01*
X135766777Y-74976081D01*
X135583634Y-74833535D01*
X135583628Y-74833531D01*
X135379504Y-74723064D01*
X135379495Y-74723061D01*
X135159984Y-74647702D01*
X134972404Y-74616401D01*
X134931049Y-74609500D01*
X134698951Y-74609500D01*
X134657596Y-74616401D01*
X134470016Y-74647702D01*
X134418100Y-74665524D01*
X134348301Y-74668672D01*
X134290159Y-74635923D01*
X133114316Y-73460080D01*
X131905202Y-72250967D01*
X131871718Y-72189645D01*
X131876702Y-72119953D01*
X131918574Y-72064020D01*
X131921766Y-72061709D01*
X131924140Y-72060046D01*
X132085045Y-71899141D01*
X132085047Y-71899139D01*
X132215568Y-71712734D01*
X132311739Y-71506496D01*
X132370635Y-71286692D01*
X132390468Y-71060000D01*
X132389914Y-71053672D01*
X132370635Y-70833313D01*
X132370635Y-70833308D01*
X132311739Y-70613504D01*
X132215568Y-70407266D01*
X132085047Y-70220861D01*
X132085045Y-70220858D01*
X131924141Y-70059954D01*
X131737734Y-69929432D01*
X131737732Y-69929431D01*
X131531497Y-69833261D01*
X131531488Y-69833258D01*
X131311697Y-69774366D01*
X131311693Y-69774365D01*
X131311692Y-69774365D01*
X131311691Y-69774364D01*
X131311686Y-69774364D01*
X131085002Y-69754532D01*
X131084998Y-69754532D01*
X130858313Y-69774364D01*
X130858302Y-69774366D01*
X130638511Y-69833258D01*
X130638502Y-69833261D01*
X130432267Y-69929431D01*
X130432265Y-69929432D01*
X130245858Y-70059954D01*
X130084954Y-70220858D01*
X129954432Y-70407265D01*
X129954431Y-70407267D01*
X129858261Y-70613502D01*
X129858258Y-70613511D01*
X129799366Y-70833302D01*
X129799364Y-70833313D01*
X129779532Y-71059998D01*
X125359919Y-71059998D01*
X125251819Y-70951898D01*
X125218334Y-70890575D01*
X125215500Y-70864217D01*
X125215500Y-63265519D01*
X125235185Y-63198480D01*
X125287989Y-63152725D01*
X125357147Y-63142781D01*
X125420703Y-63171806D01*
X125427181Y-63177838D01*
X126277348Y-64028005D01*
X126310833Y-64089328D01*
X126309442Y-64147778D01*
X126304939Y-64164584D01*
X126304936Y-64164597D01*
X126284341Y-64399999D01*
X126284341Y-64400000D01*
X126304936Y-64635403D01*
X126304938Y-64635413D01*
X126366094Y-64863655D01*
X126366096Y-64863659D01*
X126366097Y-64863663D01*
X126465965Y-65077830D01*
X126465967Y-65077834D01*
X126574281Y-65232521D01*
X126601505Y-65271401D01*
X126768599Y-65438495D01*
X126937137Y-65556507D01*
X126954594Y-65568730D01*
X126998219Y-65623307D01*
X127005413Y-65692805D01*
X126973890Y-65755160D01*
X126954595Y-65771880D01*
X126768922Y-65901890D01*
X126768920Y-65901891D01*
X126601891Y-66068920D01*
X126601886Y-66068926D01*
X126466400Y-66262420D01*
X126466399Y-66262422D01*
X126366570Y-66476507D01*
X126366567Y-66476513D01*
X126309364Y-66689999D01*
X126309364Y-66690000D01*
X127206988Y-66690000D01*
X127174075Y-66747007D01*
X127140000Y-66874174D01*
X127140000Y-67005826D01*
X127174075Y-67132993D01*
X127206988Y-67190000D01*
X126309364Y-67190000D01*
X126366567Y-67403486D01*
X126366570Y-67403492D01*
X126466399Y-67617578D01*
X126601894Y-67811082D01*
X126768917Y-67978105D01*
X126962421Y-68113600D01*
X127176507Y-68213429D01*
X127176516Y-68213433D01*
X127390000Y-68270634D01*
X127390000Y-67373012D01*
X127447007Y-67405925D01*
X127574174Y-67440000D01*
X127705826Y-67440000D01*
X127832993Y-67405925D01*
X127890000Y-67373012D01*
X127890000Y-68270633D01*
X128103483Y-68213433D01*
X128103492Y-68213429D01*
X128317578Y-68113600D01*
X128511082Y-67978105D01*
X128678105Y-67811082D01*
X128813600Y-67617578D01*
X128913429Y-67403492D01*
X128913432Y-67403486D01*
X128970636Y-67190000D01*
X128073012Y-67190000D01*
X128105925Y-67132993D01*
X128140000Y-67005826D01*
X128140000Y-66874174D01*
X128105925Y-66747007D01*
X128073012Y-66690000D01*
X128970636Y-66690000D01*
X128970635Y-66689999D01*
X128913432Y-66476513D01*
X128913429Y-66476507D01*
X128875421Y-66394998D01*
X142279532Y-66394998D01*
X142279532Y-66395001D01*
X142299364Y-66621686D01*
X142299366Y-66621697D01*
X142358258Y-66841488D01*
X142358261Y-66841497D01*
X142454431Y-67047732D01*
X142454432Y-67047734D01*
X142584954Y-67234141D01*
X142745858Y-67395045D01*
X142767308Y-67410064D01*
X142931624Y-67525118D01*
X142975248Y-67579693D01*
X142984500Y-67626692D01*
X142984500Y-72193330D01*
X142984499Y-72193348D01*
X142984499Y-72359054D01*
X142984498Y-72359054D01*
X143004041Y-72431988D01*
X143025423Y-72511785D01*
X143044474Y-72544782D01*
X143054358Y-72561900D01*
X143054359Y-72561904D01*
X143054360Y-72561904D01*
X143104479Y-72648714D01*
X143104481Y-72648717D01*
X143223349Y-72767585D01*
X143223355Y-72767590D01*
X145940795Y-75485030D01*
X145974280Y-75546353D01*
X145973320Y-75603151D01*
X145928866Y-75778691D01*
X145928864Y-75778702D01*
X145909700Y-76009993D01*
X145909700Y-76010006D01*
X145928864Y-76241297D01*
X145928866Y-76241308D01*
X145985842Y-76466300D01*
X146079075Y-76678848D01*
X146206016Y-76873147D01*
X146206019Y-76873151D01*
X146206021Y-76873153D01*
X146363216Y-77043913D01*
X146363219Y-77043915D01*
X146363222Y-77043918D01*
X146546365Y-77186464D01*
X146546371Y-77186468D01*
X146546374Y-77186470D01*
X146750497Y-77296936D01*
X146864487Y-77336068D01*
X146970015Y-77372297D01*
X146970017Y-77372297D01*
X146970019Y-77372298D01*
X147198951Y-77410500D01*
X147198952Y-77410500D01*
X147431048Y-77410500D01*
X147431049Y-77410500D01*
X147659981Y-77372298D01*
X147879503Y-77296936D01*
X148083626Y-77186470D01*
X148266784Y-77043913D01*
X148275511Y-77034432D01*
X148335394Y-76998441D01*
X148405232Y-77000538D01*
X148462850Y-77040060D01*
X148482924Y-77075080D01*
X148511645Y-77152086D01*
X148511649Y-77152093D01*
X148597809Y-77267187D01*
X148597812Y-77267190D01*
X148712906Y-77353350D01*
X148712913Y-77353354D01*
X148847620Y-77403596D01*
X148847627Y-77403598D01*
X148907155Y-77409999D01*
X148907172Y-77410000D01*
X149605000Y-77410000D01*
X149605000Y-76385277D01*
X149681306Y-76429333D01*
X149795756Y-76460000D01*
X149914244Y-76460000D01*
X150028694Y-76429333D01*
X150105000Y-76385277D01*
X150105000Y-77410000D01*
X150802828Y-77410000D01*
X150802844Y-77409999D01*
X150862372Y-77403598D01*
X150862379Y-77403596D01*
X150997086Y-77353354D01*
X150997093Y-77353350D01*
X151112187Y-77267190D01*
X151112190Y-77267187D01*
X151198350Y-77152093D01*
X151198354Y-77152086D01*
X151248596Y-77017379D01*
X151248598Y-77017372D01*
X151254999Y-76957844D01*
X151255000Y-76957827D01*
X151255000Y-76260000D01*
X150230278Y-76260000D01*
X150274333Y-76183694D01*
X150305000Y-76069244D01*
X150305000Y-75950756D01*
X150274333Y-75836306D01*
X150230278Y-75760000D01*
X151255000Y-75760000D01*
X151255000Y-75062172D01*
X151254999Y-75062155D01*
X151248598Y-75002627D01*
X151248596Y-75002620D01*
X151198354Y-74867913D01*
X151198350Y-74867906D01*
X151112190Y-74752812D01*
X151112187Y-74752809D01*
X150997093Y-74666649D01*
X150997086Y-74666645D01*
X150862379Y-74616403D01*
X150862372Y-74616401D01*
X150802844Y-74610000D01*
X150105000Y-74610000D01*
X150105000Y-75634722D01*
X150028694Y-75590667D01*
X149914244Y-75560000D01*
X149795756Y-75560000D01*
X149681306Y-75590667D01*
X149605000Y-75634722D01*
X149605000Y-74610000D01*
X148907155Y-74610000D01*
X148847627Y-74616401D01*
X148847620Y-74616403D01*
X148712913Y-74666645D01*
X148712906Y-74666649D01*
X148597812Y-74752809D01*
X148597809Y-74752812D01*
X148511649Y-74867906D01*
X148511646Y-74867911D01*
X148482924Y-74944920D01*
X148441052Y-75000853D01*
X148375588Y-75025270D01*
X148307315Y-75010418D01*
X148275514Y-74985571D01*
X148266784Y-74976087D01*
X148266779Y-74976083D01*
X148266777Y-74976081D01*
X148083634Y-74833535D01*
X148083628Y-74833531D01*
X147879504Y-74723064D01*
X147879495Y-74723061D01*
X147659984Y-74647702D01*
X147472404Y-74616401D01*
X147431049Y-74609500D01*
X147198951Y-74609500D01*
X147157596Y-74616401D01*
X146970016Y-74647702D01*
X146918100Y-74665524D01*
X146848301Y-74668672D01*
X146790159Y-74635923D01*
X144221819Y-72067583D01*
X144188334Y-72006260D01*
X144185500Y-71979902D01*
X144185500Y-67626692D01*
X144205185Y-67559653D01*
X144238374Y-67525119D01*
X144424139Y-67395047D01*
X144585047Y-67234139D01*
X144715568Y-67047734D01*
X144811739Y-66841496D01*
X144870635Y-66621692D01*
X144890468Y-66395000D01*
X144870635Y-66168308D01*
X144811739Y-65948504D01*
X144715568Y-65742266D01*
X144605064Y-65584449D01*
X144585045Y-65555858D01*
X144424141Y-65394954D01*
X144237734Y-65264432D01*
X144237732Y-65264431D01*
X144031497Y-65168261D01*
X144031488Y-65168258D01*
X143811697Y-65109366D01*
X143811693Y-65109365D01*
X143811692Y-65109365D01*
X143811691Y-65109364D01*
X143811686Y-65109364D01*
X143585002Y-65089532D01*
X143584998Y-65089532D01*
X143358313Y-65109364D01*
X143358302Y-65109366D01*
X143138511Y-65168258D01*
X143138502Y-65168261D01*
X142932267Y-65264431D01*
X142932265Y-65264432D01*
X142745858Y-65394954D01*
X142584954Y-65555858D01*
X142454432Y-65742265D01*
X142454431Y-65742267D01*
X142358261Y-65948502D01*
X142358258Y-65948511D01*
X142299366Y-66168302D01*
X142299364Y-66168313D01*
X142279532Y-66394998D01*
X128875421Y-66394998D01*
X128813600Y-66262422D01*
X128813599Y-66262420D01*
X128678113Y-66068926D01*
X128678108Y-66068920D01*
X128511078Y-65901890D01*
X128325405Y-65771879D01*
X128281780Y-65717302D01*
X128274588Y-65647804D01*
X128306110Y-65585449D01*
X128325406Y-65568730D01*
X128511401Y-65438495D01*
X128678495Y-65271401D01*
X128814035Y-65077830D01*
X128913903Y-64863663D01*
X128975063Y-64635408D01*
X128995659Y-64400000D01*
X128975063Y-64164592D01*
X128913903Y-63936337D01*
X128814035Y-63722171D01*
X128678495Y-63528599D01*
X128678494Y-63528597D01*
X128511402Y-63361506D01*
X128511396Y-63361501D01*
X128325842Y-63231575D01*
X128282217Y-63176998D01*
X128275023Y-63107500D01*
X128306546Y-63045145D01*
X128325842Y-63028425D01*
X128348026Y-63012891D01*
X128511401Y-62898495D01*
X128678495Y-62731401D01*
X128814035Y-62537830D01*
X128913903Y-62323663D01*
X128975063Y-62095408D01*
X128995659Y-61860000D01*
X128975063Y-61624592D01*
X128913903Y-61396337D01*
X128890851Y-61346904D01*
X128880360Y-61277828D01*
X128908879Y-61214044D01*
X128967356Y-61175804D01*
X129003234Y-61170500D01*
X152068542Y-61170500D01*
X152087870Y-61166655D01*
X152165188Y-61151275D01*
X152261836Y-61132051D01*
X152315165Y-61109961D01*
X152443914Y-61056632D01*
X152551610Y-60984671D01*
X152618286Y-60963794D01*
X152685667Y-60982278D01*
X152732357Y-61034257D01*
X152744500Y-61087774D01*
X152744500Y-65517410D01*
X152724815Y-65584449D01*
X152722076Y-65588532D01*
X152614431Y-65742267D01*
X152518261Y-65948502D01*
X152518258Y-65948511D01*
X152459366Y-66168302D01*
X152459364Y-66168313D01*
X152439532Y-66394998D01*
X152439532Y-66395001D01*
X152459364Y-66621686D01*
X152459366Y-66621697D01*
X152518258Y-66841488D01*
X152518261Y-66841497D01*
X152614431Y-67047732D01*
X152614432Y-67047734D01*
X152744954Y-67234141D01*
X152905858Y-67395045D01*
X152952693Y-67427839D01*
X153092266Y-67525568D01*
X153298504Y-67621739D01*
X153518308Y-67680635D01*
X153680230Y-67694801D01*
X153744998Y-67700468D01*
X153745000Y-67700468D01*
X153745002Y-67700468D01*
X153801673Y-67695509D01*
X153971692Y-67680635D01*
X154191496Y-67621739D01*
X154397734Y-67525568D01*
X154512801Y-67444998D01*
X157279532Y-67444998D01*
X157279532Y-67445001D01*
X157299364Y-67671686D01*
X157299366Y-67671697D01*
X157358258Y-67891488D01*
X157358261Y-67891497D01*
X157454431Y-68097732D01*
X157454432Y-68097734D01*
X157584954Y-68284141D01*
X157745858Y-68445045D01*
X157931622Y-68575117D01*
X157975247Y-68629693D01*
X157984499Y-68676692D01*
X157984499Y-68744054D01*
X157984498Y-68744054D01*
X158025423Y-68896785D01*
X158054358Y-68946900D01*
X158054359Y-68946904D01*
X158054360Y-68946904D01*
X158104479Y-69033714D01*
X158104481Y-69033717D01*
X158223349Y-69152585D01*
X158223355Y-69152590D01*
X160940795Y-71870030D01*
X160974280Y-71931353D01*
X160973320Y-71988151D01*
X160928866Y-72163691D01*
X160928864Y-72163702D01*
X160909700Y-72394993D01*
X160909700Y-72395006D01*
X160928864Y-72626297D01*
X160928866Y-72626308D01*
X160985842Y-72851300D01*
X161079075Y-73063848D01*
X161206016Y-73258147D01*
X161206019Y-73258151D01*
X161206021Y-73258153D01*
X161363216Y-73428913D01*
X161363219Y-73428915D01*
X161363222Y-73428918D01*
X161546365Y-73571464D01*
X161546371Y-73571468D01*
X161546374Y-73571470D01*
X161750497Y-73681936D01*
X161864487Y-73721068D01*
X161970015Y-73757297D01*
X161970017Y-73757297D01*
X161970019Y-73757298D01*
X162198951Y-73795500D01*
X162198952Y-73795500D01*
X162431048Y-73795500D01*
X162431049Y-73795500D01*
X162659981Y-73757298D01*
X162879503Y-73681936D01*
X163083626Y-73571470D01*
X163266784Y-73428913D01*
X163275511Y-73419432D01*
X163335394Y-73383441D01*
X163405232Y-73385538D01*
X163462850Y-73425060D01*
X163482924Y-73460080D01*
X163511645Y-73537086D01*
X163511649Y-73537093D01*
X163597809Y-73652187D01*
X163597812Y-73652190D01*
X163712906Y-73738350D01*
X163712913Y-73738354D01*
X163847620Y-73788596D01*
X163847627Y-73788598D01*
X163907155Y-73794999D01*
X163907172Y-73795000D01*
X164605000Y-73795000D01*
X164605000Y-72770277D01*
X164681306Y-72814333D01*
X164795756Y-72845000D01*
X164914244Y-72845000D01*
X165028694Y-72814333D01*
X165105000Y-72770277D01*
X165105000Y-73795000D01*
X165802828Y-73795000D01*
X165802844Y-73794999D01*
X165862372Y-73788598D01*
X165862379Y-73788596D01*
X165997086Y-73738354D01*
X165997093Y-73738350D01*
X166112187Y-73652190D01*
X166112190Y-73652187D01*
X166198350Y-73537093D01*
X166198354Y-73537086D01*
X166248596Y-73402379D01*
X166248598Y-73402372D01*
X166254999Y-73342844D01*
X166255000Y-73342827D01*
X166255000Y-72645000D01*
X165230278Y-72645000D01*
X165274333Y-72568694D01*
X165305000Y-72454244D01*
X165305000Y-72335756D01*
X165274333Y-72221306D01*
X165230278Y-72145000D01*
X166255000Y-72145000D01*
X166255000Y-71447172D01*
X166254999Y-71447155D01*
X166248598Y-71387627D01*
X166248596Y-71387620D01*
X166198354Y-71252913D01*
X166198350Y-71252906D01*
X166112190Y-71137812D01*
X166112187Y-71137809D01*
X165997093Y-71051649D01*
X165997086Y-71051645D01*
X165862379Y-71001403D01*
X165862372Y-71001401D01*
X165802844Y-70995000D01*
X165105000Y-70995000D01*
X165105000Y-72019722D01*
X165028694Y-71975667D01*
X164914244Y-71945000D01*
X164795756Y-71945000D01*
X164681306Y-71975667D01*
X164605000Y-72019722D01*
X164605000Y-70995000D01*
X163907155Y-70995000D01*
X163847627Y-71001401D01*
X163847620Y-71001403D01*
X163712913Y-71051645D01*
X163712906Y-71051649D01*
X163597812Y-71137809D01*
X163597809Y-71137812D01*
X163511649Y-71252906D01*
X163511646Y-71252911D01*
X163482924Y-71329920D01*
X163441052Y-71385853D01*
X163375588Y-71410270D01*
X163307315Y-71395418D01*
X163275514Y-71370571D01*
X163266784Y-71361087D01*
X163266779Y-71361083D01*
X163266777Y-71361081D01*
X163083634Y-71218535D01*
X163083628Y-71218531D01*
X162879504Y-71108064D01*
X162879495Y-71108061D01*
X162659984Y-71032702D01*
X162472404Y-71001401D01*
X162431049Y-70994500D01*
X162198951Y-70994500D01*
X162157596Y-71001401D01*
X161970016Y-71032702D01*
X161918100Y-71050524D01*
X161848301Y-71053672D01*
X161790159Y-71020923D01*
X159405203Y-68635968D01*
X159371718Y-68574645D01*
X159376702Y-68504953D01*
X159418574Y-68449020D01*
X159421766Y-68446709D01*
X159424140Y-68445046D01*
X159585045Y-68284141D01*
X159585047Y-68284139D01*
X159715568Y-68097734D01*
X159811739Y-67891496D01*
X159870635Y-67671692D01*
X159890468Y-67445000D01*
X159886097Y-67395045D01*
X159881290Y-67340099D01*
X159870635Y-67218308D01*
X159811739Y-66998504D01*
X159715568Y-66792266D01*
X159585047Y-66605861D01*
X159585045Y-66605858D01*
X159424141Y-66444954D01*
X159237734Y-66314432D01*
X159237732Y-66314431D01*
X159031497Y-66218261D01*
X159031488Y-66218258D01*
X158811697Y-66159366D01*
X158811693Y-66159365D01*
X158811692Y-66159365D01*
X158811691Y-66159364D01*
X158811686Y-66159364D01*
X158585002Y-66139532D01*
X158584998Y-66139532D01*
X158358313Y-66159364D01*
X158358302Y-66159366D01*
X158138511Y-66218258D01*
X158138502Y-66218261D01*
X157932267Y-66314431D01*
X157932265Y-66314432D01*
X157745858Y-66444954D01*
X157584954Y-66605858D01*
X157454432Y-66792265D01*
X157454431Y-66792267D01*
X157358261Y-66998502D01*
X157358258Y-66998511D01*
X157299366Y-67218302D01*
X157299364Y-67218313D01*
X157279532Y-67444998D01*
X154512801Y-67444998D01*
X154584139Y-67395047D01*
X154745047Y-67234139D01*
X154875568Y-67047734D01*
X154971739Y-66841496D01*
X155030635Y-66621692D01*
X155050468Y-66395000D01*
X155030635Y-66168308D01*
X154971739Y-65948504D01*
X154875568Y-65742266D01*
X154767924Y-65588532D01*
X154745597Y-65522326D01*
X154745500Y-65517410D01*
X154745500Y-59272588D01*
X154765185Y-59205549D01*
X154767925Y-59201465D01*
X154790307Y-59169500D01*
X154875568Y-59047734D01*
X154971739Y-58841496D01*
X155030635Y-58621692D01*
X155050468Y-58395000D01*
X155030635Y-58168308D01*
X154985000Y-57997994D01*
X154971741Y-57948511D01*
X154971738Y-57948502D01*
X154948238Y-57898107D01*
X154875568Y-57742266D01*
X154745047Y-57555861D01*
X154745045Y-57555858D01*
X154584141Y-57394954D01*
X154454883Y-57304448D01*
X162514500Y-57304448D01*
X162514500Y-57485551D01*
X162542829Y-57664410D01*
X162598787Y-57836636D01*
X162598788Y-57836639D01*
X162654664Y-57946300D01*
X162675680Y-57987546D01*
X162681006Y-57997997D01*
X162787441Y-58144494D01*
X162787445Y-58144499D01*
X162915500Y-58272554D01*
X162915505Y-58272558D01*
X163043287Y-58365396D01*
X163062006Y-58378996D01*
X163167484Y-58432740D01*
X163223360Y-58461211D01*
X163223363Y-58461212D01*
X163309476Y-58489191D01*
X163395591Y-58517171D01*
X163478429Y-58530291D01*
X163574449Y-58545500D01*
X163574454Y-58545500D01*
X163755551Y-58545500D01*
X163842259Y-58531765D01*
X163934409Y-58517171D01*
X164106639Y-58461211D01*
X164236589Y-58394998D01*
X172279532Y-58394998D01*
X172279532Y-58395001D01*
X172299364Y-58621686D01*
X172299366Y-58621697D01*
X172358258Y-58841488D01*
X172358261Y-58841497D01*
X172454431Y-59047732D01*
X172454432Y-59047734D01*
X172584954Y-59234141D01*
X172745858Y-59395045D01*
X172745861Y-59395047D01*
X172932266Y-59525568D01*
X173138504Y-59621739D01*
X173358308Y-59680635D01*
X173520230Y-59694801D01*
X173584998Y-59700468D01*
X173585000Y-59700468D01*
X173585002Y-59700468D01*
X173641673Y-59695509D01*
X173811692Y-59680635D01*
X174031496Y-59621739D01*
X174237734Y-59525568D01*
X174424139Y-59395047D01*
X174585047Y-59234139D01*
X174715568Y-59047734D01*
X174811739Y-58841496D01*
X174870635Y-58621692D01*
X174890468Y-58395000D01*
X174870635Y-58168308D01*
X174845311Y-58073797D01*
X174844847Y-58072066D01*
X174846510Y-58002217D01*
X174876939Y-57952294D01*
X177795520Y-55033716D01*
X177874577Y-54896784D01*
X177915501Y-54744057D01*
X177915501Y-54585942D01*
X177915501Y-54578347D01*
X177915500Y-54578329D01*
X177915500Y-52351343D01*
X177935185Y-52284304D01*
X177980483Y-52242288D01*
X178083626Y-52186470D01*
X178122235Y-52156420D01*
X178226740Y-52075080D01*
X178266784Y-52043913D01*
X178275511Y-52034432D01*
X178335394Y-51998441D01*
X178405232Y-52000538D01*
X178462850Y-52040060D01*
X178482924Y-52075080D01*
X178511645Y-52152086D01*
X178511649Y-52152093D01*
X178597809Y-52267187D01*
X178597812Y-52267190D01*
X178712906Y-52353350D01*
X178712913Y-52353354D01*
X178847620Y-52403596D01*
X178847627Y-52403598D01*
X178907155Y-52409999D01*
X178907172Y-52410000D01*
X179605000Y-52410000D01*
X179605000Y-51385277D01*
X179681306Y-51429333D01*
X179795756Y-51460000D01*
X179914244Y-51460000D01*
X180028694Y-51429333D01*
X180105000Y-51385277D01*
X180105000Y-52410000D01*
X180802828Y-52410000D01*
X180802844Y-52409999D01*
X180862372Y-52403598D01*
X180862379Y-52403596D01*
X180997086Y-52353354D01*
X180997093Y-52353350D01*
X181112187Y-52267190D01*
X181112190Y-52267187D01*
X181198350Y-52152093D01*
X181198354Y-52152086D01*
X181248596Y-52017379D01*
X181248598Y-52017372D01*
X181254999Y-51957844D01*
X181255000Y-51957827D01*
X181255000Y-51260000D01*
X180230278Y-51260000D01*
X180274333Y-51183694D01*
X180305000Y-51069244D01*
X180305000Y-50950756D01*
X180274333Y-50836306D01*
X180230278Y-50760000D01*
X181255000Y-50760000D01*
X181255000Y-50062172D01*
X181254999Y-50062155D01*
X181248598Y-50002627D01*
X181248596Y-50002620D01*
X181198354Y-49867913D01*
X181198350Y-49867906D01*
X181112190Y-49752812D01*
X181112187Y-49752809D01*
X180997093Y-49666649D01*
X180997086Y-49666645D01*
X180862379Y-49616403D01*
X180862372Y-49616401D01*
X180802844Y-49610000D01*
X180105000Y-49610000D01*
X180105000Y-50634722D01*
X180028694Y-50590667D01*
X179914244Y-50560000D01*
X179795756Y-50560000D01*
X179681306Y-50590667D01*
X179605000Y-50634722D01*
X179605000Y-49610000D01*
X178907155Y-49610000D01*
X178847627Y-49616401D01*
X178847620Y-49616403D01*
X178712913Y-49666645D01*
X178712906Y-49666649D01*
X178597812Y-49752809D01*
X178597809Y-49752812D01*
X178511649Y-49867906D01*
X178511646Y-49867911D01*
X178482924Y-49944920D01*
X178441052Y-50000853D01*
X178375588Y-50025270D01*
X178307315Y-50010418D01*
X178275514Y-49985571D01*
X178266784Y-49976087D01*
X178266779Y-49976083D01*
X178266777Y-49976081D01*
X178083634Y-49833535D01*
X178083628Y-49833531D01*
X177879504Y-49723064D01*
X177879495Y-49723061D01*
X177659984Y-49647702D01*
X177472404Y-49616401D01*
X177431049Y-49609500D01*
X177198951Y-49609500D01*
X177157596Y-49616401D01*
X176970015Y-49647702D01*
X176750504Y-49723061D01*
X176750495Y-49723064D01*
X176546371Y-49833531D01*
X176546365Y-49833535D01*
X176363222Y-49976081D01*
X176363219Y-49976084D01*
X176363216Y-49976086D01*
X176363216Y-49976087D01*
X176338791Y-50002620D01*
X176206016Y-50146852D01*
X176079075Y-50341151D01*
X175985842Y-50553699D01*
X175928866Y-50778691D01*
X175928864Y-50778702D01*
X175909700Y-51009993D01*
X175909700Y-51010006D01*
X175928864Y-51241297D01*
X175928866Y-51241308D01*
X175985842Y-51466300D01*
X176079075Y-51678848D01*
X176206016Y-51873147D01*
X176206019Y-51873151D01*
X176206021Y-51873153D01*
X176363216Y-52043913D01*
X176363219Y-52043915D01*
X176363222Y-52043918D01*
X176546365Y-52186464D01*
X176546376Y-52186471D01*
X176649517Y-52242288D01*
X176699108Y-52291507D01*
X176714500Y-52351343D01*
X176714500Y-54364902D01*
X176694815Y-54431941D01*
X176678181Y-54452583D01*
X174027705Y-57103058D01*
X173966382Y-57136543D01*
X173907931Y-57135152D01*
X173811697Y-57109366D01*
X173811693Y-57109365D01*
X173811692Y-57109365D01*
X173811691Y-57109364D01*
X173811686Y-57109364D01*
X173585002Y-57089532D01*
X173584998Y-57089532D01*
X173358313Y-57109364D01*
X173358302Y-57109366D01*
X173138511Y-57168258D01*
X173138502Y-57168261D01*
X172932267Y-57264431D01*
X172932265Y-57264432D01*
X172745858Y-57394954D01*
X172584954Y-57555858D01*
X172454432Y-57742265D01*
X172454431Y-57742267D01*
X172358261Y-57948502D01*
X172358258Y-57948511D01*
X172299366Y-58168302D01*
X172299364Y-58168313D01*
X172279532Y-58394998D01*
X164236589Y-58394998D01*
X164267994Y-58378996D01*
X164414501Y-58272553D01*
X164542553Y-58144501D01*
X164648996Y-57997994D01*
X164731211Y-57836639D01*
X164787171Y-57664409D01*
X164804364Y-57555858D01*
X164815500Y-57485551D01*
X164815500Y-57304448D01*
X164793929Y-57168261D01*
X164787171Y-57125591D01*
X164731211Y-56953361D01*
X164731211Y-56953360D01*
X164688443Y-56869425D01*
X164648996Y-56792006D01*
X164590692Y-56711757D01*
X164542558Y-56645505D01*
X164542554Y-56645500D01*
X164414499Y-56517445D01*
X164414494Y-56517441D01*
X164267997Y-56411006D01*
X164267996Y-56411005D01*
X164267994Y-56411004D01*
X164216300Y-56384664D01*
X164106639Y-56328788D01*
X164106636Y-56328787D01*
X163934410Y-56272829D01*
X163755551Y-56244500D01*
X163755546Y-56244500D01*
X163574454Y-56244500D01*
X163574449Y-56244500D01*
X163395589Y-56272829D01*
X163223363Y-56328787D01*
X163223360Y-56328788D01*
X163062002Y-56411006D01*
X162915505Y-56517441D01*
X162915500Y-56517445D01*
X162787445Y-56645500D01*
X162787441Y-56645505D01*
X162681006Y-56792002D01*
X162598788Y-56953360D01*
X162598787Y-56953363D01*
X162542829Y-57125589D01*
X162514500Y-57304448D01*
X154454883Y-57304448D01*
X154397734Y-57264432D01*
X154397732Y-57264431D01*
X154191497Y-57168261D01*
X154191488Y-57168258D01*
X153971697Y-57109366D01*
X153971693Y-57109365D01*
X153971692Y-57109365D01*
X153971691Y-57109364D01*
X153971686Y-57109364D01*
X153745002Y-57089532D01*
X153744998Y-57089532D01*
X153518313Y-57109364D01*
X153518302Y-57109366D01*
X153298511Y-57168258D01*
X153298502Y-57168261D01*
X153092267Y-57264431D01*
X153092265Y-57264432D01*
X152905858Y-57394954D01*
X152744954Y-57555858D01*
X152614432Y-57742265D01*
X152614431Y-57742267D01*
X152518261Y-57948502D01*
X152518258Y-57948511D01*
X152459366Y-58168302D01*
X152459364Y-58168311D01*
X152453958Y-58230096D01*
X152428504Y-58295164D01*
X152418111Y-58306967D01*
X151591899Y-59133181D01*
X151530576Y-59166666D01*
X151504218Y-59169500D01*
X144853429Y-59169500D01*
X144786390Y-59149815D01*
X144740635Y-59097011D01*
X144730691Y-59027853D01*
X144741047Y-58993095D01*
X144750817Y-58972140D01*
X144811739Y-58841496D01*
X144870635Y-58621692D01*
X144890468Y-58395000D01*
X144870635Y-58168308D01*
X144845311Y-58073797D01*
X144844847Y-58072066D01*
X144846510Y-58002217D01*
X144876939Y-57952294D01*
X147684236Y-55145000D01*
X155487769Y-55145000D01*
X156866518Y-55145000D01*
X156855889Y-55163409D01*
X156815000Y-55316009D01*
X156815000Y-55473991D01*
X156855889Y-55626591D01*
X156866518Y-55645000D01*
X155487769Y-55645000D01*
X155498242Y-55711126D01*
X155498242Y-55711129D01*
X155563904Y-55913217D01*
X155660379Y-56102557D01*
X155785272Y-56274459D01*
X155785276Y-56274464D01*
X155935535Y-56424723D01*
X155935540Y-56424727D01*
X156107442Y-56549620D01*
X156296782Y-56646095D01*
X156498870Y-56711757D01*
X156708754Y-56745000D01*
X157165000Y-56745000D01*
X157165000Y-55943482D01*
X157183409Y-55954111D01*
X157336009Y-55995000D01*
X157493991Y-55995000D01*
X157646591Y-55954111D01*
X157665000Y-55943482D01*
X157665000Y-56745000D01*
X158121246Y-56745000D01*
X158331127Y-56711757D01*
X158331130Y-56711757D01*
X158533217Y-56646095D01*
X158722557Y-56549620D01*
X158894459Y-56424727D01*
X158894464Y-56424723D01*
X159044723Y-56274464D01*
X159044727Y-56274459D01*
X159169620Y-56102557D01*
X159266095Y-55913217D01*
X159331757Y-55711129D01*
X159331757Y-55711126D01*
X159342231Y-55645000D01*
X157963482Y-55645000D01*
X157974111Y-55626591D01*
X158015000Y-55473991D01*
X158015000Y-55316009D01*
X157974111Y-55163409D01*
X157963482Y-55145000D01*
X159342231Y-55145000D01*
X167987769Y-55145000D01*
X169366518Y-55145000D01*
X169355889Y-55163409D01*
X169315000Y-55316009D01*
X169315000Y-55473991D01*
X169355889Y-55626591D01*
X169366518Y-55645000D01*
X167987769Y-55645000D01*
X167998242Y-55711126D01*
X167998242Y-55711129D01*
X168063904Y-55913217D01*
X168160379Y-56102557D01*
X168285272Y-56274459D01*
X168285276Y-56274464D01*
X168435535Y-56424723D01*
X168435540Y-56424727D01*
X168607442Y-56549620D01*
X168796782Y-56646095D01*
X168998870Y-56711757D01*
X169208754Y-56745000D01*
X169665000Y-56745000D01*
X169665000Y-55943482D01*
X169683409Y-55954111D01*
X169836009Y-55995000D01*
X169993991Y-55995000D01*
X170146591Y-55954111D01*
X170165000Y-55943482D01*
X170165000Y-56745000D01*
X170621246Y-56745000D01*
X170831127Y-56711757D01*
X170831130Y-56711757D01*
X171033217Y-56646095D01*
X171222557Y-56549620D01*
X171394459Y-56424727D01*
X171394464Y-56424723D01*
X171544723Y-56274464D01*
X171544727Y-56274459D01*
X171669620Y-56102557D01*
X171766095Y-55913217D01*
X171831757Y-55711129D01*
X171831757Y-55711126D01*
X171842231Y-55645000D01*
X170463482Y-55645000D01*
X170474111Y-55626591D01*
X170515000Y-55473991D01*
X170515000Y-55316009D01*
X170474111Y-55163409D01*
X170463482Y-55145000D01*
X171842231Y-55145000D01*
X171831757Y-55078873D01*
X171831757Y-55078870D01*
X171766095Y-54876782D01*
X171669620Y-54687442D01*
X171544727Y-54515540D01*
X171544723Y-54515535D01*
X171394464Y-54365276D01*
X171394459Y-54365272D01*
X171222557Y-54240379D01*
X171033217Y-54143904D01*
X170831129Y-54078242D01*
X170621246Y-54045000D01*
X170165000Y-54045000D01*
X170165000Y-54846517D01*
X170146591Y-54835889D01*
X169993991Y-54795000D01*
X169836009Y-54795000D01*
X169683409Y-54835889D01*
X169665000Y-54846517D01*
X169665000Y-54045000D01*
X169208754Y-54045000D01*
X168998872Y-54078242D01*
X168998869Y-54078242D01*
X168796782Y-54143904D01*
X168607442Y-54240379D01*
X168435540Y-54365272D01*
X168435535Y-54365276D01*
X168285276Y-54515535D01*
X168285272Y-54515540D01*
X168160379Y-54687442D01*
X168063904Y-54876782D01*
X167998242Y-55078870D01*
X167998242Y-55078873D01*
X167987769Y-55145000D01*
X159342231Y-55145000D01*
X159331757Y-55078873D01*
X159331757Y-55078870D01*
X159266095Y-54876782D01*
X159169620Y-54687442D01*
X159044727Y-54515540D01*
X159044723Y-54515535D01*
X158894464Y-54365276D01*
X158894459Y-54365272D01*
X158722557Y-54240379D01*
X158533217Y-54143904D01*
X158331129Y-54078242D01*
X158121246Y-54045000D01*
X157665000Y-54045000D01*
X157665000Y-54846517D01*
X157646591Y-54835889D01*
X157493991Y-54795000D01*
X157336009Y-54795000D01*
X157183409Y-54835889D01*
X157165000Y-54846517D01*
X157165000Y-54045000D01*
X156708754Y-54045000D01*
X156498872Y-54078242D01*
X156498869Y-54078242D01*
X156296782Y-54143904D01*
X156107442Y-54240379D01*
X155935540Y-54365272D01*
X155935535Y-54365276D01*
X155785276Y-54515535D01*
X155785272Y-54515540D01*
X155660379Y-54687442D01*
X155563904Y-54876782D01*
X155498242Y-55078870D01*
X155498242Y-55078873D01*
X155487769Y-55145000D01*
X147684236Y-55145000D01*
X147795520Y-55033716D01*
X147874577Y-54896784D01*
X147915501Y-54744057D01*
X147915501Y-54585942D01*
X147915501Y-54578347D01*
X147915500Y-54578329D01*
X147915500Y-52351343D01*
X147935185Y-52284304D01*
X147980483Y-52242288D01*
X148083626Y-52186470D01*
X148122235Y-52156420D01*
X148226740Y-52075080D01*
X148266784Y-52043913D01*
X148275511Y-52034432D01*
X148335394Y-51998441D01*
X148405232Y-52000538D01*
X148462850Y-52040060D01*
X148482924Y-52075080D01*
X148511645Y-52152086D01*
X148511649Y-52152093D01*
X148597809Y-52267187D01*
X148597812Y-52267190D01*
X148712906Y-52353350D01*
X148712913Y-52353354D01*
X148847620Y-52403596D01*
X148847627Y-52403598D01*
X148907155Y-52409999D01*
X148907172Y-52410000D01*
X149605000Y-52410000D01*
X149605000Y-51385277D01*
X149681306Y-51429333D01*
X149795756Y-51460000D01*
X149914244Y-51460000D01*
X150028694Y-51429333D01*
X150105000Y-51385277D01*
X150105000Y-52410000D01*
X150802828Y-52410000D01*
X150802844Y-52409999D01*
X150862372Y-52403598D01*
X150862379Y-52403596D01*
X150997086Y-52353354D01*
X150997093Y-52353350D01*
X151112187Y-52267190D01*
X151112190Y-52267187D01*
X151198350Y-52152093D01*
X151198354Y-52152086D01*
X151248596Y-52017379D01*
X151248598Y-52017372D01*
X151254999Y-51957844D01*
X151255000Y-51957827D01*
X151255000Y-51260000D01*
X150230278Y-51260000D01*
X150274333Y-51183694D01*
X150305000Y-51069244D01*
X150305000Y-50950756D01*
X150274333Y-50836306D01*
X150230278Y-50760000D01*
X151255000Y-50760000D01*
X151255000Y-50062172D01*
X151254999Y-50062155D01*
X151248598Y-50002627D01*
X151248596Y-50002620D01*
X151198354Y-49867913D01*
X151198350Y-49867906D01*
X151112190Y-49752812D01*
X151112187Y-49752809D01*
X150997093Y-49666649D01*
X150997086Y-49666645D01*
X150862379Y-49616403D01*
X150862372Y-49616401D01*
X150802844Y-49610000D01*
X150105000Y-49610000D01*
X150105000Y-50634722D01*
X150028694Y-50590667D01*
X149914244Y-50560000D01*
X149795756Y-50560000D01*
X149681306Y-50590667D01*
X149605000Y-50634722D01*
X149605000Y-49610000D01*
X148907155Y-49610000D01*
X148847627Y-49616401D01*
X148847620Y-49616403D01*
X148712913Y-49666645D01*
X148712906Y-49666649D01*
X148597812Y-49752809D01*
X148597809Y-49752812D01*
X148511649Y-49867906D01*
X148511646Y-49867911D01*
X148482924Y-49944920D01*
X148441052Y-50000853D01*
X148375588Y-50025270D01*
X148307315Y-50010418D01*
X148275514Y-49985571D01*
X148266784Y-49976087D01*
X148266779Y-49976083D01*
X148266777Y-49976081D01*
X148083634Y-49833535D01*
X148083628Y-49833531D01*
X147879504Y-49723064D01*
X147879495Y-49723061D01*
X147659984Y-49647702D01*
X147472404Y-49616401D01*
X147431049Y-49609500D01*
X147198951Y-49609500D01*
X147157596Y-49616401D01*
X146970015Y-49647702D01*
X146750504Y-49723061D01*
X146750495Y-49723064D01*
X146546371Y-49833531D01*
X146546365Y-49833535D01*
X146363222Y-49976081D01*
X146363219Y-49976084D01*
X146363216Y-49976086D01*
X146363216Y-49976087D01*
X146338791Y-50002620D01*
X146206016Y-50146852D01*
X146079075Y-50341151D01*
X145985842Y-50553699D01*
X145928866Y-50778691D01*
X145928864Y-50778702D01*
X145909700Y-51009993D01*
X145909700Y-51010006D01*
X145928864Y-51241297D01*
X145928866Y-51241308D01*
X145985842Y-51466300D01*
X146079075Y-51678848D01*
X146206016Y-51873147D01*
X146206019Y-51873151D01*
X146206021Y-51873153D01*
X146363216Y-52043913D01*
X146363219Y-52043915D01*
X146363222Y-52043918D01*
X146546365Y-52186464D01*
X146546376Y-52186471D01*
X146649517Y-52242288D01*
X146699108Y-52291507D01*
X146714500Y-52351343D01*
X146714500Y-54364902D01*
X146694815Y-54431941D01*
X146678181Y-54452583D01*
X144027705Y-57103058D01*
X143966382Y-57136543D01*
X143907931Y-57135152D01*
X143811697Y-57109366D01*
X143811693Y-57109365D01*
X143811692Y-57109365D01*
X143811691Y-57109364D01*
X143811686Y-57109364D01*
X143585002Y-57089532D01*
X143584998Y-57089532D01*
X143358313Y-57109364D01*
X143358302Y-57109366D01*
X143138511Y-57168258D01*
X143138502Y-57168261D01*
X142932267Y-57264431D01*
X142932265Y-57264432D01*
X142745858Y-57394954D01*
X142584954Y-57555858D01*
X142454432Y-57742265D01*
X142454431Y-57742267D01*
X142358261Y-57948502D01*
X142358258Y-57948511D01*
X142299366Y-58168302D01*
X142299364Y-58168313D01*
X142279532Y-58394998D01*
X142279532Y-58395001D01*
X142299364Y-58621686D01*
X142299366Y-58621697D01*
X142358258Y-58841488D01*
X142358260Y-58841492D01*
X142358261Y-58841496D01*
X142406649Y-58945265D01*
X142428953Y-58993095D01*
X142439445Y-59062173D01*
X142410925Y-59125957D01*
X142352449Y-59164196D01*
X142316571Y-59169500D01*
X129092963Y-59169500D01*
X129025924Y-59149815D01*
X128980169Y-59097011D01*
X128973188Y-59077593D01*
X128913905Y-58856344D01*
X128913904Y-58856343D01*
X128913903Y-58856337D01*
X128814035Y-58642171D01*
X128799691Y-58621686D01*
X128678496Y-58448600D01*
X128624894Y-58394998D01*
X128556567Y-58326671D01*
X128523084Y-58265351D01*
X128528068Y-58195659D01*
X128569939Y-58139725D01*
X128600915Y-58122810D01*
X128732331Y-58073796D01*
X128847546Y-57987546D01*
X128933796Y-57872331D01*
X128984091Y-57737483D01*
X128990500Y-57677873D01*
X128990499Y-55882128D01*
X128984091Y-55822517D01*
X128933796Y-55687669D01*
X128933795Y-55687668D01*
X128933793Y-55687664D01*
X128847547Y-55572455D01*
X128847544Y-55572452D01*
X128732335Y-55486206D01*
X128732328Y-55486202D01*
X128597482Y-55435908D01*
X128597483Y-55435908D01*
X128537883Y-55429501D01*
X128537881Y-55429500D01*
X128537873Y-55429500D01*
X128537864Y-55429500D01*
X126742129Y-55429500D01*
X126742123Y-55429501D01*
X126682516Y-55435908D01*
X126539359Y-55489303D01*
X126538771Y-55487726D01*
X126480647Y-55500368D01*
X126415184Y-55475947D01*
X126373316Y-55420011D01*
X126365500Y-55376684D01*
X126365500Y-54171518D01*
X126385185Y-54104479D01*
X126401819Y-54083837D01*
X127418837Y-53066819D01*
X127480160Y-53033334D01*
X127506518Y-53030500D01*
X129323481Y-53030500D01*
X129390520Y-53050185D01*
X129411162Y-53066819D01*
X132218453Y-55874111D01*
X132218454Y-55874112D01*
X132333192Y-55950777D01*
X132439958Y-55995000D01*
X132460672Y-56003580D01*
X132460676Y-56003580D01*
X132460677Y-56003581D01*
X132596003Y-56030500D01*
X132596006Y-56030500D01*
X138733996Y-56030500D01*
X138825040Y-56012389D01*
X138869328Y-56003580D01*
X138933069Y-55977177D01*
X138996807Y-55950777D01*
X138996808Y-55950776D01*
X138996811Y-55950775D01*
X139111543Y-55874114D01*
X139709114Y-55276543D01*
X139785775Y-55161811D01*
X139792739Y-55145000D01*
X139838578Y-55034332D01*
X139838580Y-55034328D01*
X139865500Y-54898994D01*
X139865500Y-54761006D01*
X139865500Y-54671518D01*
X139885185Y-54604479D01*
X139901819Y-54583837D01*
X141209113Y-53276543D01*
X141285774Y-53161812D01*
X141285775Y-53161811D01*
X141338580Y-53034328D01*
X141339342Y-53030500D01*
X141344696Y-53003580D01*
X141365500Y-52898993D01*
X141365500Y-52671518D01*
X141385185Y-52604479D01*
X141401819Y-52583837D01*
X141829105Y-52156551D01*
X141829113Y-52156543D01*
X141829196Y-52156420D01*
X141905775Y-52041811D01*
X141958580Y-51914328D01*
X141985500Y-51778993D01*
X141985500Y-51051519D01*
X142005185Y-50984480D01*
X142021819Y-50963838D01*
X144418838Y-48566819D01*
X144480161Y-48533334D01*
X144506519Y-48530500D01*
X152823481Y-48530500D01*
X152890520Y-48550185D01*
X152911162Y-48566819D01*
X154500886Y-50156542D01*
X154598458Y-50254114D01*
X154598459Y-50254115D01*
X154713182Y-50330771D01*
X154713186Y-50330773D01*
X154713189Y-50330775D01*
X154787866Y-50361707D01*
X154787867Y-50361707D01*
X154787869Y-50361709D01*
X154827656Y-50378189D01*
X154840671Y-50383580D01*
X154840680Y-50383581D01*
X154840681Y-50383582D01*
X154867545Y-50388925D01*
X154867551Y-50388926D01*
X154867591Y-50388934D01*
X154957937Y-50406905D01*
X154976006Y-50410500D01*
X154976007Y-50410500D01*
X155344215Y-50410500D01*
X155411254Y-50430185D01*
X155457009Y-50482989D01*
X155466688Y-50515102D01*
X155488039Y-50649910D01*
X155497754Y-50711243D01*
X155519669Y-50778691D01*
X155563444Y-50913414D01*
X155659951Y-51102820D01*
X155784890Y-51274786D01*
X155935213Y-51425109D01*
X156107179Y-51550048D01*
X156107181Y-51550049D01*
X156107184Y-51550051D01*
X156296588Y-51646557D01*
X156498757Y-51712246D01*
X156708713Y-51745500D01*
X156708714Y-51745500D01*
X158121286Y-51745500D01*
X158121287Y-51745500D01*
X158331243Y-51712246D01*
X158533412Y-51646557D01*
X158722816Y-51550051D01*
X158744789Y-51534086D01*
X158894786Y-51425109D01*
X158894788Y-51425106D01*
X158894792Y-51425104D01*
X159045104Y-51274792D01*
X159045345Y-51274461D01*
X159069431Y-51241308D01*
X159138229Y-51146614D01*
X159193558Y-51103949D01*
X159238547Y-51095500D01*
X168091453Y-51095500D01*
X168158492Y-51115185D01*
X168191769Y-51146614D01*
X168218710Y-51183694D01*
X168284892Y-51274788D01*
X168435213Y-51425109D01*
X168607179Y-51550048D01*
X168607181Y-51550049D01*
X168607184Y-51550051D01*
X168796588Y-51646557D01*
X168998757Y-51712246D01*
X169208713Y-51745500D01*
X169208714Y-51745500D01*
X170621286Y-51745500D01*
X170621287Y-51745500D01*
X170831243Y-51712246D01*
X171033412Y-51646557D01*
X171222816Y-51550051D01*
X171244789Y-51534086D01*
X171394786Y-51425109D01*
X171394788Y-51425106D01*
X171394792Y-51425104D01*
X171545104Y-51274792D01*
X171545106Y-51274788D01*
X171545109Y-51274786D01*
X171670048Y-51102820D01*
X171670047Y-51102820D01*
X171670051Y-51102816D01*
X171766557Y-50913412D01*
X171832246Y-50711243D01*
X171865500Y-50501287D01*
X171865500Y-50288713D01*
X171832246Y-50078757D01*
X171766557Y-49876588D01*
X171670051Y-49687184D01*
X171670049Y-49687181D01*
X171670048Y-49687179D01*
X171545109Y-49515213D01*
X171394786Y-49364890D01*
X171222820Y-49239951D01*
X171033414Y-49143444D01*
X171033413Y-49143443D01*
X171033412Y-49143443D01*
X170831243Y-49077754D01*
X170831241Y-49077753D01*
X170831240Y-49077753D01*
X170669957Y-49052208D01*
X170621287Y-49044500D01*
X169208713Y-49044500D01*
X169160042Y-49052208D01*
X168998760Y-49077753D01*
X168796585Y-49143444D01*
X168607179Y-49239951D01*
X168435213Y-49364890D01*
X168284892Y-49515211D01*
X168227727Y-49593895D01*
X168191770Y-49643385D01*
X168136442Y-49686051D01*
X168091453Y-49694500D01*
X164165282Y-49694500D01*
X164098243Y-49674815D01*
X164052488Y-49622011D01*
X164042544Y-49552853D01*
X164071569Y-49489297D01*
X164108987Y-49460015D01*
X164141167Y-49443617D01*
X164267994Y-49378996D01*
X164414501Y-49272553D01*
X164542553Y-49144501D01*
X164648996Y-48997994D01*
X164731211Y-48836639D01*
X164787171Y-48664409D01*
X164805262Y-48550185D01*
X164815500Y-48485551D01*
X164815500Y-48304448D01*
X164799019Y-48200397D01*
X164787171Y-48125591D01*
X164731211Y-47953361D01*
X164731211Y-47953360D01*
X164702740Y-47897484D01*
X164648996Y-47792006D01*
X164626120Y-47760520D01*
X164542558Y-47645505D01*
X164542554Y-47645500D01*
X164414499Y-47517445D01*
X164414494Y-47517441D01*
X164267997Y-47411006D01*
X164267996Y-47411005D01*
X164267994Y-47411004D01*
X164216300Y-47384664D01*
X164106639Y-47328788D01*
X164106636Y-47328787D01*
X163934410Y-47272829D01*
X163755551Y-47244500D01*
X163755546Y-47244500D01*
X163574454Y-47244500D01*
X163574449Y-47244500D01*
X163395589Y-47272829D01*
X163223363Y-47328787D01*
X163223360Y-47328788D01*
X163062002Y-47411006D01*
X162915505Y-47517441D01*
X162915500Y-47517445D01*
X162787445Y-47645500D01*
X162787441Y-47645505D01*
X162681006Y-47792002D01*
X162598788Y-47953360D01*
X162598787Y-47953363D01*
X162542829Y-48125589D01*
X162514500Y-48304448D01*
X162514500Y-48485551D01*
X162542829Y-48664410D01*
X162598787Y-48836636D01*
X162598788Y-48836639D01*
X162681006Y-48997997D01*
X162787441Y-49144494D01*
X162787445Y-49144499D01*
X162915500Y-49272554D01*
X162915505Y-49272558D01*
X163042591Y-49364890D01*
X163062006Y-49378996D01*
X163176552Y-49437360D01*
X163221013Y-49460015D01*
X163271809Y-49507990D01*
X163288604Y-49575811D01*
X163266066Y-49641946D01*
X163211351Y-49685397D01*
X163164718Y-49694500D01*
X159238547Y-49694500D01*
X159171508Y-49674815D01*
X159138230Y-49643385D01*
X159072455Y-49552853D01*
X159045107Y-49515211D01*
X158894786Y-49364890D01*
X158722820Y-49239951D01*
X158533414Y-49143444D01*
X158533413Y-49143443D01*
X158533412Y-49143443D01*
X158331243Y-49077754D01*
X158331241Y-49077753D01*
X158331240Y-49077753D01*
X158169957Y-49052208D01*
X158121287Y-49044500D01*
X158121286Y-49044500D01*
X156978500Y-49044500D01*
X156940530Y-49036948D01*
X156940155Y-49038188D01*
X156934322Y-49036418D01*
X156798996Y-49009500D01*
X156798994Y-49009500D01*
X156798993Y-49009500D01*
X155386518Y-49009500D01*
X155319479Y-48989815D01*
X155298837Y-48973181D01*
X153611546Y-47285888D01*
X153611545Y-47285887D01*
X153496807Y-47209222D01*
X153369332Y-47156421D01*
X153369322Y-47156418D01*
X153233996Y-47129500D01*
X153233994Y-47129500D01*
X153233993Y-47129500D01*
X144233994Y-47129500D01*
X144096006Y-47129500D01*
X144096004Y-47129500D01*
X143960677Y-47156418D01*
X143960667Y-47156421D01*
X143833192Y-47209222D01*
X143718454Y-47285887D01*
X140740887Y-50263454D01*
X140664222Y-50378192D01*
X140611421Y-50505667D01*
X140611418Y-50505679D01*
X140592791Y-50599326D01*
X140592791Y-50599329D01*
X140584500Y-50641006D01*
X140584500Y-51368480D01*
X140564815Y-51435519D01*
X140548181Y-51456161D01*
X140120888Y-51883453D01*
X140120887Y-51883454D01*
X140044223Y-51998192D01*
X139991421Y-52125668D01*
X139991418Y-52125680D01*
X139985279Y-52156543D01*
X139985279Y-52156544D01*
X139964500Y-52261004D01*
X139964500Y-52488480D01*
X139944815Y-52555519D01*
X139928181Y-52576161D01*
X138620888Y-53883453D01*
X138620887Y-53883454D01*
X138544222Y-53998192D01*
X138491421Y-54125667D01*
X138491418Y-54125679D01*
X138467243Y-54247212D01*
X138467244Y-54247213D01*
X138464500Y-54261009D01*
X138464500Y-54488481D01*
X138444815Y-54555520D01*
X138428181Y-54576162D01*
X138411162Y-54593181D01*
X138349839Y-54626666D01*
X138323481Y-54629500D01*
X133006519Y-54629500D01*
X132939480Y-54609815D01*
X132918838Y-54593181D01*
X130111546Y-51785888D01*
X130111545Y-51785887D01*
X129996807Y-51709222D01*
X129869332Y-51656421D01*
X129869322Y-51656418D01*
X129733996Y-51629500D01*
X129733994Y-51629500D01*
X129733993Y-51629500D01*
X127096007Y-51629500D01*
X127096003Y-51629500D01*
X126987590Y-51651065D01*
X126987589Y-51651065D01*
X126974131Y-51653742D01*
X126960673Y-51656419D01*
X126934268Y-51667356D01*
X126907866Y-51678292D01*
X126907864Y-51678293D01*
X126907863Y-51678292D01*
X126833191Y-51709223D01*
X126728775Y-51778993D01*
X126728774Y-51778994D01*
X126718455Y-51785888D01*
X125427181Y-53077162D01*
X125365858Y-53110647D01*
X125296166Y-53105663D01*
X125240233Y-53063791D01*
X125215816Y-52998327D01*
X125215500Y-52989481D01*
X125215500Y-51274461D01*
X125235185Y-51207422D01*
X125251819Y-51186780D01*
X127465418Y-48973181D01*
X129756524Y-46682074D01*
X129817845Y-46648591D01*
X129887537Y-46653575D01*
X129943470Y-46695447D01*
X129951207Y-46708341D01*
X129951724Y-46708043D01*
X129954432Y-46712734D01*
X130084954Y-46899141D01*
X130245858Y-47060045D01*
X130431622Y-47190117D01*
X130475247Y-47244693D01*
X130484499Y-47291692D01*
X130484499Y-47359054D01*
X130484498Y-47359054D01*
X130525423Y-47511785D01*
X130554358Y-47561900D01*
X130554359Y-47561904D01*
X130554360Y-47561904D01*
X130604479Y-47648714D01*
X130604481Y-47648717D01*
X130723349Y-47767585D01*
X130723355Y-47767590D01*
X133440795Y-50485030D01*
X133474280Y-50546353D01*
X133473320Y-50603151D01*
X133428866Y-50778691D01*
X133428864Y-50778702D01*
X133409700Y-51009993D01*
X133409700Y-51010006D01*
X133428864Y-51241297D01*
X133428866Y-51241308D01*
X133485842Y-51466300D01*
X133579075Y-51678848D01*
X133706016Y-51873147D01*
X133706019Y-51873151D01*
X133706021Y-51873153D01*
X133863216Y-52043913D01*
X133863219Y-52043915D01*
X133863222Y-52043918D01*
X134046365Y-52186464D01*
X134046371Y-52186468D01*
X134046374Y-52186470D01*
X134250497Y-52296936D01*
X134364487Y-52336068D01*
X134470015Y-52372297D01*
X134470017Y-52372297D01*
X134470019Y-52372298D01*
X134698951Y-52410500D01*
X134698952Y-52410500D01*
X134931048Y-52410500D01*
X134931049Y-52410500D01*
X135159981Y-52372298D01*
X135379503Y-52296936D01*
X135583626Y-52186470D01*
X135622235Y-52156420D01*
X135726740Y-52075080D01*
X135766784Y-52043913D01*
X135775511Y-52034432D01*
X135835394Y-51998441D01*
X135905232Y-52000538D01*
X135962850Y-52040060D01*
X135982924Y-52075080D01*
X136011645Y-52152086D01*
X136011649Y-52152093D01*
X136097809Y-52267187D01*
X136097812Y-52267190D01*
X136212906Y-52353350D01*
X136212913Y-52353354D01*
X136347620Y-52403596D01*
X136347627Y-52403598D01*
X136407155Y-52409999D01*
X136407172Y-52410000D01*
X137105000Y-52410000D01*
X137105000Y-51385277D01*
X137181306Y-51429333D01*
X137295756Y-51460000D01*
X137414244Y-51460000D01*
X137528694Y-51429333D01*
X137605000Y-51385277D01*
X137605000Y-52410000D01*
X138302828Y-52410000D01*
X138302844Y-52409999D01*
X138362372Y-52403598D01*
X138362379Y-52403596D01*
X138497086Y-52353354D01*
X138497093Y-52353350D01*
X138612187Y-52267190D01*
X138612190Y-52267187D01*
X138698350Y-52152093D01*
X138698354Y-52152086D01*
X138748596Y-52017379D01*
X138748598Y-52017372D01*
X138754999Y-51957844D01*
X138755000Y-51957827D01*
X138755000Y-51260000D01*
X137730278Y-51260000D01*
X137774333Y-51183694D01*
X137805000Y-51069244D01*
X137805000Y-50950756D01*
X137774333Y-50836306D01*
X137730278Y-50760000D01*
X138755000Y-50760000D01*
X138755000Y-50062172D01*
X138754999Y-50062155D01*
X138748598Y-50002627D01*
X138748596Y-50002620D01*
X138698354Y-49867913D01*
X138698350Y-49867906D01*
X138612190Y-49752812D01*
X138612187Y-49752809D01*
X138497093Y-49666649D01*
X138497086Y-49666645D01*
X138362379Y-49616403D01*
X138362372Y-49616401D01*
X138302844Y-49610000D01*
X137605000Y-49610000D01*
X137605000Y-50634722D01*
X137528694Y-50590667D01*
X137414244Y-50560000D01*
X137295756Y-50560000D01*
X137181306Y-50590667D01*
X137105000Y-50634722D01*
X137105000Y-49610000D01*
X136407155Y-49610000D01*
X136347627Y-49616401D01*
X136347620Y-49616403D01*
X136212913Y-49666645D01*
X136212906Y-49666649D01*
X136097812Y-49752809D01*
X136097809Y-49752812D01*
X136011649Y-49867906D01*
X136011646Y-49867911D01*
X135982924Y-49944920D01*
X135941052Y-50000853D01*
X135875588Y-50025270D01*
X135807315Y-50010418D01*
X135775514Y-49985571D01*
X135766784Y-49976087D01*
X135766779Y-49976083D01*
X135766777Y-49976081D01*
X135583634Y-49833535D01*
X135583628Y-49833531D01*
X135379504Y-49723064D01*
X135379495Y-49723061D01*
X135159984Y-49647702D01*
X134972404Y-49616401D01*
X134931049Y-49609500D01*
X134698951Y-49609500D01*
X134657596Y-49616401D01*
X134470016Y-49647702D01*
X134418100Y-49665524D01*
X134348301Y-49668672D01*
X134290159Y-49635923D01*
X131905203Y-47250968D01*
X131871718Y-47189645D01*
X131876702Y-47119953D01*
X131918574Y-47064020D01*
X131921766Y-47061709D01*
X131924140Y-47060046D01*
X132085045Y-46899141D01*
X132085047Y-46899139D01*
X132215568Y-46712734D01*
X132311739Y-46506496D01*
X132370635Y-46286692D01*
X132390468Y-46060000D01*
X132370635Y-45833308D01*
X132357308Y-45783573D01*
X132339362Y-45716593D01*
X132341025Y-45646743D01*
X132380188Y-45588881D01*
X132444417Y-45561377D01*
X132459137Y-45560500D01*
X139279218Y-45560500D01*
X139346257Y-45580185D01*
X139366899Y-45596819D01*
X139918111Y-46148032D01*
X139951596Y-46209355D01*
X139953958Y-46224903D01*
X139959364Y-46286688D01*
X139959366Y-46286697D01*
X140018258Y-46506488D01*
X140018261Y-46506497D01*
X140114431Y-46712732D01*
X140114432Y-46712734D01*
X140244954Y-46899141D01*
X140405858Y-47060045D01*
X140411535Y-47064020D01*
X140592266Y-47190568D01*
X140798504Y-47286739D01*
X141018308Y-47345635D01*
X141171688Y-47359054D01*
X141244998Y-47365468D01*
X141245000Y-47365468D01*
X141245002Y-47365468D01*
X141301673Y-47360509D01*
X141471692Y-47345635D01*
X141691496Y-47286739D01*
X141897734Y-47190568D01*
X142084139Y-47060047D01*
X142245047Y-46899139D01*
X142375568Y-46712734D01*
X142471739Y-46506496D01*
X142530635Y-46286692D01*
X142550468Y-46060000D01*
X142550468Y-46059998D01*
X184779532Y-46059998D01*
X184779532Y-46060001D01*
X184799364Y-46286686D01*
X184799366Y-46286697D01*
X184858258Y-46506488D01*
X184858261Y-46506497D01*
X184954431Y-46712732D01*
X184954432Y-46712734D01*
X185084954Y-46899141D01*
X185245858Y-47060045D01*
X185431622Y-47190117D01*
X185475247Y-47244693D01*
X185484499Y-47291692D01*
X185484499Y-47359054D01*
X185484498Y-47359054D01*
X185525423Y-47511785D01*
X185554358Y-47561900D01*
X185554359Y-47561904D01*
X185554360Y-47561904D01*
X185604479Y-47648714D01*
X185604481Y-47648717D01*
X185723349Y-47767585D01*
X185723355Y-47767590D01*
X188440795Y-50485030D01*
X188474280Y-50546353D01*
X188473320Y-50603151D01*
X188428866Y-50778691D01*
X188428864Y-50778702D01*
X188409700Y-51009993D01*
X188409700Y-51010006D01*
X188428864Y-51241297D01*
X188428866Y-51241308D01*
X188485842Y-51466300D01*
X188579075Y-51678848D01*
X188706016Y-51873147D01*
X188706019Y-51873151D01*
X188706021Y-51873153D01*
X188863216Y-52043913D01*
X188863219Y-52043915D01*
X188863222Y-52043918D01*
X189046365Y-52186464D01*
X189046371Y-52186468D01*
X189046374Y-52186470D01*
X189250497Y-52296936D01*
X189364487Y-52336068D01*
X189470015Y-52372297D01*
X189470017Y-52372297D01*
X189470019Y-52372298D01*
X189698951Y-52410500D01*
X189698952Y-52410500D01*
X189931048Y-52410500D01*
X189931049Y-52410500D01*
X190159981Y-52372298D01*
X190379503Y-52296936D01*
X190583626Y-52186470D01*
X190622235Y-52156420D01*
X190726740Y-52075080D01*
X190766784Y-52043913D01*
X190775511Y-52034432D01*
X190835394Y-51998441D01*
X190905232Y-52000538D01*
X190962850Y-52040060D01*
X190982924Y-52075080D01*
X191011645Y-52152086D01*
X191011649Y-52152093D01*
X191097809Y-52267187D01*
X191097812Y-52267190D01*
X191212906Y-52353350D01*
X191212913Y-52353354D01*
X191347620Y-52403596D01*
X191347627Y-52403598D01*
X191407155Y-52409999D01*
X191407172Y-52410000D01*
X192105000Y-52410000D01*
X192105000Y-51385277D01*
X192181306Y-51429333D01*
X192295756Y-51460000D01*
X192414244Y-51460000D01*
X192528694Y-51429333D01*
X192605000Y-51385277D01*
X192605000Y-52410000D01*
X193302828Y-52410000D01*
X193302844Y-52409999D01*
X193362372Y-52403598D01*
X193362379Y-52403596D01*
X193497086Y-52353354D01*
X193497093Y-52353350D01*
X193612187Y-52267190D01*
X193612190Y-52267187D01*
X193698350Y-52152093D01*
X193698354Y-52152086D01*
X193748596Y-52017379D01*
X193748598Y-52017372D01*
X193754999Y-51957844D01*
X193755000Y-51957827D01*
X193755000Y-51260000D01*
X192730278Y-51260000D01*
X192774333Y-51183694D01*
X192805000Y-51069244D01*
X192805000Y-50950756D01*
X192774333Y-50836306D01*
X192730278Y-50760000D01*
X193755000Y-50760000D01*
X193755000Y-50062172D01*
X193754999Y-50062155D01*
X193748598Y-50002627D01*
X193748596Y-50002620D01*
X193698354Y-49867913D01*
X193698350Y-49867906D01*
X193612190Y-49752812D01*
X193612187Y-49752809D01*
X193497093Y-49666649D01*
X193497086Y-49666645D01*
X193362379Y-49616403D01*
X193362372Y-49616401D01*
X193302844Y-49610000D01*
X192605000Y-49610000D01*
X192605000Y-50634722D01*
X192528694Y-50590667D01*
X192414244Y-50560000D01*
X192295756Y-50560000D01*
X192181306Y-50590667D01*
X192105000Y-50634722D01*
X192105000Y-49610000D01*
X191407155Y-49610000D01*
X191347627Y-49616401D01*
X191347620Y-49616403D01*
X191212913Y-49666645D01*
X191212906Y-49666649D01*
X191097812Y-49752809D01*
X191097809Y-49752812D01*
X191011649Y-49867906D01*
X191011646Y-49867911D01*
X190982924Y-49944920D01*
X190941052Y-50000853D01*
X190875588Y-50025270D01*
X190807315Y-50010418D01*
X190775514Y-49985571D01*
X190766784Y-49976087D01*
X190766779Y-49976083D01*
X190766777Y-49976081D01*
X190583634Y-49833535D01*
X190583628Y-49833531D01*
X190379504Y-49723064D01*
X190379495Y-49723061D01*
X190159984Y-49647702D01*
X189972404Y-49616401D01*
X189931049Y-49609500D01*
X189698951Y-49609500D01*
X189657596Y-49616401D01*
X189470016Y-49647702D01*
X189418100Y-49665524D01*
X189348301Y-49668672D01*
X189290159Y-49635923D01*
X186905203Y-47250968D01*
X186871718Y-47189645D01*
X186876702Y-47119953D01*
X186918574Y-47064020D01*
X186921766Y-47061709D01*
X186924140Y-47060046D01*
X187085045Y-46899141D01*
X187085047Y-46899139D01*
X187215568Y-46712734D01*
X187311739Y-46506496D01*
X187370635Y-46286692D01*
X187390468Y-46060000D01*
X187370635Y-45833308D01*
X187311739Y-45613504D01*
X187215568Y-45407266D01*
X187085047Y-45220861D01*
X187085045Y-45220858D01*
X186924141Y-45059954D01*
X186737734Y-44929432D01*
X186737732Y-44929431D01*
X186531497Y-44833261D01*
X186531488Y-44833258D01*
X186311697Y-44774366D01*
X186311693Y-44774365D01*
X186311692Y-44774365D01*
X186311691Y-44774364D01*
X186311686Y-44774364D01*
X186085002Y-44754532D01*
X186084998Y-44754532D01*
X185858313Y-44774364D01*
X185858302Y-44774366D01*
X185638511Y-44833258D01*
X185638502Y-44833261D01*
X185432267Y-44929431D01*
X185432265Y-44929432D01*
X185245858Y-45059954D01*
X185084954Y-45220858D01*
X184954432Y-45407265D01*
X184954431Y-45407267D01*
X184858261Y-45613502D01*
X184858258Y-45613511D01*
X184799366Y-45833302D01*
X184799364Y-45833313D01*
X184779532Y-46059998D01*
X142550468Y-46059998D01*
X142530635Y-45833308D01*
X142471739Y-45613504D01*
X142375568Y-45407266D01*
X142245047Y-45220861D01*
X142245045Y-45220858D01*
X142084141Y-45059954D01*
X141897734Y-44929432D01*
X141897732Y-44929431D01*
X141691497Y-44833261D01*
X141691488Y-44833258D01*
X141471697Y-44774366D01*
X141471688Y-44774364D01*
X141409903Y-44768958D01*
X141344835Y-44743504D01*
X141333032Y-44733111D01*
X140529209Y-43929289D01*
X140529206Y-43929285D01*
X140529206Y-43929286D01*
X140522139Y-43922219D01*
X140522139Y-43922218D01*
X140382782Y-43782861D01*
X140382781Y-43782860D01*
X140382780Y-43782859D01*
X140218920Y-43673371D01*
X140218911Y-43673366D01*
X140146315Y-43643296D01*
X140090165Y-43620038D01*
X140036836Y-43597949D01*
X140036832Y-43597948D01*
X140036828Y-43597946D01*
X139940188Y-43578724D01*
X139843544Y-43559500D01*
X139843541Y-43559500D01*
X130568354Y-43559500D01*
X130568334Y-43559499D01*
X130562220Y-43559499D01*
X130365139Y-43559499D01*
X130365136Y-43559499D01*
X130171851Y-43597946D01*
X130171843Y-43597948D01*
X129989767Y-43673366D01*
X129989758Y-43673371D01*
X129825898Y-43782859D01*
X129825894Y-43782862D01*
X123927181Y-49681576D01*
X123865858Y-49715061D01*
X123796166Y-49710077D01*
X123740233Y-49668205D01*
X123715816Y-49602741D01*
X123715500Y-49593895D01*
X123715500Y-40208711D01*
X124314500Y-40208711D01*
X124314500Y-40451288D01*
X124346161Y-40691785D01*
X124408947Y-40926104D01*
X124501773Y-41150205D01*
X124501776Y-41150212D01*
X124623064Y-41360289D01*
X124623066Y-41360292D01*
X124623067Y-41360293D01*
X124770733Y-41552736D01*
X124770739Y-41552743D01*
X124942256Y-41724260D01*
X124942262Y-41724265D01*
X125134711Y-41871936D01*
X125344788Y-41993224D01*
X125568900Y-42086054D01*
X125803211Y-42148838D01*
X125983586Y-42172584D01*
X126043711Y-42180500D01*
X126043712Y-42180500D01*
X126286289Y-42180500D01*
X126334388Y-42174167D01*
X126526789Y-42148838D01*
X126761100Y-42086054D01*
X126985212Y-41993224D01*
X127195289Y-41871936D01*
X127387738Y-41724265D01*
X127559265Y-41552738D01*
X127706936Y-41360289D01*
X127828224Y-41150212D01*
X127921054Y-40926100D01*
X127983838Y-40691789D01*
X128015500Y-40451288D01*
X128015500Y-40208712D01*
X128015500Y-40208711D01*
X199314500Y-40208711D01*
X199314500Y-40451288D01*
X199346161Y-40691785D01*
X199408947Y-40926104D01*
X199501773Y-41150205D01*
X199501776Y-41150212D01*
X199623064Y-41360289D01*
X199623066Y-41360292D01*
X199623067Y-41360293D01*
X199770733Y-41552736D01*
X199770739Y-41552743D01*
X199942256Y-41724260D01*
X199942262Y-41724265D01*
X200134711Y-41871936D01*
X200344788Y-41993224D01*
X200568900Y-42086054D01*
X200803211Y-42148838D01*
X200983586Y-42172584D01*
X201043711Y-42180500D01*
X201043712Y-42180500D01*
X201286289Y-42180500D01*
X201334388Y-42174167D01*
X201526789Y-42148838D01*
X201761100Y-42086054D01*
X201985212Y-41993224D01*
X202195289Y-41871936D01*
X202387738Y-41724265D01*
X202559265Y-41552738D01*
X202706936Y-41360289D01*
X202828224Y-41150212D01*
X202921054Y-40926100D01*
X202983838Y-40691789D01*
X203015500Y-40451288D01*
X203015500Y-40208712D01*
X202983838Y-39968211D01*
X202921054Y-39733900D01*
X202828224Y-39509788D01*
X202706936Y-39299711D01*
X202559265Y-39107262D01*
X202559260Y-39107256D01*
X202387743Y-38935739D01*
X202387736Y-38935733D01*
X202195293Y-38788067D01*
X202195292Y-38788066D01*
X202195289Y-38788064D01*
X201985212Y-38666776D01*
X201985205Y-38666773D01*
X201761104Y-38573947D01*
X201526785Y-38511161D01*
X201286289Y-38479500D01*
X201286288Y-38479500D01*
X201043712Y-38479500D01*
X201043711Y-38479500D01*
X200803214Y-38511161D01*
X200568895Y-38573947D01*
X200344794Y-38666773D01*
X200344785Y-38666777D01*
X200134706Y-38788067D01*
X199942263Y-38935733D01*
X199942256Y-38935739D01*
X199770739Y-39107256D01*
X199770733Y-39107263D01*
X199623067Y-39299706D01*
X199501777Y-39509785D01*
X199501773Y-39509794D01*
X199408947Y-39733895D01*
X199346161Y-39968214D01*
X199314500Y-40208711D01*
X128015500Y-40208711D01*
X127983838Y-39968211D01*
X127921054Y-39733900D01*
X127828224Y-39509788D01*
X127706936Y-39299711D01*
X127559265Y-39107262D01*
X127559260Y-39107256D01*
X127387743Y-38935739D01*
X127387736Y-38935733D01*
X127195293Y-38788067D01*
X127195292Y-38788066D01*
X127195289Y-38788064D01*
X126985212Y-38666776D01*
X126985205Y-38666773D01*
X126761104Y-38573947D01*
X126526785Y-38511161D01*
X126286289Y-38479500D01*
X126286288Y-38479500D01*
X126043712Y-38479500D01*
X126043711Y-38479500D01*
X125803214Y-38511161D01*
X125568895Y-38573947D01*
X125344794Y-38666773D01*
X125344785Y-38666777D01*
X125134706Y-38788067D01*
X124942263Y-38935733D01*
X124942256Y-38935739D01*
X124770739Y-39107256D01*
X124770733Y-39107263D01*
X124623067Y-39299706D01*
X124501777Y-39509785D01*
X124501773Y-39509794D01*
X124408947Y-39733895D01*
X124346161Y-39968214D01*
X124314500Y-40208711D01*
X123715500Y-40208711D01*
X123715500Y-38004500D01*
X123735185Y-37937461D01*
X123787989Y-37891706D01*
X123839500Y-37880500D01*
X203490500Y-37880500D01*
X203557539Y-37900185D01*
G37*
%TD.AperFunction*%
%TD*%
D20*
X122665000Y-36830000D02*
X204665000Y-36830000D01*
X204665000Y-86830000D01*
X122665000Y-86830000D01*
X122665000Y-36830000D01*
M02*
