<?xml version="1.0" standalone="no"?>
 <!DOCTYPE svg PUBLIC "-//W3C//DTD SVG 1.1//EN" 
 "http://www.w3.org/Graphics/SVG/1.1/DTD/svg11.dtd"> 
<svg
  xmlns:svg="http://www.w3.org/2000/svg"
  xmlns="http://www.w3.org/2000/svg"
  xmlns:xlink="http://www.w3.org/1999/xlink"
  version="1.1"
  width="297.0022mm" height="210.0072mm" viewBox="0.0000 0.0000 297.0022 210.0072">
<title>SVG Image created as arduino_solar_bikelight_2-F_Cu.svg date 2025/02/08 22:32:36 </title>
  <desc>Image generated by PCBNEW </desc>
<g style="fill:#000000; fill-opacity:1.0000;stroke:#000000; stroke-opacity:1.0000;
stroke-linecap:round; stroke-linejoin:round;"
 transform="translate(0 0) scale(1 1)">
</g>
<g style="fill:#000000; fill-opacity:1.0000; stroke:none;">
<circle cx="168.7450" cy="67.4450" r="0.8000" /> 
</g>
<g style="fill:#000000; fill-opacity:1.0000; stroke:none;">
<circle cx="158.5850" cy="67.4450" r="0.8000" /> 
<path style="fill:#000000; fill-opacity:1.0000; stroke:none;fill-rule:evenodd;"
d="M 150.7550,50.1100
150.7550,51.9100
148.9550,51.9100
148.9550,50.1100
Z" /> 
<circle cx="147.3150" cy="51.0100" r="0.9000" /> 
<path style="fill:#000000; fill-opacity:1.0000; stroke:none;fill-rule:evenodd;"
d="M 180.7550,75.1100
180.7550,76.9100
178.9550,76.9100
178.9550,75.1100
Z" /> 
</g>
<g style="fill:#000000; fill-opacity:1.0000; stroke:none;">
<circle cx="177.3150" cy="76.0100" r="0.9000" /> 
</g>
<g style="fill:#000000; fill-opacity:1.0000; stroke:none;">
<circle cx="196.2450" cy="71.0600" r="0.8000" /> 
</g>
<g style="fill:#000000; fill-opacity:1.0000; stroke:none;">
<circle cx="186.0850" cy="71.0600" r="0.8000" /> 
<path style="fill:#000000; fill-opacity:1.0000; stroke:none;fill-rule:evenodd;"
d="M 138.2550,50.1100
138.2550,51.9100
136.4550,51.9100
136.4550,50.1100
Z" /> 
<circle cx="134.8150" cy="51.0100" r="0.9000" /> 
</g>
<g style="fill:#000000; fill-opacity:1.0000; stroke:none;">
<circle cx="153.7450" cy="66.3950" r="0.8000" /> 
</g>
<g style="fill:#000000; fill-opacity:1.0000; stroke:none;">
<circle cx="143.5850" cy="66.3950" r="0.8000" /> 
<path style="fill:#000000; fill-opacity:1.0000; stroke:none;fill-rule:evenodd;"
d="M 165.7550,71.4950
165.7550,73.2950
163.9550,73.2950
163.9550,71.4950
Z" /> 
<circle cx="162.3150" cy="72.3950" r="0.9000" /> 
<path style="fill:#000000; fill-opacity:1.0000; stroke:none;fill-rule:evenodd;"
d="M 193.2550,50.1100
193.2550,51.9100
191.4550,51.9100
191.4550,50.1100
Z" /> 
</g>
<g style="fill:#000000; fill-opacity:1.0000; stroke:none;">
<circle cx="189.8150" cy="51.0100" r="0.9000" /> 
</g>
<g style="fill:#000000; fill-opacity:1.0000; stroke:none;">
<circle cx="141.2450" cy="46.0600" r="0.8000" /> 
</g>
<g style="fill:#000000; fill-opacity:1.0000; stroke:none;">
<circle cx="131.0850" cy="46.0600" r="0.8000" /> 
<path style="fill:#000000; fill-opacity:1.0000; stroke:none;fill-rule:evenodd;"
d="M 138.2550,75.1100
138.2550,76.9100
136.4550,76.9100
136.4550,75.1100
Z" /> 
<circle cx="134.8150" cy="76.0100" r="0.9000" /> 
<path style="fill:#000000; fill-opacity:1.0000; stroke:none;fill-rule:evenodd;"
d="M 150.7550,75.1100
150.7550,76.9100
148.9550,76.9100
148.9550,75.1100
Z" /> 
</g>
<g style="fill:#000000; fill-opacity:1.0000; stroke:none;">
<circle cx="147.3150" cy="76.0100" r="0.9000" /> 
</g>
<g style="fill:#000000; fill-opacity:1.0000; stroke:none;">
<circle cx="141.2450" cy="71.0600" r="0.8000" /> 
</g>
<g style="fill:#000000; fill-opacity:1.0000; stroke:none;">
<circle cx="131.0850" cy="71.0600" r="0.8000" /> 
</g>
<g style="fill:none; 
stroke:#000000; stroke-width:1.7000; stroke-opacity:1; 
stroke-linecap:round; stroke-linejoin:round;">
<path d="M156.8150 50.3950
L158.0150 50.3950
" />
<path d="M169.3150 50.3950
L170.5150 50.3950
" />
<path d="M156.8150 55.3950
L158.0150 55.3950
" />
<path d="M169.3150 55.3950
L170.5150 55.3950
" />
</g>
<g style="fill:#000000; fill-opacity:1.0000; stroke:none;">
<circle cx="183.7450" cy="66.3950" r="0.8000" /> 
</g>
<g style="fill:#000000; fill-opacity:1.0000; stroke:none;">
<circle cx="173.5850" cy="66.3950" r="0.8000" /> 
<circle cx="196.2450" cy="46.0600" r="0.8000" /> 
</g>
<g style="fill:#000000; fill-opacity:1.0000; stroke:none;">
<circle cx="186.0850" cy="46.0600" r="0.8000" /> 
<path style="fill:#000000; fill-opacity:1.0000; stroke:none;fill-rule:evenodd;"
d="M 180.7550,50.1100
180.7550,51.9100
178.9550,51.9100
178.9550,50.1100
Z" /> 
<circle cx="177.3150" cy="51.0100" r="0.9000" /> 
</g>
<g style="fill:#000000; fill-opacity:1.0000; stroke:none;">
<circle cx="153.7450" cy="58.3950" r="0.8000" /> 
</g>
<g style="fill:#000000; fill-opacity:1.0000; stroke:none;">
<circle cx="143.5850" cy="58.3950" r="0.8000" /> 
<path style="fill:#000000; fill-opacity:1.0000; stroke:none;fill-rule:evenodd;"
d="M 193.2550,75.1100
193.2550,76.9100
191.4550,76.9100
191.4550,75.1100
Z" /> 
<circle cx="189.8150" cy="76.0100" r="0.9000" /> 
</g>
<g style="fill:#000000; fill-opacity:1.0000; stroke:none;">
<circle cx="183.7450" cy="58.3950" r="0.8000" /> 
</g>
<g style="fill:#000000; fill-opacity:1.0000; stroke:none;">
<circle cx="173.5850" cy="58.3950" r="0.8000" /> 
<path style="fill:#000000; fill-opacity:1.0000; stroke:none;fill-rule:evenodd;"
d="M 198.9900,55.9300
198.9900,57.6300
197.2900,57.6300
197.2900,55.9300
Z" /> 
<circle cx="198.1400" cy="59.3200" r="0.8500" /> 
<circle cx="198.1400" cy="61.8600" r="0.8500" /> 
<circle cx="198.1400" cy="64.4000" r="0.8500" /> 
<circle cx="198.1400" cy="66.9400" r="0.8500" /> 
<path style="fill:#000000; fill-opacity:1.0000; stroke:none;fill-rule:evenodd;"
d="M 128.4900,55.9300
128.4900,57.6300
126.7900,57.6300
126.7900,55.9300
Z" /> 
<circle cx="127.6400" cy="59.3200" r="0.8500" /> 
<circle cx="127.6400" cy="61.8600" r="0.8500" /> 
<circle cx="127.6400" cy="64.4000" r="0.8500" /> 
<circle cx="127.6400" cy="66.9400" r="0.8500" /> 
</g>
<g style="fill:none; 
stroke:#000000; stroke-width:1.0000; stroke-opacity:1; 
stroke-linecap:round; stroke-linejoin:round;">
<path d="M171.0137 65.9450
L172.9637 67.8950
" />
<path d="M157.9637 65.9450
L171.0137 65.9450
" />
<path d="M127.6400 66.9400
L128.5950 67.8950
" />
<path d="M172.9637 67.8950
L197.1850 67.8950
" />
<path d="M128.5950 67.8950
L156.0137 67.8950
" />
<path d="M197.1850 67.8950
L198.1400 66.9400
" />
<path d="M156.0137 67.8950
L157.9637 65.9450
" />
<path d="M159.0500 56.9450
L154.4163 56.9450
" />
<path d="M154.2513 56.7800
L127.6400 56.7800
" />
<path d="M160.2500 55.7450
L159.0500 56.9450
" />
<path d="M198.1400 56.7800
L171.3220 56.7800
" />
<path d="M171.3220 56.7800
L170.7720 57.3300
" />
<path d="M166.1650 57.3300
L164.5800 55.7450
" />
<path d="M164.5800 55.7450
L160.2500 55.7450
" />
<path d="M154.4163 56.9450
L154.2513 56.7800
" />
<path d="M170.7720 57.3300
L166.1650 57.3300
" />
</g>
<g style="fill:none; 
stroke:#000000; stroke-width:0.4000; stroke-opacity:1; 
stroke-linecap:round; stroke-linejoin:round;">
<path d="M198.1400 64.4000
L127.6400 64.4000
" />
</g>
<g style="fill:none; 
stroke:#000000; stroke-width:1.0000; stroke-opacity:1; 
stroke-linecap:round; stroke-linejoin:round;">
<path d="M197.2900 60.1700
L128.4900 60.1700
" />
<path d="M128.4900 60.1700
L127.6400 59.3200
" />
<path d="M198.1400 59.3200
L197.2900 60.1700
" />
</g>
<g style="fill:none; 
stroke:#000000; stroke-width:0.4000; stroke-opacity:1; 
stroke-linecap:round; stroke-linejoin:round;">
<path d="M127.6400 61.8600
L198.1400 61.8600
" />
<path style="fill:#000000; fill-opacity:1.0000; stroke:none;fill-rule:evenodd;"
d="M 203.5575,37.9002
203.6033,37.9530
203.6145,38.0045
203.6145,85.6555
203.5948,85.7225
203.5420,85.7683
203.4905,85.7795
123.8395,85.7795
123.7725,85.7598
123.7267,85.7070
123.7155,85.6555
123.7155,83.2087
124.3145,83.2087
124.3145,83.4513
124.3462,83.6918
124.4089,83.9261
124.5018,84.1502
124.5018,84.1502
124.6231,84.3603
124.6231,84.3603
124.6231,84.3603
124.7707,84.5527
124.7707,84.5527
124.9423,84.7243
124.9423,84.7243
125.1347,84.8719
125.3448,84.9932
125.5689,85.0861
125.8032,85.1488
125.9836,85.1726
126.0437,85.1805
126.0437,85.1805
126.2863,85.1805
126.3344,85.1742
126.5268,85.1488
126.7611,85.0861
126.9852,84.9932
127.1953,84.8719
127.3877,84.7243
127.5593,84.5527
127.7069,84.3603
127.8282,84.1502
127.9211,83.9261
127.9838,83.6918
128.0155,83.4513
128.0155,83.2087
128.0155,83.2087
199.3145,83.2087
199.3145,83.4513
199.3462,83.6918
199.4089,83.9261
199.5018,84.1502
199.5018,84.1502
199.6231,84.3603
199.6231,84.3603
199.6231,84.3603
199.7707,84.5527
199.7707,84.5527
199.9423,84.7243
199.9423,84.7243
200.1347,84.8719
200.3448,84.9932
200.5689,85.0861
200.8032,85.1488
200.9836,85.1726
201.0437,85.1805
201.0437,85.1805
201.2863,85.1805
201.3344,85.1742
201.5268,85.1488
201.7611,85.0861
201.9852,84.9932
202.1953,84.8719
202.3877,84.7243
202.5593,84.5527
202.7069,84.3603
202.8282,84.1502
202.9211,83.9261
202.9838,83.6918
203.0155,83.4513
203.0155,83.2087
202.9838,82.9682
202.9211,82.7339
202.8282,82.5098
202.7069,82.2997
202.5593,82.1073
202.5593,82.1073
202.3877,81.9357
202.3877,81.9357
202.1953,81.7881
202.1953,81.7881
202.1953,81.7881
201.9852,81.6668
201.9852,81.6668
201.7611,81.5739
201.5268,81.5112
201.2863,81.4795
201.2863,81.4795
201.0437,81.4795
201.0437,81.4795
200.8032,81.5112
200.5689,81.5739
200.3448,81.6668
200.3448,81.6668
200.1347,81.7881
199.9423,81.9357
199.9423,81.9357
199.7707,82.1073
199.7707,82.1073
199.6231,82.2997
199.5018,82.5098
199.5018,82.5098
199.4089,82.7339
199.3462,82.9682
199.3145,83.2087
128.0155,83.2087
127.9838,82.9682
127.9211,82.7339
127.8282,82.5098
127.7069,82.2997
127.5593,82.1073
127.5593,82.1073
127.3877,81.9357
127.3877,81.9357
127.1953,81.7881
127.1953,81.7881
127.1953,81.7881
126.9852,81.6668
126.9852,81.6668
126.7611,81.5739
126.5268,81.5112
126.2863,81.4795
126.2863,81.4795
126.0437,81.4795
126.0437,81.4795
125.8032,81.5112
125.5689,81.5739
125.3448,81.6668
125.3448,81.6668
125.1347,81.7881
124.9423,81.9357
124.9423,81.9357
124.7707,82.1073
124.7707,82.1073
124.6231,82.2997
124.5018,82.5098
124.5018,82.5098
124.4089,82.7339
124.3462,82.9682
124.3145,83.2087
123.7155,83.2087
123.7155,76.0100
133.4097,76.0100
133.4097,76.0100
133.4289,76.2413
133.4289,76.2413
133.4858,76.4663
133.5791,76.6788
133.7060,76.8731
133.7060,76.8732
133.7060,76.8732
133.8632,77.0439
133.8632,77.0439
133.8632,77.0439
134.0464,77.1865
134.0464,77.1865
134.0464,77.1865
134.2505,77.2969
134.3645,77.3361
134.4700,77.3723
134.4700,77.3723
134.4700,77.3723
134.6990,77.4105
134.6990,77.4105
134.9310,77.4105
134.9310,77.4105
135.1600,77.3723
135.3795,77.2969
135.5836,77.1865
135.7668,77.0439
135.7755,77.0344
135.8354,76.9984
135.9052,77.0005
135.9629,77.0401
135.9829,77.0751
136.0116,77.1521
136.0116,77.1521
136.0978,77.2672
136.0978,77.2672
136.2129,77.3533
136.2129,77.3534
136.3476,77.4036
136.3476,77.4036
136.4072,77.4100
136.4072,77.4100
137.1050,77.4100
137.1050,76.3853
137.1813,76.4293
137.2958,76.4600
137.4142,76.4600
137.5287,76.4293
137.6050,76.3853
137.6050,77.4100
138.3028,77.4100
138.3028,77.4100
138.3624,77.4036
138.3624,77.4036
138.4971,77.3534
138.4971,77.3533
138.6122,77.2672
138.6122,77.2672
138.6984,77.1521
138.6984,77.1521
138.7486,77.0174
138.7486,77.0174
138.7550,76.9578
138.7550,76.9578
138.7550,76.2600
137.7303,76.2600
137.7743,76.1837
137.8050,76.0692
137.8050,76.0100
145.9097,76.0100
145.9097,76.0100
145.9289,76.2413
145.9289,76.2413
145.9858,76.4663
146.0791,76.6788
146.2060,76.8731
146.2060,76.8732
146.2060,76.8732
146.3632,77.0439
146.3632,77.0439
146.3632,77.0439
146.5464,77.1865
146.5464,77.1865
146.5464,77.1865
146.7505,77.2969
146.8645,77.3361
146.9700,77.3723
146.9700,77.3723
146.9700,77.3723
147.1990,77.4105
147.1990,77.4105
147.4310,77.4105
147.4310,77.4105
147.6600,77.3723
147.8795,77.2969
148.0836,77.1865
148.2668,77.0439
148.2755,77.0344
148.3354,76.9984
148.4052,77.0005
148.4629,77.0401
148.4829,77.0751
148.5116,77.1521
148.5116,77.1521
148.5978,77.2672
148.5978,77.2672
148.7129,77.3533
148.7129,77.3534
148.8476,77.4036
148.8476,77.4036
148.9072,77.4100
148.9072,77.4100
149.6050,77.4100
149.6050,76.3853
149.6813,76.4293
149.7958,76.4600
149.9142,76.4600
150.0287,76.4293
150.1050,76.3853
150.1050,77.4100
150.8028,77.4100
150.8028,77.4100
150.8624,77.4036
150.8624,77.4036
150.9971,77.3534
150.9971,77.3533
151.1122,77.2672
151.1122,77.2672
151.1984,77.1521
151.1984,77.1521
151.2486,77.0174
151.2486,77.0174
151.2550,76.9578
151.2550,76.9578
151.2550,76.2600
150.2303,76.2600
150.2743,76.1837
150.3050,76.0692
150.3050,76.0100
175.9097,76.0100
175.9097,76.0100
175.9289,76.2413
175.9289,76.2413
175.9858,76.4663
176.0791,76.6788
176.2060,76.8731
176.2060,76.8732
176.2060,76.8732
176.3632,77.0439
176.3632,77.0439
176.3632,77.0439
176.5464,77.1865
176.5464,77.1865
176.5464,77.1865
176.7505,77.2969
176.8645,77.3361
176.9700,77.3723
176.9700,77.3723
176.9700,77.3723
177.1990,77.4105
177.1990,77.4105
177.4310,77.4105
177.4310,77.4105
177.6600,77.3723
177.8795,77.2969
178.0836,77.1865
178.2668,77.0439
178.2755,77.0344
178.3354,76.9984
178.4052,77.0005
178.4629,77.0401
178.4829,77.0751
178.5116,77.1521
178.5116,77.1521
178.5978,77.2672
178.5978,77.2672
178.7129,77.3533
178.7129,77.3534
178.8476,77.4036
178.8476,77.4036
178.9072,77.4100
178.9072,77.4100
179.6050,77.4100
179.6050,76.3853
179.6813,76.4293
179.7958,76.4600
179.9142,76.4600
180.0287,76.4293
180.1050,76.3853
180.1050,77.4100
180.8028,77.4100
180.8028,77.4100
180.8624,77.4036
180.8624,77.4036
180.9971,77.3534
180.9971,77.3533
181.1122,77.2672
181.1122,77.2672
181.1984,77.1521
181.1984,77.1521
181.2486,77.0174
181.2486,77.0174
181.2550,76.9578
181.2550,76.9578
181.2550,76.2600
180.2303,76.2600
180.2743,76.1837
180.3050,76.0692
180.3050,76.0100
188.4097,76.0100
188.4097,76.0100
188.4289,76.2413
188.4289,76.2413
188.4858,76.4663
188.5791,76.6788
188.7060,76.8731
188.7060,76.8732
188.7060,76.8732
188.8632,77.0439
188.8632,77.0439
188.8632,77.0439
189.0464,77.1865
189.0464,77.1865
189.0464,77.1865
189.2505,77.2969
189.3645,77.3361
189.4700,77.3723
189.4700,77.3723
189.4700,77.3723
189.6990,77.4105
189.6990,77.4105
189.9310,77.4105
189.9310,77.4105
190.1600,77.3723
190.3795,77.2969
190.5836,77.1865
190.7668,77.0439
190.7755,77.0344
190.8354,76.9984
190.9052,77.0005
190.9629,77.0401
190.9829,77.0751
191.0116,77.1521
191.0116,77.1521
191.0978,77.2672
191.0978,77.2672
191.2129,77.3533
191.2129,77.3534
191.3476,77.4036
191.3476,77.4036
191.4072,77.4100
191.4072,77.4100
192.1050,77.4100
192.1050,76.3853
192.1813,76.4293
192.2958,76.4600
192.4142,76.4600
192.5287,76.4293
192.6050,76.3853
192.6050,77.4100
193.3028,77.4100
193.3028,77.4100
193.3624,77.4036
193.3624,77.4036
193.4971,77.3534
193.4971,77.3533
193.6122,77.2672
193.6122,77.2672
193.6984,77.1521
193.6984,77.1521
193.7486,77.0174
193.7486,77.0174
193.7550,76.9578
193.7550,76.9578
193.7550,76.2600
192.7303,76.2600
192.7743,76.1837
192.8050,76.0692
192.8050,75.9508
192.7743,75.8363
192.7303,75.7600
193.7550,75.7600
193.7550,75.0622
193.7550,75.0622
193.7486,75.0026
193.7486,75.0026
193.6984,74.8679
193.6984,74.8679
193.6122,74.7528
193.6122,74.7528
193.4971,74.6666
193.4971,74.6666
193.3624,74.6164
193.3624,74.6164
193.3028,74.6100
192.6050,74.6100
192.6050,75.6347
192.5287,75.5907
192.4142,75.5600
192.2958,75.5600
192.1813,75.5907
192.1050,75.6347
192.1050,74.6100
191.4072,74.6100
191.3476,74.6164
191.3476,74.6164
191.2129,74.6666
191.2129,74.6666
191.0978,74.7528
191.0978,74.7528
191.0116,74.8679
191.0116,74.8679
190.9829,74.9449
190.9411,75.0009
190.8756,75.0253
190.8073,75.0104
190.7755,74.9856
190.7668,74.9761
190.7668,74.9761
190.7668,74.9761
190.5836,74.8335
190.5836,74.8335
190.3795,74.7231
190.3795,74.7231
190.1600,74.6477
189.9724,74.6164
189.9310,74.6095
189.6990,74.6095
189.6576,74.6164
189.4700,74.6477
189.2505,74.7231
189.2505,74.7231
189.0464,74.8335
189.0464,74.8335
188.8632,74.9761
188.8632,74.9761
188.8632,74.9761
188.8632,74.9761
188.8388,75.0026
188.7060,75.1469
188.5791,75.3412
188.4858,75.5537
188.4289,75.7787
188.4289,75.7787
188.4097,76.0100
180.3050,76.0100
180.3050,75.9508
180.2743,75.8363
180.2303,75.7600
181.2550,75.7600
181.2550,75.0622
181.2550,75.0622
181.2486,75.0026
181.2486,75.0026
181.1984,74.8679
181.1984,74.8679
181.1122,74.7528
181.1122,74.7528
180.9971,74.6666
180.9971,74.6666
180.8624,74.6164
180.8624,74.6164
180.8028,74.6100
180.1050,74.6100
180.1050,75.6347
180.0287,75.5907
179.9142,75.5600
179.7958,75.5600
179.6813,75.5907
179.6050,75.6347
179.6050,74.6100
178.9072,74.6100
178.8476,74.6164
178.8476,74.6164
178.7129,74.6666
178.7129,74.6666
178.5978,74.7528
178.5978,74.7528
178.5116,74.8679
178.5116,74.8679
178.4829,74.9449
178.4411,75.0009
178.3756,75.0253
178.3073,75.0104
178.2755,74.9856
178.2668,74.9761
178.2668,74.9761
178.2668,74.9761
178.0836,74.8335
178.0836,74.8335
177.8795,74.7231
177.8795,74.7231
177.6600,74.6477
177.4724,74.6164
177.4310,74.6095
177.1990,74.6095
177.1576,74.6164
176.9700,74.6477
176.7505,74.7231
176.7505,74.7231
176.5464,74.8335
176.5464,74.8335
176.3632,74.9761
176.3632,74.9761
176.3632,74.9761
176.3632,74.9761
176.3388,75.0026
176.2060,75.1469
176.0791,75.3412
175.9858,75.5537
175.9289,75.7787
175.9289,75.7787
175.9097,76.0100
150.3050,76.0100
150.3050,75.9508
150.2743,75.8363
150.2303,75.7600
151.2550,75.7600
151.2550,75.0622
151.2550,75.0622
151.2486,75.0026
151.2486,75.0026
151.1984,74.8679
151.1984,74.8679
151.1122,74.7528
151.1122,74.7528
150.9971,74.6666
150.9971,74.6666
150.8624,74.6164
150.8624,74.6164
150.8028,74.6100
150.1050,74.6100
150.1050,75.6347
150.0287,75.5907
149.9142,75.5600
149.7958,75.5600
149.6813,75.5907
149.6050,75.6347
149.6050,74.6100
148.9072,74.6100
148.8476,74.6164
148.8476,74.6164
148.7129,74.6666
148.7129,74.6666
148.5978,74.7528
148.5978,74.7528
148.5116,74.8679
148.5116,74.8679
148.4829,74.9449
148.4411,75.0009
148.3756,75.0253
148.3073,75.0104
148.2755,74.9856
148.2668,74.9761
148.2668,74.9761
148.2668,74.9761
148.0836,74.8335
148.0836,74.8335
147.8795,74.7231
147.8795,74.7231
147.6600,74.6477
147.4724,74.6164
147.4310,74.6095
147.1990,74.6095
147.1576,74.6164
146.9700,74.6477
146.7505,74.7231
146.7505,74.7231
146.5464,74.8335
146.5464,74.8335
146.3632,74.9761
146.3632,74.9761
146.3632,74.9761
146.3632,74.9761
146.3388,75.0026
146.2060,75.1469
146.0791,75.3412
145.9858,75.5537
145.9289,75.7787
145.9289,75.7787
145.9097,76.0100
137.8050,76.0100
137.8050,75.9508
137.7743,75.8363
137.7303,75.7600
138.7550,75.7600
138.7550,75.0622
138.7550,75.0622
138.7486,75.0026
138.7486,75.0026
138.6984,74.8679
138.6984,74.8679
138.6122,74.7528
138.6122,74.7528
138.4971,74.6666
138.4971,74.6666
138.3624,74.6164
138.3624,74.6164
138.3028,74.6100
137.6050,74.6100
137.6050,75.6347
137.5287,75.5907
137.4142,75.5600
137.2958,75.5600
137.1813,75.5907
137.1050,75.6347
137.1050,74.6100
136.4072,74.6100
136.3476,74.6164
136.3476,74.6164
136.2129,74.6666
136.2129,74.6666
136.0978,74.7528
136.0978,74.7528
136.0116,74.8679
136.0116,74.8679
135.9829,74.9449
135.9411,75.0009
135.8756,75.0253
135.8073,75.0104
135.7755,74.9856
135.7668,74.9761
135.7668,74.9761
135.7668,74.9761
135.5836,74.8335
135.5836,74.8335
135.3795,74.7231
135.3795,74.7231
135.1600,74.6477
134.9724,74.6164
134.9310,74.6095
134.6990,74.6095
134.6576,74.6164
134.4700,74.6477
134.2505,74.7231
134.2505,74.7231
134.0464,74.8335
134.0464,74.8335
133.8632,74.9761
133.8632,74.9761
133.8632,74.9761
133.8632,74.9761
133.8388,75.0026
133.7060,75.1469
133.5791,75.3412
133.4858,75.5537
133.4289,75.7787
133.4289,75.7787
133.4097,76.0100
123.7155,76.0100
123.7155,72.3950
160.9097,72.3950
160.9097,72.3950
160.9289,72.6263
160.9289,72.6263
160.9858,72.8513
161.0791,73.0638
161.2060,73.2581
161.2060,73.2582
161.2060,73.2582
161.3632,73.4289
161.3632,73.4289
161.3632,73.4289
161.5464,73.5715
161.5464,73.5715
161.5464,73.5715
161.7505,73.6819
161.8645,73.7211
161.9700,73.7573
161.9700,73.7573
161.9700,73.7573
162.1990,73.7955
162.1990,73.7955
162.4310,73.7955
162.4310,73.7955
162.6600,73.7573
162.8795,73.6819
163.0836,73.5715
163.2668,73.4289
163.2755,73.4194
163.3354,73.3834
163.4052,73.3855
163.4629,73.4251
163.4829,73.4601
163.5116,73.5371
163.5116,73.5371
163.5978,73.6522
163.5978,73.6522
163.7129,73.7383
163.7129,73.7384
163.8476,73.7886
163.8476,73.7886
163.9072,73.7950
163.9072,73.7950
164.6050,73.7950
164.6050,72.7703
164.6813,72.8143
164.7958,72.8450
164.9142,72.8450
165.0287,72.8143
165.1050,72.7703
165.1050,73.7950
165.8028,73.7950
165.8028,73.7950
165.8624,73.7886
165.8624,73.7886
165.9971,73.7384
165.9971,73.7383
166.1122,73.6522
166.1122,73.6522
166.1984,73.5371
166.1984,73.5371
166.2486,73.4024
166.2486,73.4024
166.2550,73.3428
166.2550,73.3428
166.2550,72.6450
165.2303,72.6450
165.2743,72.5687
165.3050,72.4542
165.3050,72.3358
165.2743,72.2213
165.2303,72.1450
166.2550,72.1450
166.2550,71.4472
166.2550,71.4472
166.2486,71.3876
166.2486,71.3876
166.1984,71.2529
166.1984,71.2529
166.1122,71.1378
166.1122,71.1378
166.0082,71.0600
184.7795,71.0600
184.7795,71.0600
184.7994,71.2867
184.7994,71.2867
184.8583,71.5065
184.8583,71.5065
184.9544,71.7127
184.9544,71.7127
185.0850,71.8991
185.2459,72.0600
185.2459,72.0600
185.4323,72.1906
185.6385,72.2867
185.8583,72.3456
186.0202,72.3598
186.0850,72.3655
186.0850,72.3655
186.0850,72.3655
186.1417,72.3605
186.3117,72.3456
186.5315,72.2867
186.7377,72.1906
186.9241,72.0600
187.0850,71.8991
187.2156,71.7127
187.3117,71.5065
187.3706,71.2867
187.3905,71.0600
187.3905,71.0600
194.9395,71.0600
194.9395,71.0600
194.9594,71.2867
194.9594,71.2867
195.0183,71.5065
195.0183,71.5065
195.1144,71.7127
195.1144,71.7127
195.2450,71.8991
195.4059,72.0600
195.4059,72.0600
195.5923,72.1906
195.7985,72.2867
196.0183,72.3456
196.1802,72.3598
196.2450,72.3655
196.2450,72.3655
196.2450,72.3655
196.3017,72.3605
196.4717,72.3456
196.6915,72.2867
196.8977,72.1906
197.0841,72.0600
197.2450,71.8991
197.3756,71.7127
197.4717,71.5065
197.5306,71.2867
197.5505,71.0600
197.5497,71.0516
197.5306,70.8333
197.5306,70.8333
197.4717,70.6135
197.3756,70.4073
197.2450,70.2209
197.2450,70.2209
197.0841,70.0600
196.8977,69.9294
196.8977,69.9294
196.6915,69.8333
196.6915,69.8333
196.4717,69.7744
196.4717,69.7744
196.4717,69.7744
196.4717,69.7744
196.4717,69.7744
196.2450,69.7545
196.2450,69.7545
196.0183,69.7744
196.0183,69.7744
195.7985,69.8333
195.7985,69.8333
195.5923,69.9294
195.5923,69.9294
195.4059,70.0600
195.2450,70.2209
195.1144,70.4073
195.1144,70.4073
195.0183,70.6135
195.0183,70.6135
194.9594,70.8333
194.9594,70.8333
194.9395,71.0600
187.3905,71.0600
187.3897,71.0516
187.3706,70.8333
187.3706,70.8333
187.3117,70.6135
187.2156,70.4073
187.0850,70.2209
187.0850,70.2209
186.9241,70.0600
186.7377,69.9294
186.7377,69.9294
186.5315,69.8333
186.5315,69.8333
186.3117,69.7744
186.3117,69.7744
186.3117,69.7744
186.3117,69.7744
186.3117,69.7744
186.0850,69.7545
186.0850,69.7545
185.8583,69.7744
185.8583,69.7744
185.6385,69.8333
185.6385,69.8333
185.4323,69.9294
185.4323,69.9294
185.2459,70.0600
185.0850,70.2209
184.9544,70.4073
184.9544,70.4073
184.8583,70.6135
184.8583,70.6135
184.7994,70.8333
184.7994,70.8333
184.7795,71.0600
166.0082,71.0600
165.9971,71.0516
165.9971,71.0516
165.8624,71.0014
165.8624,71.0014
165.8028,70.9950
165.1050,70.9950
165.1050,72.0197
165.0287,71.9757
164.9142,71.9450
164.7958,71.9450
164.6813,71.9757
164.6050,72.0197
164.6050,70.9950
163.9072,70.9950
163.8476,71.0014
163.8476,71.0014
163.7129,71.0516
163.7129,71.0516
163.5978,71.1378
163.5978,71.1378
163.5116,71.2529
163.5116,71.2529
163.4829,71.3299
163.4411,71.3859
163.3756,71.4103
163.3073,71.3954
163.2755,71.3706
163.2668,71.3611
163.2668,71.3611
163.2668,71.3611
163.0836,71.2185
163.0836,71.2185
162.8795,71.1081
162.8795,71.1081
162.6600,71.0327
162.4724,71.0014
162.4310,70.9945
162.1990,70.9945
162.1576,71.0014
161.9700,71.0327
161.7505,71.1081
161.7505,71.1081
161.5464,71.2185
161.5464,71.2185
161.3632,71.3611
161.3632,71.3611
161.3632,71.3611
161.3632,71.3611
161.3388,71.3876
161.2060,71.5319
161.0791,71.7262
160.9858,71.9387
160.9289,72.1637
160.9289,72.1637
160.9097,72.3950
123.7155,72.3950
123.7155,71.0600
129.7795,71.0600
129.7795,71.0600
129.7994,71.2867
129.7994,71.2867
129.8583,71.5065
129.8583,71.5065
129.9544,71.7127
129.9544,71.7127
130.0850,71.8991
130.2459,72.0600
130.2459,72.0600
130.4323,72.1906
130.6385,72.2867
130.8583,72.3456
131.0202,72.3598
131.0850,72.3655
131.0850,72.3655
131.0850,72.3655
131.1417,72.3605
131.3117,72.3456
131.5315,72.2867
131.7377,72.1906
131.9241,72.0600
132.0850,71.8991
132.2156,71.7127
132.3117,71.5065
132.3706,71.2867
132.3905,71.0600
132.3905,71.0600
139.9395,71.0600
139.9395,71.0600
139.9594,71.2867
139.9594,71.2867
140.0183,71.5065
140.0183,71.5065
140.1144,71.7127
140.1144,71.7127
140.2450,71.8991
140.4059,72.0600
140.4059,72.0600
140.5923,72.1906
140.7985,72.2867
141.0183,72.3456
141.1802,72.3598
141.2450,72.3655
141.2450,72.3655
141.2450,72.3655
141.3017,72.3605
141.4717,72.3456
141.6915,72.2867
141.8977,72.1906
142.0841,72.0600
142.2450,71.8991
142.3756,71.7127
142.4717,71.5065
142.5306,71.2867
142.5505,71.0600
142.5497,71.0516
142.5306,70.8333
142.5306,70.8333
142.4717,70.6135
142.3756,70.4073
142.2450,70.2209
142.2450,70.2209
142.0841,70.0600
141.8977,69.9294
141.8977,69.9294
141.6915,69.8333
141.6915,69.8333
141.4717,69.7744
141.4717,69.7744
141.4717,69.7744
141.4717,69.7744
141.4717,69.7744
141.2450,69.7545
141.2450,69.7545
141.0183,69.7744
141.0183,69.7744
140.7985,69.8333
140.7985,69.8333
140.5923,69.9294
140.5923,69.9294
140.4059,70.0600
140.2450,70.2209
140.1144,70.4073
140.1144,70.4073
140.0183,70.6135
140.0183,70.6135
139.9594,70.8333
139.9594,70.8333
139.9395,71.0600
132.3905,71.0600
132.3897,71.0516
132.3706,70.8333
132.3706,70.8333
132.3117,70.6135
132.2156,70.4073
132.0850,70.2209
132.0850,70.2209
131.9241,70.0600
131.7377,69.9294
131.7377,69.9294
131.5315,69.8333
131.5315,69.8333
131.3117,69.7744
131.3117,69.7744
131.3117,69.7744
131.3117,69.7744
131.3117,69.7744
131.0850,69.7545
131.0850,69.7545
130.8583,69.7744
130.8583,69.7744
130.6385,69.8333
130.6385,69.8333
130.4323,69.9294
130.4323,69.9294
130.2459,70.0600
130.0850,70.2209
129.9544,70.4073
129.9544,70.4073
129.8583,70.6135
129.8583,70.6135
129.7994,70.8333
129.7994,70.8333
129.7795,71.0600
123.7155,71.0600
123.7155,59.3200
126.2843,59.3200
126.2843,59.3200
126.3049,59.5554
126.3049,59.5554
126.3661,59.7837
126.3661,59.7837
126.3661,59.7837
126.4660,59.9978
126.4660,59.9978
126.6015,60.1914
126.6015,60.1914
126.7686,60.3585
126.7686,60.3585
126.9542,60.4884
126.9978,60.5430
127.0050,60.6125
126.9735,60.6749
126.9542,60.6916
126.7686,60.8215
126.6015,60.9886
126.4660,61.1822
126.4660,61.1822
126.3661,61.3963
126.3661,61.3963
126.3049,61.6246
126.3049,61.6246
126.2843,61.8600
126.2843,61.8600
126.3049,62.0954
126.3049,62.0954
126.3661,62.3237
126.3661,62.3237
126.3661,62.3237
126.4660,62.5378
126.4660,62.5378
126.6015,62.7314
126.6015,62.7314
126.7686,62.8985
126.7686,62.8985
126.9542,63.0284
126.9978,63.0830
127.0050,63.1525
126.9735,63.2149
126.9542,63.2316
126.7686,63.3615
126.6015,63.5286
126.4660,63.7222
126.4660,63.7222
126.3661,63.9363
126.3661,63.9363
126.3049,64.1646
126.3049,64.1646
126.2843,64.4000
126.2843,64.4000
126.3049,64.6354
126.3049,64.6354
126.3661,64.8637
126.3661,64.8637
126.3661,64.8637
126.4660,65.0778
126.4660,65.0778
126.6015,65.2714
126.6015,65.2714
126.7686,65.4385
126.7686,65.4385
126.9546,65.5687
126.9982,65.6233
127.0054,65.6928
126.9739,65.7552
126.9546,65.7719
126.7689,65.9019
126.7689,65.9019
126.6019,66.0689
126.6019,66.0689
126.4664,66.2624
126.4664,66.2624
126.3666,66.4765
126.3666,66.4765
126.3094,66.6900
126.3094,66.6900
127.2070,66.6900
127.1741,66.7470
127.1400,66.8742
127.1400,67.0058
127.1741,67.1330
127.2070,67.1900
126.3094,67.1900
126.3666,67.4035
126.3666,67.4035
126.4664,67.6176
126.6019,67.8111
126.7689,67.9781
126.9624,68.1136
127.1765,68.2134
127.1765,68.2134
127.3900,68.2706
127.3900,67.3730
127.4470,67.4059
127.5742,67.4400
127.7058,67.4400
127.8330,67.4059
127.8900,67.3730
127.8900,68.2706
128.1035,68.2134
128.1035,68.2134
128.3176,68.1136
128.5111,67.9781
128.6781,67.8111
128.8136,67.6176
128.9134,67.4035
128.9134,67.4035
128.9706,67.1900
128.0730,67.1900
128.1059,67.1330
128.1400,67.0058
128.1400,66.8742
128.1059,66.7470
128.0730,66.6900
128.9706,66.6900
128.9706,66.6900
128.9134,66.4765
128.9134,66.4765
128.8136,66.2624
128.8136,66.2624
128.6781,66.0689
128.6781,66.0689
128.5111,65.9019
128.3254,65.7719
128.2818,65.7173
128.2746,65.6478
128.3061,65.5854
128.3254,65.5687
128.3438,65.5559
128.5114,65.4385
128.6785,65.2714
128.7611,65.1534
128.8157,65.1098
128.8627,65.1005
142.7731,65.1005
142.8401,65.1202
142.8859,65.1730
142.8958,65.2421
142.8668,65.3057
142.8442,65.3261
142.7459,65.3950
142.5850,65.5559
142.4544,65.7423
142.4544,65.7423
142.3583,65.9485
142.3583,65.9485
142.2994,66.1683
142.2994,66.1683
142.2795,66.3950
142.2795,66.3950
142.2994,66.6217
142.2994,66.6217
142.3583,66.8415
142.3583,66.8415
142.4544,67.0477
142.4544,67.0477
142.5850,67.2341
142.7459,67.3950
142.7927,67.4278
142.9323,67.5256
143.1385,67.6217
143.3583,67.6806
143.5202,67.6948
143.5850,67.7005
143.5850,67.7005
143.5850,67.7005
143.6417,67.6955
143.8117,67.6806
144.0315,67.6217
144.2377,67.5256
144.4241,67.3950
144.5850,67.2341
144.7156,67.0477
144.8117,66.8415
144.8706,66.6217
144.8905,66.3950
144.8706,66.1683
144.8117,65.9485
144.7156,65.7423
144.6058,65.5854
144.5850,65.5559
144.4241,65.3950
144.3258,65.3261
144.2821,65.2715
144.2750,65.2020
144.3065,65.1396
144.3667,65.1042
144.3969,65.1005
152.9331,65.1005
153.0001,65.1202
153.0459,65.1730
153.0558,65.2421
153.0268,65.3057
153.0042,65.3261
152.9059,65.3950
152.7450,65.5559
152.6144,65.7423
152.6144,65.7423
152.5183,65.9485
152.5183,65.9485
152.4594,66.1683
152.4594,66.1683
152.4395,66.3950
152.4395,66.3950
152.4594,66.6217
152.4594,66.6217
152.5183,66.8415
152.5183,66.8415
152.6144,67.0477
152.6144,67.0477
152.7450,67.2341
152.9059,67.3950
152.9527,67.4278
153.0923,67.5256
153.2985,67.6217
153.5183,67.6806
153.6802,67.6948
153.7450,67.7005
153.7450,67.7005
153.7450,67.7005
153.8017,67.6955
153.9717,67.6806
154.1915,67.6217
154.3977,67.5256
154.5128,67.4450
157.2795,67.4450
157.2795,67.4450
157.2994,67.6717
157.2994,67.6717
157.3583,67.8915
157.3583,67.8915
157.4544,68.0977
157.4544,68.0977
157.5850,68.2841
157.7459,68.4450
157.7459,68.4450
157.9323,68.5756
158.1385,68.6717
158.3583,68.7306
158.5202,68.7448
158.5850,68.7505
158.5850,68.7505
158.5850,68.7505
158.6417,68.7455
158.8117,68.7306
159.0315,68.6717
159.2377,68.5756
159.4241,68.4450
159.5850,68.2841
159.7156,68.0977
159.8117,67.8915
159.8706,67.6717
159.8905,67.4450
159.8905,67.4450
167.4395,67.4450
167.4395,67.4450
167.4594,67.6717
167.4594,67.6717
167.5183,67.8915
167.5183,67.8915
167.6144,68.0977
167.6144,68.0977
167.7450,68.2841
167.9059,68.4450
167.9059,68.4450
168.0923,68.5756
168.2985,68.6717
168.5183,68.7306
168.6802,68.7448
168.7450,68.7505
168.7450,68.7505
168.7450,68.7505
168.8017,68.7455
168.9717,68.7306
169.1915,68.6717
169.3977,68.5756
169.5841,68.4450
169.7450,68.2841
169.8756,68.0977
169.9717,67.8915
170.0306,67.6717
170.0505,67.4450
170.0461,67.3950
170.0413,67.3401
170.0306,67.2183
169.9717,66.9985
169.8756,66.7923
169.7450,66.6059
169.7450,66.6059
169.5841,66.4450
169.3977,66.3144
169.3977,66.3144
169.1915,66.2183
169.1915,66.2183
168.9717,66.1594
168.9717,66.1594
168.9717,66.1594
168.9717,66.1594
168.9717,66.1594
168.7450,66.1395
168.7450,66.1395
168.5183,66.1594
168.5183,66.1594
168.2985,66.2183
168.2985,66.2183
168.0923,66.3144
168.0923,66.3144
167.9059,66.4450
167.7450,66.6059
167.6144,66.7923
167.6144,66.7923
167.5183,66.9985
167.5183,66.9985
167.4594,67.2183
167.4594,67.2183
167.4395,67.4450
159.8905,67.4450
159.8861,67.3950
159.8813,67.3401
159.8706,67.2183
159.8117,66.9985
159.7156,66.7923
159.5850,66.6059
159.5850,66.6059
159.4241,66.4450
159.2377,66.3144
159.2377,66.3144
159.0315,66.2183
159.0315,66.2183
158.8117,66.1594
158.8117,66.1594
158.8117,66.1594
158.8117,66.1594
158.8117,66.1594
158.5850,66.1395
158.5850,66.1395
158.3583,66.1594
158.3583,66.1594
158.1385,66.2183
158.1385,66.2183
157.9323,66.3144
157.9323,66.3144
157.7459,66.4450
157.5850,66.6059
157.4544,66.7923
157.4544,66.7923
157.3583,66.9985
157.3583,66.9985
157.2994,67.2183
157.2994,67.2183
157.2795,67.4450
154.5128,67.4450
154.5841,67.3950
154.7450,67.2341
154.8756,67.0477
154.9717,66.8415
155.0306,66.6217
155.0505,66.3950
155.0306,66.1683
154.9717,65.9485
154.8756,65.7423
154.7658,65.5854
154.7450,65.5559
154.5841,65.3950
154.4858,65.3261
154.4421,65.2715
154.4350,65.2020
154.4665,65.1396
154.5267,65.1042
154.5569,65.1005
172.7731,65.1005
172.8401,65.1202
172.8859,65.1730
172.8958,65.2421
172.8668,65.3057
172.8442,65.3261
172.7459,65.3950
172.5850,65.5559
172.4544,65.7423
172.4544,65.7423
172.3583,65.9485
172.3583,65.9485
172.2994,66.1683
172.2994,66.1683
172.2795,66.3950
172.2795,66.3950
172.2994,66.6217
172.2994,66.6217
172.3583,66.8415
172.3583,66.8415
172.4544,67.0477
172.4544,67.0477
172.5850,67.2341
172.7459,67.3950
172.7927,67.4278
172.9323,67.5256
173.1385,67.6217
173.3583,67.6806
173.5202,67.6948
173.5850,67.7005
173.5850,67.7005
173.5850,67.7005
173.6417,67.6955
173.8117,67.6806
174.0315,67.6217
174.2377,67.5256
174.4241,67.3950
174.5850,67.2341
174.7156,67.0477
174.8117,66.8415
174.8706,66.6217
174.8905,66.3950
174.8706,66.1683
174.8117,65.9485
174.7156,65.7423
174.6058,65.5854
174.5850,65.5559
174.4241,65.3950
174.3258,65.3261
174.2821,65.2715
174.2750,65.2020
174.3065,65.1396
174.3667,65.1042
174.3969,65.1005
182.9331,65.1005
183.0001,65.1202
183.0459,65.1730
183.0558,65.2421
183.0268,65.3057
183.0042,65.3261
182.9059,65.3950
182.7450,65.5559
182.6144,65.7423
182.6144,65.7423
182.5183,65.9485
182.5183,65.9485
182.4594,66.1683
182.4594,66.1683
182.4395,66.3950
182.4395,66.3950
182.4594,66.6217
182.4594,66.6217
182.5183,66.8415
182.5183,66.8415
182.6144,67.0477
182.6144,67.0477
182.7450,67.2341
182.9059,67.3950
182.9527,67.4278
183.0923,67.5256
183.2985,67.6217
183.5183,67.6806
183.6802,67.6948
183.7450,67.7005
183.7450,67.7005
183.7450,67.7005
183.8017,67.6955
183.9717,67.6806
184.1915,67.6217
184.3977,67.5256
184.5841,67.3950
184.7450,67.2341
184.8756,67.0477
184.9717,66.8415
185.0306,66.6217
185.0505,66.3950
185.0306,66.1683
184.9717,65.9485
184.8756,65.7423
184.7658,65.5854
184.7450,65.5559
184.5841,65.3950
184.4858,65.3261
184.4421,65.2715
184.4350,65.2020
184.4665,65.1396
184.5267,65.1042
184.5569,65.1005
196.9173,65.1005
196.9843,65.1202
197.0189,65.1534
197.1015,65.2714
197.2686,65.4385
197.2686,65.4385
197.4546,65.5687
197.4982,65.6233
197.5054,65.6928
197.4739,65.7552
197.4546,65.7719
197.2689,65.9019
197.2689,65.9019
197.1019,66.0689
197.1019,66.0689
196.9664,66.2624
196.9664,66.2624
196.8666,66.4765
196.8666,66.4765
196.8094,66.6900
196.8094,66.6900
197.7070,66.6900
197.6741,66.7470
197.6400,66.8742
197.6400,67.0058
197.6741,67.1330
197.7070,67.1900
196.8094,67.1900
196.8666,67.4035
196.8666,67.4035
196.9664,67.6176
197.1019,67.8111
197.2689,67.9781
197.4624,68.1136
197.6765,68.2134
197.6765,68.2134
197.8900,68.2706
197.8900,67.3730
197.9470,67.4059
198.0742,67.4400
198.2058,67.4400
198.3330,67.4059
198.3900,67.3730
198.3900,68.2706
198.6035,68.2134
198.6035,68.2134
198.8176,68.1136
199.0111,67.9781
199.1781,67.8111
199.3136,67.6176
199.4134,67.4035
199.4134,67.4035
199.4706,67.1900
198.5730,67.1900
198.6059,67.1330
198.6400,67.0058
198.6400,66.8742
198.6059,66.7470
198.5730,66.6900
199.4706,66.6900
199.4706,66.6900
199.4134,66.4765
199.4134,66.4765
199.3136,66.2624
199.3136,66.2624
199.1781,66.0689
199.1781,66.0689
199.0111,65.9019
198.8254,65.7719
198.7818,65.7173
198.7746,65.6478
198.8061,65.5854
198.8254,65.5687
198.8438,65.5559
199.0114,65.4385
199.1785,65.2714
199.3140,65.0778
199.4139,64.8637
199.4751,64.6354
199.4957,64.4000
199.4751,64.1646
199.4139,63.9363
199.3140,63.7222
199.2917,63.6902
199.1785,63.5286
199.0114,63.3615
199.0114,63.3615
198.8258,63.2316
198.7822,63.1770
198.7750,63.1075
198.8065,63.0451
198.8258,63.0284
198.8480,63.0129
199.0114,62.8985
199.1785,62.7314
199.3140,62.5378
199.4139,62.3237
199.4751,62.0954
199.4957,61.8600
199.4751,61.6246
199.4139,61.3963
199.3140,61.1822
199.1785,60.9886
199.1785,60.9886
199.0114,60.8215
199.0114,60.8215
198.8258,60.6916
198.7822,60.6370
198.7750,60.5675
198.8065,60.5051
198.8258,60.4884
198.8480,60.4729
199.0114,60.3585
199.1785,60.1914
199.3140,59.9978
199.4139,59.7837
199.4751,59.5554
199.4957,59.3200
199.4751,59.0846
199.4139,58.8563
199.3140,58.6422
199.2997,58.6217
199.1785,58.4486
199.1249,58.3950
199.0566,58.3267
199.0231,58.2654
199.0281,58.1957
199.0699,58.1397
199.1009,58.1228
199.2323,58.0738
199.3475,57.9875
199.4338,57.8723
199.4841,57.7375
199.4905,57.6779
199.4905,55.8821
199.4841,55.8225
199.4824,55.8179
199.4338,55.6877
199.4338,55.6877
199.3475,55.5725
199.3475,55.5725
199.2323,55.4862
199.2323,55.4862
199.0975,55.4359
199.0975,55.4359
199.0379,55.4295
199.0379,55.4295
199.0379,55.4295
199.0379,55.4295
197.2421,55.4295
197.2421,55.4295
197.1825,55.4359
197.0477,55.4862
197.0477,55.4862
196.9325,55.5725
196.9325,55.5725
196.8462,55.6877
196.8462,55.6877
196.8462,55.6877
196.8420,55.6988
196.8002,55.7548
196.7347,55.7792
196.7259,55.7795
171.9661,55.7795
171.8991,55.7598
171.8533,55.7070
171.8448,55.6481
171.8422,55.6450
170.4635,55.6450
170.4741,55.6266
170.5150,55.4740
170.5150,55.3160
170.4741,55.1634
170.4635,55.1450
171.8422,55.1450
171.8318,55.0789
171.8318,55.0789
171.7661,54.8768
171.6696,54.6874
171.5447,54.5155
171.5447,54.5155
171.3945,54.3653
171.3945,54.3653
171.2226,54.2404
171.0332,54.1439
170.8311,54.0782
170.6212,54.0450
170.1650,54.0450
170.1650,54.8465
170.1466,54.8359
169.9940,54.7950
169.8360,54.7950
169.6834,54.8359
169.6650,54.8465
169.6650,54.0450
169.2088,54.0450
168.9989,54.0782
168.9989,54.0782
168.7968,54.1439
168.6074,54.2404
168.4355,54.3653
168.4355,54.3653
168.2853,54.5155
168.2853,54.5155
168.1604,54.6874
168.0639,54.8768
167.9982,55.0789
167.9982,55.0789
167.9878,55.1450
169.3665,55.1450
169.3559,55.1634
169.3150,55.3160
169.3150,55.4740
169.3559,55.6266
169.3665,55.6450
167.9878,55.6450
167.9982,55.7111
167.9982,55.7111
168.0639,55.9132
168.1604,56.1026
168.1822,56.1326
168.2057,56.1984
168.1899,56.2665
168.1398,56.3152
168.0819,56.3295
166.6308,56.3295
166.5637,56.3098
166.5431,56.2932
165.3642,55.1143
165.3642,55.1143
165.3642,55.1143
165.3571,55.1072
165.3571,55.1072
165.2178,54.9679
165.2178,54.9679
165.2178,54.9679
165.0539,54.8584
165.0539,54.8584
164.9813,54.8283
164.9252,54.8050
164.8718,54.7829
164.8718,54.7829
164.8718,54.7829
164.7752,54.7637
164.6785,54.7445
164.6785,54.7445
160.1515,54.7445
160.1515,54.7445
160.0548,54.7637
159.9582,54.7829
159.9582,54.7829
159.9048,54.8050
159.9048,54.8050
159.8593,54.8239
159.7761,54.8584
159.7761,54.8584
159.6122,54.9679
159.5164,55.0637
159.4551,55.0972
159.3854,55.0922
159.3294,55.0503
159.3108,55.0143
159.2661,54.8768
159.1696,54.6874
159.0447,54.5155
159.0447,54.5155
158.8945,54.3653
158.8945,54.3653
158.7226,54.2404
158.5332,54.1439
158.3311,54.0782
158.1212,54.0450
157.6650,54.0450
157.6650,54.8465
157.6466,54.8359
157.4940,54.7950
157.3360,54.7950
157.1834,54.8359
157.1650,54.8465
157.1650,54.0450
156.7088,54.0450
156.4989,54.0782
156.4989,54.0782
156.2968,54.1439
156.1074,54.2404
155.9355,54.3653
155.9355,54.3653
155.7853,54.5155
155.7853,54.5155
155.6604,54.6874
155.5639,54.8768
155.4982,55.0789
155.4982,55.0789
155.4878,55.1450
156.8665,55.1450
156.8559,55.1634
156.8150,55.3160
156.8150,55.4740
156.8559,55.6266
156.8665,55.6450
155.4878,55.6450
155.4982,55.7111
155.4982,55.7111
155.5213,55.7822
155.5233,55.8520
155.4872,55.9119
155.4245,55.9427
155.4034,55.9445
154.8394,55.9445
154.7723,55.9248
154.7705,55.9236
154.7252,55.8934
154.7252,55.8934
154.7252,55.8934
154.6609,55.8667
154.5965,55.8400
154.5432,55.8179
154.5432,55.8179
154.5431,55.8179
154.4465,55.7987
154.3499,55.7795
154.3499,55.7795
129.0541,55.7795
128.9871,55.7598
128.9413,55.7070
128.9380,55.6989
128.9338,55.6877
128.9338,55.6877
128.9338,55.6877
128.8475,55.5725
128.8475,55.5725
128.7323,55.4862
128.7323,55.4862
128.5975,55.4359
128.5975,55.4359
128.5379,55.4295
128.5379,55.4295
128.5379,55.4295
128.5379,55.4295
126.7421,55.4295
126.7421,55.4295
126.6825,55.4359
126.5477,55.4862
126.5477,55.4862
126.4325,55.5725
126.4325,55.5725
126.3462,55.6877
126.3462,55.6877
126.2959,55.8225
126.2903,55.8751
126.2895,55.8821
126.2895,55.8821
126.2895,57.6779
126.2895,57.6779
126.2959,57.7375
126.3462,57.8723
126.3462,57.8723
126.4325,57.9875
126.4325,57.9875
126.5477,58.0738
126.5477,58.0738
126.6791,58.1228
126.7350,58.1647
126.7594,58.2301
126.7446,58.2984
126.7234,58.3267
126.6015,58.4486
126.4660,58.6422
126.4660,58.6422
126.3661,58.8563
126.3661,58.8563
126.3049,59.0846
126.3049,59.0846
126.2843,59.3200
123.7155,59.3200
123.7155,51.0100
133.4097,51.0100
133.4097,51.0100
133.4289,51.2413
133.4289,51.2413
133.4858,51.4663
133.5791,51.6788
133.7060,51.8731
133.7060,51.8732
133.7060,51.8732
133.8632,52.0439
133.8632,52.0439
133.8632,52.0439
134.0464,52.1865
134.0464,52.1865
134.0464,52.1865
134.2505,52.2969
134.3645,52.3361
134.4700,52.3723
134.4700,52.3723
134.4700,52.3723
134.6990,52.4105
134.6990,52.4105
134.9310,52.4105
134.9310,52.4105
135.1600,52.3723
135.3795,52.2969
135.5836,52.1865
135.7668,52.0439
135.7755,52.0344
135.8354,51.9984
135.9052,52.0005
135.9629,52.0401
135.9829,52.0751
136.0116,52.1521
136.0116,52.1521
136.0978,52.2672
136.0978,52.2672
136.2129,52.3533
136.2129,52.3534
136.3476,52.4036
136.3476,52.4036
136.4072,52.4100
136.4072,52.4100
137.1050,52.4100
137.1050,51.3853
137.1813,51.4293
137.2958,51.4600
137.4142,51.4600
137.5287,51.4293
137.6050,51.3853
137.6050,52.4100
138.3028,52.4100
138.3028,52.4100
138.3624,52.4036
138.3624,52.4036
138.4971,52.3534
138.4971,52.3533
138.6122,52.2672
138.6122,52.2672
138.6984,52.1521
138.6984,52.1521
138.7486,52.0174
138.7486,52.0174
138.7550,51.9578
138.7550,51.9578
138.7550,51.2600
137.7303,51.2600
137.7743,51.1837
137.8050,51.0692
137.8050,51.0100
145.9097,51.0100
145.9097,51.0100
145.9289,51.2413
145.9289,51.2413
145.9858,51.4663
146.0791,51.6788
146.2060,51.8731
146.2060,51.8732
146.2060,51.8732
146.3632,52.0439
146.3632,52.0439
146.3632,52.0439
146.5464,52.1865
146.5464,52.1865
146.5464,52.1865
146.7505,52.2969
146.8645,52.3361
146.9700,52.3723
146.9700,52.3723
146.9700,52.3723
147.1990,52.4105
147.1990,52.4105
147.4310,52.4105
147.4310,52.4105
147.6600,52.3723
147.8795,52.2969
148.0836,52.1865
148.2668,52.0439
148.2755,52.0344
148.3354,51.9984
148.4052,52.0005
148.4629,52.0401
148.4829,52.0751
148.5116,52.1521
148.5116,52.1521
148.5978,52.2672
148.5978,52.2672
148.7129,52.3533
148.7129,52.3534
148.8476,52.4036
148.8476,52.4036
148.9072,52.4100
148.9072,52.4100
149.6050,52.4100
149.6050,51.3853
149.6813,51.4293
149.7958,51.4600
149.9142,51.4600
150.0287,51.4293
150.1050,51.3853
150.1050,52.4100
150.8028,52.4100
150.8028,52.4100
150.8624,52.4036
150.8624,52.4036
150.9971,52.3534
150.9971,52.3533
151.1122,52.2672
151.1122,52.2672
151.1984,52.1521
151.1984,52.1521
151.2486,52.0174
151.2486,52.0174
151.2550,51.9578
151.2550,51.9578
151.2550,51.2600
150.2303,51.2600
150.2743,51.1837
150.3050,51.0692
150.3050,50.9508
150.2743,50.8363
150.2303,50.7600
151.2550,50.7600
151.2550,50.2887
155.4645,50.2887
155.4645,50.5013
155.4787,50.5907
155.4978,50.7112
155.5197,50.7787
155.5634,50.9134
155.6600,51.1028
155.7849,51.2748
155.9352,51.4251
156.1072,51.5500
156.1072,51.5500
156.1072,51.5501
156.2966,51.6466
156.4988,51.7122
156.7087,51.7455
156.7087,51.7455
158.1213,51.7455
158.1213,51.7455
158.3312,51.7122
158.5334,51.6466
158.7228,51.5501
158.7448,51.5341
158.8948,51.4251
158.8948,51.4251
158.8948,51.4251
159.0451,51.2748
159.0451,51.2748
159.0451,51.2748
159.1700,51.1028
159.1700,51.1028
159.1701,51.1028
159.2666,50.9134
159.3322,50.7112
159.3655,50.5013
159.3655,50.2887
167.9645,50.2887
167.9645,50.5013
167.9787,50.5907
167.9978,50.7112
168.0197,50.7787
168.0634,50.9134
168.1600,51.1028
168.2849,51.2748
168.4352,51.4251
168.6072,51.5500
168.6072,51.5500
168.6072,51.5501
168.7966,51.6466
168.9988,51.7122
169.2087,51.7455
169.2087,51.7455
170.6213,51.7455
170.6213,51.7455
170.8312,51.7122
171.0334,51.6466
171.2228,51.5501
171.2448,51.5341
171.3948,51.4251
171.3948,51.4251
171.3948,51.4251
171.5451,51.2748
171.5451,51.2748
171.5451,51.2748
171.6700,51.1028
171.6700,51.1028
171.6701,51.1028
171.7173,51.0100
175.9097,51.0100
175.9097,51.0100
175.9289,51.2413
175.9289,51.2413
175.9858,51.4663
176.0791,51.6788
176.2060,51.8731
176.2060,51.8732
176.2060,51.8732
176.3632,52.0439
176.3632,52.0439
176.3632,52.0439
176.5464,52.1865
176.5464,52.1865
176.5464,52.1865
176.7505,52.2969
176.8645,52.3361
176.9700,52.3723
176.9700,52.3723
176.9700,52.3723
177.1990,52.4105
177.1990,52.4105
177.4310,52.4105
177.4310,52.4105
177.6600,52.3723
177.8795,52.2969
178.0836,52.1865
178.2668,52.0439
178.2755,52.0344
178.3354,51.9984
178.4052,52.0005
178.4629,52.0401
178.4829,52.0751
178.5116,52.1521
178.5116,52.1521
178.5978,52.2672
178.5978,52.2672
178.7129,52.3533
178.7129,52.3534
178.8476,52.4036
178.8476,52.4036
178.9072,52.4100
178.9072,52.4100
179.6050,52.4100
179.6050,51.3853
179.6813,51.4293
179.7958,51.4600
179.9142,51.4600
180.0287,51.4293
180.1050,51.3853
180.1050,52.4100
180.8028,52.4100
180.8028,52.4100
180.8624,52.4036
180.8624,52.4036
180.9971,52.3534
180.9971,52.3533
181.1122,52.2672
181.1122,52.2672
181.1984,52.1521
181.1984,52.1521
181.2486,52.0174
181.2486,52.0174
181.2550,51.9578
181.2550,51.9578
181.2550,51.2600
180.2303,51.2600
180.2743,51.1837
180.3050,51.0692
180.3050,51.0100
188.4097,51.0100
188.4097,51.0100
188.4289,51.2413
188.4289,51.2413
188.4858,51.4663
188.5791,51.6788
188.7060,51.8731
188.7060,51.8732
188.7060,51.8732
188.8632,52.0439
188.8632,52.0439
188.8632,52.0439
189.0464,52.1865
189.0464,52.1865
189.0464,52.1865
189.2505,52.2969
189.3645,52.3361
189.4700,52.3723
189.4700,52.3723
189.4700,52.3723
189.6990,52.4105
189.6990,52.4105
189.9310,52.4105
189.9310,52.4105
190.1600,52.3723
190.3795,52.2969
190.5836,52.1865
190.7668,52.0439
190.7755,52.0344
190.8354,51.9984
190.9052,52.0005
190.9629,52.0401
190.9829,52.0751
191.0116,52.1521
191.0116,52.1521
191.0978,52.2672
191.0978,52.2672
191.2129,52.3533
191.2129,52.3534
191.3476,52.4036
191.3476,52.4036
191.4072,52.4100
191.4072,52.4100
192.1050,52.4100
192.1050,51.3853
192.1813,51.4293
192.2958,51.4600
192.4142,51.4600
192.5287,51.4293
192.6050,51.3853
192.6050,52.4100
193.3028,52.4100
193.3028,52.4100
193.3624,52.4036
193.3624,52.4036
193.4971,52.3534
193.4971,52.3533
193.6122,52.2672
193.6122,52.2672
193.6984,52.1521
193.6984,52.1521
193.7486,52.0174
193.7486,52.0174
193.7550,51.9578
193.7550,51.9578
193.7550,51.2600
192.7303,51.2600
192.7743,51.1837
192.8050,51.0692
192.8050,50.9508
192.7743,50.8363
192.7303,50.7600
193.7550,50.7600
193.7550,50.0622
193.7550,50.0622
193.7486,50.0026
193.7486,50.0026
193.6984,49.8679
193.6984,49.8679
193.6122,49.7528
193.6122,49.7528
193.4971,49.6666
193.4971,49.6666
193.3624,49.6164
193.3624,49.6164
193.3028,49.6100
192.6050,49.6100
192.6050,50.6347
192.5287,50.5907
192.4142,50.5600
192.2958,50.5600
192.1813,50.5907
192.1050,50.6347
192.1050,49.6100
191.4072,49.6100
191.3476,49.6164
191.3476,49.6164
191.2129,49.6666
191.2129,49.6666
191.0978,49.7528
191.0978,49.7528
191.0116,49.8679
191.0116,49.8679
190.9829,49.9449
190.9411,50.0009
190.8756,50.0253
190.8073,50.0104
190.7755,49.9856
190.7668,49.9761
190.7668,49.9761
190.7668,49.9761
190.5836,49.8335
190.5836,49.8335
190.3795,49.7231
190.3795,49.7231
190.1600,49.6477
189.9724,49.6164
189.9310,49.6095
189.6990,49.6095
189.6576,49.6164
189.4700,49.6477
189.2505,49.7231
189.2505,49.7231
189.0464,49.8335
189.0464,49.8335
188.8632,49.9761
188.8632,49.9761
188.8632,49.9761
188.8632,49.9761
188.8388,50.0026
188.7060,50.1469
188.5791,50.3412
188.4858,50.5537
188.4289,50.7787
188.4289,50.7787
188.4097,51.0100
180.3050,51.0100
180.3050,50.9508
180.2743,50.8363
180.2303,50.7600
181.2550,50.7600
181.2550,50.0622
181.2550,50.0622
181.2486,50.0026
181.2486,50.0026
181.1984,49.8679
181.1984,49.8679
181.1122,49.7528
181.1122,49.7528
180.9971,49.6666
180.9971,49.6666
180.8624,49.6164
180.8624,49.6164
180.8028,49.6100
180.1050,49.6100
180.1050,50.6347
180.0287,50.5907
179.9142,50.5600
179.7958,50.5600
179.6813,50.5907
179.6050,50.6347
179.6050,49.6100
178.9072,49.6100
178.8476,49.6164
178.8476,49.6164
178.7129,49.6666
178.7129,49.6666
178.5978,49.7528
178.5978,49.7528
178.5116,49.8679
178.5116,49.8679
178.4829,49.9449
178.4411,50.0009
178.3756,50.0253
178.3073,50.0104
178.2755,49.9856
178.2668,49.9761
178.2668,49.9761
178.2668,49.9761
178.0836,49.8335
178.0836,49.8335
177.8795,49.7231
177.8795,49.7231
177.6600,49.6477
177.4724,49.6164
177.4310,49.6095
177.1990,49.6095
177.1576,49.6164
176.9700,49.6477
176.7505,49.7231
176.7505,49.7231
176.5464,49.8335
176.5464,49.8335
176.3632,49.9761
176.3632,49.9761
176.3632,49.9761
176.3632,49.9761
176.3388,50.0026
176.2060,50.1469
176.0791,50.3412
175.9858,50.5537
175.9289,50.7787
175.9289,50.7787
175.9097,51.0100
171.7173,51.0100
171.7666,50.9134
171.8322,50.7112
171.8655,50.5013
171.8655,50.2887
171.8322,50.0788
171.7666,49.8766
171.6701,49.6872
171.6700,49.6872
171.6700,49.6872
171.5451,49.5152
171.3948,49.3649
171.2228,49.2400
171.0334,49.1434
171.0334,49.1434
171.0334,49.1434
170.8312,49.0778
170.8312,49.0778
170.8312,49.0778
170.6700,49.0522
170.6213,49.0445
169.2087,49.0445
169.1600,49.0522
168.9988,49.0778
168.7966,49.1434
168.6072,49.2400
168.4352,49.3649
168.2849,49.5152
168.1600,49.6872
168.0634,49.8766
167.9978,50.0788
167.9645,50.2887
159.3655,50.2887
159.3322,50.0788
159.2666,49.8766
159.1701,49.6872
159.1700,49.6872
159.1700,49.6872
159.0451,49.5152
158.8948,49.3649
158.7228,49.2400
158.5334,49.1434
158.5334,49.1434
158.5334,49.1434
158.3312,49.0778
158.3312,49.0778
158.3312,49.0778
158.1700,49.0522
158.1213,49.0445
156.7087,49.0445
156.6600,49.0522
156.4988,49.0778
156.2966,49.1434
156.1072,49.2400
155.9352,49.3649
155.7849,49.5152
155.6600,49.6872
155.5634,49.8766
155.4978,50.0788
155.4645,50.2887
151.2550,50.2887
151.2550,50.0622
151.2550,50.0622
151.2486,50.0026
151.2486,50.0026
151.1984,49.8679
151.1984,49.8679
151.1122,49.7528
151.1122,49.7528
150.9971,49.6666
150.9971,49.6666
150.8624,49.6164
150.8624,49.6164
150.8028,49.6100
150.1050,49.6100
150.1050,50.6347
150.0287,50.5907
149.9142,50.5600
149.7958,50.5600
149.6813,50.5907
149.6050,50.6347
149.6050,49.6100
148.9072,49.6100
148.8476,49.6164
148.8476,49.6164
148.7129,49.6666
148.7129,49.6666
148.5978,49.7528
148.5978,49.7528
148.5116,49.8679
148.5116,49.8679
148.4829,49.9449
148.4411,50.0009
148.3756,50.0253
148.3073,50.0104
148.2755,49.9856
148.2668,49.9761
148.2668,49.9761
148.2668,49.9761
148.0836,49.8335
148.0836,49.8335
147.8795,49.7231
147.8795,49.7231
147.6600,49.6477
147.4724,49.6164
147.4310,49.6095
147.1990,49.6095
147.1576,49.6164
146.9700,49.6477
146.7505,49.7231
146.7505,49.7231
146.5464,49.8335
146.5464,49.8335
146.3632,49.9761
146.3632,49.9761
146.3632,49.9761
146.3632,49.9761
146.3388,50.0026
146.2060,50.1469
146.0791,50.3412
145.9858,50.5537
145.9289,50.7787
145.9289,50.7787
145.9097,51.0100
137.8050,51.0100
137.8050,50.9508
137.7743,50.8363
137.7303,50.7600
138.7550,50.7600
138.7550,50.0622
138.7550,50.0622
138.7486,50.0026
138.7486,50.0026
138.6984,49.8679
138.6984,49.8679
138.6122,49.7528
138.6122,49.7528
138.4971,49.6666
138.4971,49.6666
138.3624,49.6164
138.3624,49.6164
138.3028,49.6100
137.6050,49.6100
137.6050,50.6347
137.5287,50.5907
137.4142,50.5600
137.2958,50.5600
137.1813,50.5907
137.1050,50.6347
137.1050,49.6100
136.4072,49.6100
136.3476,49.6164
136.3476,49.6164
136.2129,49.6666
136.2129,49.6666
136.0978,49.7528
136.0978,49.7528
136.0116,49.8679
136.0116,49.8679
135.9829,49.9449
135.9411,50.0009
135.8756,50.0253
135.8073,50.0104
135.7755,49.9856
135.7668,49.9761
135.7668,49.9761
135.7668,49.9761
135.5836,49.8335
135.5836,49.8335
135.3795,49.7231
135.3795,49.7231
135.1600,49.6477
134.9724,49.6164
134.9310,49.6095
134.6990,49.6095
134.6576,49.6164
134.4700,49.6477
134.2505,49.7231
134.2505,49.7231
134.0464,49.8335
134.0464,49.8335
133.8632,49.9761
133.8632,49.9761
133.8632,49.9761
133.8632,49.9761
133.8388,50.0026
133.7060,50.1469
133.5791,50.3412
133.4858,50.5537
133.4289,50.7787
133.4289,50.7787
133.4097,51.0100
123.7155,51.0100
123.7155,48.3044
162.5145,48.3044
162.5145,48.4856
162.5428,48.6644
162.5988,48.8366
162.5988,48.8366
162.6810,48.9980
162.7874,49.1445
162.7874,49.1445
162.9155,49.2726
162.9155,49.2726
163.0426,49.3649
163.0620,49.3790
163.1675,49.4327
163.2234,49.4612
163.2234,49.4612
163.3095,49.4892
163.3956,49.5172
163.4784,49.5303
163.5744,49.5455
163.5745,49.5455
163.7556,49.5455
163.8423,49.5318
163.9344,49.5172
164.1066,49.4612
164.2680,49.3790
164.4145,49.2726
164.5426,49.1445
164.6490,48.9980
164.7312,48.8366
164.7872,48.6644
164.8018,48.5723
164.8155,48.4856
164.8155,48.3044
164.7990,48.2004
164.7872,48.1256
164.7312,47.9534
164.7312,47.9534
164.7027,47.8975
164.6490,47.7920
164.6354,47.7733
164.5426,47.6455
164.5426,47.6455
164.4145,47.5174
164.4145,47.5174
164.2680,47.4110
164.2680,47.4110
164.2680,47.4110
164.2163,47.3847
164.1066,47.3288
164.1066,47.3288
163.9344,47.2728
163.7556,47.2445
163.7555,47.2445
163.5745,47.2445
163.5744,47.2445
163.3956,47.2728
163.2234,47.3288
163.2234,47.3288
163.0620,47.4110
162.9155,47.5174
162.9155,47.5174
162.7874,47.6455
162.7874,47.6455
162.6810,47.7920
162.5988,47.9534
162.5988,47.9534
162.5428,48.1256
162.5145,48.3044
123.7155,48.3044
123.7155,46.0600
129.7795,46.0600
129.7795,46.0600
129.7994,46.2867
129.7994,46.2867
129.8583,46.5065
129.8583,46.5065
129.9544,46.7127
129.9544,46.7127
130.0850,46.8991
130.2459,47.0600
130.2459,47.0600
130.4323,47.1906
130.6385,47.2867
130.8583,47.3456
131.0202,47.3598
131.0850,47.3655
131.0850,47.3655
131.0850,47.3655
131.1417,47.3605
131.3117,47.3456
131.5315,47.2867
131.7377,47.1906
131.9241,47.0600
132.0850,46.8991
132.2156,46.7127
132.3117,46.5065
132.3706,46.2867
132.3905,46.0600
132.3905,46.0600
139.9395,46.0600
139.9395,46.0600
139.9594,46.2867
139.9594,46.2867
140.0183,46.5065
140.0183,46.5065
140.1144,46.7127
140.1144,46.7127
140.2450,46.8991
140.4059,47.0600
140.4059,47.0600
140.5923,47.1906
140.7985,47.2867
141.0183,47.3456
141.1802,47.3598
141.2450,47.3655
141.2450,47.3655
141.2450,47.3655
141.3017,47.3605
141.4717,47.3456
141.6915,47.2867
141.8977,47.1906
142.0841,47.0600
142.2450,46.8991
142.3756,46.7127
142.4717,46.5065
142.5306,46.2867
142.5505,46.0600
142.5505,46.0600
184.7795,46.0600
184.7795,46.0600
184.7994,46.2867
184.7994,46.2867
184.8583,46.5065
184.8583,46.5065
184.9544,46.7127
184.9544,46.7127
185.0850,46.8991
185.2459,47.0600
185.2459,47.0600
185.4323,47.1906
185.6385,47.2867
185.8583,47.3456
186.0202,47.3598
186.0850,47.3655
186.0850,47.3655
186.0850,47.3655
186.1417,47.3605
186.3117,47.3456
186.5315,47.2867
186.7377,47.1906
186.9241,47.0600
187.0850,46.8991
187.2156,46.7127
187.3117,46.5065
187.3706,46.2867
187.3905,46.0600
187.3905,46.0600
194.9395,46.0600
194.9395,46.0600
194.9594,46.2867
194.9594,46.2867
195.0183,46.5065
195.0183,46.5065
195.1144,46.7127
195.1144,46.7127
195.2450,46.8991
195.4059,47.0600
195.4059,47.0600
195.5923,47.1906
195.7985,47.2867
196.0183,47.3456
196.1802,47.3598
196.2450,47.3655
196.2450,47.3655
196.2450,47.3655
196.3017,47.3605
196.4717,47.3456
196.6915,47.2867
196.8977,47.1906
197.0841,47.0600
197.2450,46.8991
197.3756,46.7127
197.4717,46.5065
197.5306,46.2867
197.5505,46.0600
197.5306,45.8333
197.4717,45.6135
197.3756,45.4073
197.2450,45.2209
197.2450,45.2209
197.0841,45.0600
196.8977,44.9294
196.8977,44.9294
196.6915,44.8333
196.6915,44.8333
196.4717,44.7744
196.4717,44.7744
196.4717,44.7744
196.4717,44.7744
196.4717,44.7744
196.2450,44.7545
196.2450,44.7545
196.0183,44.7744
196.0183,44.7744
195.7985,44.8333
195.7985,44.8333
195.5923,44.9294
195.5923,44.9294
195.4059,45.0600
195.2450,45.2209
195.1144,45.4073
195.1144,45.4073
195.0183,45.6135
195.0183,45.6135
194.9594,45.8333
194.9594,45.8333
194.9395,46.0600
187.3905,46.0600
187.3706,45.8333
187.3117,45.6135
187.2156,45.4073
187.0850,45.2209
187.0850,45.2209
186.9241,45.0600
186.7377,44.9294
186.7377,44.9294
186.5315,44.8333
186.5315,44.8333
186.3117,44.7744
186.3117,44.7744
186.3117,44.7744
186.3117,44.7744
186.3117,44.7744
186.0850,44.7545
186.0850,44.7545
185.8583,44.7744
185.8583,44.7744
185.6385,44.8333
185.6385,44.8333
185.4323,44.9294
185.4323,44.9294
185.2459,45.0600
185.0850,45.2209
184.9544,45.4073
184.9544,45.4073
184.8583,45.6135
184.8583,45.6135
184.7994,45.8333
184.7994,45.8333
184.7795,46.0600
142.5505,46.0600
142.5306,45.8333
142.4717,45.6135
142.3756,45.4073
142.2450,45.2209
142.2450,45.2209
142.0841,45.0600
141.8977,44.9294
141.8977,44.9294
141.6915,44.8333
141.6915,44.8333
141.4717,44.7744
141.4717,44.7744
141.4717,44.7744
141.4717,44.7744
141.4717,44.7744
141.2450,44.7545
141.2450,44.7545
141.0183,44.7744
141.0183,44.7744
140.7985,44.8333
140.7985,44.8333
140.5923,44.9294
140.5923,44.9294
140.4059,45.0600
140.2450,45.2209
140.1144,45.4073
140.1144,45.4073
140.0183,45.6135
140.0183,45.6135
139.9594,45.8333
139.9594,45.8333
139.9395,46.0600
132.3905,46.0600
132.3706,45.8333
132.3117,45.6135
132.2156,45.4073
132.0850,45.2209
132.0850,45.2209
131.9241,45.0600
131.7377,44.9294
131.7377,44.9294
131.5315,44.8333
131.5315,44.8333
131.3117,44.7744
131.3117,44.7744
131.3117,44.7744
131.3117,44.7744
131.3117,44.7744
131.0850,44.7545
131.0850,44.7545
130.8583,44.7744
130.8583,44.7744
130.6385,44.8333
130.6385,44.8333
130.4323,44.9294
130.4323,44.9294
130.2459,45.0600
130.0850,45.2209
129.9544,45.4073
129.9544,45.4073
129.8583,45.6135
129.8583,45.6135
129.7994,45.8333
129.7994,45.8333
129.7795,46.0600
123.7155,46.0600
123.7155,40.2087
124.3145,40.2087
124.3145,40.4513
124.3462,40.6918
124.4089,40.9261
124.5018,41.1502
124.5018,41.1502
124.6231,41.3603
124.6231,41.3603
124.6231,41.3603
124.7707,41.5527
124.7707,41.5527
124.9423,41.7243
124.9423,41.7243
125.1347,41.8719
125.3448,41.9932
125.5689,42.0861
125.8032,42.1488
125.9836,42.1726
126.0437,42.1805
126.0437,42.1805
126.2863,42.1805
126.3344,42.1742
126.5268,42.1488
126.7611,42.0861
126.9852,41.9932
127.1953,41.8719
127.3877,41.7243
127.5593,41.5527
127.7069,41.3603
127.8282,41.1502
127.9211,40.9261
127.9838,40.6918
128.0155,40.4513
128.0155,40.2087
128.0155,40.2087
199.3145,40.2087
199.3145,40.4513
199.3462,40.6918
199.4089,40.9261
199.5018,41.1502
199.5018,41.1502
199.6231,41.3603
199.6231,41.3603
199.6231,41.3603
199.7707,41.5527
199.7707,41.5527
199.9423,41.7243
199.9423,41.7243
200.1347,41.8719
200.3448,41.9932
200.5689,42.0861
200.8032,42.1488
200.9836,42.1726
201.0437,42.1805
201.0437,42.1805
201.2863,42.1805
201.3344,42.1742
201.5268,42.1488
201.7611,42.0861
201.9852,41.9932
202.1953,41.8719
202.3877,41.7243
202.5593,41.5527
202.7069,41.3603
202.8282,41.1502
202.9211,40.9261
202.9838,40.6918
203.0155,40.4513
203.0155,40.2087
202.9838,39.9682
202.9211,39.7339
202.8282,39.5098
202.7069,39.2997
202.5593,39.1073
202.5593,39.1073
202.3877,38.9357
202.3877,38.9357
202.1953,38.7881
202.1953,38.7881
202.1953,38.7881
201.9852,38.6668
201.9852,38.6668
201.7611,38.5739
201.5268,38.5112
201.2863,38.4795
201.2863,38.4795
201.0437,38.4795
201.0437,38.4795
200.8032,38.5112
200.5689,38.5739
200.3448,38.6668
200.3448,38.6668
200.1347,38.7881
199.9423,38.9357
199.9423,38.9357
199.7707,39.1073
199.7707,39.1073
199.6231,39.2997
199.5018,39.5098
199.5018,39.5098
199.4089,39.7339
199.3462,39.9682
199.3145,40.2087
128.0155,40.2087
127.9838,39.9682
127.9211,39.7339
127.8282,39.5098
127.7069,39.2997
127.5593,39.1073
127.5593,39.1073
127.3877,38.9357
127.3877,38.9357
127.1953,38.7881
127.1953,38.7881
127.1953,38.7881
126.9852,38.6668
126.9852,38.6668
126.7611,38.5739
126.5268,38.5112
126.2863,38.4795
126.2863,38.4795
126.0437,38.4795
126.0437,38.4795
125.8032,38.5112
125.5689,38.5739
125.3448,38.6668
125.3448,38.6668
125.1347,38.7881
124.9423,38.9357
124.9423,38.9357
124.7707,39.1073
124.7707,39.1073
124.6231,39.2997
124.5018,39.5098
124.5018,39.5098
124.4089,39.7339
124.3462,39.9682
124.3145,40.2087
123.7155,40.2087
123.7155,38.0045
123.7352,37.9375
123.7880,37.8917
123.8395,37.8805
203.4905,37.8805
Z" /> 
<path style="fill:none; 
stroke:#000000; stroke-width:0.0500; stroke-opacity:1; 
stroke-linecap:round; stroke-linejoin:round;fill:none"
d="M 122.6650,36.8300
204.6650,36.8300
204.6650,86.8300
122.6650,86.8300
Z" /> 
</g> 
</svg>
