%TF.GenerationSoftware,KiCad,Pcbnew,8.0.5*%
%TF.CreationDate,2025-02-08T22:31:55+08:00*%
%TF.ProjectId,arduino_solar_bikelight_2,61726475-696e-46f5-9f73-6f6c61725f62,rev?*%
%TF.SameCoordinates,Original*%
%TF.FileFunction,Soldermask,Bot*%
%TF.FilePolarity,Negative*%
%FSLAX46Y46*%
G04 Gerber Fmt 4.6, Leading zero omitted, Abs format (unit mm)*
G04 Created by KiCad (PCBNEW 8.0.5) date 2025-02-08 22:31:55*
%MOMM*%
%LPD*%
G01*
G04 APERTURE LIST*
%ADD10C,1.600000*%
%ADD11O,1.600000X1.600000*%
%ADD12C,3.200000*%
%ADD13R,1.800000X1.800000*%
%ADD14C,1.800000*%
%ADD15O,2.900000X1.700000*%
%ADD16R,1.700000X1.700000*%
%ADD17O,1.700000X1.700000*%
%TA.AperFunction,Profile*%
%ADD18C,0.050000*%
%TD*%
G04 APERTURE END LIST*
D10*
%TO.C,R9*%
X168745000Y-67445000D03*
D11*
X158585000Y-67445000D03*
%TD*%
D12*
%TO.C,REF\u002A\u002A*%
X126165000Y-40330000D03*
%TD*%
D13*
%TO.C,D5*%
X149855000Y-51010000D03*
D14*
X147315000Y-51010000D03*
%TD*%
D13*
%TO.C,D8*%
X179855000Y-76010000D03*
D14*
X177315000Y-76010000D03*
%TD*%
D10*
%TO.C,R4*%
X196245000Y-71060000D03*
D11*
X186085000Y-71060000D03*
%TD*%
D13*
%TO.C,D1*%
X137355000Y-51010000D03*
D14*
X134815000Y-51010000D03*
%TD*%
D10*
%TO.C,R7*%
X153745000Y-66395000D03*
D11*
X143585000Y-66395000D03*
%TD*%
D13*
%TO.C,D9*%
X164855000Y-72395000D03*
D14*
X162315000Y-72395000D03*
%TD*%
D13*
%TO.C,D2*%
X192355000Y-51010000D03*
D14*
X189815000Y-51010000D03*
%TD*%
D10*
%TO.C,R1*%
X141245000Y-46060000D03*
D11*
X131085000Y-46060000D03*
%TD*%
D13*
%TO.C,D3*%
X137355000Y-76010000D03*
D14*
X134815000Y-76010000D03*
%TD*%
D13*
%TO.C,D7*%
X149855000Y-76010000D03*
D14*
X147315000Y-76010000D03*
%TD*%
D10*
%TO.C,R3*%
X141245000Y-71060000D03*
D11*
X131085000Y-71060000D03*
%TD*%
D14*
%TO.C,SW1*%
X163665000Y-48395000D03*
X163665000Y-57395000D03*
D15*
X157415000Y-50395000D03*
X169915000Y-50395000D03*
X157415000Y-55395000D03*
X169915000Y-55395000D03*
%TD*%
D10*
%TO.C,R8*%
X183745000Y-66395000D03*
D11*
X173585000Y-66395000D03*
%TD*%
D10*
%TO.C,R2*%
X196245000Y-46060000D03*
D11*
X186085000Y-46060000D03*
%TD*%
D13*
%TO.C,D6*%
X179855000Y-51010000D03*
D14*
X177315000Y-51010000D03*
%TD*%
D10*
%TO.C,R5*%
X153745000Y-58395000D03*
D11*
X143585000Y-58395000D03*
%TD*%
D12*
%TO.C,REF\u002A\u002A*%
X201165000Y-83330000D03*
%TD*%
%TO.C,REF\u002A\u002A*%
X201165000Y-40330000D03*
%TD*%
%TO.C,REF\u002A\u002A*%
X126165000Y-83330000D03*
%TD*%
D13*
%TO.C,D4*%
X192355000Y-76010000D03*
D14*
X189815000Y-76010000D03*
%TD*%
D10*
%TO.C,R6*%
X183745000Y-58395000D03*
D11*
X173585000Y-58395000D03*
%TD*%
D16*
%TO.C,J1*%
X198140000Y-56780000D03*
D17*
X198140000Y-59320000D03*
X198140000Y-61860000D03*
X198140000Y-64400000D03*
X198140000Y-66940000D03*
%TD*%
D16*
%TO.C,J2*%
X127640000Y-56780000D03*
D17*
X127640000Y-59320000D03*
X127640000Y-61860000D03*
X127640000Y-64400000D03*
X127640000Y-66940000D03*
%TD*%
D18*
X122665000Y-36830000D02*
X204665000Y-36830000D01*
X204665000Y-86830000D01*
X122665000Y-86830000D01*
X122665000Y-36830000D01*
M02*
