<?xml version="1.0" standalone="no"?>
 <!DOCTYPE svg PUBLIC "-//W3C//DTD SVG 1.1//EN" 
 "http://www.w3.org/Graphics/SVG/1.1/DTD/svg11.dtd"> 
<svg
  xmlns:svg="http://www.w3.org/2000/svg"
  xmlns="http://www.w3.org/2000/svg"
  xmlns:xlink="http://www.w3.org/1999/xlink"
  version="1.1"
  width="297.0022mm" height="210.0072mm" viewBox="0.0000 0.0000 297.0022 210.0072">
<title>SVG Image created as arduino_solar_bikelight_2-F_Silkscreen.svg date 2025/02/08 22:32:36 </title>
  <desc>Image generated by PCBNEW </desc>
<g style="fill:#000000; fill-opacity:1.0000;stroke:#000000; stroke-opacity:1.0000;
stroke-linecap:round; stroke-linejoin:round;"
 transform="translate(0 0) scale(1 1)">
</g>
<g style="fill:none; 
stroke:#000000; stroke-width:0.1500; stroke-opacity:1; 
stroke-linecap:round; stroke-linejoin:round;">
<text x="163.6650" y="70.3150"
textLength="2.2024" font-size="1.3333" lengthAdjust="spacingAndGlyphs"
text-anchor="middle" opacity="0" stroke-opacity="0">R9</text>
<g class="stroked-text"><desc>R9</desc>
<path d="M163.4983 70.2698
L163.1650 69.7936
" />
<path d="M162.9269 70.2698
L162.9269 69.2698
" />
<path d="M162.9269 69.2698
L163.3079 69.2698
" />
<path d="M163.3079 69.2698
L163.4031 69.3174
" />
<path d="M163.4031 69.3174
L163.4507 69.3651
" />
<path d="M163.4507 69.3651
L163.4983 69.4603
" />
<path d="M163.4983 69.4603
L163.4983 69.6032
" />
<path d="M163.4983 69.6032
L163.4507 69.6984
" />
<path d="M163.4507 69.6984
L163.4031 69.7460
" />
<path d="M163.4031 69.7460
L163.3079 69.7936
" />
<path d="M163.3079 69.7936
L162.9269 69.7936
" />
<path d="M163.9745 70.2698
L164.1650 70.2698
" />
<path d="M164.1650 70.2698
L164.2602 70.2222
" />
<path d="M164.2602 70.2222
L164.3079 70.1746
" />
<path d="M164.3079 70.1746
L164.4031 70.0317
" />
<path d="M164.4031 70.0317
L164.4507 69.8412
" />
<path d="M164.4507 69.8412
L164.4507 69.4603
" />
<path d="M164.4507 69.4603
L164.4031 69.3651
" />
<path d="M164.4031 69.3651
L164.3555 69.3174
" />
<path d="M164.3555 69.3174
L164.2602 69.2698
" />
<path d="M164.2602 69.2698
L164.0698 69.2698
" />
<path d="M164.0698 69.2698
L163.9745 69.3174
" />
<path d="M163.9745 69.3174
L163.9269 69.3651
" />
<path d="M163.9269 69.3651
L163.8793 69.4603
" />
<path d="M163.8793 69.4603
L163.8793 69.6984
" />
<path d="M163.8793 69.6984
L163.9269 69.7936
" />
<path d="M163.9269 69.7936
L163.9745 69.8412
" />
<path d="M163.9745 69.8412
L164.0698 69.8889
" />
<path d="M164.0698 69.8889
L164.2602 69.8889
" />
<path d="M164.2602 69.8889
L164.3555 69.8412
" />
<path d="M164.3555 69.8412
L164.4031 69.7936
" />
<path d="M164.4031 69.7936
L164.4507 69.6984
" />
</g><text x="148.5850" y="55.4700"
textLength="2.2024" font-size="1.3333" lengthAdjust="spacingAndGlyphs"
text-anchor="middle" opacity="0" stroke-opacity="0">D5</text>
<g class="stroked-text"><desc>D5</desc>
<path d="M147.8469 55.4248
L147.8469 54.4248
" />
<path d="M147.8469 54.4248
L148.0850 54.4248
" />
<path d="M148.0850 54.4248
L148.2279 54.4724
" />
<path d="M148.2279 54.4724
L148.3231 54.5677
" />
<path d="M148.3231 54.5677
L148.3707 54.6629
" />
<path d="M148.3707 54.6629
L148.4183 54.8534
" />
<path d="M148.4183 54.8534
L148.4183 54.9962
" />
<path d="M148.4183 54.9962
L148.3707 55.1867
" />
<path d="M148.3707 55.1867
L148.3231 55.2820
" />
<path d="M148.3231 55.2820
L148.2279 55.3772
" />
<path d="M148.2279 55.3772
L148.0850 55.4248
" />
<path d="M148.0850 55.4248
L147.8469 55.4248
" />
<path d="M149.3231 54.4248
L148.8469 54.4248
" />
<path d="M148.8469 54.4248
L148.7993 54.9010
" />
<path d="M148.7993 54.9010
L148.8469 54.8534
" />
<path d="M148.8469 54.8534
L148.9421 54.8058
" />
<path d="M148.9421 54.8058
L149.1802 54.8058
" />
<path d="M149.1802 54.8058
L149.2755 54.8534
" />
<path d="M149.2755 54.8534
L149.3231 54.9010
" />
<path d="M149.3231 54.9010
L149.3707 54.9962
" />
<path d="M149.3707 54.9962
L149.3707 55.2343
" />
<path d="M149.3707 55.2343
L149.3231 55.3296
" />
<path d="M149.3231 55.3296
L149.2755 55.3772
" />
<path d="M149.2755 55.3772
L149.1802 55.4248
" />
<path d="M149.1802 55.4248
L148.9421 55.4248
" />
<path d="M148.9421 55.4248
L148.8469 55.3772
" />
<path d="M148.8469 55.3772
L148.7993 55.3296
" />
</g><text x="178.5850" y="80.4700"
textLength="2.2024" font-size="1.3333" lengthAdjust="spacingAndGlyphs"
text-anchor="middle" opacity="0" stroke-opacity="0">D8</text>
<g class="stroked-text"><desc>D8</desc>
<path d="M177.8469 80.4248
L177.8469 79.4248
" />
<path d="M177.8469 79.4248
L178.0850 79.4248
" />
<path d="M178.0850 79.4248
L178.2279 79.4724
" />
<path d="M178.2279 79.4724
L178.3231 79.5677
" />
<path d="M178.3231 79.5677
L178.3707 79.6629
" />
<path d="M178.3707 79.6629
L178.4183 79.8534
" />
<path d="M178.4183 79.8534
L178.4183 79.9962
" />
<path d="M178.4183 79.9962
L178.3707 80.1867
" />
<path d="M178.3707 80.1867
L178.3231 80.2820
" />
<path d="M178.3231 80.2820
L178.2279 80.3772
" />
<path d="M178.2279 80.3772
L178.0850 80.4248
" />
<path d="M178.0850 80.4248
L177.8469 80.4248
" />
<path d="M178.9898 79.8534
L178.8945 79.8058
" />
<path d="M178.8945 79.8058
L178.8469 79.7582
" />
<path d="M178.8469 79.7582
L178.7993 79.6629
" />
<path d="M178.7993 79.6629
L178.7993 79.6153
" />
<path d="M178.7993 79.6153
L178.8469 79.5201
" />
<path d="M178.8469 79.5201
L178.8945 79.4724
" />
<path d="M178.8945 79.4724
L178.9898 79.4248
" />
<path d="M178.9898 79.4248
L179.1802 79.4248
" />
<path d="M179.1802 79.4248
L179.2755 79.4724
" />
<path d="M179.2755 79.4724
L179.3231 79.5201
" />
<path d="M179.3231 79.5201
L179.3707 79.6153
" />
<path d="M179.3707 79.6153
L179.3707 79.6629
" />
<path d="M179.3707 79.6629
L179.3231 79.7582
" />
<path d="M179.3231 79.7582
L179.2755 79.8058
" />
<path d="M179.2755 79.8058
L179.1802 79.8534
" />
<path d="M179.1802 79.8534
L178.9898 79.8534
" />
<path d="M178.9898 79.8534
L178.8945 79.9010
" />
<path d="M178.8945 79.9010
L178.8469 79.9486
" />
<path d="M178.8469 79.9486
L178.7993 80.0439
" />
<path d="M178.7993 80.0439
L178.7993 80.2343
" />
<path d="M178.7993 80.2343
L178.8469 80.3296
" />
<path d="M178.8469 80.3296
L178.8945 80.3772
" />
<path d="M178.8945 80.3772
L178.9898 80.4248
" />
<path d="M178.9898 80.4248
L179.1802 80.4248
" />
<path d="M179.1802 80.4248
L179.2755 80.3772
" />
<path d="M179.2755 80.3772
L179.3231 80.3296
" />
<path d="M179.3231 80.3296
L179.3707 80.2343
" />
<path d="M179.3707 80.2343
L179.3707 80.0439
" />
<path d="M179.3707 80.0439
L179.3231 79.9486
" />
<path d="M179.3231 79.9486
L179.2755 79.9010
" />
<path d="M179.2755 79.9010
L179.1802 79.8534
" />
</g><text x="191.1650" y="73.9300"
textLength="2.2024" font-size="1.3333" lengthAdjust="spacingAndGlyphs"
text-anchor="middle" opacity="0" stroke-opacity="0">R4</text>
<g class="stroked-text"><desc>R4</desc>
<path d="M190.9983 73.8848
L190.6650 73.4086
" />
<path d="M190.4269 73.8848
L190.4269 72.8848
" />
<path d="M190.4269 72.8848
L190.8079 72.8848
" />
<path d="M190.8079 72.8848
L190.9031 72.9324
" />
<path d="M190.9031 72.9324
L190.9507 72.9801
" />
<path d="M190.9507 72.9801
L190.9983 73.0753
" />
<path d="M190.9983 73.0753
L190.9983 73.2182
" />
<path d="M190.9983 73.2182
L190.9507 73.3134
" />
<path d="M190.9507 73.3134
L190.9031 73.3610
" />
<path d="M190.9031 73.3610
L190.8079 73.4086
" />
<path d="M190.8079 73.4086
L190.4269 73.4086
" />
<path d="M191.8555 73.2182
L191.8555 73.8848
" />
<path d="M191.6174 72.8372
L191.3793 73.5515
" />
<path d="M191.3793 73.5515
L191.9983 73.5515
" />
</g><text x="136.0850" y="55.4700"
textLength="2.2024" font-size="1.3333" lengthAdjust="spacingAndGlyphs"
text-anchor="middle" opacity="0" stroke-opacity="0">D1</text>
<g class="stroked-text"><desc>D1</desc>
<path d="M135.3469 55.4248
L135.3469 54.4248
" />
<path d="M135.3469 54.4248
L135.5850 54.4248
" />
<path d="M135.5850 54.4248
L135.7279 54.4724
" />
<path d="M135.7279 54.4724
L135.8231 54.5677
" />
<path d="M135.8231 54.5677
L135.8707 54.6629
" />
<path d="M135.8707 54.6629
L135.9183 54.8534
" />
<path d="M135.9183 54.8534
L135.9183 54.9962
" />
<path d="M135.9183 54.9962
L135.8707 55.1867
" />
<path d="M135.8707 55.1867
L135.8231 55.2820
" />
<path d="M135.8231 55.2820
L135.7279 55.3772
" />
<path d="M135.7279 55.3772
L135.5850 55.4248
" />
<path d="M135.5850 55.4248
L135.3469 55.4248
" />
<path d="M136.8707 55.4248
L136.2993 55.4248
" />
<path d="M136.5850 55.4248
L136.5850 54.4248
" />
<path d="M136.5850 54.4248
L136.4898 54.5677
" />
<path d="M136.4898 54.5677
L136.3945 54.6629
" />
<path d="M136.3945 54.6629
L136.2993 54.7105
" />
</g><text x="148.6650" y="69.2650"
textLength="2.2024" font-size="1.3333" lengthAdjust="spacingAndGlyphs"
text-anchor="middle" opacity="0" stroke-opacity="0">R7</text>
<g class="stroked-text"><desc>R7</desc>
<path d="M148.4983 69.2198
L148.1650 68.7436
" />
<path d="M147.9269 69.2198
L147.9269 68.2198
" />
<path d="M147.9269 68.2198
L148.3079 68.2198
" />
<path d="M148.3079 68.2198
L148.4031 68.2674
" />
<path d="M148.4031 68.2674
L148.4507 68.3151
" />
<path d="M148.4507 68.3151
L148.4983 68.4103
" />
<path d="M148.4983 68.4103
L148.4983 68.5532
" />
<path d="M148.4983 68.5532
L148.4507 68.6484
" />
<path d="M148.4507 68.6484
L148.4031 68.6960
" />
<path d="M148.4031 68.6960
L148.3079 68.7436
" />
<path d="M148.3079 68.7436
L147.9269 68.7436
" />
<path d="M148.8317 68.2198
L149.4983 68.2198
" />
<path d="M149.4983 68.2198
L149.0698 69.2198
" />
</g><text x="163.5850" y="76.8550"
textLength="2.2024" font-size="1.3333" lengthAdjust="spacingAndGlyphs"
text-anchor="middle" opacity="0" stroke-opacity="0">D9</text>
<g class="stroked-text"><desc>D9</desc>
<path d="M162.8469 76.8098
L162.8469 75.8098
" />
<path d="M162.8469 75.8098
L163.0850 75.8098
" />
<path d="M163.0850 75.8098
L163.2279 75.8574
" />
<path d="M163.2279 75.8574
L163.3231 75.9527
" />
<path d="M163.3231 75.9527
L163.3707 76.0479
" />
<path d="M163.3707 76.0479
L163.4183 76.2384
" />
<path d="M163.4183 76.2384
L163.4183 76.3812
" />
<path d="M163.4183 76.3812
L163.3707 76.5717
" />
<path d="M163.3707 76.5717
L163.3231 76.6670
" />
<path d="M163.3231 76.6670
L163.2279 76.7622
" />
<path d="M163.2279 76.7622
L163.0850 76.8098
" />
<path d="M163.0850 76.8098
L162.8469 76.8098
" />
<path d="M163.8945 76.8098
L164.0850 76.8098
" />
<path d="M164.0850 76.8098
L164.1802 76.7622
" />
<path d="M164.1802 76.7622
L164.2279 76.7146
" />
<path d="M164.2279 76.7146
L164.3231 76.5717
" />
<path d="M164.3231 76.5717
L164.3707 76.3812
" />
<path d="M164.3707 76.3812
L164.3707 76.0003
" />
<path d="M164.3707 76.0003
L164.3231 75.9051
" />
<path d="M164.3231 75.9051
L164.2755 75.8574
" />
<path d="M164.2755 75.8574
L164.1802 75.8098
" />
<path d="M164.1802 75.8098
L163.9898 75.8098
" />
<path d="M163.9898 75.8098
L163.8945 75.8574
" />
<path d="M163.8945 75.8574
L163.8469 75.9051
" />
<path d="M163.8469 75.9051
L163.7993 76.0003
" />
<path d="M163.7993 76.0003
L163.7993 76.2384
" />
<path d="M163.7993 76.2384
L163.8469 76.3336
" />
<path d="M163.8469 76.3336
L163.8945 76.3812
" />
<path d="M163.8945 76.3812
L163.9898 76.4289
" />
<path d="M163.9898 76.4289
L164.1802 76.4289
" />
<path d="M164.1802 76.4289
L164.2755 76.3812
" />
<path d="M164.2755 76.3812
L164.3231 76.3336
" />
<path d="M164.3231 76.3336
L164.3707 76.2384
" />
</g><text x="191.0850" y="55.4700"
textLength="2.2024" font-size="1.3333" lengthAdjust="spacingAndGlyphs"
text-anchor="middle" opacity="0" stroke-opacity="0">D2</text>
<g class="stroked-text"><desc>D2</desc>
<path d="M190.3469 55.4248
L190.3469 54.4248
" />
<path d="M190.3469 54.4248
L190.5850 54.4248
" />
<path d="M190.5850 54.4248
L190.7279 54.4724
" />
<path d="M190.7279 54.4724
L190.8231 54.5677
" />
<path d="M190.8231 54.5677
L190.8707 54.6629
" />
<path d="M190.8707 54.6629
L190.9183 54.8534
" />
<path d="M190.9183 54.8534
L190.9183 54.9962
" />
<path d="M190.9183 54.9962
L190.8707 55.1867
" />
<path d="M190.8707 55.1867
L190.8231 55.2820
" />
<path d="M190.8231 55.2820
L190.7279 55.3772
" />
<path d="M190.7279 55.3772
L190.5850 55.4248
" />
<path d="M190.5850 55.4248
L190.3469 55.4248
" />
<path d="M191.2993 54.5201
L191.3469 54.4724
" />
<path d="M191.3469 54.4724
L191.4421 54.4248
" />
<path d="M191.4421 54.4248
L191.6802 54.4248
" />
<path d="M191.6802 54.4248
L191.7755 54.4724
" />
<path d="M191.7755 54.4724
L191.8231 54.5201
" />
<path d="M191.8231 54.5201
L191.8707 54.6153
" />
<path d="M191.8707 54.6153
L191.8707 54.7105
" />
<path d="M191.8707 54.7105
L191.8231 54.8534
" />
<path d="M191.8231 54.8534
L191.2517 55.4248
" />
<path d="M191.2517 55.4248
L191.8707 55.4248
" />
</g><text x="136.1650" y="48.9300"
textLength="2.2024" font-size="1.3333" lengthAdjust="spacingAndGlyphs"
text-anchor="middle" opacity="0" stroke-opacity="0">R1</text>
<g class="stroked-text"><desc>R1</desc>
<path d="M135.9983 48.8848
L135.6650 48.4086
" />
<path d="M135.4269 48.8848
L135.4269 47.8848
" />
<path d="M135.4269 47.8848
L135.8079 47.8848
" />
<path d="M135.8079 47.8848
L135.9031 47.9324
" />
<path d="M135.9031 47.9324
L135.9507 47.9801
" />
<path d="M135.9507 47.9801
L135.9983 48.0753
" />
<path d="M135.9983 48.0753
L135.9983 48.2182
" />
<path d="M135.9983 48.2182
L135.9507 48.3134
" />
<path d="M135.9507 48.3134
L135.9031 48.3610
" />
<path d="M135.9031 48.3610
L135.8079 48.4086
" />
<path d="M135.8079 48.4086
L135.4269 48.4086
" />
<path d="M136.9507 48.8848
L136.3793 48.8848
" />
<path d="M136.6650 48.8848
L136.6650 47.8848
" />
<path d="M136.6650 47.8848
L136.5698 48.0277
" />
<path d="M136.5698 48.0277
L136.4745 48.1229
" />
<path d="M136.4745 48.1229
L136.3793 48.1705
" />
</g><text x="136.0850" y="80.4700"
textLength="2.2024" font-size="1.3333" lengthAdjust="spacingAndGlyphs"
text-anchor="middle" opacity="0" stroke-opacity="0">D3</text>
<g class="stroked-text"><desc>D3</desc>
<path d="M135.3469 80.4248
L135.3469 79.4248
" />
<path d="M135.3469 79.4248
L135.5850 79.4248
" />
<path d="M135.5850 79.4248
L135.7279 79.4724
" />
<path d="M135.7279 79.4724
L135.8231 79.5677
" />
<path d="M135.8231 79.5677
L135.8707 79.6629
" />
<path d="M135.8707 79.6629
L135.9183 79.8534
" />
<path d="M135.9183 79.8534
L135.9183 79.9962
" />
<path d="M135.9183 79.9962
L135.8707 80.1867
" />
<path d="M135.8707 80.1867
L135.8231 80.2820
" />
<path d="M135.8231 80.2820
L135.7279 80.3772
" />
<path d="M135.7279 80.3772
L135.5850 80.4248
" />
<path d="M135.5850 80.4248
L135.3469 80.4248
" />
<path d="M136.2517 79.4248
L136.8707 79.4248
" />
<path d="M136.8707 79.4248
L136.5374 79.8058
" />
<path d="M136.5374 79.8058
L136.6802 79.8058
" />
<path d="M136.6802 79.8058
L136.7755 79.8534
" />
<path d="M136.7755 79.8534
L136.8231 79.9010
" />
<path d="M136.8231 79.9010
L136.8707 79.9962
" />
<path d="M136.8707 79.9962
L136.8707 80.2343
" />
<path d="M136.8707 80.2343
L136.8231 80.3296
" />
<path d="M136.8231 80.3296
L136.7755 80.3772
" />
<path d="M136.7755 80.3772
L136.6802 80.4248
" />
<path d="M136.6802 80.4248
L136.3945 80.4248
" />
<path d="M136.3945 80.4248
L136.2993 80.3772
" />
<path d="M136.2993 80.3772
L136.2517 80.3296
" />
</g><text x="148.5850" y="80.4700"
textLength="2.2024" font-size="1.3333" lengthAdjust="spacingAndGlyphs"
text-anchor="middle" opacity="0" stroke-opacity="0">D7</text>
<g class="stroked-text"><desc>D7</desc>
<path d="M147.8469 80.4248
L147.8469 79.4248
" />
<path d="M147.8469 79.4248
L148.0850 79.4248
" />
<path d="M148.0850 79.4248
L148.2279 79.4724
" />
<path d="M148.2279 79.4724
L148.3231 79.5677
" />
<path d="M148.3231 79.5677
L148.3707 79.6629
" />
<path d="M148.3707 79.6629
L148.4183 79.8534
" />
<path d="M148.4183 79.8534
L148.4183 79.9962
" />
<path d="M148.4183 79.9962
L148.3707 80.1867
" />
<path d="M148.3707 80.1867
L148.3231 80.2820
" />
<path d="M148.3231 80.2820
L148.2279 80.3772
" />
<path d="M148.2279 80.3772
L148.0850 80.4248
" />
<path d="M148.0850 80.4248
L147.8469 80.4248
" />
<path d="M148.7517 79.4248
L149.4183 79.4248
" />
<path d="M149.4183 79.4248
L148.9898 80.4248
" />
</g><text x="136.1650" y="73.9300"
textLength="2.2024" font-size="1.3333" lengthAdjust="spacingAndGlyphs"
text-anchor="middle" opacity="0" stroke-opacity="0">R3</text>
<g class="stroked-text"><desc>R3</desc>
<path d="M135.9983 73.8848
L135.6650 73.4086
" />
<path d="M135.4269 73.8848
L135.4269 72.8848
" />
<path d="M135.4269 72.8848
L135.8079 72.8848
" />
<path d="M135.8079 72.8848
L135.9031 72.9324
" />
<path d="M135.9031 72.9324
L135.9507 72.9801
" />
<path d="M135.9507 72.9801
L135.9983 73.0753
" />
<path d="M135.9983 73.0753
L135.9983 73.2182
" />
<path d="M135.9983 73.2182
L135.9507 73.3134
" />
<path d="M135.9507 73.3134
L135.9031 73.3610
" />
<path d="M135.9031 73.3610
L135.8079 73.4086
" />
<path d="M135.8079 73.4086
L135.4269 73.4086
" />
<path d="M136.3317 72.8848
L136.9507 72.8848
" />
<path d="M136.9507 72.8848
L136.6174 73.2658
" />
<path d="M136.6174 73.2658
L136.7602 73.2658
" />
<path d="M136.7602 73.2658
L136.8555 73.3134
" />
<path d="M136.8555 73.3134
L136.9031 73.3610
" />
<path d="M136.9031 73.3610
L136.9507 73.4562
" />
<path d="M136.9507 73.4562
L136.9507 73.6943
" />
<path d="M136.9507 73.6943
L136.9031 73.7896
" />
<path d="M136.9031 73.7896
L136.8555 73.8372
" />
<path d="M136.8555 73.8372
L136.7602 73.8848
" />
<path d="M136.7602 73.8848
L136.4745 73.8848
" />
<path d="M136.4745 73.8848
L136.3793 73.8372
" />
<path d="M136.3793 73.8372
L136.3317 73.7896
" />
</g><text x="163.6650" y="45.0950"
textLength="3.2976" font-size="1.3333" lengthAdjust="spacingAndGlyphs"
text-anchor="middle" opacity="0" stroke-opacity="0">SW1</text>
<g class="stroked-text"><desc>SW1</desc>
<path d="M162.3317 45.0022
L162.4745 45.0498
" />
<path d="M162.4745 45.0498
L162.7126 45.0498
" />
<path d="M162.7126 45.0498
L162.8079 45.0022
" />
<path d="M162.8079 45.0022
L162.8555 44.9546
" />
<path d="M162.8555 44.9546
L162.9031 44.8593
" />
<path d="M162.9031 44.8593
L162.9031 44.7641
" />
<path d="M162.9031 44.7641
L162.8555 44.6689
" />
<path d="M162.8555 44.6689
L162.8079 44.6212
" />
<path d="M162.8079 44.6212
L162.7126 44.5736
" />
<path d="M162.7126 44.5736
L162.5221 44.5260
" />
<path d="M162.5221 44.5260
L162.4269 44.4784
" />
<path d="M162.4269 44.4784
L162.3793 44.4308
" />
<path d="M162.3793 44.4308
L162.3317 44.3355
" />
<path d="M162.3317 44.3355
L162.3317 44.2403
" />
<path d="M162.3317 44.2403
L162.3793 44.1451
" />
<path d="M162.3793 44.1451
L162.4269 44.0974
" />
<path d="M162.4269 44.0974
L162.5221 44.0498
" />
<path d="M162.5221 44.0498
L162.7602 44.0498
" />
<path d="M162.7602 44.0498
L162.9031 44.0974
" />
<path d="M163.2364 44.0498
L163.4745 45.0498
" />
<path d="M163.4745 45.0498
L163.6650 44.3355
" />
<path d="M163.6650 44.3355
L163.8555 45.0498
" />
<path d="M163.8555 45.0498
L164.0936 44.0498
" />
<path d="M164.9983 45.0498
L164.4269 45.0498
" />
<path d="M164.7126 45.0498
L164.7126 44.0498
" />
<path d="M164.7126 44.0498
L164.6174 44.1927
" />
<path d="M164.6174 44.1927
L164.5221 44.2879
" />
<path d="M164.5221 44.2879
L164.4269 44.3355
" />
</g><text x="178.6650" y="69.2650"
textLength="2.2024" font-size="1.3333" lengthAdjust="spacingAndGlyphs"
text-anchor="middle" opacity="0" stroke-opacity="0">R8</text>
<g class="stroked-text"><desc>R8</desc>
<path d="M178.4983 69.2198
L178.1650 68.7436
" />
<path d="M177.9269 69.2198
L177.9269 68.2198
" />
<path d="M177.9269 68.2198
L178.3079 68.2198
" />
<path d="M178.3079 68.2198
L178.4031 68.2674
" />
<path d="M178.4031 68.2674
L178.4507 68.3151
" />
<path d="M178.4507 68.3151
L178.4983 68.4103
" />
<path d="M178.4983 68.4103
L178.4983 68.5532
" />
<path d="M178.4983 68.5532
L178.4507 68.6484
" />
<path d="M178.4507 68.6484
L178.4031 68.6960
" />
<path d="M178.4031 68.6960
L178.3079 68.7436
" />
<path d="M178.3079 68.7436
L177.9269 68.7436
" />
<path d="M179.0698 68.6484
L178.9745 68.6008
" />
<path d="M178.9745 68.6008
L178.9269 68.5532
" />
<path d="M178.9269 68.5532
L178.8793 68.4579
" />
<path d="M178.8793 68.4579
L178.8793 68.4103
" />
<path d="M178.8793 68.4103
L178.9269 68.3151
" />
<path d="M178.9269 68.3151
L178.9745 68.2674
" />
<path d="M178.9745 68.2674
L179.0698 68.2198
" />
<path d="M179.0698 68.2198
L179.2602 68.2198
" />
<path d="M179.2602 68.2198
L179.3555 68.2674
" />
<path d="M179.3555 68.2674
L179.4031 68.3151
" />
<path d="M179.4031 68.3151
L179.4507 68.4103
" />
<path d="M179.4507 68.4103
L179.4507 68.4579
" />
<path d="M179.4507 68.4579
L179.4031 68.5532
" />
<path d="M179.4031 68.5532
L179.3555 68.6008
" />
<path d="M179.3555 68.6008
L179.2602 68.6484
" />
<path d="M179.2602 68.6484
L179.0698 68.6484
" />
<path d="M179.0698 68.6484
L178.9745 68.6960
" />
<path d="M178.9745 68.6960
L178.9269 68.7436
" />
<path d="M178.9269 68.7436
L178.8793 68.8389
" />
<path d="M178.8793 68.8389
L178.8793 69.0293
" />
<path d="M178.8793 69.0293
L178.9269 69.1246
" />
<path d="M178.9269 69.1246
L178.9745 69.1722
" />
<path d="M178.9745 69.1722
L179.0698 69.2198
" />
<path d="M179.0698 69.2198
L179.2602 69.2198
" />
<path d="M179.2602 69.2198
L179.3555 69.1722
" />
<path d="M179.3555 69.1722
L179.4031 69.1246
" />
<path d="M179.4031 69.1246
L179.4507 69.0293
" />
<path d="M179.4507 69.0293
L179.4507 68.8389
" />
<path d="M179.4507 68.8389
L179.4031 68.7436
" />
<path d="M179.4031 68.7436
L179.3555 68.6960
" />
<path d="M179.3555 68.6960
L179.2602 68.6484
" />
</g><text x="191.1650" y="48.9300"
textLength="2.2024" font-size="1.3333" lengthAdjust="spacingAndGlyphs"
text-anchor="middle" opacity="0" stroke-opacity="0">R2</text>
<g class="stroked-text"><desc>R2</desc>
<path d="M190.9983 48.8848
L190.6650 48.4086
" />
<path d="M190.4269 48.8848
L190.4269 47.8848
" />
<path d="M190.4269 47.8848
L190.8079 47.8848
" />
<path d="M190.8079 47.8848
L190.9031 47.9324
" />
<path d="M190.9031 47.9324
L190.9507 47.9801
" />
<path d="M190.9507 47.9801
L190.9983 48.0753
" />
<path d="M190.9983 48.0753
L190.9983 48.2182
" />
<path d="M190.9983 48.2182
L190.9507 48.3134
" />
<path d="M190.9507 48.3134
L190.9031 48.3610
" />
<path d="M190.9031 48.3610
L190.8079 48.4086
" />
<path d="M190.8079 48.4086
L190.4269 48.4086
" />
<path d="M191.3793 47.9801
L191.4269 47.9324
" />
<path d="M191.4269 47.9324
L191.5221 47.8848
" />
<path d="M191.5221 47.8848
L191.7602 47.8848
" />
<path d="M191.7602 47.8848
L191.8555 47.9324
" />
<path d="M191.8555 47.9324
L191.9031 47.9801
" />
<path d="M191.9031 47.9801
L191.9507 48.0753
" />
<path d="M191.9507 48.0753
L191.9507 48.1705
" />
<path d="M191.9507 48.1705
L191.9031 48.3134
" />
<path d="M191.9031 48.3134
L191.3317 48.8848
" />
<path d="M191.3317 48.8848
L191.9507 48.8848
" />
</g><text x="178.5850" y="55.4700"
textLength="2.2024" font-size="1.3333" lengthAdjust="spacingAndGlyphs"
text-anchor="middle" opacity="0" stroke-opacity="0">D6</text>
<g class="stroked-text"><desc>D6</desc>
<path d="M177.8469 55.4248
L177.8469 54.4248
" />
<path d="M177.8469 54.4248
L178.0850 54.4248
" />
<path d="M178.0850 54.4248
L178.2279 54.4724
" />
<path d="M178.2279 54.4724
L178.3231 54.5677
" />
<path d="M178.3231 54.5677
L178.3707 54.6629
" />
<path d="M178.3707 54.6629
L178.4183 54.8534
" />
<path d="M178.4183 54.8534
L178.4183 54.9962
" />
<path d="M178.4183 54.9962
L178.3707 55.1867
" />
<path d="M178.3707 55.1867
L178.3231 55.2820
" />
<path d="M178.3231 55.2820
L178.2279 55.3772
" />
<path d="M178.2279 55.3772
L178.0850 55.4248
" />
<path d="M178.0850 55.4248
L177.8469 55.4248
" />
<path d="M179.2755 54.4248
L179.0850 54.4248
" />
<path d="M179.0850 54.4248
L178.9898 54.4724
" />
<path d="M178.9898 54.4724
L178.9421 54.5201
" />
<path d="M178.9421 54.5201
L178.8469 54.6629
" />
<path d="M178.8469 54.6629
L178.7993 54.8534
" />
<path d="M178.7993 54.8534
L178.7993 55.2343
" />
<path d="M178.7993 55.2343
L178.8469 55.3296
" />
<path d="M178.8469 55.3296
L178.8945 55.3772
" />
<path d="M178.8945 55.3772
L178.9898 55.4248
" />
<path d="M178.9898 55.4248
L179.1802 55.4248
" />
<path d="M179.1802 55.4248
L179.2755 55.3772
" />
<path d="M179.2755 55.3772
L179.3231 55.3296
" />
<path d="M179.3231 55.3296
L179.3707 55.2343
" />
<path d="M179.3707 55.2343
L179.3707 54.9962
" />
<path d="M179.3707 54.9962
L179.3231 54.9010
" />
<path d="M179.3231 54.9010
L179.2755 54.8534
" />
<path d="M179.2755 54.8534
L179.1802 54.8058
" />
<path d="M179.1802 54.8058
L178.9898 54.8058
" />
<path d="M178.9898 54.8058
L178.8945 54.8534
" />
<path d="M178.8945 54.8534
L178.8469 54.9010
" />
<path d="M178.8469 54.9010
L178.7993 54.9962
" />
</g><text x="148.6650" y="61.2650"
textLength="2.2024" font-size="1.3333" lengthAdjust="spacingAndGlyphs"
text-anchor="middle" opacity="0" stroke-opacity="0">R5</text>
<g class="stroked-text"><desc>R5</desc>
<path d="M148.4983 61.2198
L148.1650 60.7436
" />
<path d="M147.9269 61.2198
L147.9269 60.2198
" />
<path d="M147.9269 60.2198
L148.3079 60.2198
" />
<path d="M148.3079 60.2198
L148.4031 60.2674
" />
<path d="M148.4031 60.2674
L148.4507 60.3151
" />
<path d="M148.4507 60.3151
L148.4983 60.4103
" />
<path d="M148.4983 60.4103
L148.4983 60.5532
" />
<path d="M148.4983 60.5532
L148.4507 60.6484
" />
<path d="M148.4507 60.6484
L148.4031 60.6960
" />
<path d="M148.4031 60.6960
L148.3079 60.7436
" />
<path d="M148.3079 60.7436
L147.9269 60.7436
" />
<path d="M149.4031 60.2198
L148.9269 60.2198
" />
<path d="M148.9269 60.2198
L148.8793 60.6960
" />
<path d="M148.8793 60.6960
L148.9269 60.6484
" />
<path d="M148.9269 60.6484
L149.0221 60.6008
" />
<path d="M149.0221 60.6008
L149.2602 60.6008
" />
<path d="M149.2602 60.6008
L149.3555 60.6484
" />
<path d="M149.3555 60.6484
L149.4031 60.6960
" />
<path d="M149.4031 60.6960
L149.4507 60.7912
" />
<path d="M149.4507 60.7912
L149.4507 61.0293
" />
<path d="M149.4507 61.0293
L149.4031 61.1246
" />
<path d="M149.4031 61.1246
L149.3555 61.1722
" />
<path d="M149.3555 61.1722
L149.2602 61.2198
" />
<path d="M149.2602 61.2198
L149.0221 61.2198
" />
<path d="M149.0221 61.2198
L148.9269 61.1722
" />
<path d="M148.9269 61.1722
L148.8793 61.1246
" />
</g><text x="191.0850" y="80.4700"
textLength="2.2024" font-size="1.3333" lengthAdjust="spacingAndGlyphs"
text-anchor="middle" opacity="0" stroke-opacity="0">D4</text>
<g class="stroked-text"><desc>D4</desc>
<path d="M190.3469 80.4248
L190.3469 79.4248
" />
<path d="M190.3469 79.4248
L190.5850 79.4248
" />
<path d="M190.5850 79.4248
L190.7279 79.4724
" />
<path d="M190.7279 79.4724
L190.8231 79.5677
" />
<path d="M190.8231 79.5677
L190.8707 79.6629
" />
<path d="M190.8707 79.6629
L190.9183 79.8534
" />
<path d="M190.9183 79.8534
L190.9183 79.9962
" />
<path d="M190.9183 79.9962
L190.8707 80.1867
" />
<path d="M190.8707 80.1867
L190.8231 80.2820
" />
<path d="M190.8231 80.2820
L190.7279 80.3772
" />
<path d="M190.7279 80.3772
L190.5850 80.4248
" />
<path d="M190.5850 80.4248
L190.3469 80.4248
" />
<path d="M191.7755 79.7582
L191.7755 80.4248
" />
<path d="M191.5374 79.3772
L191.2993 80.0915
" />
<path d="M191.2993 80.0915
L191.9183 80.0915
" />
</g><text x="178.6650" y="61.2650"
textLength="2.2024" font-size="1.3333" lengthAdjust="spacingAndGlyphs"
text-anchor="middle" opacity="0" stroke-opacity="0">R6</text>
<g class="stroked-text"><desc>R6</desc>
<path d="M178.4983 61.2198
L178.1650 60.7436
" />
<path d="M177.9269 61.2198
L177.9269 60.2198
" />
<path d="M177.9269 60.2198
L178.3079 60.2198
" />
<path d="M178.3079 60.2198
L178.4031 60.2674
" />
<path d="M178.4031 60.2674
L178.4507 60.3151
" />
<path d="M178.4507 60.3151
L178.4983 60.4103
" />
<path d="M178.4983 60.4103
L178.4983 60.5532
" />
<path d="M178.4983 60.5532
L178.4507 60.6484
" />
<path d="M178.4507 60.6484
L178.4031 60.6960
" />
<path d="M178.4031 60.6960
L178.3079 60.7436
" />
<path d="M178.3079 60.7436
L177.9269 60.7436
" />
<path d="M179.3555 60.2198
L179.1650 60.2198
" />
<path d="M179.1650 60.2198
L179.0698 60.2674
" />
<path d="M179.0698 60.2674
L179.0221 60.3151
" />
<path d="M179.0221 60.3151
L178.9269 60.4579
" />
<path d="M178.9269 60.4579
L178.8793 60.6484
" />
<path d="M178.8793 60.6484
L178.8793 61.0293
" />
<path d="M178.8793 61.0293
L178.9269 61.1246
" />
<path d="M178.9269 61.1246
L178.9745 61.1722
" />
<path d="M178.9745 61.1722
L179.0698 61.2198
" />
<path d="M179.0698 61.2198
L179.2602 61.2198
" />
<path d="M179.2602 61.2198
L179.3555 61.1722
" />
<path d="M179.3555 61.1722
L179.4031 61.1246
" />
<path d="M179.4031 61.1246
L179.4507 61.0293
" />
<path d="M179.4507 61.0293
L179.4507 60.7912
" />
<path d="M179.4507 60.7912
L179.4031 60.6960
" />
<path d="M179.4031 60.6960
L179.3555 60.6484
" />
<path d="M179.3555 60.6484
L179.2602 60.6008
" />
<path d="M179.2602 60.6008
L179.0698 60.6008
" />
<path d="M179.0698 60.6008
L178.9745 60.6484
" />
<path d="M178.9745 60.6484
L178.9269 60.6960
" />
<path d="M178.9269 60.6960
L178.8793 60.7912
" />
</g></g>
<g style="fill:none; 
stroke:#000000; stroke-width:0.1200; stroke-opacity:1; 
stroke-linecap:round; stroke-linejoin:round;">
<path d="M159.6250 67.4450
L160.3950 67.4450
" />
<path d="M160.3950 66.0750
L160.3950 68.8150
" />
<path d="M160.3950 68.8150
L166.9350 68.8150
" />
<path d="M166.9350 66.0750
L160.3950 66.0750
" />
<path d="M166.9350 68.8150
L166.9350 66.0750
" />
<path d="M167.7050 67.4450
L166.9350 67.4450
" />
<path d="M151.1450 52.5550
L151.1450 49.4650
" />
<path d="M151.1450 49.4652 A2.9900 2.9900 0.0 0 0 145.5950 51.0105" />
<path d="M145.5950 51.0095 A2.9900 2.9900 0.0 0 0 151.1450 52.5548" />
<circle cx="148.5850" cy="51.0100" r="2.5000" /> 
<path d="M181.1450 77.5550
L181.1450 74.4650
" />
<path d="M181.1450 74.4652 A2.9900 2.9900 0.0 0 0 175.5950 76.0105" />
<path d="M175.5950 76.0095 A2.9900 2.9900 0.0 0 0 181.1450 77.5548" />
<circle cx="178.5850" cy="76.0100" r="2.5000" /> 
<path d="M187.1250 71.0600
L187.8950 71.0600
" />
<path d="M187.8950 69.6900
L187.8950 72.4300
" />
<path d="M187.8950 72.4300
L194.4350 72.4300
" />
<path d="M194.4350 69.6900
L187.8950 69.6900
" />
<path d="M194.4350 72.4300
L194.4350 69.6900
" />
<path d="M195.2050 71.0600
L194.4350 71.0600
" />
<path d="M138.6450 52.5550
L138.6450 49.4650
" />
<path d="M138.6450 49.4652 A2.9900 2.9900 0.0 0 0 133.0950 51.0105" />
<path d="M133.0950 51.0095 A2.9900 2.9900 0.0 0 0 138.6450 52.5548" />
<circle cx="136.0850" cy="51.0100" r="2.5000" /> 
<path d="M144.6250 66.3950
L145.3950 66.3950
" />
<path d="M145.3950 65.0250
L145.3950 67.7650
" />
<path d="M145.3950 67.7650
L151.9350 67.7650
" />
<path d="M151.9350 65.0250
L145.3950 65.0250
" />
<path d="M151.9350 67.7650
L151.9350 65.0250
" />
<path d="M152.7050 66.3950
L151.9350 66.3950
" />
<path d="M166.1450 73.9400
L166.1450 70.8500
" />
<path d="M166.1450 70.8502 A2.9900 2.9900 0.0 0 0 160.5950 72.3955" />
<path d="M160.5950 72.3945 A2.9900 2.9900 0.0 0 0 166.1450 73.9398" />
<circle cx="163.5850" cy="72.3950" r="2.5000" /> 
<path d="M193.6450 52.5550
L193.6450 49.4650
" />
<path d="M193.6450 49.4652 A2.9900 2.9900 0.0 0 0 188.0950 51.0105" />
<path d="M188.0950 51.0095 A2.9900 2.9900 0.0 0 0 193.6450 52.5548" />
<circle cx="191.0850" cy="51.0100" r="2.5000" /> 
<path d="M132.1250 46.0600
L132.8950 46.0600
" />
<path d="M132.8950 44.6900
L132.8950 47.4300
" />
<path d="M132.8950 47.4300
L139.4350 47.4300
" />
<path d="M139.4350 44.6900
L132.8950 44.6900
" />
<path d="M139.4350 47.4300
L139.4350 44.6900
" />
<path d="M140.2050 46.0600
L139.4350 46.0600
" />
<path d="M138.6450 77.5550
L138.6450 74.4650
" />
<path d="M138.6450 74.4652 A2.9900 2.9900 0.0 0 0 133.0950 76.0105" />
<path d="M133.0950 76.0095 A2.9900 2.9900 0.0 0 0 138.6450 77.5548" />
<circle cx="136.0850" cy="76.0100" r="2.5000" /> 
<path d="M151.1450 77.5550
L151.1450 74.4650
" />
<path d="M151.1450 74.4652 A2.9900 2.9900 0.0 0 0 145.5950 76.0105" />
<path d="M145.5950 76.0095 A2.9900 2.9900 0.0 0 0 151.1450 77.5548" />
<circle cx="148.5850" cy="76.0100" r="2.5000" /> 
<path d="M132.1250 71.0600
L132.8950 71.0600
" />
<path d="M132.8950 69.6900
L132.8950 72.4300
" />
<path d="M132.8950 72.4300
L139.4350 72.4300
" />
<path d="M139.4350 69.6900
L132.8950 69.6900
" />
<path d="M139.4350 72.4300
L139.4350 69.6900
" />
<path d="M140.2050 71.0600
L139.4350 71.0600
" />
<path d="M157.5550 46.7850
L157.5550 49.2950
" />
<path d="M157.5550 46.7850
L169.7750 46.7850
" />
<path d="M157.5550 51.5950
L157.5550 54.1950
" />
<path d="M157.5550 56.4950
L157.5550 59.0050
" />
<path d="M169.7750 46.7850
L169.7750 49.2950
" />
<path d="M169.7750 51.5950
L169.7750 54.1950
" />
<path d="M169.7750 56.4950
L169.7750 59.0050
" />
<path d="M169.7750 59.0050
L157.5550 59.0050
" />
<path d="M174.6250 66.3950
L175.3950 66.3950
" />
<path d="M175.3950 65.0250
L175.3950 67.7650
" />
<path d="M175.3950 67.7650
L181.9350 67.7650
" />
<path d="M181.9350 65.0250
L175.3950 65.0250
" />
<path d="M181.9350 67.7650
L181.9350 65.0250
" />
<path d="M182.7050 66.3950
L181.9350 66.3950
" />
<path d="M187.1250 46.0600
L187.8950 46.0600
" />
<path d="M187.8950 44.6900
L187.8950 47.4300
" />
<path d="M187.8950 47.4300
L194.4350 47.4300
" />
<path d="M194.4350 44.6900
L187.8950 44.6900
" />
<path d="M194.4350 47.4300
L194.4350 44.6900
" />
<path d="M195.2050 46.0600
L194.4350 46.0600
" />
<path d="M181.1450 52.5550
L181.1450 49.4650
" />
<path d="M181.1450 49.4652 A2.9900 2.9900 0.0 0 0 175.5950 51.0105" />
<path d="M175.5950 51.0095 A2.9900 2.9900 0.0 0 0 181.1450 52.5548" />
<circle cx="178.5850" cy="51.0100" r="2.5000" /> 
<path d="M144.6250 58.3950
L145.3950 58.3950
" />
<path d="M145.3950 57.0250
L145.3950 59.7650
" />
<path d="M145.3950 59.7650
L151.9350 59.7650
" />
<path d="M151.9350 57.0250
L145.3950 57.0250
" />
<path d="M151.9350 59.7650
L151.9350 57.0250
" />
<path d="M152.7050 58.3950
L151.9350 58.3950
" />
<path d="M193.6450 77.5550
L193.6450 74.4650
" />
<path d="M193.6450 74.4652 A2.9900 2.9900 0.0 0 0 188.0950 76.0105" />
<path d="M188.0950 76.0095 A2.9900 2.9900 0.0 0 0 193.6450 77.5548" />
<circle cx="191.0850" cy="76.0100" r="2.5000" /> 
<path d="M174.6250 58.3950
L175.3950 58.3950
" />
<path d="M175.3950 57.0250
L175.3950 59.7650
" />
<path d="M175.3950 59.7650
L181.9350 59.7650
" />
<path d="M181.9350 57.0250
L175.3950 57.0250
" />
<path d="M181.9350 59.7650
L181.9350 57.0250
" />
<path d="M182.7050 58.3950
L181.9350 58.3950
" />
<path style="fill:none; 
stroke:#000000; stroke-width:0.0500; stroke-opacity:1; 
stroke-linecap:round; stroke-linejoin:round;fill:none"
d="M 122.6650,36.8300
204.6650,36.8300
204.6650,86.8300
122.6650,86.8300
Z" /> 
</g> 
</svg>
