<?xml version="1.0" standalone="no"?>
 <!DOCTYPE svg PUBLIC "-//W3C//DTD SVG 1.1//EN" 
 "http://www.w3.org/Graphics/SVG/1.1/DTD/svg11.dtd"> 
<svg
  xmlns:svg="http://www.w3.org/2000/svg"
  xmlns="http://www.w3.org/2000/svg"
  xmlns:xlink="http://www.w3.org/1999/xlink"
  version="1.1"
  width="297.0022mm" height="210.0072mm" viewBox="0.0000 0.0000 297.0022 210.0072">
<title>SVG Image created as arduino_solar_bikelight_2-B_Cu.svg date 2025/02/08 22:32:36 </title>
  <desc>Image generated by PCBNEW </desc>
<g style="fill:#000000; fill-opacity:1.0000;stroke:#000000; stroke-opacity:1.0000;
stroke-linecap:round; stroke-linejoin:round;"
 transform="translate(0 0) scale(1 1)">
</g>
<g style="fill:#000000; fill-opacity:1.0000; stroke:none;">
<circle cx="168.7450" cy="67.4450" r="0.8000" /> 
</g>
<g style="fill:#000000; fill-opacity:1.0000; stroke:none;">
<circle cx="158.5850" cy="67.4450" r="0.8000" /> 
<path style="fill:#000000; fill-opacity:1.0000; stroke:none;fill-rule:evenodd;"
d="M 150.7550,50.1100
150.7550,51.9100
148.9550,51.9100
148.9550,50.1100
Z" /> 
<circle cx="147.3150" cy="51.0100" r="0.9000" /> 
<path style="fill:#000000; fill-opacity:1.0000; stroke:none;fill-rule:evenodd;"
d="M 180.7550,75.1100
180.7550,76.9100
178.9550,76.9100
178.9550,75.1100
Z" /> 
</g>
<g style="fill:#000000; fill-opacity:1.0000; stroke:none;">
<circle cx="177.3150" cy="76.0100" r="0.9000" /> 
</g>
<g style="fill:#000000; fill-opacity:1.0000; stroke:none;">
<circle cx="196.2450" cy="71.0600" r="0.8000" /> 
</g>
<g style="fill:#000000; fill-opacity:1.0000; stroke:none;">
<circle cx="186.0850" cy="71.0600" r="0.8000" /> 
<path style="fill:#000000; fill-opacity:1.0000; stroke:none;fill-rule:evenodd;"
d="M 138.2550,50.1100
138.2550,51.9100
136.4550,51.9100
136.4550,50.1100
Z" /> 
<circle cx="134.8150" cy="51.0100" r="0.9000" /> 
</g>
<g style="fill:#000000; fill-opacity:1.0000; stroke:none;">
<circle cx="153.7450" cy="66.3950" r="0.8000" /> 
</g>
<g style="fill:#000000; fill-opacity:1.0000; stroke:none;">
<circle cx="143.5850" cy="66.3950" r="0.8000" /> 
<path style="fill:#000000; fill-opacity:1.0000; stroke:none;fill-rule:evenodd;"
d="M 165.7550,71.4950
165.7550,73.2950
163.9550,73.2950
163.9550,71.4950
Z" /> 
<circle cx="162.3150" cy="72.3950" r="0.9000" /> 
<path style="fill:#000000; fill-opacity:1.0000; stroke:none;fill-rule:evenodd;"
d="M 193.2550,50.1100
193.2550,51.9100
191.4550,51.9100
191.4550,50.1100
Z" /> 
</g>
<g style="fill:#000000; fill-opacity:1.0000; stroke:none;">
<circle cx="189.8150" cy="51.0100" r="0.9000" /> 
</g>
<g style="fill:#000000; fill-opacity:1.0000; stroke:none;">
<circle cx="141.2450" cy="46.0600" r="0.8000" /> 
</g>
<g style="fill:#000000; fill-opacity:1.0000; stroke:none;">
<circle cx="131.0850" cy="46.0600" r="0.8000" /> 
<path style="fill:#000000; fill-opacity:1.0000; stroke:none;fill-rule:evenodd;"
d="M 138.2550,75.1100
138.2550,76.9100
136.4550,76.9100
136.4550,75.1100
Z" /> 
<circle cx="134.8150" cy="76.0100" r="0.9000" /> 
<path style="fill:#000000; fill-opacity:1.0000; stroke:none;fill-rule:evenodd;"
d="M 150.7550,75.1100
150.7550,76.9100
148.9550,76.9100
148.9550,75.1100
Z" /> 
</g>
<g style="fill:#000000; fill-opacity:1.0000; stroke:none;">
<circle cx="147.3150" cy="76.0100" r="0.9000" /> 
</g>
<g style="fill:#000000; fill-opacity:1.0000; stroke:none;">
<circle cx="141.2450" cy="71.0600" r="0.8000" /> 
</g>
<g style="fill:#000000; fill-opacity:1.0000; stroke:none;">
<circle cx="131.0850" cy="71.0600" r="0.8000" /> 
</g>
<g style="fill:none; 
stroke:#000000; stroke-width:1.7000; stroke-opacity:1; 
stroke-linecap:round; stroke-linejoin:round;">
<path d="M156.8150 50.3950
L158.0150 50.3950
" />
<path d="M169.3150 50.3950
L170.5150 50.3950
" />
<path d="M156.8150 55.3950
L158.0150 55.3950
" />
<path d="M169.3150 55.3950
L170.5150 55.3950
" />
</g>
<g style="fill:#000000; fill-opacity:1.0000; stroke:none;">
<circle cx="183.7450" cy="66.3950" r="0.8000" /> 
</g>
<g style="fill:#000000; fill-opacity:1.0000; stroke:none;">
<circle cx="173.5850" cy="66.3950" r="0.8000" /> 
<circle cx="196.2450" cy="46.0600" r="0.8000" /> 
</g>
<g style="fill:#000000; fill-opacity:1.0000; stroke:none;">
<circle cx="186.0850" cy="46.0600" r="0.8000" /> 
<path style="fill:#000000; fill-opacity:1.0000; stroke:none;fill-rule:evenodd;"
d="M 180.7550,50.1100
180.7550,51.9100
178.9550,51.9100
178.9550,50.1100
Z" /> 
<circle cx="177.3150" cy="51.0100" r="0.9000" /> 
</g>
<g style="fill:#000000; fill-opacity:1.0000; stroke:none;">
<circle cx="153.7450" cy="58.3950" r="0.8000" /> 
</g>
<g style="fill:#000000; fill-opacity:1.0000; stroke:none;">
<circle cx="143.5850" cy="58.3950" r="0.8000" /> 
<path style="fill:#000000; fill-opacity:1.0000; stroke:none;fill-rule:evenodd;"
d="M 193.2550,75.1100
193.2550,76.9100
191.4550,76.9100
191.4550,75.1100
Z" /> 
<circle cx="189.8150" cy="76.0100" r="0.9000" /> 
</g>
<g style="fill:#000000; fill-opacity:1.0000; stroke:none;">
<circle cx="183.7450" cy="58.3950" r="0.8000" /> 
</g>
<g style="fill:#000000; fill-opacity:1.0000; stroke:none;">
<circle cx="173.5850" cy="58.3950" r="0.8000" /> 
<path style="fill:#000000; fill-opacity:1.0000; stroke:none;fill-rule:evenodd;"
d="M 198.9900,55.9300
198.9900,57.6300
197.2900,57.6300
197.2900,55.9300
Z" /> 
<circle cx="198.1400" cy="59.3200" r="0.8500" /> 
<circle cx="198.1400" cy="61.8600" r="0.8500" /> 
<circle cx="198.1400" cy="64.4000" r="0.8500" /> 
<circle cx="198.1400" cy="66.9400" r="0.8500" /> 
<path style="fill:#000000; fill-opacity:1.0000; stroke:none;fill-rule:evenodd;"
d="M 128.4900,55.9300
128.4900,57.6300
126.7900,57.6300
126.7900,55.9300
Z" /> 
<circle cx="127.6400" cy="59.3200" r="0.8500" /> 
<circle cx="127.6400" cy="61.8600" r="0.8500" /> 
<circle cx="127.6400" cy="64.4000" r="0.8500" /> 
<circle cx="127.6400" cy="66.9400" r="0.8500" /> 
</g>
<g style="fill:none; 
stroke:#000000; stroke-width:0.2000; stroke-opacity:1; 
stroke-linecap:round; stroke-linejoin:round;">
<path d="M131.0850 46.0600
L131.0850 47.2800
" />
<path d="M131.0850 47.2800
L134.8150 51.0100
" />
<path d="M186.0850 47.2800
L189.8150 51.0100
" />
<path d="M186.0850 46.0600
L186.0850 47.2800
" />
<path d="M131.0850 72.2800
L134.8150 76.0100
" />
<path d="M131.0850 71.0600
L131.0850 72.2800
" />
<path d="M186.0850 71.0600
L186.0850 72.2800
" />
<path d="M186.0850 72.2800
L189.8150 76.0100
" />
<path d="M147.3150 51.0100
L147.3150 54.6650
" />
<path d="M147.3150 54.6650
L143.5850 58.3950
" />
<path d="M177.3150 51.0100
L177.3150 54.6650
" />
<path d="M177.3150 54.6650
L173.5850 58.3950
" />
<path d="M143.5850 72.2800
L147.3150 76.0100
" />
<path d="M143.5850 66.3950
L143.5850 72.2800
" />
<path d="M173.5850 66.3950
L173.5850 72.2800
" />
<path d="M173.5850 72.2800
L177.3150 76.0100
" />
</g>
<g style="fill:none; 
stroke:#000000; stroke-width:1.0000; stroke-opacity:1; 
stroke-linecap:round; stroke-linejoin:round;">
<path d="M169.9150 55.3950
L157.4150 55.3950
" />
</g>
<g style="fill:none; 
stroke:#000000; stroke-width:0.2000; stroke-opacity:1; 
stroke-linecap:round; stroke-linejoin:round;">
<path d="M158.5850 68.6650
L162.3150 72.3950
" />
<path d="M158.5850 67.4450
L158.5850 68.6650
" />
</g>
<g style="fill:none; 
stroke:#000000; stroke-width:1.0000; stroke-opacity:1; 
stroke-linecap:round; stroke-linejoin:round;">
<path d="M134.2150 81.3300
L144.1650 81.3300
" />
<path d="M124.2150 50.8087
L124.2150 71.3300
" />
<path d="M139.7450 44.5600
L130.4637 44.5600
" />
<path d="M196.2450 71.0600
L199.6900 67.6150
" />
<path d="M199.6900 67.6150
L199.6900 58.3300
" />
<path d="M199.6900 58.3300
L198.1400 56.7800
" />
<path d="M130.4637 44.5600
L124.2150 50.8087
" />
<path d="M190.2350 81.3300
L144.1650 81.3300
" />
<path d="M141.2450 77.9100
L141.2450 71.0600
" />
<path d="M196.2450 71.0600
L196.2450 75.3200
" />
<path d="M144.1650 81.3300
L144.1650 80.8300
" />
<path d="M124.2150 71.3300
L134.2150 81.3300
" />
<path d="M196.2450 54.8850
L198.1400 56.7800
" />
<path d="M196.2450 46.0600
L196.2450 54.8850
" />
<path d="M196.2450 75.3200
L190.2350 81.3300
" />
<path d="M144.1650 80.8300
L141.2450 77.9100
" />
<path d="M141.2450 46.0600
L139.7450 44.5600
" />
</g>
<g style="fill:none; 
stroke:#000000; stroke-width:0.4000; stroke-opacity:1; 
stroke-linecap:round; stroke-linejoin:round;">
<path d="M155.0450 49.7100
L153.1650 47.8300
" />
<path d="M125.6650 53.8300
L127.1650 52.3300
" />
<path d="M139.1650 54.8300
L139.1650 54.3300
" />
<path d="M157.4150 50.3950
L156.7300 49.7100
" />
<path d="M153.1650 47.8300
L144.1650 47.8300
" />
<path d="M139.1650 54.3300
L140.6650 52.8300
" />
<path d="M138.6650 55.3300
L139.1650 54.8300
" />
<path d="M125.6650 62.4250
L125.6650 53.8300
" />
<path d="M140.6650 52.3300
L141.2850 51.7100
" />
<path d="M157.4150 50.3950
L169.9150 50.3950
" />
<path d="M127.6400 64.4000
L125.6650 62.4250
" />
<path d="M127.1650 52.3300
L129.6650 52.3300
" />
<path d="M132.6650 55.3300
L138.6650 55.3300
" />
<path d="M144.1650 47.8300
L141.2850 50.7100
" />
<path d="M140.6650 52.8300
L140.6650 52.3300
" />
<path d="M156.7300 49.7100
L155.0450 49.7100
" />
<path d="M141.2850 50.7100
L141.2850 51.7100
" />
<path d="M129.6650 52.3300
L132.6650 55.3300
" />
</g>
<g style="fill:none; 
stroke:#000000; stroke-width:1.0000; stroke-opacity:1; 
stroke-linecap:round; stroke-linejoin:round;">
<path d="M197.2150 58.3950
L183.7450 58.3950
" />
<path d="M151.9700 60.1700
L153.7450 58.3950
" />
<path d="M153.7450 58.3950
L153.7450 66.3950
" />
<path d="M183.7450 66.3950
L183.7450 58.3950
" />
<path d="M127.6400 59.3200
L128.4900 60.1700
" />
<path d="M128.4900 60.1700
L151.9700 60.1700
" />
<path d="M198.1400 59.3200
L197.2150 58.3950
" />
</g>
<g style="fill:none; 
stroke:#000000; stroke-width:0.4000; stroke-opacity:1; 
stroke-linecap:round; stroke-linejoin:round;">
<path d="M180.8479 65.1950
L183.2479 67.5950
" />
<path d="M192.4050 67.5950
L198.1400 61.8600
" />
<path d="M168.7450 67.4450
L170.9950 65.1950
" />
<path d="M183.2479 67.5950
L192.4050 67.5950
" />
<path d="M170.9950 65.1950
L180.8479 65.1950
" />
<path style="fill:#000000; fill-opacity:1.0000; stroke:none;fill-rule:evenodd;"
d="M 203.5575,37.9002
203.6033,37.9530
203.6145,38.0045
203.6145,85.6555
203.5948,85.7225
203.5420,85.7683
203.4905,85.7795
123.8395,85.7795
123.7725,85.7598
123.7267,85.7070
123.7155,85.6555
123.7155,83.2087
124.3145,83.2087
124.3145,83.4513
124.3462,83.6918
124.4089,83.9261
124.5018,84.1502
124.5018,84.1502
124.6231,84.3603
124.6231,84.3603
124.6231,84.3603
124.7707,84.5527
124.7707,84.5527
124.9423,84.7243
124.9423,84.7243
125.1347,84.8719
125.3448,84.9932
125.5689,85.0861
125.8032,85.1488
125.9836,85.1726
126.0437,85.1805
126.0437,85.1805
126.2863,85.1805
126.3344,85.1742
126.5268,85.1488
126.7611,85.0861
126.9852,84.9932
127.1953,84.8719
127.3877,84.7243
127.5593,84.5527
127.7069,84.3603
127.8282,84.1502
127.9211,83.9261
127.9838,83.6918
128.0155,83.4513
128.0155,83.2087
128.0155,83.2087
199.3145,83.2087
199.3145,83.4513
199.3462,83.6918
199.4089,83.9261
199.5018,84.1502
199.5018,84.1502
199.6231,84.3603
199.6231,84.3603
199.6231,84.3603
199.7707,84.5527
199.7707,84.5527
199.9423,84.7243
199.9423,84.7243
200.1347,84.8719
200.3448,84.9932
200.5689,85.0861
200.8032,85.1488
200.9836,85.1726
201.0437,85.1805
201.0437,85.1805
201.2863,85.1805
201.3344,85.1742
201.5268,85.1488
201.7611,85.0861
201.9852,84.9932
202.1953,84.8719
202.3877,84.7243
202.5593,84.5527
202.7069,84.3603
202.8282,84.1502
202.9211,83.9261
202.9838,83.6918
203.0155,83.4513
203.0155,83.2087
202.9838,82.9682
202.9211,82.7339
202.8282,82.5098
202.7069,82.2997
202.5593,82.1073
202.5593,82.1073
202.3877,81.9357
202.3877,81.9357
202.1953,81.7881
202.1953,81.7881
202.1953,81.7881
201.9852,81.6668
201.9852,81.6668
201.7611,81.5739
201.5268,81.5112
201.2863,81.4795
201.2863,81.4795
201.0437,81.4795
201.0437,81.4795
200.8032,81.5112
200.5689,81.5739
200.3448,81.6668
200.3448,81.6668
200.1347,81.7881
199.9423,81.9357
199.9423,81.9357
199.7707,82.1073
199.7707,82.1073
199.6231,82.2997
199.5018,82.5098
199.5018,82.5098
199.4089,82.7339
199.3462,82.9682
199.3145,83.2087
128.0155,83.2087
127.9838,82.9682
127.9211,82.7339
127.8282,82.5098
127.7069,82.2997
127.5593,82.1073
127.5593,82.1073
127.3877,81.9357
127.3877,81.9357
127.1953,81.7881
127.1953,81.7881
127.1953,81.7881
126.9852,81.6668
126.9852,81.6668
126.7611,81.5739
126.5268,81.5112
126.2863,81.4795
126.2863,81.4795
126.0437,81.4795
126.0437,81.4795
125.8032,81.5112
125.5689,81.5739
125.3448,81.6668
125.3448,81.6668
125.1347,81.7881
124.9423,81.9357
124.9423,81.9357
124.7707,82.1073
124.7707,82.1073
124.6231,82.2997
124.5018,82.5098
124.5018,82.5098
124.4089,82.7339
124.3462,82.9682
124.3145,83.2087
123.7155,83.2087
123.7155,72.5448
123.7352,72.4777
123.7880,72.4320
123.8571,72.4220
123.9207,72.4511
123.9272,72.4571
133.5772,82.1071
133.5772,82.1071
133.7411,82.2166
133.7411,82.2166
133.7411,82.2166
133.9232,82.2921
134.1165,82.3305
134.1165,82.3305
134.1165,82.3305
134.3197,82.3305
134.3197,82.3305
190.3335,82.3305
190.3529,82.3267
190.4302,82.3113
190.5268,82.2921
190.5802,82.2700
190.7089,82.2166
190.8728,82.1071
191.0121,81.9678
191.0121,81.9678
191.0223,81.9576
191.0223,81.9576
197.0221,75.9578
197.1316,75.7939
197.2071,75.6118
197.2455,75.4185
197.2455,75.2215
197.2455,75.2163
197.2455,75.2163
197.2455,71.9376
197.2652,71.8705
197.2679,71.8665
197.3756,71.7127
197.4717,71.5065
197.5306,71.2867
197.5360,71.2249
197.5615,71.1598
197.5719,71.1480
200.4671,68.2528
200.5388,68.1455
200.5766,68.0889
200.6300,67.9602
200.6521,67.9068
200.6713,67.8102
200.6905,67.7135
200.6905,58.2315
200.6905,58.2315
200.6704,58.1305
200.6691,58.1241
200.6521,58.0382
200.6375,58.0029
200.6300,57.9848
200.5766,57.8561
200.5766,57.8561
200.4671,57.6922
200.4671,57.6922
200.3247,57.5498
200.3247,57.5497
199.5268,56.7519
199.4933,56.6906
199.4905,56.6642
199.4905,55.8821
199.4905,55.8821
199.4897,55.8751
199.4841,55.8225
199.4338,55.6877
199.4338,55.6877
199.4338,55.6877
199.3475,55.5725
199.3475,55.5725
199.2323,55.4862
199.2323,55.4862
199.0975,55.4359
199.0975,55.4359
199.0379,55.4295
199.0379,55.4295
199.0379,55.4295
199.0379,55.4295
198.2558,55.4295
198.1887,55.4098
198.1681,55.3932
197.2818,54.5069
197.2483,54.4456
197.2455,54.4192
197.2455,46.9376
197.2652,46.8705
197.2679,46.8665
197.3756,46.7127
197.4717,46.5065
197.5306,46.2867
197.5505,46.0600
197.5306,45.8333
197.4717,45.6135
197.3756,45.4073
197.2450,45.2209
197.2450,45.2209
197.0841,45.0600
196.8977,44.9294
196.8977,44.9294
196.6915,44.8333
196.6915,44.8333
196.4717,44.7744
196.4717,44.7744
196.4717,44.7744
196.4717,44.7744
196.4717,44.7744
196.2450,44.7545
196.2450,44.7545
196.0183,44.7744
196.0183,44.7744
195.7985,44.8333
195.7985,44.8333
195.5923,44.9294
195.5923,44.9294
195.4059,45.0600
195.2450,45.2209
195.1144,45.4073
195.1144,45.4073
195.0183,45.6135
195.0183,45.6135
194.9594,45.8333
194.9594,45.8333
194.9395,46.0600
194.9395,46.0600
194.9594,46.2867
194.9594,46.2867
195.0183,46.5065
195.0183,46.5065
195.1144,46.7127
195.1144,46.7127
195.2221,46.8665
195.2444,46.9327
195.2445,46.9376
195.2445,54.9835
195.2800,55.1618
195.2829,55.1768
195.2829,55.1768
195.3584,55.3589
195.3584,55.3589
195.4679,55.5228
195.4679,55.5228
195.4679,55.5228
195.6072,55.6621
195.6072,55.6621
195.6143,55.6692
195.6143,55.6692
195.6143,55.6692
196.7532,56.8081
196.7867,56.8694
196.7895,56.8958
196.7895,57.1094
196.7895,57.2705
196.7698,57.3375
196.7170,57.3833
196.6655,57.3945
184.6226,57.3945
184.5555,57.3748
184.5515,57.3721
184.5021,57.3375
184.3977,57.2644
184.3977,57.2644
184.1915,57.1683
184.1915,57.1683
183.9717,57.1094
183.9717,57.1094
183.9717,57.1094
183.9717,57.1094
183.9717,57.1094
183.7450,57.0895
183.7450,57.0895
183.5183,57.1094
183.5183,57.1094
183.2985,57.1683
183.2985,57.1683
183.0923,57.2644
183.0923,57.2644
182.9059,57.3950
182.7450,57.5559
182.6144,57.7423
182.6144,57.7423
182.5183,57.9485
182.5183,57.9485
182.4594,58.1683
182.4594,58.1683
182.4395,58.3950
182.4395,58.3950
182.4594,58.6217
182.4594,58.6217
182.5183,58.8415
182.5183,58.8415
182.5262,58.8586
182.6144,59.0477
182.6977,59.1667
182.7221,59.2015
182.7444,59.2677
182.7445,59.2726
182.7445,65.5174
182.7248,65.5844
182.7221,65.5885
182.6144,65.7423
182.6117,65.7470
182.6096,65.7457
182.5701,65.7903
182.5028,65.8092
182.4360,65.7888
182.4165,65.7729
181.2945,64.6509
181.2945,64.6509
181.1797,64.5742
181.0523,64.5214
181.0523,64.5214
180.9169,64.4945
180.9169,64.4945
180.9169,64.4945
171.0640,64.4945
170.9260,64.4945
170.9260,64.4945
170.7907,64.5214
170.7907,64.5214
170.6632,64.5742
170.5485,64.6509
169.0754,66.1240
169.0140,66.1575
168.9769,66.1598
168.9717,66.1594
168.9522,66.1577
168.7450,66.1395
168.7450,66.1395
168.5183,66.1594
168.5183,66.1594
168.2985,66.2183
168.2985,66.2183
168.0923,66.3144
168.0923,66.3144
167.9059,66.4450
167.7450,66.6059
167.6144,66.7923
167.6144,66.7923
167.5183,66.9985
167.5183,66.9985
167.4594,67.2183
167.4594,67.2183
167.4395,67.4450
167.4395,67.4450
167.4594,67.6717
167.4594,67.6717
167.5183,67.8915
167.5183,67.8915
167.6144,68.0977
167.6144,68.0977
167.7450,68.2841
167.9059,68.4450
167.9115,68.4490
168.0923,68.5756
168.2985,68.6717
168.5183,68.7306
168.6717,68.7441
168.7450,68.7505
168.7450,68.7505
168.7450,68.7505
168.8017,68.7455
168.9717,68.7306
169.1915,68.6717
169.3977,68.5756
169.5841,68.4450
169.7450,68.2841
169.8756,68.0977
169.9717,67.8915
170.0306,67.6717
170.0505,67.4450
170.0306,67.2183
170.0306,67.2183
170.0302,67.2131
170.0439,67.1446
170.0660,67.1146
171.2488,65.9318
171.3102,65.8983
171.3365,65.8955
172.2109,65.8955
172.2779,65.9152
172.3237,65.9680
172.3336,66.0371
172.3306,66.0516
172.2994,66.1683
172.2994,66.1683
172.2795,66.3950
172.2795,66.3950
172.2994,66.6217
172.2994,66.6217
172.3583,66.8415
172.3583,66.8415
172.4544,67.0477
172.4544,67.0477
172.5850,67.2341
172.7459,67.3950
172.7673,67.4101
172.9316,67.5251
172.9752,67.5797
172.9845,67.6267
172.9845,72.1933
172.9845,72.1933
172.9845,72.3591
172.9845,72.3591
173.0040,72.4320
173.0254,72.5118
173.0445,72.5448
173.0544,72.5619
173.0544,72.5619
173.0544,72.5619
173.1045,72.6487
173.1045,72.6487
173.2233,72.7676
173.2234,72.7676
175.9408,75.4850
175.9743,75.5464
175.9733,75.6032
175.9289,75.7787
175.9289,75.7787
175.9097,76.0100
175.9097,76.0100
175.9289,76.2413
175.9289,76.2413
175.9858,76.4663
176.0791,76.6788
176.2060,76.8731
176.2060,76.8732
176.2060,76.8732
176.3632,77.0439
176.3632,77.0439
176.3632,77.0439
176.5464,77.1865
176.5464,77.1865
176.5464,77.1865
176.7505,77.2969
176.8645,77.3361
176.9700,77.3723
176.9700,77.3723
176.9700,77.3723
177.1990,77.4105
177.1990,77.4105
177.4310,77.4105
177.4310,77.4105
177.6600,77.3723
177.8795,77.2969
178.0836,77.1865
178.2668,77.0439
178.2755,77.0344
178.3354,76.9984
178.4052,77.0005
178.4629,77.0401
178.4829,77.0751
178.5116,77.1521
178.5116,77.1521
178.5978,77.2672
178.5978,77.2672
178.7129,77.3533
178.7129,77.3534
178.8476,77.4036
178.8476,77.4036
178.9072,77.4100
178.9072,77.4100
179.6050,77.4100
179.6050,76.3853
179.6813,76.4293
179.7958,76.4600
179.9142,76.4600
180.0287,76.4293
180.1050,76.3853
180.1050,77.4100
180.8028,77.4100
180.8028,77.4100
180.8624,77.4036
180.8624,77.4036
180.9971,77.3534
180.9971,77.3533
181.1122,77.2672
181.1122,77.2672
181.1984,77.1521
181.1984,77.1521
181.2486,77.0174
181.2486,77.0174
181.2550,76.9578
181.2550,76.9578
181.2550,76.2600
180.2303,76.2600
180.2743,76.1837
180.3050,76.0692
180.3050,75.9508
180.2743,75.8363
180.2303,75.7600
181.2550,75.7600
181.2550,75.0622
181.2550,75.0622
181.2486,75.0026
181.2486,75.0026
181.1984,74.8679
181.1984,74.8679
181.1122,74.7528
181.1122,74.7528
180.9971,74.6666
180.9971,74.6666
180.8624,74.6164
180.8624,74.6164
180.8028,74.6100
180.1050,74.6100
180.1050,75.6347
180.0287,75.5907
179.9142,75.5600
179.7958,75.5600
179.6813,75.5907
179.6050,75.6347
179.6050,74.6100
178.9072,74.6100
178.8476,74.6164
178.8476,74.6164
178.7129,74.6666
178.7129,74.6666
178.5978,74.7528
178.5978,74.7528
178.5116,74.8679
178.5116,74.8679
178.4829,74.9449
178.4411,75.0009
178.3756,75.0253
178.3073,75.0104
178.2755,74.9856
178.2668,74.9761
178.2668,74.9761
178.2668,74.9761
178.0836,74.8335
178.0836,74.8335
177.8795,74.7231
177.8795,74.7231
177.6600,74.6477
177.4724,74.6164
177.4310,74.6095
177.1990,74.6095
177.1576,74.6164
176.9700,74.6477
176.9181,74.6655
176.8483,74.6687
176.7902,74.6359
174.2218,72.0676
174.1883,72.0063
174.1855,71.9799
174.1855,67.6267
174.2052,67.5597
174.2384,67.5251
174.4241,67.3950
174.5850,67.2341
174.7156,67.0477
174.8117,66.8415
174.8706,66.6217
174.8905,66.3950
174.8706,66.1683
174.8440,66.0689
174.8394,66.0516
174.8410,65.9817
174.8802,65.9239
174.9444,65.8964
174.9591,65.8955
180.5064,65.8955
180.5735,65.9152
180.5941,65.9318
182.8014,68.1391
182.8014,68.1391
182.9161,68.2158
183.0436,68.2686
183.0436,68.2686
183.0436,68.2686
183.0436,68.2686
183.1789,68.2955
183.1789,68.2955
192.4740,68.2955
192.5650,68.2774
192.6093,68.2686
192.6731,68.2422
192.7368,68.2158
192.7368,68.2158
192.7368,68.2158
192.8515,68.1391
196.5807,64.4099
196.6420,64.3764
196.7117,64.3814
196.7677,64.4233
196.7919,64.4868
196.8049,64.6354
196.8049,64.6354
196.8661,64.8637
196.8661,64.8637
196.8661,64.8637
196.9660,65.0778
196.9660,65.0778
197.0743,65.2325
197.1015,65.2714
197.2686,65.4385
197.4371,65.5565
197.4546,65.5687
197.4982,65.6233
197.5054,65.6928
197.4739,65.7552
197.4546,65.7719
197.2689,65.9019
197.2689,65.9019
197.1019,66.0689
197.1019,66.0689
196.9664,66.2624
196.9664,66.2624
196.8666,66.4765
196.8666,66.4765
196.8094,66.6900
196.8094,66.6900
197.7070,66.6900
197.6741,66.7470
197.6400,66.8742
197.6400,67.0058
197.6741,67.1330
197.7070,67.1900
196.8094,67.1900
196.8666,67.4035
196.8666,67.4035
196.9664,67.6176
197.1019,67.8111
197.2689,67.9781
197.4624,68.1136
197.5161,68.1386
197.5685,68.1848
197.5877,68.2520
197.5675,68.3189
197.5514,68.3387
196.1570,69.7331
196.0956,69.7666
196.0801,69.7690
196.0183,69.7744
195.7985,69.8333
195.7985,69.8333
195.5923,69.9294
195.5923,69.9294
195.4059,70.0600
195.2450,70.2209
195.1144,70.4073
195.1144,70.4073
195.0183,70.6135
195.0183,70.6135
194.9594,70.8333
194.9594,70.8333
194.9395,71.0600
194.9395,71.0600
194.9594,71.2867
194.9594,71.2867
195.0183,71.5065
195.0183,71.5065
195.1144,71.7127
195.1144,71.7127
195.2221,71.8665
195.2444,71.9327
195.2445,71.9376
195.2445,74.8542
195.2248,74.9213
195.2082,74.9419
193.9102,76.2399
193.8489,76.2733
193.7792,76.2684
193.7662,76.2600
192.7303,76.2600
192.7743,76.1837
192.8050,76.0692
192.8050,75.9508
192.7743,75.8363
192.7303,75.7600
193.7550,75.7600
193.7550,75.0622
193.7550,75.0622
193.7486,75.0026
193.7486,75.0026
193.6984,74.8679
193.6984,74.8679
193.6122,74.7528
193.6122,74.7528
193.4971,74.6666
193.4971,74.6666
193.3624,74.6164
193.3624,74.6164
193.3028,74.6100
192.6050,74.6100
192.6050,75.6347
192.5287,75.5907
192.4142,75.5600
192.2958,75.5600
192.1813,75.5907
192.1050,75.6347
192.1050,74.6100
191.4072,74.6100
191.3476,74.6164
191.3476,74.6164
191.2129,74.6666
191.2129,74.6666
191.0978,74.7528
191.0978,74.7528
191.0116,74.8679
191.0116,74.8679
190.9829,74.9449
190.9411,75.0009
190.8756,75.0253
190.8073,75.0104
190.7755,74.9856
190.7668,74.9761
190.7668,74.9761
190.7668,74.9761
190.5836,74.8335
190.5836,74.8335
190.3795,74.7231
190.3795,74.7231
190.1600,74.6477
189.9724,74.6164
189.9310,74.6095
189.6990,74.6095
189.6576,74.6164
189.4700,74.6477
189.4181,74.6655
189.3483,74.6687
189.2902,74.6359
188.1143,73.4601
186.9052,72.2510
186.8717,72.1896
186.8767,72.1200
186.9186,72.0640
186.9218,72.0617
186.9241,72.0600
187.0850,71.8991
187.0850,71.8991
187.2156,71.7127
187.3117,71.5065
187.3706,71.2867
187.3905,71.0600
187.3899,71.0537
187.3706,70.8333
187.3706,70.8333
187.3117,70.6135
187.2156,70.4073
187.0850,70.2209
187.0850,70.2209
186.9241,70.0600
186.7377,69.9294
186.7377,69.9294
186.5315,69.8333
186.5315,69.8333
186.3117,69.7744
186.3117,69.7744
186.3117,69.7744
186.3117,69.7744
186.3117,69.7744
186.0850,69.7545
186.0850,69.7545
185.8583,69.7744
185.8583,69.7744
185.6385,69.8333
185.6385,69.8333
185.4323,69.9294
185.4323,69.9294
185.2459,70.0600
185.0850,70.2209
184.9544,70.4073
184.9544,70.4073
184.8583,70.6135
184.8583,70.6135
184.7994,70.8333
184.7994,70.8333
184.7795,71.0600
184.7795,71.0600
184.7994,71.2867
184.7994,71.2867
184.8583,71.5065
184.8583,71.5065
184.9544,71.7127
184.9544,71.7127
185.0850,71.8991
185.2459,72.0600
185.4316,72.1901
185.4752,72.2447
185.4845,72.2917
185.4845,72.3591
185.4845,72.3591
185.5040,72.4320
185.5254,72.5118
185.5445,72.5448
185.5544,72.5619
185.5544,72.5619
185.5544,72.5619
185.6045,72.6487
185.6045,72.6487
185.7233,72.7676
185.7234,72.7676
188.4408,75.4850
188.4743,75.5464
188.4733,75.6032
188.4289,75.7787
188.4289,75.7787
188.4097,76.0100
188.4097,76.0100
188.4289,76.2413
188.4289,76.2413
188.4858,76.4663
188.5791,76.6788
188.7060,76.8731
188.7060,76.8732
188.7060,76.8732
188.8632,77.0439
188.8632,77.0439
188.8632,77.0439
189.0464,77.1865
189.0464,77.1865
189.0464,77.1865
189.2505,77.2969
189.3645,77.3361
189.4700,77.3723
189.4700,77.3723
189.4700,77.3723
189.6990,77.4105
189.6990,77.4105
189.9310,77.4105
189.9310,77.4105
190.1600,77.3723
190.3795,77.2969
190.5836,77.1865
190.7668,77.0439
190.7755,77.0344
190.8354,76.9984
190.9052,77.0005
190.9629,77.0401
190.9829,77.0751
191.0116,77.1521
191.0116,77.1521
191.0978,77.2672
191.0978,77.2672
191.2129,77.3533
191.2129,77.3534
191.3476,77.4036
191.3476,77.4036
191.4072,77.4100
191.4072,77.4100
192.1050,77.4100
192.1050,76.3853
192.1813,76.4293
192.2958,76.4600
192.4142,76.4600
192.5287,76.4293
192.6050,76.3853
192.6050,77.4267
192.6183,77.4512
192.6134,77.5209
192.5849,77.5652
189.8569,80.2932
189.7956,80.3267
189.7692,80.3295
145.1001,80.3295
145.0331,80.3098
144.9970,80.2744
144.9421,80.1922
144.9421,80.1922
142.2818,77.5319
142.2483,77.4706
142.2455,77.4442
142.2455,71.9376
142.2652,71.8705
142.2679,71.8665
142.3756,71.7127
142.4717,71.5065
142.5306,71.2867
142.5505,71.0600
142.5499,71.0537
142.5306,70.8333
142.5306,70.8333
142.4717,70.6135
142.3756,70.4073
142.2450,70.2209
142.2450,70.2209
142.0841,70.0600
141.8977,69.9294
141.8977,69.9294
141.6915,69.8333
141.6915,69.8333
141.4717,69.7744
141.4717,69.7744
141.4717,69.7744
141.4717,69.7744
141.4717,69.7744
141.2450,69.7545
141.2450,69.7545
141.0183,69.7744
141.0183,69.7744
140.7985,69.8333
140.7985,69.8333
140.5923,69.9294
140.5923,69.9294
140.4059,70.0600
140.2450,70.2209
140.1144,70.4073
140.1144,70.4073
140.0183,70.6135
140.0183,70.6135
139.9594,70.8333
139.9594,70.8333
139.9395,71.0600
139.9395,71.0600
139.9594,71.2867
139.9594,71.2867
140.0183,71.5065
140.0183,71.5065
140.1144,71.7127
140.1144,71.7127
140.2221,71.8665
140.2444,71.9327
140.2445,71.9376
140.2445,78.0085
140.2445,78.0085
140.2445,78.0085
140.2829,78.2018
140.2829,78.2018
140.3584,78.3839
140.3584,78.3839
140.4679,78.5478
140.4679,78.5478
140.4679,78.5478
140.6072,78.6871
140.6072,78.6871
140.6143,78.6942
140.6143,78.6942
140.6143,78.6942
142.0379,80.1178
142.0714,80.1791
142.0664,80.2488
142.0245,80.3048
141.9591,80.3292
141.9502,80.3295
134.6808,80.3295
134.6137,80.3098
134.5931,80.2932
125.3599,71.0600
129.7795,71.0600
129.7795,71.0600
129.7994,71.2867
129.7994,71.2867
129.8583,71.5065
129.8583,71.5065
129.9544,71.7127
129.9544,71.7127
130.0850,71.8991
130.2459,72.0600
130.4316,72.1901
130.4752,72.2447
130.4845,72.2917
130.4845,72.3591
130.4845,72.3591
130.5040,72.4320
130.5254,72.5118
130.5445,72.5448
130.5544,72.5619
130.5544,72.5619
130.5544,72.5619
130.6045,72.6487
130.6045,72.6487
130.7233,72.7676
130.7234,72.7676
133.4408,75.4850
133.4743,75.5464
133.4733,75.6032
133.4289,75.7787
133.4289,75.7787
133.4097,76.0100
133.4097,76.0100
133.4289,76.2413
133.4289,76.2413
133.4858,76.4663
133.5791,76.6788
133.7060,76.8731
133.7060,76.8732
133.7060,76.8732
133.8632,77.0439
133.8632,77.0439
133.8632,77.0439
134.0464,77.1865
134.0464,77.1865
134.0464,77.1865
134.2505,77.2969
134.3645,77.3361
134.4700,77.3723
134.4700,77.3723
134.4700,77.3723
134.6990,77.4105
134.6990,77.4105
134.9310,77.4105
134.9310,77.4105
135.1600,77.3723
135.3795,77.2969
135.5836,77.1865
135.7668,77.0439
135.7755,77.0344
135.8354,76.9984
135.9052,77.0005
135.9629,77.0401
135.9829,77.0751
136.0116,77.1521
136.0116,77.1521
136.0978,77.2672
136.0978,77.2672
136.2129,77.3533
136.2129,77.3534
136.3476,77.4036
136.3476,77.4036
136.4072,77.4100
136.4072,77.4100
137.1050,77.4100
137.1050,76.3853
137.1813,76.4293
137.2958,76.4600
137.4142,76.4600
137.5287,76.4293
137.6050,76.3853
137.6050,77.4100
138.3028,77.4100
138.3028,77.4100
138.3624,77.4036
138.3624,77.4036
138.4971,77.3534
138.4971,77.3533
138.6122,77.2672
138.6122,77.2672
138.6984,77.1521
138.6984,77.1521
138.7486,77.0174
138.7486,77.0174
138.7550,76.9578
138.7550,76.9578
138.7550,76.2600
137.7303,76.2600
137.7743,76.1837
137.8050,76.0692
137.8050,75.9508
137.7743,75.8363
137.7303,75.7600
138.7550,75.7600
138.7550,75.0622
138.7550,75.0622
138.7486,75.0026
138.7486,75.0026
138.6984,74.8679
138.6984,74.8679
138.6122,74.7528
138.6122,74.7528
138.4971,74.6666
138.4971,74.6666
138.3624,74.6164
138.3624,74.6164
138.3028,74.6100
137.6050,74.6100
137.6050,75.6347
137.5287,75.5907
137.4142,75.5600
137.2958,75.5600
137.1813,75.5907
137.1050,75.6347
137.1050,74.6100
136.4072,74.6100
136.3476,74.6164
136.3476,74.6164
136.2129,74.6666
136.2129,74.6666
136.0978,74.7528
136.0978,74.7528
136.0116,74.8679
136.0116,74.8679
135.9829,74.9449
135.9411,75.0009
135.8756,75.0253
135.8073,75.0104
135.7755,74.9856
135.7668,74.9761
135.7668,74.9761
135.7668,74.9761
135.5836,74.8335
135.5836,74.8335
135.3795,74.7231
135.3795,74.7231
135.1600,74.6477
134.9724,74.6164
134.9310,74.6095
134.6990,74.6095
134.6576,74.6164
134.4700,74.6477
134.4181,74.6655
134.3483,74.6687
134.2902,74.6359
133.1143,73.4601
131.9052,72.2510
131.8717,72.1896
131.8767,72.1200
131.9186,72.0640
131.9218,72.0617
131.9241,72.0600
132.0850,71.8991
132.0850,71.8991
132.2156,71.7127
132.3117,71.5065
132.3706,71.2867
132.3905,71.0600
132.3899,71.0537
132.3706,70.8333
132.3706,70.8333
132.3117,70.6135
132.2156,70.4073
132.0850,70.2209
132.0850,70.2209
131.9241,70.0600
131.7377,69.9294
131.7377,69.9294
131.5315,69.8333
131.5315,69.8333
131.3117,69.7744
131.3117,69.7744
131.3117,69.7744
131.3117,69.7744
131.3117,69.7744
131.0850,69.7545
131.0850,69.7545
130.8583,69.7744
130.8583,69.7744
130.6385,69.8333
130.6385,69.8333
130.4323,69.9294
130.4323,69.9294
130.2459,70.0600
130.0850,70.2209
129.9544,70.4073
129.9544,70.4073
129.8583,70.6135
129.8583,70.6135
129.7994,70.8333
129.7994,70.8333
129.7795,71.0600
125.3599,71.0600
125.2518,70.9519
125.2183,70.8906
125.2155,70.8642
125.2155,63.2655
125.2352,63.1985
125.2880,63.1527
125.3571,63.1428
125.4207,63.1718
125.4272,63.1778
126.2773,64.0280
126.3108,64.0893
126.3094,64.1478
126.3049,64.1646
126.3049,64.1646
126.2843,64.4000
126.2843,64.4000
126.3049,64.6354
126.3049,64.6354
126.3661,64.8637
126.3661,64.8637
126.3661,64.8637
126.4660,65.0778
126.4660,65.0778
126.5743,65.2325
126.6015,65.2714
126.7686,65.4385
126.9371,65.5565
126.9546,65.5687
126.9982,65.6233
127.0054,65.6928
126.9739,65.7552
126.9546,65.7719
126.7689,65.9019
126.7689,65.9019
126.6019,66.0689
126.6019,66.0689
126.4664,66.2624
126.4664,66.2624
126.3666,66.4765
126.3666,66.4765
126.3094,66.6900
126.3094,66.6900
127.2070,66.6900
127.1741,66.7470
127.1400,66.8742
127.1400,67.0058
127.1741,67.1330
127.2070,67.1900
126.3094,67.1900
126.3666,67.4035
126.3666,67.4035
126.4664,67.6176
126.6019,67.8111
126.7689,67.9781
126.9624,68.1136
127.1765,68.2134
127.1765,68.2134
127.3900,68.2706
127.3900,67.3730
127.4470,67.4059
127.5742,67.4400
127.7058,67.4400
127.8330,67.4059
127.8900,67.3730
127.8900,68.2706
128.1035,68.2134
128.1035,68.2134
128.3176,68.1136
128.5111,67.9781
128.6781,67.8111
128.8136,67.6176
128.9134,67.4035
128.9134,67.4035
128.9706,67.1900
128.0730,67.1900
128.1059,67.1330
128.1400,67.0058
128.1400,66.8742
128.1059,66.7470
128.0730,66.6900
128.9706,66.6900
128.9706,66.6900
128.9134,66.4765
128.9134,66.4765
128.8754,66.3950
142.2795,66.3950
142.2795,66.3950
142.2994,66.6217
142.2994,66.6217
142.3583,66.8415
142.3583,66.8415
142.4544,67.0477
142.4544,67.0477
142.5850,67.2341
142.7459,67.3950
142.7673,67.4101
142.9316,67.5251
142.9752,67.5797
142.9845,67.6267
142.9845,72.1933
142.9845,72.1933
142.9845,72.3591
142.9845,72.3591
143.0040,72.4320
143.0254,72.5118
143.0445,72.5448
143.0544,72.5619
143.0544,72.5619
143.0544,72.5619
143.1045,72.6487
143.1045,72.6487
143.2233,72.7676
143.2234,72.7676
145.9408,75.4850
145.9743,75.5464
145.9733,75.6032
145.9289,75.7787
145.9289,75.7787
145.9097,76.0100
145.9097,76.0100
145.9289,76.2413
145.9289,76.2413
145.9858,76.4663
146.0791,76.6788
146.2060,76.8731
146.2060,76.8732
146.2060,76.8732
146.3632,77.0439
146.3632,77.0439
146.3632,77.0439
146.5464,77.1865
146.5464,77.1865
146.5464,77.1865
146.7505,77.2969
146.8645,77.3361
146.9700,77.3723
146.9700,77.3723
146.9700,77.3723
147.1990,77.4105
147.1990,77.4105
147.4310,77.4105
147.4310,77.4105
147.6600,77.3723
147.8795,77.2969
148.0836,77.1865
148.2668,77.0439
148.2755,77.0344
148.3354,76.9984
148.4052,77.0005
148.4629,77.0401
148.4829,77.0751
148.5116,77.1521
148.5116,77.1521
148.5978,77.2672
148.5978,77.2672
148.7129,77.3533
148.7129,77.3534
148.8476,77.4036
148.8476,77.4036
148.9072,77.4100
148.9072,77.4100
149.6050,77.4100
149.6050,76.3853
149.6813,76.4293
149.7958,76.4600
149.9142,76.4600
150.0287,76.4293
150.1050,76.3853
150.1050,77.4100
150.8028,77.4100
150.8028,77.4100
150.8624,77.4036
150.8624,77.4036
150.9971,77.3534
150.9971,77.3533
151.1122,77.2672
151.1122,77.2672
151.1984,77.1521
151.1984,77.1521
151.2486,77.0174
151.2486,77.0174
151.2550,76.9578
151.2550,76.9578
151.2550,76.2600
150.2303,76.2600
150.2743,76.1837
150.3050,76.0692
150.3050,75.9508
150.2743,75.8363
150.2303,75.7600
151.2550,75.7600
151.2550,75.0622
151.2550,75.0622
151.2486,75.0026
151.2486,75.0026
151.1984,74.8679
151.1984,74.8679
151.1122,74.7528
151.1122,74.7528
150.9971,74.6666
150.9971,74.6666
150.8624,74.6164
150.8624,74.6164
150.8028,74.6100
150.1050,74.6100
150.1050,75.6347
150.0287,75.5907
149.9142,75.5600
149.7958,75.5600
149.6813,75.5907
149.6050,75.6347
149.6050,74.6100
148.9072,74.6100
148.8476,74.6164
148.8476,74.6164
148.7129,74.6666
148.7129,74.6666
148.5978,74.7528
148.5978,74.7528
148.5116,74.8679
148.5116,74.8679
148.4829,74.9449
148.4411,75.0009
148.3756,75.0253
148.3073,75.0104
148.2755,74.9856
148.2668,74.9761
148.2668,74.9761
148.2668,74.9761
148.0836,74.8335
148.0836,74.8335
147.8795,74.7231
147.8795,74.7231
147.6600,74.6477
147.4724,74.6164
147.4310,74.6095
147.1990,74.6095
147.1576,74.6164
146.9700,74.6477
146.9181,74.6655
146.8483,74.6687
146.7902,74.6359
144.2218,72.0676
144.1883,72.0063
144.1855,71.9799
144.1855,67.6267
144.2052,67.5597
144.2384,67.5251
144.4241,67.3950
144.5850,67.2341
144.7156,67.0477
144.8117,66.8415
144.8706,66.6217
144.8905,66.3950
144.8706,66.1683
144.8117,65.9485
144.7156,65.7423
144.6051,65.5844
144.5850,65.5559
144.4241,65.3950
144.2377,65.2644
144.2377,65.2644
144.0315,65.1683
144.0315,65.1683
143.8117,65.1094
143.8117,65.1094
143.8117,65.1094
143.8117,65.1094
143.8117,65.1094
143.5850,65.0895
143.5850,65.0895
143.3583,65.1094
143.3583,65.1094
143.1385,65.1683
143.1385,65.1683
142.9323,65.2644
142.9323,65.2644
142.7459,65.3950
142.5850,65.5559
142.4544,65.7423
142.4544,65.7423
142.3583,65.9485
142.3583,65.9485
142.2994,66.1683
142.2994,66.1683
142.2795,66.3950
128.8754,66.3950
128.8136,66.2624
128.8136,66.2624
128.6781,66.0689
128.6781,66.0689
128.5111,65.9019
128.3254,65.7719
128.2818,65.7173
128.2746,65.6478
128.3061,65.5854
128.3254,65.5687
128.5114,65.4385
128.6785,65.2714
128.8140,65.0778
128.9139,64.8637
128.9751,64.6354
128.9957,64.4000
128.9751,64.1646
128.9139,63.9363
128.8140,63.7222
128.6785,63.5286
128.6785,63.5286
128.5114,63.3615
128.5114,63.3615
128.3258,63.2316
128.2822,63.1770
128.2750,63.1075
128.3065,63.0451
128.3258,63.0284
128.3480,63.0129
128.5114,62.8985
128.6785,62.7314
128.8140,62.5378
128.9139,62.3237
128.9751,62.0954
128.9957,61.8600
128.9751,61.6246
128.9139,61.3963
128.8909,61.3469
128.8804,61.2778
128.9089,61.2140
128.9674,61.1758
129.0032,61.1705
152.0685,61.1705
152.0879,61.1667
152.1652,61.1513
152.2618,61.1321
152.3152,61.1100
152.4439,61.0566
152.5516,60.9847
152.6183,60.9638
152.6857,60.9823
152.7324,61.0343
152.7445,61.0878
152.7445,65.5174
152.7248,65.5844
152.7221,65.5885
152.6144,65.7423
152.5183,65.9485
152.5183,65.9485
152.4594,66.1683
152.4594,66.1683
152.4395,66.3950
152.4395,66.3950
152.4594,66.6217
152.4594,66.6217
152.5183,66.8415
152.5183,66.8415
152.6144,67.0477
152.6144,67.0477
152.7450,67.2341
152.9059,67.3950
152.9527,67.4278
153.0923,67.5256
153.2985,67.6217
153.5183,67.6806
153.6802,67.6948
153.7450,67.7005
153.7450,67.7005
153.7450,67.7005
153.8017,67.6955
153.9717,67.6806
154.1915,67.6217
154.3977,67.5256
154.5128,67.4450
157.2795,67.4450
157.2795,67.4450
157.2994,67.6717
157.2994,67.6717
157.3583,67.8915
157.3583,67.8915
157.4544,68.0977
157.4544,68.0977
157.5850,68.2841
157.7459,68.4450
157.9316,68.5751
157.9752,68.6297
157.9845,68.6767
157.9845,68.7441
157.9845,68.7441
158.0254,68.8968
158.0544,68.9469
158.0544,68.9469
158.0544,68.9469
158.1045,69.0337
158.1045,69.0337
158.2233,69.1526
158.2234,69.1526
160.9408,71.8700
160.9743,71.9314
160.9733,71.9882
160.9289,72.1637
160.9289,72.1637
160.9097,72.3950
160.9097,72.3950
160.9289,72.6263
160.9289,72.6263
160.9858,72.8513
161.0791,73.0638
161.2060,73.2581
161.2060,73.2582
161.2060,73.2582
161.3632,73.4289
161.3632,73.4289
161.3632,73.4289
161.5464,73.5715
161.5464,73.5715
161.5464,73.5715
161.7505,73.6819
161.8645,73.7211
161.9700,73.7573
161.9700,73.7573
161.9700,73.7573
162.1990,73.7955
162.1990,73.7955
162.4310,73.7955
162.4310,73.7955
162.6600,73.7573
162.8795,73.6819
163.0836,73.5715
163.2668,73.4289
163.2755,73.4194
163.3354,73.3834
163.4052,73.3855
163.4629,73.4251
163.4829,73.4601
163.5116,73.5371
163.5116,73.5371
163.5978,73.6522
163.5978,73.6522
163.7129,73.7383
163.7129,73.7384
163.8476,73.7886
163.8476,73.7886
163.9072,73.7950
163.9072,73.7950
164.6050,73.7950
164.6050,72.7703
164.6813,72.8143
164.7958,72.8450
164.9142,72.8450
165.0287,72.8143
165.1050,72.7703
165.1050,73.7950
165.8028,73.7950
165.8028,73.7950
165.8624,73.7886
165.8624,73.7886
165.9971,73.7384
165.9971,73.7383
166.1122,73.6522
166.1122,73.6522
166.1984,73.5371
166.1984,73.5371
166.2486,73.4024
166.2486,73.4024
166.2550,73.3428
166.2550,73.3428
166.2550,72.6450
165.2303,72.6450
165.2743,72.5687
165.3050,72.4542
165.3050,72.3358
165.2743,72.2213
165.2303,72.1450
166.2550,72.1450
166.2550,71.4472
166.2550,71.4472
166.2486,71.3876
166.2486,71.3876
166.1984,71.2529
166.1984,71.2529
166.1122,71.1378
166.1122,71.1378
165.9971,71.0516
165.9971,71.0516
165.8624,71.0014
165.8624,71.0014
165.8028,70.9950
165.1050,70.9950
165.1050,72.0197
165.0287,71.9757
164.9142,71.9450
164.7958,71.9450
164.6813,71.9757
164.6050,72.0197
164.6050,70.9950
163.9072,70.9950
163.8476,71.0014
163.8476,71.0014
163.7129,71.0516
163.7129,71.0516
163.5978,71.1378
163.5978,71.1378
163.5116,71.2529
163.5116,71.2529
163.4829,71.3299
163.4411,71.3859
163.3756,71.4103
163.3073,71.3954
163.2755,71.3706
163.2668,71.3611
163.2668,71.3611
163.2668,71.3611
163.0836,71.2185
163.0836,71.2185
162.8795,71.1081
162.8795,71.1081
162.6600,71.0327
162.4724,71.0014
162.4310,70.9945
162.1990,70.9945
162.1576,71.0014
161.9700,71.0327
161.9181,71.0505
161.8483,71.0537
161.7902,71.0209
159.4052,68.6360
159.3717,68.5746
159.3767,68.5050
159.4186,68.4490
159.4218,68.4467
159.4241,68.4450
159.5850,68.2841
159.5850,68.2841
159.7156,68.0977
159.8117,67.8915
159.8706,67.6717
159.8905,67.4450
159.8861,67.3950
159.8813,67.3401
159.8706,67.2183
159.8117,66.9985
159.7156,66.7923
159.5850,66.6059
159.5850,66.6059
159.4241,66.4450
159.2377,66.3144
159.2377,66.3144
159.0315,66.2183
159.0315,66.2183
158.8117,66.1594
158.8117,66.1594
158.8117,66.1594
158.8117,66.1594
158.8117,66.1594
158.5850,66.1395
158.5850,66.1395
158.3583,66.1594
158.3583,66.1594
158.1385,66.2183
158.1385,66.2183
157.9323,66.3144
157.9323,66.3144
157.7459,66.4450
157.5850,66.6059
157.4544,66.7923
157.4544,66.7923
157.3583,66.9985
157.3583,66.9985
157.2994,67.2183
157.2994,67.2183
157.2795,67.4450
154.5128,67.4450
154.5841,67.3950
154.7450,67.2341
154.8756,67.0477
154.9717,66.8415
155.0306,66.6217
155.0505,66.3950
155.0306,66.1683
154.9717,65.9485
154.8756,65.7423
154.7679,65.5885
154.7456,65.5223
154.7455,65.5174
154.7455,59.2726
154.7652,59.2055
154.7679,59.2015
154.7903,59.1695
154.8756,59.0477
154.9717,58.8415
155.0306,58.6217
155.0505,58.3950
155.0306,58.1683
154.9850,57.9980
154.9717,57.9485
154.9717,57.9485
154.9482,57.8981
154.8756,57.7423
154.7450,57.5559
154.7450,57.5559
154.5841,57.3950
154.4549,57.3044
162.5145,57.3044
162.5145,57.4856
162.5428,57.6644
162.5988,57.8366
162.5988,57.8366
162.6547,57.9463
162.6757,57.9875
162.6810,57.9980
162.7874,58.1445
162.7874,58.1445
162.9155,58.2726
162.9155,58.2726
163.0433,58.3654
163.0620,58.3790
163.1675,58.4327
163.2234,58.4612
163.2234,58.4612
163.3095,58.4892
163.3956,58.5172
163.4784,58.5303
163.5744,58.5455
163.5745,58.5455
163.7556,58.5455
163.8423,58.5318
163.9344,58.5172
164.1066,58.4612
164.2366,58.3950
172.2795,58.3950
172.2795,58.3950
172.2994,58.6217
172.2994,58.6217
172.3583,58.8415
172.3583,58.8415
172.4544,59.0477
172.4544,59.0477
172.5850,59.2341
172.7459,59.3950
172.7459,59.3950
172.9323,59.5256
173.1385,59.6217
173.3583,59.6806
173.5202,59.6948
173.5850,59.7005
173.5850,59.7005
173.5850,59.7005
173.6417,59.6955
173.8117,59.6806
174.0315,59.6217
174.2377,59.5256
174.4241,59.3950
174.5850,59.2341
174.7156,59.0477
174.8117,58.8415
174.8706,58.6217
174.8905,58.3950
174.8706,58.1683
174.8453,58.0738
174.8448,58.0721
174.8465,58.0022
174.8769,57.9523
177.7955,55.0337
177.8746,54.8968
177.9155,54.7441
177.9155,54.5859
177.9155,54.5783
177.9155,54.5783
177.9155,52.3513
177.9352,52.2843
177.9805,52.2423
178.0836,52.1865
178.1222,52.1564
178.2267,52.0751
178.2668,52.0439
178.2755,52.0344
178.3354,51.9984
178.4052,52.0005
178.4629,52.0401
178.4829,52.0751
178.5116,52.1521
178.5116,52.1521
178.5978,52.2672
178.5978,52.2672
178.7129,52.3533
178.7129,52.3534
178.8476,52.4036
178.8476,52.4036
178.9072,52.4100
178.9072,52.4100
179.6050,52.4100
179.6050,51.3853
179.6813,51.4293
179.7958,51.4600
179.9142,51.4600
180.0287,51.4293
180.1050,51.3853
180.1050,52.4100
180.8028,52.4100
180.8028,52.4100
180.8624,52.4036
180.8624,52.4036
180.9971,52.3534
180.9971,52.3533
181.1122,52.2672
181.1122,52.2672
181.1984,52.1521
181.1984,52.1521
181.2486,52.0174
181.2486,52.0174
181.2550,51.9578
181.2550,51.9578
181.2550,51.2600
180.2303,51.2600
180.2743,51.1837
180.3050,51.0692
180.3050,50.9508
180.2743,50.8363
180.2303,50.7600
181.2550,50.7600
181.2550,50.0622
181.2550,50.0622
181.2486,50.0026
181.2486,50.0026
181.1984,49.8679
181.1984,49.8679
181.1122,49.7528
181.1122,49.7528
180.9971,49.6666
180.9971,49.6666
180.8624,49.6164
180.8624,49.6164
180.8028,49.6100
180.1050,49.6100
180.1050,50.6347
180.0287,50.5907
179.9142,50.5600
179.7958,50.5600
179.6813,50.5907
179.6050,50.6347
179.6050,49.6100
178.9072,49.6100
178.8476,49.6164
178.8476,49.6164
178.7129,49.6666
178.7129,49.6666
178.5978,49.7528
178.5978,49.7528
178.5116,49.8679
178.5116,49.8679
178.4829,49.9449
178.4411,50.0009
178.3756,50.0253
178.3073,50.0104
178.2755,49.9856
178.2668,49.9761
178.2668,49.9761
178.2668,49.9761
178.0836,49.8335
178.0836,49.8335
177.8795,49.7231
177.8795,49.7231
177.6600,49.6477
177.4724,49.6164
177.4310,49.6095
177.1990,49.6095
177.1576,49.6164
176.9700,49.6477
176.7505,49.7231
176.7505,49.7231
176.5464,49.8335
176.5464,49.8335
176.3632,49.9761
176.3632,49.9761
176.3632,49.9761
176.3632,49.9761
176.3388,50.0026
176.2060,50.1469
176.0791,50.3412
175.9858,50.5537
175.9289,50.7787
175.9289,50.7787
175.9097,51.0100
175.9097,51.0100
175.9289,51.2413
175.9289,51.2413
175.9858,51.4663
176.0791,51.6788
176.2060,51.8731
176.2060,51.8732
176.2060,51.8732
176.3632,52.0439
176.3632,52.0439
176.3632,52.0439
176.5464,52.1865
176.5464,52.1865
176.6495,52.2423
176.6991,52.2915
176.7145,52.3513
176.7145,54.3649
176.6948,54.4319
176.6782,54.4526
174.0277,57.1031
173.9664,57.1365
173.9079,57.1352
173.8117,57.1094
173.8117,57.1094
173.8117,57.1094
173.8117,57.1094
173.8117,57.1094
173.5850,57.0895
173.5850,57.0895
173.3583,57.1094
173.3583,57.1094
173.1385,57.1683
173.1385,57.1683
172.9323,57.2644
172.9323,57.2644
172.7459,57.3950
172.5850,57.5559
172.4544,57.7423
172.4544,57.7423
172.3583,57.9485
172.3583,57.9485
172.2994,58.1683
172.2994,58.1683
172.2795,58.3950
164.2366,58.3950
164.2680,58.3790
164.4145,58.2726
164.5426,58.1445
164.6490,57.9980
164.7312,57.8366
164.7872,57.6644
164.8044,57.5559
164.8155,57.4856
164.8155,57.3044
164.7939,57.1683
164.7872,57.1256
164.7312,56.9534
164.7312,56.9534
164.6884,56.8694
164.6490,56.7920
164.5907,56.7118
164.5426,56.6455
164.5426,56.6455
164.4145,56.5174
164.4145,56.5174
164.2680,56.4110
164.2680,56.4110
164.2680,56.4110
164.2163,56.3847
164.1066,56.3288
164.1066,56.3288
163.9344,56.2728
163.7556,56.2445
163.7555,56.2445
163.5745,56.2445
163.5744,56.2445
163.3956,56.2728
163.2234,56.3288
163.2234,56.3288
163.0620,56.4110
162.9155,56.5174
162.9155,56.5174
162.7874,56.6455
162.7874,56.6455
162.6810,56.7920
162.5988,56.9534
162.5988,56.9534
162.5428,57.1256
162.5145,57.3044
154.4549,57.3044
154.3977,57.2644
154.3977,57.2644
154.1915,57.1683
154.1915,57.1683
153.9717,57.1094
153.9717,57.1094
153.9717,57.1094
153.9717,57.1094
153.9717,57.1094
153.7450,57.0895
153.7450,57.0895
153.5183,57.1094
153.5183,57.1094
153.2985,57.1683
153.2985,57.1683
153.0923,57.2644
153.0923,57.2644
152.9059,57.3950
152.7450,57.5559
152.6144,57.7423
152.6144,57.7423
152.5183,57.9485
152.5183,57.9485
152.4594,58.1683
152.4594,58.1683
152.4540,58.2301
152.4285,58.2952
152.4181,58.3070
151.5919,59.1332
151.5306,59.1667
151.5042,59.1695
144.8534,59.1695
144.7864,59.1498
144.7406,59.0970
144.7307,59.0279
144.7410,58.9931
144.7508,58.9721
144.8117,58.8415
144.8706,58.6217
144.8905,58.3950
144.8706,58.1683
144.8453,58.0738
144.8448,58.0721
144.8465,58.0022
144.8769,57.9523
147.6842,55.1450
155.4878,55.1450
156.8665,55.1450
156.8559,55.1634
156.8150,55.3160
156.8150,55.4740
156.8559,55.6266
156.8665,55.6450
155.4878,55.6450
155.4982,55.7111
155.4982,55.7111
155.5639,55.9132
155.6604,56.1026
155.7853,56.2745
155.7853,56.2745
155.9355,56.4247
155.9355,56.4247
156.1074,56.5496
156.2968,56.6461
156.4989,56.7118
156.7088,56.7450
157.1650,56.7450
157.1650,55.9435
157.1834,55.9541
157.3360,55.9950
157.4940,55.9950
157.6466,55.9541
157.6650,55.9435
157.6650,56.7450
158.1212,56.7450
158.3311,56.7118
158.3311,56.7118
158.5332,56.6461
158.7226,56.5496
158.8945,56.4247
158.8945,56.4247
159.0447,56.2745
159.0447,56.2745
159.1696,56.1026
159.2661,55.9132
159.3318,55.7111
159.3318,55.7111
159.3422,55.6450
157.9635,55.6450
157.9741,55.6266
158.0150,55.4740
158.0150,55.3160
157.9741,55.1634
157.9635,55.1450
159.3422,55.1450
167.9878,55.1450
169.3665,55.1450
169.3559,55.1634
169.3150,55.3160
169.3150,55.4740
169.3559,55.6266
169.3665,55.6450
167.9878,55.6450
167.9982,55.7111
167.9982,55.7111
168.0639,55.9132
168.1604,56.1026
168.2853,56.2745
168.2853,56.2745
168.4355,56.4247
168.4355,56.4247
168.6074,56.5496
168.7968,56.6461
168.9989,56.7118
169.2088,56.7450
169.6650,56.7450
169.6650,55.9435
169.6834,55.9541
169.8360,55.9950
169.9940,55.9950
170.1466,55.9541
170.1650,55.9435
170.1650,56.7450
170.6212,56.7450
170.8311,56.7118
170.8311,56.7118
171.0332,56.6461
171.2226,56.5496
171.3945,56.4247
171.3945,56.4247
171.5447,56.2745
171.5447,56.2745
171.6696,56.1026
171.7661,55.9132
171.8318,55.7111
171.8318,55.7111
171.8422,55.6450
170.4635,55.6450
170.4741,55.6266
170.5150,55.4740
170.5150,55.3160
170.4741,55.1634
170.4635,55.1450
171.8422,55.1450
171.8318,55.0789
171.8318,55.0789
171.7661,54.8768
171.6696,54.6874
171.5447,54.5155
171.5447,54.5155
171.3945,54.3653
171.3945,54.3653
171.2226,54.2404
171.0332,54.1439
170.8311,54.0782
170.6212,54.0450
170.1650,54.0450
170.1650,54.8465
170.1466,54.8359
169.9940,54.7950
169.8360,54.7950
169.6834,54.8359
169.6650,54.8465
169.6650,54.0450
169.2088,54.0450
168.9989,54.0782
168.9989,54.0782
168.7968,54.1439
168.6074,54.2404
168.4355,54.3653
168.4355,54.3653
168.2853,54.5155
168.2853,54.5155
168.1604,54.6874
168.0639,54.8768
167.9982,55.0789
167.9982,55.0789
167.9878,55.1450
159.3422,55.1450
159.3318,55.0789
159.3318,55.0789
159.2661,54.8768
159.1696,54.6874
159.0447,54.5155
159.0447,54.5155
158.8945,54.3653
158.8945,54.3653
158.7226,54.2404
158.5332,54.1439
158.3311,54.0782
158.1212,54.0450
157.6650,54.0450
157.6650,54.8465
157.6466,54.8359
157.4940,54.7950
157.3360,54.7950
157.1834,54.8359
157.1650,54.8465
157.1650,54.0450
156.7088,54.0450
156.4989,54.0782
156.4989,54.0782
156.2968,54.1439
156.1074,54.2404
155.9355,54.3653
155.9355,54.3653
155.7853,54.5155
155.7853,54.5155
155.6604,54.6874
155.5639,54.8768
155.4982,55.0789
155.4982,55.0789
155.4878,55.1450
147.6842,55.1450
147.7955,55.0337
147.8746,54.8968
147.9155,54.7441
147.9155,54.5859
147.9155,54.5783
147.9155,54.5783
147.9155,52.3513
147.9352,52.2843
147.9805,52.2423
148.0836,52.1865
148.1222,52.1564
148.2267,52.0751
148.2668,52.0439
148.2755,52.0344
148.3354,51.9984
148.4052,52.0005
148.4629,52.0401
148.4829,52.0751
148.5116,52.1521
148.5116,52.1521
148.5978,52.2672
148.5978,52.2672
148.7129,52.3533
148.7129,52.3534
148.8476,52.4036
148.8476,52.4036
148.9072,52.4100
148.9072,52.4100
149.6050,52.4100
149.6050,51.3853
149.6813,51.4293
149.7958,51.4600
149.9142,51.4600
150.0287,51.4293
150.1050,51.3853
150.1050,52.4100
150.8028,52.4100
150.8028,52.4100
150.8624,52.4036
150.8624,52.4036
150.9971,52.3534
150.9971,52.3533
151.1122,52.2672
151.1122,52.2672
151.1984,52.1521
151.1984,52.1521
151.2486,52.0174
151.2486,52.0174
151.2550,51.9578
151.2550,51.9578
151.2550,51.2600
150.2303,51.2600
150.2743,51.1837
150.3050,51.0692
150.3050,50.9508
150.2743,50.8363
150.2303,50.7600
151.2550,50.7600
151.2550,50.0622
151.2550,50.0622
151.2486,50.0026
151.2486,50.0026
151.1984,49.8679
151.1984,49.8679
151.1122,49.7528
151.1122,49.7528
150.9971,49.6666
150.9971,49.6666
150.8624,49.6164
150.8624,49.6164
150.8028,49.6100
150.1050,49.6100
150.1050,50.6347
150.0287,50.5907
149.9142,50.5600
149.7958,50.5600
149.6813,50.5907
149.6050,50.6347
149.6050,49.6100
148.9072,49.6100
148.8476,49.6164
148.8476,49.6164
148.7129,49.6666
148.7129,49.6666
148.5978,49.7528
148.5978,49.7528
148.5116,49.8679
148.5116,49.8679
148.4829,49.9449
148.4411,50.0009
148.3756,50.0253
148.3073,50.0104
148.2755,49.9856
148.2668,49.9761
148.2668,49.9761
148.2668,49.9761
148.0836,49.8335
148.0836,49.8335
147.8795,49.7231
147.8795,49.7231
147.6600,49.6477
147.4724,49.6164
147.4310,49.6095
147.1990,49.6095
147.1576,49.6164
146.9700,49.6477
146.7505,49.7231
146.7505,49.7231
146.5464,49.8335
146.5464,49.8335
146.3632,49.9761
146.3632,49.9761
146.3632,49.9761
146.3632,49.9761
146.3388,50.0026
146.2060,50.1469
146.0791,50.3412
145.9858,50.5537
145.9289,50.7787
145.9289,50.7787
145.9097,51.0100
145.9097,51.0100
145.9289,51.2413
145.9289,51.2413
145.9858,51.4663
146.0791,51.6788
146.2060,51.8731
146.2060,51.8732
146.2060,51.8732
146.3632,52.0439
146.3632,52.0439
146.3632,52.0439
146.5464,52.1865
146.5464,52.1865
146.6495,52.2423
146.6991,52.2915
146.7145,52.3513
146.7145,54.3649
146.6948,54.4319
146.6782,54.4526
144.0277,57.1031
143.9664,57.1365
143.9079,57.1352
143.8117,57.1094
143.8117,57.1094
143.8117,57.1094
143.8117,57.1094
143.8117,57.1094
143.5850,57.0895
143.5850,57.0895
143.3583,57.1094
143.3583,57.1094
143.1385,57.1683
143.1385,57.1683
142.9323,57.2644
142.9323,57.2644
142.7459,57.3950
142.5850,57.5559
142.4544,57.7423
142.4544,57.7423
142.3583,57.9485
142.3583,57.9485
142.2994,58.1683
142.2994,58.1683
142.2795,58.3950
142.2795,58.3950
142.2994,58.6217
142.2994,58.6217
142.3583,58.8415
142.3583,58.8415
142.3583,58.8415
142.4066,58.9453
142.4290,58.9931
142.4394,59.0622
142.4109,59.1260
142.3524,59.1642
142.3166,59.1695
129.0930,59.1695
129.0259,59.1498
128.9802,59.0970
128.9732,59.0776
128.9139,58.8563
128.9139,58.8563
128.9139,58.8563
128.8140,58.6422
128.7997,58.6217
128.6785,58.4486
128.6249,58.3950
128.5566,58.3267
128.5231,58.2654
128.5281,58.1957
128.5699,58.1397
128.6009,58.1228
128.7323,58.0738
128.8475,57.9875
128.9338,57.8723
128.9841,57.7375
128.9905,57.6779
128.9905,55.8821
128.9841,55.8225
128.9338,55.6877
128.9338,55.6877
128.9338,55.6877
128.8475,55.5725
128.8475,55.5725
128.7323,55.4862
128.7323,55.4862
128.5975,55.4359
128.5975,55.4359
128.5379,55.4295
128.5379,55.4295
128.5379,55.4295
128.5379,55.4295
126.7421,55.4295
126.7421,55.4295
126.6825,55.4359
126.5394,55.4893
126.5388,55.4877
126.4806,55.5004
126.4152,55.4759
126.3733,55.4200
126.3655,55.3767
126.3655,54.1715
126.3852,54.1045
126.4018,54.0838
127.4188,53.0668
127.4802,53.0333
127.5065,53.0305
129.3235,53.0305
129.3905,53.0502
129.4112,53.0668
132.2185,55.8741
132.2185,55.8741
132.3332,55.9508
132.4400,55.9950
132.4607,56.0036
132.4607,56.0036
132.4607,56.0036
132.5960,56.0305
132.5960,56.0305
138.7340,56.0305
138.8250,56.0124
138.8693,56.0036
138.9331,55.9772
138.9968,55.9508
138.9968,55.9508
138.9968,55.9508
139.1115,55.8741
139.7091,55.2765
139.7858,55.1618
139.7927,55.1450
139.8386,55.0343
139.8386,55.0343
139.8655,54.8990
139.8655,54.7610
139.8655,54.6715
139.8852,54.6045
139.9018,54.5838
141.2091,53.2765
141.2858,53.1618
141.2858,53.1618
141.3386,53.0343
141.3393,53.0305
141.3447,53.0036
141.3655,52.8990
141.3655,52.6715
141.3852,52.6045
141.4018,52.5838
141.8291,52.1566
141.8291,52.1565
141.8292,52.1564
141.9058,52.0418
141.9586,51.9143
141.9855,51.7790
141.9855,51.0515
142.0052,50.9845
142.0218,50.9638
144.4188,48.5668
144.4802,48.5333
144.5065,48.5305
152.8235,48.5305
152.8905,48.5502
152.9112,48.5668
154.5009,50.1565
154.5985,50.2541
154.5985,50.2541
154.7132,50.3308
154.7132,50.3308
154.7132,50.3308
154.7879,50.3617
154.7879,50.3617
154.7879,50.3617
154.8277,50.3782
154.8407,50.3836
154.8407,50.3836
154.8407,50.3836
154.8675,50.3889
154.8676,50.3889
154.8676,50.3889
154.9579,50.4069
154.9760,50.4105
154.9760,50.4105
155.3442,50.4105
155.4113,50.4302
155.4570,50.4830
155.4667,50.5151
155.4880,50.6499
155.4978,50.7112
155.5197,50.7787
155.5634,50.9134
155.6600,51.1028
155.7849,51.2748
155.9352,51.4251
156.1072,51.5500
156.1072,51.5500
156.1072,51.5501
156.2966,51.6466
156.4988,51.7122
156.7087,51.7455
156.7087,51.7455
158.1213,51.7455
158.1213,51.7455
158.3312,51.7122
158.5334,51.6466
158.7228,51.5501
158.7448,51.5341
158.8948,51.4251
158.8948,51.4251
158.8948,51.4251
159.0451,51.2748
159.0453,51.2745
159.0694,51.2413
159.1382,51.1466
159.1936,51.1039
159.2385,51.0955
168.0915,51.0955
168.1585,51.1152
168.1918,51.1466
168.2187,51.1837
168.2849,51.2748
168.4352,51.4251
168.6072,51.5500
168.6072,51.5500
168.6072,51.5501
168.7966,51.6466
168.9988,51.7122
169.2087,51.7455
169.2087,51.7455
170.6213,51.7455
170.6213,51.7455
170.8312,51.7122
171.0334,51.6466
171.2228,51.5501
171.2448,51.5341
171.3948,51.4251
171.3948,51.4251
171.3948,51.4251
171.5451,51.2748
171.5451,51.2748
171.5451,51.2748
171.6700,51.1028
171.6700,51.1028
171.6701,51.1028
171.7666,50.9134
171.8322,50.7112
171.8655,50.5013
171.8655,50.2887
171.8322,50.0788
171.7666,49.8766
171.6701,49.6872
171.6700,49.6872
171.6700,49.6872
171.5451,49.5152
171.3948,49.3649
171.2228,49.2400
171.0334,49.1434
171.0334,49.1434
171.0334,49.1434
170.8312,49.0778
170.8312,49.0778
170.8312,49.0778
170.6700,49.0522
170.6213,49.0445
169.2087,49.0445
169.1600,49.0522
168.9988,49.0778
168.7966,49.1434
168.6072,49.2400
168.4352,49.3649
168.2849,49.5152
168.2277,49.5939
168.1918,49.6434
168.1364,49.6861
168.0915,49.6945
164.1653,49.6945
164.0982,49.6748
164.0525,49.6220
164.0425,49.5529
164.0716,49.4893
164.1090,49.4600
164.1412,49.4436
164.2680,49.3790
164.4145,49.2726
164.5426,49.1445
164.6490,48.9980
164.7312,48.8366
164.7872,48.6644
164.8053,48.5502
164.8155,48.4856
164.8155,48.3044
164.7990,48.2004
164.7872,48.1256
164.7312,47.9534
164.7312,47.9534
164.7027,47.8975
164.6490,47.7920
164.6261,47.7605
164.5426,47.6455
164.5426,47.6455
164.4145,47.5174
164.4145,47.5174
164.2680,47.4110
164.2680,47.4110
164.2680,47.4110
164.2163,47.3847
164.1066,47.3288
164.1066,47.3288
163.9344,47.2728
163.7556,47.2445
163.7555,47.2445
163.5745,47.2445
163.5744,47.2445
163.3956,47.2728
163.2234,47.3288
163.2234,47.3288
163.0620,47.4110
162.9155,47.5174
162.9155,47.5174
162.7874,47.6455
162.7874,47.6455
162.6810,47.7920
162.5988,47.9534
162.5988,47.9534
162.5428,48.1256
162.5145,48.3044
162.5145,48.4856
162.5428,48.6644
162.5988,48.8366
162.5988,48.8366
162.6810,48.9980
162.7874,49.1445
162.7874,49.1445
162.9155,49.2726
162.9155,49.2726
163.0426,49.3649
163.0620,49.3790
163.1766,49.4374
163.2210,49.4600
163.2718,49.5080
163.2886,49.5758
163.2661,49.6419
163.2114,49.6854
163.1647,49.6945
159.2385,49.6945
159.1715,49.6748
159.1382,49.6434
159.0725,49.5529
159.0451,49.5152
158.8948,49.3649
158.7228,49.2400
158.5334,49.1434
158.5334,49.1434
158.5334,49.1434
158.3312,49.0778
158.3312,49.0778
158.3312,49.0778
158.1700,49.0522
158.1213,49.0445
158.1213,49.0445
156.9785,49.0445
156.9405,49.0369
156.9402,49.0382
156.9343,49.0364
156.7990,49.0095
156.7990,49.0095
156.7990,49.0095
155.3865,49.0095
155.3195,48.9898
155.2988,48.9732
153.6115,47.2859
153.6115,47.2859
153.4968,47.2092
153.3693,47.1564
153.3693,47.1564
153.2340,47.1295
153.2340,47.1295
153.2340,47.1295
144.2340,47.1295
144.0960,47.1295
144.0960,47.1295
143.9607,47.1564
143.9607,47.1564
143.8332,47.2092
143.7185,47.2859
140.7409,50.2635
140.6642,50.3782
140.6114,50.5057
140.6114,50.5057
140.5928,50.5993
140.5928,50.5993
140.5845,50.6410
140.5845,51.3685
140.5648,51.4355
140.5482,51.4562
140.1209,51.8835
140.1209,51.8835
140.0442,51.9982
139.9914,52.1257
139.9914,52.1257
139.9853,52.1565
139.9853,52.1565
139.9645,52.2610
139.9645,52.4885
139.9448,52.5555
139.9282,52.5762
138.6209,53.8835
138.6209,53.8835
138.5442,53.9982
138.4914,54.1257
138.4914,54.1257
138.4672,54.2472
138.4672,54.2472
138.4645,54.2610
138.4645,54.4885
138.4448,54.5555
138.4282,54.5762
138.4112,54.5932
138.3498,54.6267
138.3235,54.6295
133.0065,54.6295
132.9395,54.6098
132.9188,54.5932
130.1115,51.7859
130.1115,51.7859
129.9968,51.7092
129.8693,51.6564
129.8693,51.6564
129.7340,51.6295
129.7340,51.6295
129.7340,51.6295
127.0960,51.6295
127.0960,51.6295
126.9876,51.6511
126.9876,51.6511
126.9741,51.6537
126.9607,51.6564
126.9343,51.6674
126.9079,51.6783
126.9079,51.6783
126.9079,51.6783
126.8332,51.7092
126.7288,51.7790
126.7288,51.7790
126.7185,51.7859
125.4272,53.0772
125.3659,53.1106
125.2962,53.1057
125.2402,53.0638
125.2158,52.9983
125.2155,52.9895
125.2155,51.2745
125.2352,51.2074
125.2518,51.1868
127.4654,48.9732
129.7565,46.6821
129.8178,46.6486
129.8875,46.6536
129.9435,46.6954
129.9512,46.7083
129.9517,46.7080
129.9544,46.7127
130.0850,46.8991
130.2459,47.0600
130.4316,47.1901
130.4752,47.2447
130.4845,47.2917
130.4845,47.3591
130.4845,47.3591
130.5254,47.5118
130.5544,47.5619
130.5544,47.5619
130.5544,47.5619
130.6045,47.6487
130.6045,47.6487
130.7233,47.7676
130.7234,47.7676
133.4408,50.4850
133.4743,50.5464
133.4733,50.6032
133.4289,50.7787
133.4289,50.7787
133.4097,51.0100
133.4097,51.0100
133.4289,51.2413
133.4289,51.2413
133.4858,51.4663
133.5791,51.6788
133.7060,51.8731
133.7060,51.8732
133.7060,51.8732
133.8632,52.0439
133.8632,52.0439
133.8632,52.0439
134.0464,52.1865
134.0464,52.1865
134.0464,52.1865
134.2505,52.2969
134.3645,52.3361
134.4700,52.3723
134.4700,52.3723
134.4700,52.3723
134.6990,52.4105
134.6990,52.4105
134.9310,52.4105
134.9310,52.4105
135.1600,52.3723
135.3795,52.2969
135.5836,52.1865
135.6222,52.1564
135.7267,52.0751
135.7668,52.0439
135.7755,52.0344
135.8354,51.9984
135.9052,52.0005
135.9629,52.0401
135.9829,52.0751
136.0116,52.1521
136.0116,52.1521
136.0978,52.2672
136.0978,52.2672
136.2129,52.3533
136.2129,52.3534
136.3476,52.4036
136.3476,52.4036
136.4072,52.4100
136.4072,52.4100
137.1050,52.4100
137.1050,51.3853
137.1813,51.4293
137.2958,51.4600
137.4142,51.4600
137.5287,51.4293
137.6050,51.3853
137.6050,52.4100
138.3028,52.4100
138.3028,52.4100
138.3624,52.4036
138.3624,52.4036
138.4971,52.3534
138.4971,52.3533
138.6122,52.2672
138.6122,52.2672
138.6984,52.1521
138.6984,52.1521
138.7486,52.0174
138.7486,52.0174
138.7550,51.9578
138.7550,51.9578
138.7550,51.2600
137.7303,51.2600
137.7743,51.1837
137.8050,51.0692
137.8050,50.9508
137.7743,50.8363
137.7303,50.7600
138.7550,50.7600
138.7550,50.0622
138.7550,50.0622
138.7486,50.0026
138.7486,50.0026
138.6984,49.8679
138.6984,49.8679
138.6122,49.7528
138.6122,49.7528
138.4971,49.6666
138.4971,49.6666
138.3624,49.6164
138.3624,49.6164
138.3028,49.6100
137.6050,49.6100
137.6050,50.6347
137.5287,50.5907
137.4142,50.5600
137.2958,50.5600
137.1813,50.5907
137.1050,50.6347
137.1050,49.6100
136.4072,49.6100
136.3476,49.6164
136.3476,49.6164
136.2129,49.6666
136.2129,49.6666
136.0978,49.7528
136.0978,49.7528
136.0116,49.8679
136.0116,49.8679
135.9829,49.9449
135.9411,50.0009
135.8756,50.0253
135.8073,50.0104
135.7755,49.9856
135.7668,49.9761
135.7668,49.9761
135.7668,49.9761
135.5836,49.8335
135.5836,49.8335
135.3795,49.7231
135.3795,49.7231
135.1600,49.6477
134.9724,49.6164
134.9310,49.6095
134.6990,49.6095
134.6576,49.6164
134.4700,49.6477
134.4181,49.6655
134.3483,49.6687
134.2902,49.6359
131.9052,47.2510
131.8717,47.1896
131.8767,47.1200
131.9186,47.0640
131.9218,47.0617
131.9241,47.0600
132.0850,46.8991
132.0850,46.8991
132.2156,46.7127
132.3117,46.5065
132.3706,46.2867
132.3905,46.0600
132.3706,45.8333
132.3573,45.7836
132.3394,45.7166
132.3410,45.6467
132.3802,45.5889
132.4444,45.5614
132.4591,45.5605
139.2792,45.5605
139.3463,45.5802
139.3669,45.5968
139.9181,46.1480
139.9516,46.2094
139.9540,46.2249
139.9594,46.2867
139.9594,46.2867
140.0183,46.5065
140.0183,46.5065
140.1144,46.7127
140.1144,46.7127
140.2450,46.8991
140.4059,47.0600
140.4115,47.0640
140.5923,47.1906
140.7985,47.2867
141.0183,47.3456
141.1717,47.3591
141.2450,47.3655
141.2450,47.3655
141.2450,47.3655
141.3017,47.3605
141.4717,47.3456
141.6915,47.2867
141.8977,47.1906
142.0841,47.0600
142.2450,46.8991
142.3756,46.7127
142.4717,46.5065
142.5306,46.2867
142.5505,46.0600
142.5505,46.0600
184.7795,46.0600
184.7795,46.0600
184.7994,46.2867
184.7994,46.2867
184.8583,46.5065
184.8583,46.5065
184.9544,46.7127
184.9544,46.7127
185.0850,46.8991
185.2459,47.0600
185.4316,47.1901
185.4752,47.2447
185.4845,47.2917
185.4845,47.3591
185.4845,47.3591
185.5254,47.5118
185.5544,47.5619
185.5544,47.5619
185.5544,47.5619
185.6045,47.6487
185.6045,47.6487
185.7233,47.7676
185.7234,47.7676
188.4408,50.4850
188.4743,50.5464
188.4733,50.6032
188.4289,50.7787
188.4289,50.7787
188.4097,51.0100
188.4097,51.0100
188.4289,51.2413
188.4289,51.2413
188.4858,51.4663
188.5791,51.6788
188.7060,51.8731
188.7060,51.8732
188.7060,51.8732
188.8632,52.0439
188.8632,52.0439
188.8632,52.0439
189.0464,52.1865
189.0464,52.1865
189.0464,52.1865
189.2505,52.2969
189.3645,52.3361
189.4700,52.3723
189.4700,52.3723
189.4700,52.3723
189.6990,52.4105
189.6990,52.4105
189.9310,52.4105
189.9310,52.4105
190.1600,52.3723
190.3795,52.2969
190.5836,52.1865
190.6222,52.1564
190.7267,52.0751
190.7668,52.0439
190.7755,52.0344
190.8354,51.9984
190.9052,52.0005
190.9629,52.0401
190.9829,52.0751
191.0116,52.1521
191.0116,52.1521
191.0978,52.2672
191.0978,52.2672
191.2129,52.3533
191.2129,52.3534
191.3476,52.4036
191.3476,52.4036
191.4072,52.4100
191.4072,52.4100
192.1050,52.4100
192.1050,51.3853
192.1813,51.4293
192.2958,51.4600
192.4142,51.4600
192.5287,51.4293
192.6050,51.3853
192.6050,52.4100
193.3028,52.4100
193.3028,52.4100
193.3624,52.4036
193.3624,52.4036
193.4971,52.3534
193.4971,52.3533
193.6122,52.2672
193.6122,52.2672
193.6984,52.1521
193.6984,52.1521
193.7486,52.0174
193.7486,52.0174
193.7550,51.9578
193.7550,51.9578
193.7550,51.2600
192.7303,51.2600
192.7743,51.1837
192.8050,51.0692
192.8050,50.9508
192.7743,50.8363
192.7303,50.7600
193.7550,50.7600
193.7550,50.0622
193.7550,50.0622
193.7486,50.0026
193.7486,50.0026
193.6984,49.8679
193.6984,49.8679
193.6122,49.7528
193.6122,49.7528
193.4971,49.6666
193.4971,49.6666
193.3624,49.6164
193.3624,49.6164
193.3028,49.6100
192.6050,49.6100
192.6050,50.6347
192.5287,50.5907
192.4142,50.5600
192.2958,50.5600
192.1813,50.5907
192.1050,50.6347
192.1050,49.6100
191.4072,49.6100
191.3476,49.6164
191.3476,49.6164
191.2129,49.6666
191.2129,49.6666
191.0978,49.7528
191.0978,49.7528
191.0116,49.8679
191.0116,49.8679
190.9829,49.9449
190.9411,50.0009
190.8756,50.0253
190.8073,50.0104
190.7755,49.9856
190.7668,49.9761
190.7668,49.9761
190.7668,49.9761
190.5836,49.8335
190.5836,49.8335
190.3795,49.7231
190.3795,49.7231
190.1600,49.6477
189.9724,49.6164
189.9310,49.6095
189.6990,49.6095
189.6576,49.6164
189.4700,49.6477
189.4181,49.6655
189.3483,49.6687
189.2902,49.6359
186.9052,47.2510
186.8717,47.1896
186.8767,47.1200
186.9186,47.0640
186.9218,47.0617
186.9241,47.0600
187.0850,46.8991
187.0850,46.8991
187.2156,46.7127
187.3117,46.5065
187.3706,46.2867
187.3905,46.0600
187.3706,45.8333
187.3117,45.6135
187.2156,45.4073
187.0850,45.2209
187.0850,45.2209
186.9241,45.0600
186.7377,44.9294
186.7377,44.9294
186.5315,44.8333
186.5315,44.8333
186.3117,44.7744
186.3117,44.7744
186.3117,44.7744
186.3117,44.7744
186.3117,44.7744
186.0850,44.7545
186.0850,44.7545
185.8583,44.7744
185.8583,44.7744
185.6385,44.8333
185.6385,44.8333
185.4323,44.9294
185.4323,44.9294
185.2459,45.0600
185.0850,45.2209
184.9544,45.4073
184.9544,45.4073
184.8583,45.6135
184.8583,45.6135
184.7994,45.8333
184.7994,45.8333
184.7795,46.0600
142.5505,46.0600
142.5306,45.8333
142.4717,45.6135
142.3756,45.4073
142.2450,45.2209
142.2450,45.2209
142.0841,45.0600
141.8977,44.9294
141.8977,44.9294
141.6915,44.8333
141.6915,44.8333
141.4717,44.7744
141.4717,44.7744
141.4099,44.7690
141.3448,44.7435
141.3330,44.7331
140.5292,43.9293
140.5292,43.9293
140.5292,43.9293
140.5221,43.9222
140.5221,43.9222
140.3828,43.7829
140.3828,43.7829
140.3828,43.7829
140.2189,43.6734
140.2189,43.6734
140.1463,43.6433
140.0902,43.6200
140.0368,43.5979
140.0368,43.5979
140.0368,43.5979
139.9402,43.5787
139.8435,43.5595
139.8435,43.5595
130.5684,43.5595
130.5683,43.5595
130.5622,43.5595
130.3651,43.5595
130.3651,43.5595
130.1719,43.5979
130.1718,43.5979
129.9898,43.6734
129.9898,43.6734
129.8259,43.7829
129.8259,43.7829
123.9272,49.6816
123.8659,49.7151
123.7962,49.7101
123.7402,49.6682
123.7158,49.6027
123.7155,49.5939
123.7155,40.2087
124.3145,40.2087
124.3145,40.4513
124.3462,40.6918
124.4089,40.9261
124.5018,41.1502
124.5018,41.1502
124.6231,41.3603
124.6231,41.3603
124.6231,41.3603
124.7707,41.5527
124.7707,41.5527
124.9423,41.7243
124.9423,41.7243
125.1347,41.8719
125.3448,41.9932
125.5689,42.0861
125.8032,42.1488
125.9836,42.1726
126.0437,42.1805
126.0437,42.1805
126.2863,42.1805
126.3344,42.1742
126.5268,42.1488
126.7611,42.0861
126.9852,41.9932
127.1953,41.8719
127.3877,41.7243
127.5593,41.5527
127.7069,41.3603
127.8282,41.1502
127.9211,40.9261
127.9838,40.6918
128.0155,40.4513
128.0155,40.2087
128.0155,40.2087
199.3145,40.2087
199.3145,40.4513
199.3462,40.6918
199.4089,40.9261
199.5018,41.1502
199.5018,41.1502
199.6231,41.3603
199.6231,41.3603
199.6231,41.3603
199.7707,41.5527
199.7707,41.5527
199.9423,41.7243
199.9423,41.7243
200.1347,41.8719
200.3448,41.9932
200.5689,42.0861
200.8032,42.1488
200.9836,42.1726
201.0437,42.1805
201.0437,42.1805
201.2863,42.1805
201.3344,42.1742
201.5268,42.1488
201.7611,42.0861
201.9852,41.9932
202.1953,41.8719
202.3877,41.7243
202.5593,41.5527
202.7069,41.3603
202.8282,41.1502
202.9211,40.9261
202.9838,40.6918
203.0155,40.4513
203.0155,40.2087
202.9838,39.9682
202.9211,39.7339
202.8282,39.5098
202.7069,39.2997
202.5593,39.1073
202.5593,39.1073
202.3877,38.9357
202.3877,38.9357
202.1953,38.7881
202.1953,38.7881
202.1953,38.7881
201.9852,38.6668
201.9852,38.6668
201.7611,38.5739
201.5268,38.5112
201.2863,38.4795
201.2863,38.4795
201.0437,38.4795
201.0437,38.4795
200.8032,38.5112
200.5689,38.5739
200.3448,38.6668
200.3448,38.6668
200.1347,38.7881
199.9423,38.9357
199.9423,38.9357
199.7707,39.1073
199.7707,39.1073
199.6231,39.2997
199.5018,39.5098
199.5018,39.5098
199.4089,39.7339
199.3462,39.9682
199.3145,40.2087
128.0155,40.2087
127.9838,39.9682
127.9211,39.7339
127.8282,39.5098
127.7069,39.2997
127.5593,39.1073
127.5593,39.1073
127.3877,38.9357
127.3877,38.9357
127.1953,38.7881
127.1953,38.7881
127.1953,38.7881
126.9852,38.6668
126.9852,38.6668
126.7611,38.5739
126.5268,38.5112
126.2863,38.4795
126.2863,38.4795
126.0437,38.4795
126.0437,38.4795
125.8032,38.5112
125.5689,38.5739
125.3448,38.6668
125.3448,38.6668
125.1347,38.7881
124.9423,38.9357
124.9423,38.9357
124.7707,39.1073
124.7707,39.1073
124.6231,39.2997
124.5018,39.5098
124.5018,39.5098
124.4089,39.7339
124.3462,39.9682
124.3145,40.2087
123.7155,40.2087
123.7155,38.0045
123.7352,37.9375
123.7880,37.8917
123.8395,37.8805
203.4905,37.8805
Z" /> 
<path style="fill:none; 
stroke:#000000; stroke-width:0.0500; stroke-opacity:1; 
stroke-linecap:round; stroke-linejoin:round;fill:none"
d="M 122.6650,36.8300
204.6650,36.8300
204.6650,86.8300
122.6650,86.8300
Z" /> 
</g> 
</svg>
