%TF.GenerationSoftware,KiCad,Pcbnew,8.0.5*%
%TF.CreationDate,2025-02-06T11:19:09+08:00*%
%TF.ProjectId,arduino_solar_bikelight_2,61726475-696e-46f5-9f73-6f6c61725f62,rev?*%
%TF.SameCoordinates,Original*%
%TF.FileFunction,Copper,L1,Top*%
%TF.FilePolarity,Positive*%
%FSLAX46Y46*%
G04 Gerber Fmt 4.6, Leading zero omitted, Abs format (unit mm)*
G04 Created by KiCad (PCBNEW 8.0.5) date 2025-02-06 11:19:09*
%MOMM*%
%LPD*%
G01*
G04 APERTURE LIST*
%TA.AperFunction,ComponentPad*%
%ADD10C,1.600000*%
%TD*%
%TA.AperFunction,ComponentPad*%
%ADD11O,1.600000X1.600000*%
%TD*%
%TA.AperFunction,ComponentPad*%
%ADD12R,1.800000X1.800000*%
%TD*%
%TA.AperFunction,ComponentPad*%
%ADD13C,1.800000*%
%TD*%
%TA.AperFunction,ComponentPad*%
%ADD14O,2.900000X1.700000*%
%TD*%
%TA.AperFunction,ComponentPad*%
%ADD15R,1.700000X1.700000*%
%TD*%
%TA.AperFunction,ComponentPad*%
%ADD16O,1.700000X1.700000*%
%TD*%
%TA.AperFunction,Conductor*%
%ADD17C,1.000000*%
%TD*%
%TA.AperFunction,Conductor*%
%ADD18C,0.400000*%
%TD*%
%TA.AperFunction,Profile*%
%ADD19C,0.050000*%
%TD*%
G04 APERTURE END LIST*
D10*
%TO.P,R9,1*%
%TO.N,/CHARGING_LED_IN+*%
X168745000Y-67445000D03*
D11*
%TO.P,R9,2*%
%TO.N,Net-(D9-A)*%
X158585000Y-67445000D03*
%TD*%
D12*
%TO.P,D5,1,K*%
%TO.N,-BATT*%
X149855000Y-51010000D03*
D13*
%TO.P,D5,2,A*%
%TO.N,Net-(D5-A)*%
X147315000Y-51010000D03*
%TD*%
D12*
%TO.P,D8,1,K*%
%TO.N,-BATT*%
X179855000Y-76010000D03*
D13*
%TO.P,D8,2,A*%
%TO.N,Net-(D8-A)*%
X177315000Y-76010000D03*
%TD*%
D10*
%TO.P,R4,1*%
%TO.N,/LOW_LED_IN+*%
X196245000Y-71060000D03*
D11*
%TO.P,R4,2*%
%TO.N,Net-(D4-A)*%
X186085000Y-71060000D03*
%TD*%
D12*
%TO.P,D1,1,K*%
%TO.N,-BATT*%
X137355000Y-51010000D03*
D13*
%TO.P,D1,2,A*%
%TO.N,Net-(D1-A)*%
X134815000Y-51010000D03*
%TD*%
D10*
%TO.P,R7,1*%
%TO.N,/HIGH_LED_IN+*%
X153745000Y-66395000D03*
D11*
%TO.P,R7,2*%
%TO.N,Net-(D7-A)*%
X143585000Y-66395000D03*
%TD*%
D12*
%TO.P,D9,1,K*%
%TO.N,-BATT*%
X164855000Y-72395000D03*
D13*
%TO.P,D9,2,A*%
%TO.N,Net-(D9-A)*%
X162315000Y-72395000D03*
%TD*%
D12*
%TO.P,D2,1,K*%
%TO.N,-BATT*%
X192355000Y-51010000D03*
D13*
%TO.P,D2,2,A*%
%TO.N,Net-(D2-A)*%
X189815000Y-51010000D03*
%TD*%
D10*
%TO.P,R1,1*%
%TO.N,/LOW_LED_IN+*%
X141245000Y-46060000D03*
D11*
%TO.P,R1,2*%
%TO.N,Net-(D1-A)*%
X131085000Y-46060000D03*
%TD*%
D12*
%TO.P,D3,1,K*%
%TO.N,-BATT*%
X137355000Y-76010000D03*
D13*
%TO.P,D3,2,A*%
%TO.N,Net-(D3-A)*%
X134815000Y-76010000D03*
%TD*%
D12*
%TO.P,D7,1,K*%
%TO.N,-BATT*%
X149855000Y-76010000D03*
D13*
%TO.P,D7,2,A*%
%TO.N,Net-(D7-A)*%
X147315000Y-76010000D03*
%TD*%
D10*
%TO.P,R3,1*%
%TO.N,/LOW_LED_IN+*%
X141245000Y-71060000D03*
D11*
%TO.P,R3,2*%
%TO.N,Net-(D3-A)*%
X131085000Y-71060000D03*
%TD*%
D14*
%TO.P,SW1,1,1*%
%TO.N,/BUTTON_PIN*%
X157415000Y-50395000D03*
X169915000Y-50395000D03*
%TO.P,SW1,2,2*%
%TO.N,-BATT*%
X157415000Y-55395000D03*
X169915000Y-55395000D03*
%TD*%
D10*
%TO.P,R8,1*%
%TO.N,/HIGH_LED_IN+*%
X183745000Y-66395000D03*
D11*
%TO.P,R8,2*%
%TO.N,Net-(D8-A)*%
X173585000Y-66395000D03*
%TD*%
D10*
%TO.P,R2,1*%
%TO.N,/LOW_LED_IN+*%
X196245000Y-46060000D03*
D11*
%TO.P,R2,2*%
%TO.N,Net-(D2-A)*%
X186085000Y-46060000D03*
%TD*%
D12*
%TO.P,D6,1,K*%
%TO.N,-BATT*%
X179855000Y-51010000D03*
D13*
%TO.P,D6,2,A*%
%TO.N,Net-(D6-A)*%
X177315000Y-51010000D03*
%TD*%
D10*
%TO.P,R5,1*%
%TO.N,/HIGH_LED_IN+*%
X153745000Y-58395000D03*
D11*
%TO.P,R5,2*%
%TO.N,Net-(D5-A)*%
X143585000Y-58395000D03*
%TD*%
D12*
%TO.P,D4,1,K*%
%TO.N,-BATT*%
X192355000Y-76010000D03*
D13*
%TO.P,D4,2,A*%
%TO.N,Net-(D4-A)*%
X189815000Y-76010000D03*
%TD*%
D10*
%TO.P,R6,1*%
%TO.N,/HIGH_LED_IN+*%
X183745000Y-58395000D03*
D11*
%TO.P,R6,2*%
%TO.N,Net-(D6-A)*%
X173585000Y-58395000D03*
%TD*%
D15*
%TO.P,J1,1,Pin_1*%
%TO.N,/LOW_LED_IN+*%
X198140000Y-56780000D03*
D16*
%TO.P,J1,2,Pin_2*%
%TO.N,/HIGH_LED_IN+*%
X198140000Y-59320000D03*
%TO.P,J1,3,Pin_3*%
%TO.N,/CHARGING_LED_IN+*%
X198140000Y-61860000D03*
%TO.P,J1,4,Pin_4*%
%TO.N,/BUTTON_PIN*%
X198140000Y-64400000D03*
%TO.P,J1,5,Pin_5*%
%TO.N,-BATT*%
X198140000Y-66940000D03*
%TD*%
D15*
%TO.P,J2,1,Pin_1*%
%TO.N,/LOW_LED_IN+*%
X127640000Y-56780000D03*
D16*
%TO.P,J2,2,Pin_2*%
%TO.N,/HIGH_LED_IN+*%
X127640000Y-59320000D03*
%TO.P,J2,3,Pin_3*%
%TO.N,/CHARGING_LED_IN+*%
X127640000Y-61860000D03*
%TO.P,J2,4,Pin_4*%
%TO.N,/BUTTON_PIN*%
X127640000Y-64400000D03*
%TO.P,J2,5,Pin_5*%
%TO.N,-BATT*%
X127640000Y-66940000D03*
%TD*%
D17*
%TO.N,-BATT*%
X171013679Y-65945000D02*
X172963679Y-67895000D01*
X157963679Y-65945000D02*
X171013679Y-65945000D01*
X127640000Y-66940000D02*
X128595000Y-67895000D01*
X172963679Y-67895000D02*
X197185000Y-67895000D01*
X128595000Y-67895000D02*
X156013679Y-67895000D01*
X197185000Y-67895000D02*
X198140000Y-66940000D01*
X156013679Y-67895000D02*
X157963679Y-65945000D01*
%TO.N,/LOW_LED_IN+*%
X159050000Y-56945000D02*
X154416321Y-56945000D01*
X154251321Y-56780000D02*
X127640000Y-56780000D01*
X160250000Y-55745000D02*
X159050000Y-56945000D01*
X198140000Y-56780000D02*
X171322031Y-56780000D01*
X171322031Y-56780000D02*
X170772031Y-57330000D01*
X166165000Y-57330000D02*
X164580000Y-55745000D01*
X164580000Y-55745000D02*
X160250000Y-55745000D01*
X154416321Y-56945000D02*
X154251321Y-56780000D01*
X170772031Y-57330000D02*
X166165000Y-57330000D01*
D18*
%TO.N,/BUTTON_PIN*%
X198140000Y-64400000D02*
X127640000Y-64400000D01*
D17*
%TO.N,/HIGH_LED_IN+*%
X197290000Y-60170000D02*
X128490000Y-60170000D01*
X128490000Y-60170000D02*
X127640000Y-59320000D01*
X198140000Y-59320000D02*
X197290000Y-60170000D01*
D18*
%TO.N,/CHARGING_LED_IN+*%
X127640000Y-61860000D02*
X198140000Y-61860000D01*
%TD*%
%TA.AperFunction,Conductor*%
%TO.N,-BATT*%
G36*
X203557539Y-37900185D02*
G01*
X203603294Y-37952989D01*
X203614500Y-38004500D01*
X203614500Y-85655500D01*
X203594815Y-85722539D01*
X203542011Y-85768294D01*
X203490500Y-85779500D01*
X123839500Y-85779500D01*
X123772461Y-85759815D01*
X123726706Y-85707011D01*
X123715500Y-85655500D01*
X123715500Y-83208711D01*
X124314500Y-83208711D01*
X124314500Y-83451288D01*
X124346161Y-83691785D01*
X124408947Y-83926104D01*
X124501773Y-84150205D01*
X124501776Y-84150212D01*
X124623064Y-84360289D01*
X124623066Y-84360292D01*
X124623067Y-84360293D01*
X124770733Y-84552736D01*
X124770739Y-84552743D01*
X124942256Y-84724260D01*
X124942262Y-84724265D01*
X125134711Y-84871936D01*
X125344788Y-84993224D01*
X125568900Y-85086054D01*
X125803211Y-85148838D01*
X125983586Y-85172584D01*
X126043711Y-85180500D01*
X126043712Y-85180500D01*
X126286289Y-85180500D01*
X126334388Y-85174167D01*
X126526789Y-85148838D01*
X126761100Y-85086054D01*
X126985212Y-84993224D01*
X127195289Y-84871936D01*
X127387738Y-84724265D01*
X127559265Y-84552738D01*
X127706936Y-84360289D01*
X127828224Y-84150212D01*
X127921054Y-83926100D01*
X127983838Y-83691789D01*
X128015500Y-83451288D01*
X128015500Y-83208712D01*
X128015500Y-83208711D01*
X199314500Y-83208711D01*
X199314500Y-83451288D01*
X199346161Y-83691785D01*
X199408947Y-83926104D01*
X199501773Y-84150205D01*
X199501776Y-84150212D01*
X199623064Y-84360289D01*
X199623066Y-84360292D01*
X199623067Y-84360293D01*
X199770733Y-84552736D01*
X199770739Y-84552743D01*
X199942256Y-84724260D01*
X199942262Y-84724265D01*
X200134711Y-84871936D01*
X200344788Y-84993224D01*
X200568900Y-85086054D01*
X200803211Y-85148838D01*
X200983586Y-85172584D01*
X201043711Y-85180500D01*
X201043712Y-85180500D01*
X201286289Y-85180500D01*
X201334388Y-85174167D01*
X201526789Y-85148838D01*
X201761100Y-85086054D01*
X201985212Y-84993224D01*
X202195289Y-84871936D01*
X202387738Y-84724265D01*
X202559265Y-84552738D01*
X202706936Y-84360289D01*
X202828224Y-84150212D01*
X202921054Y-83926100D01*
X202983838Y-83691789D01*
X203015500Y-83451288D01*
X203015500Y-83208712D01*
X202983838Y-82968211D01*
X202921054Y-82733900D01*
X202828224Y-82509788D01*
X202706936Y-82299711D01*
X202559265Y-82107262D01*
X202559260Y-82107256D01*
X202387743Y-81935739D01*
X202387736Y-81935733D01*
X202195293Y-81788067D01*
X202195292Y-81788066D01*
X202195289Y-81788064D01*
X201985212Y-81666776D01*
X201985205Y-81666773D01*
X201761104Y-81573947D01*
X201526785Y-81511161D01*
X201286289Y-81479500D01*
X201286288Y-81479500D01*
X201043712Y-81479500D01*
X201043711Y-81479500D01*
X200803214Y-81511161D01*
X200568895Y-81573947D01*
X200344794Y-81666773D01*
X200344785Y-81666777D01*
X200134706Y-81788067D01*
X199942263Y-81935733D01*
X199942256Y-81935739D01*
X199770739Y-82107256D01*
X199770733Y-82107263D01*
X199623067Y-82299706D01*
X199501777Y-82509785D01*
X199501773Y-82509794D01*
X199408947Y-82733895D01*
X199346161Y-82968214D01*
X199314500Y-83208711D01*
X128015500Y-83208711D01*
X127983838Y-82968211D01*
X127921054Y-82733900D01*
X127828224Y-82509788D01*
X127706936Y-82299711D01*
X127559265Y-82107262D01*
X127559260Y-82107256D01*
X127387743Y-81935739D01*
X127387736Y-81935733D01*
X127195293Y-81788067D01*
X127195292Y-81788066D01*
X127195289Y-81788064D01*
X126985212Y-81666776D01*
X126985205Y-81666773D01*
X126761104Y-81573947D01*
X126526785Y-81511161D01*
X126286289Y-81479500D01*
X126286288Y-81479500D01*
X126043712Y-81479500D01*
X126043711Y-81479500D01*
X125803214Y-81511161D01*
X125568895Y-81573947D01*
X125344794Y-81666773D01*
X125344785Y-81666777D01*
X125134706Y-81788067D01*
X124942263Y-81935733D01*
X124942256Y-81935739D01*
X124770739Y-82107256D01*
X124770733Y-82107263D01*
X124623067Y-82299706D01*
X124501777Y-82509785D01*
X124501773Y-82509794D01*
X124408947Y-82733895D01*
X124346161Y-82968214D01*
X124314500Y-83208711D01*
X123715500Y-83208711D01*
X123715500Y-76009993D01*
X133409700Y-76009993D01*
X133409700Y-76010006D01*
X133428864Y-76241297D01*
X133428866Y-76241308D01*
X133485842Y-76466300D01*
X133579075Y-76678848D01*
X133706016Y-76873147D01*
X133706019Y-76873151D01*
X133706021Y-76873153D01*
X133863216Y-77043913D01*
X133863219Y-77043915D01*
X133863222Y-77043918D01*
X134046365Y-77186464D01*
X134046371Y-77186468D01*
X134046374Y-77186470D01*
X134250497Y-77296936D01*
X134364487Y-77336068D01*
X134470015Y-77372297D01*
X134470017Y-77372297D01*
X134470019Y-77372298D01*
X134698951Y-77410500D01*
X134698952Y-77410500D01*
X134931048Y-77410500D01*
X134931049Y-77410500D01*
X135159981Y-77372298D01*
X135379503Y-77296936D01*
X135583626Y-77186470D01*
X135766784Y-77043913D01*
X135775511Y-77034432D01*
X135835394Y-76998441D01*
X135905232Y-77000538D01*
X135962850Y-77040060D01*
X135982924Y-77075080D01*
X136011645Y-77152086D01*
X136011649Y-77152093D01*
X136097809Y-77267187D01*
X136097812Y-77267190D01*
X136212906Y-77353350D01*
X136212913Y-77353354D01*
X136347620Y-77403596D01*
X136347627Y-77403598D01*
X136407155Y-77409999D01*
X136407172Y-77410000D01*
X137105000Y-77410000D01*
X137105000Y-76385277D01*
X137181306Y-76429333D01*
X137295756Y-76460000D01*
X137414244Y-76460000D01*
X137528694Y-76429333D01*
X137605000Y-76385277D01*
X137605000Y-77410000D01*
X138302828Y-77410000D01*
X138302844Y-77409999D01*
X138362372Y-77403598D01*
X138362379Y-77403596D01*
X138497086Y-77353354D01*
X138497093Y-77353350D01*
X138612187Y-77267190D01*
X138612190Y-77267187D01*
X138698350Y-77152093D01*
X138698354Y-77152086D01*
X138748596Y-77017379D01*
X138748598Y-77017372D01*
X138754999Y-76957844D01*
X138755000Y-76957827D01*
X138755000Y-76260000D01*
X137730278Y-76260000D01*
X137774333Y-76183694D01*
X137805000Y-76069244D01*
X137805000Y-76009993D01*
X145909700Y-76009993D01*
X145909700Y-76010006D01*
X145928864Y-76241297D01*
X145928866Y-76241308D01*
X145985842Y-76466300D01*
X146079075Y-76678848D01*
X146206016Y-76873147D01*
X146206019Y-76873151D01*
X146206021Y-76873153D01*
X146363216Y-77043913D01*
X146363219Y-77043915D01*
X146363222Y-77043918D01*
X146546365Y-77186464D01*
X146546371Y-77186468D01*
X146546374Y-77186470D01*
X146750497Y-77296936D01*
X146864487Y-77336068D01*
X146970015Y-77372297D01*
X146970017Y-77372297D01*
X146970019Y-77372298D01*
X147198951Y-77410500D01*
X147198952Y-77410500D01*
X147431048Y-77410500D01*
X147431049Y-77410500D01*
X147659981Y-77372298D01*
X147879503Y-77296936D01*
X148083626Y-77186470D01*
X148266784Y-77043913D01*
X148275511Y-77034432D01*
X148335394Y-76998441D01*
X148405232Y-77000538D01*
X148462850Y-77040060D01*
X148482924Y-77075080D01*
X148511645Y-77152086D01*
X148511649Y-77152093D01*
X148597809Y-77267187D01*
X148597812Y-77267190D01*
X148712906Y-77353350D01*
X148712913Y-77353354D01*
X148847620Y-77403596D01*
X148847627Y-77403598D01*
X148907155Y-77409999D01*
X148907172Y-77410000D01*
X149605000Y-77410000D01*
X149605000Y-76385277D01*
X149681306Y-76429333D01*
X149795756Y-76460000D01*
X149914244Y-76460000D01*
X150028694Y-76429333D01*
X150105000Y-76385277D01*
X150105000Y-77410000D01*
X150802828Y-77410000D01*
X150802844Y-77409999D01*
X150862372Y-77403598D01*
X150862379Y-77403596D01*
X150997086Y-77353354D01*
X150997093Y-77353350D01*
X151112187Y-77267190D01*
X151112190Y-77267187D01*
X151198350Y-77152093D01*
X151198354Y-77152086D01*
X151248596Y-77017379D01*
X151248598Y-77017372D01*
X151254999Y-76957844D01*
X151255000Y-76957827D01*
X151255000Y-76260000D01*
X150230278Y-76260000D01*
X150274333Y-76183694D01*
X150305000Y-76069244D01*
X150305000Y-76009993D01*
X175909700Y-76009993D01*
X175909700Y-76010006D01*
X175928864Y-76241297D01*
X175928866Y-76241308D01*
X175985842Y-76466300D01*
X176079075Y-76678848D01*
X176206016Y-76873147D01*
X176206019Y-76873151D01*
X176206021Y-76873153D01*
X176363216Y-77043913D01*
X176363219Y-77043915D01*
X176363222Y-77043918D01*
X176546365Y-77186464D01*
X176546371Y-77186468D01*
X176546374Y-77186470D01*
X176750497Y-77296936D01*
X176864487Y-77336068D01*
X176970015Y-77372297D01*
X176970017Y-77372297D01*
X176970019Y-77372298D01*
X177198951Y-77410500D01*
X177198952Y-77410500D01*
X177431048Y-77410500D01*
X177431049Y-77410500D01*
X177659981Y-77372298D01*
X177879503Y-77296936D01*
X178083626Y-77186470D01*
X178266784Y-77043913D01*
X178275511Y-77034432D01*
X178335394Y-76998441D01*
X178405232Y-77000538D01*
X178462850Y-77040060D01*
X178482924Y-77075080D01*
X178511645Y-77152086D01*
X178511649Y-77152093D01*
X178597809Y-77267187D01*
X178597812Y-77267190D01*
X178712906Y-77353350D01*
X178712913Y-77353354D01*
X178847620Y-77403596D01*
X178847627Y-77403598D01*
X178907155Y-77409999D01*
X178907172Y-77410000D01*
X179605000Y-77410000D01*
X179605000Y-76385277D01*
X179681306Y-76429333D01*
X179795756Y-76460000D01*
X179914244Y-76460000D01*
X180028694Y-76429333D01*
X180105000Y-76385277D01*
X180105000Y-77410000D01*
X180802828Y-77410000D01*
X180802844Y-77409999D01*
X180862372Y-77403598D01*
X180862379Y-77403596D01*
X180997086Y-77353354D01*
X180997093Y-77353350D01*
X181112187Y-77267190D01*
X181112190Y-77267187D01*
X181198350Y-77152093D01*
X181198354Y-77152086D01*
X181248596Y-77017379D01*
X181248598Y-77017372D01*
X181254999Y-76957844D01*
X181255000Y-76957827D01*
X181255000Y-76260000D01*
X180230278Y-76260000D01*
X180274333Y-76183694D01*
X180305000Y-76069244D01*
X180305000Y-76009993D01*
X188409700Y-76009993D01*
X188409700Y-76010006D01*
X188428864Y-76241297D01*
X188428866Y-76241308D01*
X188485842Y-76466300D01*
X188579075Y-76678848D01*
X188706016Y-76873147D01*
X188706019Y-76873151D01*
X188706021Y-76873153D01*
X188863216Y-77043913D01*
X188863219Y-77043915D01*
X188863222Y-77043918D01*
X189046365Y-77186464D01*
X189046371Y-77186468D01*
X189046374Y-77186470D01*
X189250497Y-77296936D01*
X189364487Y-77336068D01*
X189470015Y-77372297D01*
X189470017Y-77372297D01*
X189470019Y-77372298D01*
X189698951Y-77410500D01*
X189698952Y-77410500D01*
X189931048Y-77410500D01*
X189931049Y-77410500D01*
X190159981Y-77372298D01*
X190379503Y-77296936D01*
X190583626Y-77186470D01*
X190766784Y-77043913D01*
X190775511Y-77034432D01*
X190835394Y-76998441D01*
X190905232Y-77000538D01*
X190962850Y-77040060D01*
X190982924Y-77075080D01*
X191011645Y-77152086D01*
X191011649Y-77152093D01*
X191097809Y-77267187D01*
X191097812Y-77267190D01*
X191212906Y-77353350D01*
X191212913Y-77353354D01*
X191347620Y-77403596D01*
X191347627Y-77403598D01*
X191407155Y-77409999D01*
X191407172Y-77410000D01*
X192105000Y-77410000D01*
X192105000Y-76385277D01*
X192181306Y-76429333D01*
X192295756Y-76460000D01*
X192414244Y-76460000D01*
X192528694Y-76429333D01*
X192605000Y-76385277D01*
X192605000Y-77410000D01*
X193302828Y-77410000D01*
X193302844Y-77409999D01*
X193362372Y-77403598D01*
X193362379Y-77403596D01*
X193497086Y-77353354D01*
X193497093Y-77353350D01*
X193612187Y-77267190D01*
X193612190Y-77267187D01*
X193698350Y-77152093D01*
X193698354Y-77152086D01*
X193748596Y-77017379D01*
X193748598Y-77017372D01*
X193754999Y-76957844D01*
X193755000Y-76957827D01*
X193755000Y-76260000D01*
X192730278Y-76260000D01*
X192774333Y-76183694D01*
X192805000Y-76069244D01*
X192805000Y-75950756D01*
X192774333Y-75836306D01*
X192730278Y-75760000D01*
X193755000Y-75760000D01*
X193755000Y-75062172D01*
X193754999Y-75062155D01*
X193748598Y-75002627D01*
X193748596Y-75002620D01*
X193698354Y-74867913D01*
X193698350Y-74867906D01*
X193612190Y-74752812D01*
X193612187Y-74752809D01*
X193497093Y-74666649D01*
X193497086Y-74666645D01*
X193362379Y-74616403D01*
X193362372Y-74616401D01*
X193302844Y-74610000D01*
X192605000Y-74610000D01*
X192605000Y-75634722D01*
X192528694Y-75590667D01*
X192414244Y-75560000D01*
X192295756Y-75560000D01*
X192181306Y-75590667D01*
X192105000Y-75634722D01*
X192105000Y-74610000D01*
X191407155Y-74610000D01*
X191347627Y-74616401D01*
X191347620Y-74616403D01*
X191212913Y-74666645D01*
X191212906Y-74666649D01*
X191097812Y-74752809D01*
X191097809Y-74752812D01*
X191011649Y-74867906D01*
X191011646Y-74867911D01*
X190982924Y-74944920D01*
X190941052Y-75000853D01*
X190875588Y-75025270D01*
X190807315Y-75010418D01*
X190775514Y-74985571D01*
X190766784Y-74976087D01*
X190766779Y-74976083D01*
X190766777Y-74976081D01*
X190583634Y-74833535D01*
X190583628Y-74833531D01*
X190379504Y-74723064D01*
X190379495Y-74723061D01*
X190159984Y-74647702D01*
X189972404Y-74616401D01*
X189931049Y-74609500D01*
X189698951Y-74609500D01*
X189657596Y-74616401D01*
X189470015Y-74647702D01*
X189250504Y-74723061D01*
X189250495Y-74723064D01*
X189046371Y-74833531D01*
X189046365Y-74833535D01*
X188863222Y-74976081D01*
X188863219Y-74976084D01*
X188863216Y-74976086D01*
X188863216Y-74976087D01*
X188838791Y-75002620D01*
X188706016Y-75146852D01*
X188579075Y-75341151D01*
X188485842Y-75553699D01*
X188428866Y-75778691D01*
X188428864Y-75778702D01*
X188409700Y-76009993D01*
X180305000Y-76009993D01*
X180305000Y-75950756D01*
X180274333Y-75836306D01*
X180230278Y-75760000D01*
X181255000Y-75760000D01*
X181255000Y-75062172D01*
X181254999Y-75062155D01*
X181248598Y-75002627D01*
X181248596Y-75002620D01*
X181198354Y-74867913D01*
X181198350Y-74867906D01*
X181112190Y-74752812D01*
X181112187Y-74752809D01*
X180997093Y-74666649D01*
X180997086Y-74666645D01*
X180862379Y-74616403D01*
X180862372Y-74616401D01*
X180802844Y-74610000D01*
X180105000Y-74610000D01*
X180105000Y-75634722D01*
X180028694Y-75590667D01*
X179914244Y-75560000D01*
X179795756Y-75560000D01*
X179681306Y-75590667D01*
X179605000Y-75634722D01*
X179605000Y-74610000D01*
X178907155Y-74610000D01*
X178847627Y-74616401D01*
X178847620Y-74616403D01*
X178712913Y-74666645D01*
X178712906Y-74666649D01*
X178597812Y-74752809D01*
X178597809Y-74752812D01*
X178511649Y-74867906D01*
X178511646Y-74867911D01*
X178482924Y-74944920D01*
X178441052Y-75000853D01*
X178375588Y-75025270D01*
X178307315Y-75010418D01*
X178275514Y-74985571D01*
X178266784Y-74976087D01*
X178266779Y-74976083D01*
X178266777Y-74976081D01*
X178083634Y-74833535D01*
X178083628Y-74833531D01*
X177879504Y-74723064D01*
X177879495Y-74723061D01*
X177659984Y-74647702D01*
X177472404Y-74616401D01*
X177431049Y-74609500D01*
X177198951Y-74609500D01*
X177157596Y-74616401D01*
X176970015Y-74647702D01*
X176750504Y-74723061D01*
X176750495Y-74723064D01*
X176546371Y-74833531D01*
X176546365Y-74833535D01*
X176363222Y-74976081D01*
X176363219Y-74976084D01*
X176363216Y-74976086D01*
X176363216Y-74976087D01*
X176338791Y-75002620D01*
X176206016Y-75146852D01*
X176079075Y-75341151D01*
X175985842Y-75553699D01*
X175928866Y-75778691D01*
X175928864Y-75778702D01*
X175909700Y-76009993D01*
X150305000Y-76009993D01*
X150305000Y-75950756D01*
X150274333Y-75836306D01*
X150230278Y-75760000D01*
X151255000Y-75760000D01*
X151255000Y-75062172D01*
X151254999Y-75062155D01*
X151248598Y-75002627D01*
X151248596Y-75002620D01*
X151198354Y-74867913D01*
X151198350Y-74867906D01*
X151112190Y-74752812D01*
X151112187Y-74752809D01*
X150997093Y-74666649D01*
X150997086Y-74666645D01*
X150862379Y-74616403D01*
X150862372Y-74616401D01*
X150802844Y-74610000D01*
X150105000Y-74610000D01*
X150105000Y-75634722D01*
X150028694Y-75590667D01*
X149914244Y-75560000D01*
X149795756Y-75560000D01*
X149681306Y-75590667D01*
X149605000Y-75634722D01*
X149605000Y-74610000D01*
X148907155Y-74610000D01*
X148847627Y-74616401D01*
X148847620Y-74616403D01*
X148712913Y-74666645D01*
X148712906Y-74666649D01*
X148597812Y-74752809D01*
X148597809Y-74752812D01*
X148511649Y-74867906D01*
X148511646Y-74867911D01*
X148482924Y-74944920D01*
X148441052Y-75000853D01*
X148375588Y-75025270D01*
X148307315Y-75010418D01*
X148275514Y-74985571D01*
X148266784Y-74976087D01*
X148266779Y-74976083D01*
X148266777Y-74976081D01*
X148083634Y-74833535D01*
X148083628Y-74833531D01*
X147879504Y-74723064D01*
X147879495Y-74723061D01*
X147659984Y-74647702D01*
X147472404Y-74616401D01*
X147431049Y-74609500D01*
X147198951Y-74609500D01*
X147157596Y-74616401D01*
X146970015Y-74647702D01*
X146750504Y-74723061D01*
X146750495Y-74723064D01*
X146546371Y-74833531D01*
X146546365Y-74833535D01*
X146363222Y-74976081D01*
X146363219Y-74976084D01*
X146363216Y-74976086D01*
X146363216Y-74976087D01*
X146338791Y-75002620D01*
X146206016Y-75146852D01*
X146079075Y-75341151D01*
X145985842Y-75553699D01*
X145928866Y-75778691D01*
X145928864Y-75778702D01*
X145909700Y-76009993D01*
X137805000Y-76009993D01*
X137805000Y-75950756D01*
X137774333Y-75836306D01*
X137730278Y-75760000D01*
X138755000Y-75760000D01*
X138755000Y-75062172D01*
X138754999Y-75062155D01*
X138748598Y-75002627D01*
X138748596Y-75002620D01*
X138698354Y-74867913D01*
X138698350Y-74867906D01*
X138612190Y-74752812D01*
X138612187Y-74752809D01*
X138497093Y-74666649D01*
X138497086Y-74666645D01*
X138362379Y-74616403D01*
X138362372Y-74616401D01*
X138302844Y-74610000D01*
X137605000Y-74610000D01*
X137605000Y-75634722D01*
X137528694Y-75590667D01*
X137414244Y-75560000D01*
X137295756Y-75560000D01*
X137181306Y-75590667D01*
X137105000Y-75634722D01*
X137105000Y-74610000D01*
X136407155Y-74610000D01*
X136347627Y-74616401D01*
X136347620Y-74616403D01*
X136212913Y-74666645D01*
X136212906Y-74666649D01*
X136097812Y-74752809D01*
X136097809Y-74752812D01*
X136011649Y-74867906D01*
X136011646Y-74867911D01*
X135982924Y-74944920D01*
X135941052Y-75000853D01*
X135875588Y-75025270D01*
X135807315Y-75010418D01*
X135775514Y-74985571D01*
X135766784Y-74976087D01*
X135766779Y-74976083D01*
X135766777Y-74976081D01*
X135583634Y-74833535D01*
X135583628Y-74833531D01*
X135379504Y-74723064D01*
X135379495Y-74723061D01*
X135159984Y-74647702D01*
X134972404Y-74616401D01*
X134931049Y-74609500D01*
X134698951Y-74609500D01*
X134657596Y-74616401D01*
X134470015Y-74647702D01*
X134250504Y-74723061D01*
X134250495Y-74723064D01*
X134046371Y-74833531D01*
X134046365Y-74833535D01*
X133863222Y-74976081D01*
X133863219Y-74976084D01*
X133863216Y-74976086D01*
X133863216Y-74976087D01*
X133838791Y-75002620D01*
X133706016Y-75146852D01*
X133579075Y-75341151D01*
X133485842Y-75553699D01*
X133428866Y-75778691D01*
X133428864Y-75778702D01*
X133409700Y-76009993D01*
X123715500Y-76009993D01*
X123715500Y-72394993D01*
X160909700Y-72394993D01*
X160909700Y-72395006D01*
X160928864Y-72626297D01*
X160928866Y-72626308D01*
X160985842Y-72851300D01*
X161079075Y-73063848D01*
X161206016Y-73258147D01*
X161206019Y-73258151D01*
X161206021Y-73258153D01*
X161363216Y-73428913D01*
X161363219Y-73428915D01*
X161363222Y-73428918D01*
X161546365Y-73571464D01*
X161546371Y-73571468D01*
X161546374Y-73571470D01*
X161750497Y-73681936D01*
X161864487Y-73721068D01*
X161970015Y-73757297D01*
X161970017Y-73757297D01*
X161970019Y-73757298D01*
X162198951Y-73795500D01*
X162198952Y-73795500D01*
X162431048Y-73795500D01*
X162431049Y-73795500D01*
X162659981Y-73757298D01*
X162879503Y-73681936D01*
X163083626Y-73571470D01*
X163266784Y-73428913D01*
X163275511Y-73419432D01*
X163335394Y-73383441D01*
X163405232Y-73385538D01*
X163462850Y-73425060D01*
X163482924Y-73460080D01*
X163511645Y-73537086D01*
X163511649Y-73537093D01*
X163597809Y-73652187D01*
X163597812Y-73652190D01*
X163712906Y-73738350D01*
X163712913Y-73738354D01*
X163847620Y-73788596D01*
X163847627Y-73788598D01*
X163907155Y-73794999D01*
X163907172Y-73795000D01*
X164605000Y-73795000D01*
X164605000Y-72770277D01*
X164681306Y-72814333D01*
X164795756Y-72845000D01*
X164914244Y-72845000D01*
X165028694Y-72814333D01*
X165105000Y-72770277D01*
X165105000Y-73795000D01*
X165802828Y-73795000D01*
X165802844Y-73794999D01*
X165862372Y-73788598D01*
X165862379Y-73788596D01*
X165997086Y-73738354D01*
X165997093Y-73738350D01*
X166112187Y-73652190D01*
X166112190Y-73652187D01*
X166198350Y-73537093D01*
X166198354Y-73537086D01*
X166248596Y-73402379D01*
X166248598Y-73402372D01*
X166254999Y-73342844D01*
X166255000Y-73342827D01*
X166255000Y-72645000D01*
X165230278Y-72645000D01*
X165274333Y-72568694D01*
X165305000Y-72454244D01*
X165305000Y-72335756D01*
X165274333Y-72221306D01*
X165230278Y-72145000D01*
X166255000Y-72145000D01*
X166255000Y-71447172D01*
X166254999Y-71447155D01*
X166248598Y-71387627D01*
X166248596Y-71387620D01*
X166198354Y-71252913D01*
X166198350Y-71252906D01*
X166112190Y-71137812D01*
X166112187Y-71137809D01*
X166008246Y-71059998D01*
X184779532Y-71059998D01*
X184779532Y-71060001D01*
X184799364Y-71286686D01*
X184799366Y-71286697D01*
X184858258Y-71506488D01*
X184858261Y-71506497D01*
X184954431Y-71712732D01*
X184954432Y-71712734D01*
X185084954Y-71899141D01*
X185245858Y-72060045D01*
X185245861Y-72060047D01*
X185432266Y-72190568D01*
X185638504Y-72286739D01*
X185858308Y-72345635D01*
X186020230Y-72359801D01*
X186084998Y-72365468D01*
X186085000Y-72365468D01*
X186085002Y-72365468D01*
X186141673Y-72360509D01*
X186311692Y-72345635D01*
X186531496Y-72286739D01*
X186737734Y-72190568D01*
X186924139Y-72060047D01*
X187085047Y-71899139D01*
X187215568Y-71712734D01*
X187311739Y-71506496D01*
X187370635Y-71286692D01*
X187390468Y-71060000D01*
X187390468Y-71059998D01*
X194939532Y-71059998D01*
X194939532Y-71060001D01*
X194959364Y-71286686D01*
X194959366Y-71286697D01*
X195018258Y-71506488D01*
X195018261Y-71506497D01*
X195114431Y-71712732D01*
X195114432Y-71712734D01*
X195244954Y-71899141D01*
X195405858Y-72060045D01*
X195405861Y-72060047D01*
X195592266Y-72190568D01*
X195798504Y-72286739D01*
X196018308Y-72345635D01*
X196180230Y-72359801D01*
X196244998Y-72365468D01*
X196245000Y-72365468D01*
X196245002Y-72365468D01*
X196301673Y-72360509D01*
X196471692Y-72345635D01*
X196691496Y-72286739D01*
X196897734Y-72190568D01*
X197084139Y-72060047D01*
X197245047Y-71899139D01*
X197375568Y-71712734D01*
X197471739Y-71506496D01*
X197530635Y-71286692D01*
X197550468Y-71060000D01*
X197549737Y-71051649D01*
X197530635Y-70833313D01*
X197530635Y-70833308D01*
X197471739Y-70613504D01*
X197375568Y-70407266D01*
X197245047Y-70220861D01*
X197245045Y-70220858D01*
X197084141Y-70059954D01*
X196897734Y-69929432D01*
X196897732Y-69929431D01*
X196691497Y-69833261D01*
X196691488Y-69833258D01*
X196471697Y-69774366D01*
X196471693Y-69774365D01*
X196471692Y-69774365D01*
X196471691Y-69774364D01*
X196471686Y-69774364D01*
X196245002Y-69754532D01*
X196244998Y-69754532D01*
X196018313Y-69774364D01*
X196018302Y-69774366D01*
X195798511Y-69833258D01*
X195798502Y-69833261D01*
X195592267Y-69929431D01*
X195592265Y-69929432D01*
X195405858Y-70059954D01*
X195244954Y-70220858D01*
X195114432Y-70407265D01*
X195114431Y-70407267D01*
X195018261Y-70613502D01*
X195018258Y-70613511D01*
X194959366Y-70833302D01*
X194959364Y-70833313D01*
X194939532Y-71059998D01*
X187390468Y-71059998D01*
X187389737Y-71051649D01*
X187370635Y-70833313D01*
X187370635Y-70833308D01*
X187311739Y-70613504D01*
X187215568Y-70407266D01*
X187085047Y-70220861D01*
X187085045Y-70220858D01*
X186924141Y-70059954D01*
X186737734Y-69929432D01*
X186737732Y-69929431D01*
X186531497Y-69833261D01*
X186531488Y-69833258D01*
X186311697Y-69774366D01*
X186311693Y-69774365D01*
X186311692Y-69774365D01*
X186311691Y-69774364D01*
X186311686Y-69774364D01*
X186085002Y-69754532D01*
X186084998Y-69754532D01*
X185858313Y-69774364D01*
X185858302Y-69774366D01*
X185638511Y-69833258D01*
X185638502Y-69833261D01*
X185432267Y-69929431D01*
X185432265Y-69929432D01*
X185245858Y-70059954D01*
X185084954Y-70220858D01*
X184954432Y-70407265D01*
X184954431Y-70407267D01*
X184858261Y-70613502D01*
X184858258Y-70613511D01*
X184799366Y-70833302D01*
X184799364Y-70833313D01*
X184779532Y-71059998D01*
X166008246Y-71059998D01*
X165997093Y-71051649D01*
X165997086Y-71051645D01*
X165862379Y-71001403D01*
X165862372Y-71001401D01*
X165802844Y-70995000D01*
X165105000Y-70995000D01*
X165105000Y-72019722D01*
X165028694Y-71975667D01*
X164914244Y-71945000D01*
X164795756Y-71945000D01*
X164681306Y-71975667D01*
X164605000Y-72019722D01*
X164605000Y-70995000D01*
X163907155Y-70995000D01*
X163847627Y-71001401D01*
X163847620Y-71001403D01*
X163712913Y-71051645D01*
X163712906Y-71051649D01*
X163597812Y-71137809D01*
X163597809Y-71137812D01*
X163511649Y-71252906D01*
X163511646Y-71252911D01*
X163482924Y-71329920D01*
X163441052Y-71385853D01*
X163375588Y-71410270D01*
X163307315Y-71395418D01*
X163275514Y-71370571D01*
X163266784Y-71361087D01*
X163266779Y-71361083D01*
X163266777Y-71361081D01*
X163083634Y-71218535D01*
X163083628Y-71218531D01*
X162879504Y-71108064D01*
X162879495Y-71108061D01*
X162659984Y-71032702D01*
X162472404Y-71001401D01*
X162431049Y-70994500D01*
X162198951Y-70994500D01*
X162157596Y-71001401D01*
X161970015Y-71032702D01*
X161750504Y-71108061D01*
X161750495Y-71108064D01*
X161546371Y-71218531D01*
X161546365Y-71218535D01*
X161363222Y-71361081D01*
X161363219Y-71361084D01*
X161363216Y-71361086D01*
X161363216Y-71361087D01*
X161338791Y-71387620D01*
X161206016Y-71531852D01*
X161079075Y-71726151D01*
X160985842Y-71938699D01*
X160928866Y-72163691D01*
X160928864Y-72163702D01*
X160909700Y-72394993D01*
X123715500Y-72394993D01*
X123715500Y-71059998D01*
X129779532Y-71059998D01*
X129779532Y-71060001D01*
X129799364Y-71286686D01*
X129799366Y-71286697D01*
X129858258Y-71506488D01*
X129858261Y-71506497D01*
X129954431Y-71712732D01*
X129954432Y-71712734D01*
X130084954Y-71899141D01*
X130245858Y-72060045D01*
X130245861Y-72060047D01*
X130432266Y-72190568D01*
X130638504Y-72286739D01*
X130858308Y-72345635D01*
X131020230Y-72359801D01*
X131084998Y-72365468D01*
X131085000Y-72365468D01*
X131085002Y-72365468D01*
X131141673Y-72360509D01*
X131311692Y-72345635D01*
X131531496Y-72286739D01*
X131737734Y-72190568D01*
X131924139Y-72060047D01*
X132085047Y-71899139D01*
X132215568Y-71712734D01*
X132311739Y-71506496D01*
X132370635Y-71286692D01*
X132390468Y-71060000D01*
X132390468Y-71059998D01*
X139939532Y-71059998D01*
X139939532Y-71060001D01*
X139959364Y-71286686D01*
X139959366Y-71286697D01*
X140018258Y-71506488D01*
X140018261Y-71506497D01*
X140114431Y-71712732D01*
X140114432Y-71712734D01*
X140244954Y-71899141D01*
X140405858Y-72060045D01*
X140405861Y-72060047D01*
X140592266Y-72190568D01*
X140798504Y-72286739D01*
X141018308Y-72345635D01*
X141180230Y-72359801D01*
X141244998Y-72365468D01*
X141245000Y-72365468D01*
X141245002Y-72365468D01*
X141301673Y-72360509D01*
X141471692Y-72345635D01*
X141691496Y-72286739D01*
X141897734Y-72190568D01*
X142084139Y-72060047D01*
X142245047Y-71899139D01*
X142375568Y-71712734D01*
X142471739Y-71506496D01*
X142530635Y-71286692D01*
X142550468Y-71060000D01*
X142549737Y-71051649D01*
X142530635Y-70833313D01*
X142530635Y-70833308D01*
X142471739Y-70613504D01*
X142375568Y-70407266D01*
X142245047Y-70220861D01*
X142245045Y-70220858D01*
X142084141Y-70059954D01*
X141897734Y-69929432D01*
X141897732Y-69929431D01*
X141691497Y-69833261D01*
X141691488Y-69833258D01*
X141471697Y-69774366D01*
X141471693Y-69774365D01*
X141471692Y-69774365D01*
X141471691Y-69774364D01*
X141471686Y-69774364D01*
X141245002Y-69754532D01*
X141244998Y-69754532D01*
X141018313Y-69774364D01*
X141018302Y-69774366D01*
X140798511Y-69833258D01*
X140798502Y-69833261D01*
X140592267Y-69929431D01*
X140592265Y-69929432D01*
X140405858Y-70059954D01*
X140244954Y-70220858D01*
X140114432Y-70407265D01*
X140114431Y-70407267D01*
X140018261Y-70613502D01*
X140018258Y-70613511D01*
X139959366Y-70833302D01*
X139959364Y-70833313D01*
X139939532Y-71059998D01*
X132390468Y-71059998D01*
X132389737Y-71051649D01*
X132370635Y-70833313D01*
X132370635Y-70833308D01*
X132311739Y-70613504D01*
X132215568Y-70407266D01*
X132085047Y-70220861D01*
X132085045Y-70220858D01*
X131924141Y-70059954D01*
X131737734Y-69929432D01*
X131737732Y-69929431D01*
X131531497Y-69833261D01*
X131531488Y-69833258D01*
X131311697Y-69774366D01*
X131311693Y-69774365D01*
X131311692Y-69774365D01*
X131311691Y-69774364D01*
X131311686Y-69774364D01*
X131085002Y-69754532D01*
X131084998Y-69754532D01*
X130858313Y-69774364D01*
X130858302Y-69774366D01*
X130638511Y-69833258D01*
X130638502Y-69833261D01*
X130432267Y-69929431D01*
X130432265Y-69929432D01*
X130245858Y-70059954D01*
X130084954Y-70220858D01*
X129954432Y-70407265D01*
X129954431Y-70407267D01*
X129858261Y-70613502D01*
X129858258Y-70613511D01*
X129799366Y-70833302D01*
X129799364Y-70833313D01*
X129779532Y-71059998D01*
X123715500Y-71059998D01*
X123715500Y-59319999D01*
X126284341Y-59319999D01*
X126284341Y-59320000D01*
X126304936Y-59555403D01*
X126304938Y-59555413D01*
X126366094Y-59783655D01*
X126366096Y-59783659D01*
X126366097Y-59783663D01*
X126465965Y-59997830D01*
X126465967Y-59997834D01*
X126601501Y-60191395D01*
X126601506Y-60191402D01*
X126768597Y-60358493D01*
X126768603Y-60358498D01*
X126954158Y-60488425D01*
X126997783Y-60543002D01*
X127004977Y-60612500D01*
X126973454Y-60674855D01*
X126954158Y-60691575D01*
X126768597Y-60821505D01*
X126601505Y-60988597D01*
X126465965Y-61182169D01*
X126465964Y-61182171D01*
X126366098Y-61396335D01*
X126366094Y-61396344D01*
X126304938Y-61624586D01*
X126304936Y-61624596D01*
X126284341Y-61859999D01*
X126284341Y-61860000D01*
X126304936Y-62095403D01*
X126304938Y-62095413D01*
X126366094Y-62323655D01*
X126366096Y-62323659D01*
X126366097Y-62323663D01*
X126465965Y-62537830D01*
X126465967Y-62537834D01*
X126601501Y-62731395D01*
X126601506Y-62731402D01*
X126768597Y-62898493D01*
X126768603Y-62898498D01*
X126954158Y-63028425D01*
X126997783Y-63083002D01*
X127004977Y-63152500D01*
X126973454Y-63214855D01*
X126954158Y-63231575D01*
X126768597Y-63361505D01*
X126601505Y-63528597D01*
X126465965Y-63722169D01*
X126465964Y-63722171D01*
X126366098Y-63936335D01*
X126366094Y-63936344D01*
X126304938Y-64164586D01*
X126304936Y-64164596D01*
X126284341Y-64399999D01*
X126284341Y-64400000D01*
X126304936Y-64635403D01*
X126304938Y-64635413D01*
X126366094Y-64863655D01*
X126366096Y-64863659D01*
X126366097Y-64863663D01*
X126465965Y-65077830D01*
X126465967Y-65077834D01*
X126601501Y-65271395D01*
X126601506Y-65271402D01*
X126768597Y-65438493D01*
X126768603Y-65438498D01*
X126954594Y-65568730D01*
X126998219Y-65623307D01*
X127005413Y-65692805D01*
X126973890Y-65755160D01*
X126954595Y-65771880D01*
X126768922Y-65901890D01*
X126768920Y-65901891D01*
X126601891Y-66068920D01*
X126601886Y-66068926D01*
X126466400Y-66262420D01*
X126466399Y-66262422D01*
X126366570Y-66476507D01*
X126366567Y-66476513D01*
X126309364Y-66689999D01*
X126309364Y-66690000D01*
X127206988Y-66690000D01*
X127174075Y-66747007D01*
X127140000Y-66874174D01*
X127140000Y-67005826D01*
X127174075Y-67132993D01*
X127206988Y-67190000D01*
X126309364Y-67190000D01*
X126366567Y-67403486D01*
X126366570Y-67403492D01*
X126466399Y-67617578D01*
X126601894Y-67811082D01*
X126768917Y-67978105D01*
X126962421Y-68113600D01*
X127176507Y-68213429D01*
X127176516Y-68213433D01*
X127390000Y-68270634D01*
X127390000Y-67373012D01*
X127447007Y-67405925D01*
X127574174Y-67440000D01*
X127705826Y-67440000D01*
X127832993Y-67405925D01*
X127890000Y-67373012D01*
X127890000Y-68270633D01*
X128103483Y-68213433D01*
X128103492Y-68213429D01*
X128317578Y-68113600D01*
X128511082Y-67978105D01*
X128678105Y-67811082D01*
X128813600Y-67617578D01*
X128913429Y-67403492D01*
X128913432Y-67403486D01*
X128970636Y-67190000D01*
X128073012Y-67190000D01*
X128105925Y-67132993D01*
X128140000Y-67005826D01*
X128140000Y-66874174D01*
X128105925Y-66747007D01*
X128073012Y-66690000D01*
X128970636Y-66690000D01*
X128970635Y-66689999D01*
X128913432Y-66476513D01*
X128913429Y-66476507D01*
X128813600Y-66262422D01*
X128813599Y-66262420D01*
X128678113Y-66068926D01*
X128678108Y-66068920D01*
X128511078Y-65901890D01*
X128325405Y-65771879D01*
X128281780Y-65717302D01*
X128274588Y-65647804D01*
X128306110Y-65585449D01*
X128325406Y-65568730D01*
X128343789Y-65555858D01*
X128511401Y-65438495D01*
X128678495Y-65271401D01*
X128761136Y-65153376D01*
X128815713Y-65109752D01*
X128862711Y-65100500D01*
X142773107Y-65100500D01*
X142840146Y-65120185D01*
X142885901Y-65172989D01*
X142895845Y-65242147D01*
X142866820Y-65305703D01*
X142844230Y-65326075D01*
X142745858Y-65394954D01*
X142584954Y-65555858D01*
X142454432Y-65742265D01*
X142454431Y-65742267D01*
X142358261Y-65948502D01*
X142358258Y-65948511D01*
X142299366Y-66168302D01*
X142299364Y-66168313D01*
X142279532Y-66394998D01*
X142279532Y-66395001D01*
X142299364Y-66621686D01*
X142299366Y-66621697D01*
X142358258Y-66841488D01*
X142358261Y-66841497D01*
X142454431Y-67047732D01*
X142454432Y-67047734D01*
X142584954Y-67234141D01*
X142745858Y-67395045D01*
X142792693Y-67427839D01*
X142932266Y-67525568D01*
X143138504Y-67621739D01*
X143358308Y-67680635D01*
X143520230Y-67694801D01*
X143584998Y-67700468D01*
X143585000Y-67700468D01*
X143585002Y-67700468D01*
X143641673Y-67695509D01*
X143811692Y-67680635D01*
X144031496Y-67621739D01*
X144237734Y-67525568D01*
X144424139Y-67395047D01*
X144585047Y-67234139D01*
X144715568Y-67047734D01*
X144811739Y-66841496D01*
X144870635Y-66621692D01*
X144890468Y-66395000D01*
X144870635Y-66168308D01*
X144811739Y-65948504D01*
X144715568Y-65742266D01*
X144605765Y-65585449D01*
X144585045Y-65555858D01*
X144424141Y-65394954D01*
X144325770Y-65326075D01*
X144282145Y-65271499D01*
X144274951Y-65202000D01*
X144306473Y-65139646D01*
X144366703Y-65104231D01*
X144396893Y-65100500D01*
X152933107Y-65100500D01*
X153000146Y-65120185D01*
X153045901Y-65172989D01*
X153055845Y-65242147D01*
X153026820Y-65305703D01*
X153004230Y-65326075D01*
X152905858Y-65394954D01*
X152744954Y-65555858D01*
X152614432Y-65742265D01*
X152614431Y-65742267D01*
X152518261Y-65948502D01*
X152518258Y-65948511D01*
X152459366Y-66168302D01*
X152459364Y-66168313D01*
X152439532Y-66394998D01*
X152439532Y-66395001D01*
X152459364Y-66621686D01*
X152459366Y-66621697D01*
X152518258Y-66841488D01*
X152518261Y-66841497D01*
X152614431Y-67047732D01*
X152614432Y-67047734D01*
X152744954Y-67234141D01*
X152905858Y-67395045D01*
X152952693Y-67427839D01*
X153092266Y-67525568D01*
X153298504Y-67621739D01*
X153518308Y-67680635D01*
X153680230Y-67694801D01*
X153744998Y-67700468D01*
X153745000Y-67700468D01*
X153745002Y-67700468D01*
X153801673Y-67695509D01*
X153971692Y-67680635D01*
X154191496Y-67621739D01*
X154397734Y-67525568D01*
X154512801Y-67444998D01*
X157279532Y-67444998D01*
X157279532Y-67445001D01*
X157299364Y-67671686D01*
X157299366Y-67671697D01*
X157358258Y-67891488D01*
X157358261Y-67891497D01*
X157454431Y-68097732D01*
X157454432Y-68097734D01*
X157584954Y-68284141D01*
X157745858Y-68445045D01*
X157745861Y-68445047D01*
X157932266Y-68575568D01*
X158138504Y-68671739D01*
X158358308Y-68730635D01*
X158520230Y-68744801D01*
X158584998Y-68750468D01*
X158585000Y-68750468D01*
X158585002Y-68750468D01*
X158641673Y-68745509D01*
X158811692Y-68730635D01*
X159031496Y-68671739D01*
X159237734Y-68575568D01*
X159424139Y-68445047D01*
X159585047Y-68284139D01*
X159715568Y-68097734D01*
X159811739Y-67891496D01*
X159870635Y-67671692D01*
X159890468Y-67445000D01*
X159890468Y-67444998D01*
X167439532Y-67444998D01*
X167439532Y-67445001D01*
X167459364Y-67671686D01*
X167459366Y-67671697D01*
X167518258Y-67891488D01*
X167518261Y-67891497D01*
X167614431Y-68097732D01*
X167614432Y-68097734D01*
X167744954Y-68284141D01*
X167905858Y-68445045D01*
X167905861Y-68445047D01*
X168092266Y-68575568D01*
X168298504Y-68671739D01*
X168518308Y-68730635D01*
X168680230Y-68744801D01*
X168744998Y-68750468D01*
X168745000Y-68750468D01*
X168745002Y-68750468D01*
X168801673Y-68745509D01*
X168971692Y-68730635D01*
X169191496Y-68671739D01*
X169397734Y-68575568D01*
X169584139Y-68445047D01*
X169745047Y-68284139D01*
X169875568Y-68097734D01*
X169971739Y-67891496D01*
X170030635Y-67671692D01*
X170050468Y-67445000D01*
X170046097Y-67395045D01*
X170041290Y-67340099D01*
X170030635Y-67218308D01*
X169971739Y-66998504D01*
X169875568Y-66792266D01*
X169745047Y-66605861D01*
X169745045Y-66605858D01*
X169584141Y-66444954D01*
X169397734Y-66314432D01*
X169397732Y-66314431D01*
X169191497Y-66218261D01*
X169191488Y-66218258D01*
X168971697Y-66159366D01*
X168971693Y-66159365D01*
X168971692Y-66159365D01*
X168971691Y-66159364D01*
X168971686Y-66159364D01*
X168745002Y-66139532D01*
X168744998Y-66139532D01*
X168518313Y-66159364D01*
X168518302Y-66159366D01*
X168298511Y-66218258D01*
X168298502Y-66218261D01*
X168092267Y-66314431D01*
X168092265Y-66314432D01*
X167905858Y-66444954D01*
X167744954Y-66605858D01*
X167614432Y-66792265D01*
X167614431Y-66792267D01*
X167518261Y-66998502D01*
X167518258Y-66998511D01*
X167459366Y-67218302D01*
X167459364Y-67218313D01*
X167439532Y-67444998D01*
X159890468Y-67444998D01*
X159886097Y-67395045D01*
X159881290Y-67340099D01*
X159870635Y-67218308D01*
X159811739Y-66998504D01*
X159715568Y-66792266D01*
X159585047Y-66605861D01*
X159585045Y-66605858D01*
X159424141Y-66444954D01*
X159237734Y-66314432D01*
X159237732Y-66314431D01*
X159031497Y-66218261D01*
X159031488Y-66218258D01*
X158811697Y-66159366D01*
X158811693Y-66159365D01*
X158811692Y-66159365D01*
X158811691Y-66159364D01*
X158811686Y-66159364D01*
X158585002Y-66139532D01*
X158584998Y-66139532D01*
X158358313Y-66159364D01*
X158358302Y-66159366D01*
X158138511Y-66218258D01*
X158138502Y-66218261D01*
X157932267Y-66314431D01*
X157932265Y-66314432D01*
X157745858Y-66444954D01*
X157584954Y-66605858D01*
X157454432Y-66792265D01*
X157454431Y-66792267D01*
X157358261Y-66998502D01*
X157358258Y-66998511D01*
X157299366Y-67218302D01*
X157299364Y-67218313D01*
X157279532Y-67444998D01*
X154512801Y-67444998D01*
X154584139Y-67395047D01*
X154745047Y-67234139D01*
X154875568Y-67047734D01*
X154971739Y-66841496D01*
X155030635Y-66621692D01*
X155050468Y-66395000D01*
X155030635Y-66168308D01*
X154971739Y-65948504D01*
X154875568Y-65742266D01*
X154765765Y-65585449D01*
X154745045Y-65555858D01*
X154584141Y-65394954D01*
X154485770Y-65326075D01*
X154442145Y-65271499D01*
X154434951Y-65202000D01*
X154466473Y-65139646D01*
X154526703Y-65104231D01*
X154556893Y-65100500D01*
X172773107Y-65100500D01*
X172840146Y-65120185D01*
X172885901Y-65172989D01*
X172895845Y-65242147D01*
X172866820Y-65305703D01*
X172844230Y-65326075D01*
X172745858Y-65394954D01*
X172584954Y-65555858D01*
X172454432Y-65742265D01*
X172454431Y-65742267D01*
X172358261Y-65948502D01*
X172358258Y-65948511D01*
X172299366Y-66168302D01*
X172299364Y-66168313D01*
X172279532Y-66394998D01*
X172279532Y-66395001D01*
X172299364Y-66621686D01*
X172299366Y-66621697D01*
X172358258Y-66841488D01*
X172358261Y-66841497D01*
X172454431Y-67047732D01*
X172454432Y-67047734D01*
X172584954Y-67234141D01*
X172745858Y-67395045D01*
X172792693Y-67427839D01*
X172932266Y-67525568D01*
X173138504Y-67621739D01*
X173358308Y-67680635D01*
X173520230Y-67694801D01*
X173584998Y-67700468D01*
X173585000Y-67700468D01*
X173585002Y-67700468D01*
X173641673Y-67695509D01*
X173811692Y-67680635D01*
X174031496Y-67621739D01*
X174237734Y-67525568D01*
X174424139Y-67395047D01*
X174585047Y-67234139D01*
X174715568Y-67047734D01*
X174811739Y-66841496D01*
X174870635Y-66621692D01*
X174890468Y-66395000D01*
X174870635Y-66168308D01*
X174811739Y-65948504D01*
X174715568Y-65742266D01*
X174605765Y-65585449D01*
X174585045Y-65555858D01*
X174424141Y-65394954D01*
X174325770Y-65326075D01*
X174282145Y-65271499D01*
X174274951Y-65202000D01*
X174306473Y-65139646D01*
X174366703Y-65104231D01*
X174396893Y-65100500D01*
X182933107Y-65100500D01*
X183000146Y-65120185D01*
X183045901Y-65172989D01*
X183055845Y-65242147D01*
X183026820Y-65305703D01*
X183004230Y-65326075D01*
X182905858Y-65394954D01*
X182744954Y-65555858D01*
X182614432Y-65742265D01*
X182614431Y-65742267D01*
X182518261Y-65948502D01*
X182518258Y-65948511D01*
X182459366Y-66168302D01*
X182459364Y-66168313D01*
X182439532Y-66394998D01*
X182439532Y-66395001D01*
X182459364Y-66621686D01*
X182459366Y-66621697D01*
X182518258Y-66841488D01*
X182518261Y-66841497D01*
X182614431Y-67047732D01*
X182614432Y-67047734D01*
X182744954Y-67234141D01*
X182905858Y-67395045D01*
X182952693Y-67427839D01*
X183092266Y-67525568D01*
X183298504Y-67621739D01*
X183518308Y-67680635D01*
X183680230Y-67694801D01*
X183744998Y-67700468D01*
X183745000Y-67700468D01*
X183745002Y-67700468D01*
X183801673Y-67695509D01*
X183971692Y-67680635D01*
X184191496Y-67621739D01*
X184397734Y-67525568D01*
X184584139Y-67395047D01*
X184745047Y-67234139D01*
X184875568Y-67047734D01*
X184971739Y-66841496D01*
X185030635Y-66621692D01*
X185050468Y-66395000D01*
X185030635Y-66168308D01*
X184971739Y-65948504D01*
X184875568Y-65742266D01*
X184765765Y-65585449D01*
X184745045Y-65555858D01*
X184584141Y-65394954D01*
X184485770Y-65326075D01*
X184442145Y-65271499D01*
X184434951Y-65202000D01*
X184466473Y-65139646D01*
X184526703Y-65104231D01*
X184556893Y-65100500D01*
X196917289Y-65100500D01*
X196984328Y-65120185D01*
X197018864Y-65153377D01*
X197101505Y-65271402D01*
X197268597Y-65438493D01*
X197268603Y-65438498D01*
X197454594Y-65568730D01*
X197498219Y-65623307D01*
X197505413Y-65692805D01*
X197473890Y-65755160D01*
X197454595Y-65771880D01*
X197268922Y-65901890D01*
X197268920Y-65901891D01*
X197101891Y-66068920D01*
X197101886Y-66068926D01*
X196966400Y-66262420D01*
X196966399Y-66262422D01*
X196866570Y-66476507D01*
X196866567Y-66476513D01*
X196809364Y-66689999D01*
X196809364Y-66690000D01*
X197706988Y-66690000D01*
X197674075Y-66747007D01*
X197640000Y-66874174D01*
X197640000Y-67005826D01*
X197674075Y-67132993D01*
X197706988Y-67190000D01*
X196809364Y-67190000D01*
X196866567Y-67403486D01*
X196866570Y-67403492D01*
X196966399Y-67617578D01*
X197101894Y-67811082D01*
X197268917Y-67978105D01*
X197462421Y-68113600D01*
X197676507Y-68213429D01*
X197676516Y-68213433D01*
X197890000Y-68270634D01*
X197890000Y-67373012D01*
X197947007Y-67405925D01*
X198074174Y-67440000D01*
X198205826Y-67440000D01*
X198332993Y-67405925D01*
X198390000Y-67373012D01*
X198390000Y-68270633D01*
X198603483Y-68213433D01*
X198603492Y-68213429D01*
X198817578Y-68113600D01*
X199011082Y-67978105D01*
X199178105Y-67811082D01*
X199313600Y-67617578D01*
X199413429Y-67403492D01*
X199413432Y-67403486D01*
X199470636Y-67190000D01*
X198573012Y-67190000D01*
X198605925Y-67132993D01*
X198640000Y-67005826D01*
X198640000Y-66874174D01*
X198605925Y-66747007D01*
X198573012Y-66690000D01*
X199470636Y-66690000D01*
X199470635Y-66689999D01*
X199413432Y-66476513D01*
X199413429Y-66476507D01*
X199313600Y-66262422D01*
X199313599Y-66262420D01*
X199178113Y-66068926D01*
X199178108Y-66068920D01*
X199011078Y-65901890D01*
X198825405Y-65771879D01*
X198781780Y-65717302D01*
X198774588Y-65647804D01*
X198806110Y-65585449D01*
X198825406Y-65568730D01*
X198843789Y-65555858D01*
X199011401Y-65438495D01*
X199178495Y-65271401D01*
X199314035Y-65077830D01*
X199413903Y-64863663D01*
X199475063Y-64635408D01*
X199495659Y-64400000D01*
X199475063Y-64164592D01*
X199413903Y-63936337D01*
X199314035Y-63722171D01*
X199291683Y-63690248D01*
X199178494Y-63528597D01*
X199011402Y-63361506D01*
X199011396Y-63361501D01*
X198825842Y-63231575D01*
X198782217Y-63176998D01*
X198775023Y-63107500D01*
X198806546Y-63045145D01*
X198825842Y-63028425D01*
X198848026Y-63012891D01*
X199011401Y-62898495D01*
X199178495Y-62731401D01*
X199314035Y-62537830D01*
X199413903Y-62323663D01*
X199475063Y-62095408D01*
X199495659Y-61860000D01*
X199475063Y-61624592D01*
X199413903Y-61396337D01*
X199314035Y-61182171D01*
X199178495Y-60988599D01*
X199178494Y-60988597D01*
X199011402Y-60821506D01*
X199011396Y-60821501D01*
X198825842Y-60691575D01*
X198782217Y-60636998D01*
X198775023Y-60567500D01*
X198806546Y-60505145D01*
X198825842Y-60488425D01*
X198848026Y-60472891D01*
X199011401Y-60358495D01*
X199178495Y-60191401D01*
X199314035Y-59997830D01*
X199413903Y-59783663D01*
X199475063Y-59555408D01*
X199495659Y-59320000D01*
X199475063Y-59084592D01*
X199413903Y-58856337D01*
X199314035Y-58642171D01*
X199299691Y-58621686D01*
X199178496Y-58448600D01*
X199124894Y-58394998D01*
X199056567Y-58326671D01*
X199023084Y-58265351D01*
X199028068Y-58195659D01*
X199069939Y-58139725D01*
X199100915Y-58122810D01*
X199232331Y-58073796D01*
X199347546Y-57987546D01*
X199433796Y-57872331D01*
X199484091Y-57737483D01*
X199490500Y-57677873D01*
X199490499Y-55882128D01*
X199484091Y-55822517D01*
X199482387Y-55817949D01*
X199433797Y-55687671D01*
X199433793Y-55687664D01*
X199347547Y-55572455D01*
X199347544Y-55572452D01*
X199232335Y-55486206D01*
X199232328Y-55486202D01*
X199097482Y-55435908D01*
X199097483Y-55435908D01*
X199037883Y-55429501D01*
X199037881Y-55429500D01*
X199037873Y-55429500D01*
X199037864Y-55429500D01*
X197242129Y-55429500D01*
X197242123Y-55429501D01*
X197182516Y-55435908D01*
X197047671Y-55486202D01*
X197047664Y-55486206D01*
X196932455Y-55572452D01*
X196932452Y-55572455D01*
X196846206Y-55687664D01*
X196846204Y-55687668D01*
X196846204Y-55687669D01*
X196842039Y-55698834D01*
X196800171Y-55754766D01*
X196734707Y-55779184D01*
X196725859Y-55779500D01*
X171966114Y-55779500D01*
X171899075Y-55759815D01*
X171853320Y-55707011D01*
X171844843Y-55648058D01*
X171842231Y-55645000D01*
X170463482Y-55645000D01*
X170474111Y-55626591D01*
X170515000Y-55473991D01*
X170515000Y-55316009D01*
X170474111Y-55163409D01*
X170463482Y-55145000D01*
X171842231Y-55145000D01*
X171831757Y-55078873D01*
X171831757Y-55078870D01*
X171766095Y-54876782D01*
X171669620Y-54687442D01*
X171544727Y-54515540D01*
X171544723Y-54515535D01*
X171394464Y-54365276D01*
X171394459Y-54365272D01*
X171222557Y-54240379D01*
X171033217Y-54143904D01*
X170831129Y-54078242D01*
X170621246Y-54045000D01*
X170165000Y-54045000D01*
X170165000Y-54846517D01*
X170146591Y-54835889D01*
X169993991Y-54795000D01*
X169836009Y-54795000D01*
X169683409Y-54835889D01*
X169665000Y-54846517D01*
X169665000Y-54045000D01*
X169208754Y-54045000D01*
X168998872Y-54078242D01*
X168998869Y-54078242D01*
X168796782Y-54143904D01*
X168607442Y-54240379D01*
X168435540Y-54365272D01*
X168435535Y-54365276D01*
X168285276Y-54515535D01*
X168285272Y-54515540D01*
X168160379Y-54687442D01*
X168063904Y-54876782D01*
X167998242Y-55078870D01*
X167998242Y-55078873D01*
X167987769Y-55145000D01*
X169366518Y-55145000D01*
X169355889Y-55163409D01*
X169315000Y-55316009D01*
X169315000Y-55473991D01*
X169355889Y-55626591D01*
X169366518Y-55645000D01*
X167987769Y-55645000D01*
X167998242Y-55711126D01*
X167998242Y-55711129D01*
X168063904Y-55913217D01*
X168160377Y-56102554D01*
X168182217Y-56132614D01*
X168205697Y-56198421D01*
X168189872Y-56266475D01*
X168139766Y-56315170D01*
X168081899Y-56329500D01*
X166630783Y-56329500D01*
X166563744Y-56309815D01*
X166543102Y-56293181D01*
X165364209Y-55114289D01*
X165364206Y-55114285D01*
X165364206Y-55114286D01*
X165357139Y-55107219D01*
X165357139Y-55107218D01*
X165217782Y-54967861D01*
X165217781Y-54967860D01*
X165217780Y-54967859D01*
X165053920Y-54858371D01*
X165053911Y-54858366D01*
X164981315Y-54828296D01*
X164925165Y-54805038D01*
X164871836Y-54782949D01*
X164871832Y-54782948D01*
X164871828Y-54782946D01*
X164775188Y-54763724D01*
X164678544Y-54744500D01*
X164678541Y-54744500D01*
X160151459Y-54744500D01*
X160151455Y-54744500D01*
X160054812Y-54763724D01*
X159958167Y-54782947D01*
X159958161Y-54782949D01*
X159904834Y-54805037D01*
X159904834Y-54805038D01*
X159859315Y-54823892D01*
X159776089Y-54858366D01*
X159776079Y-54858371D01*
X159612218Y-54967860D01*
X159516395Y-55063683D01*
X159455071Y-55097167D01*
X159385380Y-55092183D01*
X159329447Y-55050311D01*
X159310783Y-55014319D01*
X159266095Y-54876782D01*
X159169620Y-54687442D01*
X159044727Y-54515540D01*
X159044723Y-54515535D01*
X158894464Y-54365276D01*
X158894459Y-54365272D01*
X158722557Y-54240379D01*
X158533217Y-54143904D01*
X158331129Y-54078242D01*
X158121246Y-54045000D01*
X157665000Y-54045000D01*
X157665000Y-54846517D01*
X157646591Y-54835889D01*
X157493991Y-54795000D01*
X157336009Y-54795000D01*
X157183409Y-54835889D01*
X157165000Y-54846517D01*
X157165000Y-54045000D01*
X156708754Y-54045000D01*
X156498872Y-54078242D01*
X156498869Y-54078242D01*
X156296782Y-54143904D01*
X156107442Y-54240379D01*
X155935540Y-54365272D01*
X155935535Y-54365276D01*
X155785276Y-54515535D01*
X155785272Y-54515540D01*
X155660379Y-54687442D01*
X155563904Y-54876782D01*
X155498242Y-55078870D01*
X155498242Y-55078873D01*
X155487769Y-55145000D01*
X156866518Y-55145000D01*
X156855889Y-55163409D01*
X156815000Y-55316009D01*
X156815000Y-55473991D01*
X156855889Y-55626591D01*
X156866518Y-55645000D01*
X155487769Y-55645000D01*
X155498242Y-55711126D01*
X155498242Y-55711129D01*
X155521329Y-55782182D01*
X155523324Y-55852023D01*
X155487244Y-55911856D01*
X155424543Y-55942684D01*
X155403398Y-55944500D01*
X154839374Y-55944500D01*
X154772335Y-55924815D01*
X154770518Y-55923625D01*
X154725235Y-55893368D01*
X154725236Y-55893368D01*
X154725234Y-55893367D01*
X154660860Y-55866703D01*
X154596486Y-55840038D01*
X154543157Y-55817949D01*
X154543153Y-55817948D01*
X154543149Y-55817946D01*
X154446509Y-55798724D01*
X154349865Y-55779500D01*
X154349862Y-55779500D01*
X129054141Y-55779500D01*
X128987102Y-55759815D01*
X128941347Y-55707011D01*
X128937969Y-55698859D01*
X128933796Y-55687669D01*
X128933793Y-55687665D01*
X128933793Y-55687664D01*
X128847547Y-55572455D01*
X128847544Y-55572452D01*
X128732335Y-55486206D01*
X128732328Y-55486202D01*
X128597482Y-55435908D01*
X128597483Y-55435908D01*
X128537883Y-55429501D01*
X128537881Y-55429500D01*
X128537873Y-55429500D01*
X128537864Y-55429500D01*
X126742129Y-55429500D01*
X126742123Y-55429501D01*
X126682516Y-55435908D01*
X126547671Y-55486202D01*
X126547664Y-55486206D01*
X126432455Y-55572452D01*
X126432452Y-55572455D01*
X126346206Y-55687664D01*
X126346202Y-55687671D01*
X126295908Y-55822517D01*
X126290253Y-55875119D01*
X126289501Y-55882123D01*
X126289500Y-55882135D01*
X126289500Y-57677870D01*
X126289501Y-57677876D01*
X126295908Y-57737483D01*
X126346202Y-57872328D01*
X126346206Y-57872335D01*
X126432452Y-57987544D01*
X126432455Y-57987547D01*
X126547664Y-58073793D01*
X126547671Y-58073797D01*
X126679081Y-58122810D01*
X126735015Y-58164681D01*
X126759432Y-58230145D01*
X126744580Y-58298418D01*
X126723430Y-58326673D01*
X126601503Y-58448600D01*
X126465965Y-58642169D01*
X126465964Y-58642171D01*
X126366098Y-58856335D01*
X126366094Y-58856344D01*
X126304938Y-59084586D01*
X126304936Y-59084596D01*
X126284341Y-59319999D01*
X123715500Y-59319999D01*
X123715500Y-51009993D01*
X133409700Y-51009993D01*
X133409700Y-51010006D01*
X133428864Y-51241297D01*
X133428866Y-51241308D01*
X133485842Y-51466300D01*
X133579075Y-51678848D01*
X133706016Y-51873147D01*
X133706019Y-51873151D01*
X133706021Y-51873153D01*
X133863216Y-52043913D01*
X133863219Y-52043915D01*
X133863222Y-52043918D01*
X134046365Y-52186464D01*
X134046371Y-52186468D01*
X134046374Y-52186470D01*
X134250497Y-52296936D01*
X134364487Y-52336068D01*
X134470015Y-52372297D01*
X134470017Y-52372297D01*
X134470019Y-52372298D01*
X134698951Y-52410500D01*
X134698952Y-52410500D01*
X134931048Y-52410500D01*
X134931049Y-52410500D01*
X135159981Y-52372298D01*
X135379503Y-52296936D01*
X135583626Y-52186470D01*
X135766784Y-52043913D01*
X135775511Y-52034432D01*
X135835394Y-51998441D01*
X135905232Y-52000538D01*
X135962850Y-52040060D01*
X135982924Y-52075080D01*
X136011645Y-52152086D01*
X136011649Y-52152093D01*
X136097809Y-52267187D01*
X136097812Y-52267190D01*
X136212906Y-52353350D01*
X136212913Y-52353354D01*
X136347620Y-52403596D01*
X136347627Y-52403598D01*
X136407155Y-52409999D01*
X136407172Y-52410000D01*
X137105000Y-52410000D01*
X137105000Y-51385277D01*
X137181306Y-51429333D01*
X137295756Y-51460000D01*
X137414244Y-51460000D01*
X137528694Y-51429333D01*
X137605000Y-51385277D01*
X137605000Y-52410000D01*
X138302828Y-52410000D01*
X138302844Y-52409999D01*
X138362372Y-52403598D01*
X138362379Y-52403596D01*
X138497086Y-52353354D01*
X138497093Y-52353350D01*
X138612187Y-52267190D01*
X138612190Y-52267187D01*
X138698350Y-52152093D01*
X138698354Y-52152086D01*
X138748596Y-52017379D01*
X138748598Y-52017372D01*
X138754999Y-51957844D01*
X138755000Y-51957827D01*
X138755000Y-51260000D01*
X137730278Y-51260000D01*
X137774333Y-51183694D01*
X137805000Y-51069244D01*
X137805000Y-51009993D01*
X145909700Y-51009993D01*
X145909700Y-51010006D01*
X145928864Y-51241297D01*
X145928866Y-51241308D01*
X145985842Y-51466300D01*
X146079075Y-51678848D01*
X146206016Y-51873147D01*
X146206019Y-51873151D01*
X146206021Y-51873153D01*
X146363216Y-52043913D01*
X146363219Y-52043915D01*
X146363222Y-52043918D01*
X146546365Y-52186464D01*
X146546371Y-52186468D01*
X146546374Y-52186470D01*
X146750497Y-52296936D01*
X146864487Y-52336068D01*
X146970015Y-52372297D01*
X146970017Y-52372297D01*
X146970019Y-52372298D01*
X147198951Y-52410500D01*
X147198952Y-52410500D01*
X147431048Y-52410500D01*
X147431049Y-52410500D01*
X147659981Y-52372298D01*
X147879503Y-52296936D01*
X148083626Y-52186470D01*
X148266784Y-52043913D01*
X148275511Y-52034432D01*
X148335394Y-51998441D01*
X148405232Y-52000538D01*
X148462850Y-52040060D01*
X148482924Y-52075080D01*
X148511645Y-52152086D01*
X148511649Y-52152093D01*
X148597809Y-52267187D01*
X148597812Y-52267190D01*
X148712906Y-52353350D01*
X148712913Y-52353354D01*
X148847620Y-52403596D01*
X148847627Y-52403598D01*
X148907155Y-52409999D01*
X148907172Y-52410000D01*
X149605000Y-52410000D01*
X149605000Y-51385277D01*
X149681306Y-51429333D01*
X149795756Y-51460000D01*
X149914244Y-51460000D01*
X150028694Y-51429333D01*
X150105000Y-51385277D01*
X150105000Y-52410000D01*
X150802828Y-52410000D01*
X150802844Y-52409999D01*
X150862372Y-52403598D01*
X150862379Y-52403596D01*
X150997086Y-52353354D01*
X150997093Y-52353350D01*
X151112187Y-52267190D01*
X151112190Y-52267187D01*
X151198350Y-52152093D01*
X151198354Y-52152086D01*
X151248596Y-52017379D01*
X151248598Y-52017372D01*
X151254999Y-51957844D01*
X151255000Y-51957827D01*
X151255000Y-51260000D01*
X150230278Y-51260000D01*
X150274333Y-51183694D01*
X150305000Y-51069244D01*
X150305000Y-50950756D01*
X150274333Y-50836306D01*
X150230278Y-50760000D01*
X151255000Y-50760000D01*
X151255000Y-50288713D01*
X155464500Y-50288713D01*
X155464500Y-50501286D01*
X155478656Y-50590667D01*
X155497754Y-50711243D01*
X155519669Y-50778691D01*
X155563444Y-50913414D01*
X155659951Y-51102820D01*
X155784890Y-51274786D01*
X155935213Y-51425109D01*
X156107179Y-51550048D01*
X156107181Y-51550049D01*
X156107184Y-51550051D01*
X156296588Y-51646557D01*
X156498757Y-51712246D01*
X156708713Y-51745500D01*
X156708714Y-51745500D01*
X158121286Y-51745500D01*
X158121287Y-51745500D01*
X158331243Y-51712246D01*
X158533412Y-51646557D01*
X158722816Y-51550051D01*
X158744789Y-51534086D01*
X158894786Y-51425109D01*
X158894788Y-51425106D01*
X158894792Y-51425104D01*
X159045104Y-51274792D01*
X159045106Y-51274788D01*
X159045109Y-51274786D01*
X159170048Y-51102820D01*
X159170047Y-51102820D01*
X159170051Y-51102816D01*
X159266557Y-50913412D01*
X159332246Y-50711243D01*
X159365500Y-50501287D01*
X159365500Y-50288713D01*
X167964500Y-50288713D01*
X167964500Y-50501286D01*
X167978656Y-50590667D01*
X167997754Y-50711243D01*
X168019669Y-50778691D01*
X168063444Y-50913414D01*
X168159951Y-51102820D01*
X168284890Y-51274786D01*
X168435213Y-51425109D01*
X168607179Y-51550048D01*
X168607181Y-51550049D01*
X168607184Y-51550051D01*
X168796588Y-51646557D01*
X168998757Y-51712246D01*
X169208713Y-51745500D01*
X169208714Y-51745500D01*
X170621286Y-51745500D01*
X170621287Y-51745500D01*
X170831243Y-51712246D01*
X171033412Y-51646557D01*
X171222816Y-51550051D01*
X171244789Y-51534086D01*
X171394786Y-51425109D01*
X171394788Y-51425106D01*
X171394792Y-51425104D01*
X171545104Y-51274792D01*
X171545106Y-51274788D01*
X171545109Y-51274786D01*
X171670048Y-51102820D01*
X171670047Y-51102820D01*
X171670051Y-51102816D01*
X171717347Y-51009993D01*
X175909700Y-51009993D01*
X175909700Y-51010006D01*
X175928864Y-51241297D01*
X175928866Y-51241308D01*
X175985842Y-51466300D01*
X176079075Y-51678848D01*
X176206016Y-51873147D01*
X176206019Y-51873151D01*
X176206021Y-51873153D01*
X176363216Y-52043913D01*
X176363219Y-52043915D01*
X176363222Y-52043918D01*
X176546365Y-52186464D01*
X176546371Y-52186468D01*
X176546374Y-52186470D01*
X176750497Y-52296936D01*
X176864487Y-52336068D01*
X176970015Y-52372297D01*
X176970017Y-52372297D01*
X176970019Y-52372298D01*
X177198951Y-52410500D01*
X177198952Y-52410500D01*
X177431048Y-52410500D01*
X177431049Y-52410500D01*
X177659981Y-52372298D01*
X177879503Y-52296936D01*
X178083626Y-52186470D01*
X178266784Y-52043913D01*
X178275511Y-52034432D01*
X178335394Y-51998441D01*
X178405232Y-52000538D01*
X178462850Y-52040060D01*
X178482924Y-52075080D01*
X178511645Y-52152086D01*
X178511649Y-52152093D01*
X178597809Y-52267187D01*
X178597812Y-52267190D01*
X178712906Y-52353350D01*
X178712913Y-52353354D01*
X178847620Y-52403596D01*
X178847627Y-52403598D01*
X178907155Y-52409999D01*
X178907172Y-52410000D01*
X179605000Y-52410000D01*
X179605000Y-51385277D01*
X179681306Y-51429333D01*
X179795756Y-51460000D01*
X179914244Y-51460000D01*
X180028694Y-51429333D01*
X180105000Y-51385277D01*
X180105000Y-52410000D01*
X180802828Y-52410000D01*
X180802844Y-52409999D01*
X180862372Y-52403598D01*
X180862379Y-52403596D01*
X180997086Y-52353354D01*
X180997093Y-52353350D01*
X181112187Y-52267190D01*
X181112190Y-52267187D01*
X181198350Y-52152093D01*
X181198354Y-52152086D01*
X181248596Y-52017379D01*
X181248598Y-52017372D01*
X181254999Y-51957844D01*
X181255000Y-51957827D01*
X181255000Y-51260000D01*
X180230278Y-51260000D01*
X180274333Y-51183694D01*
X180305000Y-51069244D01*
X180305000Y-51009993D01*
X188409700Y-51009993D01*
X188409700Y-51010006D01*
X188428864Y-51241297D01*
X188428866Y-51241308D01*
X188485842Y-51466300D01*
X188579075Y-51678848D01*
X188706016Y-51873147D01*
X188706019Y-51873151D01*
X188706021Y-51873153D01*
X188863216Y-52043913D01*
X188863219Y-52043915D01*
X188863222Y-52043918D01*
X189046365Y-52186464D01*
X189046371Y-52186468D01*
X189046374Y-52186470D01*
X189250497Y-52296936D01*
X189364487Y-52336068D01*
X189470015Y-52372297D01*
X189470017Y-52372297D01*
X189470019Y-52372298D01*
X189698951Y-52410500D01*
X189698952Y-52410500D01*
X189931048Y-52410500D01*
X189931049Y-52410500D01*
X190159981Y-52372298D01*
X190379503Y-52296936D01*
X190583626Y-52186470D01*
X190766784Y-52043913D01*
X190775511Y-52034432D01*
X190835394Y-51998441D01*
X190905232Y-52000538D01*
X190962850Y-52040060D01*
X190982924Y-52075080D01*
X191011645Y-52152086D01*
X191011649Y-52152093D01*
X191097809Y-52267187D01*
X191097812Y-52267190D01*
X191212906Y-52353350D01*
X191212913Y-52353354D01*
X191347620Y-52403596D01*
X191347627Y-52403598D01*
X191407155Y-52409999D01*
X191407172Y-52410000D01*
X192105000Y-52410000D01*
X192105000Y-51385277D01*
X192181306Y-51429333D01*
X192295756Y-51460000D01*
X192414244Y-51460000D01*
X192528694Y-51429333D01*
X192605000Y-51385277D01*
X192605000Y-52410000D01*
X193302828Y-52410000D01*
X193302844Y-52409999D01*
X193362372Y-52403598D01*
X193362379Y-52403596D01*
X193497086Y-52353354D01*
X193497093Y-52353350D01*
X193612187Y-52267190D01*
X193612190Y-52267187D01*
X193698350Y-52152093D01*
X193698354Y-52152086D01*
X193748596Y-52017379D01*
X193748598Y-52017372D01*
X193754999Y-51957844D01*
X193755000Y-51957827D01*
X193755000Y-51260000D01*
X192730278Y-51260000D01*
X192774333Y-51183694D01*
X192805000Y-51069244D01*
X192805000Y-50950756D01*
X192774333Y-50836306D01*
X192730278Y-50760000D01*
X193755000Y-50760000D01*
X193755000Y-50062172D01*
X193754999Y-50062155D01*
X193748598Y-50002627D01*
X193748596Y-50002620D01*
X193698354Y-49867913D01*
X193698350Y-49867906D01*
X193612190Y-49752812D01*
X193612187Y-49752809D01*
X193497093Y-49666649D01*
X193497086Y-49666645D01*
X193362379Y-49616403D01*
X193362372Y-49616401D01*
X193302844Y-49610000D01*
X192605000Y-49610000D01*
X192605000Y-50634722D01*
X192528694Y-50590667D01*
X192414244Y-50560000D01*
X192295756Y-50560000D01*
X192181306Y-50590667D01*
X192105000Y-50634722D01*
X192105000Y-49610000D01*
X191407155Y-49610000D01*
X191347627Y-49616401D01*
X191347620Y-49616403D01*
X191212913Y-49666645D01*
X191212906Y-49666649D01*
X191097812Y-49752809D01*
X191097809Y-49752812D01*
X191011649Y-49867906D01*
X191011646Y-49867911D01*
X190982924Y-49944920D01*
X190941052Y-50000853D01*
X190875588Y-50025270D01*
X190807315Y-50010418D01*
X190775514Y-49985571D01*
X190766784Y-49976087D01*
X190766779Y-49976083D01*
X190766777Y-49976081D01*
X190583634Y-49833535D01*
X190583628Y-49833531D01*
X190379504Y-49723064D01*
X190379495Y-49723061D01*
X190159984Y-49647702D01*
X189972404Y-49616401D01*
X189931049Y-49609500D01*
X189698951Y-49609500D01*
X189657596Y-49616401D01*
X189470015Y-49647702D01*
X189250504Y-49723061D01*
X189250495Y-49723064D01*
X189046371Y-49833531D01*
X189046365Y-49833535D01*
X188863222Y-49976081D01*
X188863219Y-49976084D01*
X188863216Y-49976086D01*
X188863216Y-49976087D01*
X188838791Y-50002620D01*
X188706016Y-50146852D01*
X188579075Y-50341151D01*
X188485842Y-50553699D01*
X188428866Y-50778691D01*
X188428864Y-50778702D01*
X188409700Y-51009993D01*
X180305000Y-51009993D01*
X180305000Y-50950756D01*
X180274333Y-50836306D01*
X180230278Y-50760000D01*
X181255000Y-50760000D01*
X181255000Y-50062172D01*
X181254999Y-50062155D01*
X181248598Y-50002627D01*
X181248596Y-50002620D01*
X181198354Y-49867913D01*
X181198350Y-49867906D01*
X181112190Y-49752812D01*
X181112187Y-49752809D01*
X180997093Y-49666649D01*
X180997086Y-49666645D01*
X180862379Y-49616403D01*
X180862372Y-49616401D01*
X180802844Y-49610000D01*
X180105000Y-49610000D01*
X180105000Y-50634722D01*
X180028694Y-50590667D01*
X179914244Y-50560000D01*
X179795756Y-50560000D01*
X179681306Y-50590667D01*
X179605000Y-50634722D01*
X179605000Y-49610000D01*
X178907155Y-49610000D01*
X178847627Y-49616401D01*
X178847620Y-49616403D01*
X178712913Y-49666645D01*
X178712906Y-49666649D01*
X178597812Y-49752809D01*
X178597809Y-49752812D01*
X178511649Y-49867906D01*
X178511646Y-49867911D01*
X178482924Y-49944920D01*
X178441052Y-50000853D01*
X178375588Y-50025270D01*
X178307315Y-50010418D01*
X178275514Y-49985571D01*
X178266784Y-49976087D01*
X178266779Y-49976083D01*
X178266777Y-49976081D01*
X178083634Y-49833535D01*
X178083628Y-49833531D01*
X177879504Y-49723064D01*
X177879495Y-49723061D01*
X177659984Y-49647702D01*
X177472404Y-49616401D01*
X177431049Y-49609500D01*
X177198951Y-49609500D01*
X177157596Y-49616401D01*
X176970015Y-49647702D01*
X176750504Y-49723061D01*
X176750495Y-49723064D01*
X176546371Y-49833531D01*
X176546365Y-49833535D01*
X176363222Y-49976081D01*
X176363219Y-49976084D01*
X176363216Y-49976086D01*
X176363216Y-49976087D01*
X176338791Y-50002620D01*
X176206016Y-50146852D01*
X176079075Y-50341151D01*
X175985842Y-50553699D01*
X175928866Y-50778691D01*
X175928864Y-50778702D01*
X175909700Y-51009993D01*
X171717347Y-51009993D01*
X171766557Y-50913412D01*
X171832246Y-50711243D01*
X171865500Y-50501287D01*
X171865500Y-50288713D01*
X171832246Y-50078757D01*
X171766557Y-49876588D01*
X171670051Y-49687184D01*
X171670049Y-49687181D01*
X171670048Y-49687179D01*
X171545109Y-49515213D01*
X171394786Y-49364890D01*
X171222820Y-49239951D01*
X171033414Y-49143444D01*
X171033413Y-49143443D01*
X171033412Y-49143443D01*
X170831243Y-49077754D01*
X170831241Y-49077753D01*
X170831240Y-49077753D01*
X170669957Y-49052208D01*
X170621287Y-49044500D01*
X169208713Y-49044500D01*
X169160042Y-49052208D01*
X168998760Y-49077753D01*
X168796585Y-49143444D01*
X168607179Y-49239951D01*
X168435213Y-49364890D01*
X168284890Y-49515213D01*
X168159951Y-49687179D01*
X168063444Y-49876585D01*
X167997753Y-50078760D01*
X167964500Y-50288713D01*
X159365500Y-50288713D01*
X159332246Y-50078757D01*
X159266557Y-49876588D01*
X159170051Y-49687184D01*
X159170049Y-49687181D01*
X159170048Y-49687179D01*
X159045109Y-49515213D01*
X158894786Y-49364890D01*
X158722820Y-49239951D01*
X158533414Y-49143444D01*
X158533413Y-49143443D01*
X158533412Y-49143443D01*
X158331243Y-49077754D01*
X158331241Y-49077753D01*
X158331240Y-49077753D01*
X158169957Y-49052208D01*
X158121287Y-49044500D01*
X156708713Y-49044500D01*
X156660042Y-49052208D01*
X156498760Y-49077753D01*
X156296585Y-49143444D01*
X156107179Y-49239951D01*
X155935213Y-49364890D01*
X155784890Y-49515213D01*
X155659951Y-49687179D01*
X155563444Y-49876585D01*
X155497753Y-50078760D01*
X155464500Y-50288713D01*
X151255000Y-50288713D01*
X151255000Y-50062172D01*
X151254999Y-50062155D01*
X151248598Y-50002627D01*
X151248596Y-50002620D01*
X151198354Y-49867913D01*
X151198350Y-49867906D01*
X151112190Y-49752812D01*
X151112187Y-49752809D01*
X150997093Y-49666649D01*
X150997086Y-49666645D01*
X150862379Y-49616403D01*
X150862372Y-49616401D01*
X150802844Y-49610000D01*
X150105000Y-49610000D01*
X150105000Y-50634722D01*
X150028694Y-50590667D01*
X149914244Y-50560000D01*
X149795756Y-50560000D01*
X149681306Y-50590667D01*
X149605000Y-50634722D01*
X149605000Y-49610000D01*
X148907155Y-49610000D01*
X148847627Y-49616401D01*
X148847620Y-49616403D01*
X148712913Y-49666645D01*
X148712906Y-49666649D01*
X148597812Y-49752809D01*
X148597809Y-49752812D01*
X148511649Y-49867906D01*
X148511646Y-49867911D01*
X148482924Y-49944920D01*
X148441052Y-50000853D01*
X148375588Y-50025270D01*
X148307315Y-50010418D01*
X148275514Y-49985571D01*
X148266784Y-49976087D01*
X148266779Y-49976083D01*
X148266777Y-49976081D01*
X148083634Y-49833535D01*
X148083628Y-49833531D01*
X147879504Y-49723064D01*
X147879495Y-49723061D01*
X147659984Y-49647702D01*
X147472404Y-49616401D01*
X147431049Y-49609500D01*
X147198951Y-49609500D01*
X147157596Y-49616401D01*
X146970015Y-49647702D01*
X146750504Y-49723061D01*
X146750495Y-49723064D01*
X146546371Y-49833531D01*
X146546365Y-49833535D01*
X146363222Y-49976081D01*
X146363219Y-49976084D01*
X146363216Y-49976086D01*
X146363216Y-49976087D01*
X146338791Y-50002620D01*
X146206016Y-50146852D01*
X146079075Y-50341151D01*
X145985842Y-50553699D01*
X145928866Y-50778691D01*
X145928864Y-50778702D01*
X145909700Y-51009993D01*
X137805000Y-51009993D01*
X137805000Y-50950756D01*
X137774333Y-50836306D01*
X137730278Y-50760000D01*
X138755000Y-50760000D01*
X138755000Y-50062172D01*
X138754999Y-50062155D01*
X138748598Y-50002627D01*
X138748596Y-50002620D01*
X138698354Y-49867913D01*
X138698350Y-49867906D01*
X138612190Y-49752812D01*
X138612187Y-49752809D01*
X138497093Y-49666649D01*
X138497086Y-49666645D01*
X138362379Y-49616403D01*
X138362372Y-49616401D01*
X138302844Y-49610000D01*
X137605000Y-49610000D01*
X137605000Y-50634722D01*
X137528694Y-50590667D01*
X137414244Y-50560000D01*
X137295756Y-50560000D01*
X137181306Y-50590667D01*
X137105000Y-50634722D01*
X137105000Y-49610000D01*
X136407155Y-49610000D01*
X136347627Y-49616401D01*
X136347620Y-49616403D01*
X136212913Y-49666645D01*
X136212906Y-49666649D01*
X136097812Y-49752809D01*
X136097809Y-49752812D01*
X136011649Y-49867906D01*
X136011646Y-49867911D01*
X135982924Y-49944920D01*
X135941052Y-50000853D01*
X135875588Y-50025270D01*
X135807315Y-50010418D01*
X135775514Y-49985571D01*
X135766784Y-49976087D01*
X135766779Y-49976083D01*
X135766777Y-49976081D01*
X135583634Y-49833535D01*
X135583628Y-49833531D01*
X135379504Y-49723064D01*
X135379495Y-49723061D01*
X135159984Y-49647702D01*
X134972404Y-49616401D01*
X134931049Y-49609500D01*
X134698951Y-49609500D01*
X134657596Y-49616401D01*
X134470015Y-49647702D01*
X134250504Y-49723061D01*
X134250495Y-49723064D01*
X134046371Y-49833531D01*
X134046365Y-49833535D01*
X133863222Y-49976081D01*
X133863219Y-49976084D01*
X133863216Y-49976086D01*
X133863216Y-49976087D01*
X133838791Y-50002620D01*
X133706016Y-50146852D01*
X133579075Y-50341151D01*
X133485842Y-50553699D01*
X133428866Y-50778691D01*
X133428864Y-50778702D01*
X133409700Y-51009993D01*
X123715500Y-51009993D01*
X123715500Y-48304448D01*
X162514500Y-48304448D01*
X162514500Y-48485551D01*
X162542829Y-48664410D01*
X162598787Y-48836636D01*
X162598788Y-48836639D01*
X162681006Y-48997997D01*
X162787441Y-49144494D01*
X162787445Y-49144499D01*
X162915500Y-49272554D01*
X162915505Y-49272558D01*
X163042591Y-49364890D01*
X163062006Y-49378996D01*
X163167484Y-49432740D01*
X163223360Y-49461211D01*
X163223363Y-49461212D01*
X163309476Y-49489191D01*
X163395591Y-49517171D01*
X163478429Y-49530291D01*
X163574449Y-49545500D01*
X163574454Y-49545500D01*
X163755551Y-49545500D01*
X163842259Y-49531765D01*
X163934409Y-49517171D01*
X164106639Y-49461211D01*
X164267994Y-49378996D01*
X164414501Y-49272553D01*
X164542553Y-49144501D01*
X164648996Y-48997994D01*
X164731211Y-48836639D01*
X164787171Y-48664409D01*
X164801765Y-48572259D01*
X164815500Y-48485551D01*
X164815500Y-48304448D01*
X164799019Y-48200397D01*
X164787171Y-48125591D01*
X164731211Y-47953361D01*
X164731211Y-47953360D01*
X164702740Y-47897484D01*
X164648996Y-47792006D01*
X164635396Y-47773287D01*
X164542558Y-47645505D01*
X164542554Y-47645500D01*
X164414499Y-47517445D01*
X164414494Y-47517441D01*
X164267997Y-47411006D01*
X164267996Y-47411005D01*
X164267994Y-47411004D01*
X164216300Y-47384664D01*
X164106639Y-47328788D01*
X164106636Y-47328787D01*
X163934410Y-47272829D01*
X163755551Y-47244500D01*
X163755546Y-47244500D01*
X163574454Y-47244500D01*
X163574449Y-47244500D01*
X163395589Y-47272829D01*
X163223363Y-47328787D01*
X163223360Y-47328788D01*
X163062002Y-47411006D01*
X162915505Y-47517441D01*
X162915500Y-47517445D01*
X162787445Y-47645500D01*
X162787441Y-47645505D01*
X162681006Y-47792002D01*
X162598788Y-47953360D01*
X162598787Y-47953363D01*
X162542829Y-48125589D01*
X162514500Y-48304448D01*
X123715500Y-48304448D01*
X123715500Y-46059998D01*
X129779532Y-46059998D01*
X129779532Y-46060001D01*
X129799364Y-46286686D01*
X129799366Y-46286697D01*
X129858258Y-46506488D01*
X129858261Y-46506497D01*
X129954431Y-46712732D01*
X129954432Y-46712734D01*
X130084954Y-46899141D01*
X130245858Y-47060045D01*
X130245861Y-47060047D01*
X130432266Y-47190568D01*
X130638504Y-47286739D01*
X130858308Y-47345635D01*
X131020230Y-47359801D01*
X131084998Y-47365468D01*
X131085000Y-47365468D01*
X131085002Y-47365468D01*
X131141673Y-47360509D01*
X131311692Y-47345635D01*
X131531496Y-47286739D01*
X131737734Y-47190568D01*
X131924139Y-47060047D01*
X132085047Y-46899139D01*
X132215568Y-46712734D01*
X132311739Y-46506496D01*
X132370635Y-46286692D01*
X132390468Y-46060000D01*
X132390468Y-46059998D01*
X139939532Y-46059998D01*
X139939532Y-46060001D01*
X139959364Y-46286686D01*
X139959366Y-46286697D01*
X140018258Y-46506488D01*
X140018261Y-46506497D01*
X140114431Y-46712732D01*
X140114432Y-46712734D01*
X140244954Y-46899141D01*
X140405858Y-47060045D01*
X140405861Y-47060047D01*
X140592266Y-47190568D01*
X140798504Y-47286739D01*
X141018308Y-47345635D01*
X141180230Y-47359801D01*
X141244998Y-47365468D01*
X141245000Y-47365468D01*
X141245002Y-47365468D01*
X141301673Y-47360509D01*
X141471692Y-47345635D01*
X141691496Y-47286739D01*
X141897734Y-47190568D01*
X142084139Y-47060047D01*
X142245047Y-46899139D01*
X142375568Y-46712734D01*
X142471739Y-46506496D01*
X142530635Y-46286692D01*
X142550468Y-46060000D01*
X142550468Y-46059998D01*
X184779532Y-46059998D01*
X184779532Y-46060001D01*
X184799364Y-46286686D01*
X184799366Y-46286697D01*
X184858258Y-46506488D01*
X184858261Y-46506497D01*
X184954431Y-46712732D01*
X184954432Y-46712734D01*
X185084954Y-46899141D01*
X185245858Y-47060045D01*
X185245861Y-47060047D01*
X185432266Y-47190568D01*
X185638504Y-47286739D01*
X185858308Y-47345635D01*
X186020230Y-47359801D01*
X186084998Y-47365468D01*
X186085000Y-47365468D01*
X186085002Y-47365468D01*
X186141673Y-47360509D01*
X186311692Y-47345635D01*
X186531496Y-47286739D01*
X186737734Y-47190568D01*
X186924139Y-47060047D01*
X187085047Y-46899139D01*
X187215568Y-46712734D01*
X187311739Y-46506496D01*
X187370635Y-46286692D01*
X187390468Y-46060000D01*
X187390468Y-46059998D01*
X194939532Y-46059998D01*
X194939532Y-46060001D01*
X194959364Y-46286686D01*
X194959366Y-46286697D01*
X195018258Y-46506488D01*
X195018261Y-46506497D01*
X195114431Y-46712732D01*
X195114432Y-46712734D01*
X195244954Y-46899141D01*
X195405858Y-47060045D01*
X195405861Y-47060047D01*
X195592266Y-47190568D01*
X195798504Y-47286739D01*
X196018308Y-47345635D01*
X196180230Y-47359801D01*
X196244998Y-47365468D01*
X196245000Y-47365468D01*
X196245002Y-47365468D01*
X196301673Y-47360509D01*
X196471692Y-47345635D01*
X196691496Y-47286739D01*
X196897734Y-47190568D01*
X197084139Y-47060047D01*
X197245047Y-46899139D01*
X197375568Y-46712734D01*
X197471739Y-46506496D01*
X197530635Y-46286692D01*
X197550468Y-46060000D01*
X197530635Y-45833308D01*
X197471739Y-45613504D01*
X197375568Y-45407266D01*
X197245047Y-45220861D01*
X197245045Y-45220858D01*
X197084141Y-45059954D01*
X196897734Y-44929432D01*
X196897732Y-44929431D01*
X196691497Y-44833261D01*
X196691488Y-44833258D01*
X196471697Y-44774366D01*
X196471693Y-44774365D01*
X196471692Y-44774365D01*
X196471691Y-44774364D01*
X196471686Y-44774364D01*
X196245002Y-44754532D01*
X196244998Y-44754532D01*
X196018313Y-44774364D01*
X196018302Y-44774366D01*
X195798511Y-44833258D01*
X195798502Y-44833261D01*
X195592267Y-44929431D01*
X195592265Y-44929432D01*
X195405858Y-45059954D01*
X195244954Y-45220858D01*
X195114432Y-45407265D01*
X195114431Y-45407267D01*
X195018261Y-45613502D01*
X195018258Y-45613511D01*
X194959366Y-45833302D01*
X194959364Y-45833313D01*
X194939532Y-46059998D01*
X187390468Y-46059998D01*
X187370635Y-45833308D01*
X187311739Y-45613504D01*
X187215568Y-45407266D01*
X187085047Y-45220861D01*
X187085045Y-45220858D01*
X186924141Y-45059954D01*
X186737734Y-44929432D01*
X186737732Y-44929431D01*
X186531497Y-44833261D01*
X186531488Y-44833258D01*
X186311697Y-44774366D01*
X186311693Y-44774365D01*
X186311692Y-44774365D01*
X186311691Y-44774364D01*
X186311686Y-44774364D01*
X186085002Y-44754532D01*
X186084998Y-44754532D01*
X185858313Y-44774364D01*
X185858302Y-44774366D01*
X185638511Y-44833258D01*
X185638502Y-44833261D01*
X185432267Y-44929431D01*
X185432265Y-44929432D01*
X185245858Y-45059954D01*
X185084954Y-45220858D01*
X184954432Y-45407265D01*
X184954431Y-45407267D01*
X184858261Y-45613502D01*
X184858258Y-45613511D01*
X184799366Y-45833302D01*
X184799364Y-45833313D01*
X184779532Y-46059998D01*
X142550468Y-46059998D01*
X142530635Y-45833308D01*
X142471739Y-45613504D01*
X142375568Y-45407266D01*
X142245047Y-45220861D01*
X142245045Y-45220858D01*
X142084141Y-45059954D01*
X141897734Y-44929432D01*
X141897732Y-44929431D01*
X141691497Y-44833261D01*
X141691488Y-44833258D01*
X141471697Y-44774366D01*
X141471693Y-44774365D01*
X141471692Y-44774365D01*
X141471691Y-44774364D01*
X141471686Y-44774364D01*
X141245002Y-44754532D01*
X141244998Y-44754532D01*
X141018313Y-44774364D01*
X141018302Y-44774366D01*
X140798511Y-44833258D01*
X140798502Y-44833261D01*
X140592267Y-44929431D01*
X140592265Y-44929432D01*
X140405858Y-45059954D01*
X140244954Y-45220858D01*
X140114432Y-45407265D01*
X140114431Y-45407267D01*
X140018261Y-45613502D01*
X140018258Y-45613511D01*
X139959366Y-45833302D01*
X139959364Y-45833313D01*
X139939532Y-46059998D01*
X132390468Y-46059998D01*
X132370635Y-45833308D01*
X132311739Y-45613504D01*
X132215568Y-45407266D01*
X132085047Y-45220861D01*
X132085045Y-45220858D01*
X131924141Y-45059954D01*
X131737734Y-44929432D01*
X131737732Y-44929431D01*
X131531497Y-44833261D01*
X131531488Y-44833258D01*
X131311697Y-44774366D01*
X131311693Y-44774365D01*
X131311692Y-44774365D01*
X131311691Y-44774364D01*
X131311686Y-44774364D01*
X131085002Y-44754532D01*
X131084998Y-44754532D01*
X130858313Y-44774364D01*
X130858302Y-44774366D01*
X130638511Y-44833258D01*
X130638502Y-44833261D01*
X130432267Y-44929431D01*
X130432265Y-44929432D01*
X130245858Y-45059954D01*
X130084954Y-45220858D01*
X129954432Y-45407265D01*
X129954431Y-45407267D01*
X129858261Y-45613502D01*
X129858258Y-45613511D01*
X129799366Y-45833302D01*
X129799364Y-45833313D01*
X129779532Y-46059998D01*
X123715500Y-46059998D01*
X123715500Y-40208711D01*
X124314500Y-40208711D01*
X124314500Y-40451288D01*
X124346161Y-40691785D01*
X124408947Y-40926104D01*
X124501773Y-41150205D01*
X124501776Y-41150212D01*
X124623064Y-41360289D01*
X124623066Y-41360292D01*
X124623067Y-41360293D01*
X124770733Y-41552736D01*
X124770739Y-41552743D01*
X124942256Y-41724260D01*
X124942262Y-41724265D01*
X125134711Y-41871936D01*
X125344788Y-41993224D01*
X125568900Y-42086054D01*
X125803211Y-42148838D01*
X125983586Y-42172584D01*
X126043711Y-42180500D01*
X126043712Y-42180500D01*
X126286289Y-42180500D01*
X126334388Y-42174167D01*
X126526789Y-42148838D01*
X126761100Y-42086054D01*
X126985212Y-41993224D01*
X127195289Y-41871936D01*
X127387738Y-41724265D01*
X127559265Y-41552738D01*
X127706936Y-41360289D01*
X127828224Y-41150212D01*
X127921054Y-40926100D01*
X127983838Y-40691789D01*
X128015500Y-40451288D01*
X128015500Y-40208712D01*
X128015500Y-40208711D01*
X199314500Y-40208711D01*
X199314500Y-40451288D01*
X199346161Y-40691785D01*
X199408947Y-40926104D01*
X199501773Y-41150205D01*
X199501776Y-41150212D01*
X199623064Y-41360289D01*
X199623066Y-41360292D01*
X199623067Y-41360293D01*
X199770733Y-41552736D01*
X199770739Y-41552743D01*
X199942256Y-41724260D01*
X199942262Y-41724265D01*
X200134711Y-41871936D01*
X200344788Y-41993224D01*
X200568900Y-42086054D01*
X200803211Y-42148838D01*
X200983586Y-42172584D01*
X201043711Y-42180500D01*
X201043712Y-42180500D01*
X201286289Y-42180500D01*
X201334388Y-42174167D01*
X201526789Y-42148838D01*
X201761100Y-42086054D01*
X201985212Y-41993224D01*
X202195289Y-41871936D01*
X202387738Y-41724265D01*
X202559265Y-41552738D01*
X202706936Y-41360289D01*
X202828224Y-41150212D01*
X202921054Y-40926100D01*
X202983838Y-40691789D01*
X203015500Y-40451288D01*
X203015500Y-40208712D01*
X202983838Y-39968211D01*
X202921054Y-39733900D01*
X202828224Y-39509788D01*
X202706936Y-39299711D01*
X202559265Y-39107262D01*
X202559260Y-39107256D01*
X202387743Y-38935739D01*
X202387736Y-38935733D01*
X202195293Y-38788067D01*
X202195292Y-38788066D01*
X202195289Y-38788064D01*
X201985212Y-38666776D01*
X201985205Y-38666773D01*
X201761104Y-38573947D01*
X201526785Y-38511161D01*
X201286289Y-38479500D01*
X201286288Y-38479500D01*
X201043712Y-38479500D01*
X201043711Y-38479500D01*
X200803214Y-38511161D01*
X200568895Y-38573947D01*
X200344794Y-38666773D01*
X200344785Y-38666777D01*
X200134706Y-38788067D01*
X199942263Y-38935733D01*
X199942256Y-38935739D01*
X199770739Y-39107256D01*
X199770733Y-39107263D01*
X199623067Y-39299706D01*
X199501777Y-39509785D01*
X199501773Y-39509794D01*
X199408947Y-39733895D01*
X199346161Y-39968214D01*
X199314500Y-40208711D01*
X128015500Y-40208711D01*
X127983838Y-39968211D01*
X127921054Y-39733900D01*
X127828224Y-39509788D01*
X127706936Y-39299711D01*
X127559265Y-39107262D01*
X127559260Y-39107256D01*
X127387743Y-38935739D01*
X127387736Y-38935733D01*
X127195293Y-38788067D01*
X127195292Y-38788066D01*
X127195289Y-38788064D01*
X126985212Y-38666776D01*
X126985205Y-38666773D01*
X126761104Y-38573947D01*
X126526785Y-38511161D01*
X126286289Y-38479500D01*
X126286288Y-38479500D01*
X126043712Y-38479500D01*
X126043711Y-38479500D01*
X125803214Y-38511161D01*
X125568895Y-38573947D01*
X125344794Y-38666773D01*
X125344785Y-38666777D01*
X125134706Y-38788067D01*
X124942263Y-38935733D01*
X124942256Y-38935739D01*
X124770739Y-39107256D01*
X124770733Y-39107263D01*
X124623067Y-39299706D01*
X124501777Y-39509785D01*
X124501773Y-39509794D01*
X124408947Y-39733895D01*
X124346161Y-39968214D01*
X124314500Y-40208711D01*
X123715500Y-40208711D01*
X123715500Y-38004500D01*
X123735185Y-37937461D01*
X123787989Y-37891706D01*
X123839500Y-37880500D01*
X203490500Y-37880500D01*
X203557539Y-37900185D01*
G37*
%TD.AperFunction*%
%TD*%
D19*
X122665000Y-36830000D02*
X204665000Y-36830000D01*
X204665000Y-86830000D01*
X122665000Y-86830000D01*
X122665000Y-36830000D01*
M02*
