%TF.GenerationSoftware,KiCad,Pcbnew,8.0.5*%
%TF.CreationDate,2025-02-06T11:18:47+08:00*%
%TF.ProjectId,arduino_solar_bikelight_2,61726475-696e-46f5-9f73-6f6c61725f62,rev?*%
%TF.SameCoordinates,Original*%
%TF.FileFunction,Drillmap*%
%TF.FilePolarity,Positive*%
%FSLAX45Y45*%
G04 Gerber Fmt 4.5, Leading zero omitted, Abs format (unit mm)*
G04 Created by KiCad (PCBNEW 8.0.5) date 2025-02-06 11:18:47*
%MOMM*%
%LPD*%
G01*
G04 APERTURE LIST*
%ADD10C,0.050000*%
%ADD11C,0.200000*%
%ADD12C,0.100000*%
%ADD13C,0.120000*%
G04 APERTURE END LIST*
D10*
X12266500Y-3683000D02*
X20466500Y-3683000D01*
X20466500Y-8683000D01*
X12266500Y-8683000D01*
X12266500Y-3683000D01*
D11*
D12*
X13068500Y-4566000D02*
X13148500Y-4646000D01*
X13148500Y-4566000D02*
X13068500Y-4646000D01*
X13068500Y-7066000D02*
X13148500Y-7146000D01*
X13148500Y-7066000D02*
X13068500Y-7146000D01*
X14084500Y-4566000D02*
X14164500Y-4646000D01*
X14164500Y-4566000D02*
X14084500Y-4646000D01*
X14084500Y-7066000D02*
X14164500Y-7146000D01*
X14164500Y-7066000D02*
X14084500Y-7146000D01*
X14318500Y-5799500D02*
X14398500Y-5879500D01*
X14398500Y-5799500D02*
X14318500Y-5879500D01*
X14318500Y-6599500D02*
X14398500Y-6679500D01*
X14398500Y-6599500D02*
X14318500Y-6679500D01*
X15334500Y-5799500D02*
X15414500Y-5879500D01*
X15414500Y-5799500D02*
X15334500Y-5879500D01*
X15334500Y-6599500D02*
X15414500Y-6679500D01*
X15414500Y-6599500D02*
X15334500Y-6679500D01*
X15818500Y-6704500D02*
X15898500Y-6784500D01*
X15898500Y-6704500D02*
X15818500Y-6784500D01*
X16834500Y-6704500D02*
X16914500Y-6784500D01*
X16914500Y-6704500D02*
X16834500Y-6784500D01*
X17318500Y-5799500D02*
X17398500Y-5879500D01*
X17398500Y-5799500D02*
X17318500Y-5879500D01*
X17318500Y-6599500D02*
X17398500Y-6679500D01*
X17398500Y-6599500D02*
X17318500Y-6679500D01*
X18334500Y-5799500D02*
X18414500Y-5879500D01*
X18414500Y-5799500D02*
X18334500Y-5879500D01*
X18334500Y-6599500D02*
X18414500Y-6679500D01*
X18414500Y-6599500D02*
X18334500Y-6679500D01*
X18568500Y-4566000D02*
X18648500Y-4646000D01*
X18648500Y-4566000D02*
X18568500Y-4646000D01*
X18568500Y-7066000D02*
X18648500Y-7146000D01*
X18648500Y-7066000D02*
X18568500Y-7146000D01*
X19584500Y-4566000D02*
X19664500Y-4646000D01*
X19664500Y-4566000D02*
X19584500Y-4646000D01*
X19584500Y-7066000D02*
X19664500Y-7146000D01*
X19664500Y-7066000D02*
X19584500Y-7146000D01*
X13526500Y-5101000D02*
G75*
G02*
X13436500Y-5101000I-45000J0D01*
G01*
X13436500Y-5101000D02*
G75*
G02*
X13526500Y-5101000I45000J0D01*
G01*
X13526500Y-7601000D02*
G75*
G02*
X13436500Y-7601000I-45000J0D01*
G01*
X13436500Y-7601000D02*
G75*
G02*
X13526500Y-7601000I45000J0D01*
G01*
X13780500Y-5101000D02*
G75*
G02*
X13690500Y-5101000I-45000J0D01*
G01*
X13690500Y-5101000D02*
G75*
G02*
X13780500Y-5101000I45000J0D01*
G01*
X13780500Y-7601000D02*
G75*
G02*
X13690500Y-7601000I-45000J0D01*
G01*
X13690500Y-7601000D02*
G75*
G02*
X13780500Y-7601000I45000J0D01*
G01*
X14776500Y-5101000D02*
G75*
G02*
X14686500Y-5101000I-45000J0D01*
G01*
X14686500Y-5101000D02*
G75*
G02*
X14776500Y-5101000I45000J0D01*
G01*
X14776500Y-7601000D02*
G75*
G02*
X14686500Y-7601000I-45000J0D01*
G01*
X14686500Y-7601000D02*
G75*
G02*
X14776500Y-7601000I45000J0D01*
G01*
X15030500Y-5101000D02*
G75*
G02*
X14940500Y-5101000I-45000J0D01*
G01*
X14940500Y-5101000D02*
G75*
G02*
X15030500Y-5101000I45000J0D01*
G01*
X15030500Y-7601000D02*
G75*
G02*
X14940500Y-7601000I-45000J0D01*
G01*
X14940500Y-7601000D02*
G75*
G02*
X15030500Y-7601000I45000J0D01*
G01*
X16276500Y-7239500D02*
G75*
G02*
X16186500Y-7239500I-45000J0D01*
G01*
X16186500Y-7239500D02*
G75*
G02*
X16276500Y-7239500I45000J0D01*
G01*
X16530500Y-7239500D02*
G75*
G02*
X16440500Y-7239500I-45000J0D01*
G01*
X16440500Y-7239500D02*
G75*
G02*
X16530500Y-7239500I45000J0D01*
G01*
X17776500Y-5101000D02*
G75*
G02*
X17686500Y-5101000I-45000J0D01*
G01*
X17686500Y-5101000D02*
G75*
G02*
X17776500Y-5101000I45000J0D01*
G01*
X17776500Y-7601000D02*
G75*
G02*
X17686500Y-7601000I-45000J0D01*
G01*
X17686500Y-7601000D02*
G75*
G02*
X17776500Y-7601000I45000J0D01*
G01*
X18030500Y-5101000D02*
G75*
G02*
X17940500Y-5101000I-45000J0D01*
G01*
X17940500Y-5101000D02*
G75*
G02*
X18030500Y-5101000I45000J0D01*
G01*
X18030500Y-7601000D02*
G75*
G02*
X17940500Y-7601000I-45000J0D01*
G01*
X17940500Y-7601000D02*
G75*
G02*
X18030500Y-7601000I45000J0D01*
G01*
X19026500Y-5101000D02*
G75*
G02*
X18936500Y-5101000I-45000J0D01*
G01*
X18936500Y-5101000D02*
G75*
G02*
X19026500Y-5101000I45000J0D01*
G01*
X19026500Y-7601000D02*
G75*
G02*
X18936500Y-7601000I-45000J0D01*
G01*
X18936500Y-7601000D02*
G75*
G02*
X19026500Y-7601000I45000J0D01*
G01*
X19280500Y-5101000D02*
G75*
G02*
X19190500Y-5101000I-45000J0D01*
G01*
X19190500Y-5101000D02*
G75*
G02*
X19280500Y-5101000I45000J0D01*
G01*
X19280500Y-7601000D02*
G75*
G02*
X19190500Y-7601000I-45000J0D01*
G01*
X19190500Y-7601000D02*
G75*
G02*
X19280500Y-7601000I45000J0D01*
G01*
X12764000Y-5628000D02*
X12764000Y-5728000D01*
X12714000Y-5678000D02*
X12814000Y-5678000D01*
X12764000Y-5882000D02*
X12764000Y-5982000D01*
X12714000Y-5932000D02*
X12814000Y-5932000D01*
X12764000Y-6136000D02*
X12764000Y-6236000D01*
X12714000Y-6186000D02*
X12814000Y-6186000D01*
X12764000Y-6390000D02*
X12764000Y-6490000D01*
X12714000Y-6440000D02*
X12814000Y-6440000D01*
X12764000Y-6644000D02*
X12764000Y-6744000D01*
X12714000Y-6694000D02*
X12814000Y-6694000D01*
X19814000Y-5628000D02*
X19814000Y-5728000D01*
X19764000Y-5678000D02*
X19864000Y-5678000D01*
X19814000Y-5882000D02*
X19814000Y-5982000D01*
X19764000Y-5932000D02*
X19864000Y-5932000D01*
X19814000Y-6136000D02*
X19814000Y-6236000D01*
X19764000Y-6186000D02*
X19864000Y-6186000D01*
X19814000Y-6390000D02*
X19814000Y-6490000D01*
X19764000Y-6440000D02*
X19864000Y-6440000D01*
X19814000Y-6644000D02*
X19814000Y-6744000D01*
X19764000Y-6694000D02*
X19864000Y-6694000D01*
D13*
X15783927Y-5081927D02*
X15783927Y-4997073D01*
X15699073Y-4997073D01*
X15699073Y-5081927D01*
X15783927Y-5081927D01*
X15783927Y-5581927D02*
X15783927Y-5497073D01*
X15699073Y-5497073D01*
X15699073Y-5581927D01*
X15783927Y-5581927D01*
X17033927Y-5081927D02*
X17033927Y-4997073D01*
X16949073Y-4997073D01*
X16949073Y-5081927D01*
X17033927Y-5081927D01*
X17033927Y-5581927D02*
X17033927Y-5497073D01*
X16949073Y-5497073D01*
X16949073Y-5581927D01*
X17033927Y-5581927D01*
D11*
X12524777Y-8996984D02*
X12524777Y-8796984D01*
X12524777Y-8796984D02*
X12572396Y-8796984D01*
X12572396Y-8796984D02*
X12600967Y-8806508D01*
X12600967Y-8806508D02*
X12620015Y-8825555D01*
X12620015Y-8825555D02*
X12629539Y-8844603D01*
X12629539Y-8844603D02*
X12639062Y-8882698D01*
X12639062Y-8882698D02*
X12639062Y-8911270D01*
X12639062Y-8911270D02*
X12629539Y-8949365D01*
X12629539Y-8949365D02*
X12620015Y-8968412D01*
X12620015Y-8968412D02*
X12600967Y-8987460D01*
X12600967Y-8987460D02*
X12572396Y-8996984D01*
X12572396Y-8996984D02*
X12524777Y-8996984D01*
X12724777Y-8996984D02*
X12724777Y-8863650D01*
X12724777Y-8901746D02*
X12734301Y-8882698D01*
X12734301Y-8882698D02*
X12743824Y-8873174D01*
X12743824Y-8873174D02*
X12762872Y-8863650D01*
X12762872Y-8863650D02*
X12781920Y-8863650D01*
X12848586Y-8996984D02*
X12848586Y-8863650D01*
X12848586Y-8796984D02*
X12839062Y-8806508D01*
X12839062Y-8806508D02*
X12848586Y-8816031D01*
X12848586Y-8816031D02*
X12858110Y-8806508D01*
X12858110Y-8806508D02*
X12848586Y-8796984D01*
X12848586Y-8796984D02*
X12848586Y-8816031D01*
X12972396Y-8996984D02*
X12953348Y-8987460D01*
X12953348Y-8987460D02*
X12943824Y-8968412D01*
X12943824Y-8968412D02*
X12943824Y-8796984D01*
X13077158Y-8996984D02*
X13058110Y-8987460D01*
X13058110Y-8987460D02*
X13048586Y-8968412D01*
X13048586Y-8968412D02*
X13048586Y-8796984D01*
X13305729Y-8996984D02*
X13305729Y-8796984D01*
X13305729Y-8796984D02*
X13372396Y-8939841D01*
X13372396Y-8939841D02*
X13439062Y-8796984D01*
X13439062Y-8796984D02*
X13439062Y-8996984D01*
X13620015Y-8996984D02*
X13620015Y-8892222D01*
X13620015Y-8892222D02*
X13610491Y-8873174D01*
X13610491Y-8873174D02*
X13591443Y-8863650D01*
X13591443Y-8863650D02*
X13553348Y-8863650D01*
X13553348Y-8863650D02*
X13534301Y-8873174D01*
X13620015Y-8987460D02*
X13600967Y-8996984D01*
X13600967Y-8996984D02*
X13553348Y-8996984D01*
X13553348Y-8996984D02*
X13534301Y-8987460D01*
X13534301Y-8987460D02*
X13524777Y-8968412D01*
X13524777Y-8968412D02*
X13524777Y-8949365D01*
X13524777Y-8949365D02*
X13534301Y-8930317D01*
X13534301Y-8930317D02*
X13553348Y-8920793D01*
X13553348Y-8920793D02*
X13600967Y-8920793D01*
X13600967Y-8920793D02*
X13620015Y-8911270D01*
X13715253Y-8863650D02*
X13715253Y-9063650D01*
X13715253Y-8873174D02*
X13734301Y-8863650D01*
X13734301Y-8863650D02*
X13772396Y-8863650D01*
X13772396Y-8863650D02*
X13791443Y-8873174D01*
X13791443Y-8873174D02*
X13800967Y-8882698D01*
X13800967Y-8882698D02*
X13810491Y-8901746D01*
X13810491Y-8901746D02*
X13810491Y-8958889D01*
X13810491Y-8958889D02*
X13800967Y-8977936D01*
X13800967Y-8977936D02*
X13791443Y-8987460D01*
X13791443Y-8987460D02*
X13772396Y-8996984D01*
X13772396Y-8996984D02*
X13734301Y-8996984D01*
X13734301Y-8996984D02*
X13715253Y-8987460D01*
X13896205Y-8977936D02*
X13905729Y-8987460D01*
X13905729Y-8987460D02*
X13896205Y-8996984D01*
X13896205Y-8996984D02*
X13886682Y-8987460D01*
X13886682Y-8987460D02*
X13896205Y-8977936D01*
X13896205Y-8977936D02*
X13896205Y-8996984D01*
X13896205Y-8873174D02*
X13905729Y-8882698D01*
X13905729Y-8882698D02*
X13896205Y-8892222D01*
X13896205Y-8892222D02*
X13886682Y-8882698D01*
X13886682Y-8882698D02*
X13896205Y-8873174D01*
X13896205Y-8873174D02*
X13896205Y-8892222D01*
D12*
X12184000Y-9285500D02*
X12264000Y-9365500D01*
X12264000Y-9285500D02*
X12184000Y-9365500D01*
D11*
X12562872Y-9216984D02*
X12581920Y-9216984D01*
X12581920Y-9216984D02*
X12600967Y-9226508D01*
X12600967Y-9226508D02*
X12610491Y-9236031D01*
X12610491Y-9236031D02*
X12620015Y-9255079D01*
X12620015Y-9255079D02*
X12629539Y-9293174D01*
X12629539Y-9293174D02*
X12629539Y-9340793D01*
X12629539Y-9340793D02*
X12620015Y-9378889D01*
X12620015Y-9378889D02*
X12610491Y-9397936D01*
X12610491Y-9397936D02*
X12600967Y-9407460D01*
X12600967Y-9407460D02*
X12581920Y-9416984D01*
X12581920Y-9416984D02*
X12562872Y-9416984D01*
X12562872Y-9416984D02*
X12543824Y-9407460D01*
X12543824Y-9407460D02*
X12534301Y-9397936D01*
X12534301Y-9397936D02*
X12524777Y-9378889D01*
X12524777Y-9378889D02*
X12515253Y-9340793D01*
X12515253Y-9340793D02*
X12515253Y-9293174D01*
X12515253Y-9293174D02*
X12524777Y-9255079D01*
X12524777Y-9255079D02*
X12534301Y-9236031D01*
X12534301Y-9236031D02*
X12543824Y-9226508D01*
X12543824Y-9226508D02*
X12562872Y-9216984D01*
X12715253Y-9397936D02*
X12724777Y-9407460D01*
X12724777Y-9407460D02*
X12715253Y-9416984D01*
X12715253Y-9416984D02*
X12705729Y-9407460D01*
X12705729Y-9407460D02*
X12715253Y-9397936D01*
X12715253Y-9397936D02*
X12715253Y-9416984D01*
X12839062Y-9302698D02*
X12820015Y-9293174D01*
X12820015Y-9293174D02*
X12810491Y-9283650D01*
X12810491Y-9283650D02*
X12800967Y-9264603D01*
X12800967Y-9264603D02*
X12800967Y-9255079D01*
X12800967Y-9255079D02*
X12810491Y-9236031D01*
X12810491Y-9236031D02*
X12820015Y-9226508D01*
X12820015Y-9226508D02*
X12839062Y-9216984D01*
X12839062Y-9216984D02*
X12877158Y-9216984D01*
X12877158Y-9216984D02*
X12896205Y-9226508D01*
X12896205Y-9226508D02*
X12905729Y-9236031D01*
X12905729Y-9236031D02*
X12915253Y-9255079D01*
X12915253Y-9255079D02*
X12915253Y-9264603D01*
X12915253Y-9264603D02*
X12905729Y-9283650D01*
X12905729Y-9283650D02*
X12896205Y-9293174D01*
X12896205Y-9293174D02*
X12877158Y-9302698D01*
X12877158Y-9302698D02*
X12839062Y-9302698D01*
X12839062Y-9302698D02*
X12820015Y-9312222D01*
X12820015Y-9312222D02*
X12810491Y-9321746D01*
X12810491Y-9321746D02*
X12800967Y-9340793D01*
X12800967Y-9340793D02*
X12800967Y-9378889D01*
X12800967Y-9378889D02*
X12810491Y-9397936D01*
X12810491Y-9397936D02*
X12820015Y-9407460D01*
X12820015Y-9407460D02*
X12839062Y-9416984D01*
X12839062Y-9416984D02*
X12877158Y-9416984D01*
X12877158Y-9416984D02*
X12896205Y-9407460D01*
X12896205Y-9407460D02*
X12905729Y-9397936D01*
X12905729Y-9397936D02*
X12915253Y-9378889D01*
X12915253Y-9378889D02*
X12915253Y-9340793D01*
X12915253Y-9340793D02*
X12905729Y-9321746D01*
X12905729Y-9321746D02*
X12896205Y-9312222D01*
X12896205Y-9312222D02*
X12877158Y-9302698D01*
X13039062Y-9216984D02*
X13058110Y-9216984D01*
X13058110Y-9216984D02*
X13077158Y-9226508D01*
X13077158Y-9226508D02*
X13086682Y-9236031D01*
X13086682Y-9236031D02*
X13096205Y-9255079D01*
X13096205Y-9255079D02*
X13105729Y-9293174D01*
X13105729Y-9293174D02*
X13105729Y-9340793D01*
X13105729Y-9340793D02*
X13096205Y-9378889D01*
X13096205Y-9378889D02*
X13086682Y-9397936D01*
X13086682Y-9397936D02*
X13077158Y-9407460D01*
X13077158Y-9407460D02*
X13058110Y-9416984D01*
X13058110Y-9416984D02*
X13039062Y-9416984D01*
X13039062Y-9416984D02*
X13020015Y-9407460D01*
X13020015Y-9407460D02*
X13010491Y-9397936D01*
X13010491Y-9397936D02*
X13000967Y-9378889D01*
X13000967Y-9378889D02*
X12991443Y-9340793D01*
X12991443Y-9340793D02*
X12991443Y-9293174D01*
X12991443Y-9293174D02*
X13000967Y-9255079D01*
X13000967Y-9255079D02*
X13010491Y-9236031D01*
X13010491Y-9236031D02*
X13020015Y-9226508D01*
X13020015Y-9226508D02*
X13039062Y-9216984D01*
X13229539Y-9216984D02*
X13248586Y-9216984D01*
X13248586Y-9216984D02*
X13267634Y-9226508D01*
X13267634Y-9226508D02*
X13277158Y-9236031D01*
X13277158Y-9236031D02*
X13286682Y-9255079D01*
X13286682Y-9255079D02*
X13296205Y-9293174D01*
X13296205Y-9293174D02*
X13296205Y-9340793D01*
X13296205Y-9340793D02*
X13286682Y-9378889D01*
X13286682Y-9378889D02*
X13277158Y-9397936D01*
X13277158Y-9397936D02*
X13267634Y-9407460D01*
X13267634Y-9407460D02*
X13248586Y-9416984D01*
X13248586Y-9416984D02*
X13229539Y-9416984D01*
X13229539Y-9416984D02*
X13210491Y-9407460D01*
X13210491Y-9407460D02*
X13200967Y-9397936D01*
X13200967Y-9397936D02*
X13191443Y-9378889D01*
X13191443Y-9378889D02*
X13181920Y-9340793D01*
X13181920Y-9340793D02*
X13181920Y-9293174D01*
X13181920Y-9293174D02*
X13191443Y-9255079D01*
X13191443Y-9255079D02*
X13200967Y-9236031D01*
X13200967Y-9236031D02*
X13210491Y-9226508D01*
X13210491Y-9226508D02*
X13229539Y-9216984D01*
X13381920Y-9416984D02*
X13381920Y-9283650D01*
X13381920Y-9302698D02*
X13391443Y-9293174D01*
X13391443Y-9293174D02*
X13410491Y-9283650D01*
X13410491Y-9283650D02*
X13439063Y-9283650D01*
X13439063Y-9283650D02*
X13458110Y-9293174D01*
X13458110Y-9293174D02*
X13467634Y-9312222D01*
X13467634Y-9312222D02*
X13467634Y-9416984D01*
X13467634Y-9312222D02*
X13477158Y-9293174D01*
X13477158Y-9293174D02*
X13496205Y-9283650D01*
X13496205Y-9283650D02*
X13524777Y-9283650D01*
X13524777Y-9283650D02*
X13543824Y-9293174D01*
X13543824Y-9293174D02*
X13553348Y-9312222D01*
X13553348Y-9312222D02*
X13553348Y-9416984D01*
X13648586Y-9416984D02*
X13648586Y-9283650D01*
X13648586Y-9302698D02*
X13658110Y-9293174D01*
X13658110Y-9293174D02*
X13677158Y-9283650D01*
X13677158Y-9283650D02*
X13705729Y-9283650D01*
X13705729Y-9283650D02*
X13724777Y-9293174D01*
X13724777Y-9293174D02*
X13734301Y-9312222D01*
X13734301Y-9312222D02*
X13734301Y-9416984D01*
X13734301Y-9312222D02*
X13743824Y-9293174D01*
X13743824Y-9293174D02*
X13762872Y-9283650D01*
X13762872Y-9283650D02*
X13791443Y-9283650D01*
X13791443Y-9283650D02*
X13810491Y-9293174D01*
X13810491Y-9293174D02*
X13820015Y-9312222D01*
X13820015Y-9312222D02*
X13820015Y-9416984D01*
X14210491Y-9207460D02*
X14039063Y-9464603D01*
X14467634Y-9216984D02*
X14486682Y-9216984D01*
X14486682Y-9216984D02*
X14505729Y-9226508D01*
X14505729Y-9226508D02*
X14515253Y-9236031D01*
X14515253Y-9236031D02*
X14524777Y-9255079D01*
X14524777Y-9255079D02*
X14534301Y-9293174D01*
X14534301Y-9293174D02*
X14534301Y-9340793D01*
X14534301Y-9340793D02*
X14524777Y-9378889D01*
X14524777Y-9378889D02*
X14515253Y-9397936D01*
X14515253Y-9397936D02*
X14505729Y-9407460D01*
X14505729Y-9407460D02*
X14486682Y-9416984D01*
X14486682Y-9416984D02*
X14467634Y-9416984D01*
X14467634Y-9416984D02*
X14448586Y-9407460D01*
X14448586Y-9407460D02*
X14439063Y-9397936D01*
X14439063Y-9397936D02*
X14429539Y-9378889D01*
X14429539Y-9378889D02*
X14420015Y-9340793D01*
X14420015Y-9340793D02*
X14420015Y-9293174D01*
X14420015Y-9293174D02*
X14429539Y-9255079D01*
X14429539Y-9255079D02*
X14439063Y-9236031D01*
X14439063Y-9236031D02*
X14448586Y-9226508D01*
X14448586Y-9226508D02*
X14467634Y-9216984D01*
X14620015Y-9397936D02*
X14629539Y-9407460D01*
X14629539Y-9407460D02*
X14620015Y-9416984D01*
X14620015Y-9416984D02*
X14610491Y-9407460D01*
X14610491Y-9407460D02*
X14620015Y-9397936D01*
X14620015Y-9397936D02*
X14620015Y-9416984D01*
X14753348Y-9216984D02*
X14772396Y-9216984D01*
X14772396Y-9216984D02*
X14791444Y-9226508D01*
X14791444Y-9226508D02*
X14800967Y-9236031D01*
X14800967Y-9236031D02*
X14810491Y-9255079D01*
X14810491Y-9255079D02*
X14820015Y-9293174D01*
X14820015Y-9293174D02*
X14820015Y-9340793D01*
X14820015Y-9340793D02*
X14810491Y-9378889D01*
X14810491Y-9378889D02*
X14800967Y-9397936D01*
X14800967Y-9397936D02*
X14791444Y-9407460D01*
X14791444Y-9407460D02*
X14772396Y-9416984D01*
X14772396Y-9416984D02*
X14753348Y-9416984D01*
X14753348Y-9416984D02*
X14734301Y-9407460D01*
X14734301Y-9407460D02*
X14724777Y-9397936D01*
X14724777Y-9397936D02*
X14715253Y-9378889D01*
X14715253Y-9378889D02*
X14705729Y-9340793D01*
X14705729Y-9340793D02*
X14705729Y-9293174D01*
X14705729Y-9293174D02*
X14715253Y-9255079D01*
X14715253Y-9255079D02*
X14724777Y-9236031D01*
X14724777Y-9236031D02*
X14734301Y-9226508D01*
X14734301Y-9226508D02*
X14753348Y-9216984D01*
X14886682Y-9216984D02*
X15010491Y-9216984D01*
X15010491Y-9216984D02*
X14943825Y-9293174D01*
X14943825Y-9293174D02*
X14972396Y-9293174D01*
X14972396Y-9293174D02*
X14991444Y-9302698D01*
X14991444Y-9302698D02*
X15000967Y-9312222D01*
X15000967Y-9312222D02*
X15010491Y-9331270D01*
X15010491Y-9331270D02*
X15010491Y-9378889D01*
X15010491Y-9378889D02*
X15000967Y-9397936D01*
X15000967Y-9397936D02*
X14991444Y-9407460D01*
X14991444Y-9407460D02*
X14972396Y-9416984D01*
X14972396Y-9416984D02*
X14915253Y-9416984D01*
X14915253Y-9416984D02*
X14896206Y-9407460D01*
X14896206Y-9407460D02*
X14886682Y-9397936D01*
X15200967Y-9416984D02*
X15086682Y-9416984D01*
X15143825Y-9416984D02*
X15143825Y-9216984D01*
X15143825Y-9216984D02*
X15124777Y-9245555D01*
X15124777Y-9245555D02*
X15105729Y-9264603D01*
X15105729Y-9264603D02*
X15086682Y-9274127D01*
X15381920Y-9216984D02*
X15286682Y-9216984D01*
X15286682Y-9216984D02*
X15277158Y-9312222D01*
X15277158Y-9312222D02*
X15286682Y-9302698D01*
X15286682Y-9302698D02*
X15305729Y-9293174D01*
X15305729Y-9293174D02*
X15353348Y-9293174D01*
X15353348Y-9293174D02*
X15372396Y-9302698D01*
X15372396Y-9302698D02*
X15381920Y-9312222D01*
X15381920Y-9312222D02*
X15391444Y-9331270D01*
X15391444Y-9331270D02*
X15391444Y-9378889D01*
X15391444Y-9378889D02*
X15381920Y-9397936D01*
X15381920Y-9397936D02*
X15372396Y-9407460D01*
X15372396Y-9407460D02*
X15353348Y-9416984D01*
X15353348Y-9416984D02*
X15305729Y-9416984D01*
X15305729Y-9416984D02*
X15286682Y-9407460D01*
X15286682Y-9407460D02*
X15277158Y-9397936D01*
X15467634Y-9216984D02*
X15467634Y-9255079D01*
X15543825Y-9216984D02*
X15543825Y-9255079D01*
X15839063Y-9493174D02*
X15829539Y-9483650D01*
X15829539Y-9483650D02*
X15810491Y-9455079D01*
X15810491Y-9455079D02*
X15800968Y-9436031D01*
X15800968Y-9436031D02*
X15791444Y-9407460D01*
X15791444Y-9407460D02*
X15781920Y-9359841D01*
X15781920Y-9359841D02*
X15781920Y-9321746D01*
X15781920Y-9321746D02*
X15791444Y-9274127D01*
X15791444Y-9274127D02*
X15800968Y-9245555D01*
X15800968Y-9245555D02*
X15810491Y-9226508D01*
X15810491Y-9226508D02*
X15829539Y-9197936D01*
X15829539Y-9197936D02*
X15839063Y-9188412D01*
X16020015Y-9416984D02*
X15905729Y-9416984D01*
X15962872Y-9416984D02*
X15962872Y-9216984D01*
X15962872Y-9216984D02*
X15943825Y-9245555D01*
X15943825Y-9245555D02*
X15924777Y-9264603D01*
X15924777Y-9264603D02*
X15905729Y-9274127D01*
X16134301Y-9302698D02*
X16115253Y-9293174D01*
X16115253Y-9293174D02*
X16105729Y-9283650D01*
X16105729Y-9283650D02*
X16096206Y-9264603D01*
X16096206Y-9264603D02*
X16096206Y-9255079D01*
X16096206Y-9255079D02*
X16105729Y-9236031D01*
X16105729Y-9236031D02*
X16115253Y-9226508D01*
X16115253Y-9226508D02*
X16134301Y-9216984D01*
X16134301Y-9216984D02*
X16172396Y-9216984D01*
X16172396Y-9216984D02*
X16191444Y-9226508D01*
X16191444Y-9226508D02*
X16200968Y-9236031D01*
X16200968Y-9236031D02*
X16210491Y-9255079D01*
X16210491Y-9255079D02*
X16210491Y-9264603D01*
X16210491Y-9264603D02*
X16200968Y-9283650D01*
X16200968Y-9283650D02*
X16191444Y-9293174D01*
X16191444Y-9293174D02*
X16172396Y-9302698D01*
X16172396Y-9302698D02*
X16134301Y-9302698D01*
X16134301Y-9302698D02*
X16115253Y-9312222D01*
X16115253Y-9312222D02*
X16105729Y-9321746D01*
X16105729Y-9321746D02*
X16096206Y-9340793D01*
X16096206Y-9340793D02*
X16096206Y-9378889D01*
X16096206Y-9378889D02*
X16105729Y-9397936D01*
X16105729Y-9397936D02*
X16115253Y-9407460D01*
X16115253Y-9407460D02*
X16134301Y-9416984D01*
X16134301Y-9416984D02*
X16172396Y-9416984D01*
X16172396Y-9416984D02*
X16191444Y-9407460D01*
X16191444Y-9407460D02*
X16200968Y-9397936D01*
X16200968Y-9397936D02*
X16210491Y-9378889D01*
X16210491Y-9378889D02*
X16210491Y-9340793D01*
X16210491Y-9340793D02*
X16200968Y-9321746D01*
X16200968Y-9321746D02*
X16191444Y-9312222D01*
X16191444Y-9312222D02*
X16172396Y-9302698D01*
X16448587Y-9416984D02*
X16448587Y-9216984D01*
X16534301Y-9416984D02*
X16534301Y-9312222D01*
X16534301Y-9312222D02*
X16524777Y-9293174D01*
X16524777Y-9293174D02*
X16505730Y-9283650D01*
X16505730Y-9283650D02*
X16477158Y-9283650D01*
X16477158Y-9283650D02*
X16458110Y-9293174D01*
X16458110Y-9293174D02*
X16448587Y-9302698D01*
X16658110Y-9416984D02*
X16639063Y-9407460D01*
X16639063Y-9407460D02*
X16629539Y-9397936D01*
X16629539Y-9397936D02*
X16620015Y-9378889D01*
X16620015Y-9378889D02*
X16620015Y-9321746D01*
X16620015Y-9321746D02*
X16629539Y-9302698D01*
X16629539Y-9302698D02*
X16639063Y-9293174D01*
X16639063Y-9293174D02*
X16658110Y-9283650D01*
X16658110Y-9283650D02*
X16686682Y-9283650D01*
X16686682Y-9283650D02*
X16705730Y-9293174D01*
X16705730Y-9293174D02*
X16715253Y-9302698D01*
X16715253Y-9302698D02*
X16724777Y-9321746D01*
X16724777Y-9321746D02*
X16724777Y-9378889D01*
X16724777Y-9378889D02*
X16715253Y-9397936D01*
X16715253Y-9397936D02*
X16705730Y-9407460D01*
X16705730Y-9407460D02*
X16686682Y-9416984D01*
X16686682Y-9416984D02*
X16658110Y-9416984D01*
X16839063Y-9416984D02*
X16820015Y-9407460D01*
X16820015Y-9407460D02*
X16810492Y-9388412D01*
X16810492Y-9388412D02*
X16810492Y-9216984D01*
X16991444Y-9407460D02*
X16972396Y-9416984D01*
X16972396Y-9416984D02*
X16934301Y-9416984D01*
X16934301Y-9416984D02*
X16915253Y-9407460D01*
X16915253Y-9407460D02*
X16905730Y-9388412D01*
X16905730Y-9388412D02*
X16905730Y-9312222D01*
X16905730Y-9312222D02*
X16915253Y-9293174D01*
X16915253Y-9293174D02*
X16934301Y-9283650D01*
X16934301Y-9283650D02*
X16972396Y-9283650D01*
X16972396Y-9283650D02*
X16991444Y-9293174D01*
X16991444Y-9293174D02*
X17000968Y-9312222D01*
X17000968Y-9312222D02*
X17000968Y-9331270D01*
X17000968Y-9331270D02*
X16905730Y-9350317D01*
X17077158Y-9407460D02*
X17096206Y-9416984D01*
X17096206Y-9416984D02*
X17134301Y-9416984D01*
X17134301Y-9416984D02*
X17153349Y-9407460D01*
X17153349Y-9407460D02*
X17162873Y-9388412D01*
X17162873Y-9388412D02*
X17162873Y-9378889D01*
X17162873Y-9378889D02*
X17153349Y-9359841D01*
X17153349Y-9359841D02*
X17134301Y-9350317D01*
X17134301Y-9350317D02*
X17105730Y-9350317D01*
X17105730Y-9350317D02*
X17086682Y-9340793D01*
X17086682Y-9340793D02*
X17077158Y-9321746D01*
X17077158Y-9321746D02*
X17077158Y-9312222D01*
X17077158Y-9312222D02*
X17086682Y-9293174D01*
X17086682Y-9293174D02*
X17105730Y-9283650D01*
X17105730Y-9283650D02*
X17134301Y-9283650D01*
X17134301Y-9283650D02*
X17153349Y-9293174D01*
X17229539Y-9493174D02*
X17239063Y-9483650D01*
X17239063Y-9483650D02*
X17258111Y-9455079D01*
X17258111Y-9455079D02*
X17267634Y-9436031D01*
X17267634Y-9436031D02*
X17277158Y-9407460D01*
X17277158Y-9407460D02*
X17286682Y-9359841D01*
X17286682Y-9359841D02*
X17286682Y-9321746D01*
X17286682Y-9321746D02*
X17277158Y-9274127D01*
X17277158Y-9274127D02*
X17267634Y-9245555D01*
X17267634Y-9245555D02*
X17258111Y-9226508D01*
X17258111Y-9226508D02*
X17239063Y-9197936D01*
X17239063Y-9197936D02*
X17229539Y-9188412D01*
D12*
X12264000Y-9589500D02*
G75*
G02*
X12174000Y-9589500I-45000J0D01*
G01*
X12174000Y-9589500D02*
G75*
G02*
X12264000Y-9589500I45000J0D01*
G01*
D11*
X12562872Y-9480984D02*
X12581920Y-9480984D01*
X12581920Y-9480984D02*
X12600967Y-9490508D01*
X12600967Y-9490508D02*
X12610491Y-9500031D01*
X12610491Y-9500031D02*
X12620015Y-9519079D01*
X12620015Y-9519079D02*
X12629539Y-9557174D01*
X12629539Y-9557174D02*
X12629539Y-9604793D01*
X12629539Y-9604793D02*
X12620015Y-9642889D01*
X12620015Y-9642889D02*
X12610491Y-9661936D01*
X12610491Y-9661936D02*
X12600967Y-9671460D01*
X12600967Y-9671460D02*
X12581920Y-9680984D01*
X12581920Y-9680984D02*
X12562872Y-9680984D01*
X12562872Y-9680984D02*
X12543824Y-9671460D01*
X12543824Y-9671460D02*
X12534301Y-9661936D01*
X12534301Y-9661936D02*
X12524777Y-9642889D01*
X12524777Y-9642889D02*
X12515253Y-9604793D01*
X12515253Y-9604793D02*
X12515253Y-9557174D01*
X12515253Y-9557174D02*
X12524777Y-9519079D01*
X12524777Y-9519079D02*
X12534301Y-9500031D01*
X12534301Y-9500031D02*
X12543824Y-9490508D01*
X12543824Y-9490508D02*
X12562872Y-9480984D01*
X12715253Y-9661936D02*
X12724777Y-9671460D01*
X12724777Y-9671460D02*
X12715253Y-9680984D01*
X12715253Y-9680984D02*
X12705729Y-9671460D01*
X12705729Y-9671460D02*
X12715253Y-9661936D01*
X12715253Y-9661936D02*
X12715253Y-9680984D01*
X12820015Y-9680984D02*
X12858110Y-9680984D01*
X12858110Y-9680984D02*
X12877158Y-9671460D01*
X12877158Y-9671460D02*
X12886682Y-9661936D01*
X12886682Y-9661936D02*
X12905729Y-9633365D01*
X12905729Y-9633365D02*
X12915253Y-9595270D01*
X12915253Y-9595270D02*
X12915253Y-9519079D01*
X12915253Y-9519079D02*
X12905729Y-9500031D01*
X12905729Y-9500031D02*
X12896205Y-9490508D01*
X12896205Y-9490508D02*
X12877158Y-9480984D01*
X12877158Y-9480984D02*
X12839062Y-9480984D01*
X12839062Y-9480984D02*
X12820015Y-9490508D01*
X12820015Y-9490508D02*
X12810491Y-9500031D01*
X12810491Y-9500031D02*
X12800967Y-9519079D01*
X12800967Y-9519079D02*
X12800967Y-9566698D01*
X12800967Y-9566698D02*
X12810491Y-9585746D01*
X12810491Y-9585746D02*
X12820015Y-9595270D01*
X12820015Y-9595270D02*
X12839062Y-9604793D01*
X12839062Y-9604793D02*
X12877158Y-9604793D01*
X12877158Y-9604793D02*
X12896205Y-9595270D01*
X12896205Y-9595270D02*
X12905729Y-9585746D01*
X12905729Y-9585746D02*
X12915253Y-9566698D01*
X13039062Y-9480984D02*
X13058110Y-9480984D01*
X13058110Y-9480984D02*
X13077158Y-9490508D01*
X13077158Y-9490508D02*
X13086682Y-9500031D01*
X13086682Y-9500031D02*
X13096205Y-9519079D01*
X13096205Y-9519079D02*
X13105729Y-9557174D01*
X13105729Y-9557174D02*
X13105729Y-9604793D01*
X13105729Y-9604793D02*
X13096205Y-9642889D01*
X13096205Y-9642889D02*
X13086682Y-9661936D01*
X13086682Y-9661936D02*
X13077158Y-9671460D01*
X13077158Y-9671460D02*
X13058110Y-9680984D01*
X13058110Y-9680984D02*
X13039062Y-9680984D01*
X13039062Y-9680984D02*
X13020015Y-9671460D01*
X13020015Y-9671460D02*
X13010491Y-9661936D01*
X13010491Y-9661936D02*
X13000967Y-9642889D01*
X13000967Y-9642889D02*
X12991443Y-9604793D01*
X12991443Y-9604793D02*
X12991443Y-9557174D01*
X12991443Y-9557174D02*
X13000967Y-9519079D01*
X13000967Y-9519079D02*
X13010491Y-9500031D01*
X13010491Y-9500031D02*
X13020015Y-9490508D01*
X13020015Y-9490508D02*
X13039062Y-9480984D01*
X13229539Y-9480984D02*
X13248586Y-9480984D01*
X13248586Y-9480984D02*
X13267634Y-9490508D01*
X13267634Y-9490508D02*
X13277158Y-9500031D01*
X13277158Y-9500031D02*
X13286682Y-9519079D01*
X13286682Y-9519079D02*
X13296205Y-9557174D01*
X13296205Y-9557174D02*
X13296205Y-9604793D01*
X13296205Y-9604793D02*
X13286682Y-9642889D01*
X13286682Y-9642889D02*
X13277158Y-9661936D01*
X13277158Y-9661936D02*
X13267634Y-9671460D01*
X13267634Y-9671460D02*
X13248586Y-9680984D01*
X13248586Y-9680984D02*
X13229539Y-9680984D01*
X13229539Y-9680984D02*
X13210491Y-9671460D01*
X13210491Y-9671460D02*
X13200967Y-9661936D01*
X13200967Y-9661936D02*
X13191443Y-9642889D01*
X13191443Y-9642889D02*
X13181920Y-9604793D01*
X13181920Y-9604793D02*
X13181920Y-9557174D01*
X13181920Y-9557174D02*
X13191443Y-9519079D01*
X13191443Y-9519079D02*
X13200967Y-9500031D01*
X13200967Y-9500031D02*
X13210491Y-9490508D01*
X13210491Y-9490508D02*
X13229539Y-9480984D01*
X13381920Y-9680984D02*
X13381920Y-9547650D01*
X13381920Y-9566698D02*
X13391443Y-9557174D01*
X13391443Y-9557174D02*
X13410491Y-9547650D01*
X13410491Y-9547650D02*
X13439063Y-9547650D01*
X13439063Y-9547650D02*
X13458110Y-9557174D01*
X13458110Y-9557174D02*
X13467634Y-9576222D01*
X13467634Y-9576222D02*
X13467634Y-9680984D01*
X13467634Y-9576222D02*
X13477158Y-9557174D01*
X13477158Y-9557174D02*
X13496205Y-9547650D01*
X13496205Y-9547650D02*
X13524777Y-9547650D01*
X13524777Y-9547650D02*
X13543824Y-9557174D01*
X13543824Y-9557174D02*
X13553348Y-9576222D01*
X13553348Y-9576222D02*
X13553348Y-9680984D01*
X13648586Y-9680984D02*
X13648586Y-9547650D01*
X13648586Y-9566698D02*
X13658110Y-9557174D01*
X13658110Y-9557174D02*
X13677158Y-9547650D01*
X13677158Y-9547650D02*
X13705729Y-9547650D01*
X13705729Y-9547650D02*
X13724777Y-9557174D01*
X13724777Y-9557174D02*
X13734301Y-9576222D01*
X13734301Y-9576222D02*
X13734301Y-9680984D01*
X13734301Y-9576222D02*
X13743824Y-9557174D01*
X13743824Y-9557174D02*
X13762872Y-9547650D01*
X13762872Y-9547650D02*
X13791443Y-9547650D01*
X13791443Y-9547650D02*
X13810491Y-9557174D01*
X13810491Y-9557174D02*
X13820015Y-9576222D01*
X13820015Y-9576222D02*
X13820015Y-9680984D01*
X14210491Y-9471460D02*
X14039063Y-9728603D01*
X14467634Y-9480984D02*
X14486682Y-9480984D01*
X14486682Y-9480984D02*
X14505729Y-9490508D01*
X14505729Y-9490508D02*
X14515253Y-9500031D01*
X14515253Y-9500031D02*
X14524777Y-9519079D01*
X14524777Y-9519079D02*
X14534301Y-9557174D01*
X14534301Y-9557174D02*
X14534301Y-9604793D01*
X14534301Y-9604793D02*
X14524777Y-9642889D01*
X14524777Y-9642889D02*
X14515253Y-9661936D01*
X14515253Y-9661936D02*
X14505729Y-9671460D01*
X14505729Y-9671460D02*
X14486682Y-9680984D01*
X14486682Y-9680984D02*
X14467634Y-9680984D01*
X14467634Y-9680984D02*
X14448586Y-9671460D01*
X14448586Y-9671460D02*
X14439063Y-9661936D01*
X14439063Y-9661936D02*
X14429539Y-9642889D01*
X14429539Y-9642889D02*
X14420015Y-9604793D01*
X14420015Y-9604793D02*
X14420015Y-9557174D01*
X14420015Y-9557174D02*
X14429539Y-9519079D01*
X14429539Y-9519079D02*
X14439063Y-9500031D01*
X14439063Y-9500031D02*
X14448586Y-9490508D01*
X14448586Y-9490508D02*
X14467634Y-9480984D01*
X14620015Y-9661936D02*
X14629539Y-9671460D01*
X14629539Y-9671460D02*
X14620015Y-9680984D01*
X14620015Y-9680984D02*
X14610491Y-9671460D01*
X14610491Y-9671460D02*
X14620015Y-9661936D01*
X14620015Y-9661936D02*
X14620015Y-9680984D01*
X14753348Y-9480984D02*
X14772396Y-9480984D01*
X14772396Y-9480984D02*
X14791444Y-9490508D01*
X14791444Y-9490508D02*
X14800967Y-9500031D01*
X14800967Y-9500031D02*
X14810491Y-9519079D01*
X14810491Y-9519079D02*
X14820015Y-9557174D01*
X14820015Y-9557174D02*
X14820015Y-9604793D01*
X14820015Y-9604793D02*
X14810491Y-9642889D01*
X14810491Y-9642889D02*
X14800967Y-9661936D01*
X14800967Y-9661936D02*
X14791444Y-9671460D01*
X14791444Y-9671460D02*
X14772396Y-9680984D01*
X14772396Y-9680984D02*
X14753348Y-9680984D01*
X14753348Y-9680984D02*
X14734301Y-9671460D01*
X14734301Y-9671460D02*
X14724777Y-9661936D01*
X14724777Y-9661936D02*
X14715253Y-9642889D01*
X14715253Y-9642889D02*
X14705729Y-9604793D01*
X14705729Y-9604793D02*
X14705729Y-9557174D01*
X14705729Y-9557174D02*
X14715253Y-9519079D01*
X14715253Y-9519079D02*
X14724777Y-9500031D01*
X14724777Y-9500031D02*
X14734301Y-9490508D01*
X14734301Y-9490508D02*
X14753348Y-9480984D01*
X14886682Y-9480984D02*
X15010491Y-9480984D01*
X15010491Y-9480984D02*
X14943825Y-9557174D01*
X14943825Y-9557174D02*
X14972396Y-9557174D01*
X14972396Y-9557174D02*
X14991444Y-9566698D01*
X14991444Y-9566698D02*
X15000967Y-9576222D01*
X15000967Y-9576222D02*
X15010491Y-9595270D01*
X15010491Y-9595270D02*
X15010491Y-9642889D01*
X15010491Y-9642889D02*
X15000967Y-9661936D01*
X15000967Y-9661936D02*
X14991444Y-9671460D01*
X14991444Y-9671460D02*
X14972396Y-9680984D01*
X14972396Y-9680984D02*
X14915253Y-9680984D01*
X14915253Y-9680984D02*
X14896206Y-9671460D01*
X14896206Y-9671460D02*
X14886682Y-9661936D01*
X15191444Y-9480984D02*
X15096206Y-9480984D01*
X15096206Y-9480984D02*
X15086682Y-9576222D01*
X15086682Y-9576222D02*
X15096206Y-9566698D01*
X15096206Y-9566698D02*
X15115253Y-9557174D01*
X15115253Y-9557174D02*
X15162872Y-9557174D01*
X15162872Y-9557174D02*
X15181920Y-9566698D01*
X15181920Y-9566698D02*
X15191444Y-9576222D01*
X15191444Y-9576222D02*
X15200967Y-9595270D01*
X15200967Y-9595270D02*
X15200967Y-9642889D01*
X15200967Y-9642889D02*
X15191444Y-9661936D01*
X15191444Y-9661936D02*
X15181920Y-9671460D01*
X15181920Y-9671460D02*
X15162872Y-9680984D01*
X15162872Y-9680984D02*
X15115253Y-9680984D01*
X15115253Y-9680984D02*
X15096206Y-9671460D01*
X15096206Y-9671460D02*
X15086682Y-9661936D01*
X15372396Y-9547650D02*
X15372396Y-9680984D01*
X15324777Y-9471460D02*
X15277158Y-9614317D01*
X15277158Y-9614317D02*
X15400967Y-9614317D01*
X15467634Y-9480984D02*
X15467634Y-9519079D01*
X15543825Y-9480984D02*
X15543825Y-9519079D01*
X15839063Y-9757174D02*
X15829539Y-9747650D01*
X15829539Y-9747650D02*
X15810491Y-9719079D01*
X15810491Y-9719079D02*
X15800968Y-9700031D01*
X15800968Y-9700031D02*
X15791444Y-9671460D01*
X15791444Y-9671460D02*
X15781920Y-9623841D01*
X15781920Y-9623841D02*
X15781920Y-9585746D01*
X15781920Y-9585746D02*
X15791444Y-9538127D01*
X15791444Y-9538127D02*
X15800968Y-9509555D01*
X15800968Y-9509555D02*
X15810491Y-9490508D01*
X15810491Y-9490508D02*
X15829539Y-9461936D01*
X15829539Y-9461936D02*
X15839063Y-9452412D01*
X16020015Y-9680984D02*
X15905729Y-9680984D01*
X15962872Y-9680984D02*
X15962872Y-9480984D01*
X15962872Y-9480984D02*
X15943825Y-9509555D01*
X15943825Y-9509555D02*
X15924777Y-9528603D01*
X15924777Y-9528603D02*
X15905729Y-9538127D01*
X16134301Y-9566698D02*
X16115253Y-9557174D01*
X16115253Y-9557174D02*
X16105729Y-9547650D01*
X16105729Y-9547650D02*
X16096206Y-9528603D01*
X16096206Y-9528603D02*
X16096206Y-9519079D01*
X16096206Y-9519079D02*
X16105729Y-9500031D01*
X16105729Y-9500031D02*
X16115253Y-9490508D01*
X16115253Y-9490508D02*
X16134301Y-9480984D01*
X16134301Y-9480984D02*
X16172396Y-9480984D01*
X16172396Y-9480984D02*
X16191444Y-9490508D01*
X16191444Y-9490508D02*
X16200968Y-9500031D01*
X16200968Y-9500031D02*
X16210491Y-9519079D01*
X16210491Y-9519079D02*
X16210491Y-9528603D01*
X16210491Y-9528603D02*
X16200968Y-9547650D01*
X16200968Y-9547650D02*
X16191444Y-9557174D01*
X16191444Y-9557174D02*
X16172396Y-9566698D01*
X16172396Y-9566698D02*
X16134301Y-9566698D01*
X16134301Y-9566698D02*
X16115253Y-9576222D01*
X16115253Y-9576222D02*
X16105729Y-9585746D01*
X16105729Y-9585746D02*
X16096206Y-9604793D01*
X16096206Y-9604793D02*
X16096206Y-9642889D01*
X16096206Y-9642889D02*
X16105729Y-9661936D01*
X16105729Y-9661936D02*
X16115253Y-9671460D01*
X16115253Y-9671460D02*
X16134301Y-9680984D01*
X16134301Y-9680984D02*
X16172396Y-9680984D01*
X16172396Y-9680984D02*
X16191444Y-9671460D01*
X16191444Y-9671460D02*
X16200968Y-9661936D01*
X16200968Y-9661936D02*
X16210491Y-9642889D01*
X16210491Y-9642889D02*
X16210491Y-9604793D01*
X16210491Y-9604793D02*
X16200968Y-9585746D01*
X16200968Y-9585746D02*
X16191444Y-9576222D01*
X16191444Y-9576222D02*
X16172396Y-9566698D01*
X16448587Y-9680984D02*
X16448587Y-9480984D01*
X16534301Y-9680984D02*
X16534301Y-9576222D01*
X16534301Y-9576222D02*
X16524777Y-9557174D01*
X16524777Y-9557174D02*
X16505730Y-9547650D01*
X16505730Y-9547650D02*
X16477158Y-9547650D01*
X16477158Y-9547650D02*
X16458110Y-9557174D01*
X16458110Y-9557174D02*
X16448587Y-9566698D01*
X16658110Y-9680984D02*
X16639063Y-9671460D01*
X16639063Y-9671460D02*
X16629539Y-9661936D01*
X16629539Y-9661936D02*
X16620015Y-9642889D01*
X16620015Y-9642889D02*
X16620015Y-9585746D01*
X16620015Y-9585746D02*
X16629539Y-9566698D01*
X16629539Y-9566698D02*
X16639063Y-9557174D01*
X16639063Y-9557174D02*
X16658110Y-9547650D01*
X16658110Y-9547650D02*
X16686682Y-9547650D01*
X16686682Y-9547650D02*
X16705730Y-9557174D01*
X16705730Y-9557174D02*
X16715253Y-9566698D01*
X16715253Y-9566698D02*
X16724777Y-9585746D01*
X16724777Y-9585746D02*
X16724777Y-9642889D01*
X16724777Y-9642889D02*
X16715253Y-9661936D01*
X16715253Y-9661936D02*
X16705730Y-9671460D01*
X16705730Y-9671460D02*
X16686682Y-9680984D01*
X16686682Y-9680984D02*
X16658110Y-9680984D01*
X16839063Y-9680984D02*
X16820015Y-9671460D01*
X16820015Y-9671460D02*
X16810492Y-9652412D01*
X16810492Y-9652412D02*
X16810492Y-9480984D01*
X16991444Y-9671460D02*
X16972396Y-9680984D01*
X16972396Y-9680984D02*
X16934301Y-9680984D01*
X16934301Y-9680984D02*
X16915253Y-9671460D01*
X16915253Y-9671460D02*
X16905730Y-9652412D01*
X16905730Y-9652412D02*
X16905730Y-9576222D01*
X16905730Y-9576222D02*
X16915253Y-9557174D01*
X16915253Y-9557174D02*
X16934301Y-9547650D01*
X16934301Y-9547650D02*
X16972396Y-9547650D01*
X16972396Y-9547650D02*
X16991444Y-9557174D01*
X16991444Y-9557174D02*
X17000968Y-9576222D01*
X17000968Y-9576222D02*
X17000968Y-9595270D01*
X17000968Y-9595270D02*
X16905730Y-9614317D01*
X17077158Y-9671460D02*
X17096206Y-9680984D01*
X17096206Y-9680984D02*
X17134301Y-9680984D01*
X17134301Y-9680984D02*
X17153349Y-9671460D01*
X17153349Y-9671460D02*
X17162873Y-9652412D01*
X17162873Y-9652412D02*
X17162873Y-9642889D01*
X17162873Y-9642889D02*
X17153349Y-9623841D01*
X17153349Y-9623841D02*
X17134301Y-9614317D01*
X17134301Y-9614317D02*
X17105730Y-9614317D01*
X17105730Y-9614317D02*
X17086682Y-9604793D01*
X17086682Y-9604793D02*
X17077158Y-9585746D01*
X17077158Y-9585746D02*
X17077158Y-9576222D01*
X17077158Y-9576222D02*
X17086682Y-9557174D01*
X17086682Y-9557174D02*
X17105730Y-9547650D01*
X17105730Y-9547650D02*
X17134301Y-9547650D01*
X17134301Y-9547650D02*
X17153349Y-9557174D01*
X17229539Y-9757174D02*
X17239063Y-9747650D01*
X17239063Y-9747650D02*
X17258111Y-9719079D01*
X17258111Y-9719079D02*
X17267634Y-9700031D01*
X17267634Y-9700031D02*
X17277158Y-9671460D01*
X17277158Y-9671460D02*
X17286682Y-9623841D01*
X17286682Y-9623841D02*
X17286682Y-9585746D01*
X17286682Y-9585746D02*
X17277158Y-9538127D01*
X17277158Y-9538127D02*
X17267634Y-9509555D01*
X17267634Y-9509555D02*
X17258111Y-9490508D01*
X17258111Y-9490508D02*
X17239063Y-9461936D01*
X17239063Y-9461936D02*
X17229539Y-9452412D01*
D12*
X12214000Y-9803500D02*
X12214000Y-9903500D01*
X12164000Y-9853500D02*
X12264000Y-9853500D01*
D11*
X12629539Y-9944984D02*
X12515253Y-9944984D01*
X12572396Y-9944984D02*
X12572396Y-9744984D01*
X12572396Y-9744984D02*
X12553348Y-9773555D01*
X12553348Y-9773555D02*
X12534301Y-9792603D01*
X12534301Y-9792603D02*
X12515253Y-9802127D01*
X12715253Y-9925936D02*
X12724777Y-9935460D01*
X12724777Y-9935460D02*
X12715253Y-9944984D01*
X12715253Y-9944984D02*
X12705729Y-9935460D01*
X12705729Y-9935460D02*
X12715253Y-9925936D01*
X12715253Y-9925936D02*
X12715253Y-9944984D01*
X12848586Y-9744984D02*
X12867634Y-9744984D01*
X12867634Y-9744984D02*
X12886682Y-9754508D01*
X12886682Y-9754508D02*
X12896205Y-9764031D01*
X12896205Y-9764031D02*
X12905729Y-9783079D01*
X12905729Y-9783079D02*
X12915253Y-9821174D01*
X12915253Y-9821174D02*
X12915253Y-9868793D01*
X12915253Y-9868793D02*
X12905729Y-9906889D01*
X12905729Y-9906889D02*
X12896205Y-9925936D01*
X12896205Y-9925936D02*
X12886682Y-9935460D01*
X12886682Y-9935460D02*
X12867634Y-9944984D01*
X12867634Y-9944984D02*
X12848586Y-9944984D01*
X12848586Y-9944984D02*
X12829539Y-9935460D01*
X12829539Y-9935460D02*
X12820015Y-9925936D01*
X12820015Y-9925936D02*
X12810491Y-9906889D01*
X12810491Y-9906889D02*
X12800967Y-9868793D01*
X12800967Y-9868793D02*
X12800967Y-9821174D01*
X12800967Y-9821174D02*
X12810491Y-9783079D01*
X12810491Y-9783079D02*
X12820015Y-9764031D01*
X12820015Y-9764031D02*
X12829539Y-9754508D01*
X12829539Y-9754508D02*
X12848586Y-9744984D01*
X13039062Y-9744984D02*
X13058110Y-9744984D01*
X13058110Y-9744984D02*
X13077158Y-9754508D01*
X13077158Y-9754508D02*
X13086682Y-9764031D01*
X13086682Y-9764031D02*
X13096205Y-9783079D01*
X13096205Y-9783079D02*
X13105729Y-9821174D01*
X13105729Y-9821174D02*
X13105729Y-9868793D01*
X13105729Y-9868793D02*
X13096205Y-9906889D01*
X13096205Y-9906889D02*
X13086682Y-9925936D01*
X13086682Y-9925936D02*
X13077158Y-9935460D01*
X13077158Y-9935460D02*
X13058110Y-9944984D01*
X13058110Y-9944984D02*
X13039062Y-9944984D01*
X13039062Y-9944984D02*
X13020015Y-9935460D01*
X13020015Y-9935460D02*
X13010491Y-9925936D01*
X13010491Y-9925936D02*
X13000967Y-9906889D01*
X13000967Y-9906889D02*
X12991443Y-9868793D01*
X12991443Y-9868793D02*
X12991443Y-9821174D01*
X12991443Y-9821174D02*
X13000967Y-9783079D01*
X13000967Y-9783079D02*
X13010491Y-9764031D01*
X13010491Y-9764031D02*
X13020015Y-9754508D01*
X13020015Y-9754508D02*
X13039062Y-9744984D01*
X13229539Y-9744984D02*
X13248586Y-9744984D01*
X13248586Y-9744984D02*
X13267634Y-9754508D01*
X13267634Y-9754508D02*
X13277158Y-9764031D01*
X13277158Y-9764031D02*
X13286682Y-9783079D01*
X13286682Y-9783079D02*
X13296205Y-9821174D01*
X13296205Y-9821174D02*
X13296205Y-9868793D01*
X13296205Y-9868793D02*
X13286682Y-9906889D01*
X13286682Y-9906889D02*
X13277158Y-9925936D01*
X13277158Y-9925936D02*
X13267634Y-9935460D01*
X13267634Y-9935460D02*
X13248586Y-9944984D01*
X13248586Y-9944984D02*
X13229539Y-9944984D01*
X13229539Y-9944984D02*
X13210491Y-9935460D01*
X13210491Y-9935460D02*
X13200967Y-9925936D01*
X13200967Y-9925936D02*
X13191443Y-9906889D01*
X13191443Y-9906889D02*
X13181920Y-9868793D01*
X13181920Y-9868793D02*
X13181920Y-9821174D01*
X13181920Y-9821174D02*
X13191443Y-9783079D01*
X13191443Y-9783079D02*
X13200967Y-9764031D01*
X13200967Y-9764031D02*
X13210491Y-9754508D01*
X13210491Y-9754508D02*
X13229539Y-9744984D01*
X13381920Y-9944984D02*
X13381920Y-9811650D01*
X13381920Y-9830698D02*
X13391443Y-9821174D01*
X13391443Y-9821174D02*
X13410491Y-9811650D01*
X13410491Y-9811650D02*
X13439063Y-9811650D01*
X13439063Y-9811650D02*
X13458110Y-9821174D01*
X13458110Y-9821174D02*
X13467634Y-9840222D01*
X13467634Y-9840222D02*
X13467634Y-9944984D01*
X13467634Y-9840222D02*
X13477158Y-9821174D01*
X13477158Y-9821174D02*
X13496205Y-9811650D01*
X13496205Y-9811650D02*
X13524777Y-9811650D01*
X13524777Y-9811650D02*
X13543824Y-9821174D01*
X13543824Y-9821174D02*
X13553348Y-9840222D01*
X13553348Y-9840222D02*
X13553348Y-9944984D01*
X13648586Y-9944984D02*
X13648586Y-9811650D01*
X13648586Y-9830698D02*
X13658110Y-9821174D01*
X13658110Y-9821174D02*
X13677158Y-9811650D01*
X13677158Y-9811650D02*
X13705729Y-9811650D01*
X13705729Y-9811650D02*
X13724777Y-9821174D01*
X13724777Y-9821174D02*
X13734301Y-9840222D01*
X13734301Y-9840222D02*
X13734301Y-9944984D01*
X13734301Y-9840222D02*
X13743824Y-9821174D01*
X13743824Y-9821174D02*
X13762872Y-9811650D01*
X13762872Y-9811650D02*
X13791443Y-9811650D01*
X13791443Y-9811650D02*
X13810491Y-9821174D01*
X13810491Y-9821174D02*
X13820015Y-9840222D01*
X13820015Y-9840222D02*
X13820015Y-9944984D01*
X14210491Y-9735460D02*
X14039063Y-9992603D01*
X14467634Y-9744984D02*
X14486682Y-9744984D01*
X14486682Y-9744984D02*
X14505729Y-9754508D01*
X14505729Y-9754508D02*
X14515253Y-9764031D01*
X14515253Y-9764031D02*
X14524777Y-9783079D01*
X14524777Y-9783079D02*
X14534301Y-9821174D01*
X14534301Y-9821174D02*
X14534301Y-9868793D01*
X14534301Y-9868793D02*
X14524777Y-9906889D01*
X14524777Y-9906889D02*
X14515253Y-9925936D01*
X14515253Y-9925936D02*
X14505729Y-9935460D01*
X14505729Y-9935460D02*
X14486682Y-9944984D01*
X14486682Y-9944984D02*
X14467634Y-9944984D01*
X14467634Y-9944984D02*
X14448586Y-9935460D01*
X14448586Y-9935460D02*
X14439063Y-9925936D01*
X14439063Y-9925936D02*
X14429539Y-9906889D01*
X14429539Y-9906889D02*
X14420015Y-9868793D01*
X14420015Y-9868793D02*
X14420015Y-9821174D01*
X14420015Y-9821174D02*
X14429539Y-9783079D01*
X14429539Y-9783079D02*
X14439063Y-9764031D01*
X14439063Y-9764031D02*
X14448586Y-9754508D01*
X14448586Y-9754508D02*
X14467634Y-9744984D01*
X14620015Y-9925936D02*
X14629539Y-9935460D01*
X14629539Y-9935460D02*
X14620015Y-9944984D01*
X14620015Y-9944984D02*
X14610491Y-9935460D01*
X14610491Y-9935460D02*
X14620015Y-9925936D01*
X14620015Y-9925936D02*
X14620015Y-9944984D01*
X14753348Y-9744984D02*
X14772396Y-9744984D01*
X14772396Y-9744984D02*
X14791444Y-9754508D01*
X14791444Y-9754508D02*
X14800967Y-9764031D01*
X14800967Y-9764031D02*
X14810491Y-9783079D01*
X14810491Y-9783079D02*
X14820015Y-9821174D01*
X14820015Y-9821174D02*
X14820015Y-9868793D01*
X14820015Y-9868793D02*
X14810491Y-9906889D01*
X14810491Y-9906889D02*
X14800967Y-9925936D01*
X14800967Y-9925936D02*
X14791444Y-9935460D01*
X14791444Y-9935460D02*
X14772396Y-9944984D01*
X14772396Y-9944984D02*
X14753348Y-9944984D01*
X14753348Y-9944984D02*
X14734301Y-9935460D01*
X14734301Y-9935460D02*
X14724777Y-9925936D01*
X14724777Y-9925936D02*
X14715253Y-9906889D01*
X14715253Y-9906889D02*
X14705729Y-9868793D01*
X14705729Y-9868793D02*
X14705729Y-9821174D01*
X14705729Y-9821174D02*
X14715253Y-9783079D01*
X14715253Y-9783079D02*
X14724777Y-9764031D01*
X14724777Y-9764031D02*
X14734301Y-9754508D01*
X14734301Y-9754508D02*
X14753348Y-9744984D01*
X14886682Y-9744984D02*
X15010491Y-9744984D01*
X15010491Y-9744984D02*
X14943825Y-9821174D01*
X14943825Y-9821174D02*
X14972396Y-9821174D01*
X14972396Y-9821174D02*
X14991444Y-9830698D01*
X14991444Y-9830698D02*
X15000967Y-9840222D01*
X15000967Y-9840222D02*
X15010491Y-9859270D01*
X15010491Y-9859270D02*
X15010491Y-9906889D01*
X15010491Y-9906889D02*
X15000967Y-9925936D01*
X15000967Y-9925936D02*
X14991444Y-9935460D01*
X14991444Y-9935460D02*
X14972396Y-9944984D01*
X14972396Y-9944984D02*
X14915253Y-9944984D01*
X14915253Y-9944984D02*
X14896206Y-9935460D01*
X14896206Y-9935460D02*
X14886682Y-9925936D01*
X15105729Y-9944984D02*
X15143825Y-9944984D01*
X15143825Y-9944984D02*
X15162872Y-9935460D01*
X15162872Y-9935460D02*
X15172396Y-9925936D01*
X15172396Y-9925936D02*
X15191444Y-9897365D01*
X15191444Y-9897365D02*
X15200967Y-9859270D01*
X15200967Y-9859270D02*
X15200967Y-9783079D01*
X15200967Y-9783079D02*
X15191444Y-9764031D01*
X15191444Y-9764031D02*
X15181920Y-9754508D01*
X15181920Y-9754508D02*
X15162872Y-9744984D01*
X15162872Y-9744984D02*
X15124777Y-9744984D01*
X15124777Y-9744984D02*
X15105729Y-9754508D01*
X15105729Y-9754508D02*
X15096206Y-9764031D01*
X15096206Y-9764031D02*
X15086682Y-9783079D01*
X15086682Y-9783079D02*
X15086682Y-9830698D01*
X15086682Y-9830698D02*
X15096206Y-9849746D01*
X15096206Y-9849746D02*
X15105729Y-9859270D01*
X15105729Y-9859270D02*
X15124777Y-9868793D01*
X15124777Y-9868793D02*
X15162872Y-9868793D01*
X15162872Y-9868793D02*
X15181920Y-9859270D01*
X15181920Y-9859270D02*
X15191444Y-9849746D01*
X15191444Y-9849746D02*
X15200967Y-9830698D01*
X15372396Y-9811650D02*
X15372396Y-9944984D01*
X15324777Y-9735460D02*
X15277158Y-9878317D01*
X15277158Y-9878317D02*
X15400967Y-9878317D01*
X15467634Y-9744984D02*
X15467634Y-9783079D01*
X15543825Y-9744984D02*
X15543825Y-9783079D01*
X15839063Y-10021174D02*
X15829539Y-10011650D01*
X15829539Y-10011650D02*
X15810491Y-9983079D01*
X15810491Y-9983079D02*
X15800968Y-9964031D01*
X15800968Y-9964031D02*
X15791444Y-9935460D01*
X15791444Y-9935460D02*
X15781920Y-9887841D01*
X15781920Y-9887841D02*
X15781920Y-9849746D01*
X15781920Y-9849746D02*
X15791444Y-9802127D01*
X15791444Y-9802127D02*
X15800968Y-9773555D01*
X15800968Y-9773555D02*
X15810491Y-9754508D01*
X15810491Y-9754508D02*
X15829539Y-9725936D01*
X15829539Y-9725936D02*
X15839063Y-9716412D01*
X16020015Y-9944984D02*
X15905729Y-9944984D01*
X15962872Y-9944984D02*
X15962872Y-9744984D01*
X15962872Y-9744984D02*
X15943825Y-9773555D01*
X15943825Y-9773555D02*
X15924777Y-9792603D01*
X15924777Y-9792603D02*
X15905729Y-9802127D01*
X16143825Y-9744984D02*
X16162872Y-9744984D01*
X16162872Y-9744984D02*
X16181920Y-9754508D01*
X16181920Y-9754508D02*
X16191444Y-9764031D01*
X16191444Y-9764031D02*
X16200968Y-9783079D01*
X16200968Y-9783079D02*
X16210491Y-9821174D01*
X16210491Y-9821174D02*
X16210491Y-9868793D01*
X16210491Y-9868793D02*
X16200968Y-9906889D01*
X16200968Y-9906889D02*
X16191444Y-9925936D01*
X16191444Y-9925936D02*
X16181920Y-9935460D01*
X16181920Y-9935460D02*
X16162872Y-9944984D01*
X16162872Y-9944984D02*
X16143825Y-9944984D01*
X16143825Y-9944984D02*
X16124777Y-9935460D01*
X16124777Y-9935460D02*
X16115253Y-9925936D01*
X16115253Y-9925936D02*
X16105729Y-9906889D01*
X16105729Y-9906889D02*
X16096206Y-9868793D01*
X16096206Y-9868793D02*
X16096206Y-9821174D01*
X16096206Y-9821174D02*
X16105729Y-9783079D01*
X16105729Y-9783079D02*
X16115253Y-9764031D01*
X16115253Y-9764031D02*
X16124777Y-9754508D01*
X16124777Y-9754508D02*
X16143825Y-9744984D01*
X16448587Y-9944984D02*
X16448587Y-9744984D01*
X16534301Y-9944984D02*
X16534301Y-9840222D01*
X16534301Y-9840222D02*
X16524777Y-9821174D01*
X16524777Y-9821174D02*
X16505730Y-9811650D01*
X16505730Y-9811650D02*
X16477158Y-9811650D01*
X16477158Y-9811650D02*
X16458110Y-9821174D01*
X16458110Y-9821174D02*
X16448587Y-9830698D01*
X16658110Y-9944984D02*
X16639063Y-9935460D01*
X16639063Y-9935460D02*
X16629539Y-9925936D01*
X16629539Y-9925936D02*
X16620015Y-9906889D01*
X16620015Y-9906889D02*
X16620015Y-9849746D01*
X16620015Y-9849746D02*
X16629539Y-9830698D01*
X16629539Y-9830698D02*
X16639063Y-9821174D01*
X16639063Y-9821174D02*
X16658110Y-9811650D01*
X16658110Y-9811650D02*
X16686682Y-9811650D01*
X16686682Y-9811650D02*
X16705730Y-9821174D01*
X16705730Y-9821174D02*
X16715253Y-9830698D01*
X16715253Y-9830698D02*
X16724777Y-9849746D01*
X16724777Y-9849746D02*
X16724777Y-9906889D01*
X16724777Y-9906889D02*
X16715253Y-9925936D01*
X16715253Y-9925936D02*
X16705730Y-9935460D01*
X16705730Y-9935460D02*
X16686682Y-9944984D01*
X16686682Y-9944984D02*
X16658110Y-9944984D01*
X16839063Y-9944984D02*
X16820015Y-9935460D01*
X16820015Y-9935460D02*
X16810492Y-9916412D01*
X16810492Y-9916412D02*
X16810492Y-9744984D01*
X16991444Y-9935460D02*
X16972396Y-9944984D01*
X16972396Y-9944984D02*
X16934301Y-9944984D01*
X16934301Y-9944984D02*
X16915253Y-9935460D01*
X16915253Y-9935460D02*
X16905730Y-9916412D01*
X16905730Y-9916412D02*
X16905730Y-9840222D01*
X16905730Y-9840222D02*
X16915253Y-9821174D01*
X16915253Y-9821174D02*
X16934301Y-9811650D01*
X16934301Y-9811650D02*
X16972396Y-9811650D01*
X16972396Y-9811650D02*
X16991444Y-9821174D01*
X16991444Y-9821174D02*
X17000968Y-9840222D01*
X17000968Y-9840222D02*
X17000968Y-9859270D01*
X17000968Y-9859270D02*
X16905730Y-9878317D01*
X17077158Y-9935460D02*
X17096206Y-9944984D01*
X17096206Y-9944984D02*
X17134301Y-9944984D01*
X17134301Y-9944984D02*
X17153349Y-9935460D01*
X17153349Y-9935460D02*
X17162873Y-9916412D01*
X17162873Y-9916412D02*
X17162873Y-9906889D01*
X17162873Y-9906889D02*
X17153349Y-9887841D01*
X17153349Y-9887841D02*
X17134301Y-9878317D01*
X17134301Y-9878317D02*
X17105730Y-9878317D01*
X17105730Y-9878317D02*
X17086682Y-9868793D01*
X17086682Y-9868793D02*
X17077158Y-9849746D01*
X17077158Y-9849746D02*
X17077158Y-9840222D01*
X17077158Y-9840222D02*
X17086682Y-9821174D01*
X17086682Y-9821174D02*
X17105730Y-9811650D01*
X17105730Y-9811650D02*
X17134301Y-9811650D01*
X17134301Y-9811650D02*
X17153349Y-9821174D01*
X17229539Y-10021174D02*
X17239063Y-10011650D01*
X17239063Y-10011650D02*
X17258111Y-9983079D01*
X17258111Y-9983079D02*
X17267634Y-9964031D01*
X17267634Y-9964031D02*
X17277158Y-9935460D01*
X17277158Y-9935460D02*
X17286682Y-9887841D01*
X17286682Y-9887841D02*
X17286682Y-9849746D01*
X17286682Y-9849746D02*
X17277158Y-9802127D01*
X17277158Y-9802127D02*
X17267634Y-9773555D01*
X17267634Y-9773555D02*
X17258111Y-9754508D01*
X17258111Y-9754508D02*
X17239063Y-9725936D01*
X17239063Y-9725936D02*
X17229539Y-9716412D01*
D13*
X12246427Y-10159927D02*
X12246427Y-10075073D01*
X12161573Y-10075073D01*
X12161573Y-10159927D01*
X12246427Y-10159927D01*
D11*
X12629539Y-10208984D02*
X12515253Y-10208984D01*
X12572396Y-10208984D02*
X12572396Y-10008984D01*
X12572396Y-10008984D02*
X12553348Y-10037555D01*
X12553348Y-10037555D02*
X12534301Y-10056603D01*
X12534301Y-10056603D02*
X12515253Y-10066127D01*
X12715253Y-10189936D02*
X12724777Y-10199460D01*
X12724777Y-10199460D02*
X12715253Y-10208984D01*
X12715253Y-10208984D02*
X12705729Y-10199460D01*
X12705729Y-10199460D02*
X12715253Y-10189936D01*
X12715253Y-10189936D02*
X12715253Y-10208984D01*
X12800967Y-10028031D02*
X12810491Y-10018508D01*
X12810491Y-10018508D02*
X12829539Y-10008984D01*
X12829539Y-10008984D02*
X12877158Y-10008984D01*
X12877158Y-10008984D02*
X12896205Y-10018508D01*
X12896205Y-10018508D02*
X12905729Y-10028031D01*
X12905729Y-10028031D02*
X12915253Y-10047079D01*
X12915253Y-10047079D02*
X12915253Y-10066127D01*
X12915253Y-10066127D02*
X12905729Y-10094698D01*
X12905729Y-10094698D02*
X12791443Y-10208984D01*
X12791443Y-10208984D02*
X12915253Y-10208984D01*
X13039062Y-10008984D02*
X13058110Y-10008984D01*
X13058110Y-10008984D02*
X13077158Y-10018508D01*
X13077158Y-10018508D02*
X13086682Y-10028031D01*
X13086682Y-10028031D02*
X13096205Y-10047079D01*
X13096205Y-10047079D02*
X13105729Y-10085174D01*
X13105729Y-10085174D02*
X13105729Y-10132793D01*
X13105729Y-10132793D02*
X13096205Y-10170889D01*
X13096205Y-10170889D02*
X13086682Y-10189936D01*
X13086682Y-10189936D02*
X13077158Y-10199460D01*
X13077158Y-10199460D02*
X13058110Y-10208984D01*
X13058110Y-10208984D02*
X13039062Y-10208984D01*
X13039062Y-10208984D02*
X13020015Y-10199460D01*
X13020015Y-10199460D02*
X13010491Y-10189936D01*
X13010491Y-10189936D02*
X13000967Y-10170889D01*
X13000967Y-10170889D02*
X12991443Y-10132793D01*
X12991443Y-10132793D02*
X12991443Y-10085174D01*
X12991443Y-10085174D02*
X13000967Y-10047079D01*
X13000967Y-10047079D02*
X13010491Y-10028031D01*
X13010491Y-10028031D02*
X13020015Y-10018508D01*
X13020015Y-10018508D02*
X13039062Y-10008984D01*
X13229539Y-10008984D02*
X13248586Y-10008984D01*
X13248586Y-10008984D02*
X13267634Y-10018508D01*
X13267634Y-10018508D02*
X13277158Y-10028031D01*
X13277158Y-10028031D02*
X13286682Y-10047079D01*
X13286682Y-10047079D02*
X13296205Y-10085174D01*
X13296205Y-10085174D02*
X13296205Y-10132793D01*
X13296205Y-10132793D02*
X13286682Y-10170889D01*
X13286682Y-10170889D02*
X13277158Y-10189936D01*
X13277158Y-10189936D02*
X13267634Y-10199460D01*
X13267634Y-10199460D02*
X13248586Y-10208984D01*
X13248586Y-10208984D02*
X13229539Y-10208984D01*
X13229539Y-10208984D02*
X13210491Y-10199460D01*
X13210491Y-10199460D02*
X13200967Y-10189936D01*
X13200967Y-10189936D02*
X13191443Y-10170889D01*
X13191443Y-10170889D02*
X13181920Y-10132793D01*
X13181920Y-10132793D02*
X13181920Y-10085174D01*
X13181920Y-10085174D02*
X13191443Y-10047079D01*
X13191443Y-10047079D02*
X13200967Y-10028031D01*
X13200967Y-10028031D02*
X13210491Y-10018508D01*
X13210491Y-10018508D02*
X13229539Y-10008984D01*
X13381920Y-10208984D02*
X13381920Y-10075650D01*
X13381920Y-10094698D02*
X13391443Y-10085174D01*
X13391443Y-10085174D02*
X13410491Y-10075650D01*
X13410491Y-10075650D02*
X13439063Y-10075650D01*
X13439063Y-10075650D02*
X13458110Y-10085174D01*
X13458110Y-10085174D02*
X13467634Y-10104222D01*
X13467634Y-10104222D02*
X13467634Y-10208984D01*
X13467634Y-10104222D02*
X13477158Y-10085174D01*
X13477158Y-10085174D02*
X13496205Y-10075650D01*
X13496205Y-10075650D02*
X13524777Y-10075650D01*
X13524777Y-10075650D02*
X13543824Y-10085174D01*
X13543824Y-10085174D02*
X13553348Y-10104222D01*
X13553348Y-10104222D02*
X13553348Y-10208984D01*
X13648586Y-10208984D02*
X13648586Y-10075650D01*
X13648586Y-10094698D02*
X13658110Y-10085174D01*
X13658110Y-10085174D02*
X13677158Y-10075650D01*
X13677158Y-10075650D02*
X13705729Y-10075650D01*
X13705729Y-10075650D02*
X13724777Y-10085174D01*
X13724777Y-10085174D02*
X13734301Y-10104222D01*
X13734301Y-10104222D02*
X13734301Y-10208984D01*
X13734301Y-10104222D02*
X13743824Y-10085174D01*
X13743824Y-10085174D02*
X13762872Y-10075650D01*
X13762872Y-10075650D02*
X13791443Y-10075650D01*
X13791443Y-10075650D02*
X13810491Y-10085174D01*
X13810491Y-10085174D02*
X13820015Y-10104222D01*
X13820015Y-10104222D02*
X13820015Y-10208984D01*
X14210491Y-9999460D02*
X14039063Y-10256603D01*
X14467634Y-10008984D02*
X14486682Y-10008984D01*
X14486682Y-10008984D02*
X14505729Y-10018508D01*
X14505729Y-10018508D02*
X14515253Y-10028031D01*
X14515253Y-10028031D02*
X14524777Y-10047079D01*
X14524777Y-10047079D02*
X14534301Y-10085174D01*
X14534301Y-10085174D02*
X14534301Y-10132793D01*
X14534301Y-10132793D02*
X14524777Y-10170889D01*
X14524777Y-10170889D02*
X14515253Y-10189936D01*
X14515253Y-10189936D02*
X14505729Y-10199460D01*
X14505729Y-10199460D02*
X14486682Y-10208984D01*
X14486682Y-10208984D02*
X14467634Y-10208984D01*
X14467634Y-10208984D02*
X14448586Y-10199460D01*
X14448586Y-10199460D02*
X14439063Y-10189936D01*
X14439063Y-10189936D02*
X14429539Y-10170889D01*
X14429539Y-10170889D02*
X14420015Y-10132793D01*
X14420015Y-10132793D02*
X14420015Y-10085174D01*
X14420015Y-10085174D02*
X14429539Y-10047079D01*
X14429539Y-10047079D02*
X14439063Y-10028031D01*
X14439063Y-10028031D02*
X14448586Y-10018508D01*
X14448586Y-10018508D02*
X14467634Y-10008984D01*
X14620015Y-10189936D02*
X14629539Y-10199460D01*
X14629539Y-10199460D02*
X14620015Y-10208984D01*
X14620015Y-10208984D02*
X14610491Y-10199460D01*
X14610491Y-10199460D02*
X14620015Y-10189936D01*
X14620015Y-10189936D02*
X14620015Y-10208984D01*
X14753348Y-10008984D02*
X14772396Y-10008984D01*
X14772396Y-10008984D02*
X14791444Y-10018508D01*
X14791444Y-10018508D02*
X14800967Y-10028031D01*
X14800967Y-10028031D02*
X14810491Y-10047079D01*
X14810491Y-10047079D02*
X14820015Y-10085174D01*
X14820015Y-10085174D02*
X14820015Y-10132793D01*
X14820015Y-10132793D02*
X14810491Y-10170889D01*
X14810491Y-10170889D02*
X14800967Y-10189936D01*
X14800967Y-10189936D02*
X14791444Y-10199460D01*
X14791444Y-10199460D02*
X14772396Y-10208984D01*
X14772396Y-10208984D02*
X14753348Y-10208984D01*
X14753348Y-10208984D02*
X14734301Y-10199460D01*
X14734301Y-10199460D02*
X14724777Y-10189936D01*
X14724777Y-10189936D02*
X14715253Y-10170889D01*
X14715253Y-10170889D02*
X14705729Y-10132793D01*
X14705729Y-10132793D02*
X14705729Y-10085174D01*
X14705729Y-10085174D02*
X14715253Y-10047079D01*
X14715253Y-10047079D02*
X14724777Y-10028031D01*
X14724777Y-10028031D02*
X14734301Y-10018508D01*
X14734301Y-10018508D02*
X14753348Y-10008984D01*
X14991444Y-10075650D02*
X14991444Y-10208984D01*
X14943825Y-9999460D02*
X14896206Y-10142317D01*
X14896206Y-10142317D02*
X15020015Y-10142317D01*
X15077158Y-10008984D02*
X15210491Y-10008984D01*
X15210491Y-10008984D02*
X15124777Y-10208984D01*
X15277158Y-10028031D02*
X15286682Y-10018508D01*
X15286682Y-10018508D02*
X15305729Y-10008984D01*
X15305729Y-10008984D02*
X15353348Y-10008984D01*
X15353348Y-10008984D02*
X15372396Y-10018508D01*
X15372396Y-10018508D02*
X15381920Y-10028031D01*
X15381920Y-10028031D02*
X15391444Y-10047079D01*
X15391444Y-10047079D02*
X15391444Y-10066127D01*
X15391444Y-10066127D02*
X15381920Y-10094698D01*
X15381920Y-10094698D02*
X15267634Y-10208984D01*
X15267634Y-10208984D02*
X15391444Y-10208984D01*
X15467634Y-10008984D02*
X15467634Y-10047079D01*
X15543825Y-10008984D02*
X15543825Y-10047079D01*
X15839063Y-10285174D02*
X15829539Y-10275650D01*
X15829539Y-10275650D02*
X15810491Y-10247079D01*
X15810491Y-10247079D02*
X15800968Y-10228031D01*
X15800968Y-10228031D02*
X15791444Y-10199460D01*
X15791444Y-10199460D02*
X15781920Y-10151841D01*
X15781920Y-10151841D02*
X15781920Y-10113746D01*
X15781920Y-10113746D02*
X15791444Y-10066127D01*
X15791444Y-10066127D02*
X15800968Y-10037555D01*
X15800968Y-10037555D02*
X15810491Y-10018508D01*
X15810491Y-10018508D02*
X15829539Y-9989936D01*
X15829539Y-9989936D02*
X15839063Y-9980412D01*
X16000968Y-10075650D02*
X16000968Y-10208984D01*
X15953348Y-9999460D02*
X15905729Y-10142317D01*
X15905729Y-10142317D02*
X16029539Y-10142317D01*
X16258110Y-10208984D02*
X16258110Y-10008984D01*
X16343825Y-10208984D02*
X16343825Y-10104222D01*
X16343825Y-10104222D02*
X16334301Y-10085174D01*
X16334301Y-10085174D02*
X16315253Y-10075650D01*
X16315253Y-10075650D02*
X16286682Y-10075650D01*
X16286682Y-10075650D02*
X16267634Y-10085174D01*
X16267634Y-10085174D02*
X16258110Y-10094698D01*
X16467634Y-10208984D02*
X16448587Y-10199460D01*
X16448587Y-10199460D02*
X16439063Y-10189936D01*
X16439063Y-10189936D02*
X16429539Y-10170889D01*
X16429539Y-10170889D02*
X16429539Y-10113746D01*
X16429539Y-10113746D02*
X16439063Y-10094698D01*
X16439063Y-10094698D02*
X16448587Y-10085174D01*
X16448587Y-10085174D02*
X16467634Y-10075650D01*
X16467634Y-10075650D02*
X16496206Y-10075650D01*
X16496206Y-10075650D02*
X16515253Y-10085174D01*
X16515253Y-10085174D02*
X16524777Y-10094698D01*
X16524777Y-10094698D02*
X16534301Y-10113746D01*
X16534301Y-10113746D02*
X16534301Y-10170889D01*
X16534301Y-10170889D02*
X16524777Y-10189936D01*
X16524777Y-10189936D02*
X16515253Y-10199460D01*
X16515253Y-10199460D02*
X16496206Y-10208984D01*
X16496206Y-10208984D02*
X16467634Y-10208984D01*
X16648587Y-10208984D02*
X16629539Y-10199460D01*
X16629539Y-10199460D02*
X16620015Y-10180412D01*
X16620015Y-10180412D02*
X16620015Y-10008984D01*
X16800968Y-10199460D02*
X16781920Y-10208984D01*
X16781920Y-10208984D02*
X16743825Y-10208984D01*
X16743825Y-10208984D02*
X16724777Y-10199460D01*
X16724777Y-10199460D02*
X16715253Y-10180412D01*
X16715253Y-10180412D02*
X16715253Y-10104222D01*
X16715253Y-10104222D02*
X16724777Y-10085174D01*
X16724777Y-10085174D02*
X16743825Y-10075650D01*
X16743825Y-10075650D02*
X16781920Y-10075650D01*
X16781920Y-10075650D02*
X16800968Y-10085174D01*
X16800968Y-10085174D02*
X16810492Y-10104222D01*
X16810492Y-10104222D02*
X16810492Y-10123270D01*
X16810492Y-10123270D02*
X16715253Y-10142317D01*
X16886682Y-10199460D02*
X16905730Y-10208984D01*
X16905730Y-10208984D02*
X16943825Y-10208984D01*
X16943825Y-10208984D02*
X16962873Y-10199460D01*
X16962873Y-10199460D02*
X16972396Y-10180412D01*
X16972396Y-10180412D02*
X16972396Y-10170889D01*
X16972396Y-10170889D02*
X16962873Y-10151841D01*
X16962873Y-10151841D02*
X16943825Y-10142317D01*
X16943825Y-10142317D02*
X16915253Y-10142317D01*
X16915253Y-10142317D02*
X16896206Y-10132793D01*
X16896206Y-10132793D02*
X16886682Y-10113746D01*
X16886682Y-10113746D02*
X16886682Y-10104222D01*
X16886682Y-10104222D02*
X16896206Y-10085174D01*
X16896206Y-10085174D02*
X16915253Y-10075650D01*
X16915253Y-10075650D02*
X16943825Y-10075650D01*
X16943825Y-10075650D02*
X16962873Y-10085174D01*
X17039063Y-10285174D02*
X17048587Y-10275650D01*
X17048587Y-10275650D02*
X17067634Y-10247079D01*
X17067634Y-10247079D02*
X17077158Y-10228031D01*
X17077158Y-10228031D02*
X17086682Y-10199460D01*
X17086682Y-10199460D02*
X17096206Y-10151841D01*
X17096206Y-10151841D02*
X17096206Y-10113746D01*
X17096206Y-10113746D02*
X17086682Y-10066127D01*
X17086682Y-10066127D02*
X17077158Y-10037555D01*
X17077158Y-10037555D02*
X17067634Y-10018508D01*
X17067634Y-10018508D02*
X17048587Y-9989936D01*
X17048587Y-9989936D02*
X17039063Y-9980412D01*
M02*
